G04*
G04 #@! TF.GenerationSoftware,Altium Limited,Altium Designer,20.0.13 (296)*
G04*
G04 Layer_Color=16711935*
%FSLAX25Y25*%
%MOIN*%
G70*
G01*
G75*
%ADD14C,0.00787*%
%ADD15C,0.00500*%
%ADD16C,0.01000*%
%ADD88C,0.00394*%
%ADD89C,0.00397*%
%ADD90C,0.00197*%
D14*
X171643Y236613D02*
X178881Y229376D01*
X171643Y236613D02*
X177489Y242460D01*
X184727Y235222D01*
X178881Y229376D02*
X184727Y235222D01*
D15*
X253421Y359161D02*
X255390Y357193D01*
X140429Y339555D02*
X253421D01*
X255390Y341524D01*
Y357193D01*
X140429Y359161D02*
X253421D01*
X138461Y357193D02*
X140429Y359161D01*
X138461Y341524D02*
Y357193D01*
Y341524D02*
X140429Y339555D01*
X253421D02*
X255390Y341524D01*
X140429Y359161D02*
X253421D01*
X255390Y357193D01*
Y341524D02*
Y357193D01*
X140429Y339555D02*
X253421D01*
X138461Y341524D02*
X140429Y339555D01*
X138461Y341524D02*
Y357193D01*
X140429Y359161D01*
X253421Y33571D02*
X255390Y31602D01*
X140429Y13965D02*
X253421D01*
X255390Y15933D01*
Y31602D01*
X140429Y33571D02*
X253421D01*
X138461Y31602D02*
X140429Y33571D01*
X138461Y15933D02*
Y31602D01*
Y15933D02*
X140429Y13965D01*
X253421D02*
X255390Y15933D01*
X140429Y33571D02*
X253421D01*
X255390Y31602D01*
Y15933D02*
Y31602D01*
X140429Y13965D02*
X253421D01*
X138461Y15933D02*
X140429Y13965D01*
X138461Y15933D02*
Y31602D01*
X140429Y33571D01*
D16*
X105947Y348998D02*
X104280Y348165D01*
X102614Y346499D01*
Y344833D01*
X103447Y344000D01*
X105113D01*
X105947Y344833D01*
Y345666D01*
X105113Y346499D01*
X102614D01*
X32335Y344000D02*
X34001D01*
X33168D01*
Y348998D01*
X32335Y348165D01*
X364665Y350000D02*
X362999D01*
X363832D01*
Y345002D01*
X364665Y345835D01*
X361333Y340000D02*
X364665D01*
X361333Y336668D01*
Y335835D01*
X362166Y335002D01*
X363832D01*
X364665Y335835D01*
X321054Y345002D02*
X324386D01*
Y347501D01*
X322720Y346668D01*
X321887D01*
X321054Y347501D01*
Y349167D01*
X321887Y350000D01*
X323553D01*
X324386Y349167D01*
X321054Y335002D02*
X322720Y335835D01*
X324386Y337501D01*
Y339167D01*
X323553Y340000D01*
X321887D01*
X321054Y339167D01*
Y338334D01*
X321887Y337501D01*
X324386D01*
D88*
X254335Y317102D02*
X254071Y318087D01*
X253350Y318807D01*
X252366Y319071D01*
X251382Y318807D01*
X250661Y318087D01*
X250398Y317102D01*
X250661Y316118D01*
X251382Y315398D01*
X252366Y315134D01*
X253350Y315398D01*
X254071Y316118D01*
X254335Y317102D01*
X194984Y167484D02*
X194720Y168468D01*
X194000Y169189D01*
X193016Y169453D01*
X192032Y169189D01*
X191311Y168468D01*
X191047Y167484D01*
X191311Y166500D01*
X192032Y165779D01*
X193016Y165516D01*
X194000Y165779D01*
X194720Y166500D01*
X194984Y167484D01*
X113724Y221165D02*
X113461Y222150D01*
X112740Y222870D01*
X111756Y223134D01*
X110772Y222870D01*
X110051Y222150D01*
X109787Y221165D01*
X110051Y220181D01*
X110772Y219461D01*
X111756Y219197D01*
X112740Y219461D01*
X113461Y220181D01*
X113724Y221165D01*
X259154Y280496D02*
X258890Y281480D01*
X258169Y282201D01*
X257185Y282465D01*
X256201Y282201D01*
X255480Y281480D01*
X255217Y280496D01*
X255480Y279512D01*
X256201Y278791D01*
X257185Y278528D01*
X258169Y278791D01*
X258890Y279512D01*
X259154Y280496D01*
X264154Y171996D02*
X263890Y172980D01*
X263169Y173701D01*
X262185Y173965D01*
X261201Y173701D01*
X260480Y172980D01*
X260216Y171996D01*
X260480Y171012D01*
X261201Y170291D01*
X262185Y170028D01*
X263169Y170291D01*
X263890Y171012D01*
X264154Y171996D01*
X260965Y124815D02*
X260701Y125799D01*
X259980Y126520D01*
X258996Y126784D01*
X258012Y126520D01*
X257291Y125799D01*
X257028Y124815D01*
X257291Y123831D01*
X258012Y123110D01*
X258996Y122846D01*
X259980Y123110D01*
X260701Y123831D01*
X260965Y124815D01*
X111284Y252504D02*
X111020Y253488D01*
X110299Y254209D01*
X109315Y254472D01*
X108331Y254209D01*
X107610Y253488D01*
X107346Y252504D01*
X107610Y251520D01*
X108331Y250799D01*
X109315Y250535D01*
X110299Y250799D01*
X111020Y251520D01*
X111284Y252504D01*
X130283Y94504D02*
X130020Y95488D01*
X129299Y96209D01*
X128315Y96472D01*
X127331Y96209D01*
X126610Y95488D01*
X126347Y94504D01*
X126610Y93520D01*
X127331Y92799D01*
X128315Y92535D01*
X129299Y92799D01*
X130020Y93520D01*
X130283Y94504D01*
X221342Y255327D02*
X223902Y257886D01*
Y255327D02*
Y295524D01*
X203051D02*
X223902D01*
X203051Y255327D02*
Y295524D01*
Y255327D02*
X223902D01*
X187016Y273358D02*
X188984D01*
X187016Y269421D02*
Y273358D01*
Y269421D02*
X188984D01*
Y273358D01*
X20524Y312000D02*
Y334000D01*
X98083D01*
X20524Y312000D02*
X98083D01*
Y334000D01*
X248823Y301354D02*
X264177D01*
X248823Y320646D02*
X264177D01*
Y301354D02*
Y320646D01*
X248823Y301354D02*
Y320646D01*
X37728Y387500D02*
X101272D01*
X93248Y362500D02*
Y384299D01*
X93941Y385500D01*
X95059D01*
X95752Y384299D01*
Y362500D02*
Y384299D01*
X90500Y362500D02*
X99500D01*
X89500Y361500D02*
X90500Y362500D01*
X89500Y355500D02*
X90500Y354500D01*
X95752Y345248D02*
Y354500D01*
X93248Y345248D02*
X95752D01*
X93248D02*
Y354500D01*
X90500Y352500D02*
Y354500D01*
Y352500D02*
X92189D01*
Y354500D01*
X96811D01*
Y352500D02*
Y354500D01*
Y352500D02*
X98512D01*
X98508Y354500D02*
X98512Y352500D01*
X98508Y354500D02*
X99500D01*
Y362500D01*
X83248D02*
Y384299D01*
X83941Y385500D01*
X85059D01*
X85752Y384299D01*
Y362500D02*
Y384299D01*
X88500Y362500D02*
X89500Y361500D01*
X80500Y362500D02*
X88500D01*
X79500Y361500D02*
X80500Y362500D01*
X73248D02*
Y384299D01*
X73941Y385500D01*
X75059D01*
X75752Y384299D01*
Y362500D02*
Y384299D01*
X85752Y345248D02*
Y354500D01*
X83248Y345248D02*
X85752D01*
X83248D02*
Y354500D01*
X79500Y355500D02*
X80500Y354500D01*
X80496Y352500D02*
X80500Y354500D01*
X80496Y352500D02*
X82189D01*
Y354500D01*
X86811D01*
Y352500D02*
Y354500D01*
Y352500D02*
X88500D01*
Y354500D01*
X89500Y355500D01*
X75752Y345248D02*
Y354500D01*
X73248Y345248D02*
X75752D01*
X73248D02*
Y354500D01*
X78500Y362500D02*
X79500Y361500D01*
X70500Y362500D02*
X78500D01*
X69500Y361500D02*
X70500Y362500D01*
X69500Y355500D02*
X70500Y354500D01*
X70496Y352500D02*
X70500Y354500D01*
X70496Y352500D02*
X72189D01*
Y354500D01*
X76811D01*
Y352500D02*
Y354500D01*
Y352500D02*
X78500D01*
Y354500D01*
X79500Y355500D01*
X63248Y362500D02*
Y384299D01*
X63941Y385500D01*
X65059D01*
X65752Y384299D01*
Y362500D02*
Y384299D01*
X68500Y362500D02*
X69500Y361500D01*
X60500Y362500D02*
X68500D01*
X59500Y361500D02*
X60500Y362500D01*
X65752Y345248D02*
Y354500D01*
X63248Y345248D02*
X65752D01*
X63248D02*
Y354500D01*
X59500Y355500D02*
X60500Y354500D01*
X60496Y352500D02*
X60500Y354500D01*
X60496Y352500D02*
X62189D01*
Y354500D01*
X66811D01*
Y352500D02*
Y354500D01*
Y352500D02*
X68500D01*
Y354500D01*
X69500Y355500D01*
X53248Y362500D02*
Y384299D01*
X53941Y385500D01*
X55059D01*
X55752Y384299D01*
Y362500D02*
Y384299D01*
X58500Y362500D02*
X59500Y361500D01*
X50500Y362500D02*
X58500D01*
X49500Y361500D02*
X50500Y362500D01*
X43248D02*
Y384299D01*
X43941Y385500D01*
X45059D01*
X45752Y384299D01*
Y362500D02*
Y384299D01*
X55752Y345248D02*
Y354500D01*
X53248Y345248D02*
X55752D01*
X53248D02*
Y354500D01*
X49500Y355500D02*
X50500Y354500D01*
X50496Y352500D02*
X50500Y354500D01*
X50496Y352500D02*
X52189D01*
Y354500D01*
X56811D01*
Y352500D02*
Y354500D01*
Y352500D02*
X58500D01*
Y354500D01*
X59500Y355500D01*
X45752Y345248D02*
Y354500D01*
X43248Y345248D02*
X45752D01*
X43248D02*
Y354500D01*
X48500Y362500D02*
X49500Y361500D01*
X39500Y362500D02*
X48500D01*
X101272Y341535D02*
Y387500D01*
X37728Y341535D02*
X101272D01*
X37728D02*
Y387500D01*
X48500Y354500D02*
X49500Y355500D01*
X48500Y352500D02*
Y354500D01*
X46811Y352500D02*
X48500D01*
X46811D02*
Y354500D01*
X42189D02*
X46811D01*
X42189Y352500D02*
Y354500D01*
X40488Y352500D02*
X42189D01*
X40488D02*
X40492Y354500D01*
X39500D02*
X40492D01*
X39500D02*
Y362500D01*
X351248Y363500D02*
Y385299D01*
X351945Y386500D01*
X353055D01*
X353752Y385299D01*
Y363500D02*
Y385299D01*
X359272Y332535D02*
Y388272D01*
X325728D02*
X359272D01*
X325728Y332535D02*
Y388272D01*
Y332535D02*
X359272D01*
X351248Y336280D02*
Y355500D01*
Y336280D02*
X353752D01*
Y355500D01*
X347500Y362500D02*
X348500Y363500D01*
X357500D01*
Y355500D02*
Y363500D01*
X356500Y355500D02*
X357500D01*
X356500Y353500D02*
Y355500D01*
X354811Y353500D02*
X356500D01*
X354811D02*
Y355500D01*
X350189D02*
X354811D01*
X350189Y353500D02*
Y355500D01*
X348500Y353500D02*
X350189D01*
X348500D02*
Y355500D01*
X347500Y356500D02*
X348500Y355500D01*
X338500Y363500D02*
X346500D01*
X347500Y362500D01*
X338500Y353500D02*
Y355500D01*
Y353500D02*
X340189D01*
Y355500D01*
X344811D01*
Y353500D02*
Y355500D01*
Y353500D02*
X346500D01*
Y355500D01*
X347500Y356500D01*
X341248Y363500D02*
Y385299D01*
X341945Y386500D01*
X343055D01*
X343752Y385299D01*
Y363500D02*
Y385299D01*
X336500Y355500D02*
X337500Y356500D01*
X336500Y353500D02*
Y355500D01*
X334811Y353500D02*
X336500D01*
X334811D02*
Y355500D01*
X330189D02*
X334811D01*
X330189Y353500D02*
Y355500D01*
X328500Y353500D02*
X330189D01*
X328500D02*
Y355500D01*
X327500D02*
X328500D01*
X327500D02*
Y363500D01*
X331248D01*
Y385299D01*
X331945Y386500D01*
X333055D01*
X333752Y385299D01*
Y363500D02*
Y385299D01*
Y363500D02*
X336500D01*
X337500Y362500D01*
X341248Y336280D02*
Y355500D01*
Y336280D02*
X343752D01*
Y355500D01*
X337500Y362500D02*
X338500Y363500D01*
X337500Y356500D02*
X338500Y355500D01*
X331248Y336280D02*
Y355500D01*
Y336280D02*
X333752D01*
Y355500D01*
X331248Y363500D02*
X333752D01*
X277417Y211504D02*
X279583D01*
X277417Y215638D02*
X279583D01*
X277417Y211504D02*
Y215638D01*
X279583Y211504D02*
Y215638D01*
X141441Y219059D02*
X196559D01*
X141441Y163941D02*
X196559D01*
X141441D02*
Y219059D01*
X196559Y163941D02*
Y219059D01*
X269945Y215496D02*
Y227504D01*
X263055Y215496D02*
Y227504D01*
Y215496D02*
X269945D01*
X263055Y227504D02*
X269945D01*
X270445Y190496D02*
Y202504D01*
X263555Y190496D02*
Y202504D01*
Y190496D02*
X270445D01*
X263555Y202504D02*
X270445D01*
X282945Y109496D02*
Y121504D01*
X276055Y109496D02*
Y121504D01*
Y109496D02*
X282945D01*
X276055Y121504D02*
X282945D01*
X102701Y224709D02*
X115299D01*
X102701Y213291D02*
X115299D01*
Y224709D01*
X102701Y213291D02*
Y224709D01*
X220496Y158555D02*
X232504D01*
X220496Y165445D02*
X232504D01*
X220496Y158555D02*
Y165445D01*
X232504Y158555D02*
Y165445D01*
X111055Y289496D02*
Y301504D01*
X117945Y289496D02*
Y301504D01*
X111055D02*
X117945D01*
X111055Y289496D02*
X117945D01*
X269945Y239496D02*
Y251504D01*
X263055Y239496D02*
Y251504D01*
Y239496D02*
X269945D01*
X263055Y251504D02*
X269945D01*
X253642Y263961D02*
Y284039D01*
X271358Y263961D02*
Y284039D01*
X253642D02*
X271358D01*
X253642Y263961D02*
X271358D01*
X258642Y155461D02*
Y175539D01*
X276358Y155461D02*
Y175539D01*
X258642D02*
X276358D01*
X258642Y155461D02*
X276358D01*
X242461Y128358D02*
X262539D01*
X242461Y110642D02*
X262539D01*
Y128358D01*
X242461Y110642D02*
Y128358D01*
X112858Y248961D02*
Y269039D01*
X95142Y248961D02*
Y269039D01*
Y248961D02*
X112858D01*
X95142Y269039D02*
X112858D01*
X131858Y90961D02*
Y111039D01*
X114142Y90961D02*
Y111039D01*
Y90961D02*
X131858D01*
X114142Y111039D02*
X131858D01*
X295917Y154500D02*
Y176500D01*
X373476D01*
X295917Y154500D02*
X373476D01*
Y176500D01*
X98583Y156500D02*
Y178500D01*
X21024Y156500D02*
X98583D01*
X21024Y178500D02*
X98583D01*
X21024Y156500D02*
Y178500D01*
X295917Y207500D02*
Y229500D01*
X373476D01*
X295917Y207500D02*
X373476D01*
Y229500D01*
X263000Y98083D02*
X285000D01*
Y20524D02*
Y98083D01*
X263000Y20524D02*
Y98083D01*
Y20524D02*
X285000D01*
X315760Y97819D02*
X337760D01*
Y20260D02*
Y97819D01*
X315760Y20260D02*
Y97819D01*
Y20260D02*
X337760D01*
X295917Y128500D02*
Y150500D01*
X373476D01*
X295917Y128500D02*
X373476D01*
Y150500D01*
X27500Y97583D02*
X49500D01*
Y20024D02*
Y97583D01*
X27500Y20024D02*
Y97583D01*
Y20024D02*
X49500D01*
X98583Y183500D02*
Y205500D01*
X21024Y183500D02*
X98583D01*
X21024Y205500D02*
X98583D01*
X21024Y183500D02*
Y205500D01*
X215000Y150083D02*
X237000D01*
Y72524D02*
Y150083D01*
X215000Y72524D02*
Y150083D01*
Y72524D02*
X237000D01*
X295917Y102500D02*
Y124500D01*
X373476D01*
X295917Y102500D02*
X373476D01*
Y124500D01*
X342500Y97583D02*
X364500D01*
Y20024D02*
Y97583D01*
X342500Y20024D02*
Y97583D01*
Y20024D02*
X364500D01*
X98583Y102500D02*
Y124500D01*
X21024Y102500D02*
X98583D01*
X21024Y124500D02*
X98583D01*
X21024Y102500D02*
Y124500D01*
X295917Y181000D02*
Y203000D01*
X373476D01*
X295917Y181000D02*
X373476D01*
Y203000D01*
X296185Y252000D02*
Y274000D01*
X373744D01*
X296185Y252000D02*
X373744D01*
Y274000D01*
X98083Y286500D02*
Y308500D01*
X20524Y286500D02*
X98083D01*
X20524Y308500D02*
X98083D01*
X20524Y286500D02*
Y308500D01*
X289500Y97815D02*
X311500D01*
Y20256D02*
Y97815D01*
X289500Y20256D02*
Y97815D01*
Y20256D02*
X311500D01*
X98583Y129500D02*
Y151500D01*
X21024Y129500D02*
X98583D01*
X21024Y151500D02*
X98583D01*
X21024Y129500D02*
Y151500D01*
X296417Y278000D02*
Y300000D01*
X373976D01*
X296417Y278000D02*
X373976D01*
Y300000D01*
X383417Y197937D02*
X385583D01*
X383417Y193803D02*
X385583D01*
Y197937D01*
X383417Y193803D02*
Y197937D01*
Y269437D02*
X385583D01*
X383417Y265303D02*
X385583D01*
Y269437D01*
X383417Y265303D02*
Y269437D01*
X9917Y303567D02*
X12083D01*
X9917Y299433D02*
X12083D01*
Y303567D01*
X9917Y299433D02*
Y303567D01*
X383417Y120197D02*
X385583D01*
X383417Y116063D02*
X385583D01*
Y120197D01*
X383417Y116063D02*
Y120197D01*
Y246437D02*
X385583D01*
X383417Y242303D02*
X385583D01*
Y246437D01*
X383417Y242303D02*
Y246437D01*
X232653Y60917D02*
Y63083D01*
X228520Y60917D02*
Y63083D01*
Y60917D02*
X232653D01*
X228520Y63083D02*
X232653D01*
X54835Y8417D02*
Y10583D01*
X58968Y8417D02*
Y10583D01*
X54835D02*
X58968D01*
X54835Y8417D02*
X58968D01*
X75803D02*
Y10583D01*
X79937Y8417D02*
Y10583D01*
X75803D02*
X79937D01*
X75803Y8417D02*
X79937D01*
X295063Y7917D02*
Y10083D01*
X299197Y7917D02*
Y10083D01*
X295063D02*
X299197D01*
X295063Y7917D02*
X299197D01*
X383649Y295567D02*
X385815D01*
X383649Y291433D02*
X385815D01*
Y295567D01*
X383649Y291433D02*
Y295567D01*
X268563Y7917D02*
Y10083D01*
X272697Y7917D02*
Y10083D01*
X268563D02*
X272697D01*
X268563Y7917D02*
X272697D01*
X8649Y145937D02*
X10815D01*
X8649Y141803D02*
X10815D01*
Y145937D01*
X8649Y141803D02*
Y145937D01*
X320063Y8417D02*
Y10583D01*
X324197Y8417D02*
Y10583D01*
X320063D02*
X324197D01*
X320063Y8417D02*
X324197D01*
X97205Y7917D02*
Y10083D01*
X101339Y7917D02*
Y10083D01*
X97205D02*
X101339D01*
X97205Y7917D02*
X101339D01*
X117563D02*
Y10083D01*
X121697Y7917D02*
Y10083D01*
X117563D02*
X121697D01*
X117563Y7917D02*
X121697D01*
X7917Y120067D02*
X10083D01*
X7917Y115933D02*
X10083D01*
Y120067D01*
X7917Y115933D02*
Y120067D01*
X347606Y7917D02*
Y10083D01*
X351740Y7917D02*
Y10083D01*
X347606D02*
X351740D01*
X347606Y7917D02*
X351740D01*
X8917Y330067D02*
X11083D01*
X8917Y325933D02*
X11083D01*
Y330067D01*
X8917Y325933D02*
Y330067D01*
X210067Y60917D02*
Y63083D01*
X205933Y60917D02*
Y63083D01*
Y60917D02*
X210067D01*
X205933Y63083D02*
X210067D01*
X9417Y224197D02*
X11583D01*
X9417Y220063D02*
X11583D01*
Y224197D01*
X9417Y220063D02*
Y224197D01*
X31933Y8417D02*
Y10583D01*
X36067Y8417D02*
Y10583D01*
X31933D02*
X36067D01*
X31933Y8417D02*
X36067D01*
X383417Y144937D02*
X385583D01*
X383417Y140803D02*
X385583D01*
Y144937D01*
X383417Y140803D02*
Y144937D01*
X9417Y200197D02*
X11583D01*
X9417Y196063D02*
X11583D01*
Y200197D01*
X9417Y196063D02*
Y200197D01*
Y262067D02*
X11583D01*
X9417Y257933D02*
X11583D01*
Y262067D01*
X9417Y257933D02*
Y262067D01*
Y243197D02*
X11583D01*
X9417Y239063D02*
X11583D01*
Y243197D01*
X9417Y239063D02*
Y243197D01*
X383417Y171197D02*
X385583D01*
X383417Y167063D02*
X385583D01*
Y171197D01*
X383417Y167063D02*
Y171197D01*
Y223697D02*
X385583D01*
X383417Y219563D02*
X385583D01*
Y223697D01*
X383417Y219563D02*
Y223697D01*
X8917Y174567D02*
X11083D01*
X8917Y170433D02*
X11083D01*
Y174567D01*
X8917Y170433D02*
Y174567D01*
X169937Y60417D02*
Y62583D01*
X165803Y60417D02*
Y62583D01*
Y60417D02*
X169937D01*
X165803Y62583D02*
X169937D01*
X190067Y60917D02*
Y63083D01*
X185933Y60917D02*
Y63083D01*
Y60917D02*
X190067D01*
X185933Y63083D02*
X190067D01*
X164110Y251685D02*
Y262315D01*
X177890Y251685D02*
Y262315D01*
X164110D02*
X177890D01*
X164110Y251685D02*
X177890D01*
X187917Y253437D02*
X190083D01*
X187917Y249303D02*
X190083D01*
Y253437D01*
X187917Y249303D02*
Y253437D01*
X152799Y321654D02*
Y328346D01*
X140201Y321654D02*
Y328346D01*
Y321654D02*
X152799D01*
X140201Y328346D02*
X152799D01*
Y311653D02*
Y318347D01*
X140201Y311653D02*
Y318347D01*
Y311653D02*
X152799D01*
X140201Y318347D02*
X152799D01*
X152803Y301654D02*
Y308347D01*
X140205Y301654D02*
Y308347D01*
Y301654D02*
X152803D01*
X140205Y308347D02*
X152803D01*
X152799Y291653D02*
Y298346D01*
X140201Y291653D02*
Y298346D01*
Y291653D02*
X152799D01*
X140201Y298346D02*
X152799D01*
X152803Y281653D02*
Y288347D01*
X140205Y281653D02*
Y288347D01*
Y281653D02*
X152803D01*
X140205Y288347D02*
X152803D01*
X152799Y271654D02*
Y278346D01*
X140201Y271654D02*
Y278346D01*
Y271654D02*
X152799D01*
X140201Y278346D02*
X152799D01*
Y261653D02*
Y268347D01*
X140201Y261653D02*
Y268347D01*
Y261653D02*
X152799D01*
X140201Y268347D02*
X152799D01*
Y250153D02*
Y256846D01*
X140201Y250153D02*
Y256846D01*
Y250153D02*
X152799D01*
X140201Y256846D02*
X152799D01*
X164110Y265685D02*
Y276315D01*
X177890Y265685D02*
Y276315D01*
X164110D02*
X177890D01*
X164110Y265685D02*
X177890D01*
X9917Y281197D02*
X12083D01*
X9917Y277063D02*
X12083D01*
Y281197D01*
X9917Y277063D02*
Y281197D01*
X183417Y249433D02*
X185583D01*
X183417Y253567D02*
X185583D01*
X183417Y249433D02*
Y253567D01*
X185583Y249433D02*
Y253567D01*
X175803Y305153D02*
Y311846D01*
X163205Y305153D02*
Y311846D01*
Y305153D02*
X175803D01*
X163205Y311846D02*
X175803D01*
Y295153D02*
Y301847D01*
X163205Y295153D02*
Y301847D01*
Y295153D02*
X175803D01*
X163205Y301847D02*
X175803D01*
X164000Y279185D02*
Y289815D01*
X177779Y279185D02*
Y289815D01*
X164000D02*
X177779D01*
X164000Y279185D02*
X177779D01*
X109417Y118638D02*
X111583D01*
X109417Y114504D02*
X111583D01*
Y118638D01*
X109417Y114504D02*
Y118638D01*
X90917Y277067D02*
X93083D01*
X90917Y272933D02*
X93083D01*
Y277067D01*
X90917Y272933D02*
Y277067D01*
X278697Y317417D02*
Y319583D01*
X274563Y317417D02*
Y319583D01*
Y317417D02*
X278697D01*
X274563Y319583D02*
X278697D01*
X236917Y323067D02*
X239083D01*
X236917Y318933D02*
X239083D01*
Y323067D01*
X236917Y318933D02*
Y323067D01*
X189138Y227417D02*
Y229583D01*
X185004Y227417D02*
Y229583D01*
Y227417D02*
X189138D01*
X185004Y229583D02*
X189138D01*
X210996Y184917D02*
Y187083D01*
X206862Y184917D02*
Y187083D01*
Y184917D02*
X210996D01*
X206862Y187083D02*
X210996D01*
X192417Y149504D02*
X194583D01*
X192417Y153638D02*
X194583D01*
X192417Y149504D02*
Y153638D01*
X194583Y149504D02*
Y153638D01*
X127004Y194417D02*
Y196583D01*
X131138Y194417D02*
Y196583D01*
X127004D02*
X131138D01*
X127004Y194417D02*
X131138D01*
X152417Y149504D02*
X154583D01*
X152417Y153638D02*
X154583D01*
X152417Y149504D02*
Y153638D01*
X154583Y149504D02*
Y153638D01*
X187917Y149504D02*
X190083D01*
X187917Y153638D02*
X190083D01*
X187917Y149504D02*
Y153638D01*
X190083Y149504D02*
Y153638D01*
X274843Y303866D02*
X280157D01*
X274843Y312134D02*
X280157D01*
X274843Y303866D02*
Y312134D01*
X280157Y303866D02*
Y312134D01*
X189433Y232417D02*
Y234583D01*
X193567Y232417D02*
Y234583D01*
X189433D02*
X193567D01*
X189433Y232417D02*
X193567D01*
X242417Y96504D02*
X244583D01*
X242417Y100638D02*
X244583D01*
X242417Y96504D02*
Y100638D01*
X244583Y96504D02*
Y100638D01*
X283567Y151917D02*
Y154083D01*
X279433Y151917D02*
Y154083D01*
Y151917D02*
X283567D01*
X279433Y154083D02*
X283567D01*
X188728Y289653D02*
X192272D01*
X188728Y296346D02*
X192272D01*
X188728Y289653D02*
Y296346D01*
X192272Y289653D02*
Y296346D01*
X182228Y296496D02*
X185772D01*
X182228Y289803D02*
X185772D01*
Y296496D01*
X182228Y289803D02*
Y296496D01*
X145917Y233067D02*
X148083D01*
X145917Y228933D02*
X148083D01*
Y233067D01*
X145917Y228933D02*
Y233067D01*
X285067Y263917D02*
Y266083D01*
X280933Y263917D02*
Y266083D01*
Y263917D02*
X285067D01*
X280933Y266083D02*
X285067D01*
X186917Y259862D02*
X189083D01*
X186917Y263996D02*
X189083D01*
X186917Y259862D02*
Y263996D01*
X189083Y259862D02*
Y263996D01*
X186917Y283067D02*
X189083D01*
X186917Y278933D02*
X189083D01*
Y283067D01*
X186917Y278933D02*
Y283067D01*
X271417Y102933D02*
X273583D01*
X271417Y107067D02*
X273583D01*
X271417Y102933D02*
Y107067D01*
X273583Y102933D02*
Y107067D01*
X253917Y187004D02*
X256083D01*
X253917Y191138D02*
X256083D01*
X253917Y187004D02*
Y191138D01*
X256083Y187004D02*
Y191138D01*
X277917Y186862D02*
X280083D01*
X277917Y190996D02*
X280083D01*
X277917Y186862D02*
Y190996D01*
X280083Y186862D02*
Y190996D01*
X210937Y196417D02*
Y198583D01*
X206803Y196417D02*
Y198583D01*
Y196417D02*
X210937D01*
X206803Y198583D02*
X210937D01*
X121917Y309067D02*
X124083D01*
X121917Y304933D02*
X124083D01*
Y309067D01*
X121917Y304933D02*
Y309067D01*
X212433Y166417D02*
Y168583D01*
X216567Y166417D02*
Y168583D01*
X212433D02*
X216567D01*
X212433Y166417D02*
X216567D01*
X211933Y153417D02*
Y155583D01*
X216067Y153417D02*
Y155583D01*
X211933D02*
X216067D01*
X211933Y153417D02*
X216067D01*
X103417Y309496D02*
X105583D01*
X103417Y305362D02*
X105583D01*
Y309496D01*
X103417Y305362D02*
Y309496D01*
X168417Y244567D02*
X170583D01*
X168417Y240433D02*
X170583D01*
Y244567D01*
X168417Y240433D02*
Y244567D01*
X186417Y244067D02*
X188583D01*
X186417Y239933D02*
X188583D01*
Y244067D01*
X186417Y239933D02*
Y244067D01*
X253417Y211862D02*
X255583D01*
X253417Y215996D02*
X255583D01*
X253417Y211862D02*
Y215996D01*
X255583Y211862D02*
Y215996D01*
X253417Y235433D02*
X255583D01*
X253417Y239567D02*
X255583D01*
X253417Y235433D02*
Y239567D01*
X255583Y235433D02*
Y239567D01*
X277417Y236004D02*
X279583D01*
X277417Y240138D02*
X279583D01*
X277417Y236004D02*
Y240138D01*
X279583Y236004D02*
Y240138D01*
X288417Y102933D02*
X290583D01*
X288417Y107067D02*
X290583D01*
X288417Y102933D02*
Y107067D01*
X290583Y102933D02*
Y107067D01*
X159437Y378917D02*
Y381083D01*
X155303Y378917D02*
Y381083D01*
Y378917D02*
X159437D01*
X155303Y381083D02*
X159437D01*
X203567Y379417D02*
Y381583D01*
X199433Y379417D02*
Y381583D01*
Y379417D02*
X203567D01*
X199433Y381583D02*
X203567D01*
X106417Y237567D02*
X108583D01*
X106417Y233433D02*
X108583D01*
Y237567D01*
X106417Y233433D02*
Y237567D01*
X109417Y200504D02*
X111583D01*
X109417Y204638D02*
X111583D01*
X109417Y200504D02*
Y204638D01*
X111583Y200504D02*
Y204638D01*
X244697Y379417D02*
Y381583D01*
X240563Y379417D02*
Y381583D01*
Y379417D02*
X244697D01*
X240563Y381583D02*
X244697D01*
D89*
X20500Y267500D02*
X80500D01*
Y282500D01*
X20500D02*
X80500D01*
X20500Y267500D02*
Y282500D01*
X170500Y73000D02*
Y133000D01*
X155500D02*
X170500D01*
X155500Y73000D02*
Y133000D01*
Y73000D02*
X170500D01*
X190500D02*
Y133000D01*
X175500D02*
X190500D01*
X175500Y73000D02*
Y133000D01*
Y73000D02*
X190500D01*
X20500Y249000D02*
X80500D01*
Y264000D01*
X20500D02*
X80500D01*
X20500Y249000D02*
Y264000D01*
Y229500D02*
X80500D01*
Y244500D01*
X20500D02*
X80500D01*
X20500Y229500D02*
Y244500D01*
X313500Y248500D02*
X373500D01*
X313500Y233500D02*
Y248500D01*
Y233500D02*
X373500D01*
Y248500D01*
X210500Y73000D02*
Y133000D01*
X195500D02*
X210500D01*
X195500Y73000D02*
Y133000D01*
Y73000D02*
X210500D01*
X21000Y210000D02*
X81000D01*
Y225000D01*
X21000D02*
X81000D01*
X21000Y210000D02*
Y225000D01*
X111000Y20000D02*
Y80000D01*
X96000D02*
X111000D01*
X96000Y20000D02*
Y80000D01*
Y20000D02*
X111000D01*
X130902D02*
Y80000D01*
X115902D02*
X130902D01*
X115902Y20000D02*
Y80000D01*
Y20000D02*
X130902D01*
X70000D02*
Y80000D01*
X55000D02*
X70000D01*
X55000Y20000D02*
Y80000D01*
Y20000D02*
X70000D01*
X90500D02*
Y80000D01*
X75500D02*
X90500D01*
X75500Y20000D02*
Y80000D01*
Y20000D02*
X90500D01*
D90*
X382827Y183992D02*
X386173D01*
X382827D02*
Y190291D01*
X386173D01*
Y183992D02*
Y190291D01*
X382827Y255731D02*
X386173D01*
X382827D02*
Y262030D01*
X386173D01*
Y255731D02*
Y262030D01*
X9327Y290122D02*
X12673D01*
X9327D02*
Y296421D01*
X12673D01*
Y290122D02*
Y296421D01*
X382827Y106579D02*
X386173D01*
X382827D02*
Y112878D01*
X386173D01*
Y106579D02*
Y112878D01*
X382827Y232862D02*
X386173D01*
X382827D02*
Y239161D01*
X386173D01*
Y232862D02*
Y239161D01*
X218579Y60327D02*
Y63673D01*
X224878D01*
Y60327D02*
Y63673D01*
X218579Y60327D02*
X224878D01*
X68541Y7827D02*
Y11173D01*
X62242Y7827D02*
X68541D01*
X62242D02*
Y11173D01*
X68541D01*
X89880Y7827D02*
Y11173D01*
X83581Y7827D02*
X89880D01*
X83581D02*
Y11173D01*
X89880D01*
X308769Y7327D02*
Y10673D01*
X302470Y7327D02*
X308769D01*
X302470D02*
Y10673D01*
X308769D01*
X383327Y281579D02*
X386673D01*
X383327D02*
Y287878D01*
X386673D01*
Y281579D02*
Y287878D01*
X282140Y7327D02*
Y10673D01*
X275840Y7327D02*
X282140D01*
X275840D02*
Y10673D01*
X282140D01*
X8059Y132360D02*
X11405D01*
X8059D02*
Y138660D01*
X11405D01*
Y132360D02*
Y138660D01*
X334640Y7827D02*
Y11173D01*
X328340Y7827D02*
X334640D01*
X328340D02*
Y11173D01*
X334640D01*
X110780Y7327D02*
Y10673D01*
X104480Y7327D02*
X110780D01*
X104480D02*
Y10673D01*
X110780D01*
X131770Y7327D02*
Y10673D01*
X125470Y7327D02*
X131770D01*
X125470D02*
Y10673D01*
X131770D01*
X7327Y106579D02*
X10673D01*
X7327D02*
Y112878D01*
X10673D01*
Y106579D02*
Y112878D01*
X360921Y7327D02*
Y10673D01*
X354622Y7327D02*
X360921D01*
X354622D02*
Y10673D01*
X360921D01*
X8327Y316122D02*
X11673D01*
X8327D02*
Y322421D01*
X11673D01*
Y316122D02*
Y322421D01*
X196579Y60327D02*
Y63673D01*
X202878D01*
Y60327D02*
Y63673D01*
X196579Y60327D02*
X202878D01*
X8827Y210360D02*
X12173D01*
X8827D02*
Y216660D01*
X12173D01*
Y210360D02*
Y216660D01*
X45878Y7827D02*
Y11173D01*
X39579Y7827D02*
X45878D01*
X39579D02*
Y11173D01*
X45878D01*
X382827Y131122D02*
X386173D01*
X382827D02*
Y137421D01*
X386173D01*
Y131122D02*
Y137421D01*
X8827Y186752D02*
X12173D01*
X8827D02*
Y193051D01*
X12173D01*
Y186752D02*
Y193051D01*
X8827Y248360D02*
X12173D01*
X8827D02*
Y254660D01*
X12173D01*
Y248360D02*
Y254660D01*
X8827Y229752D02*
X12173D01*
X8827D02*
Y236051D01*
X12173D01*
Y229752D02*
Y236051D01*
X382827Y157860D02*
X386173D01*
X382827D02*
Y164160D01*
X386173D01*
Y157860D02*
Y164160D01*
X382827Y209819D02*
X386173D01*
X382827D02*
Y216118D01*
X386173D01*
Y209819D02*
Y216118D01*
X8327Y160860D02*
X11673D01*
X8327D02*
Y167160D01*
X11673D01*
Y160860D02*
Y167160D01*
X156622Y59827D02*
Y63173D01*
X162921D01*
Y59827D02*
Y63173D01*
X156622Y59827D02*
X162921D01*
X176360Y60327D02*
Y63673D01*
X182660D01*
Y60327D02*
Y63673D01*
X176360Y60327D02*
X182660D01*
X9327Y267860D02*
X12673D01*
X9327D02*
Y274160D01*
X12673D01*
Y267860D02*
Y274160D01*
X146360Y378327D02*
Y381673D01*
X152660D01*
Y378327D02*
Y381673D01*
X146360Y378327D02*
X152660D01*
X189860Y378827D02*
Y382173D01*
X196160D01*
Y378827D02*
Y382173D01*
X189860Y378827D02*
X196160D01*
X231360D02*
Y382173D01*
X237660D01*
Y378827D02*
Y382173D01*
X231360Y378827D02*
X237660D01*
M02*
