M48
;Layer_Color=9474304
;FILE_FORMAT=2:4
INCH,TZ
;TYPE=PLATED
T1F00S00C0.0079
T2F00S00C0.0295
T3F00S00C0.0300
T4F00S00C0.0866
;TYPE=NON_PLATED
T5F00S00C0.0571
%
T01
X3050Y1450
X4850Y950
X5150Y1150
X7050Y950
X7300Y1200
X9200Y950
X9500Y1300
X9550Y1650
X11550Y1250
X13050Y1750
X13450Y1600
X13550Y1200
X14350Y1150
X14500Y1450
X14150
X14850Y1150
X15450
X15200Y2400
Y2600
X14950
Y2400
Y3650
X15150
Y3850
X14950
X15450Y3880
Y6150
X14000Y9200
X14150Y9450
X14000Y9700
X14150Y9950
X14000Y10250
X14150Y10500
X14000Y10750
X14100Y11000
X14850Y10650
X15100Y10350
X15200Y12300
X15000Y12550
Y13100
X14550Y13200
X14650Y12800
X13250Y12550
X12900Y12650
X12500Y12850
X12050Y13275
X13500Y12300
X10700Y11850
Y11450
X10350Y10700
X10150Y10450
X10400Y10250
X10150Y10000
X10400Y9700
X10150Y9400
X10500Y9150
X900Y10400
Y12400
X950Y12950
Y15000
X15750Y14978
Y15350
X16650Y14250
X16950Y14500
X18550Y14950
Y15350
X19700
Y14950
X22650Y15150
X25650Y15000
Y13632
X25900Y13750
X26150Y13650
X25372Y13772
X25100Y13650
X24850Y13768
X24621Y13629
X24071Y13080
X23950Y11350
Y10050
X24350Y9300
X27850Y9350
X28450
X27636Y10314
X27600Y10700
X29300
Y10300
X29000Y11400
X28350Y14950
X27957Y14943
X23750Y6200
X21400
X21500Y6700
X19250Y6550
X19400Y6200
X17400Y6150
X17000Y5750
X17035Y3850
X17428
X17231Y3650
X16839
X16445
X16050
X15657
X15853Y3850
X16250
X16642
X17625Y3650
X17828Y3828
X18020Y3650
X18200Y3817
X18413Y3650
X18600Y3800
X18806Y3650
X19000Y3800
X19200Y3650
X19400Y3800
X19595Y3650
X19800Y3800
X19988Y3650
X20200Y3800
X20450Y3650
X20700
X20550Y3850
X20950Y3800
X21161Y3650
X21350Y3800
X21750Y3850
X21650Y3650
X21900
X22150Y3800
X22350Y3650
X22550Y3800
X22750Y3650
X22950Y3800
X23300Y3850
Y3650
X23700
Y3850
X24100
X24500
X24300Y3650
X24400Y2250
X23750Y2450
Y2650
X23300
Y2450
X21800
X21900Y2650
X21650
X20600
X20700Y2450
X20450
X19600Y2500
X18450
X17450
X16650
X15950
X15700Y1150
X18550Y4150
X19100Y4100
X19650Y4150
X20050
X26850Y500
X28450Y900
X29050
X31200
X31650Y950
X33700
X34350Y900
X36400
X36800Y10000
X37000Y12650
X38450Y12450
Y14850
X37000Y15250
X37050Y17900
X38450Y17550
Y20200
X37200Y20550
X38450Y22750
Y25000
Y27450
Y29900
X36500Y30350
X33150Y25950
X33200Y25550
X32600Y25600
X28500Y26114
X28100Y26100
X28000Y27000
X28200Y27250
X28050Y27500
X27750Y24550
X28200Y24000
X27478Y23600
X27750Y22150
X28200Y21550
Y21150
X27800Y19650
X28250Y19100
Y18700
X28450Y17200
X28650Y16900
X28450Y16650
X28650Y16400
X28450Y16150
X28650Y15900
X28750Y17450
X24900Y17200
X25050Y16950
X24900Y16650
X25050Y16400
X24900Y16150
X25050Y15900
X24946Y15654
X25128Y18700
X25150Y19100
X25300Y20400
X25100Y21200
Y21600
X25600Y22500
X25800Y23550
X25100Y23950
X25500Y24950
X24250Y25350
X23800Y25391
X22100Y25350
X22145Y25906
Y26156
X23445Y26906
X23645Y27156
X23395Y27656
X23595Y27906
X23395Y28156
X21784Y28206
X22045Y29206
X21500Y29950
X20445Y28956
Y28706
Y28456
Y28206
X20429Y27940
X20445Y27172
X19245Y26556
X18450Y26000
X18100Y24950
X17750Y24600
X17300Y24450
X18400Y24400
X19250Y24950
X19818Y25483
X19700Y23350
X19250Y22850
X18150Y22750
X18100Y21650
X17850Y20900
X20850Y20750
X21250Y20550
X21600Y20350
X21900Y20750
X21074Y20076
X21100Y18950
X20700Y19000
X19313Y18750
X19050Y16600
X20500Y17000
X20700Y17200
X21250Y17100
X21650
Y15800
X21200
X23000Y20050
X24450Y26500
X24500Y27050
X24350Y27300
X24500Y27550
X23950Y30850
X25400Y31100
X25850
Y30600
X25400
X19050Y30000
X18400
X18000Y29850
Y30850
X18450Y28300
X15900Y23850
X15700Y22750
X15050Y22850
X14400Y23350
X12300Y23850
X11400Y24100
X11100Y23750
Y23450
Y23100
X11677Y23150
X12150Y25000
X12320Y25250
X12150Y25500
X12350Y25800
X12150Y26050
X12368Y26300
X12150Y26550
X11600Y27100
X8850Y27250
Y27700
X8800Y28100
X9450Y28300
X10350Y29550
X10100Y30550
Y30950
X12650
Y30550
X8259Y26600
X8500Y26250
X8300Y26000
X8500Y25750
X8300Y25500
X8500Y25250
X8350Y25000
X8000Y22709
X8250Y20750
X7350Y20800
X10700Y20550
X11400Y20450
Y20050
X12700Y19900
X13100
X14400Y19350
X14950Y20900
X15528Y16628
X6300Y18100
X5700
X1050Y18400
X1000Y17850
Y15800
X1050Y20400
Y20800
Y22750
X1350
Y24700
X1050Y24650
X1100Y26600
X800Y26550
X1100Y28450
Y28800
Y30750
X1000Y31350
Y33400
X7131Y33831
X7950Y33800
X10050Y33300
Y33000
X10150Y32600
X10600
X10900Y32550
X11400
X11800Y32559
X11950Y33350
X12200
X12600
X12950
X13147Y33184
X12791Y33109
X12400Y33150
X10650Y32950
X10350Y33300
X11100Y31850
X15050Y35150
X15250Y35000
X15450Y35150
X14400Y38000
X16400
X18700Y38050
X21000
X20950Y36400
X20600
X20791Y36200
X20400
X19800Y36150
X19600Y36350
X19400Y36200
X18550Y34750
X18350
X18100
Y33650
X18350
X18550
X17250Y33700
X17050Y33550
X16850Y33700
X16650Y33550
X16250Y33700
X16050Y33550
X15850Y35150
X15650Y35000
X20400Y34650
X20600Y34800
X20950
X20800Y33637
X21150Y33500
X21350Y33650
X21550Y33500
X21750Y33650
X22350Y33550
X23000
X24500
X24150Y32300
X23850Y31550
X26750Y32200
X23950Y36350
X23750Y36200
X23550Y36350
X23350Y36200
X23150Y36350
X22950Y36200
X22150
X22900Y38050
X24850
X20200Y33650
X19995Y33509
T02
X3850Y2900
Y3900
Y4900
Y6900
Y7900
Y8900
X4000Y11350
X5000
X7000
X8000
X9000
Y14050
X8000
X7000
X5000
X4000
X3000
Y11350
X6250Y7200
Y5700
Y4200
Y2700
X8300
Y4200
Y5700
Y7200
X10350
Y5700
Y4200
Y2700
X12340
Y4200
Y5700
Y7200
X16300Y8000
Y9500
Y11000
Y12500
X18300
Y11000
Y9500
Y8000
X20300
Y9500
Y11000
Y12500
X22600Y12150
Y13150
Y14150
Y10150
Y9150
Y8150
X27400Y7950
Y8950
Y6950
Y4950
Y3950
Y2950
X30050Y2923
Y3923
Y4923
Y6923
Y7923
Y8923
X30450Y11350
Y13950
X31450
X32450
X34450
X35450
X36450
Y11350
X35450
X34450
X32450
X31450
X32676Y8924
Y7924
Y6924
Y4924
Y3924
Y2924
X35350Y2900
Y3900
Y4900
Y6900
Y7900
Y8900
X35450Y16550
X34450
X32450
X31450
Y19200
X32450
X34450
X35450
X36450
Y16550
Y21850
X35450
X34450
X32450
X31450
X32150Y24100
X33650
X35150
X36650
X36477Y26300
X35477
X34477
X32477
X31477
X31500Y28900
X32500
X34500
X35500
X36500
X30500
X30477Y26300
X30450Y21850
Y19200
Y16550
X9000Y16750
X8000
X7000
X5000
X4000
X3000
Y19450
X4000
X5000
X7000
X8000
X9000
X7300Y21750
X5800
X4300
X2800
X2750Y23700
X4250
X5750
X7250
Y25650
X5750
X4250
X2750
Y27500
X4250
X5750
X7250
X6950Y29750
X7950
X8950
X4950
X3950
X2950
Y32300
X3950
X4950
X6950
X7950
X8950
T03
X4450Y34650
X5450
X6450
X7450
X8450
X9450
X33250Y34750
Y33750
X34250
Y34750
X35250
Y33750
T04
X1484Y1412
X37901Y1609
X1563Y37908
X37862
T05
X14378Y2042
Y2711
X25007
Y2042
X14378Y34601
Y35270
X25007
Y34601
M30
