G04*
G04 #@! TF.GenerationSoftware,Altium Limited,Altium Designer,20.0.13 (296)*
G04*
G04 Layer_Physical_Order=1*
G04 Layer_Color=255*
%FSLAX25Y25*%
%MOIN*%
G70*
G01*
G75*
%ADD16C,0.01000*%
%ADD30R,0.02362X0.01968*%
%ADD32R,0.01968X0.02362*%
G04:AMPARAMS|DCode=39|XSize=47.24mil|YSize=43.31mil|CornerRadius=0mil|HoleSize=0mil|Usage=FLASHONLY|Rotation=135.000|XOffset=0mil|YOffset=0mil|HoleType=Round|Shape=Rectangle|*
%AMROTATEDRECTD39*
4,1,4,0.03202,-0.00139,0.00139,-0.03202,-0.03202,0.00139,-0.00139,0.03202,0.03202,-0.00139,0.0*
%
%ADD39ROTATEDRECTD39*%

%ADD48O,0.06299X0.01772*%
%ADD49R,0.02835X0.02717*%
%ADD50O,0.06693X0.02559*%
%ADD51R,0.02835X0.02992*%
%ADD52O,0.01181X0.06496*%
%ADD53O,0.06496X0.01181*%
%ADD54R,0.04724X0.02559*%
%ADD55O,0.01772X0.04921*%
%ADD56R,0.02559X0.04724*%
%ADD57O,0.06299X0.01772*%
%ADD58O,0.01772X0.06299*%
%ADD59R,0.01181X0.05906*%
%ADD60C,0.03937*%
%ADD61R,0.02559X0.02756*%
%ADD62R,0.02756X0.02559*%
%ADD63R,0.06890X0.11024*%
%ADD64R,0.04921X0.07087*%
%ADD65R,0.02992X0.02835*%
%ADD66R,0.05906X0.05709*%
%ADD67R,0.03543X0.03150*%
%ADD68R,0.02835X0.02835*%
%ADD69C,0.00400*%
%ADD70C,0.01155*%
%ADD71C,0.04528*%
%ADD72R,0.04528X0.04528*%
%ADD73C,0.06378*%
%ADD74C,0.19685*%
%ADD75R,0.04528X0.04528*%
%ADD76C,0.05709*%
%ADD77C,0.01772*%
G36*
X187000Y345428D02*
X186299D01*
Y342075D01*
Y338722D01*
X187000D01*
Y334500D01*
X179500D01*
Y338722D01*
X179993D01*
Y342075D01*
Y345428D01*
X179500D01*
Y349000D01*
X187000D01*
Y345428D01*
D02*
G37*
G36*
X282500Y315500D02*
Y299000D01*
X240500D01*
Y299500D01*
Y307502D01*
X240554Y307582D01*
X242003D01*
X242199Y307289D01*
X242754Y306918D01*
X243409Y306788D01*
X247543D01*
X248199Y306918D01*
X248754Y307289D01*
X249125Y307845D01*
X249256Y308500D01*
X249125Y309155D01*
X248754Y309711D01*
X248199Y310082D01*
X247543Y310212D01*
X243409D01*
X242754Y310082D01*
X242199Y309711D01*
X242003Y309418D01*
X240554D01*
X240500Y309498D01*
Y316000D01*
X266606D01*
Y315212D01*
X265457D01*
X264801Y315082D01*
X264246Y314711D01*
X263875Y314155D01*
X263744Y313500D01*
X263875Y312845D01*
X264246Y312289D01*
X264801Y311918D01*
X265457Y311788D01*
X269590D01*
X270246Y311918D01*
X270801Y312289D01*
X271173Y312845D01*
X271303Y313500D01*
X271173Y314155D01*
X270801Y314711D01*
X270246Y315082D01*
X269590Y315212D01*
X268441D01*
Y316000D01*
X277582D01*
Y314896D01*
X274147D01*
Y308387D01*
X280853D01*
Y314896D01*
X279418D01*
Y316000D01*
X282500D01*
Y315500D01*
D02*
G37*
G36*
X159000Y318500D02*
X160500Y317000D01*
X166500D01*
X169500Y314000D01*
Y295000D01*
X171000Y293500D01*
Y248000D01*
X170500Y247500D01*
X148000D01*
Y329500D01*
Y330500D01*
X159000D01*
Y318500D01*
D02*
G37*
G36*
X240000Y39498D02*
X239695Y39041D01*
X239587Y38500D01*
X239695Y37959D01*
X240000Y37502D01*
Y34404D01*
X239448D01*
Y31051D01*
Y27698D01*
X240000D01*
Y24000D01*
X240000Y23000D01*
X230500D01*
Y27698D01*
X231174D01*
Y31051D01*
Y34404D01*
X230500D01*
Y37002D01*
X230805Y37459D01*
X230913Y38000D01*
X230805Y38541D01*
X230500Y38998D01*
Y40000D01*
X240000D01*
Y39498D01*
D02*
G37*
G36*
X220500Y38998D02*
X220195Y38541D01*
X220087Y38000D01*
X220195Y37459D01*
X220500Y37002D01*
Y34404D01*
X219763D01*
Y31051D01*
Y27698D01*
X220500D01*
Y23000D01*
X215000Y23000D01*
Y27698D01*
X215426D01*
Y31051D01*
Y34404D01*
X215000D01*
Y40000D01*
X220500Y40000D01*
Y38998D01*
D02*
G37*
G36*
X208500Y38998D02*
X208195Y38541D01*
X208087Y38000D01*
X208195Y37459D01*
X208500Y37002D01*
X208500Y34404D01*
X207952D01*
Y31051D01*
Y27698D01*
X208500D01*
X208500Y23000D01*
X203000D01*
X203000Y27698D01*
X203615D01*
Y31051D01*
Y34404D01*
X203000D01*
X203000Y37002D01*
X203305Y37459D01*
X203413Y38000D01*
X203305Y38541D01*
X203000Y38998D01*
Y39500D01*
X208500D01*
Y38998D01*
D02*
G37*
G36*
X153304Y39500D02*
X153195Y39336D01*
X153087Y38795D01*
X153195Y38254D01*
X153500Y37797D01*
Y34404D01*
X152834D01*
Y31051D01*
Y27698D01*
X153500D01*
Y23500D01*
Y23000D01*
Y22500D01*
X148000Y22500D01*
Y27698D01*
X148497D01*
Y31051D01*
Y34404D01*
X148000D01*
Y40000D01*
X153037D01*
X153304Y39500D01*
D02*
G37*
G36*
X140275Y22000D02*
X140036Y21423D01*
X139904Y20421D01*
X140036Y19419D01*
X140423Y18485D01*
X141038Y17684D01*
X141840Y17068D01*
X142773Y16681D01*
X143776Y16550D01*
X144778Y16681D01*
X145711Y17068D01*
X146513Y17684D01*
X147129Y18485D01*
X147206Y18673D01*
X147706Y18574D01*
Y16684D01*
X148697D01*
Y16484D01*
X148897D01*
Y13131D01*
X150465D01*
Y16484D01*
X150865D01*
Y13131D01*
X152434D01*
Y16484D01*
X152834D01*
Y13131D01*
X153500D01*
Y12498D01*
X153195Y12041D01*
X153087Y11500D01*
X153195Y10959D01*
X153500Y10502D01*
Y10000D01*
X141419D01*
X138000Y13418D01*
Y22500D01*
X139941D01*
X140275Y22000D01*
D02*
G37*
%LPC*%
G36*
X185898Y345428D02*
X184330D01*
Y342075D01*
Y338722D01*
X185898D01*
Y342075D01*
Y345428D01*
D02*
G37*
G36*
X183930D02*
X182361D01*
Y342075D01*
Y338722D01*
X183930D01*
Y342075D01*
Y345428D01*
D02*
G37*
G36*
X181961D02*
X180393D01*
Y342075D01*
Y338722D01*
X181961D01*
Y342075D01*
Y345428D01*
D02*
G37*
G36*
X247543Y315212D02*
X245676D01*
Y313700D01*
X249216D01*
X249125Y314155D01*
X248754Y314711D01*
X248199Y315082D01*
X247543Y315212D01*
D02*
G37*
G36*
X245276D02*
X243409D01*
X242754Y315082D01*
X242199Y314711D01*
X241827Y314155D01*
X241737Y313700D01*
X245276D01*
Y315212D01*
D02*
G37*
G36*
X249216Y313300D02*
X245676D01*
Y311788D01*
X247543D01*
X248199Y311918D01*
X248754Y312289D01*
X249125Y312845D01*
X249216Y313300D01*
D02*
G37*
G36*
X245276D02*
X241737D01*
X241827Y312845D01*
X242199Y312289D01*
X242754Y311918D01*
X243409Y311788D01*
X245276D01*
Y313300D01*
D02*
G37*
G36*
X269590Y310212D02*
X267724D01*
Y308700D01*
X271263D01*
X271173Y309155D01*
X270801Y309711D01*
X270246Y310082D01*
X269590Y310212D01*
D02*
G37*
G36*
X267324D02*
X265457D01*
X264801Y310082D01*
X264246Y309711D01*
X263875Y309155D01*
X263784Y308700D01*
X267324D01*
Y310212D01*
D02*
G37*
G36*
X271263Y308300D02*
X267724D01*
Y306788D01*
X269590D01*
X270246Y306918D01*
X270801Y307289D01*
X271173Y307845D01*
X271263Y308300D01*
D02*
G37*
G36*
X267324D02*
X263784D01*
X263875Y307845D01*
X264246Y307289D01*
X264801Y306918D01*
X265457Y306788D01*
X267324D01*
Y308300D01*
D02*
G37*
G36*
X280853Y307613D02*
X277700D01*
Y304558D01*
X280853D01*
Y307613D01*
D02*
G37*
G36*
X277300D02*
X274147D01*
Y304558D01*
X277300D01*
Y307613D01*
D02*
G37*
G36*
X269590Y305212D02*
X267724D01*
Y303700D01*
X271263D01*
X271173Y304155D01*
X270801Y304711D01*
X270246Y305082D01*
X269590Y305212D01*
D02*
G37*
G36*
X247543D02*
X245676D01*
Y303700D01*
X249216D01*
X249125Y304155D01*
X248754Y304711D01*
X248199Y305082D01*
X247543Y305212D01*
D02*
G37*
G36*
X267324D02*
X265457D01*
X264801Y305082D01*
X264246Y304711D01*
X263875Y304155D01*
X263784Y303700D01*
X267324D01*
Y305212D01*
D02*
G37*
G36*
X245276D02*
X243409D01*
X242754Y305082D01*
X242199Y304711D01*
X241827Y304155D01*
X241737Y303700D01*
X245276D01*
Y305212D01*
D02*
G37*
G36*
X271263Y303300D02*
X267724D01*
Y301788D01*
X269590D01*
X270246Y301918D01*
X270801Y302289D01*
X271173Y302845D01*
X271263Y303300D01*
D02*
G37*
G36*
X267324D02*
X263784D01*
X263875Y302845D01*
X264246Y302289D01*
X264801Y301918D01*
X265457Y301788D01*
X267324D01*
Y303300D01*
D02*
G37*
G36*
X249216D02*
X245676D01*
Y301788D01*
X247543D01*
X248199Y301918D01*
X248754Y302289D01*
X249125Y302845D01*
X249216Y303300D01*
D02*
G37*
G36*
X245276D02*
X241737D01*
X241827Y302845D01*
X242199Y302289D01*
X242754Y301918D01*
X243409Y301788D01*
X245276D01*
Y303300D01*
D02*
G37*
G36*
X280853Y304158D02*
X277700D01*
Y301104D01*
X280853D01*
Y304158D01*
D02*
G37*
G36*
X277300D02*
X274147D01*
Y301104D01*
X277300D01*
Y304158D01*
D02*
G37*
G36*
X155365Y328943D02*
X152704D01*
Y325200D01*
X155365D01*
Y328943D01*
D02*
G37*
G36*
X152304D02*
X149643D01*
Y325200D01*
X152304D01*
Y328943D01*
D02*
G37*
G36*
X155365Y324800D02*
X152704D01*
Y321057D01*
X155365D01*
Y324800D01*
D02*
G37*
G36*
X152304D02*
X149643D01*
Y321057D01*
X152304D01*
Y324800D01*
D02*
G37*
G36*
X155365Y318943D02*
X152704D01*
Y315200D01*
X155365D01*
Y318943D01*
D02*
G37*
G36*
X152304D02*
X149643D01*
Y315200D01*
X152304D01*
Y318943D01*
D02*
G37*
G36*
X155365Y314800D02*
X152704D01*
Y311057D01*
X155365D01*
Y314800D01*
D02*
G37*
G36*
X152304D02*
X149643D01*
Y311057D01*
X152304D01*
Y314800D01*
D02*
G37*
G36*
X166361Y312443D02*
X163700D01*
Y308700D01*
X166361D01*
Y312443D01*
D02*
G37*
G36*
X163300D02*
X160639D01*
Y308700D01*
X163300D01*
Y312443D01*
D02*
G37*
G36*
X155368Y308943D02*
X152708D01*
Y305200D01*
X155368D01*
Y308943D01*
D02*
G37*
G36*
X152308D02*
X149647D01*
Y305200D01*
X152308D01*
Y308943D01*
D02*
G37*
G36*
X166361Y308300D02*
X163700D01*
Y304557D01*
X166361D01*
Y308300D01*
D02*
G37*
G36*
X163300D02*
X160639D01*
Y304557D01*
X163300D01*
Y308300D01*
D02*
G37*
G36*
X155368Y304800D02*
X152708D01*
Y301057D01*
X155368D01*
Y304800D01*
D02*
G37*
G36*
X152308D02*
X149647D01*
Y301057D01*
X152308D01*
Y304800D01*
D02*
G37*
G36*
X166361Y302443D02*
X163700D01*
Y298700D01*
X166361D01*
Y302443D01*
D02*
G37*
G36*
X163300D02*
X160639D01*
Y298700D01*
X163300D01*
Y302443D01*
D02*
G37*
G36*
X155365Y298943D02*
X152704D01*
Y295200D01*
X155365D01*
Y298943D01*
D02*
G37*
G36*
X152304D02*
X149643D01*
Y295200D01*
X152304D01*
Y298943D01*
D02*
G37*
G36*
X166361Y298300D02*
X163700D01*
Y294557D01*
X166361D01*
Y298300D01*
D02*
G37*
G36*
X163300D02*
X160639D01*
Y294557D01*
X163300D01*
Y298300D01*
D02*
G37*
G36*
X155365Y294800D02*
X152704D01*
Y291057D01*
X155365D01*
Y294800D01*
D02*
G37*
G36*
X152304D02*
X149643D01*
Y291057D01*
X152304D01*
Y294800D01*
D02*
G37*
G36*
X155368Y288943D02*
X152708D01*
Y285200D01*
X155368D01*
Y288943D01*
D02*
G37*
G36*
X152308D02*
X149647D01*
Y285200D01*
X152308D01*
Y288943D01*
D02*
G37*
G36*
X169124Y290412D02*
X165480D01*
Y284700D01*
X169124D01*
Y290412D01*
D02*
G37*
G36*
X165079D02*
X161435D01*
Y284700D01*
X165079D01*
Y290412D01*
D02*
G37*
G36*
X155368Y284800D02*
X152708D01*
Y281057D01*
X155368D01*
Y284800D01*
D02*
G37*
G36*
X152308D02*
X149647D01*
Y281057D01*
X152308D01*
Y284800D01*
D02*
G37*
G36*
X169124Y284300D02*
X165480D01*
Y278588D01*
X169124D01*
Y284300D01*
D02*
G37*
G36*
X165079D02*
X161435D01*
Y278588D01*
X165079D01*
Y284300D01*
D02*
G37*
G36*
X155365Y278943D02*
X152704D01*
Y275200D01*
X155365D01*
Y278943D01*
D02*
G37*
G36*
X152304D02*
X149643D01*
Y275200D01*
X152304D01*
Y278943D01*
D02*
G37*
G36*
X169235Y276912D02*
X165590D01*
Y271200D01*
X169235D01*
Y276912D01*
D02*
G37*
G36*
X165190D02*
X161545D01*
Y271200D01*
X165190D01*
Y276912D01*
D02*
G37*
G36*
X155365Y274800D02*
X152704D01*
Y271057D01*
X155365D01*
Y274800D01*
D02*
G37*
G36*
X152304D02*
X149643D01*
Y271057D01*
X152304D01*
Y274800D01*
D02*
G37*
G36*
X155365Y268943D02*
X152704D01*
Y265200D01*
X155365D01*
Y268943D01*
D02*
G37*
G36*
X152304D02*
X149643D01*
Y265200D01*
X152304D01*
Y268943D01*
D02*
G37*
G36*
X169235Y270800D02*
X165590D01*
Y265088D01*
X169235D01*
Y270800D01*
D02*
G37*
G36*
X165190D02*
X161545D01*
Y265088D01*
X165190D01*
Y270800D01*
D02*
G37*
G36*
X155365Y264800D02*
X152704D01*
Y261057D01*
X155365D01*
Y264800D01*
D02*
G37*
G36*
X152304D02*
X149643D01*
Y261057D01*
X152304D01*
Y264800D01*
D02*
G37*
G36*
X169235Y262912D02*
X165590D01*
Y257200D01*
X169235D01*
Y262912D01*
D02*
G37*
G36*
X165190D02*
X161545D01*
Y257200D01*
X165190D01*
Y262912D01*
D02*
G37*
G36*
X155365Y257443D02*
X152704D01*
Y253700D01*
X155365D01*
Y257443D01*
D02*
G37*
G36*
X152304D02*
X149643D01*
Y253700D01*
X152304D01*
Y257443D01*
D02*
G37*
G36*
X169235Y256800D02*
X165590D01*
Y251088D01*
X169235D01*
Y256800D01*
D02*
G37*
G36*
X165190D02*
X161545D01*
Y251088D01*
X165190D01*
Y256800D01*
D02*
G37*
G36*
X155365Y253300D02*
X152704D01*
Y249557D01*
X155365D01*
Y253300D01*
D02*
G37*
G36*
X152304D02*
X149643D01*
Y249557D01*
X152304D01*
Y253300D01*
D02*
G37*
G36*
X239048Y34404D02*
X237479D01*
Y31051D01*
Y27698D01*
X239048D01*
Y31051D01*
Y34404D01*
D02*
G37*
G36*
X237080D02*
X235511D01*
Y31051D01*
Y27698D01*
X237080D01*
Y31051D01*
Y34404D01*
D02*
G37*
G36*
X235111D02*
X233542D01*
Y31051D01*
Y27698D01*
X235111D01*
Y31051D01*
Y34404D01*
D02*
G37*
G36*
X233142D02*
X231574D01*
Y31051D01*
Y27698D01*
X233142D01*
Y31051D01*
Y34404D01*
D02*
G37*
G36*
X219363D02*
X217794D01*
Y31051D01*
Y27698D01*
X219363D01*
Y31051D01*
Y34404D01*
D02*
G37*
G36*
X217394D02*
X215826D01*
Y31051D01*
Y27698D01*
X217394D01*
Y31051D01*
Y34404D01*
D02*
G37*
G36*
X207552D02*
X205983D01*
Y31051D01*
Y27698D01*
X207552D01*
Y31051D01*
Y34404D01*
D02*
G37*
G36*
X205584D02*
X204015D01*
Y31051D01*
Y27698D01*
X205584D01*
Y31051D01*
Y34404D01*
D02*
G37*
G36*
X152434D02*
X150865D01*
Y31051D01*
Y27698D01*
X152434D01*
Y31051D01*
Y34404D01*
D02*
G37*
G36*
X150465D02*
X148897D01*
Y31051D01*
Y27698D01*
X150465D01*
Y31051D01*
Y34404D01*
D02*
G37*
G36*
X148497Y16284D02*
X147706D01*
Y13131D01*
X148497D01*
Y16284D01*
D02*
G37*
%LPD*%
D16*
X110071Y233571D02*
X111000Y234500D01*
X107500Y233571D02*
X110071D01*
X245077Y335577D02*
Y341998D01*
X202502Y282016D02*
X204409D01*
X202457Y281971D02*
X202502Y282016D01*
X204409D02*
X204453Y282059D01*
X199500Y281823D02*
X199648Y281971D01*
X202457D01*
X199559Y287000D02*
X204394D01*
X188000Y269102D02*
Y269500D01*
X207000Y186000D02*
Y190000D01*
X222155Y156193D02*
X222760D01*
X220193D02*
X222155D01*
X216008Y154500D02*
X218500D01*
X126358Y309358D02*
X126500Y309500D01*
X124500Y309358D02*
X126358D01*
X124500Y305500D02*
X126500D01*
X120307Y299240D02*
X121187D01*
X121966Y300020D01*
Y303989D01*
X122552Y304575D01*
X124000Y305492D02*
Y305571D01*
X122552Y304575D02*
X123083D01*
X124000Y305492D01*
X193189Y187563D02*
X199807D01*
X272500Y107000D02*
X276000D01*
X272500D02*
X272610Y107110D01*
Y111760D01*
X273858Y103142D02*
X276358D01*
X110642Y200500D02*
X114000D01*
X198181Y254831D02*
Y258925D01*
Y289634D02*
X204378D01*
X198181Y284516D02*
X204409D01*
X198181Y271721D02*
X204453D01*
X144630Y232870D02*
X147000D01*
X212071Y154500D02*
Y157929D01*
X180811Y216689D02*
Y222307D01*
X249102Y171898D02*
X255492D01*
X250661Y169339D02*
X255492D01*
X249279Y166779D02*
X255492D01*
X250500Y164000D02*
X255272D01*
X249161Y161661D02*
X255492D01*
X267524Y318500D02*
Y321976D01*
X190500Y296150D02*
Y300000D01*
Y296150D02*
X190697D01*
X221520Y258992D02*
X226524D01*
X281000Y261000D02*
Y264929D01*
X175508Y308500D02*
X180000D01*
X175508Y298500D02*
X180000D01*
X184000Y296299D02*
Y300000D01*
X220587Y292193D02*
X226724D01*
X221528Y261484D02*
X226724D01*
X181130Y249630D02*
X184500D01*
X189000Y249500D02*
X192500D01*
X198181Y279398D02*
X204291D01*
X184571Y282929D02*
X188000D01*
X192000Y278000D02*
X193220Y276780D01*
X192000Y278000D02*
Y287437D01*
X189808Y289740D02*
X190772Y288776D01*
Y288665D02*
Y288776D01*
Y288665D02*
X192000Y287437D01*
X193220Y276780D02*
X197728D01*
X189697Y289740D02*
X189808D01*
X184000Y290000D02*
X189350D01*
X188000Y273280D02*
Y279071D01*
X188941Y274220D02*
X197728D01*
X188398Y269102D02*
X197728D01*
X192453Y265559D02*
X193496Y266602D01*
X198181D01*
X188000Y263858D02*
Y269102D01*
X184500Y260000D02*
X188000D01*
X244543Y265043D02*
X250492D01*
X284929Y261213D02*
Y265000D01*
X274508Y265043D02*
X281028D01*
X267524Y318500D02*
X274760D01*
X267524Y313500D02*
Y318500D01*
X278500Y312642D02*
Y318500D01*
X238000Y322929D02*
X241429D01*
X238500Y315500D02*
Y318571D01*
X238571Y318500D02*
X245476D01*
X239500Y308500D02*
X245476D01*
X101000Y309500D02*
X104358D01*
X101000Y305500D02*
X104500D01*
X103500Y295500D02*
X108693D01*
X104500Y301000D02*
X106000Y299500D01*
X108433D01*
X104500Y301000D02*
Y305500D01*
X216500Y155496D02*
Y158000D01*
X216008Y154500D02*
X216539Y155032D01*
X218500Y154500D02*
X220193Y156193D01*
X215929Y154500D02*
X216008D01*
X226500Y151500D02*
Y156193D01*
X212571Y167500D02*
Y170929D01*
X216429Y167500D02*
Y170929D01*
Y167500D02*
X222453D01*
X110500Y204500D02*
X114000D01*
X107000Y205500D02*
X107720Y206221D01*
Y210831D01*
X110280Y204720D02*
Y210831D01*
Y230279D02*
X111000Y231000D01*
X110280Y227169D02*
Y230279D01*
X107500Y237429D02*
X110929D01*
X107720Y227169D02*
Y233291D01*
X116008Y267957D02*
Y270992D01*
X88500Y277000D02*
X91929D01*
X88500Y272500D02*
X91429D01*
X91992Y267957D02*
Y273063D01*
X272307Y245500D02*
X277500D01*
X251071Y239429D02*
X254500D01*
X278500Y240000D02*
X282000D01*
X254571Y235500D02*
X258000D01*
X274925Y236142D02*
X278500D01*
X257279Y239429D02*
X259610Y241760D01*
X254500Y239429D02*
X257279D01*
X275150Y240000D02*
X278500D01*
X273390Y241760D02*
X275150Y240000D01*
X249457Y156543D02*
X255492D01*
X283429Y149571D02*
Y153000D01*
X279571Y149429D02*
Y153000D01*
X279508Y153063D02*
Y156543D01*
X251142Y215858D02*
X254500D01*
X251000Y212000D02*
X254500D01*
X272807Y196500D02*
X278000D01*
X272307Y221500D02*
X277500D01*
X278500Y211642D02*
X281858D01*
X278411Y215629D02*
X278500Y215539D01*
X276279Y217760D02*
X278411Y215629D01*
X278500Y215500D02*
X282000D01*
X272307Y217760D02*
X276279D01*
X256323D02*
X260693D01*
X254500Y215937D02*
X256323Y217760D01*
X279000Y187000D02*
X282500D01*
X251425Y187142D02*
X255000D01*
X251500Y191000D02*
X255000D01*
X279000Y190858D02*
X282358D01*
X272807Y192760D02*
X277177D01*
X279000Y190937D01*
X256681Y192760D02*
X261193D01*
X255000Y191079D02*
X256681Y192760D01*
X177628Y240372D02*
Y245872D01*
X189000Y228500D02*
X192500D01*
X182500D02*
X185063D01*
X181500Y227500D02*
X182500Y228500D01*
X182780Y226217D02*
X185063Y228500D01*
X182780Y222307D02*
Y226217D01*
X147346Y222307D02*
Y228654D01*
X210740Y197500D02*
Y200760D01*
X199807Y197406D02*
X206906D01*
X185500Y153500D02*
X189000D01*
X193500D02*
X197000D01*
X153500D02*
X157500D01*
X131000Y195500D02*
Y199000D01*
X210858Y186000D02*
Y189358D01*
X199807Y185594D02*
X206594D01*
X143968Y193468D02*
X144000Y193500D01*
X138193Y193468D02*
X143968D01*
X127142Y195500D02*
Y198858D01*
X131063Y195437D02*
X138193D01*
X155220Y160693D02*
Y166220D01*
X153500Y149642D02*
X157358D01*
X153252Y153748D02*
Y160693D01*
X190654D02*
Y165847D01*
X185642Y149642D02*
X189000D01*
X193500D02*
X196858D01*
X192622Y154378D02*
Y160693D01*
X188685Y153815D02*
Y160693D01*
X135008Y109957D02*
X140957D01*
X107142Y114642D02*
X110500D01*
X107000Y118500D02*
X110500D01*
X110992Y109957D02*
X111000Y109965D01*
X110500Y114642D02*
X111000Y114142D01*
Y109965D02*
Y114142D01*
X288500Y115500D02*
X290000Y114000D01*
X285307Y115500D02*
X288500D01*
X289500Y103071D02*
X292929D01*
X289500Y106929D02*
X292929D01*
X285307Y111760D02*
X288240D01*
X289500Y106929D02*
Y110500D01*
X288240Y111760D02*
X289500Y110500D01*
X239500Y100500D02*
X243500D01*
X241000Y131500D02*
X241008Y131508D01*
X243543D01*
X243500Y93000D02*
Y96642D01*
X243543Y100543D02*
Y107492D01*
X229405Y31051D02*
Y37905D01*
X227437Y31051D02*
Y36437D01*
X225468Y31051D02*
Y37969D01*
X223500Y31051D02*
Y36500D01*
X221532Y31051D02*
Y37969D01*
X213657Y31051D02*
Y37843D01*
X211689Y31051D02*
Y36311D01*
X209720Y31051D02*
Y37780D01*
D30*
X384500Y188913D02*
D03*
Y185370D02*
D03*
Y260652D02*
D03*
Y257108D02*
D03*
X11000Y295043D02*
D03*
Y291500D02*
D03*
X384500Y111500D02*
D03*
Y107957D02*
D03*
Y237784D02*
D03*
Y234240D02*
D03*
X385000Y286500D02*
D03*
Y282957D02*
D03*
X9732Y137282D02*
D03*
Y133738D02*
D03*
X9000Y111500D02*
D03*
Y107957D02*
D03*
X10000Y321043D02*
D03*
Y317500D02*
D03*
X10500Y215282D02*
D03*
Y211738D02*
D03*
X384500Y136043D02*
D03*
Y132500D02*
D03*
X10500Y191673D02*
D03*
Y188130D02*
D03*
Y253282D02*
D03*
Y249738D02*
D03*
Y234673D02*
D03*
Y231130D02*
D03*
X384500Y162782D02*
D03*
Y159238D02*
D03*
Y214740D02*
D03*
Y211197D02*
D03*
X10000Y165782D02*
D03*
Y162238D02*
D03*
X11000Y272782D02*
D03*
Y269238D02*
D03*
D32*
X223500Y62000D02*
D03*
X219957D02*
D03*
X63620Y9500D02*
D03*
X67163D02*
D03*
X84958D02*
D03*
X88502D02*
D03*
X303848Y9000D02*
D03*
X307392D02*
D03*
X277218D02*
D03*
X280762D02*
D03*
X329718Y9500D02*
D03*
X333262D02*
D03*
X105858Y9000D02*
D03*
X109402D02*
D03*
X126848D02*
D03*
X130392D02*
D03*
X356000D02*
D03*
X359543D02*
D03*
X201500Y62000D02*
D03*
X197957D02*
D03*
X40957Y9500D02*
D03*
X44500D02*
D03*
X161543Y61500D02*
D03*
X158000D02*
D03*
X181282Y62000D02*
D03*
X177738D02*
D03*
X151282Y380000D02*
D03*
X147738D02*
D03*
X194782Y380500D02*
D03*
X191238D02*
D03*
X236282D02*
D03*
X232738D02*
D03*
D39*
X178603Y231603D02*
D03*
X173870Y236335D02*
D03*
X182500Y235500D02*
D03*
X177767Y240233D02*
D03*
D48*
X199500Y258791D02*
D03*
Y261350D02*
D03*
Y263910D02*
D03*
Y266469D02*
D03*
Y269028D02*
D03*
Y271587D02*
D03*
Y274146D02*
D03*
Y276705D02*
D03*
Y279264D02*
D03*
Y281823D02*
D03*
Y284382D02*
D03*
Y286941D02*
D03*
Y289500D02*
D03*
Y292059D02*
D03*
X227453D02*
D03*
Y289500D02*
D03*
Y286941D02*
D03*
Y284382D02*
D03*
Y281823D02*
D03*
Y279264D02*
D03*
Y276705D02*
D03*
Y274146D02*
D03*
Y271587D02*
D03*
Y269028D02*
D03*
Y266469D02*
D03*
Y263910D02*
D03*
Y261350D02*
D03*
Y258791D02*
D03*
D49*
X188000Y269579D02*
D03*
Y273201D02*
D03*
D50*
X267524Y303500D02*
D03*
Y308500D02*
D03*
Y313500D02*
D03*
Y318500D02*
D03*
X245476Y303500D02*
D03*
Y308500D02*
D03*
Y313500D02*
D03*
Y318500D02*
D03*
D51*
X278500Y211642D02*
D03*
Y215500D02*
D03*
X110500Y118500D02*
D03*
Y114642D02*
D03*
X92000Y276929D02*
D03*
Y273071D02*
D03*
X238000Y322929D02*
D03*
Y319071D02*
D03*
X193500Y149642D02*
D03*
Y153500D02*
D03*
X153500Y149642D02*
D03*
Y153500D02*
D03*
X189000Y149642D02*
D03*
Y153500D02*
D03*
X243500Y96642D02*
D03*
Y100500D02*
D03*
X188000Y260000D02*
D03*
Y263858D02*
D03*
Y282929D02*
D03*
Y279071D02*
D03*
X272500Y103071D02*
D03*
Y106929D02*
D03*
X255000Y187142D02*
D03*
Y191000D02*
D03*
X279000Y187000D02*
D03*
Y190858D02*
D03*
X123000Y308929D02*
D03*
Y305071D02*
D03*
X104500Y309358D02*
D03*
Y305500D02*
D03*
X254500Y212000D02*
D03*
Y215858D02*
D03*
Y235571D02*
D03*
Y239429D02*
D03*
X278500Y236142D02*
D03*
Y240000D02*
D03*
X289500Y103071D02*
D03*
Y106929D02*
D03*
X107500Y237429D02*
D03*
Y233571D02*
D03*
X110500Y200642D02*
D03*
Y204500D02*
D03*
D52*
X192622Y160693D02*
D03*
X190654D02*
D03*
X188685D02*
D03*
X186716D02*
D03*
X184748D02*
D03*
X182780D02*
D03*
X180811D02*
D03*
X178842D02*
D03*
X176874D02*
D03*
X174906D02*
D03*
X172937D02*
D03*
X170968D02*
D03*
X169000D02*
D03*
X167032D02*
D03*
X165063D02*
D03*
X163094D02*
D03*
X161126D02*
D03*
X159158D02*
D03*
X157189D02*
D03*
X155220D02*
D03*
X153252D02*
D03*
X151284D02*
D03*
X149315D02*
D03*
X147346D02*
D03*
X145378D02*
D03*
Y222307D02*
D03*
X147346D02*
D03*
X149315D02*
D03*
X151284D02*
D03*
X153252D02*
D03*
X155220D02*
D03*
X157189D02*
D03*
X159158D02*
D03*
X161126D02*
D03*
X163094D02*
D03*
X165063D02*
D03*
X167032D02*
D03*
X169000D02*
D03*
X170968D02*
D03*
X172937D02*
D03*
X174906D02*
D03*
X176874D02*
D03*
X178842D02*
D03*
X180811D02*
D03*
X182780D02*
D03*
X184748D02*
D03*
X186716D02*
D03*
X188685D02*
D03*
X190654D02*
D03*
X192622D02*
D03*
D53*
X138193Y167878D02*
D03*
Y169846D02*
D03*
Y171815D02*
D03*
Y173784D02*
D03*
Y175752D02*
D03*
Y177720D02*
D03*
Y179689D02*
D03*
Y181658D02*
D03*
Y183626D02*
D03*
Y185594D02*
D03*
Y187563D02*
D03*
Y189532D02*
D03*
Y191500D02*
D03*
Y193468D02*
D03*
Y195437D02*
D03*
Y197406D02*
D03*
Y199374D02*
D03*
Y201343D02*
D03*
Y203311D02*
D03*
Y205279D02*
D03*
Y207248D02*
D03*
Y209216D02*
D03*
Y211185D02*
D03*
Y213154D02*
D03*
Y215122D02*
D03*
X199807D02*
D03*
Y213154D02*
D03*
Y211185D02*
D03*
Y209216D02*
D03*
Y207248D02*
D03*
Y205279D02*
D03*
Y203311D02*
D03*
Y201343D02*
D03*
Y199374D02*
D03*
Y197406D02*
D03*
Y195437D02*
D03*
Y193468D02*
D03*
Y191500D02*
D03*
Y189532D02*
D03*
Y187563D02*
D03*
Y185594D02*
D03*
Y183626D02*
D03*
Y181658D02*
D03*
Y179689D02*
D03*
Y177720D02*
D03*
Y175752D02*
D03*
Y173784D02*
D03*
Y171815D02*
D03*
Y169846D02*
D03*
Y167878D02*
D03*
D54*
X272307Y217760D02*
D03*
Y221500D02*
D03*
Y225240D02*
D03*
X260693D02*
D03*
Y221500D02*
D03*
Y217760D02*
D03*
X272807Y192760D02*
D03*
Y196500D02*
D03*
Y200240D02*
D03*
X261193D02*
D03*
Y196500D02*
D03*
Y192760D02*
D03*
X285307Y111760D02*
D03*
Y115500D02*
D03*
Y119240D02*
D03*
X273693D02*
D03*
Y115500D02*
D03*
Y111760D02*
D03*
X108693Y299240D02*
D03*
Y295500D02*
D03*
Y291760D02*
D03*
X120307D02*
D03*
Y295500D02*
D03*
Y299240D02*
D03*
X272307Y241760D02*
D03*
Y245500D02*
D03*
Y249240D02*
D03*
X260693D02*
D03*
Y245500D02*
D03*
Y241760D02*
D03*
D55*
X112839Y227169D02*
D03*
X110280D02*
D03*
X107720D02*
D03*
X105161D02*
D03*
X112839Y210831D02*
D03*
X110280D02*
D03*
X107720D02*
D03*
X105161D02*
D03*
D56*
X222760Y156193D02*
D03*
X226500D02*
D03*
X230240D02*
D03*
Y167807D02*
D03*
X226500D02*
D03*
X222760D02*
D03*
D57*
X250492Y282957D02*
D03*
Y280398D02*
D03*
Y277839D02*
D03*
Y275279D02*
D03*
Y272721D02*
D03*
Y270161D02*
D03*
Y267602D02*
D03*
Y265043D02*
D03*
X274508Y282957D02*
D03*
Y280398D02*
D03*
Y277839D02*
D03*
Y275279D02*
D03*
Y272721D02*
D03*
Y270161D02*
D03*
Y267602D02*
D03*
Y265043D02*
D03*
X255492Y174457D02*
D03*
Y171898D02*
D03*
Y169339D02*
D03*
Y166779D02*
D03*
Y164220D02*
D03*
Y161661D02*
D03*
Y159102D02*
D03*
Y156543D02*
D03*
X279508Y174457D02*
D03*
Y171898D02*
D03*
Y169339D02*
D03*
Y166779D02*
D03*
Y164220D02*
D03*
Y161661D02*
D03*
Y159102D02*
D03*
Y156543D02*
D03*
X116008Y250043D02*
D03*
Y252602D02*
D03*
Y255161D02*
D03*
Y257720D02*
D03*
Y260279D02*
D03*
Y262839D02*
D03*
Y265398D02*
D03*
Y267957D02*
D03*
X91992Y250043D02*
D03*
Y252602D02*
D03*
Y255161D02*
D03*
Y257720D02*
D03*
Y260279D02*
D03*
Y262839D02*
D03*
Y265398D02*
D03*
Y267957D02*
D03*
X135008Y92043D02*
D03*
Y94602D02*
D03*
Y97161D02*
D03*
Y99721D02*
D03*
Y102279D02*
D03*
Y104839D02*
D03*
Y107398D02*
D03*
Y109957D02*
D03*
X110992Y92043D02*
D03*
Y94602D02*
D03*
Y97161D02*
D03*
Y99721D02*
D03*
Y102279D02*
D03*
Y104839D02*
D03*
Y107398D02*
D03*
Y109957D02*
D03*
D58*
X261457Y131508D02*
D03*
X258898D02*
D03*
X256339D02*
D03*
X253780D02*
D03*
X251220D02*
D03*
X248661D02*
D03*
X246102D02*
D03*
X243543D02*
D03*
X261457Y107492D02*
D03*
X258898D02*
D03*
X256339D02*
D03*
X253780D02*
D03*
X251220D02*
D03*
X248661D02*
D03*
X246102D02*
D03*
X243543D02*
D03*
D59*
X148697Y356642D02*
D03*
Y342075D02*
D03*
X150665Y356642D02*
D03*
Y342075D02*
D03*
X152634Y356642D02*
D03*
Y342075D02*
D03*
X154602Y356642D02*
D03*
Y342075D02*
D03*
X156571Y356642D02*
D03*
Y342075D02*
D03*
X158539Y356642D02*
D03*
Y342075D02*
D03*
X160508Y356642D02*
D03*
Y342075D02*
D03*
X162476Y356642D02*
D03*
Y342075D02*
D03*
X164445Y356642D02*
D03*
Y342075D02*
D03*
X166413Y356642D02*
D03*
Y342075D02*
D03*
X168382Y356642D02*
D03*
Y342075D02*
D03*
X170350Y356642D02*
D03*
Y342075D02*
D03*
X172319Y356642D02*
D03*
Y342075D02*
D03*
X174287Y356642D02*
D03*
Y342075D02*
D03*
X176256Y356642D02*
D03*
Y342075D02*
D03*
X178224Y356642D02*
D03*
Y342075D02*
D03*
X180193Y356642D02*
D03*
Y342075D02*
D03*
X182161Y356642D02*
D03*
Y342075D02*
D03*
X184130Y356642D02*
D03*
Y342075D02*
D03*
X186098Y356642D02*
D03*
Y342075D02*
D03*
X188067Y356642D02*
D03*
Y342075D02*
D03*
X190035Y356642D02*
D03*
Y342075D02*
D03*
X192004Y356642D02*
D03*
Y342075D02*
D03*
X193972Y356642D02*
D03*
Y342075D02*
D03*
X195941Y356642D02*
D03*
Y342075D02*
D03*
X197909Y356642D02*
D03*
Y342075D02*
D03*
X199878Y356642D02*
D03*
Y342075D02*
D03*
X201847Y356642D02*
D03*
Y342075D02*
D03*
X203815Y356642D02*
D03*
Y342075D02*
D03*
X205784Y356642D02*
D03*
Y342075D02*
D03*
X207752Y356642D02*
D03*
Y342075D02*
D03*
X209720Y356642D02*
D03*
Y342075D02*
D03*
X211689Y356642D02*
D03*
Y342075D02*
D03*
X213657Y356642D02*
D03*
Y342075D02*
D03*
X215626Y356642D02*
D03*
Y342075D02*
D03*
X217595Y356642D02*
D03*
Y342075D02*
D03*
X219563Y356642D02*
D03*
Y342075D02*
D03*
X221532Y356642D02*
D03*
Y342075D02*
D03*
X223500Y356642D02*
D03*
Y342075D02*
D03*
X225468Y356642D02*
D03*
Y342075D02*
D03*
X227437Y356642D02*
D03*
Y342075D02*
D03*
X229405Y356642D02*
D03*
Y342075D02*
D03*
X231374Y356642D02*
D03*
Y342075D02*
D03*
X233343Y356642D02*
D03*
Y342075D02*
D03*
X235311Y356642D02*
D03*
Y342075D02*
D03*
X237280Y356642D02*
D03*
Y342075D02*
D03*
X239248Y356642D02*
D03*
Y342075D02*
D03*
X241216Y356642D02*
D03*
Y342075D02*
D03*
X243185Y356642D02*
D03*
Y342075D02*
D03*
X245153Y356642D02*
D03*
Y342075D02*
D03*
X148697Y31051D02*
D03*
Y16484D02*
D03*
X150665Y31051D02*
D03*
Y16484D02*
D03*
X152634Y31051D02*
D03*
Y16484D02*
D03*
X154602Y31051D02*
D03*
Y16484D02*
D03*
X156571Y31051D02*
D03*
Y16484D02*
D03*
X158539Y31051D02*
D03*
Y16484D02*
D03*
X160508Y31051D02*
D03*
Y16484D02*
D03*
X162476Y31051D02*
D03*
Y16484D02*
D03*
X164445Y31051D02*
D03*
Y16484D02*
D03*
X166413Y31051D02*
D03*
Y16484D02*
D03*
X168382Y31051D02*
D03*
Y16484D02*
D03*
X170350Y31051D02*
D03*
Y16484D02*
D03*
X172319Y31051D02*
D03*
Y16484D02*
D03*
X174287Y31051D02*
D03*
Y16484D02*
D03*
X176256Y31051D02*
D03*
Y16484D02*
D03*
X178224Y31051D02*
D03*
Y16484D02*
D03*
X180193Y31051D02*
D03*
Y16484D02*
D03*
X182161Y31051D02*
D03*
Y16484D02*
D03*
X184130Y31051D02*
D03*
Y16484D02*
D03*
X186098Y31051D02*
D03*
Y16484D02*
D03*
X188067Y31051D02*
D03*
Y16484D02*
D03*
X190035Y31051D02*
D03*
Y16484D02*
D03*
X192004Y31051D02*
D03*
Y16484D02*
D03*
X193972Y31051D02*
D03*
Y16484D02*
D03*
X195941Y31051D02*
D03*
Y16484D02*
D03*
X197909Y31051D02*
D03*
Y16484D02*
D03*
X199878Y31051D02*
D03*
Y16484D02*
D03*
X201847Y31051D02*
D03*
Y16484D02*
D03*
X203815Y31051D02*
D03*
Y16484D02*
D03*
X205784Y31051D02*
D03*
Y16484D02*
D03*
X207752Y31051D02*
D03*
Y16484D02*
D03*
X209720Y31051D02*
D03*
Y16484D02*
D03*
X211689Y31051D02*
D03*
Y16484D02*
D03*
X213657Y31051D02*
D03*
Y16484D02*
D03*
X215626Y31051D02*
D03*
Y16484D02*
D03*
X217595Y31051D02*
D03*
Y16484D02*
D03*
X219563Y31051D02*
D03*
Y16484D02*
D03*
X221532Y31051D02*
D03*
Y16484D02*
D03*
X223500Y31051D02*
D03*
Y16484D02*
D03*
X225468Y31051D02*
D03*
Y16484D02*
D03*
X227437Y31051D02*
D03*
Y16484D02*
D03*
X229405Y31051D02*
D03*
Y16484D02*
D03*
X231374Y31051D02*
D03*
Y16484D02*
D03*
X233343Y31051D02*
D03*
Y16484D02*
D03*
X235311Y31051D02*
D03*
Y16484D02*
D03*
X237280Y31051D02*
D03*
Y16484D02*
D03*
X239248Y31051D02*
D03*
Y16484D02*
D03*
X241216Y31051D02*
D03*
Y16484D02*
D03*
X243185Y31051D02*
D03*
Y16484D02*
D03*
X245153Y31051D02*
D03*
Y16484D02*
D03*
D60*
X379012Y35366D02*
D03*
X14839Y33413D02*
D03*
X15626Y360579D02*
D03*
D61*
X384500Y197740D02*
D03*
Y194000D02*
D03*
Y269240D02*
D03*
Y265500D02*
D03*
X11000Y303370D02*
D03*
Y299630D02*
D03*
X384500Y120000D02*
D03*
Y116260D02*
D03*
Y246240D02*
D03*
Y242500D02*
D03*
X384732Y295370D02*
D03*
Y291630D02*
D03*
X9732Y145740D02*
D03*
Y142000D02*
D03*
X9000Y119870D02*
D03*
Y116130D02*
D03*
X10000Y329870D02*
D03*
Y326130D02*
D03*
X10500Y224000D02*
D03*
Y220260D02*
D03*
X384500Y144740D02*
D03*
Y141000D02*
D03*
X10500Y200000D02*
D03*
Y196260D02*
D03*
Y261870D02*
D03*
Y258130D02*
D03*
Y243000D02*
D03*
Y239260D02*
D03*
X384500Y171000D02*
D03*
Y167260D02*
D03*
Y223500D02*
D03*
Y219760D02*
D03*
X10000Y174370D02*
D03*
Y170630D02*
D03*
X189000Y253240D02*
D03*
Y249500D02*
D03*
X11000Y281000D02*
D03*
Y277260D02*
D03*
X184500Y249630D02*
D03*
Y253370D02*
D03*
X147000Y232870D02*
D03*
Y229130D02*
D03*
D62*
X232457Y62000D02*
D03*
X228716D02*
D03*
X55031Y9500D02*
D03*
X58772D02*
D03*
X76000D02*
D03*
X79740D02*
D03*
X295260Y9000D02*
D03*
X299000D02*
D03*
X268760D02*
D03*
X272500D02*
D03*
X320260Y9500D02*
D03*
X324000D02*
D03*
X97401Y9000D02*
D03*
X101142D02*
D03*
X117760D02*
D03*
X121500D02*
D03*
X347803D02*
D03*
X351543D02*
D03*
X209870Y62000D02*
D03*
X206130D02*
D03*
X32130Y9500D02*
D03*
X35870D02*
D03*
X169740Y61500D02*
D03*
X166000D02*
D03*
X189870Y62000D02*
D03*
X186130D02*
D03*
X278500Y318500D02*
D03*
X274760D02*
D03*
X189630Y233500D02*
D03*
X193370D02*
D03*
X210740Y197500D02*
D03*
X207000D02*
D03*
X159240Y380000D02*
D03*
X155500D02*
D03*
X203370Y380500D02*
D03*
X199630D02*
D03*
X244500D02*
D03*
X240760D02*
D03*
D63*
X165390Y257000D02*
D03*
X176610D02*
D03*
X165390Y271000D02*
D03*
X176610D02*
D03*
X165279Y284500D02*
D03*
X176500D02*
D03*
D64*
X152504Y325000D02*
D03*
X140496D02*
D03*
X152504Y315000D02*
D03*
X140496D02*
D03*
X152508Y305000D02*
D03*
X140500D02*
D03*
X152504Y295000D02*
D03*
X140496D02*
D03*
X152508Y285000D02*
D03*
X140500D02*
D03*
X152504Y275000D02*
D03*
X140496D02*
D03*
X152504Y265000D02*
D03*
X140496D02*
D03*
X152504Y253500D02*
D03*
X140496D02*
D03*
X175508Y308500D02*
D03*
X163500D02*
D03*
X175508Y298500D02*
D03*
X163500D02*
D03*
D65*
X189000Y228500D02*
D03*
X185142D02*
D03*
X210858Y186000D02*
D03*
X207000D02*
D03*
X127142Y195500D02*
D03*
X131000D02*
D03*
X283429Y153000D02*
D03*
X279571D02*
D03*
X284929Y265000D02*
D03*
X281071D02*
D03*
X212571Y167500D02*
D03*
X216429D02*
D03*
X212071Y154500D02*
D03*
X215929D02*
D03*
D66*
X277500Y304358D02*
D03*
Y311642D02*
D03*
D67*
X190500Y289850D02*
D03*
Y296150D02*
D03*
X184000Y296299D02*
D03*
Y290000D02*
D03*
D68*
X169500Y244508D02*
D03*
Y240492D02*
D03*
X187500Y244008D02*
D03*
Y239992D02*
D03*
D69*
X196000Y219000D02*
X198500Y221500D01*
X225000D01*
X196000Y219000D02*
Y229000D01*
X194000Y231000D02*
X196000Y229000D01*
X195000Y218000D02*
X196000Y219000D01*
X225000Y221500D02*
X242500Y204000D01*
X203815Y342075D02*
Y346315D01*
X204000Y346500D01*
X205784Y342075D02*
X205892Y342183D01*
Y347892D01*
X206000Y348000D01*
X217595Y336595D02*
Y342075D01*
X217500Y336500D02*
X217595Y336595D01*
X215563Y342012D02*
X215626Y342075D01*
X215563Y335063D02*
Y342012D01*
X215500Y335000D02*
X215563Y335063D01*
X213500Y336500D02*
Y337000D01*
X213657Y337158D01*
Y342075D01*
X211595Y341980D02*
X211689Y342075D01*
X211595Y335094D02*
Y341980D01*
X211500Y335000D02*
X211595Y335094D01*
X209720Y342075D02*
Y347779D01*
X209500Y348000D02*
X209720Y347779D01*
X207752Y342075D02*
X207876Y341951D01*
Y336495D02*
Y341951D01*
Y336495D02*
X208000Y336371D01*
X245077Y341998D02*
X245153Y342075D01*
X245000Y335500D02*
X245077Y335577D01*
X199878Y335162D02*
Y342075D01*
X140000Y333500D02*
X202000D01*
X199878Y335162D02*
X199954Y335086D01*
X202000Y333500D02*
X203815Y335315D01*
X133500Y340000D02*
X140000Y333500D01*
X203815Y335315D02*
Y342075D01*
X201923Y336577D02*
Y341998D01*
Y336577D02*
X202000Y336500D01*
X201847Y342075D02*
X201923Y341998D01*
X172319Y342075D02*
X172409Y341984D01*
Y337090D02*
Y341984D01*
Y337090D02*
X172500Y337000D01*
X170350Y342075D02*
X170425Y342000D01*
Y335575D02*
Y342000D01*
Y335575D02*
X170500Y335500D01*
X168441Y337059D02*
X168500Y337000D01*
X168382Y342075D02*
X168441Y342016D01*
Y337059D02*
Y342016D01*
X166413Y342075D02*
X166457Y342032D01*
Y335543D02*
Y342032D01*
Y335543D02*
X166500Y335500D01*
X162476Y342075D02*
X162488Y342063D01*
Y337012D02*
Y342063D01*
Y337012D02*
X162500Y337000D01*
X160500Y335500D02*
X160504Y335504D01*
Y342071D01*
X160508Y342075D01*
X150583Y356559D02*
X150665Y356642D01*
X150583Y351583D02*
Y356559D01*
X150500Y351500D02*
X150583Y351583D01*
X152567Y356575D02*
X152634Y356642D01*
X152567Y350067D02*
Y356575D01*
X152500Y350000D02*
X152567Y350067D01*
X154500Y351500D02*
Y356539D01*
X154602Y356642D01*
X156535Y350035D02*
Y356606D01*
X156500Y350000D02*
X156535Y350035D01*
Y356606D02*
X156571Y356642D01*
X199500Y286941D02*
X199559Y287000D01*
X204394D02*
X204453Y287059D01*
X158520Y356622D02*
X158539Y356642D01*
X158520Y351520D02*
Y356622D01*
X158500Y351500D02*
X158520Y351520D01*
X193972Y356642D02*
Y361972D01*
X194000Y362000D01*
X195941Y356642D02*
Y363441D01*
X196000Y363500D01*
X197909Y356642D02*
Y361409D01*
X198000Y361500D01*
X207752Y356642D02*
Y361723D01*
X207914Y361885D02*
Y362000D01*
X207752Y361723D02*
X207914Y361885D01*
X203815Y356642D02*
Y361815D01*
X204000Y362000D01*
X205784Y356642D02*
Y363784D01*
X206000Y364000D01*
X209720Y356642D02*
Y363779D01*
X209500Y364000D02*
X209720Y363779D01*
X221532Y356642D02*
Y361968D01*
X221500Y362000D02*
X221532Y361968D01*
X229405Y356642D02*
Y361906D01*
X229500Y362000D01*
X231374Y356642D02*
Y363374D01*
X231500Y363500D01*
X233343Y356642D02*
Y361842D01*
X233500Y362000D01*
X235311Y356642D02*
Y363311D01*
X235500Y363500D01*
X237280Y356642D02*
Y361779D01*
X237500Y362000D01*
X239248Y356642D02*
Y363248D01*
X239500Y363500D01*
X150665Y16484D02*
X152634D01*
X148697D02*
X150665D01*
X245077Y31128D02*
X245153Y31051D01*
X245077Y31128D02*
Y38423D01*
X245000Y38500D02*
X245077Y38423D01*
X243185Y31051D02*
Y36315D01*
X243000Y36500D02*
X243185Y36315D01*
X241108Y31159D02*
X241216Y31051D01*
X241108Y31159D02*
Y38392D01*
X241000Y38500D02*
X241108Y38392D01*
X245153Y16484D02*
Y21346D01*
X244000Y22500D02*
X245153Y21346D01*
X222199Y156350D02*
X222760Y158352D01*
X222155Y156193D02*
Y156193D01*
X222199Y156350D01*
X111000Y311500D02*
X118000Y318500D01*
X74000Y312500D02*
X105000D01*
X111000Y318500D01*
X102500Y314000D02*
X114000Y325500D01*
X118000Y318500D02*
Y325586D01*
X72500Y314000D02*
X102500D01*
X135800Y245831D02*
X137097Y244534D01*
X136600Y246163D02*
Y315714D01*
X135800Y245831D02*
Y315382D01*
X135000Y245500D02*
Y315051D01*
X137428Y245334D02*
X161954D01*
X136766Y243734D02*
X161291D01*
X136600Y246163D02*
X137428Y245334D01*
X137097Y244534D02*
X161623D01*
X135000Y245500D02*
X136766Y243734D01*
X131800Y243437D02*
X134737Y240500D01*
X134200Y244800D02*
Y314720D01*
X135034Y241334D02*
X160297D01*
X133400Y244100D02*
Y314388D01*
X131800Y243437D02*
Y313725D01*
X132600Y243769D02*
X135034Y241334D01*
X133400Y244100D02*
X135366Y242134D01*
X134737Y240500D02*
X160000D01*
X136066Y242934D02*
X160960D01*
X135366Y242134D02*
X160628D01*
X132600Y243769D02*
Y314057D01*
X134200Y244800D02*
X136066Y242934D01*
X208000Y306500D02*
X215000Y299500D01*
X208000Y306500D02*
Y336371D01*
X124000Y329894D02*
Y331500D01*
X131465Y331465D02*
X132000Y330930D01*
Y320314D02*
X136600Y315714D01*
X131465Y331465D02*
Y331836D01*
X132000Y320314D02*
Y330930D01*
X127914Y328243D02*
Y331086D01*
Y328243D02*
X130200Y325957D01*
X129500Y327788D02*
Y333500D01*
X126000Y329026D02*
Y333500D01*
X129500Y327788D02*
X131000Y326288D01*
X126000Y329026D02*
X129400Y325625D01*
X159240Y380000D02*
X164000D01*
X159000D02*
X159240D01*
X141500Y9000D02*
X157000D01*
X158586Y10586D02*
Y16438D01*
X157000Y9000D02*
X158586Y10586D01*
X156571Y11929D02*
Y16484D01*
X154551Y11551D02*
Y16433D01*
X156571Y11929D02*
X157000Y11500D01*
X154500D02*
X154551Y11551D01*
X134500Y16000D02*
X141500Y9000D01*
X158539Y16484D02*
X158586Y16438D01*
X154551Y16433D02*
X154602Y16484D01*
X112839Y228839D02*
X112886D01*
X232457Y62000D02*
X237500D01*
X223500D02*
X228716D01*
X219957D02*
Y62197D01*
X215154Y67000D02*
X219957Y62197D01*
X215000Y67000D02*
X215154D01*
X209870Y62000D02*
X214000D01*
X201500D02*
X206130D01*
X194000D02*
X197957D01*
X189870D02*
X189969D01*
X191048Y63080D01*
Y63178D01*
X192500Y64630D01*
Y65500D01*
X181282Y62000D02*
X186130D01*
X177238Y61500D02*
X177738Y62000D01*
X174000Y61500D02*
X177238D01*
X170000Y57500D02*
Y58000D01*
X169740Y58260D02*
Y61500D01*
Y58260D02*
X170000Y58000D01*
X161543Y61500D02*
X166000D01*
X154500D02*
X158000D01*
X10500Y253282D02*
Y258130D01*
Y249738D02*
X10697D01*
X13435Y247000D01*
X13500D01*
X10500Y243000D02*
Y246500D01*
Y234673D02*
Y239260D01*
Y231130D02*
X10697D01*
X13238Y228589D01*
Y227762D02*
Y228589D01*
Y227762D02*
X13500Y227500D01*
X10500Y224000D02*
Y227500D01*
Y215282D02*
Y220260D01*
Y208000D02*
Y211738D01*
Y200000D02*
Y204000D01*
Y191673D02*
Y196260D01*
Y184000D02*
Y188130D01*
X10000Y174370D02*
Y178500D01*
Y165782D02*
Y170630D01*
Y158000D02*
Y162238D01*
X9732Y145740D02*
Y149768D01*
X9500Y150000D02*
X9732Y149768D01*
Y137282D02*
Y142000D01*
X9500Y133506D02*
X9732Y133738D01*
X9500Y129500D02*
Y133506D01*
X9000Y119870D02*
Y124000D01*
Y111500D02*
Y116130D01*
Y104000D02*
Y107957D01*
X51500Y11000D02*
Y11500D01*
X53000Y9500D02*
X55031D01*
X51500Y11000D02*
X53000Y9500D01*
X30500Y11032D02*
Y14500D01*
Y11032D02*
X32032Y9500D01*
X32130D01*
X29000Y4500D02*
X132000D01*
X27000Y6500D02*
Y85000D01*
Y6500D02*
X29000Y4500D01*
X28500Y7500D02*
X30500Y5500D01*
X131500D01*
X28500Y7500D02*
Y86500D01*
X35870Y9500D02*
X40957D01*
X44500D02*
X48500D01*
X58772D02*
X63620D01*
X67163D02*
X70500D01*
X73000Y12000D02*
X73500D01*
X76000Y9500D01*
X79740D02*
X84958D01*
X88502D02*
X92000D01*
X268500Y8740D02*
X268760Y9000D01*
X268500Y5000D02*
Y8740D01*
X272500Y9000D02*
X277218D01*
X280762D02*
X284500D01*
X290500D02*
X295260D01*
X299000D02*
X303848D01*
X307392D02*
X312000D01*
X316500Y9500D02*
X320260D01*
X324000D02*
X329718D01*
X333262D02*
X337000D01*
X343500Y9000D02*
X347803D01*
X351543D02*
X356000D01*
X359543D02*
X364000D01*
X294000Y282500D02*
X306000D01*
X309500Y286000D01*
Y301500D01*
X262500Y282500D02*
X265500Y285500D01*
X291000D01*
X294000Y282500D01*
X226724Y266602D02*
X226768Y266559D01*
X226315Y266500D02*
X233000D01*
X238500Y261000D01*
X254500D01*
X262500Y269000D02*
Y282500D01*
X254500Y261000D02*
X262500Y269000D01*
X309500Y301500D02*
X311500Y303500D01*
X365000D01*
X242000Y283000D02*
X248000Y289000D01*
X305000D01*
X384500Y120000D02*
Y124500D01*
Y111500D02*
Y116260D01*
Y102000D02*
Y107957D01*
X368000Y100000D02*
X382500D01*
X384500Y102000D01*
Y144740D02*
Y148500D01*
Y136043D02*
Y141000D01*
Y128000D02*
Y132500D01*
X370000Y126500D02*
X383000D01*
X384500Y128000D01*
Y171000D02*
Y175500D01*
Y162782D02*
Y167260D01*
Y155000D02*
Y159238D01*
X370000Y152500D02*
X382000D01*
X384500Y155000D01*
Y197740D02*
Y202000D01*
Y188913D02*
Y194000D01*
Y180500D02*
Y185370D01*
X383000Y179000D02*
X384500Y180500D01*
X370500Y179000D02*
X383000D01*
X384500Y223500D02*
Y227500D01*
Y214740D02*
Y219760D01*
Y211197D02*
X385000Y210697D01*
Y207000D02*
Y210697D01*
X383500Y205500D02*
X385000Y207000D01*
X372000Y205500D02*
X383500D01*
X384500Y246240D02*
Y250000D01*
Y237784D02*
Y242500D01*
X384260Y234000D02*
X384500Y234240D01*
X373500Y239000D02*
X378500Y234000D01*
X384260D01*
X368500Y293500D02*
X373500Y288500D01*
Y239000D02*
Y288500D01*
X363000Y293500D02*
X368500D01*
X360000Y290500D02*
X363000Y293500D01*
X360000Y254500D02*
Y290500D01*
X351500Y241000D02*
Y246000D01*
X360000Y254500D01*
X384500Y269240D02*
Y274500D01*
Y260652D02*
Y265500D01*
X380392Y257108D02*
X384500D01*
X376500Y261000D02*
X380392Y257108D01*
X376500Y261000D02*
Y292000D01*
X353000Y295000D02*
X373500D01*
X376500Y292000D01*
X350000Y271500D02*
Y292000D01*
X353000Y295000D01*
X344768Y266268D02*
X350000Y271500D01*
X344768Y263000D02*
Y266268D01*
X384500Y299000D02*
X384732Y298768D01*
Y295370D02*
Y298768D01*
X385000Y286500D02*
Y291362D01*
X384732Y291630D02*
X385000Y291362D01*
X380543Y282957D02*
X385000D01*
X379000Y284500D02*
X380543Y282957D01*
X376000Y297000D02*
X379000Y294000D01*
Y284500D02*
Y294000D01*
X347500Y297000D02*
X376000D01*
X345000Y289000D02*
Y294500D01*
X347500Y297000D01*
X230240Y167807D02*
Y204760D01*
X281858Y211642D02*
X282000Y211500D01*
X242500Y204000D02*
X253000D01*
X199807Y205279D02*
X212280D01*
X212500Y205500D01*
X199807Y203311D02*
X215811D01*
X216000Y203500D01*
X208248Y207248D02*
X208500Y207500D01*
X199807Y207248D02*
X208248D01*
X158000Y209000D02*
X178500D01*
X153126Y213874D02*
X158000Y209000D01*
X153126Y213874D02*
Y222181D01*
X131500Y5500D02*
X133000Y7000D01*
X17500Y97500D02*
X28500Y86500D01*
X15500Y96500D02*
X27000Y85000D01*
X15500Y96500D02*
Y333000D01*
X36000Y353500D01*
X17500Y97500D02*
Y331500D01*
X24500Y338500D01*
X36000Y353500D02*
X69000D01*
X74500Y346500D02*
Y348000D01*
X69000Y353500D02*
X74500Y348000D01*
X135500Y8000D02*
Y12000D01*
X132000Y4500D02*
X135500Y8000D01*
X141000Y6500D02*
X158500D01*
X160508Y8508D02*
Y16484D01*
X158500Y6500D02*
X160508Y8508D01*
X53711Y345711D02*
X54500Y346500D01*
X53711Y342711D02*
Y345711D01*
X49500Y338500D02*
X53711Y342711D01*
X24500Y338500D02*
X49500D01*
X133000Y7000D02*
Y14500D01*
X134500Y16000D01*
X130392Y17392D02*
X130500Y17500D01*
X130392Y9000D02*
Y17392D01*
X135500Y12000D02*
X141000Y6500D01*
X97303Y9000D02*
X97401D01*
X96223Y10080D02*
X97303Y9000D01*
X96223Y10080D02*
Y10178D01*
X95000Y11401D02*
X96223Y10178D01*
X95000Y11401D02*
Y13000D01*
X101142Y9000D02*
X105858D01*
X109402D02*
X109500Y9099D01*
Y15000D01*
X95500Y16500D02*
X108000D01*
X109500Y15000D01*
X115500Y9500D02*
Y12500D01*
Y9500D02*
X116000Y9000D01*
X117760D01*
X121500D02*
X126848D01*
X151000Y103500D02*
Y119500D01*
X140500Y130000D02*
X151000Y119500D01*
X140500Y130000D02*
Y139500D01*
X143500Y142500D01*
X166500D01*
X148500Y106500D02*
Y119000D01*
X138500Y129000D02*
X148500Y119000D01*
X138500Y129000D02*
Y141500D01*
X142000Y145000D01*
X169500D01*
X204847Y169846D02*
X205000Y170000D01*
X199807Y169846D02*
X204847D01*
X206815Y171815D02*
X207000Y172000D01*
X199807Y171815D02*
X206815D01*
X146500Y102000D02*
X158500Y90000D01*
X136000Y128500D02*
X146500Y118000D01*
Y102000D02*
Y118000D01*
X136000Y158500D02*
X145000Y167500D01*
X136000Y128500D02*
Y158500D01*
X144500Y99000D02*
X157500Y86000D01*
X127000Y134500D02*
X144500Y117000D01*
Y99000D02*
Y117000D01*
X127000Y134500D02*
Y188500D01*
X119500Y134000D02*
Y206000D01*
X120500Y132750D02*
Y133000D01*
X119500Y134000D02*
X120500Y133000D01*
X119500Y206000D02*
X125500Y212000D01*
X229000Y380500D02*
X232738D01*
X244500D02*
X248500D01*
X236282D02*
X240760D01*
X144000Y380000D02*
X147738D01*
X151282D02*
X155500D01*
X187000Y380500D02*
X191238D01*
X194782D02*
X199630D01*
X203500D02*
X210000D01*
X161954Y245334D02*
X166000Y241288D01*
Y234026D02*
Y241288D01*
Y234026D02*
X172937Y227088D01*
Y222307D02*
Y227088D01*
X131000Y320182D02*
Y326288D01*
Y320182D02*
X135800Y315382D01*
X161623Y244534D02*
X165200Y240957D01*
Y233694D02*
Y240957D01*
Y233694D02*
X170968Y227926D01*
Y222307D02*
Y227926D01*
X130200Y319851D02*
X135000Y315051D01*
X129400Y319520D02*
X134200Y314720D01*
X128600Y319188D02*
X133400Y314388D01*
X127800Y318857D02*
X132600Y314057D01*
X127000Y318526D02*
X131800Y313725D01*
X131000Y240631D02*
Y313394D01*
X126100Y318294D02*
X131000Y313394D01*
X125300Y317963D02*
X130100Y313163D01*
Y240400D02*
Y313163D01*
X124300Y317831D02*
X129300Y312831D01*
Y239700D02*
Y312831D01*
X123500Y317500D02*
X128500Y312500D01*
X130200Y319851D02*
Y325957D01*
X161291Y243734D02*
X164400Y240626D01*
Y233363D02*
Y240626D01*
Y233363D02*
X169000Y228763D01*
Y222307D02*
Y228763D01*
X129400Y319520D02*
Y325625D01*
X160960Y242934D02*
X163600Y240294D01*
Y233031D02*
Y240294D01*
Y233031D02*
X167032Y229600D01*
Y222307D02*
Y229600D01*
X124000Y329894D02*
X128600Y325294D01*
Y319188D02*
Y325294D01*
X160628Y242134D02*
X162800Y239963D01*
Y232700D02*
Y239963D01*
Y232700D02*
X165063Y230437D01*
Y222307D02*
Y230437D01*
X122000Y330763D02*
Y333500D01*
Y330763D02*
X127800Y324963D01*
Y318857D02*
Y324963D01*
X160297Y241334D02*
X162000Y239631D01*
Y232000D02*
Y239631D01*
Y232000D02*
X163094Y230906D01*
Y222307D02*
Y230906D01*
X79500Y338000D02*
X132500D01*
X73000Y340000D02*
X133500D01*
X132500Y338000D02*
X138500Y332000D01*
X71311Y338311D02*
X73000Y340000D01*
X119500Y332131D02*
Y333500D01*
Y332131D02*
X127000Y324631D01*
Y318526D02*
Y324631D01*
X160000Y240500D02*
X161126Y239374D01*
Y222307D02*
Y239374D01*
X105586Y331086D02*
X108414D01*
X109000Y330500D02*
X117631D01*
X108414Y331086D02*
X109000Y330500D01*
X117631D02*
X124300Y323831D01*
Y317831D02*
Y323831D01*
X100500Y330000D02*
X104500D01*
X105586Y331086D01*
X102200Y331300D02*
X104300D01*
X100500Y333000D02*
X102200Y331300D01*
X104300D02*
X104886Y331886D01*
X100500Y333000D02*
X100500D01*
X126100Y318294D02*
Y324400D01*
X103500Y333000D02*
X117500D01*
X125300Y317963D02*
Y324069D01*
X104886Y331886D02*
X117483D01*
X125300Y324069D01*
X117500Y333000D02*
X126100Y324400D01*
X106500Y329500D02*
X117500D01*
X123500Y317500D02*
Y323500D01*
X117500Y329500D02*
X123500Y323500D01*
X97914Y327914D02*
X117914D01*
X122500Y315500D02*
Y323328D01*
X117914Y327914D02*
X122500Y323328D01*
X93000Y323000D02*
X97914Y327914D01*
X99000Y315500D02*
X109000Y325500D01*
X97000Y317000D02*
X106000Y326000D01*
X131000Y240631D02*
X133131Y238500D01*
X159000D01*
X130100Y240400D02*
X133500Y237000D01*
X151500D01*
X157000Y231500D01*
Y227500D02*
Y231500D01*
X133000Y236000D02*
X149000D01*
X152452Y227452D02*
Y232548D01*
X149000Y236000D02*
X152452Y232548D01*
X151284Y226284D02*
X152452Y227452D01*
X193126Y187500D02*
X193189Y187563D01*
X217704Y282193D02*
X217839Y282059D01*
X218910Y284516D02*
X226724D01*
X217704Y282193D02*
Y283311D01*
X218910Y284516D01*
X219000Y195000D02*
Y207500D01*
X217500Y193500D02*
X219000Y195000D01*
X208500Y193500D02*
X217500D01*
X207000Y195000D02*
X208500Y193500D01*
X207000Y195000D02*
Y197500D01*
X204000Y332000D02*
X205784Y333784D01*
Y342075D01*
X138500Y332000D02*
X204000D01*
X88000Y281000D02*
Y283500D01*
X91500Y287000D01*
X96000D01*
X100000Y283000D01*
X94500D02*
X98000Y279500D01*
X100000Y247500D02*
Y283000D01*
Y247500D02*
X103500Y244000D01*
X117000D01*
X116500Y217000D02*
X120500Y221000D01*
X117000Y244000D02*
X120500Y240500D01*
Y221000D02*
Y240500D01*
X116500Y222000D02*
X119000Y224500D01*
X116000Y243000D02*
X119000Y240000D01*
Y224500D02*
Y240000D01*
X115547Y231500D02*
X116774D01*
X102500Y243000D02*
X116000D01*
X108500Y217000D02*
X116500D01*
X105161Y213661D02*
X108500Y217000D01*
X105161Y210831D02*
Y213661D01*
X98000Y247500D02*
Y279500D01*
Y247500D02*
X102500Y243000D01*
X106500Y222000D02*
X116500D01*
X105161Y223339D02*
X106500Y222000D01*
X105161Y223339D02*
Y227169D01*
X96000Y241000D02*
X114000D01*
X86500Y231500D02*
X96000Y241000D01*
X115949Y210831D02*
X123000Y217882D01*
Y238500D01*
X125500Y212000D02*
Y276500D01*
X114000Y288000D02*
X125500Y276500D01*
X151284Y222307D02*
Y226284D01*
X129300Y239700D02*
X133000Y236000D01*
X128500Y235000D02*
Y312500D01*
Y235000D02*
X141193Y222307D01*
X145378D01*
X127500Y234500D02*
Y288000D01*
X123740Y291760D02*
X127500Y288000D01*
Y234500D02*
X155000Y207000D01*
X126500Y232000D02*
X149500Y209000D01*
X116000Y289500D02*
X126500Y279000D01*
Y232000D02*
Y279000D01*
X236372Y271640D02*
X236453Y271559D01*
X226805Y271640D02*
X236372D01*
X226827Y269059D02*
X234453D01*
X243500Y273000D02*
X250213D01*
X250492Y272721D01*
X226724Y281957D02*
X226923Y281758D01*
X233754D01*
X233953Y281559D01*
X242500Y253500D02*
X243500Y252500D01*
X331500Y259500D02*
X334500D01*
X226724Y279398D02*
X226894Y279228D01*
X235784D01*
X235953Y279059D01*
X286500Y258500D02*
X299000Y271000D01*
X331000D01*
X347000Y255000D01*
X329500Y270000D02*
X345500Y254000D01*
X287500Y257500D02*
X300000Y270000D01*
X329500D01*
X345500Y233000D02*
Y254000D01*
X300500Y269000D02*
X328000D01*
X344000Y253000D01*
X292000Y260500D02*
X300500Y269000D01*
X302000Y268000D02*
X316500D01*
X320000Y264500D01*
X289086Y255086D02*
X302000Y268000D01*
X292000Y260500D02*
Y260500D01*
X236000Y256500D02*
X288000D01*
X292000Y260500D01*
X232500Y257500D02*
X287500D01*
X226724Y276839D02*
X226864Y276699D01*
X233813D01*
X233953Y276559D01*
X326000Y256000D02*
X330000Y252000D01*
X226724Y271721D02*
X226805Y271640D01*
X288000Y252500D02*
X302000Y266500D01*
X243500Y252500D02*
X288000D01*
X233000Y253500D02*
X236000Y256500D01*
X231000Y256000D02*
X232500Y257500D01*
X239506Y255086D02*
X289086D01*
X238334Y253914D02*
X239506Y255086D01*
X215000Y251500D02*
X265266D01*
X268000Y248766D01*
Y209500D02*
Y248766D01*
X209500Y257000D02*
X215000Y251500D01*
X238000Y253914D02*
X238334D01*
X226724Y269161D02*
X226827Y269059D01*
X308000Y266500D02*
X309500Y265000D01*
X302000Y266500D02*
X308000D01*
X320000Y264500D02*
X320000Y256500D01*
X328500Y248000D01*
X221000Y253500D02*
X222000D01*
X233000Y253500D01*
X214516Y287016D02*
X226272Y287016D01*
X211000Y283500D02*
X214516Y287016D01*
X211000Y283500D02*
X211000Y258500D01*
X213500Y256000D01*
X231000Y256000D01*
X209500Y257000D02*
Y290000D01*
X238000Y258500D02*
X286500D01*
X226272Y263984D02*
X232516D01*
X238000Y258500D01*
X334500Y259500D02*
X342000Y252000D01*
Y234500D02*
Y252000D01*
X344000Y234000D02*
Y253000D01*
X336500Y224000D02*
X345500Y233000D01*
X335000Y225000D02*
X344000Y234000D01*
X333500Y226000D02*
X342000Y234500D01*
X333500Y226000D02*
X333500Y101500D01*
X329500Y99500D02*
X332000Y102000D01*
X330500Y98500D02*
X333500Y101500D01*
X328500Y100500D02*
X330000Y102000D01*
X330000Y252000D02*
X330000Y102000D01*
X332000Y255500D02*
X332000Y102000D01*
X333500Y95500D02*
X338000Y100000D01*
Y223500D01*
X347000Y232500D01*
Y255000D01*
X332500Y96500D02*
X336500Y100500D01*
Y224000D01*
X304000Y95500D02*
X333500D01*
X300500Y92000D02*
X304000Y95500D01*
X300500Y89232D02*
Y92000D01*
X309500Y255000D02*
Y265000D01*
Y255000D02*
X314000Y250500D01*
X321500D01*
X326500Y245500D01*
Y227000D02*
Y245500D01*
X320500Y221000D02*
X326500Y227000D01*
X320500Y176500D02*
Y221000D01*
X318000Y174000D02*
X320500Y176500D01*
X308000Y174000D02*
X318000D01*
X304500Y170500D02*
X308000Y174000D01*
X304500Y165500D02*
Y170500D01*
X328500Y149500D02*
Y248000D01*
X324000Y145000D02*
X328500Y149500D01*
X306500Y145000D02*
X324000D01*
X304500Y143000D02*
X306500Y145000D01*
X304500Y139500D02*
Y143000D01*
X256500Y150000D02*
X260500D01*
X273693Y119240D02*
Y136807D01*
X260500Y150000D02*
X273693Y136807D01*
X228000Y162500D02*
X235500D01*
X245500Y152500D01*
X270000Y100500D02*
X328500D01*
X331500Y97500D02*
X335000Y101000D01*
Y225000D01*
X268500Y102000D02*
X270000Y100500D01*
X268500Y102000D02*
Y138500D01*
X261000Y146000D02*
X268500Y138500D01*
X242000Y146000D02*
X261000D01*
X233000Y137000D02*
X242000Y146000D01*
X221500Y137000D02*
X233000D01*
X217000Y132500D02*
X221500Y137000D01*
X234000Y135500D02*
X243000Y144500D01*
X222000Y135500D02*
X234000D01*
X217500Y131000D02*
X222000Y135500D01*
X153500Y132500D02*
X217000D01*
X152500Y133500D02*
X153500Y132500D01*
X147000Y133500D02*
X152500D01*
X145500Y132000D02*
X147000Y133500D01*
X245500Y140000D02*
X261000D01*
X264500Y98500D02*
Y136500D01*
X261000Y140000D02*
X264500Y136500D01*
X269000Y99500D02*
X329500D01*
X267500Y101000D02*
X269000Y99500D01*
X267500Y101000D02*
Y138000D01*
X261000Y144500D02*
X267500Y138000D01*
X243000Y144500D02*
X261000D01*
X150000Y131000D02*
X217500D01*
X245500Y152500D02*
X261500D01*
X279000Y117000D02*
Y135000D01*
X261500Y152500D02*
X279000Y135000D01*
X261500Y152500D02*
X266000Y157000D01*
X226524Y258992D02*
X226590Y259059D01*
X184000Y244000D02*
X187500D01*
X268500Y98500D02*
X330500D01*
X266500Y100500D02*
X268500Y98500D01*
X266500Y100500D02*
Y137500D01*
X261000Y143000D02*
X266500Y137500D01*
X244000Y143000D02*
X261000D01*
X228500Y127500D02*
X244000Y143000D01*
X219000Y127500D02*
X228500D01*
X210000Y118500D02*
X219000Y127500D01*
X159000Y118500D02*
X210000D01*
X157500Y120000D02*
X159000Y118500D01*
X157500Y120000D02*
Y124000D01*
X153500Y128000D02*
X157500Y124000D01*
X146500Y128000D02*
X153500D01*
X229500Y126000D02*
X245000Y141500D01*
X261000D01*
X220500Y126000D02*
X229500D01*
X211000Y116500D02*
X220500Y126000D01*
X267500Y97500D02*
X331500D01*
X266500Y96500D02*
X332500D01*
X265500Y99500D02*
X267500Y97500D01*
X264500Y98500D02*
X266500Y96500D01*
X265500Y99500D02*
Y137000D01*
X261000Y141500D02*
X265500Y137000D01*
X230000Y124500D02*
X245500Y140000D01*
X157500Y116500D02*
X211000D01*
X155500Y118500D02*
X157500Y116500D01*
X155500Y118500D02*
Y123000D01*
X153000Y125500D02*
X155500Y123000D01*
X150000Y125500D02*
X153000D01*
X152000Y123000D02*
X153500Y121500D01*
X131500Y124500D02*
X132500Y125500D01*
X153500Y117500D02*
Y121500D01*
X156000Y115000D02*
X212500D01*
X153500Y117500D02*
X156000Y115000D01*
X222000Y124500D02*
X230000D01*
X240977Y131477D02*
X241000Y131500D01*
X246102Y131508D02*
X246154Y131560D01*
X240977Y131064D02*
Y131477D01*
X240714Y130801D02*
X240977Y131064D01*
X246154Y131560D02*
Y136241D01*
X246206Y136293D01*
X212500Y115000D02*
X222000Y124500D01*
X99500Y123000D02*
X135000D01*
X265000Y95500D02*
X282500D01*
X261457Y99043D02*
Y107492D01*
Y99043D02*
X265000Y95500D01*
X282500D02*
X284500Y93500D01*
X259000Y97000D02*
Y108500D01*
X262500Y93500D02*
X278500D01*
X259000Y97000D02*
X262500Y93500D01*
X114000Y288000D02*
Y307000D01*
X122500Y315500D01*
X89500Y323000D02*
X93000D01*
X116000Y289500D02*
Y294500D01*
X117000Y295500D01*
X120307D01*
X103000Y128500D02*
X125000D01*
X100500Y131000D02*
X103000Y128500D01*
X100500Y131000D02*
Y149500D01*
X90000Y133500D02*
Y140500D01*
Y133500D02*
X99000Y124500D01*
X97500Y130500D02*
X101500Y126500D01*
X90000Y113500D02*
X99500Y123000D01*
X99000Y124500D02*
X131500D01*
X101500Y126500D02*
X129000D01*
X97500Y130500D02*
Y145500D01*
X96500Y153500D02*
X100500Y149500D01*
X96500Y153500D02*
Y174500D01*
X90000Y181000D02*
X96500Y174500D01*
X90000Y181000D02*
Y194500D01*
Y153000D02*
X97500Y145500D01*
X90000Y153000D02*
Y167500D01*
X242000Y277500D02*
Y283000D01*
X238720Y274220D02*
X242000Y277500D01*
X226272Y274220D02*
X238720D01*
X71000Y315500D02*
X99000D01*
X58000Y306000D02*
X69000Y317000D01*
X97000D01*
X94000Y318500D02*
X101500Y326000D01*
X67500Y318500D02*
X94000D01*
X55000Y306000D02*
X67500Y318500D01*
X60000Y304500D02*
X71000Y315500D01*
X62500Y304000D02*
X72500Y314000D01*
X65000Y303500D02*
X74000Y312500D01*
X84500Y299000D02*
X97000Y311500D01*
X111000D01*
X84500Y291500D02*
Y299000D01*
X55000Y286000D02*
Y306000D01*
X49500Y280500D02*
X55000Y286000D01*
X49500Y210500D02*
Y280500D01*
Y210500D02*
X57000Y203000D01*
Y181000D02*
Y203000D01*
X52500Y212500D02*
X63000Y202000D01*
X52500Y212500D02*
Y278000D01*
X58000Y283500D01*
X63000Y181000D02*
Y202000D01*
X58000Y283500D02*
Y306000D01*
X61500Y222000D02*
X66000Y217500D01*
X60000Y279000D02*
Y304500D01*
Y279000D02*
X61500Y277500D01*
Y222000D02*
Y277500D01*
X62500Y279500D02*
Y304000D01*
X65000Y284000D02*
Y303500D01*
X62500Y279500D02*
X65000Y277000D01*
Y284000D02*
X70870Y278130D01*
X66000Y217500D02*
X73000D01*
X65000Y239000D02*
X67000Y237000D01*
X65000Y239000D02*
Y277000D01*
X223500Y335500D02*
X230000D01*
X112886Y228839D02*
X115547Y231500D01*
X159000Y222465D02*
Y238500D01*
Y222465D02*
X159158Y222307D01*
X112839Y210831D02*
X115949D01*
X82500Y207500D02*
Y236500D01*
X72500Y246500D02*
X82500Y236500D01*
X72500Y246500D02*
Y256500D01*
X80000Y287000D02*
X84500Y291500D01*
X73500Y95000D02*
Y208000D01*
X187500Y244000D02*
Y244008D01*
X169508Y244500D02*
X173000D01*
X169500Y244508D02*
X169508Y244500D01*
X75500Y204500D02*
X80000Y209000D01*
Y227093D01*
X75500Y94500D02*
Y204500D01*
X86500Y93500D02*
X89000Y91000D01*
X86500Y93500D02*
Y231500D01*
X85000Y91500D02*
X86500Y90000D01*
X80000Y243500D02*
X85000Y238500D01*
Y91500D02*
Y238500D01*
X80000Y243500D02*
Y287000D01*
X193370Y233500D02*
X197000D01*
X204409Y284516D02*
X204453Y284559D01*
X204437Y287075D02*
X204453Y287059D01*
X204378Y289634D02*
X204453Y289559D01*
X83000Y255000D02*
X83081Y255081D01*
X91911D01*
X89000Y79000D02*
Y91000D01*
Y79000D02*
X91000Y77000D01*
X109000D01*
X114000Y72000D01*
X123401D01*
X82586Y266000D02*
X82871D01*
X83473Y265398D01*
X86500Y78000D02*
Y90000D01*
Y78000D02*
X92500Y72000D01*
X75500Y94500D02*
X83000Y87000D01*
Y72000D02*
Y87000D01*
X92500Y72000D02*
X103500D01*
X62500Y84000D02*
X73500Y95000D01*
X62500Y72000D02*
Y84000D01*
X144000Y233500D02*
X144630Y232870D01*
X147630Y228500D02*
X150500D01*
X147000Y229130D02*
X147630Y228500D01*
X157000Y227500D02*
X157189Y227311D01*
Y222307D02*
Y227311D01*
X112839Y227169D02*
Y228839D01*
X130000Y191500D02*
X138193D01*
X127000Y188500D02*
X130000Y191500D01*
X157500Y86000D02*
X235500D01*
X237000Y84500D01*
X322024D01*
X326760Y89236D01*
X138193Y189532D02*
X142968D01*
X145000Y187500D01*
Y167500D02*
Y187500D01*
X158500Y90000D02*
X208500D01*
X215000Y96500D01*
X231500D01*
X238500Y89500D01*
X274000D01*
X198000Y162500D02*
X228000D01*
X190000Y170500D02*
X198000Y162500D01*
X212000Y158000D02*
X212071Y157929D01*
X158500Y170500D02*
X190000D01*
X149500Y179500D02*
X158500Y170500D01*
X149500Y179500D02*
Y209000D01*
X155000Y207000D02*
X199500D01*
X273693Y115500D02*
X277500D01*
X279000Y117000D01*
X155220Y216779D02*
Y222307D01*
Y216779D02*
X159500Y212500D01*
X191500D01*
X196000Y217000D01*
X223475D01*
X180811Y216689D02*
X181000Y216500D01*
X184748Y218752D02*
Y222307D01*
Y218752D02*
X185500Y218000D01*
X195000D01*
X223475Y217000D02*
X240234Y200240D01*
X261193D01*
X153126Y222181D02*
X153252Y222307D01*
X260453Y225000D02*
X260693Y225240D01*
X256000Y225000D02*
X260453D01*
X260433Y249500D02*
X260693Y249240D01*
X255000Y249500D02*
X260433D01*
X226500Y164000D02*
Y167807D01*
Y164000D02*
X228000Y162500D01*
X266000Y157000D02*
Y195000D01*
X264500Y196500D02*
X266000Y195000D01*
X261193Y196500D02*
X264500D01*
X266000Y198000D01*
Y220000D01*
X264500Y221500D02*
X266000Y220000D01*
X260693Y221500D02*
X264500D01*
X266000Y223000D01*
Y244000D01*
X264500Y245500D02*
X266000Y244000D01*
X260693Y245500D02*
X264500D01*
X268000Y209500D02*
X271500Y206000D01*
X199807Y209216D02*
X225783D01*
X230240Y204760D01*
X70870Y276630D02*
Y278130D01*
Y276630D02*
X72500Y275000D01*
X67000Y237000D02*
X72500D01*
X120307Y291760D02*
X123740D01*
X245000Y270500D02*
X245339Y270161D01*
X250492D01*
X245000Y275500D02*
X245220Y275279D01*
X250492D01*
X121457Y250043D02*
X121500Y250000D01*
X116008Y250043D02*
X121457D01*
X123102Y252602D02*
X123205Y252500D01*
X116008Y252602D02*
X123102D01*
X121339Y255161D02*
X121500Y255000D01*
X116008Y255161D02*
X121339D01*
X123221Y257720D02*
X123500Y258000D01*
X116008Y257720D02*
X123221D01*
X116008Y260279D02*
X121280D01*
X121500Y260500D01*
X123516Y262839D02*
X123677Y263000D01*
X116008Y262839D02*
X123516D01*
X121398Y265398D02*
X121500Y265500D01*
X116008Y265398D02*
X121398D01*
X135110Y107500D02*
X135161Y107449D01*
X249000Y172000D02*
X249102Y171898D01*
X250500Y169500D02*
X250661Y169339D01*
X249000Y166500D02*
X249279Y166779D01*
X255272Y164000D02*
X255492Y164220D01*
X249000Y161500D02*
X249161Y161661D01*
X250500Y159000D02*
X250602Y159102D01*
X255492D01*
X139957Y92043D02*
X140000Y92000D01*
X135008Y92043D02*
X139957D01*
X141398Y94602D02*
X141500Y94500D01*
X135008Y94602D02*
X141398D01*
X139839Y97161D02*
X140000Y97000D01*
X135008Y97161D02*
X139839D01*
X141279Y99721D02*
X141500Y99500D01*
X135008Y99721D02*
X141279D01*
X139779Y102279D02*
X140000Y102500D01*
X135008Y102279D02*
X139779D01*
X141339Y104839D02*
X141500Y105000D01*
X135008Y104839D02*
X141339D01*
X135161Y107449D02*
X139949D01*
X140000Y107500D01*
X135008Y107398D02*
X135110Y107500D01*
X261457Y136457D02*
X261500Y136500D01*
X251000Y131728D02*
X251110Y131839D01*
X261457Y131508D02*
Y136457D01*
X258898Y131508D02*
Y137398D01*
X259000Y137500D01*
X256339Y136161D02*
X256500Y136323D01*
X256339Y131508D02*
Y136161D01*
X253720Y137721D02*
X253780Y137661D01*
Y131508D02*
Y137661D01*
X251110Y131839D02*
Y136390D01*
X251000Y136500D02*
X251110Y136390D01*
X251000Y131728D02*
X251220Y131508D01*
X248500Y137677D02*
X248661Y137516D01*
Y131508D02*
Y137516D01*
X8000Y264469D02*
Y265500D01*
Y264469D02*
X10500Y261968D01*
Y261870D02*
Y261968D01*
X11000Y266000D02*
Y269238D01*
Y281000D02*
Y284500D01*
Y272782D02*
Y277260D01*
Y303370D02*
Y307500D01*
Y295043D02*
Y299630D01*
Y288000D02*
Y291500D01*
X10000Y329870D02*
Y334000D01*
Y321043D02*
Y326130D01*
Y313500D02*
Y317500D01*
X274508Y270161D02*
X274589Y270081D01*
X279919D01*
X280000Y270000D01*
X274508Y272721D02*
X274618Y272610D01*
X281890D01*
X282000Y272500D01*
X274508Y275279D02*
X274648Y275140D01*
X280360D01*
X280500Y275000D01*
X279508Y174457D02*
X279530Y174478D01*
X287478D01*
X287500Y174500D01*
X279508Y171898D02*
X279559Y171949D01*
X284449D01*
X284500Y172000D01*
X279508Y169339D02*
X279677Y169169D01*
X286331D01*
X286500Y169000D01*
X279508Y166779D02*
X279648Y166640D01*
X284360D01*
X284500Y166500D01*
X279508Y164220D02*
X279618Y164110D01*
X286390D01*
X286500Y164000D01*
X279508Y161661D02*
X279589Y161581D01*
X284419D01*
X284500Y161500D01*
X279508Y159102D02*
X279559Y159051D01*
X286449D01*
X286500Y159000D01*
X246102Y107492D02*
Y111898D01*
X248500Y107492D02*
Y115000D01*
X251000Y107492D02*
Y117000D01*
X253517Y107755D02*
X253780Y107492D01*
X253517Y107755D02*
Y110659D01*
X253500Y110676D02*
X253517Y110659D01*
X253500Y110676D02*
Y117000D01*
X249000Y121500D02*
X253500Y117000D01*
X250500Y123000D02*
X256500Y117000D01*
X256339Y107492D02*
X256500Y107653D01*
Y117000D01*
X83473Y265398D02*
X91992D01*
X91823Y262669D02*
X91992Y262839D01*
X85169Y262669D02*
X91823D01*
X85000Y262500D02*
X85169Y262669D01*
X91852Y260140D02*
X91992Y260279D01*
X83140Y260140D02*
X91852D01*
X83000Y260000D02*
X83140Y260140D01*
X91882Y257610D02*
X91992Y257720D01*
X85110Y257610D02*
X91882D01*
X85000Y257500D02*
X85110Y257610D01*
X91911Y255081D02*
X91992Y255161D01*
X91941Y252551D02*
X91992Y252602D01*
X85051Y252551D02*
X91941D01*
X85000Y252500D02*
X85051Y252551D01*
X91970Y250022D02*
X91992Y250043D01*
X83522Y250022D02*
X91970D01*
X83500Y250000D02*
X83522Y250022D01*
X110793Y107199D02*
X110992Y107398D01*
X103699Y107199D02*
X110793D01*
X103500Y107000D02*
X103699Y107199D01*
X110823Y104669D02*
X110992Y104839D01*
X101669Y104669D02*
X110823D01*
X101500Y104500D02*
X101669Y104669D01*
X110882Y102390D02*
X110992Y102279D01*
X104110Y102390D02*
X110882D01*
X104000Y102500D02*
X104110Y102390D01*
X110852Y99860D02*
X110992Y99721D01*
X101640Y99860D02*
X110852D01*
X101500Y100000D02*
X101640Y99860D01*
X110911Y97081D02*
X110992Y97161D01*
X104081Y97081D02*
X110911D01*
X104000Y97000D02*
X104081Y97081D01*
X102473Y94602D02*
X110992D01*
X101871Y94000D02*
X102473Y94602D01*
X101500Y94000D02*
X101871D01*
X105914Y92043D02*
X110992D01*
X105371Y91500D02*
X105914Y92043D01*
X105000Y91500D02*
X105371D01*
X140496Y325000D02*
Y326083D01*
Y315000D02*
X140500Y314996D01*
X140496Y304996D02*
X140500Y305000D01*
X140496Y285004D02*
X140500Y285000D01*
X140496Y284996D02*
X140500Y285000D01*
X267500Y322000D02*
X267524Y321976D01*
X198500Y292000D02*
X207500D01*
X209500Y290000D01*
X89500Y296000D02*
X93740Y291760D01*
X89500Y296000D02*
Y297500D01*
X93740Y291760D02*
X108693D01*
X230240Y145740D02*
Y156193D01*
X226000Y141500D02*
X230240Y145740D01*
X271500Y206000D02*
X300000D01*
X304500Y210500D02*
Y218500D01*
X300000Y206000D02*
X304500Y210500D01*
X221453Y259059D02*
X221520Y258992D01*
X281760Y200240D02*
X290000Y192000D01*
X272807Y200240D02*
X281760D01*
X290000Y192000D02*
X304500D01*
X289500Y241000D02*
X321500D01*
X285500Y237000D02*
X289500Y241000D01*
X285500Y229500D02*
Y237000D01*
X281240Y225240D02*
X285500Y229500D01*
X272307Y225240D02*
X281240D01*
X272307Y249240D02*
X301740D01*
X304768Y252268D01*
Y263000D01*
X281000Y264929D02*
X281071Y265000D01*
X285307Y119240D02*
X290260D01*
X296000Y113500D01*
X304500D01*
X226000Y101500D02*
X230500Y106000D01*
Y109500D02*
X238000Y117000D01*
X230500Y106000D02*
Y109500D01*
X246500Y117000D02*
X248500Y115000D01*
X238000Y117000D02*
X246500D01*
X224500Y112000D02*
X229500D01*
X237000Y119500D02*
X248500D01*
X229500Y112000D02*
X237000Y119500D01*
X228500Y114000D02*
X236000Y121500D01*
X249000D01*
X223500Y114000D02*
X228500D01*
X227500Y116000D02*
X234500Y123000D01*
X250500D01*
X222500Y116000D02*
X227500D01*
X244500Y113500D02*
X246102Y111898D01*
X239500Y113500D02*
X244500D01*
X248500Y119500D02*
X251000Y117000D01*
X213000Y100500D02*
X224500Y112000D01*
X206000Y100500D02*
X213000D01*
X203364Y97864D02*
X206000Y100500D01*
X203000Y95000D02*
X203364Y95364D01*
Y97864D01*
X213000Y103500D02*
X223500Y114000D01*
X186500Y103500D02*
X213000D01*
X183000Y100000D02*
X186500Y103500D01*
X183000Y95000D02*
Y100000D01*
X212000Y105500D02*
X222500Y116000D01*
X169500Y105500D02*
X212000D01*
X163000Y99000D02*
X169500Y105500D01*
X163000Y95000D02*
Y99000D01*
X220453Y292059D02*
X220587Y292193D01*
X221453Y261559D02*
X221528Y261484D01*
X226590Y259059D02*
X226724Y258925D01*
X181000Y249500D02*
X181130Y249630D01*
X184500Y283000D02*
X184571Y282929D01*
X190500Y289850D02*
X190697D01*
Y289740D02*
Y289850D01*
X190350Y290000D02*
X190500Y289850D01*
X188000Y273280D02*
X188941Y274220D01*
X188000Y269500D02*
X188398Y269102D01*
X176610Y256615D02*
X179855Y253370D01*
X176610Y256615D02*
Y257000D01*
X188870Y253370D02*
X189000Y253240D01*
X176500Y271110D02*
X176610Y271000D01*
X244500Y265000D02*
X244543Y265043D01*
X284929Y261213D02*
X285000Y261142D01*
X281028Y265043D02*
X281071Y265000D01*
X277500Y311642D02*
X278500Y312642D01*
X241429Y322929D02*
X241500Y323000D01*
X238500Y318571D02*
X238571Y318500D01*
X238000Y319071D02*
X238500Y318571D01*
X104358Y309500D02*
X104500Y309358D01*
X108433Y299500D02*
X108693Y299240D01*
X221919Y155352D02*
X222760Y156193D01*
X216500Y155071D02*
Y155496D01*
X215929Y154500D02*
X216500Y155071D01*
X221919Y155352D02*
X222155Y156193D01*
X222760Y156193D02*
Y158352D01*
X212500Y171000D02*
X212571Y170929D01*
X216429Y170929D02*
X216500Y171000D01*
X222453Y167500D02*
X222760Y167807D01*
X110500Y200642D02*
X110642Y200500D01*
X110280Y204720D02*
X110500Y204500D01*
X110929Y237429D02*
X111000Y237500D01*
X107220Y233291D02*
X107500Y233571D01*
X116000Y271000D02*
X116008Y270992D01*
X91929Y277000D02*
X92000Y276929D01*
X91992Y273063D02*
X92000Y273071D01*
X91429Y272500D02*
X91992Y273063D01*
X251000Y239500D02*
X251071Y239429D01*
X254500Y235571D02*
X254571Y235500D01*
X274783Y236000D02*
X274925Y236142D01*
X259610Y241760D02*
X260693D01*
X272307D02*
X273390D01*
X283429Y149571D02*
X283500Y149500D01*
X279508Y153063D02*
X279571Y153000D01*
X251000Y216000D02*
X251142Y215858D01*
X278500Y215539D02*
Y215539D01*
Y215500D02*
Y215539D01*
X278379Y215629D02*
X278381Y215626D01*
X278500Y215500D01*
X278379Y215629D02*
X278411D01*
X278500Y215539D01*
X254500Y215858D02*
Y215937D01*
X251284Y187000D02*
X251425Y187142D01*
X282358Y190858D02*
X282500Y191000D01*
X279000Y190858D02*
Y190937D01*
X255000Y191000D02*
Y191079D01*
X189500Y233370D02*
X189630Y233500D01*
X189500Y232000D02*
Y233370D01*
Y232000D02*
X190500Y231000D01*
X194000D01*
X177500Y246000D02*
X177628Y245872D01*
Y240372D02*
X177767Y240233D01*
X185063Y228500D02*
X185142D01*
X173379Y238630D02*
X173870D01*
X171517Y240492D02*
X173379Y238630D01*
X169500Y240492D02*
X171517D01*
X173870Y236335D02*
Y238630D01*
X182500Y238000D02*
X182855Y237645D01*
X183135D01*
X185483Y239992D01*
X187500D01*
X182500Y235500D02*
Y238000D01*
X178463Y231742D02*
X178603Y231603D01*
X178463Y231742D02*
Y236757D01*
X177767Y237453D02*
X178463Y236757D01*
X177767Y237453D02*
Y240233D01*
X173870Y236335D02*
X174009Y236196D01*
Y231491D02*
Y236196D01*
Y231491D02*
X176874Y228626D01*
Y222307D02*
Y228626D01*
X178842Y222307D02*
Y227343D01*
X182639Y231139D01*
X182500Y235500D02*
X182639Y235361D01*
Y231139D02*
Y235361D01*
X147000Y229000D02*
X147346Y228654D01*
X206906Y197406D02*
X207000Y197500D01*
X210858Y189358D02*
X211000Y189500D01*
X206594Y185594D02*
X207000Y186000D01*
X127000Y199000D02*
X127142Y198858D01*
X131000Y195500D02*
X131063Y195437D01*
X155220Y166220D02*
X155280Y166279D01*
X157358Y149642D02*
X157500Y149784D01*
X153252Y153748D02*
X153500Y153500D01*
X190500Y166000D02*
X190654Y165847D01*
X185500Y149500D02*
X185642Y149642D01*
X196858D02*
X197000Y149500D01*
X192622Y154378D02*
X193500Y153500D01*
X188685Y153815D02*
X189000Y153500D01*
X140957Y109957D02*
X141000Y110000D01*
X107000Y114500D02*
X107142Y114642D01*
X272610Y111760D02*
X273693D01*
X292929Y103071D02*
X293000Y103000D01*
X292929Y106929D02*
X293000Y107000D01*
X243500Y100500D02*
X243543Y100543D01*
X237280Y31051D02*
X239248D01*
X235311D02*
X237280D01*
X233343D02*
X235311D01*
X231374D02*
X233343D01*
X229405Y37905D02*
X229500Y38000D01*
X227437Y36437D02*
X227500Y36500D01*
X225468Y37969D02*
X225500Y38000D01*
X221500D02*
X221532Y37969D01*
X217595Y31051D02*
X219563D01*
X215626D02*
X217595D01*
X213500Y38000D02*
X213657Y37843D01*
X211606Y36394D02*
X211689Y36311D01*
X211606Y36394D02*
Y36500D01*
X209500Y38000D02*
X209720Y37780D01*
X205784Y31051D02*
X207752D01*
X203815D02*
X205784D01*
X150665D02*
X152634D01*
X148697D02*
X150665D01*
D70*
X182500Y46500D02*
X255000D01*
X176251Y40251D02*
X182500Y46500D01*
X255000D02*
X268000Y33500D01*
X182000Y49500D02*
X258500D01*
X174075Y41575D02*
X182000Y49500D01*
X258500D02*
X263000Y54000D01*
X178224Y38224D02*
X184000Y44000D01*
X251000D02*
X265500Y29500D01*
X184000Y44000D02*
X251000D01*
X154382Y38913D02*
X154602Y38693D01*
X153000Y42000D02*
X154382Y40618D01*
X136500Y39000D02*
X139500Y42000D01*
X40863Y27000D02*
X83000D01*
X139500Y42000D02*
X153000D01*
X154382Y38913D02*
Y40618D01*
X136500Y31000D02*
Y39000D01*
X22500Y328000D02*
X30000Y335500D01*
X131079D02*
X140496Y326083D01*
X30000Y335500D02*
X131079D01*
X333000Y64000D02*
X340500Y71500D01*
Y147000D02*
X349000Y155500D01*
X340500Y71500D02*
Y147000D01*
X347500Y95000D02*
X349000Y96500D01*
Y144000D01*
X360000Y155000D01*
X34000Y188000D02*
Y302500D01*
Y188000D02*
X45000Y177000D01*
X166413Y38413D02*
X166500Y38500D01*
X29500Y307000D02*
X34000Y302500D01*
X22500Y101500D02*
Y328000D01*
Y101500D02*
X35000Y89000D01*
X38500D01*
X140496Y315000D02*
Y325000D01*
X140500Y305000D02*
Y314996D01*
X140496Y295000D02*
Y304996D01*
Y285004D02*
Y295000D01*
Y275000D02*
Y284996D01*
Y265000D02*
Y275000D01*
Y253500D02*
Y265000D01*
X43500Y52500D02*
X62500Y33500D01*
X43500Y52500D02*
X47000Y49000D01*
X43500Y52500D02*
Y94500D01*
X30000Y108000D02*
X43500Y94500D01*
X47000Y55500D02*
Y98000D01*
Y55500D02*
X54500Y48000D01*
X34500Y110500D02*
X47000Y98000D01*
X50500Y58500D02*
Y101750D01*
Y58500D02*
X57000Y52000D01*
X45500Y106750D02*
X50500Y101750D01*
X62500Y33500D02*
X129500Y33500D01*
X132500Y36500D01*
X54500Y48000D02*
X154500D01*
X34500Y110500D02*
Y121500D01*
X53500Y65000D02*
X57000Y61500D01*
X53500Y105000D02*
X55000Y106500D01*
X53500Y65000D02*
Y105000D01*
X265500Y29500D02*
X274000D01*
X268000Y33500D02*
X315000D01*
X55500Y131250D02*
Y147000D01*
X45000Y157500D02*
X55500Y147000D01*
Y131250D02*
X60000Y126750D01*
X184500Y253370D02*
X188870D01*
X179855D02*
X184500D01*
X189000Y253240D02*
X190740D01*
X192000Y254500D01*
Y260500D01*
X192925Y261425D01*
X197728D01*
X176610Y257000D02*
Y271000D01*
X176500Y271110D02*
Y284500D01*
X57000Y61500D02*
X128500Y61500D01*
X60000Y66500D02*
X143500D01*
X57000Y69500D02*
Y100000D01*
Y69500D02*
X60000Y66500D01*
X166413Y31077D02*
X166426Y31064D01*
X143500Y66500D02*
X148500Y61500D01*
X57000Y100000D02*
X60000Y103000D01*
X162476Y38476D02*
Y48524D01*
X55000Y106500D02*
Y122500D01*
X27500Y275000D02*
Y295137D01*
Y256500D02*
Y275000D01*
X128500Y61500D02*
X135000Y55000D01*
X60000Y103000D02*
Y126750D01*
X45500Y132000D02*
X55000Y122500D01*
X45000Y157500D02*
Y177000D01*
X29500Y307000D02*
Y323000D01*
X27500Y295137D02*
X29500Y297137D01*
Y297500D01*
X170350Y38500D02*
Y45850D01*
X180000Y55500D02*
X252500D01*
X170350Y45850D02*
X180000Y55500D01*
X166500Y38581D02*
Y50500D01*
X166419Y38500D02*
X166500Y38581D01*
X168387Y36500D02*
Y47887D01*
X178500Y58000D01*
X168382Y36495D02*
X168387Y36500D01*
X178500Y58000D02*
X249000D01*
X255000Y64000D01*
X333000D01*
X341500Y60500D02*
X347500Y66500D01*
X252500Y55500D02*
X257500Y60500D01*
X341500D01*
X255000Y52500D02*
X259500Y57000D01*
X354500D01*
X360000Y62500D01*
X349000Y155500D02*
Y200000D01*
X360000Y211000D01*
Y248500D01*
X364768Y253268D01*
Y263000D01*
X364884Y288884D02*
X365000Y289000D01*
X364884Y263116D02*
Y288884D01*
X364768Y263000D02*
X364884Y263116D01*
X347500Y66500D02*
Y95000D01*
X360000Y155000D02*
Y205500D01*
X364500Y210000D01*
Y218500D01*
X366500Y221413D02*
Y241000D01*
X364500Y219413D02*
X366500Y221413D01*
X364500Y218500D02*
Y219413D01*
X172314Y36500D02*
Y43814D01*
Y36186D02*
Y36500D01*
Y43814D02*
X181000Y52500D01*
X174075Y38702D02*
X174277Y38500D01*
X174075Y38702D02*
Y41575D01*
X170350Y31051D02*
Y38500D01*
X181000Y52500D02*
X255000D01*
X152000Y58000D02*
X159000D01*
X166500Y50500D01*
X360000Y62500D02*
Y145000D01*
X360500Y54000D02*
X364500Y58000D01*
X263000Y54000D02*
X360500D01*
X364500Y58000D02*
Y113500D01*
X360000Y145000D02*
X364500Y149500D01*
Y165500D01*
Y192000D01*
Y113500D02*
Y139500D01*
X176251Y36500D02*
Y40251D01*
X174287Y31051D02*
Y38287D01*
X174075Y38500D02*
X174287Y38287D01*
X178224Y31051D02*
Y38224D01*
X315000Y33500D02*
X319264Y29236D01*
X326760D01*
X353382Y29118D02*
X353500Y29000D01*
X326878Y29118D02*
X353382D01*
X326760Y29236D02*
X326878Y29118D01*
X300366Y29366D02*
X300500Y29232D01*
X274134Y29366D02*
X300366D01*
X274000Y29500D02*
X274134Y29366D01*
X203000Y80000D02*
X223587D01*
X225087Y81500D01*
X226000D01*
X183000Y80000D02*
X203000D01*
X163000D02*
X183000D01*
X153000D02*
X163000D01*
X148500Y75500D02*
X153000Y80000D01*
X148500Y61500D02*
Y75500D01*
Y61500D02*
X152000Y58000D01*
X135000Y55000D02*
X156000D01*
X162476Y48524D01*
X45500Y132000D02*
Y147000D01*
X34500Y132500D02*
X45500Y121500D01*
Y106750D02*
Y121500D01*
X34500Y158000D02*
X45500Y147000D01*
X34500Y158000D02*
Y178500D01*
X30000Y183000D02*
X34500Y178500D01*
X30000Y183000D02*
Y194500D01*
X28000Y197413D02*
Y217500D01*
Y197413D02*
X30000Y195413D01*
Y194500D02*
Y195413D01*
X27500Y237000D02*
X27750Y236750D01*
Y217750D02*
Y236750D01*
Y217750D02*
X28000Y217500D01*
X27500Y237000D02*
Y256500D01*
X57000Y52000D02*
X154500D01*
X160492Y37687D02*
Y46008D01*
X154500Y52000D02*
X160492Y46008D01*
X160153Y37347D02*
X160492Y37687D01*
X158529Y38500D02*
Y43971D01*
X154500Y48000D02*
X158529Y43971D01*
X34500Y132500D02*
Y147500D01*
X30000Y152000D02*
X34500Y147500D01*
X30000Y152000D02*
Y167500D01*
X156566Y36434D02*
Y36500D01*
Y41934D01*
X153500Y45000D02*
X156566Y41934D01*
X83000Y27000D02*
X103500D01*
X38500Y29000D02*
X38863D01*
X40863Y27000D01*
X30000Y126000D02*
X34500Y121500D01*
X30000Y126000D02*
Y140500D01*
X132500Y40500D02*
X137000Y45000D01*
X132500Y36500D02*
Y40500D01*
X158529Y38500D02*
X158539Y38490D01*
Y31051D02*
Y38490D01*
X137000Y45000D02*
X153500D01*
X132500Y27000D02*
X136500Y31000D01*
X30000Y108000D02*
Y113500D01*
X123401Y27000D02*
X132500D01*
X103500D02*
X123401D01*
X201847Y37846D02*
X202000Y38000D01*
X199878Y36495D02*
X199883Y36500D01*
X201847Y31051D02*
Y37846D01*
X199878Y31051D02*
Y36495D01*
X197909Y37909D02*
X198000Y38000D01*
X197909Y31051D02*
Y37909D01*
X195946Y36446D02*
Y36500D01*
X195941Y36441D02*
X195946Y36446D01*
X195941Y31051D02*
Y36441D01*
X193972Y37972D02*
X194000Y38000D01*
X193972Y31051D02*
Y37972D01*
X192000Y36500D02*
X192004Y36496D01*
Y31051D02*
Y36496D01*
X190000Y38000D02*
X190035Y37965D01*
Y31051D02*
Y37965D01*
X188062Y36438D02*
X188067Y36433D01*
X188062Y36438D02*
Y36500D01*
X188067Y31051D02*
Y36433D01*
X186000Y38000D02*
X186098Y37902D01*
Y31051D02*
Y37902D01*
X184127Y36373D02*
X184130Y36370D01*
X184127Y36373D02*
Y36500D01*
X184130Y31051D02*
Y36370D01*
X182000Y38172D02*
X182164Y38008D01*
Y35687D02*
Y38008D01*
X182161Y31051D02*
Y35684D01*
X182164Y35687D01*
X180193Y31051D02*
Y36492D01*
X180201Y36500D01*
X176256Y31051D02*
Y36495D01*
X176251Y36500D02*
X176256Y36495D01*
X172314Y36186D02*
X172319Y36181D01*
Y31051D02*
Y36181D01*
X168382Y31051D02*
Y36495D01*
X166413Y31077D02*
Y38413D01*
Y31051D02*
X166426Y31064D01*
X164450Y36450D02*
Y36500D01*
X164445Y36445D02*
X164450Y36450D01*
X164445Y31051D02*
Y36445D01*
X162476Y38476D02*
X162500Y38500D01*
X162476Y31051D02*
Y38476D01*
X160503Y36497D02*
X160508Y36492D01*
X160503Y36497D02*
Y36500D01*
X160508Y31051D02*
Y36492D01*
X156566Y36434D02*
X156571Y36429D01*
Y31051D02*
Y36429D01*
X154602Y31051D02*
Y38693D01*
D71*
X29500Y323000D02*
D03*
X39500D02*
D03*
X49500D02*
D03*
X69500D02*
D03*
X79500D02*
D03*
X57500Y275000D02*
D03*
X42500D02*
D03*
X27500D02*
D03*
X314500Y165500D02*
D03*
X324500D02*
D03*
X344500D02*
D03*
X354500D02*
D03*
X364500D02*
D03*
X80000Y167500D02*
D03*
X70000D02*
D03*
X50000D02*
D03*
X40000D02*
D03*
X30000D02*
D03*
X314500Y218500D02*
D03*
X324500D02*
D03*
X344500D02*
D03*
X354500D02*
D03*
X364500D02*
D03*
X163000Y110000D02*
D03*
Y95000D02*
D03*
Y80000D02*
D03*
X183000Y110000D02*
D03*
Y95000D02*
D03*
Y80000D02*
D03*
X274000Y79500D02*
D03*
Y69500D02*
D03*
Y49500D02*
D03*
Y39500D02*
D03*
Y29500D02*
D03*
X326760Y79236D02*
D03*
Y69236D02*
D03*
Y49236D02*
D03*
Y39236D02*
D03*
Y29236D02*
D03*
X57500Y256500D02*
D03*
X42500D02*
D03*
X27500D02*
D03*
X57500Y237000D02*
D03*
X42500D02*
D03*
X27500D02*
D03*
X314500Y139500D02*
D03*
X324500D02*
D03*
X344500D02*
D03*
X354500D02*
D03*
X364500D02*
D03*
X38500Y79000D02*
D03*
Y69000D02*
D03*
Y49000D02*
D03*
Y39000D02*
D03*
Y29000D02*
D03*
X80000Y194500D02*
D03*
X70000D02*
D03*
X50000D02*
D03*
X40000D02*
D03*
X30000D02*
D03*
X336500Y241000D02*
D03*
X351500D02*
D03*
X366500D02*
D03*
X226000Y131500D02*
D03*
Y121500D02*
D03*
Y101500D02*
D03*
Y91500D02*
D03*
Y81500D02*
D03*
X314500Y113500D02*
D03*
X324500D02*
D03*
X344500D02*
D03*
X354500D02*
D03*
X364500D02*
D03*
X203000Y110000D02*
D03*
Y95000D02*
D03*
Y80000D02*
D03*
X58000Y217500D02*
D03*
X43000D02*
D03*
X28000D02*
D03*
X353500Y79000D02*
D03*
Y69000D02*
D03*
Y49000D02*
D03*
Y39000D02*
D03*
Y29000D02*
D03*
X80000Y113500D02*
D03*
X70000D02*
D03*
X50000D02*
D03*
X40000D02*
D03*
X30000D02*
D03*
X103500Y57000D02*
D03*
Y42000D02*
D03*
Y27000D02*
D03*
X123401Y57000D02*
D03*
Y42000D02*
D03*
Y27000D02*
D03*
X314500Y192000D02*
D03*
X324500D02*
D03*
X344500D02*
D03*
X354500D02*
D03*
X364500D02*
D03*
X314768Y263000D02*
D03*
X324768D02*
D03*
X344768D02*
D03*
X354768D02*
D03*
X364768D02*
D03*
X79500Y297500D02*
D03*
X69500D02*
D03*
X49500D02*
D03*
X39500D02*
D03*
X29500D02*
D03*
X62500Y57000D02*
D03*
Y42000D02*
D03*
Y27000D02*
D03*
X83000Y57000D02*
D03*
Y42000D02*
D03*
Y27000D02*
D03*
X300500Y79232D02*
D03*
Y69232D02*
D03*
Y49232D02*
D03*
Y39232D02*
D03*
Y29232D02*
D03*
X80000Y140500D02*
D03*
X70000D02*
D03*
X50000D02*
D03*
X40000D02*
D03*
X30000D02*
D03*
X315000Y289000D02*
D03*
X325000D02*
D03*
X345000D02*
D03*
X355000D02*
D03*
X365000D02*
D03*
D72*
X89500Y323000D02*
D03*
X72500Y275000D02*
D03*
X304500Y165500D02*
D03*
X90000Y167500D02*
D03*
X304500Y218500D02*
D03*
X72500Y256500D02*
D03*
Y237000D02*
D03*
X304500Y139500D02*
D03*
X90000Y194500D02*
D03*
X321500Y241000D02*
D03*
X304500Y113500D02*
D03*
X73000Y217500D02*
D03*
X90000Y113500D02*
D03*
X304500Y192000D02*
D03*
X304768Y263000D02*
D03*
X89500Y297500D02*
D03*
X90000Y140500D02*
D03*
X305000Y289000D02*
D03*
D73*
X44500Y346500D02*
D03*
X54500D02*
D03*
X64500D02*
D03*
X74500D02*
D03*
X84500D02*
D03*
X94500D02*
D03*
X332500Y337500D02*
D03*
Y347500D02*
D03*
X342500Y337500D02*
D03*
Y347500D02*
D03*
X352500Y337500D02*
D03*
Y347500D02*
D03*
D74*
X14839Y14122D02*
D03*
X379012Y16091D02*
D03*
X378618Y379083D02*
D03*
X15626D02*
D03*
D75*
X163000Y125000D02*
D03*
X183000D02*
D03*
X274000Y89500D02*
D03*
X326760Y89236D02*
D03*
X38500Y89000D02*
D03*
X226000Y141500D02*
D03*
X203000Y125000D02*
D03*
X353500Y89000D02*
D03*
X103500Y72000D02*
D03*
X123401D02*
D03*
X62500D02*
D03*
X83000D02*
D03*
X300500Y89232D02*
D03*
D76*
X250075Y346012D02*
D03*
X143776D02*
D03*
X250075Y352705D02*
D03*
X143776D02*
D03*
X250075Y20421D02*
D03*
X143776D02*
D03*
X250075Y27114D02*
D03*
X143776D02*
D03*
D77*
X111000Y234500D02*
D03*
X204000Y346500D02*
D03*
X206000Y348000D02*
D03*
X217500Y336500D02*
D03*
X215500Y335000D02*
D03*
X213500Y336500D02*
D03*
X211500Y335000D02*
D03*
X209500Y348000D02*
D03*
X199954Y335086D02*
D03*
X202000Y336500D02*
D03*
X185500D02*
D03*
X183500D02*
D03*
X181000D02*
D03*
X185500Y347500D02*
D03*
X183500D02*
D03*
X181000D02*
D03*
X172500Y337000D02*
D03*
X168500D02*
D03*
X170500Y335500D02*
D03*
X166500D02*
D03*
X162500Y337000D02*
D03*
X160500Y335500D02*
D03*
X150500Y351500D02*
D03*
X154500D02*
D03*
X152500Y350000D02*
D03*
X156500D02*
D03*
X158500Y351500D02*
D03*
X194000Y362000D02*
D03*
X196000Y363500D02*
D03*
X198000Y361500D02*
D03*
X207914Y362000D02*
D03*
X204000D02*
D03*
X206000Y364000D02*
D03*
X209500D02*
D03*
X221500Y362000D02*
D03*
X229500D02*
D03*
X231500Y363500D02*
D03*
X233500Y362000D02*
D03*
X235500Y363500D02*
D03*
X237500Y362000D02*
D03*
X239500Y363500D02*
D03*
X207000Y190000D02*
D03*
X233000Y24500D02*
D03*
X237500D02*
D03*
Y26500D02*
D03*
X233000D02*
D03*
Y36500D02*
D03*
X237000D02*
D03*
Y38500D02*
D03*
X233000D02*
D03*
X218000Y24500D02*
D03*
X219000Y26500D02*
D03*
X216500D02*
D03*
X217500Y38500D02*
D03*
X219000Y36500D02*
D03*
X216500D02*
D03*
X207000Y24500D02*
D03*
X206000Y26500D02*
D03*
X204500Y24500D02*
D03*
Y36500D02*
D03*
X205500Y38500D02*
D03*
X207000Y36500D02*
D03*
X149500Y24000D02*
D03*
X152000D02*
D03*
Y26000D02*
D03*
X149500D02*
D03*
Y36500D02*
D03*
X151500D02*
D03*
Y38500D02*
D03*
X149500D02*
D03*
X196000Y25000D02*
D03*
X184500D02*
D03*
X174500D02*
D03*
X166500D02*
D03*
X159500D02*
D03*
X200500Y41500D02*
D03*
X196500D02*
D03*
X191000Y41000D02*
D03*
X185500Y41500D02*
D03*
X154500Y38795D02*
D03*
X245000Y38500D02*
D03*
X243000Y36500D02*
D03*
X241000Y38500D02*
D03*
X244000Y22500D02*
D03*
X111000Y318500D02*
D03*
X118000Y325586D02*
D03*
X114000Y325500D02*
D03*
X245000Y335500D02*
D03*
X208000Y336371D02*
D03*
X131465Y331836D02*
D03*
X127914Y331086D02*
D03*
X148500Y11500D02*
D03*
X143500D02*
D03*
X145000Y14500D02*
D03*
X141500D02*
D03*
X154500Y11500D02*
D03*
X157000D02*
D03*
X237500Y62000D02*
D03*
X215000Y67000D02*
D03*
X214000Y62000D02*
D03*
X194000D02*
D03*
X192500Y65500D02*
D03*
X174000Y61500D02*
D03*
X170000Y57500D02*
D03*
X154500Y61500D02*
D03*
X13500Y247000D02*
D03*
X10500Y246500D02*
D03*
X13500Y227500D02*
D03*
X10500D02*
D03*
Y208000D02*
D03*
Y204000D02*
D03*
Y184000D02*
D03*
X10000Y178500D02*
D03*
Y158000D02*
D03*
X9500Y150000D02*
D03*
Y129500D02*
D03*
X9000Y124000D02*
D03*
Y104000D02*
D03*
X51500Y11500D02*
D03*
X30500Y14500D02*
D03*
X48500Y9500D02*
D03*
X70500D02*
D03*
X73000Y12000D02*
D03*
X92000Y9500D02*
D03*
X268500Y5000D02*
D03*
X284500Y9000D02*
D03*
X290500D02*
D03*
X312000D02*
D03*
X316500Y9500D02*
D03*
X337000D02*
D03*
X343500Y9000D02*
D03*
X364000D02*
D03*
X365000Y303500D02*
D03*
X384500Y124500D02*
D03*
X368000Y100000D02*
D03*
X384500Y148500D02*
D03*
X370000Y126500D02*
D03*
X384500Y175500D02*
D03*
X370000Y152500D02*
D03*
X384500Y202000D02*
D03*
X370500Y179000D02*
D03*
X384500Y227500D02*
D03*
X372000Y205500D02*
D03*
X384500Y250000D02*
D03*
Y274500D02*
D03*
Y299000D02*
D03*
X230000Y200500D02*
D03*
X282000Y211500D02*
D03*
X253000Y204000D02*
D03*
X212500Y205500D02*
D03*
X216000Y203500D02*
D03*
X208500Y207500D02*
D03*
X178500Y209000D02*
D03*
X135500Y12000D02*
D03*
X134500Y16000D02*
D03*
X95000Y13000D02*
D03*
X95500Y16500D02*
D03*
X115500Y12500D02*
D03*
X130500Y17500D02*
D03*
X151000Y103500D02*
D03*
X166500Y142500D02*
D03*
X148500Y106500D02*
D03*
X169500Y145000D02*
D03*
X205000Y170000D02*
D03*
X207000Y172000D02*
D03*
X120500Y132750D02*
D03*
X229000Y380500D02*
D03*
X248500D02*
D03*
X144000Y380000D02*
D03*
X164000D02*
D03*
X187000Y380500D02*
D03*
X210000D02*
D03*
X126000Y333500D02*
D03*
X129500D02*
D03*
X126500Y309500D02*
D03*
Y305500D02*
D03*
X124000Y331500D02*
D03*
X122000Y333500D02*
D03*
X79500Y338000D02*
D03*
X119500Y333500D02*
D03*
X106500Y329500D02*
D03*
X100500Y330000D02*
D03*
X103500Y333000D02*
D03*
X100500D02*
D03*
X109000Y325500D02*
D03*
X106000Y326000D02*
D03*
X193126Y187500D02*
D03*
X215000Y299500D02*
D03*
X217839Y282059D02*
D03*
X219000Y207500D02*
D03*
X71311Y338311D02*
D03*
X88000Y281000D02*
D03*
X94500Y283000D02*
D03*
X116774Y231500D02*
D03*
X114000Y241000D02*
D03*
X123000Y238500D02*
D03*
X236453Y271559D02*
D03*
X234453Y269059D02*
D03*
X243500Y273000D02*
D03*
X233953Y281559D02*
D03*
X242500Y253500D02*
D03*
X331500Y259500D02*
D03*
X235953Y279059D02*
D03*
X332000Y255500D02*
D03*
X233953Y276559D02*
D03*
X326000Y256000D02*
D03*
X238000Y253914D02*
D03*
X221000Y253500D02*
D03*
X145500Y132000D02*
D03*
X256500Y150000D02*
D03*
X276358Y103142D02*
D03*
X276000Y107000D02*
D03*
X150000Y131000D02*
D03*
X146500Y128000D02*
D03*
X125000Y128500D02*
D03*
X129000Y126500D02*
D03*
X150000Y125500D02*
D03*
X152000Y123000D02*
D03*
X132500Y125500D02*
D03*
X240714Y130801D02*
D03*
X246206Y136293D02*
D03*
X135000Y123000D02*
D03*
X284500Y93500D02*
D03*
X278500D02*
D03*
X114000Y200500D02*
D03*
X101500Y326000D02*
D03*
X57000Y181000D02*
D03*
X63000D02*
D03*
X223500Y335500D02*
D03*
X230000D02*
D03*
X159000Y238500D02*
D03*
X82500Y207500D02*
D03*
X73500Y208000D02*
D03*
X198181Y254831D02*
D03*
X184000Y244000D02*
D03*
X173000Y244500D02*
D03*
X80000Y227093D02*
D03*
X197000Y233500D02*
D03*
X204453Y284559D02*
D03*
Y289559D02*
D03*
Y282059D02*
D03*
Y271721D02*
D03*
Y287059D02*
D03*
X83000Y255000D02*
D03*
X82586Y266000D02*
D03*
X144000Y233500D02*
D03*
X150500Y228500D02*
D03*
X157000Y227500D02*
D03*
X149500Y209000D02*
D03*
X212000Y158000D02*
D03*
X181000Y216500D02*
D03*
X256000Y225000D02*
D03*
X255000Y249500D02*
D03*
X245000Y270500D02*
D03*
Y275500D02*
D03*
X121500Y250000D02*
D03*
X123205Y252500D02*
D03*
X121500Y255000D02*
D03*
X123500Y258000D02*
D03*
X121500Y260500D02*
D03*
X123677Y263000D02*
D03*
X121500Y265500D02*
D03*
X249000Y172000D02*
D03*
X250500Y169500D02*
D03*
X249000Y166500D02*
D03*
X250500Y164000D02*
D03*
X249000Y161500D02*
D03*
X250500Y159000D02*
D03*
X140000Y92000D02*
D03*
X141500Y94500D02*
D03*
X140000Y97000D02*
D03*
X141500Y99500D02*
D03*
X140000Y102500D02*
D03*
X141500Y105000D02*
D03*
X140000Y107500D02*
D03*
X261500Y136500D02*
D03*
X259000Y137500D02*
D03*
X256500Y136323D02*
D03*
X253720Y137721D02*
D03*
X251000Y136500D02*
D03*
X248500Y137677D02*
D03*
X8000Y265500D02*
D03*
X11000Y266000D02*
D03*
Y284500D02*
D03*
Y307500D02*
D03*
Y288000D02*
D03*
X10000Y334000D02*
D03*
Y313500D02*
D03*
X267500Y322000D02*
D03*
X190500Y300000D02*
D03*
X221453Y259059D02*
D03*
X280500Y275000D02*
D03*
X282000Y272500D02*
D03*
X280000Y270000D02*
D03*
X281000Y261000D02*
D03*
X287500Y174500D02*
D03*
X284500Y172000D02*
D03*
X286500Y169000D02*
D03*
X284500Y166500D02*
D03*
X286500Y164000D02*
D03*
X284500Y161500D02*
D03*
X286500Y159000D02*
D03*
X239500Y113500D02*
D03*
X85000Y262500D02*
D03*
X83000Y260000D02*
D03*
X85000Y257500D02*
D03*
Y252500D02*
D03*
X83500Y250000D02*
D03*
X103500Y107000D02*
D03*
X101500Y104500D02*
D03*
X104000Y102500D02*
D03*
X101500Y100000D02*
D03*
X104000Y97000D02*
D03*
X101500Y94000D02*
D03*
X105000Y91500D02*
D03*
X180000Y308500D02*
D03*
Y298500D02*
D03*
X184000Y300000D02*
D03*
X220453Y292059D02*
D03*
X221453Y261559D02*
D03*
X181000Y249500D02*
D03*
X192500D02*
D03*
X204291Y279398D02*
D03*
X184500Y283000D02*
D03*
X192453Y265559D02*
D03*
X184500Y260000D02*
D03*
X258500Y311000D02*
D03*
Y306000D02*
D03*
X254000Y311000D02*
D03*
Y306000D02*
D03*
X244500Y265000D02*
D03*
X285000Y261142D02*
D03*
X241500Y323000D02*
D03*
X238500Y315500D02*
D03*
X239500Y308500D02*
D03*
X101000Y309500D02*
D03*
Y305500D02*
D03*
X103500Y295500D02*
D03*
X216500Y158000D02*
D03*
X226500Y151500D02*
D03*
X212500Y171000D02*
D03*
X216500D02*
D03*
X114000Y204500D02*
D03*
X107000Y205500D02*
D03*
X111000Y231000D02*
D03*
Y237500D02*
D03*
X116000Y271000D02*
D03*
X88500Y277000D02*
D03*
Y272500D02*
D03*
X277500Y245500D02*
D03*
X251000Y239500D02*
D03*
X282000Y240000D02*
D03*
X258000Y235500D02*
D03*
X274783Y236000D02*
D03*
X249457Y156543D02*
D03*
X283500Y149500D02*
D03*
X279571Y149429D02*
D03*
X251000Y216000D02*
D03*
Y212000D02*
D03*
X278000Y196500D02*
D03*
X277500Y221500D02*
D03*
X282000Y215500D02*
D03*
X282500Y187000D02*
D03*
X251284D02*
D03*
X251500Y191000D02*
D03*
X282500D02*
D03*
X177500Y246000D02*
D03*
X192500Y228500D02*
D03*
X181500Y227500D02*
D03*
X210740Y200760D02*
D03*
X185500Y153500D02*
D03*
X197000D02*
D03*
X157500D02*
D03*
X131000Y199000D02*
D03*
X211000Y189500D02*
D03*
X144000Y193500D02*
D03*
X127000Y199000D02*
D03*
X155280Y166279D02*
D03*
X157500Y149784D02*
D03*
X190500Y166000D02*
D03*
X185500Y149500D02*
D03*
X197000D02*
D03*
X141000Y110000D02*
D03*
X107000Y114500D02*
D03*
Y118500D02*
D03*
X290000Y114000D02*
D03*
X293000Y103000D02*
D03*
Y107000D02*
D03*
X239500Y100500D02*
D03*
X243500Y93000D02*
D03*
X166419Y38500D02*
D03*
X174277D02*
D03*
X170350D02*
D03*
X178276Y38276D02*
D03*
X158529Y38500D02*
D03*
X229500Y38000D02*
D03*
X227500Y36500D02*
D03*
X225500Y38000D02*
D03*
X223500Y36500D02*
D03*
X221500Y38000D02*
D03*
X213500D02*
D03*
X211606Y36500D02*
D03*
X209500Y38000D02*
D03*
X202000D02*
D03*
X199883Y36500D02*
D03*
X198000Y38000D02*
D03*
X195946Y36500D02*
D03*
X194000Y38000D02*
D03*
X192000Y36500D02*
D03*
X190000Y38000D02*
D03*
X188062Y36500D02*
D03*
X186000Y38000D02*
D03*
X184127Y36500D02*
D03*
X182000Y38172D02*
D03*
X180201Y36500D02*
D03*
X176251D02*
D03*
X172314D02*
D03*
X168387D02*
D03*
X164450D02*
D03*
X162500Y38500D02*
D03*
X160503Y36500D02*
D03*
X156566D02*
D03*
M02*
