G04*
G04 #@! TF.GenerationSoftware,Altium Limited,Altium Designer,20.0.13 (296)*
G04*
G04 Layer_Color=65535*
%FSLAX25Y25*%
%MOIN*%
G70*
G01*
G75*
%ADD10C,0.02362*%
%ADD11C,0.00984*%
%ADD12C,0.01575*%
%ADD13C,0.00394*%
%ADD14C,0.00787*%
%ADD15C,0.00500*%
%ADD16C,0.01000*%
G36*
X228000Y315252D02*
X226804D01*
Y331000D01*
X228000D01*
Y315252D01*
D02*
G37*
G36*
X226206D02*
X225608D01*
Y331000D01*
X226206D01*
Y315252D01*
D02*
G37*
G36*
X223216D02*
X222618D01*
Y331000D01*
X223216D01*
Y315252D01*
D02*
G37*
G36*
X221422D02*
X219628D01*
Y331000D01*
X221422D01*
Y315252D01*
D02*
G37*
G36*
X219030D02*
X218431D01*
Y331000D01*
X219030D01*
Y315252D01*
D02*
G37*
G36*
X217833D02*
X216637D01*
Y331000D01*
X217833D01*
Y315252D01*
D02*
G37*
G36*
X214843D02*
X214245D01*
Y331000D01*
X214843D01*
Y315252D01*
D02*
G37*
G36*
X212451D02*
X211255D01*
Y331000D01*
X212451D01*
Y315252D01*
D02*
G37*
G36*
X210657D02*
X210059D01*
Y331000D01*
X210657D01*
Y315252D01*
D02*
G37*
G36*
X208265D02*
X207069D01*
Y331000D01*
X208265D01*
Y315252D01*
D02*
G37*
G36*
X206471D02*
X204677D01*
Y331000D01*
X206471D01*
Y315252D01*
D02*
G37*
G36*
X202883D02*
X202285D01*
Y331000D01*
X202883D01*
Y315252D01*
D02*
G37*
G36*
X201687D02*
X201089D01*
Y331000D01*
X201687D01*
Y315252D01*
D02*
G37*
G36*
X199295D02*
X198696D01*
Y331000D01*
X199295D01*
Y315252D01*
D02*
G37*
G36*
X198099D02*
X196902D01*
Y331000D01*
X198099D01*
Y315252D01*
D02*
G37*
G36*
X195108D02*
X194510D01*
Y331000D01*
X195108D01*
Y315252D01*
D02*
G37*
G36*
X192716D02*
X191520D01*
Y331000D01*
X192716D01*
Y315252D01*
D02*
G37*
G36*
X190324D02*
X189726D01*
Y331000D01*
X190324D01*
Y315252D01*
D02*
G37*
G36*
X188530D02*
X187334D01*
Y331000D01*
X188530D01*
Y315252D01*
D02*
G37*
G36*
X185540D02*
X183746D01*
Y331000D01*
X185540D01*
Y315252D01*
D02*
G37*
G36*
X183148D02*
X182550D01*
Y331000D01*
X183148D01*
Y315252D01*
D02*
G37*
G36*
X181952D02*
X180756D01*
Y331000D01*
X181952D01*
Y315252D01*
D02*
G37*
G36*
X272562Y370354D02*
X272737D01*
X273174Y370222D01*
X273612Y369960D01*
X273699Y369872D01*
X273830Y369654D01*
X273961Y369304D01*
X274049Y368823D01*
Y368779D01*
X273612D01*
Y368823D01*
Y368866D01*
X273568Y369085D01*
X273480Y369391D01*
X273262Y369654D01*
X273174Y369697D01*
X272999Y369829D01*
X272649Y369960D01*
X272256Y370004D01*
X272168D01*
X271950Y369960D01*
X271687Y369872D01*
X271381Y369741D01*
X271337Y369697D01*
X271206Y369566D01*
X271075Y369347D01*
X271031Y369041D01*
Y368954D01*
X271075Y368823D01*
X271118Y368604D01*
X271250Y368429D01*
X271293Y368385D01*
X271468Y368298D01*
X271775Y368166D01*
X272212Y368035D01*
X272649Y367904D01*
X272693D01*
X272780Y367860D01*
X273087Y367773D01*
X273437Y367642D01*
X273568Y367510D01*
X273699Y367423D01*
X273743Y367379D01*
X273830Y367204D01*
X273918Y366942D01*
X273961Y366592D01*
Y366548D01*
Y366504D01*
X273918Y366242D01*
X273786Y365980D01*
X273524Y365673D01*
X273480D01*
X273437Y365630D01*
X273218Y365455D01*
X272824Y365323D01*
X272387Y365280D01*
X272124D01*
X271950Y365323D01*
X271556Y365455D01*
X271206Y365717D01*
X271118Y365761D01*
X270987Y365980D01*
X270856Y366286D01*
X270768Y366767D01*
X271206D01*
Y366723D01*
Y366679D01*
X271250Y366504D01*
X271337Y366242D01*
X271512Y365980D01*
X271556Y365936D01*
X271731Y365848D01*
X271993Y365761D01*
X272387Y365717D01*
X272693D01*
X272955Y365805D01*
X273218Y365892D01*
X273262Y365936D01*
X273349Y366067D01*
X273437Y366329D01*
X273480Y366636D01*
Y366679D01*
X273437Y366810D01*
X273393Y366986D01*
X273305Y367160D01*
X273262Y367204D01*
X273130Y367248D01*
X272955Y367335D01*
X272693Y367423D01*
X272124Y367598D01*
X272081D01*
X271993Y367642D01*
X271862Y367685D01*
X271687Y367729D01*
X271293Y367904D01*
X270987Y368123D01*
X270943Y368210D01*
X270768Y368385D01*
X270637Y368648D01*
X270594Y368998D01*
Y369041D01*
Y369085D01*
X270637Y369347D01*
X270768Y369697D01*
X271031Y370004D01*
X271118Y370047D01*
X271337Y370179D01*
X271731Y370354D01*
X272256Y370397D01*
X272387D01*
X272562Y370354D01*
D02*
G37*
G36*
X286646Y365411D02*
X284415D01*
X284328Y365455D01*
X284197D01*
X284066Y365498D01*
X283934Y365542D01*
X283803Y365630D01*
X283759Y365673D01*
X283628Y365761D01*
X283497Y365892D01*
X283366Y366067D01*
X283322Y366111D01*
X283278Y366242D01*
X283234Y366417D01*
X283191Y366679D01*
Y366767D01*
X283234Y366942D01*
X283278Y367204D01*
X283409Y367467D01*
X283453Y367510D01*
X283584Y367642D01*
X283759Y367773D01*
X283978Y367904D01*
X283934D01*
X283803Y367948D01*
X283541Y368166D01*
Y368210D01*
X283497Y368341D01*
X283453Y368604D01*
X283409Y368998D01*
X283322Y369741D01*
Y369785D01*
Y369916D01*
X283278Y369960D01*
Y370004D01*
X283234Y370091D01*
X283147Y370179D01*
Y370266D01*
X283672D01*
Y370222D01*
Y370135D01*
X283716Y370047D01*
Y370004D01*
X283759Y369916D01*
Y369872D01*
Y369741D01*
X283803Y369129D01*
Y369085D01*
Y369041D01*
X283847Y368779D01*
X283934Y368473D01*
X284066Y368254D01*
X284109Y368210D01*
X284197Y368166D01*
X284415Y368123D01*
X286209D01*
Y370266D01*
X286646D01*
Y365411D01*
D02*
G37*
G36*
X278554D02*
X278117D01*
Y367510D01*
X275361D01*
Y365411D01*
X274924D01*
Y370266D01*
X275361D01*
Y367948D01*
X278117D01*
Y370266D01*
X278554D01*
Y365411D01*
D02*
G37*
G36*
X281222Y370310D02*
X281397D01*
X281791Y370135D01*
X281966Y370047D01*
X282141Y369872D01*
Y369829D01*
X282228Y369785D01*
X282360Y369522D01*
X282491Y369085D01*
X282578Y368516D01*
Y368473D01*
Y368385D01*
X282535Y368210D01*
Y368035D01*
X282403Y367554D01*
X282141Y367160D01*
Y367117D01*
X282053Y367073D01*
X281835Y366898D01*
X281485Y366767D01*
X281222Y366679D01*
X280829D01*
X280697Y366723D01*
X280522D01*
X280129Y366898D01*
X279954Y366986D01*
X279779Y367160D01*
Y367204D01*
X279735Y367248D01*
X279648Y367379D01*
X279560Y367510D01*
X279429Y367948D01*
X279385Y368516D01*
Y368560D01*
Y368648D01*
Y368823D01*
X279429Y368998D01*
X279560Y369435D01*
X279779Y369872D01*
X279866Y369960D01*
X280085Y370091D01*
X280479Y370266D01*
X280697Y370310D01*
X280960Y370354D01*
X281091D01*
X281222Y370310D01*
D02*
G37*
G36*
X281966Y365411D02*
X282010Y365323D01*
X282097Y365148D01*
X282228Y364842D01*
X282316Y364623D01*
X282447Y364361D01*
X282578Y364099D01*
X282710Y363749D01*
X282885Y363355D01*
X283103Y362918D01*
Y362874D01*
X283147Y362786D01*
X283191Y362699D01*
X283278Y362524D01*
X283497Y362087D01*
X283759Y361649D01*
X284109Y361168D01*
X284415Y360774D01*
X284590Y360599D01*
X284765Y360512D01*
X284940Y360424D01*
X285115D01*
X285028Y360337D01*
X284940Y360249D01*
X284809Y360118D01*
X284634Y359943D01*
X284372Y359725D01*
X284328Y359681D01*
X284240Y359637D01*
X284109Y359506D01*
X283934Y359375D01*
X283759Y359287D01*
X283541Y359200D01*
X283322Y359156D01*
X283147Y359200D01*
X283059Y359243D01*
X282885Y359331D01*
X282666Y359506D01*
X282403Y359768D01*
X282360Y359812D01*
X282316Y359900D01*
X282228Y360075D01*
X282097Y360293D01*
X281791Y360774D01*
X281528Y361343D01*
Y361387D01*
X281485Y361431D01*
X281354Y361693D01*
X281222Y361912D01*
X281179Y361999D01*
Y362043D01*
X281135Y361999D01*
X281091Y361955D01*
X281004Y361824D01*
X280872Y361562D01*
X280610Y361256D01*
X280304Y360774D01*
X280085Y360512D01*
X279866Y360162D01*
Y360118D01*
X279823Y360075D01*
X279604Y359812D01*
X279342Y359462D01*
X278948Y358937D01*
X278467Y358325D01*
X277854Y357669D01*
X277198Y356925D01*
X276498Y356138D01*
X276455Y356094D01*
X276411Y356050D01*
X276149Y355788D01*
X275755Y355394D01*
X275230Y354957D01*
X274661Y354432D01*
X273961Y353864D01*
X273262Y353339D01*
X272518Y352857D01*
X272474D01*
X272431Y352814D01*
X272299Y352726D01*
X272256Y352682D01*
X272124Y352639D01*
X271950Y352551D01*
X271775Y352507D01*
Y352551D01*
X271731Y352639D01*
X271643Y352770D01*
X271600Y352814D01*
X271556Y352857D01*
X271512Y352901D01*
Y352945D01*
X271643Y353032D01*
X271731Y353164D01*
X271906Y353295D01*
X272124Y353514D01*
X272431Y353820D01*
X272474Y353864D01*
X272606Y353951D01*
X272780Y354126D01*
X272999Y354388D01*
X273568Y354957D01*
X274224Y355613D01*
Y355657D01*
X274311Y355701D01*
X274574Y355963D01*
X274924Y356400D01*
X275405Y356925D01*
X275974Y357581D01*
X276542Y358325D01*
X277154Y359156D01*
X277767Y360031D01*
Y360075D01*
X277811Y360118D01*
X277898Y360249D01*
X278029Y360424D01*
X278292Y360862D01*
X278598Y361387D01*
X278948Y361999D01*
X279298Y362612D01*
X279648Y363268D01*
X279910Y363880D01*
X281966Y365455D01*
Y365411D01*
D02*
G37*
G36*
X284713Y351434D02*
Y351391D01*
Y351303D01*
Y351194D01*
Y351041D01*
Y351019D01*
Y350953D01*
Y350866D01*
Y350734D01*
Y350582D01*
Y350407D01*
Y350013D01*
Y349991D01*
Y349925D01*
Y349816D01*
Y349663D01*
Y349335D01*
Y348985D01*
Y348963D01*
Y348919D01*
Y348832D01*
Y348744D01*
Y348657D01*
Y348569D01*
Y348526D01*
Y348504D01*
X272750D01*
Y348526D01*
Y348569D01*
Y348613D01*
Y348701D01*
Y348832D01*
Y348985D01*
Y349007D01*
Y349072D01*
Y349160D01*
Y349291D01*
Y349444D01*
Y349619D01*
Y350013D01*
Y350035D01*
Y350100D01*
Y350210D01*
Y350363D01*
Y350691D01*
Y351041D01*
Y351063D01*
Y351106D01*
Y351259D01*
Y351434D01*
Y351478D01*
Y351500D01*
X284713D01*
Y351434D01*
D02*
G37*
G36*
X285238Y345245D02*
X281279Y341156D01*
X281454Y339340D01*
X281695Y336825D01*
X281804Y335775D01*
X285500Y331926D01*
X285238Y331664D01*
X281848Y335185D01*
X281935Y334332D01*
X282504D01*
Y333654D01*
X281979D01*
X282001Y333501D01*
X281957Y333414D01*
X281913Y333348D01*
X281826Y333260D01*
X281695Y333151D01*
X281563Y333064D01*
X281410Y332976D01*
X281257Y332910D01*
X281148Y332845D01*
Y332429D01*
X280251D01*
Y332604D01*
X279967Y332561D01*
X279683Y332517D01*
X279420Y332495D01*
X279245D01*
Y332211D01*
X277146D01*
Y332539D01*
X276883Y332561D01*
X276555Y332626D01*
X276249Y332692D01*
X275943Y332779D01*
X275658Y332889D01*
X275462Y332976D01*
X275309Y333085D01*
X275199Y333173D01*
X275155Y333107D01*
X275046Y333042D01*
X274915Y332998D01*
X274762Y332976D01*
X274609Y332998D01*
X274456Y333064D01*
X274346Y333151D01*
X274259Y333304D01*
X274215Y333392D01*
X274193Y333523D01*
X274215Y333632D01*
X274237Y333720D01*
X274281Y333829D01*
X274346Y333895D01*
X274412Y333960D01*
X274478Y334004D01*
X274521Y334048D01*
Y334245D01*
X272028Y331664D01*
X271744Y331926D01*
X274412Y334660D01*
X274128D01*
Y336125D01*
X275177D01*
X275374Y338422D01*
X275658Y341593D01*
X272159Y345223D01*
X272422Y345508D01*
X275702Y342118D01*
X275724Y342315D01*
X275571Y342380D01*
X275396Y342490D01*
X275243Y342643D01*
X275134Y342796D01*
X275046Y342971D01*
X274980Y343146D01*
X274937Y343321D01*
X274915Y343539D01*
X274937Y343736D01*
X275002Y343955D01*
X275112Y344195D01*
X275265Y344414D01*
X275418Y344567D01*
X275615Y344698D01*
X275855Y344786D01*
X276052Y344851D01*
X276315D01*
X276577Y344830D01*
X276861Y344742D01*
X277102Y344567D01*
X277277Y344370D01*
X277408Y344195D01*
X277496Y344021D01*
X280076D01*
Y344917D01*
X280907D01*
Y344021D01*
X281017D01*
X281235Y341680D01*
X284975Y345508D01*
X285238Y345245D01*
D02*
G37*
G36*
X306535Y367978D02*
X306688Y367934D01*
X306885Y367891D01*
X307082Y367803D01*
X307278Y367694D01*
X307475Y367541D01*
X307497Y367519D01*
X307541Y367475D01*
X307650Y367366D01*
X307672Y367344D01*
X307694Y367300D01*
X307781Y367147D01*
X307803Y367125D01*
X307825Y367060D01*
X307869Y366950D01*
X307934Y366797D01*
X307978Y366622D01*
X308000Y366425D01*
Y366207D01*
X307978Y365966D01*
Y365944D01*
X307956Y365879D01*
X307934Y365791D01*
X307912Y365725D01*
Y365704D01*
X307891Y365660D01*
X307847Y365594D01*
X307803Y365507D01*
Y365485D01*
Y365463D01*
X307781D01*
X301198Y354047D01*
Y354025D01*
X301155Y353981D01*
X301067Y353850D01*
X300892Y353653D01*
X300695Y353478D01*
X300652Y353456D01*
X300564Y353413D01*
X300542Y353391D01*
X300499Y353369D01*
X300411Y353325D01*
X300324Y353281D01*
X300192Y353238D01*
X300039Y353216D01*
X299886Y353172D01*
X299602D01*
X299471Y353194D01*
X299318Y353238D01*
X299143Y353281D01*
X298946Y353369D01*
X298771Y353478D01*
X298574Y353631D01*
X298552Y353653D01*
X298508Y353697D01*
X298399Y353806D01*
X298377Y353828D01*
X298355Y353872D01*
X298268Y354003D01*
X291663Y365441D01*
X291641Y365463D01*
X291619Y365529D01*
X291576Y365660D01*
X291510Y365813D01*
X291466Y365988D01*
X291444Y366207D01*
Y366425D01*
X291466Y366666D01*
Y366688D01*
X291488Y366732D01*
X291510Y366819D01*
X291532Y366906D01*
Y366928D01*
X291554Y366972D01*
X291598Y367038D01*
X291641Y367147D01*
X291663D01*
X291685Y367169D01*
X291729Y367234D01*
X291794Y367344D01*
X291904Y367453D01*
X292035Y367584D01*
X292188Y367716D01*
X292385Y367825D01*
X292603Y367913D01*
X292625D01*
X292691Y367934D01*
X292778Y367956D01*
X292866D01*
X292888Y367978D01*
X292975D01*
X293085Y368000D01*
X306403D01*
X306535Y367978D01*
D02*
G37*
G36*
X304891Y350245D02*
X305183Y350135D01*
X305511Y349953D01*
X305548Y349917D01*
X305620Y349844D01*
X305730Y349734D01*
X305876Y349552D01*
X306021Y349370D01*
X306131Y349115D01*
X306204Y348860D01*
X306240Y348568D01*
Y348532D01*
Y348459D01*
X306204Y348276D01*
X306131Y348058D01*
X306021Y347766D01*
X305839Y347402D01*
X305620Y347001D01*
X305329Y346491D01*
X300372D01*
Y350281D01*
X304673D01*
X304891Y350245D01*
D02*
G37*
G36*
X298914Y348459D02*
X297273Y346491D01*
X297091Y346819D01*
X296799D01*
X296654Y346855D01*
X295925D01*
X295560Y346891D01*
X294321D01*
X293774Y346928D01*
X291915D01*
X291952Y347001D01*
X291988Y347110D01*
X292025Y347256D01*
X292134Y347475D01*
X292243Y347730D01*
X292426Y348058D01*
X292608Y348459D01*
Y348495D01*
X292644Y348568D01*
X292717Y348677D01*
X292790Y348823D01*
X292972Y349151D01*
X293118Y349479D01*
Y349516D01*
X293191Y349589D01*
X293264Y349662D01*
X293373Y349808D01*
X293555Y349917D01*
X293738Y350063D01*
X293993Y350172D01*
X294285Y350245D01*
X294394D01*
X294503Y350281D01*
X297128D01*
X297237Y350318D01*
X297565Y350500D01*
X298914Y348459D01*
D02*
G37*
G36*
X306641Y348204D02*
X306678Y348131D01*
X306787Y348021D01*
X306896Y347839D01*
X307042Y347657D01*
X307224Y347402D01*
X307589Y346855D01*
X307625Y346782D01*
X307734Y346636D01*
X307880Y346381D01*
X308026Y346053D01*
X308208Y345725D01*
X308354Y345397D01*
X308464Y345105D01*
X308500Y344850D01*
Y344777D01*
X308464Y344704D01*
X308427Y344559D01*
X308354Y344376D01*
X308245Y344158D01*
X308099Y343866D01*
X307917Y343538D01*
X307880Y343502D01*
X307807Y343356D01*
X307698Y343137D01*
X307552Y342882D01*
X307261Y342408D01*
X307151Y342189D01*
X307079Y342044D01*
Y341606D01*
X304527Y341460D01*
X303579Y343793D01*
X303944D01*
X303980Y343830D01*
X304053Y343939D01*
X304126Y344085D01*
X304235Y344267D01*
X304490Y344668D01*
X304600Y344814D01*
X304673Y344960D01*
Y344996D01*
X304709Y345033D01*
X304782Y345142D01*
X304891Y345288D01*
X305110Y345652D01*
X305365Y346126D01*
X305693Y346636D01*
X306021Y347183D01*
X306313Y347730D01*
X306605Y348240D01*
X306641Y348204D01*
D02*
G37*
G36*
X293337Y346600D02*
X293993D01*
X296399Y342189D01*
X293227Y340403D01*
X291186Y344303D01*
Y344340D01*
X291150Y344376D01*
X291004Y344595D01*
X290895Y344850D01*
X290858Y345069D01*
Y345105D01*
X290895Y345251D01*
X290967Y345470D01*
X291113Y345798D01*
Y345834D01*
X291186Y345944D01*
X291296Y346053D01*
X291441Y346199D01*
X291660Y346381D01*
X291952Y346491D01*
X292316Y346600D01*
X292754Y346636D01*
X293082D01*
X293337Y346600D01*
D02*
G37*
G36*
X305329Y338945D02*
X302850Y335446D01*
X302814Y335410D01*
X302777Y335337D01*
X302668Y335227D01*
X302522Y335082D01*
X302304Y334972D01*
X302048Y334863D01*
X301757Y334790D01*
X301429Y334754D01*
X301283D01*
X301137Y334790D01*
X300955Y334826D01*
X300736Y334936D01*
X300518Y335045D01*
X300299Y335227D01*
X300080Y335446D01*
X300044Y335519D01*
X299971Y335628D01*
X299898Y335774D01*
X299788Y335956D01*
X299679Y336212D01*
X299570Y336503D01*
X299424Y336868D01*
X302158Y340950D01*
X305329Y338945D01*
D02*
G37*
G36*
X298075Y339820D02*
X297893Y339528D01*
X300080Y334754D01*
X297237D01*
X297091Y334826D01*
X296909Y334863D01*
X296654Y334972D01*
X296435Y335082D01*
X296216Y335191D01*
X296071Y335337D01*
X295961Y335483D01*
X295925Y335556D01*
X295815Y335738D01*
X295670Y335993D01*
X295451Y336357D01*
X295269Y336758D01*
X295050Y337159D01*
X294831Y337597D01*
X294649Y337998D01*
X294321Y338180D01*
X295524Y340403D01*
X298075Y339820D01*
D02*
G37*
%LPC*%
G36*
X286209Y367685D02*
X284809D01*
X284547Y367642D01*
X284240Y367598D01*
X283934Y367467D01*
X283891Y367423D01*
X283803Y367292D01*
X283716Y367073D01*
X283672Y366723D01*
Y366679D01*
Y366592D01*
X283716Y366461D01*
X283759Y366286D01*
Y366242D01*
X283803Y366198D01*
X284022Y365980D01*
X284066D01*
X284109Y365936D01*
X284372Y365892D01*
X284415D01*
X284503Y365848D01*
X284678Y365805D01*
X286209D01*
Y367685D01*
D02*
G37*
G36*
X280960Y370004D02*
X280872D01*
X280654Y369960D01*
X280348Y369829D01*
X280129Y369610D01*
X280085Y369522D01*
X279954Y369304D01*
X279823Y368954D01*
X279779Y368516D01*
Y368473D01*
Y368385D01*
X279823Y368079D01*
X279910Y367729D01*
X280129Y367423D01*
X280173Y367379D01*
X280348Y367204D01*
X280610Y367073D01*
X280960Y367029D01*
X281047D01*
X281266Y367073D01*
X281572Y367204D01*
X281835Y367423D01*
X281878Y367510D01*
X281966Y367685D01*
X282097Y368035D01*
X282141Y368516D01*
Y368560D01*
Y368648D01*
X282097Y368910D01*
X282010Y369260D01*
X281835Y369610D01*
X281791Y369654D01*
X281616Y369785D01*
X281354Y369960D01*
X280960Y370004D01*
D02*
G37*
G36*
X280536Y344545D02*
X280448D01*
Y344021D01*
X280536D01*
Y344545D01*
D02*
G37*
G36*
X276271Y344174D02*
X276249D01*
X276162Y344152D01*
X276052Y344130D01*
X275943Y344086D01*
X275812Y344021D01*
X275724Y343889D01*
X275637Y343736D01*
X275615Y343517D01*
Y343496D01*
Y343408D01*
X275658Y343299D01*
X275702Y343189D01*
X275768Y343058D01*
X275899Y342971D01*
X276052Y342883D01*
X276271Y342861D01*
X276380D01*
X276468Y342905D01*
X276599Y342949D01*
X276708Y343014D01*
X276818Y343146D01*
X276905Y343299D01*
X276927Y343517D01*
Y343539D01*
X276905Y343627D01*
X276883Y343714D01*
X276839Y343846D01*
X276774Y343955D01*
X276643Y344064D01*
X276490Y344152D01*
X276271Y344174D01*
D02*
G37*
G36*
X280667Y343627D02*
X277583D01*
X277605Y343430D01*
X277539Y343146D01*
X277430Y342883D01*
X277277Y342665D01*
X277124Y342511D01*
X276949Y342380D01*
X276708Y342271D01*
X276468Y342205D01*
X276271Y342183D01*
X276096Y342205D01*
X276052Y341724D01*
X278655Y339034D01*
X280885Y341331D01*
X280667Y343627D01*
D02*
G37*
G36*
X278917Y336803D02*
X276949D01*
Y336672D01*
X278917D01*
Y336803D01*
D02*
G37*
G36*
X280929Y340827D02*
X278917Y338750D01*
X281367Y336213D01*
X280929Y340827D01*
D02*
G37*
G36*
X276008Y341221D02*
X275571Y336125D01*
X275615D01*
Y335907D01*
X276533Y336847D01*
Y337175D01*
X276861D01*
X278392Y338750D01*
X276008Y341221D01*
D02*
G37*
G36*
X275243Y335754D02*
X274521D01*
Y335032D01*
X275243D01*
Y335754D01*
D02*
G37*
G36*
X278655Y338487D02*
X277386Y337175D01*
X279289D01*
Y336300D01*
X276533D01*
X275615Y335360D01*
Y334660D01*
X275462D01*
X275418Y334332D01*
X281541D01*
X281432Y335600D01*
X278655Y338487D01*
D02*
G37*
G36*
X274784Y333720D02*
X274762D01*
X274674Y333698D01*
X274609Y333654D01*
X274587Y333545D01*
Y333523D01*
X274609Y333435D01*
X274674Y333370D01*
X274784Y333348D01*
X274806D01*
X274871Y333370D01*
X274937Y333435D01*
X274959Y333545D01*
Y333567D01*
X274937Y333632D01*
X274893Y333698D01*
X274784Y333720D01*
D02*
G37*
G36*
X281607Y333654D02*
X281148D01*
Y333282D01*
X281367Y333392D01*
X281498Y333479D01*
X281607Y333589D01*
Y333654D01*
D02*
G37*
G36*
X280251D02*
X275374D01*
Y333567D01*
X275527Y333414D01*
X275724Y333304D01*
X275987Y333173D01*
X276315Y333085D01*
X276708Y332998D01*
X277146Y332932D01*
Y333173D01*
X279245D01*
Y332889D01*
X279617Y332910D01*
X279945Y332954D01*
X280251Y333020D01*
Y333654D01*
D02*
G37*
G36*
X280776Y333304D02*
X280623D01*
Y332801D01*
X280776D01*
Y333304D01*
D02*
G37*
G36*
X278852Y332801D02*
X277518D01*
Y332582D01*
X278852D01*
Y332801D01*
D02*
G37*
%LPD*%
G36*
X276490Y343889D02*
X276577Y343846D01*
X276643Y343780D01*
X276686Y343671D01*
X276708Y343517D01*
Y343496D01*
Y343452D01*
X276643Y343299D01*
X276599Y343211D01*
X276533Y343146D01*
X276424Y343102D01*
X276271Y343080D01*
X276205D01*
X276052Y343124D01*
X275965Y343189D01*
X275899Y343255D01*
X275855Y343364D01*
X275834Y343517D01*
Y343539D01*
Y343583D01*
X275877Y343736D01*
X275943Y343824D01*
X276008Y343889D01*
X276118Y343933D01*
X276271Y343955D01*
X276337D01*
X276490Y343889D01*
D02*
G37*
%LPC*%
G36*
X276271Y343583D02*
X276227D01*
X276205Y343561D01*
Y343517D01*
Y343496D01*
Y343474D01*
X276227Y343452D01*
X276293D01*
X276315Y343474D01*
X276337Y343517D01*
Y343539D01*
X276315Y343561D01*
X276271Y343583D01*
D02*
G37*
G36*
X300827Y365201D02*
X300824Y365176D01*
X300827Y365179D01*
Y365201D01*
D02*
G37*
G36*
X301942Y365966D02*
X301854D01*
X301833Y365944D01*
Y365922D01*
Y365879D01*
Y365857D01*
X301811Y365835D01*
Y365769D01*
Y365747D01*
Y365725D01*
Y365704D01*
X301833Y365682D01*
Y365660D01*
X301854Y365616D01*
X301920Y365485D01*
Y365463D01*
X301942Y365441D01*
X301964Y365419D01*
X301986Y365376D01*
Y365354D01*
X302008Y365332D01*
X302095Y365244D01*
X302226Y365157D01*
X302292Y365113D01*
X302401D01*
X302467Y365135D01*
X302489D01*
X302467Y365223D01*
Y365244D01*
X302445Y365288D01*
X302401Y365376D01*
X302379Y365463D01*
X302292Y365660D01*
X302248Y365747D01*
X302204Y365813D01*
X302183Y365835D01*
X302139Y365879D01*
X302051Y365922D01*
X301942Y365966D01*
D02*
G37*
G36*
X299143Y365572D02*
X299055D01*
X298990Y365551D01*
X298924Y365507D01*
X298902D01*
X298880Y365485D01*
Y365441D01*
X298858Y365419D01*
Y365376D01*
Y365354D01*
Y365288D01*
Y365201D01*
X298924Y365091D01*
X298946D01*
X298968Y365069D01*
X299011D01*
X299033Y365048D01*
X299055D01*
X299099Y365026D01*
X299165Y365004D01*
X299208Y364982D01*
Y365004D01*
X299230Y365091D01*
Y365113D01*
X299274Y365201D01*
X299318Y365332D01*
X299405Y365485D01*
X299383Y365507D01*
X299340Y365529D01*
X299252Y365551D01*
X299143Y365572D01*
D02*
G37*
G36*
X300499Y365922D02*
X300236D01*
X300149Y365879D01*
X300105Y365857D01*
X300061Y365835D01*
X299996Y365791D01*
X299974Y365769D01*
X299908Y365704D01*
X299821Y365616D01*
X299689Y365441D01*
Y365419D01*
X299668Y365398D01*
X299580Y365288D01*
X299514Y365157D01*
X299471Y365026D01*
X299493Y365004D01*
X299536Y364982D01*
X299646Y364960D01*
X299777Y364916D01*
X299843D01*
X299974Y364938D01*
X300061D01*
X300170Y364960D01*
X300258Y364982D01*
X300345D01*
X300367Y365004D01*
X300411D01*
X300433Y365026D01*
X300499Y365048D01*
X300586Y365113D01*
X300674Y365179D01*
X300695Y365223D01*
X300739Y365288D01*
X300783Y365398D01*
X300805Y365419D01*
X300827Y365529D01*
Y365572D01*
X300783Y365660D01*
X300739Y365769D01*
X300674Y365857D01*
X300630Y365879D01*
X300586Y365900D01*
X300499Y365922D01*
D02*
G37*
G36*
X300824Y365176D02*
X300805Y365157D01*
X300783Y365113D01*
X300761Y365091D01*
X300739Y365069D01*
X300674Y365026D01*
X300564Y364960D01*
X300433Y364895D01*
X300411D01*
X300389Y364873D01*
X300324D01*
X300302Y364851D01*
X300280D01*
X300236Y364829D01*
X300192D01*
X300061Y364807D01*
X299755D01*
X299733Y364829D01*
X299646Y364851D01*
X299580D01*
X299449Y364895D01*
Y364873D01*
X299427Y364851D01*
X299405Y364785D01*
Y364763D01*
X299383Y364741D01*
X299361Y364654D01*
X299318Y364566D01*
Y364545D01*
X299296Y364523D01*
X299230Y364435D01*
X299121Y364304D01*
X298990Y364173D01*
X298968D01*
X298924Y364129D01*
X298836Y364063D01*
X298705Y363976D01*
X298683D01*
X298661Y363954D01*
X298552Y363867D01*
X298443Y363779D01*
X298334Y363692D01*
X299230Y363167D01*
X299274Y363189D01*
X299383Y363276D01*
X299536Y363407D01*
X299755Y363560D01*
X299777D01*
X299799Y363604D01*
X299930Y363714D01*
X300105Y363867D01*
X300280Y364063D01*
X300302Y364085D01*
X300367Y364173D01*
X300455Y364282D01*
X300542Y364435D01*
X300652Y364610D01*
X300739Y364807D01*
X300805Y365004D01*
X300824Y365176D01*
D02*
G37*
G36*
X298530Y364895D02*
X298421D01*
X298334Y364873D01*
X298268Y364829D01*
Y364807D01*
Y364785D01*
X298246Y364720D01*
X298224Y364654D01*
Y364610D01*
Y364588D01*
Y364566D01*
Y364523D01*
X298268Y364479D01*
Y364457D01*
X298290D01*
Y364435D01*
Y364413D01*
X298334Y364391D01*
X298399Y364304D01*
X298508Y364216D01*
X298552Y364173D01*
X298574D01*
X298596Y364195D01*
X298683Y364238D01*
X298771Y364304D01*
X298836Y364348D01*
X298858Y364370D01*
X298924Y364435D01*
X299011Y364545D01*
X299099Y364676D01*
Y364698D01*
X299121Y364720D01*
Y364741D01*
X299099D01*
X299077Y364763D01*
X298968Y364829D01*
X298924D01*
X298836Y364851D01*
X298705Y364873D01*
X298530Y364895D01*
D02*
G37*
G36*
X299886Y363364D02*
X299864D01*
X299843Y363320D01*
X299733Y363254D01*
X299602Y363145D01*
X299471Y363035D01*
X300061Y362707D01*
Y362729D01*
Y362773D01*
X300083Y362817D01*
Y362861D01*
Y362882D01*
Y362926D01*
X300039Y363057D01*
Y363079D01*
X300017Y363123D01*
X299996Y363145D01*
X299974Y363211D01*
X299930Y363298D01*
X299886Y363364D01*
D02*
G37*
G36*
X300542Y363998D02*
Y363976D01*
X300520Y363954D01*
X300499Y363932D01*
X300477Y363910D01*
X300433Y363867D01*
X300345Y363779D01*
X300214Y363648D01*
X300061Y363517D01*
X300083Y363495D01*
X300105Y363451D01*
X300170Y363342D01*
X300236Y363211D01*
X300258Y363167D01*
Y363145D01*
X300280Y363079D01*
X300302Y362992D01*
X300324Y362882D01*
Y362861D01*
Y362795D01*
X300302Y362686D01*
X300280Y362576D01*
X300695Y362336D01*
Y362357D01*
X300739Y362379D01*
X300805Y362511D01*
Y362532D01*
Y362576D01*
X300827Y362664D01*
Y362751D01*
Y362773D01*
Y362817D01*
Y362948D01*
Y363079D01*
Y363123D01*
Y363145D01*
Y363189D01*
Y363276D01*
X300805Y363385D01*
X300783Y363495D01*
Y363517D01*
X300761Y363582D01*
X300739Y363626D01*
X300717Y363670D01*
Y363692D01*
X300674Y363757D01*
X300630Y363867D01*
X300542Y363998D01*
D02*
G37*
G36*
X300958Y364632D02*
X300936Y364588D01*
X300892Y364501D01*
X300827Y364370D01*
X300717Y364195D01*
X300739Y364151D01*
X300783Y364063D01*
X300870Y363932D01*
X300936Y363779D01*
Y363757D01*
X300958Y363714D01*
X300980Y363670D01*
X301002D01*
Y363648D01*
Y363626D01*
X301024Y363560D01*
Y363539D01*
Y363517D01*
X301045Y363451D01*
X301067Y363320D01*
Y363145D01*
Y363123D01*
Y363079D01*
Y362970D01*
Y362948D01*
Y362904D01*
Y362751D01*
Y362729D01*
Y362642D01*
Y362554D01*
X301045Y362445D01*
Y362423D01*
X301002Y362357D01*
X300914Y362204D01*
X301286Y362008D01*
Y362030D01*
X301308Y362117D01*
X301373Y362248D01*
X301483Y362423D01*
X301505Y362445D01*
X301548Y362532D01*
X301614Y362642D01*
X301636Y362729D01*
Y362751D01*
Y362839D01*
X301614Y362970D01*
X301592Y363079D01*
X301548Y363211D01*
Y363232D01*
X301526Y363276D01*
X301505Y363342D01*
X301483Y363429D01*
X301439Y363626D01*
Y363692D01*
Y363757D01*
Y363801D01*
X301461Y363888D01*
X301483Y364041D01*
Y364216D01*
Y364260D01*
X301461Y364282D01*
X301439D01*
X301417Y364304D01*
X301373Y364326D01*
X301330Y364370D01*
X301308D01*
X301286Y364391D01*
X301242Y364435D01*
X301220Y364457D01*
X301177Y364501D01*
X301089Y364545D01*
X301067D01*
X301045Y364588D01*
X300958Y364632D01*
D02*
G37*
G36*
X301701Y365879D02*
X301680Y365857D01*
X301636Y365835D01*
X301614Y365813D01*
X301548Y365725D01*
X301483Y365616D01*
X301439Y365463D01*
Y365419D01*
Y365376D01*
X301461Y365310D01*
Y365201D01*
X301505Y365048D01*
X301548Y364873D01*
X301614Y364654D01*
X301636Y364632D01*
Y364588D01*
X301658Y364501D01*
X301680Y364479D01*
Y364435D01*
X301701Y364370D01*
Y364348D01*
X301723Y364304D01*
Y364282D01*
Y364216D01*
Y364195D01*
Y364173D01*
Y364041D01*
Y363888D01*
X301680Y363692D01*
Y363670D01*
Y363626D01*
X301701Y363495D01*
X301723Y363407D01*
X301767Y363298D01*
Y363276D01*
X301789Y363232D01*
X301811Y363145D01*
X301833Y363057D01*
X301876Y362861D01*
X301898Y362751D01*
Y362686D01*
Y362664D01*
X301854Y362576D01*
X301789Y362445D01*
X301680Y362292D01*
Y362270D01*
X301658Y362248D01*
X301592Y362139D01*
X301526Y361986D01*
X301505Y361855D01*
X302751Y361133D01*
Y361155D01*
Y361177D01*
X302795Y361308D01*
X302861Y361526D01*
X302992Y361789D01*
Y361811D01*
X303014Y361833D01*
X303079Y361964D01*
X303123Y362117D01*
X303167Y362226D01*
Y362270D01*
X303189Y362314D01*
Y362379D01*
X303167Y362489D01*
Y362598D01*
X303123Y362751D01*
X303079Y362926D01*
Y362948D01*
X303057Y363014D01*
X303035Y363079D01*
X303014Y363145D01*
Y363167D01*
Y363211D01*
X302992Y363320D01*
X302948Y363517D01*
X302904Y363801D01*
Y363823D01*
Y363845D01*
X302882Y363998D01*
X302861Y364151D01*
X302817Y364326D01*
X302795Y364370D01*
X302773Y364457D01*
X302708Y364588D01*
X302642Y364741D01*
X302620Y364763D01*
X302598Y364851D01*
X302576Y364938D01*
X302533Y365026D01*
X302489D01*
X302467Y365004D01*
X302336D01*
X302204Y365048D01*
X302117Y365091D01*
X302029Y365135D01*
X301964Y365223D01*
X301876Y365332D01*
X301854Y365376D01*
X301811Y365419D01*
X301789Y365441D01*
X301767Y365485D01*
X301701Y365638D01*
Y365682D01*
Y365769D01*
Y365791D01*
Y365813D01*
Y365857D01*
Y365879D01*
D02*
G37*
G36*
X292538Y366207D02*
Y366163D01*
Y366075D01*
Y366054D01*
Y365988D01*
Y365944D01*
X292560Y365857D01*
X292603Y365747D01*
X292669Y365616D01*
Y365594D01*
X295272Y361067D01*
X295293D01*
X295315Y361111D01*
X295403Y361177D01*
X295425Y361198D01*
X295468Y361264D01*
X295556Y361351D01*
X295643Y361505D01*
X295665Y361526D01*
X295687Y361592D01*
X295753Y361723D01*
X295818Y361920D01*
Y361942D01*
X295840Y361964D01*
X295884Y362095D01*
X295950Y362248D01*
X296037Y362379D01*
Y362401D01*
X296081Y362445D01*
X296168Y362554D01*
X296190Y362576D01*
X296234Y362620D01*
X296343Y362751D01*
X296365Y362773D01*
X296431Y362839D01*
X296540Y362926D01*
X296650Y363035D01*
X296956Y363254D01*
X297131Y363364D01*
X297284Y363451D01*
X292538Y366207D01*
D02*
G37*
G36*
X305988Y366994D02*
X293435D01*
Y366972D01*
X293282D01*
X293238Y366950D01*
X293150D01*
X293085Y366906D01*
X292932Y366819D01*
X298115Y363823D01*
X298137Y363845D01*
X298180Y363888D01*
X298268Y363954D01*
X298355Y364041D01*
X298334Y364063D01*
X298290Y364085D01*
X298202Y364173D01*
X298093Y364282D01*
X298071Y364304D01*
X298049Y364326D01*
X298005Y364391D01*
X297984Y364501D01*
X297962Y364610D01*
Y364632D01*
X297984Y364698D01*
X298005Y364785D01*
X298027Y364895D01*
X298049Y364916D01*
X298071Y364982D01*
X298093Y365004D01*
X298180Y365048D01*
X298312Y365113D01*
X298508Y365135D01*
X298618D01*
Y365157D01*
X298596Y365223D01*
Y365332D01*
X298618Y365441D01*
Y365463D01*
Y365485D01*
X298640Y365551D01*
X298661Y365594D01*
X298705Y365638D01*
X298727Y365660D01*
X298749Y365682D01*
X298771Y365704D01*
X298858Y365769D01*
X298990Y365813D01*
X299165Y365835D01*
X299208D01*
X299296Y365813D01*
X299427Y365769D01*
X299558Y365682D01*
X299580Y365704D01*
X299646Y365791D01*
X299733Y365900D01*
X299843Y365988D01*
X299864D01*
X299886Y366032D01*
X299952Y366054D01*
X300039Y366097D01*
X300061D01*
X300105Y366119D01*
X300258Y366163D01*
X300542D01*
X300630Y366141D01*
X300739Y366097D01*
X300827Y366032D01*
Y366010D01*
X300870Y365988D01*
X300914Y365922D01*
X300958Y365857D01*
X301002Y365747D01*
X301045Y365616D01*
X301067Y365485D01*
X301089Y365310D01*
Y365288D01*
Y365266D01*
Y365244D01*
Y365223D01*
Y365135D01*
X301067Y365026D01*
X301045Y364895D01*
X301067Y364873D01*
X301111Y364829D01*
X301220Y364763D01*
X301242Y364741D01*
X301264Y364720D01*
X301351Y364676D01*
Y364698D01*
X301330Y364763D01*
X301286Y364873D01*
X301264Y365004D01*
X301220Y365266D01*
X301198Y365398D01*
Y365485D01*
Y365507D01*
Y365529D01*
X301242Y365682D01*
X301330Y365857D01*
X301395Y365944D01*
X301483Y366032D01*
X301505Y366054D01*
X301548Y366075D01*
X301701Y366163D01*
X301723D01*
X301789Y366185D01*
X301876Y366207D01*
X302008D01*
X302095Y366163D01*
X302248Y366097D01*
X302379Y365966D01*
X302401Y365922D01*
X302445Y365879D01*
X302467Y365813D01*
X302533Y365725D01*
X302576Y365616D01*
X302642Y365463D01*
X302708Y365288D01*
Y365266D01*
Y365244D01*
X302729Y365223D01*
Y365201D01*
Y365179D01*
X302751Y365135D01*
X302795Y365026D01*
X302839Y364960D01*
X302882Y364851D01*
Y364829D01*
X302904Y364807D01*
X302948Y364676D01*
X302992Y364545D01*
X303035Y364413D01*
Y364391D01*
X303079Y364282D01*
X303101Y364195D01*
Y364107D01*
X303123Y363976D01*
X303145Y363823D01*
Y363801D01*
Y363757D01*
X303167Y363692D01*
X303189Y363604D01*
X303210Y363407D01*
X303254Y363232D01*
Y363211D01*
Y363189D01*
X303276Y363167D01*
X303298Y363079D01*
X303320Y362992D01*
Y362970D01*
X303342Y362904D01*
X303364Y362795D01*
X303385Y362664D01*
X303429Y362401D01*
Y362270D01*
X303407Y362161D01*
Y362139D01*
X303364Y362051D01*
X303298Y361898D01*
X303210Y361701D01*
Y361680D01*
X303189Y361636D01*
X303145Y361548D01*
X303101Y361461D01*
X303035Y361220D01*
X302992Y361002D01*
X303845Y360521D01*
X306797Y365616D01*
Y365638D01*
Y365660D01*
X306819Y365682D01*
X306841Y365769D01*
X306863Y365791D01*
X306885Y365900D01*
Y365922D01*
Y365966D01*
X306907Y366032D01*
Y366119D01*
X306885Y366316D01*
X306797Y366535D01*
X306775D01*
X306753Y366579D01*
X306710Y366644D01*
X306688Y366666D01*
X306622Y366753D01*
X306600D01*
X306578Y366797D01*
X306447Y366863D01*
X306250Y366950D01*
X306119Y366972D01*
X305988Y366994D01*
D02*
G37*
G36*
X297568Y363298D02*
X297546D01*
X297481Y363276D01*
X297393Y363232D01*
X297262Y363167D01*
X297109Y363079D01*
X296934Y362948D01*
X296737Y362773D01*
X296518Y362576D01*
X296496Y362554D01*
X296475Y362532D01*
X296365Y362401D01*
X296343Y362379D01*
X296321Y362357D01*
X296234Y362248D01*
X296212Y362226D01*
X296190Y362161D01*
X296125Y362030D01*
X296037Y361833D01*
Y361811D01*
X296015Y361789D01*
X295971Y361658D01*
X295928Y361526D01*
X295862Y361373D01*
X295840Y361330D01*
X295775Y361242D01*
X295687Y361133D01*
X295578Y361002D01*
X295556Y360980D01*
X295512Y360958D01*
X295403Y360870D01*
X296671Y358683D01*
X297437Y358990D01*
X297459D01*
X297502Y359011D01*
X297568Y359033D01*
X297656Y359077D01*
X297874Y359121D01*
X298137Y359165D01*
X298377D01*
X298596Y359143D01*
X298880Y359121D01*
X299558D01*
X299886Y359165D01*
X300214Y359230D01*
X300236D01*
X300280Y359252D01*
X300367Y359296D01*
X300499Y359361D01*
X300630Y359427D01*
X300805Y359514D01*
X300980Y359646D01*
X301177Y359777D01*
X301198Y359799D01*
X301264Y359821D01*
X301351Y359886D01*
X301505Y359996D01*
X301548Y360017D01*
X301614Y360039D01*
X301701Y360105D01*
X301723Y360127D01*
X301811Y360171D01*
X301920Y360258D01*
X302051Y360346D01*
X302073Y360367D01*
X302139Y360411D01*
X302204Y360477D01*
X302292Y360564D01*
X297568Y363298D01*
D02*
G37*
G36*
X302511Y360433D02*
X302489Y360411D01*
X302445Y360346D01*
X302336Y360258D01*
X302204Y360149D01*
X302183Y360127D01*
X302095Y360083D01*
X301986Y359996D01*
X301833Y359908D01*
X301811Y359886D01*
X301745Y359842D01*
X301723D01*
X301701Y359821D01*
X301636Y359777D01*
X301614D01*
X301592Y359755D01*
X301505Y359689D01*
X301395Y359624D01*
X301330Y359580D01*
X301308Y359558D01*
X301242Y359514D01*
X301133Y359449D01*
X300980Y359361D01*
X300652Y359165D01*
X300477Y359077D01*
X300302Y359011D01*
X300280D01*
X300214Y358990D01*
X300105Y358946D01*
X299974Y358924D01*
X299821Y358902D01*
X299624Y358880D01*
X299405Y358858D01*
X299143D01*
X299033Y358880D01*
X298640D01*
X298443Y358902D01*
X298049D01*
X297962Y358880D01*
X297765Y358837D01*
X297524Y358771D01*
X296781Y358465D01*
X298924Y354747D01*
X298946D01*
X298968Y354725D01*
X299011Y354637D01*
Y354616D01*
X299055Y354594D01*
X299099Y354550D01*
X299121Y354528D01*
X299143Y354506D01*
X299274Y354419D01*
X299471Y354353D01*
X299580Y354309D01*
X299711D01*
Y354288D01*
X299755D01*
X299864Y354309D01*
X300017Y354331D01*
X300192Y354419D01*
X300214Y354441D01*
X300236Y354463D01*
X300258D01*
X300280Y354484D01*
X300345Y354550D01*
X300433Y354637D01*
X300520Y354769D01*
X303473Y359886D01*
X302511Y360433D01*
D02*
G37*
%LPD*%
D10*
X220657Y259425D02*
X220213Y260349D01*
X219214Y260577D01*
X218412Y259938D01*
Y258913D01*
X219214Y258274D01*
X220213Y258502D01*
X220657Y259425D01*
X255516Y316709D02*
X255071Y317632D01*
X254072Y317860D01*
X253271Y317221D01*
Y316196D01*
X254072Y315557D01*
X255071Y315785D01*
X255516Y316709D01*
X192228Y169453D02*
X191784Y170376D01*
X190784Y170604D01*
X189983Y169965D01*
Y168940D01*
X190784Y168301D01*
X191784Y168529D01*
X192228Y169453D01*
X260335Y280102D02*
X259890Y281026D01*
X258891Y281254D01*
X258089Y280615D01*
Y279590D01*
X258891Y278951D01*
X259890Y279179D01*
X260335Y280102D01*
X265335Y171602D02*
X264890Y172526D01*
X263891Y172754D01*
X263089Y172115D01*
Y171090D01*
X263891Y170451D01*
X264890Y170679D01*
X265335Y171602D01*
X259784Y122846D02*
X259339Y123770D01*
X258340Y123998D01*
X257538Y123359D01*
Y122334D01*
X258340Y121695D01*
X259339Y121923D01*
X259784Y122846D01*
X108528Y252898D02*
X108083Y253821D01*
X107084Y254049D01*
X106282Y253410D01*
Y252385D01*
X107084Y251746D01*
X108083Y251974D01*
X108528Y252898D01*
X127527Y94898D02*
X127083Y95821D01*
X126084Y96049D01*
X125282Y95410D01*
Y94385D01*
X126084Y93746D01*
X127083Y93974D01*
X127527Y94898D01*
D11*
X227285Y255925D02*
X226668D01*
X227285D01*
X245969Y321945D02*
X245230Y322371D01*
Y321519D01*
X245969Y321945D01*
X200299Y165122D02*
X199561Y165548D01*
Y164696D01*
X200299Y165122D01*
X272799Y214315D02*
X272061Y214741D01*
Y213889D01*
X272799Y214315D01*
X273299Y189315D02*
X272561Y189741D01*
Y188889D01*
X273299Y189315D01*
X285799Y108315D02*
X285061Y108741D01*
Y107889D01*
X285799Y108315D01*
X116382Y227169D02*
X115644Y227595D01*
Y226743D01*
X116382Y227169D01*
X219807Y156193D02*
X219069Y156619D01*
Y155767D01*
X219807Y156193D01*
X109185Y302685D02*
X108447Y303111D01*
Y302259D01*
X109185Y302685D01*
X272799Y238315D02*
X272061Y238741D01*
Y237889D01*
X272799Y238315D01*
X250984Y286008D02*
X250246Y286434D01*
Y285582D01*
X250984Y286008D01*
X255984Y177508D02*
X255246Y177934D01*
Y177082D01*
X255984Y177508D01*
X265000Y131508D02*
X264262Y131934D01*
Y131082D01*
X265000Y131508D01*
X116500Y246992D02*
X115762Y247418D01*
Y246566D01*
X116500Y246992D01*
X135500Y88992D02*
X134762Y89418D01*
Y88566D01*
X135500Y88992D01*
X186263Y232229D02*
X185525Y232655D01*
Y231803D01*
X186263Y232229D01*
D12*
X112937Y219984D02*
X112393Y220733D01*
X111513Y220447D01*
Y219521D01*
X112393Y219235D01*
X112937Y219984D01*
D13*
X382858Y183473D02*
D03*
Y255211D02*
D03*
X9358Y289603D02*
D03*
X382858Y106059D02*
D03*
Y232343D02*
D03*
X218256Y63838D02*
D03*
X69257Y7662D02*
D03*
X90596D02*
D03*
X309486Y7162D02*
D03*
X383358Y281059D02*
D03*
X282856Y7162D02*
D03*
X8091Y131841D02*
D03*
X335356Y7662D02*
D03*
X111496Y7162D02*
D03*
X132486D02*
D03*
X7359Y106059D02*
D03*
X361637Y7162D02*
D03*
X8359Y315603D02*
D03*
X196256Y63838D02*
D03*
X8858Y209841D02*
D03*
X46594Y7662D02*
D03*
X382858Y130603D02*
D03*
X8858Y186232D02*
D03*
Y247841D02*
D03*
Y229233D02*
D03*
X382858Y157341D02*
D03*
Y209299D02*
D03*
X8359Y160341D02*
D03*
X156299Y63338D02*
D03*
X176038Y63838D02*
D03*
X9358Y267341D02*
D03*
X146038Y381838D02*
D03*
X189538Y382338D02*
D03*
X231038D02*
D03*
D14*
X222925Y255327D02*
Y295524D01*
X204028D02*
X222925D01*
X204028Y255327D02*
Y295524D01*
Y255327D02*
X222925D01*
X250398Y301354D02*
X262602D01*
X250398Y320646D02*
X262602D01*
Y301354D02*
Y320646D01*
X250398Y301354D02*
Y320646D01*
X101272Y341535D02*
Y387272D01*
X37728Y341535D02*
Y387272D01*
X101272D01*
X37728Y341535D02*
X101272D01*
X325728Y332535D02*
X359272D01*
X325728D02*
Y388272D01*
X359272D01*
Y332535D02*
Y388272D01*
X143016Y217484D02*
X194984D01*
X143016Y165516D02*
X194984D01*
X143016D02*
Y217484D01*
X194984Y165516D02*
Y217484D01*
X264531Y215398D02*
X268468D01*
X264531Y227602D02*
X268468D01*
Y215398D02*
Y227602D01*
X264531Y215398D02*
Y227602D01*
X265032Y190398D02*
X268969D01*
X265032Y202602D02*
X268969D01*
Y190398D02*
Y202602D01*
X265032Y190398D02*
Y202602D01*
X277532Y109398D02*
X281469D01*
X277532Y121602D02*
X281469D01*
Y109398D02*
Y121602D01*
X277532Y109398D02*
Y121602D01*
X102701Y223134D02*
X115299D01*
X102701Y214866D02*
X115299D01*
Y223134D01*
X102701Y214866D02*
Y223134D01*
X220398Y160031D02*
Y163969D01*
X232602Y160031D02*
Y163969D01*
X220398Y160031D02*
X232602D01*
X220398Y163969D02*
X232602D01*
X112531Y301602D02*
X116469D01*
X112531Y289398D02*
X116469D01*
X112531D02*
Y301602D01*
X116469Y289398D02*
Y301602D01*
X264531Y239398D02*
X268468D01*
X264531Y251602D02*
X268468D01*
Y239398D02*
Y251602D01*
X264531Y239398D02*
Y251602D01*
X255217Y263961D02*
Y284039D01*
X269783Y263961D02*
Y284039D01*
X255217D02*
X269783D01*
X255217Y263961D02*
X269783D01*
X260216Y155461D02*
Y175539D01*
X274783Y155461D02*
Y175539D01*
X260216D02*
X274783D01*
X260216Y155461D02*
X274783D01*
X242461Y126784D02*
X262539D01*
X242461Y112216D02*
X262539D01*
Y126784D01*
X242461Y112216D02*
Y126784D01*
X111284Y248961D02*
Y269039D01*
X96716Y248961D02*
Y269039D01*
Y248961D02*
X111284D01*
X96716Y269039D02*
X111284D01*
X130283Y90961D02*
Y111039D01*
X115717Y90961D02*
Y111039D01*
Y90961D02*
X130283D01*
X115717Y111039D02*
X130283D01*
X170409Y262118D02*
X171591D01*
X170409Y251882D02*
X171591D01*
X144532Y321850D02*
X148468D01*
X144532Y328150D02*
X148468D01*
X144532Y311850D02*
X148468D01*
X144532Y318150D02*
X148468D01*
X144535Y301850D02*
X148472D01*
X144535Y308150D02*
X148472D01*
X144532Y291850D02*
X148468D01*
X144532Y298150D02*
X148468D01*
X144535Y281850D02*
X148472D01*
X144535Y288150D02*
X148472D01*
X144532Y271850D02*
X148468D01*
X144532Y278150D02*
X148468D01*
X144532Y261850D02*
X148468D01*
X144532Y268150D02*
X148468D01*
X144532Y250350D02*
X148468D01*
X144532Y256650D02*
X148468D01*
X170409Y276118D02*
X171591D01*
X170409Y265882D02*
X171591D01*
X167535Y305350D02*
X171472D01*
X167535Y311650D02*
X171472D01*
X167535Y295350D02*
X171472D01*
X167535Y301650D02*
X171472D01*
X170299Y289618D02*
X171480D01*
X170299Y279382D02*
X171480D01*
X189122Y292606D02*
Y293394D01*
X191878Y292606D02*
Y293394D01*
X185378Y292756D02*
Y293543D01*
X182622Y292756D02*
Y293543D01*
X169973Y234943D02*
X177211Y227705D01*
X179129Y244055D02*
X186367Y236817D01*
D15*
X136492Y340697D02*
X139642Y337547D01*
X136492Y340697D02*
Y358020D01*
X139642Y361169D01*
X254209D01*
X257358Y358020D01*
Y340697D02*
Y358020D01*
X254209Y337547D02*
X257358Y340697D01*
X139642Y337547D02*
X254209D01*
X136492Y15106D02*
X139642Y11957D01*
X136492Y15106D02*
Y32429D01*
X139642Y35579D01*
X254209D01*
X257358Y32429D01*
Y15106D02*
Y32429D01*
X254209Y11957D02*
X257358Y15106D01*
X139642Y11957D02*
X254209D01*
D16*
X105947Y348998D02*
X104280Y348165D01*
X102614Y346499D01*
Y344833D01*
X103447Y344000D01*
X105113D01*
X105947Y344833D01*
Y345666D01*
X105113Y346499D01*
X102614D01*
X32335Y344000D02*
X34001D01*
X33168D01*
Y348998D01*
X32335Y348165D01*
X364665Y350000D02*
X362999D01*
X363832D01*
Y345002D01*
X364665Y345835D01*
X321054Y345002D02*
X324386D01*
Y347501D01*
X322720Y346668D01*
X321887D01*
X321054Y347501D01*
Y349167D01*
X321887Y350000D01*
X323553D01*
X324386Y349167D01*
X321054Y335002D02*
X322720Y335835D01*
X324386Y337501D01*
Y339167D01*
X323553Y340000D01*
X321887D01*
X321054Y339167D01*
Y338334D01*
X321887Y337501D01*
X324386D01*
X361333Y340000D02*
X364665D01*
X361333Y336668D01*
Y335835D01*
X362166Y335002D01*
X363832D01*
X364665Y335835D01*
X362500Y326500D02*
X359220D01*
X360860D01*
Y319940D01*
X362500D01*
X352661Y326500D02*
X349381D01*
X347741Y324860D01*
Y321580D01*
X349381Y319940D01*
X352661D01*
X354301Y321580D01*
Y324860D01*
X352661Y326500D01*
X344461D02*
Y319940D01*
X339542D01*
X337902Y321580D01*
Y326500D01*
X332982D02*
X329702D01*
X328062Y324860D01*
Y321580D01*
X329702Y319940D01*
X332982D01*
X334622Y321580D01*
Y324860D01*
X332982Y326500D01*
X324782D02*
X319863D01*
X318223Y324860D01*
X319863Y323220D01*
X323143D01*
X324782Y321580D01*
X323143Y319940D01*
X318223D01*
X310023Y326500D02*
X313303D01*
X314943Y324860D01*
Y321580D01*
X313303Y319940D01*
X310023D01*
X308384Y321580D01*
Y323220D01*
X314943D01*
X305104Y326500D02*
Y319940D01*
X300184D01*
X298544Y321580D01*
Y326500D01*
X295265D02*
X290345D01*
X288705Y324860D01*
X290345Y323220D01*
X293625D01*
X295265Y321580D01*
X293625Y319940D01*
X288705D01*
X344500Y304661D02*
Y312860D01*
X342860Y314500D01*
X339580D01*
X337940Y312860D01*
Y304661D01*
X334661Y314500D02*
Y304661D01*
X328101Y314500D01*
Y304661D01*
X318262D02*
X324821D01*
Y314500D01*
X318262D01*
X324821Y309580D02*
X321542D01*
X314982Y304661D02*
Y314500D01*
X310062D01*
X308422Y312860D01*
Y306301D01*
X310062Y304661D01*
X314982D01*
X222000Y303161D02*
Y309720D01*
X218720Y313000D01*
X215440Y309720D01*
Y303161D01*
X205601D02*
X212161D01*
Y313000D01*
X205601D01*
X212161Y308080D02*
X208881D01*
X202321Y303161D02*
X195762D01*
X199041D01*
Y313000D01*
X192482Y303161D02*
Y313000D01*
X187562D01*
X185922Y311360D01*
Y309720D01*
X187562Y308080D01*
X192482D01*
X187562D01*
X185922Y306440D01*
Y304801D01*
X187562Y303161D01*
X192482D01*
X167173Y377028D02*
Y373029D01*
X165174Y371029D01*
X163175Y373029D01*
Y377028D01*
Y374028D01*
X167173D01*
X161175Y371029D02*
Y377028D01*
X157176D01*
X155177D02*
Y373029D01*
X153178Y371029D01*
X151179Y373029D01*
Y377028D01*
Y374028D01*
X155177D01*
X149179Y377028D02*
Y371029D01*
X146180D01*
X145180Y372029D01*
Y374028D01*
X146180Y375028D01*
X149179D01*
X147180D02*
X145180Y377028D01*
X143181D02*
Y371029D01*
X141182Y373029D01*
X139182Y371029D01*
Y377028D01*
X213001Y372502D02*
X214001Y371502D01*
X216000D01*
X217000Y372502D01*
Y376500D01*
X216000Y377500D01*
X214001D01*
X213001Y376500D01*
X208003Y371502D02*
X210002D01*
X211002Y372502D01*
Y376500D01*
X210002Y377500D01*
X208003D01*
X207003Y376500D01*
Y372502D01*
X208003Y371502D01*
X205004Y377500D02*
Y371502D01*
X203005Y373501D01*
X201005Y371502D01*
Y377500D01*
X199006D02*
Y371502D01*
X197006Y373501D01*
X195007Y371502D01*
Y377500D01*
X193008D02*
Y373501D01*
X191008Y371502D01*
X189009Y373501D01*
Y377500D01*
Y374501D01*
X193008D01*
X187010Y377500D02*
Y371502D01*
X183011Y377500D01*
Y371502D01*
X181012D02*
Y377500D01*
X178013D01*
X177013Y376500D01*
Y372502D01*
X178013Y371502D01*
X181012D01*
X254500Y377500D02*
Y371502D01*
X251501D01*
X250501Y372502D01*
Y374501D01*
X251501Y375501D01*
X254500D01*
X245503Y371502D02*
X247502D01*
X248502Y372502D01*
Y376500D01*
X247502Y377500D01*
X245503D01*
X244503Y376500D01*
Y372502D01*
X245503Y371502D01*
X242504D02*
Y377500D01*
X240505Y375501D01*
X238505Y377500D01*
Y371502D01*
X232507D02*
X236506D01*
Y377500D01*
X232507D01*
X236506Y374501D02*
X234507D01*
X230508Y377500D02*
Y371502D01*
X227509D01*
X226509Y372502D01*
Y374501D01*
X227509Y375501D01*
X230508D01*
X228508D02*
X226509Y377500D01*
X323111Y382780D02*
Y376782D01*
X320112D01*
X319112Y377781D01*
Y379781D01*
X320112Y380780D01*
X323111D01*
X317113Y382780D02*
Y376782D01*
X314114D01*
X313114Y377781D01*
Y379781D01*
X314114Y380780D01*
X317113D01*
X315113D02*
X313114Y382780D01*
X308116Y376782D02*
X310115D01*
X311115Y377781D01*
Y381780D01*
X310115Y382780D01*
X308116D01*
X307116Y381780D01*
Y377781D01*
X308116Y376782D01*
X301118Y377781D02*
X302117Y376782D01*
X304117D01*
X305117Y377781D01*
Y381780D01*
X304117Y382780D01*
X302117D01*
X301118Y381780D01*
Y379781D01*
X303117D01*
X299118Y382780D02*
Y376782D01*
X296119D01*
X295120Y377781D01*
Y379781D01*
X296119Y380780D01*
X299118D01*
X297119D02*
X295120Y382780D01*
X293120D02*
Y378781D01*
X291121Y376782D01*
X289122Y378781D01*
Y382780D01*
Y379781D01*
X293120D01*
X287122Y382780D02*
Y376782D01*
X285123Y378781D01*
X283124Y376782D01*
Y382780D01*
X281124D02*
Y376782D01*
X279125Y378781D01*
X277126Y376782D01*
Y382780D01*
X271128Y376782D02*
X275126D01*
Y382780D01*
X271128D01*
X275126Y379781D02*
X273127D01*
X269128Y382780D02*
Y376782D01*
X266129D01*
X265129Y377781D01*
Y379781D01*
X266129Y380780D01*
X269128D01*
X267129D02*
X265129Y382780D01*
X131500Y377002D02*
Y383000D01*
X128501D01*
X127501Y382000D01*
Y378002D01*
X128501Y377002D01*
X131500D01*
X121503D02*
X125502D01*
Y383000D01*
X121503D01*
X125502Y380001D02*
X123503D01*
X119504Y377002D02*
Y383000D01*
X116505D01*
X115505Y382000D01*
Y381001D01*
X116505Y380001D01*
X119504D01*
X116505D01*
X115505Y379001D01*
Y378002D01*
X116505Y377002D01*
X119504D01*
X113506D02*
Y382000D01*
X112506Y383000D01*
X110507D01*
X109507Y382000D01*
Y377002D01*
X103509Y378002D02*
X104509Y377002D01*
X106508D01*
X107508Y378002D01*
Y382000D01*
X106508Y383000D01*
X104509D01*
X103509Y382000D01*
Y380001D01*
X105508D01*
X215998Y246001D02*
Y250999D01*
X214999Y251999D01*
X212999D01*
X212000Y250999D01*
Y246001D01*
X210000D02*
X206002D01*
Y247001D01*
X210000Y250999D01*
Y251999D01*
X18999Y330997D02*
X13001D01*
X15000D01*
X18999Y326999D01*
X16000Y329998D01*
X13001Y326999D01*
Y321001D02*
Y324999D01*
X17000Y321001D01*
X17999D01*
X18999Y322000D01*
Y324000D01*
X17999Y324999D01*
X13001Y315003D02*
Y319001D01*
X17000Y315003D01*
X17999D01*
X18999Y316002D01*
Y318002D01*
X17999Y319001D01*
X266998Y288501D02*
Y293499D01*
X265999Y294499D01*
X263999D01*
X263000Y293499D01*
Y288501D01*
X261000Y289501D02*
X260001Y288501D01*
X258001D01*
X257002Y289501D01*
Y290500D01*
X258001Y291500D01*
X257002Y292500D01*
Y293499D01*
X258001Y294499D01*
X260001D01*
X261000Y293499D01*
Y292500D01*
X260001Y291500D01*
X261000Y290500D01*
Y289501D01*
X260001Y291500D02*
X258001D01*
X252498Y139501D02*
Y144499D01*
X251499Y145499D01*
X249499D01*
X248500Y144499D01*
Y139501D01*
X243501Y145499D02*
Y139501D01*
X246500Y142500D01*
X242502D01*
X126999Y114501D02*
Y119499D01*
X125999Y120499D01*
X124000D01*
X123000Y119499D01*
Y114501D01*
X121001Y120499D02*
X119001D01*
X120001D01*
Y114501D01*
X121001Y115501D01*
X108998Y272001D02*
Y276999D01*
X107999Y277999D01*
X105999D01*
X105000Y276999D01*
Y272001D01*
X99002Y277999D02*
X103000D01*
X99002Y274000D01*
Y273001D01*
X100001Y272001D01*
X102001D01*
X103000Y273001D01*
X139998Y226001D02*
Y230999D01*
X138999Y231999D01*
X136999D01*
X136000Y230999D01*
Y226001D01*
X130002D02*
X132001Y227001D01*
X134000Y229000D01*
Y230999D01*
X133001Y231999D01*
X131001D01*
X130002Y230999D01*
Y230000D01*
X131001Y229000D01*
X134000D01*
X119998Y303501D02*
Y308499D01*
X118998Y309499D01*
X116999D01*
X115999Y308499D01*
Y303501D01*
X114000Y309499D02*
X112001D01*
X113000D01*
Y303501D01*
X114000Y304501D01*
X109001Y309499D02*
X107002D01*
X108002D01*
Y303501D01*
X109001Y304501D01*
X270998Y229501D02*
Y234499D01*
X269999Y235499D01*
X267999D01*
X267000Y234499D01*
Y229501D01*
X265000Y234499D02*
X264001Y235499D01*
X262001D01*
X261002Y234499D01*
Y230501D01*
X262001Y229501D01*
X264001D01*
X265000Y230501D01*
Y231500D01*
X264001Y232500D01*
X261002D01*
X259498Y323001D02*
Y327999D01*
X258499Y328999D01*
X256499D01*
X255500Y327999D01*
Y323001D01*
X253500Y324001D02*
X252501Y323001D01*
X250501D01*
X249502Y324001D01*
Y325000D01*
X250501Y326000D01*
X251501D01*
X250501D01*
X249502Y327000D01*
Y327999D01*
X250501Y328999D01*
X252501D01*
X253500Y327999D01*
X273998Y203501D02*
Y208499D01*
X272998Y209499D01*
X270999D01*
X269999Y208499D01*
Y203501D01*
X268000Y209499D02*
X266000D01*
X267000D01*
Y203501D01*
X268000Y204501D01*
X263001D02*
X262001Y203501D01*
X260002D01*
X259002Y204501D01*
Y205500D01*
X260002Y206500D01*
X261002D01*
X260002D01*
X259002Y207500D01*
Y208499D01*
X260002Y209499D01*
X262001D01*
X263001Y208499D01*
X272498Y178001D02*
Y182999D01*
X271499Y183999D01*
X269499D01*
X268500Y182999D01*
Y178001D01*
X262502D02*
X266500D01*
Y181000D01*
X264501Y180000D01*
X263501D01*
X262502Y181000D01*
Y182999D01*
X263501Y183999D01*
X265501D01*
X266500Y182999D01*
X287498Y124501D02*
Y129499D01*
X286498Y130499D01*
X284499D01*
X283499Y129499D01*
Y124501D01*
X281500Y130499D02*
X279500D01*
X280500D01*
Y124501D01*
X281500Y125501D01*
X273502Y130499D02*
Y124501D01*
X276501Y127500D01*
X272502D01*
X233498Y172501D02*
Y177499D01*
X232498Y178499D01*
X230499D01*
X229499Y177499D01*
Y172501D01*
X227500Y178499D02*
X225500D01*
X226500D01*
Y172501D01*
X227500Y173501D01*
X218502Y178499D02*
X222501D01*
X218502Y174500D01*
Y173501D01*
X219502Y172501D01*
X221501D01*
X222501Y173501D01*
X103498Y230001D02*
Y234999D01*
X102498Y235999D01*
X100498D01*
X99499Y234999D01*
Y230001D01*
X97500Y235999D02*
X95500D01*
X96500D01*
Y230001D01*
X97500Y231001D01*
X88502Y230001D02*
X92501D01*
Y233000D01*
X90502Y232000D01*
X89502D01*
X88502Y233000D01*
Y234999D01*
X89502Y235999D01*
X91501D01*
X92501Y234999D01*
X274498Y253501D02*
Y258499D01*
X273498Y259499D01*
X271498D01*
X270499Y258499D01*
Y253501D01*
X268499Y259499D02*
X266500D01*
X267500D01*
Y253501D01*
X268499Y254501D01*
X263501D02*
X262502Y253501D01*
X260502D01*
X259502Y254501D01*
Y258499D01*
X260502Y259499D01*
X262502D01*
X263501Y258499D01*
Y254501D01*
X218503Y71499D02*
Y65501D01*
Y67500D01*
X222501Y71499D01*
X219502Y68500D01*
X222501Y65501D01*
X228499D02*
X224501D01*
X228499Y69500D01*
Y70499D01*
X227500Y71499D01*
X225500D01*
X224501Y70499D01*
X234497Y71499D02*
X232498Y70499D01*
X230499Y68500D01*
Y66501D01*
X231498Y65501D01*
X233498D01*
X234497Y66501D01*
Y67500D01*
X233498Y68500D01*
X230499D01*
X375001Y157503D02*
X380999D01*
X379000D01*
X375001Y161501D01*
X378000Y158502D01*
X380999Y161501D01*
X376001Y163501D02*
X375001Y164500D01*
Y166500D01*
X376001Y167499D01*
X377000D01*
X378000Y166500D01*
Y165500D01*
Y166500D01*
X379000Y167499D01*
X379999D01*
X380999Y166500D01*
Y164500D01*
X379999Y163501D01*
X376001Y169499D02*
X375001Y170498D01*
Y172498D01*
X376001Y173497D01*
X377000D01*
X378000Y172498D01*
Y171498D01*
Y172498D01*
X379000Y173497D01*
X379999D01*
X380999Y172498D01*
Y170498D01*
X379999Y169499D01*
X32502Y18499D02*
Y12501D01*
Y14500D01*
X36501Y18499D01*
X33502Y15500D01*
X36501Y12501D01*
X38500D02*
X40500D01*
X39500D01*
Y18499D01*
X38500Y17499D01*
X47498Y12501D02*
X43499D01*
X47498Y16500D01*
Y17499D01*
X46498Y18499D01*
X44499D01*
X43499Y17499D01*
X98502Y17999D02*
Y12001D01*
Y14000D01*
X102500Y17999D01*
X99501Y15000D01*
X102500Y12001D01*
X104500Y13001D02*
X105499Y12001D01*
X107499D01*
X108498Y13001D01*
Y16999D01*
X107499Y17999D01*
X105499D01*
X104500Y16999D01*
Y16000D01*
X105499Y15000D01*
X108498D01*
X75002Y18499D02*
Y12501D01*
Y14500D01*
X79001Y18499D01*
X76002Y15500D01*
X79001Y12501D01*
X81001D02*
X83000D01*
X82000D01*
Y18499D01*
X81001Y17499D01*
X85999D02*
X86999Y18499D01*
X88998D01*
X89998Y17499D01*
Y13501D01*
X88998Y12501D01*
X86999D01*
X85999Y13501D01*
Y17499D01*
X375001Y132003D02*
X380999D01*
X379000D01*
X375001Y136001D01*
X378000Y133002D01*
X380999Y136001D01*
X376001Y138001D02*
X375001Y139000D01*
Y141000D01*
X376001Y141999D01*
X377000D01*
X378000Y141000D01*
Y140000D01*
Y141000D01*
X379000Y141999D01*
X379999D01*
X380999Y141000D01*
Y139000D01*
X379999Y138001D01*
X380999Y147997D02*
Y143999D01*
X377000Y147997D01*
X376001D01*
X375001Y146998D01*
Y144998D01*
X376001Y143999D01*
X374769Y184003D02*
X380767D01*
X378768D01*
X374769Y188001D01*
X377768Y185002D01*
X380767Y188001D01*
X375768Y190001D02*
X374769Y191000D01*
Y193000D01*
X375768Y193999D01*
X376768D01*
X377768Y193000D01*
Y192000D01*
Y193000D01*
X378768Y193999D01*
X379767D01*
X380767Y193000D01*
Y191000D01*
X379767Y190001D01*
X380767Y198998D02*
X374769D01*
X377768Y195999D01*
Y199997D01*
X18999Y244498D02*
X13001D01*
X15000D01*
X18999Y240499D01*
X16000Y243498D01*
X13001Y240499D01*
Y238499D02*
Y236500D01*
Y237500D01*
X18999D01*
X17999Y238499D01*
Y233501D02*
X18999Y232501D01*
Y230502D01*
X17999Y229502D01*
X17000D01*
X16000Y230502D01*
X15000Y229502D01*
X14001D01*
X13001Y230502D01*
Y232501D01*
X14001Y233501D01*
X15000D01*
X16000Y232501D01*
X17000Y233501D01*
X17999D01*
X16000Y232501D02*
Y230502D01*
X175003Y71499D02*
Y65501D01*
Y67500D01*
X179001Y71499D01*
X176002Y68500D01*
X179001Y65501D01*
X184999D02*
X181001D01*
X184999Y69500D01*
Y70499D01*
X184000Y71499D01*
X182000D01*
X181001Y70499D01*
X189998Y65501D02*
Y71499D01*
X186999Y68500D01*
X190997D01*
X375501Y233003D02*
X381499D01*
X379500D01*
X375501Y237001D01*
X378500Y234002D01*
X381499Y237001D01*
X376501Y239001D02*
X375501Y240000D01*
Y242000D01*
X376501Y242999D01*
X377500D01*
X378500Y242000D01*
Y241000D01*
Y242000D01*
X379500Y242999D01*
X380499D01*
X381499Y242000D01*
Y240000D01*
X380499Y239001D01*
X375501Y248997D02*
X376501Y246998D01*
X378500Y244999D01*
X380499D01*
X381499Y245998D01*
Y247998D01*
X380499Y248997D01*
X379500D01*
X378500Y247998D01*
Y244999D01*
X18999Y175498D02*
X13001D01*
X15000D01*
X18999Y171499D01*
X16000Y174498D01*
X13001Y171499D01*
Y169500D02*
Y167500D01*
Y168500D01*
X18999D01*
X17999Y169500D01*
X18999Y160502D02*
Y164501D01*
X16000D01*
X17000Y162502D01*
Y161502D01*
X16000Y160502D01*
X14001D01*
X13001Y161502D01*
Y163501D01*
X14001Y164501D01*
X375501Y280503D02*
X381499D01*
X379500D01*
X375501Y284501D01*
X378500Y281502D01*
X381499Y284501D01*
X376501Y286501D02*
X375501Y287500D01*
Y289500D01*
X376501Y290499D01*
X377500D01*
X378500Y289500D01*
Y288500D01*
Y289500D01*
X379500Y290499D01*
X380499D01*
X381499Y289500D01*
Y287500D01*
X380499Y286501D01*
X376501Y292499D02*
X375501Y293498D01*
Y295498D01*
X376501Y296497D01*
X377500D01*
X378500Y295498D01*
X379500Y296497D01*
X380499D01*
X381499Y295498D01*
Y293498D01*
X380499Y292499D01*
X379500D01*
X378500Y293498D01*
X377500Y292499D01*
X376501D01*
X378500Y293498D02*
Y295498D01*
X155503Y70999D02*
Y65001D01*
Y67000D01*
X159501Y70999D01*
X156502Y68000D01*
X159501Y65001D01*
X165499D02*
X161501D01*
X165499Y69000D01*
Y69999D01*
X164500Y70999D01*
X162500D01*
X161501Y69999D01*
X167499D02*
X168498Y70999D01*
X170498D01*
X171497Y69999D01*
Y69000D01*
X170498Y68000D01*
X169498D01*
X170498D01*
X171497Y67000D01*
Y66001D01*
X170498Y65001D01*
X168498D01*
X167499Y66001D01*
X17999Y121998D02*
X12001D01*
X14000D01*
X17999Y117999D01*
X15000Y120998D01*
X12001Y117999D01*
Y115999D02*
Y114000D01*
Y115000D01*
X17999D01*
X16999Y115999D01*
Y111001D02*
X17999Y110001D01*
Y108002D01*
X16999Y107002D01*
X16000D01*
X15000Y108002D01*
Y109002D01*
Y108002D01*
X14000Y107002D01*
X13001D01*
X12001Y108002D01*
Y110001D01*
X13001Y111001D01*
X195503Y71499D02*
Y65501D01*
Y67500D01*
X199501Y71499D01*
X196502Y68500D01*
X199501Y65501D01*
X205499D02*
X201501D01*
X205499Y69500D01*
Y70499D01*
X204500Y71499D01*
X202500D01*
X201501Y70499D01*
X211497Y71499D02*
X207499D01*
Y68500D01*
X209498Y69500D01*
X210498D01*
X211497Y68500D01*
Y66501D01*
X210498Y65501D01*
X208498D01*
X207499Y66501D01*
X18999Y263498D02*
X13001D01*
X15000D01*
X18999Y259499D01*
X16000Y262498D01*
X13001Y259499D01*
Y257500D02*
Y255500D01*
Y256500D01*
X18999D01*
X17999Y257500D01*
X14001Y252501D02*
X13001Y251501D01*
Y249502D01*
X14001Y248502D01*
X17999D01*
X18999Y249502D01*
Y251501D01*
X17999Y252501D01*
X17000D01*
X16000Y251501D01*
Y248502D01*
X320003Y18499D02*
Y12501D01*
Y14500D01*
X324001Y18499D01*
X321002Y15500D01*
X324001Y12501D01*
X329999D02*
X326001D01*
X329999Y16500D01*
Y17499D01*
X329000Y18499D01*
X327000D01*
X326001Y17499D01*
X331999Y13501D02*
X332998Y12501D01*
X334998D01*
X335997Y13501D01*
Y17499D01*
X334998Y18499D01*
X332998D01*
X331999Y17499D01*
Y16500D01*
X332998Y15500D01*
X335997D01*
X375001Y106502D02*
X380999D01*
X379000D01*
X375001Y110501D01*
X378000Y107502D01*
X380999Y110501D01*
X376001Y112500D02*
X375001Y113500D01*
Y115499D01*
X376001Y116499D01*
X377000D01*
X378000Y115499D01*
Y114500D01*
Y115499D01*
X379000Y116499D01*
X379999D01*
X380999Y115499D01*
Y113500D01*
X379999Y112500D01*
X380999Y118498D02*
Y120498D01*
Y119498D01*
X375001D01*
X376001Y118498D01*
X118403Y17999D02*
Y12001D01*
Y14000D01*
X122402Y17999D01*
X119403Y15000D01*
X122402Y12001D01*
X124401Y16999D02*
X125401Y17999D01*
X127400D01*
X128400Y16999D01*
Y16000D01*
X127400Y15000D01*
X128400Y14000D01*
Y13001D01*
X127400Y12001D01*
X125401D01*
X124401Y13001D01*
Y14000D01*
X125401Y15000D01*
X124401Y16000D01*
Y16999D01*
X125401Y15000D02*
X127400D01*
X19499Y303998D02*
X13501D01*
X15500D01*
X19499Y299999D01*
X16500Y302998D01*
X13501Y299999D01*
Y294001D02*
Y298000D01*
X17500Y294001D01*
X18499D01*
X19499Y295001D01*
Y297000D01*
X18499Y298000D01*
X13501Y292002D02*
Y290002D01*
Y291002D01*
X19499D01*
X18499Y292002D01*
X375501Y256003D02*
X381499D01*
X379500D01*
X375501Y260001D01*
X378500Y257002D01*
X381499Y260001D01*
X376501Y262001D02*
X375501Y263000D01*
Y265000D01*
X376501Y265999D01*
X377500D01*
X378500Y265000D01*
Y264000D01*
Y265000D01*
X379500Y265999D01*
X380499D01*
X381499Y265000D01*
Y263000D01*
X380499Y262001D01*
X375501Y267999D02*
Y271997D01*
X376501D01*
X380499Y267999D01*
X381499D01*
X18499Y146998D02*
X12501D01*
X14500D01*
X18499Y142999D01*
X15500Y145998D01*
X12501Y142999D01*
Y140999D02*
Y139000D01*
Y140000D01*
X18499D01*
X17499Y140999D01*
X12501Y133002D02*
X18499D01*
X15500Y136001D01*
Y132002D01*
X18999Y224498D02*
X13001D01*
X15000D01*
X18999Y220499D01*
X16000Y223498D01*
X13001Y220499D01*
Y218499D02*
Y216500D01*
Y217500D01*
X18999D01*
X17999Y218499D01*
X18999Y213501D02*
Y209502D01*
X17999D01*
X14001Y213501D01*
X13001D01*
X265503Y18499D02*
Y12501D01*
Y14500D01*
X269501Y18499D01*
X266502Y15500D01*
X269501Y12501D01*
X275499D02*
X271501D01*
X275499Y16500D01*
Y17499D01*
X274500Y18499D01*
X272500D01*
X271501Y17499D01*
X277499Y18499D02*
X281497D01*
Y17499D01*
X277499Y13501D01*
Y12501D01*
X375001Y210003D02*
X380999D01*
X379000D01*
X375001Y214001D01*
X378000Y211002D01*
X380999Y214001D01*
X376001Y216001D02*
X375001Y217000D01*
Y219000D01*
X376001Y219999D01*
X377000D01*
X378000Y219000D01*
Y218000D01*
Y219000D01*
X379000Y219999D01*
X379999D01*
X380999Y219000D01*
Y217000D01*
X379999Y216001D01*
X375001Y225997D02*
Y221999D01*
X378000D01*
X377000Y223998D01*
Y224998D01*
X378000Y225997D01*
X379999D01*
X380999Y224998D01*
Y222998D01*
X379999Y221999D01*
X55502Y17999D02*
Y12001D01*
Y14000D01*
X59501Y17999D01*
X56502Y15000D01*
X59501Y12001D01*
X61500D02*
X63499D01*
X62500D01*
Y17999D01*
X61500Y16999D01*
X66499Y12001D02*
X68498D01*
X67498D01*
Y17999D01*
X66499Y16999D01*
X19499Y201998D02*
X13501D01*
X15500D01*
X19499Y197999D01*
X16500Y200998D01*
X13501Y197999D01*
Y196000D02*
Y194000D01*
Y195000D01*
X19499D01*
X18499Y196000D01*
X19499Y187002D02*
X18499Y189002D01*
X16500Y191001D01*
X14501D01*
X13501Y190001D01*
Y188002D01*
X14501Y187002D01*
X15500D01*
X16500Y188002D01*
Y191001D01*
X346003Y18499D02*
Y12501D01*
Y14500D01*
X350001Y18499D01*
X347002Y15500D01*
X350001Y12501D01*
X352001Y17499D02*
X353000Y18499D01*
X355000D01*
X355999Y17499D01*
Y16500D01*
X355000Y15500D01*
X354000D01*
X355000D01*
X355999Y14500D01*
Y13501D01*
X355000Y12501D01*
X353000D01*
X352001Y13501D01*
X357999Y17499D02*
X358998Y18499D01*
X360998D01*
X361997Y17499D01*
Y13501D01*
X360998Y12501D01*
X358998D01*
X357999Y13501D01*
Y17499D01*
X293003Y18999D02*
Y13001D01*
Y15000D01*
X297001Y18999D01*
X294002Y16000D01*
X297001Y13001D01*
X302999D02*
X299001D01*
X302999Y17000D01*
Y17999D01*
X302000Y18999D01*
X300000D01*
X299001Y17999D01*
X304999D02*
X305998Y18999D01*
X307998D01*
X308997Y17999D01*
Y17000D01*
X307998Y16000D01*
X308997Y15000D01*
Y14001D01*
X307998Y13001D01*
X305998D01*
X304999Y14001D01*
Y15000D01*
X305998Y16000D01*
X304999Y17000D01*
Y17999D01*
X305998Y16000D02*
X307998D01*
X19499Y282997D02*
X13501D01*
X15500D01*
X19499Y278999D01*
X16500Y281998D01*
X13501Y278999D01*
Y273001D02*
Y276999D01*
X17500Y273001D01*
X18499D01*
X19499Y274000D01*
Y276000D01*
X18499Y276999D01*
Y271001D02*
X19499Y270002D01*
Y268002D01*
X18499Y267003D01*
X14501D01*
X13501Y268002D01*
Y270002D01*
X14501Y271001D01*
X18499D01*
X200500Y40501D02*
X202499D01*
X201499D01*
Y45499D01*
X202499Y46499D01*
X203499D01*
X204498Y45499D01*
X198500Y41501D02*
X197501Y40501D01*
X195501D01*
X194502Y41501D01*
Y42500D01*
X195501Y43500D01*
X196501D01*
X195501D01*
X194502Y44500D01*
Y45499D01*
X195501Y46499D01*
X197501D01*
X198500Y45499D01*
X319000Y367501D02*
X320999D01*
X319999D01*
Y372499D01*
X320999Y373499D01*
X321999D01*
X322998Y372499D01*
X313002Y367501D02*
X317000D01*
Y370500D01*
X315001Y369500D01*
X314001D01*
X313002Y370500D01*
Y372499D01*
X314001Y373499D01*
X316001D01*
X317000Y372499D01*
X110500Y367501D02*
X112499D01*
X111499D01*
Y372499D01*
X112499Y373499D01*
X113499D01*
X114498Y372499D01*
X104502Y367501D02*
X106501Y368501D01*
X108500Y370500D01*
Y372499D01*
X107501Y373499D01*
X105501D01*
X104502Y372499D01*
Y371500D01*
X105501Y370500D01*
X108500D01*
X187500Y363001D02*
X189499D01*
X188500D01*
Y367999D01*
X189499Y368999D01*
X190499D01*
X191499Y367999D01*
X185501Y368999D02*
X183501D01*
X184501D01*
Y363001D01*
X185501Y364001D01*
M02*
