G04*
G04 #@! TF.GenerationSoftware,Altium Limited,Altium Designer,20.0.13 (296)*
G04*
G04 Layer_Physical_Order=3*
G04 Layer_Color=36540*
%FSLAX25Y25*%
%MOIN*%
G70*
G01*
G75*
%ADD48C,0.00400*%
%ADD49C,0.01155*%
%ADD50C,0.06378*%
%ADD54C,0.04528*%
%ADD56C,0.01772*%
G36*
X373566Y387996D02*
X372900Y387640D01*
X371340Y386360D01*
X370061Y384801D01*
X369110Y383021D01*
X368524Y381091D01*
X368326Y379083D01*
X368524Y377075D01*
X369110Y375144D01*
X370061Y373365D01*
X371340Y371805D01*
X372900Y370525D01*
X374679Y369574D01*
X376610Y368988D01*
X378618Y368791D01*
X380626Y368988D01*
X382557Y369574D01*
X384336Y370525D01*
X385896Y371805D01*
X387176Y373365D01*
X387981Y374871D01*
X388481Y374746D01*
Y21132D01*
X387996Y21011D01*
X387569Y21809D01*
X386289Y23368D01*
X384730Y24648D01*
X382950Y25599D01*
X381020Y26185D01*
X379012Y26383D01*
X377004Y26185D01*
X375073Y25599D01*
X373294Y24648D01*
X371734Y23368D01*
X370454Y21809D01*
X369503Y20029D01*
X368917Y18098D01*
X368720Y16091D01*
X368917Y14083D01*
X369503Y12152D01*
X370454Y10373D01*
X371734Y8813D01*
X373294Y7533D01*
X375073Y6582D01*
X377004Y5996D01*
X379012Y5799D01*
X381020Y5996D01*
X382950Y6582D01*
X384730Y7533D01*
X386289Y8813D01*
X387569Y10373D01*
X387996Y11171D01*
X388481Y11049D01*
Y5270D01*
X20986D01*
X20807Y5770D01*
X22116Y6844D01*
X23396Y8404D01*
X24347Y10183D01*
X24933Y12114D01*
X25131Y14122D01*
X24933Y16130D01*
X24347Y18061D01*
X23396Y19840D01*
X22116Y21400D01*
X20557Y22680D01*
X18777Y23631D01*
X16847Y24216D01*
X14839Y24414D01*
X12831Y24216D01*
X10900Y23631D01*
X9121Y22680D01*
X7561Y21400D01*
X6281Y19840D01*
X5770Y18884D01*
X5270Y19009D01*
Y376215D01*
X5770Y376290D01*
X6117Y375144D01*
X7068Y373365D01*
X8348Y371805D01*
X9908Y370525D01*
X11687Y369574D01*
X13618Y368988D01*
X15626Y368791D01*
X17634Y368988D01*
X19565Y369574D01*
X21344Y370525D01*
X22904Y371805D01*
X24183Y373365D01*
X25135Y375144D01*
X25720Y377075D01*
X25918Y379083D01*
X25720Y381091D01*
X25135Y383021D01*
X24183Y384801D01*
X22904Y386360D01*
X21344Y387640D01*
X20678Y387996D01*
X20800Y388481D01*
X373444D01*
X373566Y387996D01*
D02*
G37*
%LPC*%
G36*
X231900Y386613D02*
X231359Y386505D01*
X230901Y386199D01*
X230595Y385741D01*
X230487Y385200D01*
X230595Y384659D01*
X230901Y384201D01*
X231359Y383895D01*
X231900Y383787D01*
X232441Y383895D01*
X232899Y384201D01*
X233205Y384659D01*
X233313Y385200D01*
X233205Y385741D01*
X232899Y386199D01*
X232441Y386505D01*
X231900Y386613D01*
D02*
G37*
G36*
X152700Y385513D02*
X152159Y385405D01*
X151701Y385099D01*
X151395Y384641D01*
X151287Y384100D01*
X151395Y383559D01*
X151701Y383101D01*
X152159Y382795D01*
X152700Y382687D01*
X153241Y382795D01*
X153699Y383101D01*
X154005Y383559D01*
X154113Y384100D01*
X154005Y384641D01*
X153699Y385099D01*
X153241Y385405D01*
X152700Y385513D01*
D02*
G37*
G36*
X183900Y385213D02*
X183359Y385105D01*
X182901Y384799D01*
X182595Y384341D01*
X182487Y383800D01*
X182595Y383259D01*
X182901Y382801D01*
X183359Y382495D01*
X183900Y382387D01*
X184441Y382495D01*
X184899Y382801D01*
X185205Y383259D01*
X185313Y383800D01*
X185205Y384341D01*
X184899Y384799D01*
X184441Y385105D01*
X183900Y385213D01*
D02*
G37*
G36*
X131500D02*
X130959Y385105D01*
X130501Y384799D01*
X130195Y384341D01*
X130087Y383800D01*
X130195Y383259D01*
X130501Y382801D01*
X130959Y382495D01*
X131500Y382387D01*
X132041Y382495D01*
X132499Y382801D01*
X132805Y383259D01*
X132913Y383800D01*
X132805Y384341D01*
X132499Y384799D01*
X132041Y385105D01*
X131500Y385213D01*
D02*
G37*
G36*
X205300Y384913D02*
X204759Y384805D01*
X204301Y384499D01*
X203995Y384041D01*
X203887Y383500D01*
X203995Y382959D01*
X204301Y382501D01*
X204759Y382195D01*
X205300Y382087D01*
X205841Y382195D01*
X206299Y382501D01*
X206605Y382959D01*
X206713Y383500D01*
X206605Y384041D01*
X206299Y384499D01*
X205841Y384805D01*
X205300Y384913D01*
D02*
G37*
G36*
X172000Y367313D02*
X171459Y367205D01*
X171001Y366899D01*
X170711Y366464D01*
X170541Y366441D01*
X170359D01*
X170189Y366464D01*
X169899Y366899D01*
X169441Y367205D01*
X168900Y367313D01*
X168359Y367205D01*
X167901Y366899D01*
X167595Y366441D01*
X167487Y365900D01*
X167595Y365359D01*
X167776Y365088D01*
X167823Y365018D01*
X167462Y364657D01*
X167407Y364694D01*
X167241Y364805D01*
X166700Y364913D01*
X166690Y364919D01*
X166344Y365352D01*
X166413Y365700D01*
X166305Y366241D01*
X165999Y366699D01*
X165541Y367005D01*
X165000Y367113D01*
X164459Y367005D01*
X164001Y366699D01*
X163695Y366241D01*
X163587Y365700D01*
X163695Y365159D01*
X164001Y364701D01*
X164459Y364395D01*
X165000Y364287D01*
X165010Y364281D01*
X165356Y363848D01*
X165287Y363500D01*
X165395Y362959D01*
X165701Y362501D01*
X166159Y362195D01*
X166700Y362087D01*
X167241Y362195D01*
X167699Y362501D01*
X168005Y362959D01*
X168113Y363500D01*
X168005Y364041D01*
X167824Y364312D01*
X167777Y364382D01*
X168138Y364743D01*
X168193Y364705D01*
X168359Y364595D01*
X168900Y364487D01*
X169301Y364567D01*
X169496Y364110D01*
X169499Y364096D01*
X169195Y363641D01*
X169087Y363100D01*
X169195Y362559D01*
X169501Y362101D01*
X169959Y361795D01*
X170500Y361687D01*
X171041Y361795D01*
X171499Y362101D01*
X171805Y362559D01*
X171913Y363100D01*
X171805Y363641D01*
X171516Y364073D01*
X171545Y364182D01*
X171742Y364538D01*
X172000Y364487D01*
X172541Y364595D01*
X172999Y364901D01*
X173305Y365359D01*
X173413Y365900D01*
X173305Y366441D01*
X172999Y366899D01*
X172541Y367205D01*
X172000Y367313D01*
D02*
G37*
G36*
X184000Y368013D02*
X183459Y367905D01*
X183001Y367599D01*
X182695Y367141D01*
X182587Y366600D01*
X182695Y366059D01*
X182754Y365971D01*
X182453Y365521D01*
X182252Y365561D01*
X181778Y365467D01*
X181609Y365616D01*
X181447Y365872D01*
X181505Y365959D01*
X181613Y366500D01*
X181505Y367041D01*
X181199Y367499D01*
X180741Y367805D01*
X180200Y367913D01*
X179659Y367805D01*
X179201Y367499D01*
X178895Y367041D01*
X178787Y366500D01*
X178865Y366110D01*
X178605Y365761D01*
X178482Y365677D01*
X178300Y365713D01*
X177759Y365605D01*
X177301Y365299D01*
X176995Y364841D01*
X176887Y364300D01*
X176995Y363759D01*
X177301Y363301D01*
X177759Y362995D01*
X178300Y362887D01*
X178841Y362995D01*
X179299Y363301D01*
X179605Y363759D01*
X179713Y364300D01*
X179636Y364689D01*
X179895Y365039D01*
X180018Y365123D01*
X180200Y365087D01*
X180674Y365181D01*
X180843Y365032D01*
X181005Y364776D01*
X180947Y364689D01*
X180839Y364148D01*
X180947Y363607D01*
X181253Y363149D01*
X181711Y362843D01*
X182252Y362735D01*
X182793Y362843D01*
X183251Y363149D01*
X183557Y363607D01*
X183665Y364148D01*
X183557Y364689D01*
X183498Y364777D01*
X183799Y365227D01*
X184000Y365187D01*
X184541Y365295D01*
X184999Y365601D01*
X185305Y366059D01*
X185413Y366600D01*
X185305Y367141D01*
X184999Y367599D01*
X184541Y367905D01*
X184000Y368013D01*
D02*
G37*
G36*
X238700Y368113D02*
X238159Y368005D01*
X237701Y367699D01*
X237395Y367241D01*
X237287Y366700D01*
X237395Y366159D01*
X237701Y365701D01*
X238159Y365395D01*
X238700Y365287D01*
X239241Y365395D01*
X239699Y365701D01*
X240005Y366159D01*
X240113Y366700D01*
X240005Y367241D01*
X239699Y367699D01*
X239241Y368005D01*
X238700Y368113D01*
D02*
G37*
G36*
X160500D02*
X159959Y368005D01*
X159501Y367699D01*
X159195Y367241D01*
X159087Y366700D01*
X159195Y366159D01*
X159501Y365701D01*
X159959Y365395D01*
X160500Y365287D01*
X161041Y365395D01*
X161499Y365701D01*
X161805Y366159D01*
X161913Y366700D01*
X161805Y367241D01*
X161499Y367699D01*
X161041Y368005D01*
X160500Y368113D01*
D02*
G37*
G36*
X156300Y367913D02*
X155759Y367805D01*
X155301Y367499D01*
X154995Y367041D01*
X154887Y366500D01*
X154995Y365959D01*
X155301Y365501D01*
X155759Y365195D01*
X156300Y365087D01*
X156841Y365195D01*
X157299Y365501D01*
X157605Y365959D01*
X157713Y366500D01*
X157605Y367041D01*
X157299Y367499D01*
X156841Y367805D01*
X156300Y367913D01*
D02*
G37*
G36*
X152600Y367713D02*
X152059Y367605D01*
X151601Y367299D01*
X151295Y366841D01*
X151187Y366300D01*
X151295Y365759D01*
X151601Y365301D01*
X152059Y364995D01*
X152600Y364887D01*
X153141Y364995D01*
X153599Y365301D01*
X153905Y365759D01*
X154013Y366300D01*
X153905Y366841D01*
X153599Y367299D01*
X153141Y367605D01*
X152600Y367713D01*
D02*
G37*
G36*
X233600Y367413D02*
X233059Y367305D01*
X232601Y366999D01*
X232295Y366541D01*
X232187Y366000D01*
X232295Y365459D01*
X232482Y365179D01*
X232169Y364836D01*
X232129Y364808D01*
X231600Y364913D01*
X231071Y364808D01*
X231031Y364836D01*
X230718Y365179D01*
X230905Y365459D01*
X231013Y366000D01*
X230905Y366541D01*
X230599Y366999D01*
X230141Y367305D01*
X229600Y367413D01*
X229059Y367305D01*
X228601Y366999D01*
X228295Y366541D01*
X228187Y366000D01*
X228295Y365459D01*
X228601Y365001D01*
X229059Y364695D01*
X229600Y364587D01*
X230129Y364692D01*
X230169Y364664D01*
X230482Y364321D01*
X230295Y364041D01*
X230187Y363500D01*
X230295Y362959D01*
X230601Y362501D01*
X231059Y362195D01*
X231600Y362087D01*
X232141Y362195D01*
X232599Y362501D01*
X232905Y362959D01*
X233013Y363500D01*
X232905Y364041D01*
X232718Y364321D01*
X233031Y364664D01*
X233071Y364692D01*
X233600Y364587D01*
X233667Y364600D01*
X233968Y364150D01*
X233895Y364041D01*
X233787Y363500D01*
X233895Y362959D01*
X234201Y362501D01*
X234659Y362195D01*
X235200Y362087D01*
X235741Y362195D01*
X236199Y362501D01*
X236505Y362959D01*
X236613Y363500D01*
X236505Y364041D01*
X236199Y364499D01*
X235741Y364805D01*
X235200Y364913D01*
X235133Y364900D01*
X234832Y365350D01*
X234905Y365459D01*
X235013Y366000D01*
X234905Y366541D01*
X234599Y366999D01*
X234141Y367305D01*
X233600Y367413D01*
D02*
G37*
G36*
X148600Y367613D02*
X148059Y367505D01*
X147601Y367199D01*
X147295Y366741D01*
X147187Y366200D01*
X147295Y365659D01*
X147601Y365201D01*
X148059Y364895D01*
X148600Y364787D01*
X149141Y364895D01*
X149599Y365201D01*
X149905Y365659D01*
X150013Y366200D01*
X149905Y366741D01*
X149599Y367199D01*
X149141Y367505D01*
X148600Y367613D01*
D02*
G37*
G36*
X239400Y364913D02*
X238859Y364805D01*
X238401Y364499D01*
X238095Y364041D01*
X237987Y363500D01*
X238095Y362959D01*
X238401Y362501D01*
X238859Y362195D01*
X239400Y362087D01*
X239941Y362195D01*
X240399Y362501D01*
X240705Y362959D01*
X240813Y363500D01*
X240705Y364041D01*
X240399Y364499D01*
X239941Y364805D01*
X239400Y364913D01*
D02*
G37*
G36*
X158400D02*
X157859Y364805D01*
X157401Y364499D01*
X157095Y364041D01*
X156987Y363500D01*
X157095Y362959D01*
X157401Y362501D01*
X157859Y362195D01*
X158400Y362087D01*
X158941Y362195D01*
X159399Y362501D01*
X159705Y362959D01*
X159813Y363500D01*
X159705Y364041D01*
X159399Y364499D01*
X158941Y364805D01*
X158400Y364913D01*
D02*
G37*
G36*
X154451Y364862D02*
X153910Y364755D01*
X153452Y364448D01*
X153145Y363990D01*
X153038Y363449D01*
X153145Y362909D01*
X153452Y362450D01*
X153910Y362144D01*
X154451Y362036D01*
X154991Y362144D01*
X155450Y362450D01*
X155756Y362909D01*
X155864Y363449D01*
X155756Y363990D01*
X155450Y364448D01*
X154991Y364755D01*
X154451Y364862D01*
D02*
G37*
G36*
X162500Y364813D02*
X161959Y364705D01*
X161501Y364399D01*
X161195Y363941D01*
X161087Y363400D01*
X161195Y362859D01*
X161501Y362401D01*
X161959Y362095D01*
X162500Y361987D01*
X163041Y362095D01*
X163499Y362401D01*
X163805Y362859D01*
X163913Y363400D01*
X163805Y363941D01*
X163499Y364399D01*
X163041Y364705D01*
X162500Y364813D01*
D02*
G37*
G36*
X242800Y364713D02*
X242259Y364605D01*
X241801Y364299D01*
X241495Y363841D01*
X241387Y363300D01*
X241495Y362759D01*
X241801Y362301D01*
X242259Y361995D01*
X242800Y361887D01*
X243341Y361995D01*
X243799Y362301D01*
X244105Y362759D01*
X244213Y363300D01*
X244105Y363841D01*
X243799Y364299D01*
X243341Y364605D01*
X242800Y364713D01*
D02*
G37*
G36*
X150600D02*
X150059Y364605D01*
X149601Y364299D01*
X149295Y363841D01*
X149187Y363300D01*
X149295Y362759D01*
X149601Y362301D01*
X150059Y361995D01*
X150600Y361887D01*
X151141Y361995D01*
X151599Y362301D01*
X151905Y362759D01*
X152013Y363300D01*
X151905Y363841D01*
X151599Y364299D01*
X151141Y364605D01*
X150600Y364713D01*
D02*
G37*
G36*
X227500Y364613D02*
X226959Y364505D01*
X226501Y364199D01*
X226195Y363741D01*
X226087Y363200D01*
X226195Y362659D01*
X226501Y362201D01*
X226959Y361895D01*
X227500Y361787D01*
X228041Y361895D01*
X228499Y362201D01*
X228805Y362659D01*
X228913Y363200D01*
X228805Y363741D01*
X228499Y364199D01*
X228041Y364505D01*
X227500Y364613D01*
D02*
G37*
G36*
X174000Y364413D02*
X173459Y364305D01*
X173001Y363999D01*
X172695Y363541D01*
X172587Y363000D01*
X172695Y362459D01*
X173001Y362001D01*
X173459Y361695D01*
X174000Y361587D01*
X174541Y361695D01*
X174999Y362001D01*
X175305Y362459D01*
X175413Y363000D01*
X175305Y363541D01*
X174999Y363999D01*
X174541Y364305D01*
X174000Y364413D01*
D02*
G37*
G36*
X246500Y363013D02*
X245959Y362905D01*
X245501Y362599D01*
X245195Y362141D01*
X245087Y361600D01*
X245195Y361059D01*
X245501Y360601D01*
X245959Y360295D01*
X246500Y360187D01*
X247041Y360295D01*
X247499Y360601D01*
X247805Y361059D01*
X247913Y361600D01*
X247805Y362141D01*
X247499Y362599D01*
X247041Y362905D01*
X246500Y363013D01*
D02*
G37*
G36*
X38857Y353960D02*
Y350566D01*
X42251D01*
X42154Y351303D01*
X41793Y352176D01*
X41217Y352926D01*
X40468Y353501D01*
X39594Y353863D01*
X38857Y353960D01*
D02*
G37*
G36*
X38458D02*
X37721Y353863D01*
X36847Y353501D01*
X36098Y352926D01*
X35522Y352176D01*
X35161Y351303D01*
X35064Y350566D01*
X38458D01*
Y353960D01*
D02*
G37*
G36*
X250075Y356576D02*
X249073Y356445D01*
X248139Y356058D01*
X247337Y355443D01*
X246722Y354641D01*
X246335Y353707D01*
X246203Y352705D01*
X246335Y351703D01*
X246722Y350769D01*
X247337Y349967D01*
X248139Y349352D01*
X249073Y348965D01*
X250075Y348833D01*
X251077Y348965D01*
X252011Y349352D01*
X252813Y349967D01*
X253428Y350769D01*
X253815Y351703D01*
X253946Y352705D01*
X253815Y353707D01*
X253428Y354641D01*
X252813Y355443D01*
X252011Y356058D01*
X251077Y356445D01*
X250075Y356576D01*
D02*
G37*
G36*
X143776D02*
X142773Y356445D01*
X141840Y356058D01*
X141038Y355443D01*
X140423Y354641D01*
X140036Y353707D01*
X139904Y352705D01*
X140036Y351703D01*
X140423Y350769D01*
X141038Y349967D01*
X141840Y349352D01*
X142773Y348965D01*
X143776Y348833D01*
X144778Y348965D01*
X145711Y349352D01*
X146513Y349967D01*
X147129Y350769D01*
X147515Y351703D01*
X147647Y352705D01*
X147515Y353707D01*
X147129Y354641D01*
X146513Y355443D01*
X145711Y356058D01*
X144778Y356445D01*
X143776Y356576D01*
D02*
G37*
G36*
X42251Y350166D02*
X38857D01*
Y346773D01*
X39594Y346869D01*
X40468Y347231D01*
X41217Y347806D01*
X41793Y348556D01*
X42154Y349429D01*
X42251Y350166D01*
D02*
G37*
G36*
X38458D02*
X35064D01*
X35161Y349429D01*
X35522Y348556D01*
X36098Y347806D01*
X36847Y347231D01*
X37721Y346869D01*
X38458Y346773D01*
Y350166D01*
D02*
G37*
G36*
X88657Y353986D02*
X87721Y353863D01*
X86848Y353501D01*
X86098Y352926D01*
X85523Y352176D01*
X85161Y351303D01*
X85037Y350366D01*
X85161Y349429D01*
X85523Y348556D01*
X86098Y347806D01*
X86848Y347231D01*
X87721Y346869D01*
X88657Y346746D01*
X89594Y346869D01*
X90468Y347231D01*
X91217Y347806D01*
X91793Y348556D01*
X92154Y349429D01*
X92277Y350366D01*
X92154Y351303D01*
X91793Y352176D01*
X91217Y352926D01*
X90468Y353501D01*
X89594Y353863D01*
X88657Y353986D01*
D02*
G37*
G36*
X78658D02*
X77721Y353863D01*
X76847Y353501D01*
X76098Y352926D01*
X75523Y352176D01*
X75161Y351303D01*
X75037Y350366D01*
X75161Y349429D01*
X75523Y348556D01*
X76098Y347806D01*
X76847Y347231D01*
X77721Y346869D01*
X78658Y346746D01*
X79594Y346869D01*
X80467Y347231D01*
X81217Y347806D01*
X81792Y348556D01*
X82154Y349429D01*
X82277Y350366D01*
X82154Y351303D01*
X81792Y352176D01*
X81217Y352926D01*
X80467Y353501D01*
X79594Y353863D01*
X78658Y353986D01*
D02*
G37*
G36*
X68657D02*
X67721Y353863D01*
X66847Y353501D01*
X66098Y352926D01*
X65522Y352176D01*
X65161Y351303D01*
X65038Y350366D01*
X65161Y349429D01*
X65522Y348556D01*
X66098Y347806D01*
X66847Y347231D01*
X67721Y346869D01*
X68657Y346746D01*
X69594Y346869D01*
X70468Y347231D01*
X71217Y347806D01*
X71793Y348556D01*
X72154Y349429D01*
X72277Y350366D01*
X72154Y351303D01*
X71793Y352176D01*
X71217Y352926D01*
X70468Y353501D01*
X69594Y353863D01*
X68657Y353986D01*
D02*
G37*
G36*
X58657D02*
X57721Y353863D01*
X56848Y353501D01*
X56098Y352926D01*
X55523Y352176D01*
X55161Y351303D01*
X55037Y350366D01*
X55161Y349429D01*
X55523Y348556D01*
X56098Y347806D01*
X56848Y347231D01*
X57721Y346869D01*
X58657Y346746D01*
X59594Y346869D01*
X60467Y347231D01*
X61217Y347806D01*
X61792Y348556D01*
X62154Y349429D01*
X62277Y350366D01*
X62154Y351303D01*
X61792Y352176D01*
X61217Y352926D01*
X60467Y353501D01*
X59594Y353863D01*
X58657Y353986D01*
D02*
G37*
G36*
X48658D02*
X47721Y353863D01*
X46848Y353501D01*
X46098Y352926D01*
X45522Y352176D01*
X45161Y351303D01*
X45037Y350366D01*
X45161Y349429D01*
X45522Y348556D01*
X46098Y347806D01*
X46848Y347231D01*
X47721Y346869D01*
X48658Y346746D01*
X49594Y346869D01*
X50467Y347231D01*
X51217Y347806D01*
X51793Y348556D01*
X52154Y349429D01*
X52277Y350366D01*
X52154Y351303D01*
X51793Y352176D01*
X51217Y352926D01*
X50467Y353501D01*
X49594Y353863D01*
X48658Y353986D01*
D02*
G37*
G36*
X354992Y353789D02*
X354055Y353666D01*
X353182Y353304D01*
X352432Y352729D01*
X351857Y351979D01*
X351496Y351106D01*
X351372Y350169D01*
X351496Y349232D01*
X351857Y348359D01*
X352432Y347610D01*
X353182Y347034D01*
X354055Y346673D01*
X354992Y346549D01*
X355929Y346673D01*
X356802Y347034D01*
X357552Y347610D01*
X358127Y348359D01*
X358489Y349232D01*
X358612Y350169D01*
X358489Y351106D01*
X358127Y351979D01*
X357552Y352729D01*
X356802Y353304D01*
X355929Y353666D01*
X354992Y353789D01*
D02*
G37*
G36*
X344992D02*
X344055Y353666D01*
X343182Y353304D01*
X342432Y352729D01*
X341857Y351979D01*
X341495Y351106D01*
X341372Y350169D01*
X341495Y349232D01*
X341857Y348359D01*
X342432Y347610D01*
X343182Y347034D01*
X344055Y346673D01*
X344992Y346549D01*
X345929Y346673D01*
X346802Y347034D01*
X347552Y347610D01*
X348127Y348359D01*
X348489Y349232D01*
X348612Y350169D01*
X348489Y351106D01*
X348127Y351979D01*
X347552Y352729D01*
X346802Y353304D01*
X345929Y353666D01*
X344992Y353789D01*
D02*
G37*
G36*
X334992D02*
X334055Y353666D01*
X333182Y353304D01*
X332432Y352729D01*
X331857Y351979D01*
X331495Y351106D01*
X331372Y350169D01*
X331495Y349232D01*
X331857Y348359D01*
X332432Y347610D01*
X333182Y347034D01*
X334055Y346673D01*
X334992Y346549D01*
X335929Y346673D01*
X336802Y347034D01*
X337552Y347610D01*
X338127Y348359D01*
X338489Y349232D01*
X338612Y350169D01*
X338489Y351106D01*
X338127Y351979D01*
X337552Y352729D01*
X336802Y353304D01*
X335929Y353666D01*
X334992Y353789D01*
D02*
G37*
G36*
X355192Y343763D02*
Y340369D01*
X358586D01*
X358489Y341106D01*
X358127Y341979D01*
X357552Y342729D01*
X356802Y343304D01*
X355929Y343666D01*
X355192Y343763D01*
D02*
G37*
G36*
X354792D02*
X354055Y343666D01*
X353182Y343304D01*
X352432Y342729D01*
X351857Y341979D01*
X351496Y341106D01*
X351398Y340369D01*
X354792D01*
Y343763D01*
D02*
G37*
G36*
Y339969D02*
X351398D01*
X351496Y339232D01*
X351857Y338359D01*
X352432Y337610D01*
X353182Y337034D01*
X354055Y336673D01*
X354792Y336576D01*
Y339969D01*
D02*
G37*
G36*
X358586D02*
X355192D01*
Y336576D01*
X355929Y336673D01*
X356802Y337034D01*
X357552Y337610D01*
X358127Y338359D01*
X358489Y339232D01*
X358586Y339969D01*
D02*
G37*
G36*
X344992Y343789D02*
X344055Y343666D01*
X343182Y343304D01*
X342432Y342729D01*
X341857Y341979D01*
X341495Y341106D01*
X341372Y340169D01*
X341495Y339232D01*
X341857Y338359D01*
X342432Y337610D01*
X343182Y337034D01*
X344055Y336673D01*
X344992Y336549D01*
X345929Y336673D01*
X346802Y337034D01*
X347552Y337610D01*
X348127Y338359D01*
X348489Y339232D01*
X348612Y340169D01*
X348489Y341106D01*
X348127Y341979D01*
X347552Y342729D01*
X346802Y343304D01*
X345929Y343666D01*
X344992Y343789D01*
D02*
G37*
G36*
X334992D02*
X334055Y343666D01*
X333182Y343304D01*
X332432Y342729D01*
X331857Y341979D01*
X331495Y341106D01*
X331372Y340169D01*
X331495Y339232D01*
X331857Y338359D01*
X332432Y337610D01*
X333182Y337034D01*
X334055Y336673D01*
X334992Y336549D01*
X335929Y336673D01*
X336802Y337034D01*
X337552Y337610D01*
X338127Y338359D01*
X338489Y339232D01*
X338612Y340169D01*
X338489Y341106D01*
X338127Y341979D01*
X337552Y342729D01*
X336802Y343304D01*
X335929Y343666D01*
X334992Y343789D01*
D02*
G37*
G36*
X29000Y335113D02*
X28459Y335005D01*
X28001Y334699D01*
X27695Y334241D01*
X27587Y333700D01*
X27695Y333159D01*
X28001Y332701D01*
X28459Y332395D01*
X29000Y332287D01*
X29541Y332395D01*
X29999Y332701D01*
X30305Y333159D01*
X30413Y333700D01*
X30305Y334241D01*
X29999Y334699D01*
X29541Y335005D01*
X29000Y335113D01*
D02*
G37*
G36*
X305800Y334213D02*
X305259Y334105D01*
X304801Y333799D01*
X304495Y333341D01*
X304387Y332800D01*
X304495Y332259D01*
X304801Y331801D01*
X305259Y331495D01*
X305800Y331387D01*
X306341Y331495D01*
X306799Y331801D01*
X307105Y332259D01*
X307213Y332800D01*
X307105Y333341D01*
X306799Y333799D01*
X306341Y334105D01*
X305800Y334213D01*
D02*
G37*
G36*
X252400Y333713D02*
X251859Y333605D01*
X251401Y333299D01*
X251095Y332841D01*
X250987Y332300D01*
X251095Y331759D01*
X251401Y331301D01*
X251859Y330995D01*
X252400Y330887D01*
X252941Y330995D01*
X253399Y331301D01*
X253705Y331759D01*
X253813Y332300D01*
X253705Y332841D01*
X253399Y333299D01*
X252941Y333605D01*
X252400Y333713D01*
D02*
G37*
G36*
X269166Y335913D02*
X268625Y335805D01*
X268167Y335499D01*
X267860Y335041D01*
X267753Y334500D01*
X267860Y333959D01*
X268167Y333501D01*
X268361Y333371D01*
X268256Y332840D01*
X268083Y332805D01*
X267624Y332499D01*
X267318Y332041D01*
X267211Y331500D01*
X267318Y330959D01*
X267624Y330501D01*
X268083Y330195D01*
X268623Y330087D01*
X269164Y330195D01*
X269623Y330501D01*
X269929Y330959D01*
X270037Y331500D01*
X269929Y332041D01*
X269623Y332499D01*
X269428Y332629D01*
X269533Y333160D01*
X269706Y333195D01*
X270165Y333501D01*
X270471Y333959D01*
X270579Y334500D01*
X270471Y335041D01*
X270165Y335499D01*
X269706Y335805D01*
X269166Y335913D01*
D02*
G37*
G36*
X80300Y330961D02*
Y328500D01*
X82761D01*
X82695Y328995D01*
X82427Y329644D01*
X82000Y330200D01*
X81444Y330627D01*
X80795Y330895D01*
X80300Y330961D01*
D02*
G37*
G36*
X79900D02*
X79405Y330895D01*
X78756Y330627D01*
X78200Y330200D01*
X77773Y329644D01*
X77505Y328995D01*
X77439Y328500D01*
X79900D01*
Y330961D01*
D02*
G37*
G36*
X266500Y330113D02*
X265959Y330005D01*
X265501Y329699D01*
X265195Y329241D01*
X265087Y328700D01*
X265195Y328159D01*
X265501Y327701D01*
X265959Y327395D01*
X266500Y327287D01*
X267041Y327395D01*
X267499Y327701D01*
X267805Y328159D01*
X267913Y328700D01*
X267805Y329241D01*
X267499Y329699D01*
X267041Y330005D01*
X266500Y330113D01*
D02*
G37*
G36*
X258534Y332213D02*
X257994Y332105D01*
X257535Y331799D01*
X257229Y331341D01*
X257121Y330800D01*
X257229Y330259D01*
X257535Y329801D01*
X257994Y329495D01*
X258534Y329387D01*
X258938Y329467D01*
X258957Y329471D01*
X259151Y329002D01*
X259151D01*
X259151Y329002D01*
X259001Y328899D01*
X258695Y328441D01*
X258587Y327900D01*
X258695Y327359D01*
X259001Y326901D01*
X259459Y326595D01*
X260000Y326487D01*
X260541Y326595D01*
X260999Y326901D01*
X261305Y327359D01*
X261834Y327451D01*
X262001Y327201D01*
X262459Y326895D01*
X263000Y326787D01*
X263541Y326895D01*
X263999Y327201D01*
X264305Y327659D01*
X264413Y328200D01*
X264305Y328741D01*
X263999Y329199D01*
X263541Y329505D01*
X263000Y329613D01*
X262459Y329505D01*
X262001Y329199D01*
X261695Y328741D01*
X261167Y328649D01*
X260999Y328899D01*
X260541Y329205D01*
X260000Y329313D01*
X259597Y329233D01*
X259577Y329229D01*
X259383Y329698D01*
X259383D01*
X259383Y329698D01*
X259533Y329801D01*
X259840Y330259D01*
X259947Y330800D01*
X259840Y331341D01*
X259533Y331799D01*
X259075Y332105D01*
X258534Y332213D01*
D02*
G37*
G36*
X60100Y330840D02*
X59128Y330647D01*
X58304Y330096D01*
X57753Y329272D01*
X57560Y328300D01*
X57753Y327328D01*
X58304Y326504D01*
X59128Y325953D01*
X60100Y325760D01*
X61072Y325953D01*
X61896Y326504D01*
X62447Y327328D01*
X62641Y328300D01*
X62447Y329272D01*
X61896Y330096D01*
X61072Y330647D01*
X60100Y330840D01*
D02*
G37*
G36*
X82761Y328100D02*
X80300D01*
Y325639D01*
X80795Y325705D01*
X81444Y325973D01*
X82000Y326400D01*
X82427Y326957D01*
X82695Y327605D01*
X82761Y328100D01*
D02*
G37*
G36*
X79900D02*
X77439D01*
X77505Y327605D01*
X77773Y326957D01*
X78200Y326400D01*
X78756Y325973D01*
X79405Y325705D01*
X79900Y325639D01*
Y328100D01*
D02*
G37*
G36*
X120100Y330987D02*
X119405Y330895D01*
X118756Y330627D01*
X118200Y330200D01*
X117773Y329644D01*
X117505Y328995D01*
X117413Y328300D01*
X117505Y327605D01*
X117773Y326957D01*
X118200Y326400D01*
X118756Y325973D01*
X119405Y325705D01*
X120100Y325613D01*
X120795Y325705D01*
X121443Y325973D01*
X122000Y326400D01*
X122427Y326957D01*
X122695Y327605D01*
X122787Y328300D01*
X122695Y328995D01*
X122427Y329644D01*
X122000Y330200D01*
X121443Y330627D01*
X120795Y330895D01*
X120100Y330987D01*
D02*
G37*
G36*
X110100D02*
X109405Y330895D01*
X108756Y330627D01*
X108200Y330200D01*
X107773Y329644D01*
X107505Y328995D01*
X107413Y328300D01*
X107505Y327605D01*
X107773Y326957D01*
X108200Y326400D01*
X108756Y325973D01*
X109405Y325705D01*
X110100Y325613D01*
X110795Y325705D01*
X111443Y325973D01*
X112000Y326400D01*
X112427Y326957D01*
X112695Y327605D01*
X112787Y328300D01*
X112695Y328995D01*
X112427Y329644D01*
X112000Y330200D01*
X111443Y330627D01*
X110795Y330895D01*
X110100Y330987D01*
D02*
G37*
G36*
X100100D02*
X99405Y330895D01*
X98756Y330627D01*
X98200Y330200D01*
X97773Y329644D01*
X97505Y328995D01*
X97413Y328300D01*
X97505Y327605D01*
X97773Y326957D01*
X98200Y326400D01*
X98756Y325973D01*
X99405Y325705D01*
X100100Y325613D01*
X100795Y325705D01*
X101444Y325973D01*
X102000Y326400D01*
X102427Y326957D01*
X102695Y327605D01*
X102787Y328300D01*
X102695Y328995D01*
X102427Y329644D01*
X102000Y330200D01*
X101444Y330627D01*
X100795Y330895D01*
X100100Y330987D01*
D02*
G37*
G36*
X70100D02*
X69405Y330895D01*
X68757Y330627D01*
X68200Y330200D01*
X67773Y329644D01*
X67505Y328995D01*
X67413Y328300D01*
X67505Y327605D01*
X67773Y326957D01*
X68200Y326400D01*
X68757Y325973D01*
X69405Y325705D01*
X70100Y325613D01*
X70795Y325705D01*
X71443Y325973D01*
X72000Y326400D01*
X72427Y326957D01*
X72695Y327605D01*
X72787Y328300D01*
X72695Y328995D01*
X72427Y329644D01*
X72000Y330200D01*
X71443Y330627D01*
X70795Y330895D01*
X70100Y330987D01*
D02*
G37*
G36*
X255900Y326263D02*
X255359Y326155D01*
X254901Y325849D01*
X254595Y325391D01*
X254487Y324850D01*
X254595Y324309D01*
X254901Y323851D01*
X255359Y323545D01*
X255900Y323437D01*
X256441Y323545D01*
X256899Y323851D01*
X257205Y324309D01*
X257313Y324850D01*
X257205Y325391D01*
X256899Y325849D01*
X256441Y326155D01*
X255900Y326263D01*
D02*
G37*
G36*
X264800Y323913D02*
X264259Y323805D01*
X263801Y323499D01*
X263495Y323041D01*
X263387Y322500D01*
X263495Y321959D01*
X263801Y321501D01*
X264259Y321195D01*
X264800Y321087D01*
X265341Y321195D01*
X265799Y321501D01*
X266105Y321959D01*
X266213Y322500D01*
X266105Y323041D01*
X265799Y323499D01*
X265341Y323805D01*
X264800Y323913D01*
D02*
G37*
G36*
X33800Y329669D02*
X32462Y329492D01*
X31216Y328976D01*
X30145Y328155D01*
X29324Y327084D01*
X28808Y325838D01*
X28631Y324500D01*
X28808Y323162D01*
X29324Y321916D01*
X30145Y320845D01*
X31216Y320024D01*
X32462Y319508D01*
X33800Y319331D01*
X35138Y319508D01*
X36384Y320024D01*
X37455Y320845D01*
X38276Y321916D01*
X38792Y323162D01*
X38969Y324500D01*
X38792Y325838D01*
X38276Y327084D01*
X37455Y328155D01*
X36384Y328976D01*
X35138Y329492D01*
X33800Y329669D01*
D02*
G37*
G36*
X13800D02*
X12462Y329492D01*
X11216Y328976D01*
X10145Y328155D01*
X9324Y327084D01*
X8807Y325838D01*
X8631Y324500D01*
X8807Y323162D01*
X9324Y321916D01*
X10145Y320845D01*
X11216Y320024D01*
X12462Y319508D01*
X13800Y319331D01*
X15138Y319508D01*
X16384Y320024D01*
X17455Y320845D01*
X18276Y321916D01*
X18792Y323162D01*
X18969Y324500D01*
X18792Y325838D01*
X18276Y327084D01*
X17455Y328155D01*
X16384Y328976D01*
X15138Y329492D01*
X13800Y329669D01*
D02*
G37*
G36*
X174400Y322113D02*
X173859Y322005D01*
X173401Y321699D01*
X173095Y321241D01*
X172987Y320700D01*
X173095Y320159D01*
X173401Y319701D01*
X173859Y319395D01*
X174400Y319287D01*
X174941Y319395D01*
X175399Y319701D01*
X175705Y320159D01*
X175813Y320700D01*
X175705Y321241D01*
X175399Y321699D01*
X174941Y322005D01*
X174400Y322113D01*
D02*
G37*
G36*
X182252Y322061D02*
X181711Y321953D01*
X181253Y321647D01*
X180947Y321189D01*
X180839Y320648D01*
X180947Y320107D01*
X181253Y319649D01*
X181711Y319343D01*
X182252Y319235D01*
X182793Y319343D01*
X183251Y319649D01*
X183557Y320107D01*
X183665Y320648D01*
X183557Y321189D01*
X183251Y321647D01*
X182793Y321953D01*
X182252Y322061D01*
D02*
G37*
G36*
X178100Y322013D02*
X177559Y321905D01*
X177101Y321599D01*
X176795Y321141D01*
X176687Y320600D01*
X176795Y320059D01*
X177101Y319601D01*
X177559Y319295D01*
X178100Y319187D01*
X178641Y319295D01*
X179099Y319601D01*
X179405Y320059D01*
X179513Y320600D01*
X179405Y321141D01*
X179099Y321599D01*
X178641Y321905D01*
X178100Y322013D01*
D02*
G37*
G36*
X321400Y320861D02*
Y318400D01*
X323861D01*
X323795Y318895D01*
X323527Y319544D01*
X323100Y320100D01*
X322544Y320527D01*
X321895Y320795D01*
X321400Y320861D01*
D02*
G37*
G36*
X321000D02*
X320505Y320795D01*
X319857Y320527D01*
X319300Y320100D01*
X318873Y319544D01*
X318605Y318895D01*
X318539Y318400D01*
X321000D01*
Y320861D01*
D02*
G37*
G36*
X261700Y320613D02*
X261159Y320505D01*
X260701Y320199D01*
X260395Y319741D01*
X260287Y319200D01*
X260395Y318659D01*
X260701Y318201D01*
X261159Y317895D01*
X261700Y317787D01*
X262241Y317895D01*
X262699Y318201D01*
X263005Y318659D01*
X263113Y319200D01*
X263005Y319741D01*
X262699Y320199D01*
X262241Y320505D01*
X261700Y320613D01*
D02*
G37*
G36*
X166700Y319113D02*
X166159Y319005D01*
X165701Y318699D01*
X165395Y318241D01*
X165287Y317700D01*
X165395Y317159D01*
X165701Y316701D01*
X166159Y316395D01*
X166700Y316287D01*
X167241Y316395D01*
X167699Y316701D01*
X168005Y317159D01*
X168113Y317700D01*
X168005Y318241D01*
X167699Y318699D01*
X167241Y319005D01*
X166700Y319113D01*
D02*
G37*
G36*
X172600Y319013D02*
X172059Y318905D01*
X171601Y318599D01*
X171295Y318141D01*
X171187Y317600D01*
X171295Y317059D01*
X171601Y316601D01*
X172059Y316295D01*
X172600Y316187D01*
X173141Y316295D01*
X173599Y316601D01*
X173905Y317059D01*
X174013Y317600D01*
X173905Y318141D01*
X173599Y318599D01*
X173141Y318905D01*
X172600Y319013D01*
D02*
G37*
G36*
X184100Y318913D02*
X183559Y318805D01*
X183101Y318499D01*
X182795Y318041D01*
X182687Y317500D01*
X182795Y316959D01*
X183101Y316501D01*
X183559Y316195D01*
X184100Y316087D01*
X184641Y316195D01*
X185099Y316501D01*
X185405Y316959D01*
X185513Y317500D01*
X185405Y318041D01*
X185099Y318499D01*
X184641Y318805D01*
X184100Y318913D01*
D02*
G37*
G36*
X158200D02*
X157659Y318805D01*
X157201Y318499D01*
X156895Y318041D01*
X156787Y317500D01*
X156895Y316959D01*
X157201Y316501D01*
X157659Y316195D01*
X158200Y316087D01*
X158741Y316195D01*
X159199Y316501D01*
X159505Y316959D01*
X159613Y317500D01*
X159505Y318041D01*
X159199Y318499D01*
X158741Y318805D01*
X158200Y318913D01*
D02*
G37*
G36*
X176100Y318813D02*
X175559Y318705D01*
X175101Y318399D01*
X174795Y317941D01*
X174687Y317400D01*
X174795Y316859D01*
X175101Y316401D01*
X175559Y316095D01*
X176100Y315987D01*
X176641Y316095D01*
X177099Y316401D01*
X177405Y316859D01*
X177513Y317400D01*
X177405Y317941D01*
X177099Y318399D01*
X176641Y318705D01*
X176100Y318813D01*
D02*
G37*
G36*
X180283Y318796D02*
X179743Y318689D01*
X179284Y318383D01*
X178978Y317924D01*
X178870Y317384D01*
X178978Y316843D01*
X179284Y316384D01*
X179743Y316078D01*
X180283Y315970D01*
X180824Y316078D01*
X181283Y316384D01*
X181589Y316843D01*
X181696Y317384D01*
X181589Y317924D01*
X181283Y318383D01*
X180824Y318689D01*
X180283Y318796D01*
D02*
G37*
G36*
X162100Y318513D02*
X161559Y318405D01*
X161101Y318099D01*
X160795Y317641D01*
X160687Y317100D01*
X160795Y316559D01*
X160976Y316288D01*
X161023Y316218D01*
X160662Y315857D01*
X160607Y315895D01*
X160441Y316005D01*
X159900Y316113D01*
X159359Y316005D01*
X158901Y315699D01*
X158595Y315241D01*
X158487Y314700D01*
X158595Y314159D01*
X158901Y313701D01*
X159359Y313395D01*
X159900Y313287D01*
X160441Y313395D01*
X160899Y313701D01*
X161205Y314159D01*
X161313Y314700D01*
X161205Y315241D01*
X161024Y315512D01*
X160977Y315582D01*
X161338Y315943D01*
X161393Y315905D01*
X161559Y315795D01*
X162100Y315687D01*
X162641Y315795D01*
X163099Y316101D01*
X163405Y316559D01*
X163513Y317100D01*
X163405Y317641D01*
X163099Y318099D01*
X162641Y318405D01*
X162100Y318513D01*
D02*
G37*
G36*
X150600Y318413D02*
X150059Y318305D01*
X149601Y317999D01*
X149295Y317541D01*
X149187Y317000D01*
X149295Y316459D01*
X149482Y316179D01*
X149169Y315836D01*
X149128Y315808D01*
X148600Y315913D01*
X148059Y315805D01*
X147601Y315499D01*
X147295Y315041D01*
X147187Y314500D01*
X147295Y313959D01*
X147601Y313501D01*
X148059Y313195D01*
X148600Y313087D01*
X149141Y313195D01*
X149599Y313501D01*
X149905Y313959D01*
X150013Y314500D01*
X149905Y315041D01*
X149718Y315321D01*
X150031Y315664D01*
X150072Y315692D01*
X150600Y315587D01*
X151141Y315695D01*
X151599Y316001D01*
X151905Y316459D01*
X152013Y317000D01*
X151905Y317541D01*
X151599Y317999D01*
X151141Y318305D01*
X150600Y318413D01*
D02*
G37*
G36*
X341200Y320741D02*
X340228Y320547D01*
X339404Y319996D01*
X338853Y319172D01*
X338660Y318200D01*
X338853Y317228D01*
X339404Y316404D01*
X340228Y315853D01*
X341200Y315659D01*
X342172Y315853D01*
X342996Y316404D01*
X343547Y317228D01*
X343741Y318200D01*
X343547Y319172D01*
X342996Y319996D01*
X342172Y320547D01*
X341200Y320741D01*
D02*
G37*
G36*
X323861Y318000D02*
X321400D01*
Y315539D01*
X321895Y315605D01*
X322544Y315873D01*
X323100Y316300D01*
X323527Y316857D01*
X323795Y317505D01*
X323861Y318000D01*
D02*
G37*
G36*
X321000D02*
X318539D01*
X318605Y317505D01*
X318873Y316857D01*
X319300Y316300D01*
X319857Y315873D01*
X320505Y315605D01*
X321000Y315539D01*
Y318000D01*
D02*
G37*
G36*
X331200Y320887D02*
X330505Y320795D01*
X329856Y320527D01*
X329300Y320100D01*
X328873Y319544D01*
X328605Y318895D01*
X328513Y318200D01*
X328605Y317505D01*
X328873Y316857D01*
X329300Y316300D01*
X329856Y315873D01*
X330505Y315605D01*
X331200Y315513D01*
X331895Y315605D01*
X332543Y315873D01*
X333100Y316300D01*
X333527Y316857D01*
X333795Y317505D01*
X333887Y318200D01*
X333795Y318895D01*
X333527Y319544D01*
X333100Y320100D01*
X332543Y320527D01*
X331895Y320795D01*
X331200Y320887D01*
D02*
G37*
G36*
X301200D02*
X300505Y320795D01*
X299856Y320527D01*
X299300Y320100D01*
X298873Y319544D01*
X298605Y318895D01*
X298513Y318200D01*
X298605Y317505D01*
X298873Y316857D01*
X299300Y316300D01*
X299856Y315873D01*
X300505Y315605D01*
X301200Y315513D01*
X301895Y315605D01*
X302543Y315873D01*
X303100Y316300D01*
X303527Y316857D01*
X303795Y317505D01*
X303887Y318200D01*
X303795Y318895D01*
X303527Y319544D01*
X303100Y320100D01*
X302543Y320527D01*
X301895Y320795D01*
X301200Y320887D01*
D02*
G37*
G36*
X291200D02*
X290505Y320795D01*
X289857Y320527D01*
X289300Y320100D01*
X288873Y319544D01*
X288605Y318895D01*
X288513Y318200D01*
X288605Y317505D01*
X288873Y316857D01*
X289300Y316300D01*
X289857Y315873D01*
X290505Y315605D01*
X291200Y315513D01*
X291895Y315605D01*
X292544Y315873D01*
X293100Y316300D01*
X293527Y316857D01*
X293795Y317505D01*
X293887Y318200D01*
X293795Y318895D01*
X293527Y319544D01*
X293100Y320100D01*
X292544Y320527D01*
X291895Y320795D01*
X291200Y320887D01*
D02*
G37*
G36*
X281200D02*
X280505Y320795D01*
X279856Y320527D01*
X279300Y320100D01*
X278873Y319544D01*
X278605Y318895D01*
X278513Y318200D01*
X278605Y317505D01*
X278873Y316857D01*
X279300Y316300D01*
X279856Y315873D01*
X280505Y315605D01*
X281200Y315513D01*
X281895Y315605D01*
X282543Y315873D01*
X283100Y316300D01*
X283527Y316857D01*
X283795Y317505D01*
X283887Y318200D01*
X283795Y318895D01*
X283527Y319544D01*
X283100Y320100D01*
X282543Y320527D01*
X281895Y320795D01*
X281200Y320887D01*
D02*
G37*
G36*
X83600Y317013D02*
X83059Y316905D01*
X82601Y316599D01*
X82295Y316141D01*
X82187Y315600D01*
X82295Y315059D01*
X82601Y314601D01*
X83059Y314295D01*
X83600Y314187D01*
X84141Y314295D01*
X84599Y314601D01*
X84905Y315059D01*
X85013Y315600D01*
X84905Y316141D01*
X84599Y316599D01*
X84141Y316905D01*
X83600Y317013D01*
D02*
G37*
G36*
X260000Y316913D02*
X259459Y316805D01*
X259001Y316499D01*
X258695Y316041D01*
X258587Y315500D01*
X258695Y314959D01*
X259001Y314501D01*
X259459Y314195D01*
X260000Y314087D01*
X260541Y314195D01*
X260999Y314501D01*
X261305Y314959D01*
X261413Y315500D01*
X261305Y316041D01*
X260999Y316499D01*
X260541Y316805D01*
X260000Y316913D01*
D02*
G37*
G36*
X125200Y316513D02*
X124659Y316405D01*
X124201Y316099D01*
X123895Y315641D01*
X123787Y315100D01*
X123895Y314559D01*
X124201Y314101D01*
X124659Y313795D01*
X125200Y313687D01*
X125741Y313795D01*
X126199Y314101D01*
X126505Y314559D01*
X126613Y315100D01*
X126505Y315641D01*
X126199Y316099D01*
X125741Y316405D01*
X125200Y316513D01*
D02*
G37*
G36*
X168300Y316213D02*
X167759Y316105D01*
X167301Y315799D01*
X166995Y315341D01*
X166887Y314800D01*
X166995Y314259D01*
X167301Y313801D01*
X167759Y313495D01*
X168300Y313387D01*
X168841Y313495D01*
X169299Y313801D01*
X169605Y314259D01*
X169713Y314800D01*
X169605Y315341D01*
X169299Y315799D01*
X168841Y316105D01*
X168300Y316213D01*
D02*
G37*
G36*
X154500Y318513D02*
X153959Y318405D01*
X153501Y318099D01*
X153195Y317641D01*
X153087Y317100D01*
X153195Y316559D01*
X153501Y316101D01*
X153959Y315795D01*
X154375Y315712D01*
X154590Y315372D01*
X154637Y315205D01*
X154595Y315141D01*
X154487Y314600D01*
X154595Y314059D01*
X154901Y313601D01*
X155359Y313295D01*
X155900Y313187D01*
X156441Y313295D01*
X156899Y313601D01*
X157205Y314059D01*
X157313Y314600D01*
X157205Y315141D01*
X156899Y315599D01*
X156441Y315905D01*
X156025Y315988D01*
X155810Y316328D01*
X155763Y316495D01*
X155805Y316559D01*
X155913Y317100D01*
X155805Y317641D01*
X155499Y318099D01*
X155041Y318405D01*
X154500Y318513D01*
D02*
G37*
G36*
X164800Y315913D02*
X164259Y315805D01*
X163801Y315499D01*
X163495Y315041D01*
X163387Y314500D01*
X163495Y313959D01*
X163801Y313501D01*
X164259Y313195D01*
X164800Y313087D01*
X165341Y313195D01*
X165799Y313501D01*
X166105Y313959D01*
X166213Y314500D01*
X166105Y315041D01*
X165799Y315499D01*
X165341Y315805D01*
X164800Y315913D01*
D02*
G37*
G36*
X152600Y315813D02*
X152059Y315705D01*
X151601Y315399D01*
X151295Y314941D01*
X151187Y314400D01*
X151295Y313859D01*
X151601Y313401D01*
X152059Y313095D01*
X152600Y312987D01*
X153141Y313095D01*
X153599Y313401D01*
X153905Y313859D01*
X154013Y314400D01*
X153905Y314941D01*
X153599Y315399D01*
X153141Y315705D01*
X152600Y315813D01*
D02*
G37*
G36*
X89600Y315713D02*
X89059Y315605D01*
X88601Y315299D01*
X88295Y314841D01*
X88187Y314300D01*
X88295Y313759D01*
X88601Y313301D01*
X89059Y312995D01*
X89600Y312887D01*
X90141Y312995D01*
X90599Y313301D01*
X90905Y313759D01*
X91013Y314300D01*
X90905Y314841D01*
X90599Y315299D01*
X90141Y315605D01*
X89600Y315713D01*
D02*
G37*
G36*
X109800Y315613D02*
X109259Y315505D01*
X108801Y315199D01*
X108495Y314741D01*
X108387Y314200D01*
X108495Y313659D01*
X108801Y313201D01*
X109259Y312895D01*
X109800Y312787D01*
X110341Y312895D01*
X110799Y313201D01*
X111105Y313659D01*
X111213Y314200D01*
X111105Y314741D01*
X110799Y315199D01*
X110341Y315505D01*
X109800Y315613D01*
D02*
G37*
G36*
X98900D02*
X98359Y315505D01*
X97901Y315199D01*
X97595Y314741D01*
X97487Y314200D01*
X97595Y313659D01*
X97901Y313201D01*
X98359Y312895D01*
X98900Y312787D01*
X99441Y312895D01*
X99899Y313201D01*
X100205Y313659D01*
X100313Y314200D01*
X100205Y314741D01*
X99899Y315199D01*
X99441Y315505D01*
X98900Y315613D01*
D02*
G37*
G36*
X94000Y314513D02*
X93459Y314405D01*
X93001Y314099D01*
X92695Y313641D01*
X92587Y313100D01*
X92695Y312559D01*
X93001Y312101D01*
X93459Y311795D01*
X94000Y311687D01*
X94541Y311795D01*
X94999Y312101D01*
X95305Y312559D01*
X95413Y313100D01*
X95305Y313641D01*
X94999Y314099D01*
X94541Y314405D01*
X94000Y314513D01*
D02*
G37*
G36*
X104100Y314413D02*
X103559Y314305D01*
X103101Y313999D01*
X102795Y313541D01*
X102687Y313000D01*
X102795Y312459D01*
X103101Y312001D01*
X103559Y311695D01*
X104100Y311587D01*
X104641Y311695D01*
X105099Y312001D01*
X105405Y312459D01*
X105513Y313000D01*
X105405Y313541D01*
X105099Y313999D01*
X104641Y314305D01*
X104100Y314413D01*
D02*
G37*
G36*
X83900Y313513D02*
X83359Y313405D01*
X82901Y313099D01*
X82595Y312641D01*
X82487Y312100D01*
X82595Y311559D01*
X82901Y311101D01*
X83359Y310795D01*
X83900Y310687D01*
X84441Y310795D01*
X84899Y311101D01*
X85205Y311559D01*
X85313Y312100D01*
X85205Y312641D01*
X84899Y313099D01*
X84441Y313405D01*
X83900Y313513D01*
D02*
G37*
G36*
X365000Y312713D02*
X364459Y312605D01*
X364001Y312299D01*
X363695Y311841D01*
X363587Y311300D01*
X363695Y310759D01*
X364001Y310301D01*
X364459Y309995D01*
X365000Y309887D01*
X365541Y309995D01*
X365999Y310301D01*
X366305Y310759D01*
X366413Y311300D01*
X366305Y311841D01*
X365999Y312299D01*
X365541Y312605D01*
X365000Y312713D01*
D02*
G37*
G36*
X23800Y319669D02*
X22462Y319493D01*
X21216Y318976D01*
X20145Y318155D01*
X19324Y317084D01*
X18808Y315838D01*
X18631Y314500D01*
X18808Y313162D01*
X19324Y311916D01*
X20145Y310845D01*
X21216Y310024D01*
X22462Y309507D01*
X23800Y309331D01*
X25138Y309507D01*
X26384Y310024D01*
X27455Y310845D01*
X28276Y311916D01*
X28793Y313162D01*
X28969Y314500D01*
X28793Y315838D01*
X28276Y317084D01*
X27455Y318155D01*
X26384Y318976D01*
X25138Y319493D01*
X23800Y319669D01*
D02*
G37*
G36*
X297500Y306713D02*
X296959Y306605D01*
X296501Y306299D01*
X296195Y305841D01*
X296087Y305300D01*
X296195Y304759D01*
X296501Y304301D01*
X296959Y303995D01*
X297500Y303887D01*
X298041Y303995D01*
X298499Y304301D01*
X298805Y304759D01*
X298913Y305300D01*
X298805Y305841D01*
X298499Y306299D01*
X298041Y306605D01*
X297500Y306713D01*
D02*
G37*
G36*
X301300Y305313D02*
X300759Y305205D01*
X300301Y304899D01*
X299995Y304441D01*
X299887Y303900D01*
X299995Y303359D01*
X300301Y302901D01*
X300759Y302595D01*
X301300Y302487D01*
X301841Y302595D01*
X302299Y302901D01*
X302605Y303359D01*
X302713Y303900D01*
X302605Y304441D01*
X302299Y304899D01*
X301841Y305205D01*
X301300Y305313D01*
D02*
G37*
G36*
X310100Y305013D02*
X309559Y304905D01*
X309101Y304599D01*
X308795Y304141D01*
X308687Y303600D01*
X308795Y303059D01*
X309101Y302601D01*
X309559Y302295D01*
X310100Y302187D01*
X310641Y302295D01*
X311099Y302601D01*
X311405Y303059D01*
X311513Y303600D01*
X311405Y304141D01*
X311099Y304599D01*
X310641Y304905D01*
X310100Y305013D01*
D02*
G37*
G36*
X81000Y301961D02*
Y299500D01*
X83461D01*
X83395Y299995D01*
X83127Y300643D01*
X82700Y301200D01*
X82143Y301627D01*
X81495Y301895D01*
X81000Y301961D01*
D02*
G37*
G36*
X80600D02*
X80105Y301895D01*
X79457Y301627D01*
X78900Y301200D01*
X78473Y300643D01*
X78205Y299995D01*
X78139Y299500D01*
X80600D01*
Y301961D01*
D02*
G37*
G36*
X33800Y309669D02*
X32462Y309492D01*
X31216Y308976D01*
X30145Y308155D01*
X29324Y307084D01*
X28808Y305838D01*
X28631Y304500D01*
X28808Y303162D01*
X29324Y301916D01*
X30145Y300845D01*
X31216Y300024D01*
X32462Y299507D01*
X33800Y299331D01*
X35138Y299507D01*
X36384Y300024D01*
X37455Y300845D01*
X38276Y301916D01*
X38792Y303162D01*
X38969Y304500D01*
X38792Y305838D01*
X38276Y307084D01*
X37455Y308155D01*
X36384Y308976D01*
X35138Y309492D01*
X33800Y309669D01*
D02*
G37*
G36*
X13800D02*
X12462Y309492D01*
X11216Y308976D01*
X10145Y308155D01*
X9324Y307084D01*
X8807Y305838D01*
X8631Y304500D01*
X8807Y303162D01*
X9324Y301916D01*
X10145Y300845D01*
X11216Y300024D01*
X12462Y299507D01*
X13800Y299331D01*
X15138Y299507D01*
X16384Y300024D01*
X17455Y300845D01*
X18276Y301916D01*
X18792Y303162D01*
X18969Y304500D01*
X18792Y305838D01*
X18276Y307084D01*
X17455Y308155D01*
X16384Y308976D01*
X15138Y309492D01*
X13800Y309669D01*
D02*
G37*
G36*
X60800Y301840D02*
X59828Y301647D01*
X59004Y301096D01*
X58453Y300272D01*
X58259Y299300D01*
X58453Y298328D01*
X59004Y297504D01*
X59828Y296953D01*
X60800Y296760D01*
X61772Y296953D01*
X62596Y297504D01*
X63147Y298328D01*
X63341Y299300D01*
X63147Y300272D01*
X62596Y301096D01*
X61772Y301647D01*
X60800Y301840D01*
D02*
G37*
G36*
X83461Y299100D02*
X81000D01*
Y296639D01*
X81495Y296705D01*
X82143Y296973D01*
X82700Y297400D01*
X83127Y297956D01*
X83395Y298605D01*
X83461Y299100D01*
D02*
G37*
G36*
X80600D02*
X78139D01*
X78205Y298605D01*
X78473Y297956D01*
X78900Y297400D01*
X79457Y296973D01*
X80105Y296705D01*
X80600Y296639D01*
Y299100D01*
D02*
G37*
G36*
X120800Y301987D02*
X120105Y301895D01*
X119457Y301627D01*
X118900Y301200D01*
X118473Y300643D01*
X118205Y299995D01*
X118113Y299300D01*
X118205Y298605D01*
X118473Y297956D01*
X118900Y297400D01*
X119457Y296973D01*
X120105Y296705D01*
X120800Y296613D01*
X121495Y296705D01*
X122143Y296973D01*
X122700Y297400D01*
X123127Y297956D01*
X123395Y298605D01*
X123487Y299300D01*
X123395Y299995D01*
X123127Y300643D01*
X122700Y301200D01*
X122143Y301627D01*
X121495Y301895D01*
X120800Y301987D01*
D02*
G37*
G36*
X110800D02*
X110105Y301895D01*
X109457Y301627D01*
X108900Y301200D01*
X108473Y300643D01*
X108205Y299995D01*
X108113Y299300D01*
X108205Y298605D01*
X108473Y297956D01*
X108900Y297400D01*
X109457Y296973D01*
X110105Y296705D01*
X110800Y296613D01*
X111495Y296705D01*
X112144Y296973D01*
X112700Y297400D01*
X113127Y297956D01*
X113395Y298605D01*
X113487Y299300D01*
X113395Y299995D01*
X113127Y300643D01*
X112700Y301200D01*
X112144Y301627D01*
X111495Y301895D01*
X110800Y301987D01*
D02*
G37*
G36*
X100800D02*
X100105Y301895D01*
X99457Y301627D01*
X98900Y301200D01*
X98473Y300643D01*
X98205Y299995D01*
X98113Y299300D01*
X98205Y298605D01*
X98473Y297956D01*
X98900Y297400D01*
X99457Y296973D01*
X100105Y296705D01*
X100800Y296613D01*
X101495Y296705D01*
X102144Y296973D01*
X102700Y297400D01*
X103127Y297956D01*
X103395Y298605D01*
X103487Y299300D01*
X103395Y299995D01*
X103127Y300643D01*
X102700Y301200D01*
X102144Y301627D01*
X101495Y301895D01*
X100800Y301987D01*
D02*
G37*
G36*
X70800D02*
X70105Y301895D01*
X69456Y301627D01*
X68900Y301200D01*
X68473Y300643D01*
X68205Y299995D01*
X68113Y299300D01*
X68205Y298605D01*
X68473Y297956D01*
X68900Y297400D01*
X69456Y296973D01*
X70105Y296705D01*
X70800Y296613D01*
X71495Y296705D01*
X72144Y296973D01*
X72700Y297400D01*
X73127Y297956D01*
X73395Y298605D01*
X73487Y299300D01*
X73395Y299995D01*
X73127Y300643D01*
X72700Y301200D01*
X72144Y301627D01*
X71495Y301895D01*
X70800Y301987D01*
D02*
G37*
G36*
X199600Y299113D02*
X199059Y299005D01*
X198601Y298699D01*
X198295Y298241D01*
X198187Y297700D01*
X198295Y297159D01*
X198601Y296701D01*
X199059Y296395D01*
X199600Y296287D01*
X200141Y296395D01*
X200599Y296701D01*
X200905Y297159D01*
X201013Y297700D01*
X200905Y298241D01*
X200599Y298699D01*
X200141Y299005D01*
X199600Y299113D01*
D02*
G37*
G36*
X189300Y299013D02*
X188759Y298905D01*
X188301Y298599D01*
X187995Y298141D01*
X187887Y297600D01*
X187995Y297059D01*
X188301Y296601D01*
X188759Y296295D01*
X189300Y296187D01*
X189841Y296295D01*
X190299Y296601D01*
X190605Y297059D01*
X190713Y297600D01*
X190605Y298141D01*
X190299Y298599D01*
X189841Y298905D01*
X189300Y299013D01*
D02*
G37*
G36*
X194500Y298913D02*
X193959Y298805D01*
X193501Y298499D01*
X193195Y298041D01*
X193087Y297500D01*
X193195Y296959D01*
X193501Y296501D01*
X193959Y296195D01*
X194500Y296087D01*
X195041Y296195D01*
X195499Y296501D01*
X195805Y296959D01*
X195913Y297500D01*
X195805Y298041D01*
X195499Y298499D01*
X195041Y298805D01*
X194500Y298913D01*
D02*
G37*
G36*
X262000Y297913D02*
X261459Y297805D01*
X261001Y297499D01*
X260695Y297041D01*
X260587Y296500D01*
X260695Y295959D01*
X261001Y295501D01*
X261459Y295195D01*
X262000Y295087D01*
X262541Y295195D01*
X262999Y295501D01*
X263305Y295959D01*
X263413Y296500D01*
X263305Y297041D01*
X262999Y297499D01*
X262541Y297805D01*
X262000Y297913D01*
D02*
G37*
G36*
X208800Y297113D02*
X208259Y297005D01*
X207801Y296699D01*
X207495Y296241D01*
X207387Y295700D01*
X207495Y295159D01*
X207801Y294701D01*
X208259Y294395D01*
X208800Y294287D01*
X209341Y294395D01*
X209799Y294701D01*
X210105Y295159D01*
X210213Y295700D01*
X210105Y296241D01*
X209799Y296699D01*
X209341Y297005D01*
X208800Y297113D01*
D02*
G37*
G36*
X205300D02*
X204759Y297005D01*
X204301Y296699D01*
X203995Y296241D01*
X203887Y295700D01*
X203995Y295159D01*
X204301Y294701D01*
X204759Y294395D01*
X205300Y294287D01*
X205841Y294395D01*
X206299Y294701D01*
X206605Y295159D01*
X206713Y295700D01*
X206605Y296241D01*
X206299Y296699D01*
X205841Y297005D01*
X205300Y297113D01*
D02*
G37*
G36*
X268700Y294413D02*
X268159Y294305D01*
X267701Y293999D01*
X267484Y293674D01*
X267044Y293612D01*
X266905Y293640D01*
X266799Y293799D01*
X266341Y294105D01*
X265800Y294213D01*
X265259Y294105D01*
X264801Y293799D01*
X264603Y293503D01*
X264394Y293477D01*
X264066Y293511D01*
X264056Y293515D01*
X263799Y293899D01*
X263341Y294205D01*
X262800Y294313D01*
X262259Y294205D01*
X261801Y293899D01*
X261495Y293441D01*
X261387Y292900D01*
X261495Y292359D01*
X261801Y291901D01*
X262259Y291595D01*
X262800Y291487D01*
X263341Y291595D01*
X263799Y291901D01*
X263997Y292197D01*
X264206Y292223D01*
X264534Y292189D01*
X264544Y292185D01*
X264801Y291801D01*
X265259Y291495D01*
X265800Y291387D01*
X266341Y291495D01*
X266799Y291801D01*
X267016Y292126D01*
X267456Y292188D01*
X267595Y292160D01*
X267701Y292001D01*
X268159Y291695D01*
X268700Y291587D01*
X269241Y291695D01*
X269699Y292001D01*
X270005Y292459D01*
X270113Y293000D01*
X270005Y293541D01*
X269699Y293999D01*
X269241Y294305D01*
X268700Y294413D01*
D02*
G37*
G36*
X191800Y296313D02*
X191259Y296205D01*
X190801Y295899D01*
X190495Y295441D01*
X190387Y294900D01*
X190495Y294359D01*
X190801Y293901D01*
X191259Y293595D01*
X191800Y293487D01*
X192341Y293595D01*
X192799Y293901D01*
X193105Y294359D01*
X193213Y294900D01*
X193105Y295441D01*
X192799Y295899D01*
X192341Y296205D01*
X191800Y296313D01*
D02*
G37*
G36*
X186808Y296121D02*
X186267Y296013D01*
X185808Y295707D01*
X185502Y295248D01*
X185395Y294707D01*
X185502Y294167D01*
X185808Y293708D01*
X186267Y293402D01*
X186808Y293295D01*
X187348Y293402D01*
X187807Y293708D01*
X188113Y294167D01*
X188221Y294707D01*
X188113Y295248D01*
X187807Y295707D01*
X187348Y296013D01*
X186808Y296121D01*
D02*
G37*
G36*
X197100Y296113D02*
X196559Y296005D01*
X196101Y295699D01*
X195795Y295241D01*
X195687Y294700D01*
X195795Y294159D01*
X196101Y293701D01*
X196559Y293395D01*
X197100Y293287D01*
X197641Y293395D01*
X198099Y293701D01*
X198405Y294159D01*
X198513Y294700D01*
X198405Y295241D01*
X198099Y295699D01*
X197641Y296005D01*
X197100Y296113D01*
D02*
G37*
G36*
X202000Y295913D02*
X201459Y295805D01*
X201001Y295499D01*
X200695Y295041D01*
X200587Y294500D01*
X200695Y293959D01*
X201001Y293501D01*
X201459Y293195D01*
X202000Y293087D01*
X202541Y293195D01*
X202999Y293501D01*
X203305Y293959D01*
X203413Y294500D01*
X203305Y295041D01*
X202999Y295499D01*
X202541Y295805D01*
X202000Y295913D01*
D02*
G37*
G36*
X321400Y292061D02*
Y289600D01*
X323861D01*
X323795Y290095D01*
X323527Y290743D01*
X323100Y291300D01*
X322544Y291727D01*
X321895Y291995D01*
X321400Y292061D01*
D02*
G37*
G36*
X321000D02*
X320505Y291995D01*
X319857Y291727D01*
X319300Y291300D01*
X318873Y290743D01*
X318605Y290095D01*
X318539Y289600D01*
X321000D01*
Y292061D01*
D02*
G37*
G36*
X35300Y291013D02*
X34759Y290905D01*
X34301Y290599D01*
X33995Y290141D01*
X33887Y289600D01*
X33995Y289059D01*
X34301Y288601D01*
X34759Y288295D01*
X35300Y288187D01*
X35841Y288295D01*
X36299Y288601D01*
X36605Y289059D01*
X36713Y289600D01*
X36605Y290141D01*
X36299Y290599D01*
X35841Y290905D01*
X35300Y291013D01*
D02*
G37*
G36*
X341200Y291940D02*
X340228Y291747D01*
X339404Y291196D01*
X338853Y290372D01*
X338660Y289400D01*
X338853Y288428D01*
X339404Y287604D01*
X340228Y287053D01*
X341200Y286859D01*
X342172Y287053D01*
X342996Y287604D01*
X343547Y288428D01*
X343741Y289400D01*
X343547Y290372D01*
X342996Y291196D01*
X342172Y291747D01*
X341200Y291940D01*
D02*
G37*
G36*
X323861Y289200D02*
X321400D01*
Y286739D01*
X321895Y286805D01*
X322544Y287073D01*
X323100Y287500D01*
X323527Y288056D01*
X323795Y288705D01*
X323861Y289200D01*
D02*
G37*
G36*
X321000D02*
X318539D01*
X318605Y288705D01*
X318873Y288056D01*
X319300Y287500D01*
X319857Y287073D01*
X320505Y286805D01*
X321000Y286739D01*
Y289200D01*
D02*
G37*
G36*
X331200Y292087D02*
X330505Y291995D01*
X329856Y291727D01*
X329300Y291300D01*
X328873Y290743D01*
X328605Y290095D01*
X328513Y289400D01*
X328605Y288705D01*
X328873Y288056D01*
X329300Y287500D01*
X329856Y287073D01*
X330505Y286805D01*
X331200Y286713D01*
X331895Y286805D01*
X332543Y287073D01*
X333100Y287500D01*
X333527Y288056D01*
X333795Y288705D01*
X333887Y289400D01*
X333795Y290095D01*
X333527Y290743D01*
X333100Y291300D01*
X332543Y291727D01*
X331895Y291995D01*
X331200Y292087D01*
D02*
G37*
G36*
X301200D02*
X300505Y291995D01*
X299856Y291727D01*
X299300Y291300D01*
X298873Y290743D01*
X298605Y290095D01*
X298513Y289400D01*
X298605Y288705D01*
X298873Y288056D01*
X299300Y287500D01*
X299856Y287073D01*
X300505Y286805D01*
X301200Y286713D01*
X301895Y286805D01*
X302543Y287073D01*
X303100Y287500D01*
X303527Y288056D01*
X303795Y288705D01*
X303887Y289400D01*
X303795Y290095D01*
X303527Y290743D01*
X303100Y291300D01*
X302543Y291727D01*
X301895Y291995D01*
X301200Y292087D01*
D02*
G37*
G36*
X291200D02*
X290505Y291995D01*
X289857Y291727D01*
X289300Y291300D01*
X288873Y290743D01*
X288605Y290095D01*
X288513Y289400D01*
X288605Y288705D01*
X288873Y288056D01*
X289300Y287500D01*
X289857Y287073D01*
X290505Y286805D01*
X291200Y286713D01*
X291895Y286805D01*
X292544Y287073D01*
X293100Y287500D01*
X293527Y288056D01*
X293795Y288705D01*
X293887Y289400D01*
X293795Y290095D01*
X293527Y290743D01*
X293100Y291300D01*
X292544Y291727D01*
X291895Y291995D01*
X291200Y292087D01*
D02*
G37*
G36*
X281200D02*
X280505Y291995D01*
X279856Y291727D01*
X279300Y291300D01*
X278873Y290743D01*
X278605Y290095D01*
X278513Y289400D01*
X278605Y288705D01*
X278873Y288056D01*
X279300Y287500D01*
X279856Y287073D01*
X280505Y286805D01*
X281200Y286713D01*
X281895Y286805D01*
X282543Y287073D01*
X283100Y287500D01*
X283527Y288056D01*
X283795Y288705D01*
X283887Y289400D01*
X283795Y290095D01*
X283527Y290743D01*
X283100Y291300D01*
X282543Y291727D01*
X281895Y291995D01*
X281200Y292087D01*
D02*
G37*
G36*
X366200Y283113D02*
X365659Y283005D01*
X365201Y282699D01*
X364895Y282241D01*
X364787Y281700D01*
X364895Y281159D01*
X365201Y280701D01*
X365659Y280395D01*
X366200Y280287D01*
X366741Y280395D01*
X367199Y280701D01*
X367505Y281159D01*
X367613Y281700D01*
X367505Y282241D01*
X367199Y282699D01*
X366741Y283005D01*
X366200Y283113D01*
D02*
G37*
G36*
X208900Y281513D02*
X208359Y281405D01*
X207901Y281099D01*
X207595Y280641D01*
X207487Y280100D01*
X207595Y279559D01*
X207901Y279101D01*
X208359Y278795D01*
X208900Y278687D01*
X209441Y278795D01*
X209899Y279101D01*
X210205Y279559D01*
X210313Y280100D01*
X210205Y280641D01*
X209899Y281099D01*
X209441Y281405D01*
X208900Y281513D01*
D02*
G37*
G36*
X81200Y272361D02*
Y269900D01*
X83661D01*
X83595Y270395D01*
X83327Y271043D01*
X82900Y271600D01*
X82344Y272027D01*
X81695Y272295D01*
X81200Y272361D01*
D02*
G37*
G36*
X80800D02*
X80305Y272295D01*
X79656Y272027D01*
X79100Y271600D01*
X78673Y271043D01*
X78405Y270395D01*
X78339Y269900D01*
X80800D01*
Y272361D01*
D02*
G37*
G36*
X61000Y272240D02*
X60028Y272047D01*
X59204Y271496D01*
X58653Y270672D01*
X58460Y269700D01*
X58653Y268728D01*
X59204Y267904D01*
X60028Y267353D01*
X61000Y267160D01*
X61972Y267353D01*
X62796Y267904D01*
X63347Y268728D01*
X63541Y269700D01*
X63347Y270672D01*
X62796Y271496D01*
X61972Y272047D01*
X61000Y272240D01*
D02*
G37*
G36*
X83661Y269500D02*
X81200D01*
Y267039D01*
X81695Y267105D01*
X82344Y267373D01*
X82900Y267800D01*
X83327Y268356D01*
X83595Y269005D01*
X83661Y269500D01*
D02*
G37*
G36*
X80800D02*
X78339D01*
X78405Y269005D01*
X78673Y268356D01*
X79100Y267800D01*
X79656Y267373D01*
X80305Y267105D01*
X80800Y267039D01*
Y269500D01*
D02*
G37*
G36*
X121000Y272387D02*
X120305Y272295D01*
X119657Y272027D01*
X119100Y271600D01*
X118673Y271043D01*
X118405Y270395D01*
X118313Y269700D01*
X118405Y269005D01*
X118673Y268356D01*
X119100Y267800D01*
X119657Y267373D01*
X120305Y267105D01*
X121000Y267013D01*
X121695Y267105D01*
X122344Y267373D01*
X122900Y267800D01*
X123327Y268356D01*
X123595Y269005D01*
X123687Y269700D01*
X123595Y270395D01*
X123327Y271043D01*
X122900Y271600D01*
X122344Y272027D01*
X121695Y272295D01*
X121000Y272387D01*
D02*
G37*
G36*
X111000D02*
X110305Y272295D01*
X109657Y272027D01*
X109100Y271600D01*
X108673Y271043D01*
X108405Y270395D01*
X108313Y269700D01*
X108405Y269005D01*
X108673Y268356D01*
X109100Y267800D01*
X109657Y267373D01*
X110305Y267105D01*
X111000Y267013D01*
X111695Y267105D01*
X112344Y267373D01*
X112900Y267800D01*
X113327Y268356D01*
X113595Y269005D01*
X113687Y269700D01*
X113595Y270395D01*
X113327Y271043D01*
X112900Y271600D01*
X112344Y272027D01*
X111695Y272295D01*
X111000Y272387D01*
D02*
G37*
G36*
X101000D02*
X100305Y272295D01*
X99656Y272027D01*
X99100Y271600D01*
X98673Y271043D01*
X98405Y270395D01*
X98313Y269700D01*
X98405Y269005D01*
X98673Y268356D01*
X99100Y267800D01*
X99656Y267373D01*
X100305Y267105D01*
X101000Y267013D01*
X101695Y267105D01*
X102343Y267373D01*
X102900Y267800D01*
X103327Y268356D01*
X103595Y269005D01*
X103687Y269700D01*
X103595Y270395D01*
X103327Y271043D01*
X102900Y271600D01*
X102343Y272027D01*
X101695Y272295D01*
X101000Y272387D01*
D02*
G37*
G36*
X71000D02*
X70305Y272295D01*
X69656Y272027D01*
X69100Y271600D01*
X68673Y271043D01*
X68405Y270395D01*
X68313Y269700D01*
X68405Y269005D01*
X68673Y268356D01*
X69100Y267800D01*
X69656Y267373D01*
X70305Y267105D01*
X71000Y267013D01*
X71695Y267105D01*
X72343Y267373D01*
X72900Y267800D01*
X73327Y268356D01*
X73595Y269005D01*
X73687Y269700D01*
X73595Y270395D01*
X73327Y271043D01*
X72900Y271600D01*
X72343Y272027D01*
X71695Y272295D01*
X71000Y272387D01*
D02*
G37*
G36*
X141900Y268513D02*
X141359Y268405D01*
X140901Y268099D01*
X140595Y267641D01*
X140487Y267100D01*
X140595Y266559D01*
X140901Y266101D01*
X141359Y265795D01*
X141900Y265687D01*
X142441Y265795D01*
X142899Y266101D01*
X143205Y266559D01*
X143313Y267100D01*
X143205Y267641D01*
X142899Y268099D01*
X142441Y268405D01*
X141900Y268513D01*
D02*
G37*
G36*
X207792Y266205D02*
X207251Y266097D01*
X206793Y265791D01*
X206487Y265333D01*
X206379Y264792D01*
X206487Y264251D01*
X206793Y263793D01*
X207251Y263487D01*
X207792Y263379D01*
X208333Y263487D01*
X208791Y263793D01*
X209098Y264251D01*
X209205Y264792D01*
X209098Y265333D01*
X208791Y265791D01*
X208333Y266097D01*
X207792Y266205D01*
D02*
G37*
G36*
X321400Y264061D02*
Y261600D01*
X323861D01*
X323795Y262095D01*
X323527Y262743D01*
X323100Y263300D01*
X322544Y263727D01*
X321895Y263995D01*
X321400Y264061D01*
D02*
G37*
G36*
X321000D02*
X320505Y263995D01*
X319857Y263727D01*
X319300Y263300D01*
X318873Y262743D01*
X318605Y262095D01*
X318539Y261600D01*
X321000D01*
Y264061D01*
D02*
G37*
G36*
X321200Y261400D02*
D01*
D01*
D01*
D01*
D02*
G37*
G36*
X36100Y264013D02*
X35559Y263905D01*
X35101Y263599D01*
X34795Y263141D01*
X34687Y262600D01*
X34795Y262059D01*
X35101Y261601D01*
X35559Y261295D01*
X36100Y261187D01*
X36641Y261295D01*
X37099Y261601D01*
X37405Y262059D01*
X37513Y262600D01*
X37405Y263141D01*
X37099Y263599D01*
X36641Y263905D01*
X36100Y264013D01*
D02*
G37*
G36*
X140800Y263313D02*
X140259Y263205D01*
X139801Y262899D01*
X139495Y262441D01*
X139387Y261900D01*
X139495Y261359D01*
X139801Y260901D01*
X140259Y260595D01*
X140800Y260487D01*
X141341Y260595D01*
X141799Y260901D01*
X142105Y261359D01*
X142213Y261900D01*
X142105Y262441D01*
X141799Y262899D01*
X141341Y263205D01*
X140800Y263313D01*
D02*
G37*
G36*
X341200Y263941D02*
X340228Y263747D01*
X339404Y263196D01*
X338853Y262372D01*
X338660Y261400D01*
X338853Y260428D01*
X339404Y259604D01*
X340228Y259053D01*
X341200Y258859D01*
X342172Y259053D01*
X342996Y259604D01*
X343547Y260428D01*
X343741Y261400D01*
X343547Y262372D01*
X342996Y263196D01*
X342172Y263747D01*
X341200Y263941D01*
D02*
G37*
G36*
X323861Y261200D02*
X321400D01*
Y258739D01*
X321895Y258805D01*
X322544Y259073D01*
X323100Y259500D01*
X323527Y260056D01*
X323795Y260705D01*
X323861Y261200D01*
D02*
G37*
G36*
X321000D02*
X318539D01*
X318605Y260705D01*
X318873Y260056D01*
X319300Y259500D01*
X319857Y259073D01*
X320505Y258805D01*
X321000Y258739D01*
Y261200D01*
D02*
G37*
G36*
X331200Y264087D02*
X330505Y263995D01*
X329856Y263727D01*
X329300Y263300D01*
X328873Y262743D01*
X328605Y262095D01*
X328513Y261400D01*
X328605Y260705D01*
X328873Y260056D01*
X329300Y259500D01*
X329856Y259073D01*
X330505Y258805D01*
X331200Y258713D01*
X331895Y258805D01*
X332543Y259073D01*
X333100Y259500D01*
X333527Y260056D01*
X333795Y260705D01*
X333887Y261400D01*
X333795Y262095D01*
X333527Y262743D01*
X333100Y263300D01*
X332543Y263727D01*
X331895Y263995D01*
X331200Y264087D01*
D02*
G37*
G36*
X301200D02*
X300505Y263995D01*
X299856Y263727D01*
X299300Y263300D01*
X298873Y262743D01*
X298605Y262095D01*
X298513Y261400D01*
X298605Y260705D01*
X298873Y260056D01*
X299300Y259500D01*
X299856Y259073D01*
X300505Y258805D01*
X301200Y258713D01*
X301895Y258805D01*
X302543Y259073D01*
X303100Y259500D01*
X303527Y260056D01*
X303795Y260705D01*
X303887Y261400D01*
X303795Y262095D01*
X303527Y262743D01*
X303100Y263300D01*
X302543Y263727D01*
X301895Y263995D01*
X301200Y264087D01*
D02*
G37*
G36*
X291200D02*
X290505Y263995D01*
X289857Y263727D01*
X289300Y263300D01*
X288873Y262743D01*
X288605Y262095D01*
X288513Y261400D01*
X288605Y260705D01*
X288873Y260056D01*
X289300Y259500D01*
X289857Y259073D01*
X290505Y258805D01*
X291200Y258713D01*
X291895Y258805D01*
X292544Y259073D01*
X293100Y259500D01*
X293527Y260056D01*
X293795Y260705D01*
X293887Y261400D01*
X293795Y262095D01*
X293527Y262743D01*
X293100Y263300D01*
X292544Y263727D01*
X291895Y263995D01*
X291200Y264087D01*
D02*
G37*
G36*
X281200D02*
X280505Y263995D01*
X279856Y263727D01*
X279300Y263300D01*
X278873Y262743D01*
X278605Y262095D01*
X278513Y261400D01*
X278605Y260705D01*
X278873Y260056D01*
X279300Y259500D01*
X279856Y259073D01*
X280505Y258805D01*
X281200Y258713D01*
X281895Y258805D01*
X282543Y259073D01*
X283100Y259500D01*
X283527Y260056D01*
X283795Y260705D01*
X283887Y261400D01*
X283795Y262095D01*
X283527Y262743D01*
X283100Y263300D01*
X282543Y263727D01*
X281895Y263995D01*
X281200Y264087D01*
D02*
G37*
G36*
X141300Y258113D02*
X140759Y258005D01*
X140301Y257699D01*
X139995Y257241D01*
X139887Y256700D01*
X139995Y256159D01*
X140301Y255701D01*
X140759Y255395D01*
X141300Y255287D01*
X141841Y255395D01*
X142299Y255701D01*
X142605Y256159D01*
X142713Y256700D01*
X142605Y257241D01*
X142299Y257699D01*
X141841Y258005D01*
X141300Y258113D01*
D02*
G37*
G36*
X366900Y255813D02*
X366359Y255705D01*
X365901Y255399D01*
X365595Y254941D01*
X365487Y254400D01*
X365595Y253859D01*
X365901Y253401D01*
X366359Y253095D01*
X366900Y252987D01*
X367441Y253095D01*
X367899Y253401D01*
X368205Y253859D01*
X368313Y254400D01*
X368205Y254941D01*
X367899Y255399D01*
X367441Y255705D01*
X366900Y255813D01*
D02*
G37*
G36*
X125500Y254513D02*
X124959Y254405D01*
X124501Y254099D01*
X124195Y253641D01*
X124087Y253100D01*
X124195Y252559D01*
X124501Y252101D01*
X124959Y251795D01*
X125500Y251687D01*
X126041Y251795D01*
X126499Y252101D01*
X126805Y252559D01*
X126913Y253100D01*
X126805Y253641D01*
X126499Y254099D01*
X126041Y254405D01*
X125500Y254513D01*
D02*
G37*
G36*
X139800Y254313D02*
X139259Y254205D01*
X138801Y253899D01*
X138495Y253441D01*
X138387Y252900D01*
X138495Y252359D01*
X138801Y251901D01*
X139259Y251595D01*
X139800Y251487D01*
X140341Y251595D01*
X140799Y251901D01*
X141105Y252359D01*
X141213Y252900D01*
X141105Y253441D01*
X140799Y253899D01*
X140341Y254205D01*
X139800Y254313D01*
D02*
G37*
G36*
X207900Y251913D02*
X207359Y251805D01*
X206901Y251499D01*
X206595Y251041D01*
X206487Y250500D01*
X206595Y249959D01*
X206901Y249501D01*
X207359Y249195D01*
X207900Y249087D01*
X208441Y249195D01*
X208899Y249501D01*
X209205Y249959D01*
X209313Y250500D01*
X209205Y251041D01*
X208899Y251499D01*
X208441Y251805D01*
X207900Y251913D01*
D02*
G37*
G36*
X136700Y248813D02*
X136159Y248705D01*
X135701Y248399D01*
X135395Y247941D01*
X135287Y247400D01*
X135395Y246859D01*
X135701Y246401D01*
X136159Y246095D01*
X136700Y245987D01*
X137241Y246095D01*
X137699Y246401D01*
X138005Y246859D01*
X138113Y247400D01*
X138005Y247941D01*
X137699Y248399D01*
X137241Y248705D01*
X136700Y248813D01*
D02*
G37*
G36*
X208200Y246513D02*
X207659Y246405D01*
X207201Y246099D01*
X206895Y245641D01*
X206787Y245100D01*
X206895Y244559D01*
X207201Y244101D01*
X207659Y243795D01*
X208200Y243687D01*
X208741Y243795D01*
X209199Y244101D01*
X209505Y244559D01*
X209613Y245100D01*
X209505Y245641D01*
X209199Y246099D01*
X208741Y246405D01*
X208200Y246513D01*
D02*
G37*
G36*
X81400Y241661D02*
Y239200D01*
X83861D01*
X83795Y239695D01*
X83527Y240343D01*
X83100Y240900D01*
X82543Y241327D01*
X81895Y241595D01*
X81400Y241661D01*
D02*
G37*
G36*
X81000D02*
X80505Y241595D01*
X79856Y241327D01*
X79300Y240900D01*
X78873Y240343D01*
X78605Y239695D01*
X78539Y239200D01*
X81000D01*
Y241661D01*
D02*
G37*
G36*
X202000Y240613D02*
X201459Y240505D01*
X201001Y240199D01*
X200695Y239741D01*
X200587Y239200D01*
X200695Y238659D01*
X201001Y238201D01*
X201459Y237895D01*
X202000Y237787D01*
X202541Y237895D01*
X202999Y238201D01*
X203305Y238659D01*
X203413Y239200D01*
X203305Y239741D01*
X202999Y240199D01*
X202541Y240505D01*
X202000Y240613D01*
D02*
G37*
G36*
X61200Y241541D02*
X60228Y241347D01*
X59404Y240796D01*
X58853Y239972D01*
X58659Y239000D01*
X58853Y238028D01*
X59404Y237204D01*
X60228Y236653D01*
X61200Y236459D01*
X62172Y236653D01*
X62996Y237204D01*
X63547Y238028D01*
X63740Y239000D01*
X63547Y239972D01*
X62996Y240796D01*
X62172Y241347D01*
X61200Y241541D01*
D02*
G37*
G36*
X83861Y238800D02*
X81400D01*
Y236339D01*
X81895Y236405D01*
X82543Y236673D01*
X83100Y237100D01*
X83527Y237656D01*
X83795Y238305D01*
X83861Y238800D01*
D02*
G37*
G36*
X81000D02*
X78539D01*
X78605Y238305D01*
X78873Y237656D01*
X79300Y237100D01*
X79856Y236673D01*
X80505Y236405D01*
X81000Y236339D01*
Y238800D01*
D02*
G37*
G36*
X121200Y241687D02*
X120505Y241595D01*
X119857Y241327D01*
X119300Y240900D01*
X118873Y240343D01*
X118605Y239695D01*
X118513Y239000D01*
X118605Y238305D01*
X118873Y237656D01*
X119300Y237100D01*
X119857Y236673D01*
X120505Y236405D01*
X121200Y236313D01*
X121895Y236405D01*
X122544Y236673D01*
X123100Y237100D01*
X123527Y237656D01*
X123795Y238305D01*
X123887Y239000D01*
X123795Y239695D01*
X123527Y240343D01*
X123100Y240900D01*
X122544Y241327D01*
X121895Y241595D01*
X121200Y241687D01*
D02*
G37*
G36*
X111200D02*
X110505Y241595D01*
X109856Y241327D01*
X109300Y240900D01*
X108873Y240343D01*
X108605Y239695D01*
X108513Y239000D01*
X108605Y238305D01*
X108873Y237656D01*
X109300Y237100D01*
X109856Y236673D01*
X110505Y236405D01*
X111200Y236313D01*
X111895Y236405D01*
X112543Y236673D01*
X113100Y237100D01*
X113527Y237656D01*
X113795Y238305D01*
X113887Y239000D01*
X113795Y239695D01*
X113527Y240343D01*
X113100Y240900D01*
X112543Y241327D01*
X111895Y241595D01*
X111200Y241687D01*
D02*
G37*
G36*
X101200D02*
X100505Y241595D01*
X99857Y241327D01*
X99300Y240900D01*
X98873Y240343D01*
X98605Y239695D01*
X98513Y239000D01*
X98605Y238305D01*
X98873Y237656D01*
X99300Y237100D01*
X99857Y236673D01*
X100505Y236405D01*
X101200Y236313D01*
X101895Y236405D01*
X102543Y236673D01*
X103100Y237100D01*
X103527Y237656D01*
X103795Y238305D01*
X103887Y239000D01*
X103795Y239695D01*
X103527Y240343D01*
X103100Y240900D01*
X102543Y241327D01*
X101895Y241595D01*
X101200Y241687D01*
D02*
G37*
G36*
X71200D02*
X70505Y241595D01*
X69857Y241327D01*
X69300Y240900D01*
X68873Y240343D01*
X68605Y239695D01*
X68513Y239000D01*
X68605Y238305D01*
X68873Y237656D01*
X69300Y237100D01*
X69857Y236673D01*
X70505Y236405D01*
X71200Y236313D01*
X71895Y236405D01*
X72544Y236673D01*
X73100Y237100D01*
X73527Y237656D01*
X73795Y238305D01*
X73887Y239000D01*
X73795Y239695D01*
X73527Y240343D01*
X73100Y240900D01*
X72544Y241327D01*
X71895Y241595D01*
X71200Y241687D01*
D02*
G37*
G36*
X134200Y235613D02*
X133659Y235505D01*
X133201Y235199D01*
X132895Y234741D01*
X132787Y234200D01*
X132895Y233659D01*
X133201Y233201D01*
X133659Y232895D01*
X134200Y232787D01*
X134741Y232895D01*
X135199Y233201D01*
X135505Y233659D01*
X135613Y234200D01*
X135505Y234741D01*
X135199Y235199D01*
X134741Y235505D01*
X134200Y235613D01*
D02*
G37*
G36*
X321700Y233561D02*
Y231100D01*
X324161D01*
X324095Y231595D01*
X323827Y232243D01*
X323400Y232800D01*
X322844Y233227D01*
X322195Y233495D01*
X321700Y233561D01*
D02*
G37*
G36*
X321300D02*
X320805Y233495D01*
X320157Y233227D01*
X319600Y232800D01*
X319173Y232243D01*
X318905Y231595D01*
X318839Y231100D01*
X321300D01*
Y233561D01*
D02*
G37*
G36*
X36200Y233813D02*
X35659Y233705D01*
X35201Y233399D01*
X34895Y232941D01*
X34787Y232400D01*
X34895Y231859D01*
X35201Y231401D01*
X35659Y231095D01*
X36200Y230987D01*
X36741Y231095D01*
X37199Y231401D01*
X37505Y231859D01*
X37613Y232400D01*
X37505Y232941D01*
X37199Y233399D01*
X36741Y233705D01*
X36200Y233813D01*
D02*
G37*
G36*
X341500Y233440D02*
X340528Y233247D01*
X339704Y232696D01*
X339153Y231872D01*
X338960Y230900D01*
X339153Y229928D01*
X339704Y229104D01*
X340528Y228553D01*
X341500Y228360D01*
X342472Y228553D01*
X343296Y229104D01*
X343847Y229928D01*
X344040Y230900D01*
X343847Y231872D01*
X343296Y232696D01*
X342472Y233247D01*
X341500Y233440D01*
D02*
G37*
G36*
X324161Y230700D02*
X321700D01*
Y228239D01*
X322195Y228305D01*
X322844Y228573D01*
X323400Y229000D01*
X323827Y229556D01*
X324095Y230205D01*
X324161Y230700D01*
D02*
G37*
G36*
X321300D02*
X318839D01*
X318905Y230205D01*
X319173Y229556D01*
X319600Y229000D01*
X320157Y228573D01*
X320805Y228305D01*
X321300Y228239D01*
Y230700D01*
D02*
G37*
G36*
X331500Y233587D02*
X330805Y233495D01*
X330156Y233227D01*
X329600Y232800D01*
X329173Y232243D01*
X328905Y231595D01*
X328813Y230900D01*
X328905Y230205D01*
X329173Y229556D01*
X329600Y229000D01*
X330156Y228573D01*
X330805Y228305D01*
X331500Y228213D01*
X332195Y228305D01*
X332843Y228573D01*
X333400Y229000D01*
X333827Y229556D01*
X334095Y230205D01*
X334187Y230900D01*
X334095Y231595D01*
X333827Y232243D01*
X333400Y232800D01*
X332843Y233227D01*
X332195Y233495D01*
X331500Y233587D01*
D02*
G37*
G36*
X301500D02*
X300805Y233495D01*
X300156Y233227D01*
X299600Y232800D01*
X299173Y232243D01*
X298905Y231595D01*
X298813Y230900D01*
X298905Y230205D01*
X299173Y229556D01*
X299600Y229000D01*
X300156Y228573D01*
X300805Y228305D01*
X301500Y228213D01*
X302195Y228305D01*
X302843Y228573D01*
X303400Y229000D01*
X303827Y229556D01*
X304095Y230205D01*
X304187Y230900D01*
X304095Y231595D01*
X303827Y232243D01*
X303400Y232800D01*
X302843Y233227D01*
X302195Y233495D01*
X301500Y233587D01*
D02*
G37*
G36*
X291500D02*
X290805Y233495D01*
X290157Y233227D01*
X289600Y232800D01*
X289173Y232243D01*
X288905Y231595D01*
X288813Y230900D01*
X288905Y230205D01*
X289173Y229556D01*
X289600Y229000D01*
X290157Y228573D01*
X290805Y228305D01*
X291500Y228213D01*
X292195Y228305D01*
X292844Y228573D01*
X293400Y229000D01*
X293827Y229556D01*
X294095Y230205D01*
X294187Y230900D01*
X294095Y231595D01*
X293827Y232243D01*
X293400Y232800D01*
X292844Y233227D01*
X292195Y233495D01*
X291500Y233587D01*
D02*
G37*
G36*
X281500D02*
X280805Y233495D01*
X280156Y233227D01*
X279600Y232800D01*
X279173Y232243D01*
X278905Y231595D01*
X278813Y230900D01*
X278905Y230205D01*
X279173Y229556D01*
X279600Y229000D01*
X280156Y228573D01*
X280805Y228305D01*
X281500Y228213D01*
X282195Y228305D01*
X282843Y228573D01*
X283400Y229000D01*
X283827Y229556D01*
X284095Y230205D01*
X284187Y230900D01*
X284095Y231595D01*
X283827Y232243D01*
X283400Y232800D01*
X282843Y233227D01*
X282195Y233495D01*
X281500Y233587D01*
D02*
G37*
G36*
X366900Y224913D02*
X366359Y224805D01*
X365901Y224499D01*
X365595Y224041D01*
X365487Y223500D01*
X365595Y222959D01*
X365901Y222501D01*
X366359Y222195D01*
X366900Y222087D01*
X367441Y222195D01*
X367899Y222501D01*
X368205Y222959D01*
X368313Y223500D01*
X368205Y224041D01*
X367899Y224499D01*
X367441Y224805D01*
X366900Y224913D01*
D02*
G37*
G36*
X199969Y220882D02*
X199428Y220774D01*
X198969Y220468D01*
X198663Y220009D01*
X198556Y219468D01*
X198663Y218928D01*
X198969Y218469D01*
X199428Y218163D01*
X199969Y218056D01*
X200509Y218163D01*
X200968Y218469D01*
X201274Y218928D01*
X201381Y219468D01*
X201274Y220009D01*
X200968Y220468D01*
X200509Y220774D01*
X199969Y220882D01*
D02*
G37*
G36*
X181000Y217313D02*
X180459Y217205D01*
X180001Y216899D01*
X179695Y216441D01*
X179587Y215900D01*
X179695Y215359D01*
X180001Y214901D01*
X180459Y214595D01*
X181000Y214487D01*
X181541Y214595D01*
X181999Y214901D01*
X182305Y215359D01*
X182413Y215900D01*
X182305Y216441D01*
X181999Y216899D01*
X181541Y217205D01*
X181000Y217313D01*
D02*
G37*
G36*
X191300Y217213D02*
X190759Y217105D01*
X190301Y216799D01*
X189995Y216341D01*
X189887Y215800D01*
X189995Y215259D01*
X190301Y214801D01*
X190759Y214495D01*
X191300Y214387D01*
X191841Y214495D01*
X192299Y214801D01*
X192605Y215259D01*
X192713Y215800D01*
X192605Y216341D01*
X192299Y216799D01*
X191841Y217105D01*
X191300Y217213D01*
D02*
G37*
G36*
X186200D02*
X185659Y217105D01*
X185201Y216799D01*
X184895Y216341D01*
X184787Y215800D01*
X184895Y215259D01*
X185201Y214801D01*
X185659Y214495D01*
X186200Y214387D01*
X186741Y214495D01*
X187199Y214801D01*
X187505Y215259D01*
X187613Y215800D01*
X187505Y216341D01*
X187199Y216799D01*
X186741Y217105D01*
X186200Y217213D01*
D02*
G37*
G36*
X188700Y214713D02*
X188159Y214605D01*
X187701Y214299D01*
X187395Y213841D01*
X187287Y213300D01*
X187395Y212759D01*
X187701Y212301D01*
X188159Y211995D01*
X188700Y211887D01*
X189241Y211995D01*
X189699Y212301D01*
X190005Y212759D01*
X190113Y213300D01*
X190005Y213841D01*
X189699Y214299D01*
X189241Y214605D01*
X188700Y214713D01*
D02*
G37*
G36*
X194000Y214513D02*
X193459Y214405D01*
X193001Y214099D01*
X192695Y213641D01*
X192587Y213100D01*
X192695Y212559D01*
X193001Y212101D01*
X193459Y211795D01*
X194000Y211687D01*
X194541Y211795D01*
X194999Y212101D01*
X195305Y212559D01*
X195413Y213100D01*
X195305Y213641D01*
X194999Y214099D01*
X194541Y214405D01*
X194000Y214513D01*
D02*
G37*
G36*
X183400D02*
X182859Y214405D01*
X182401Y214099D01*
X182095Y213641D01*
X181987Y213100D01*
X182095Y212559D01*
X182401Y212101D01*
X182859Y211795D01*
X183400Y211687D01*
X183941Y211795D01*
X184399Y212101D01*
X184705Y212559D01*
X184813Y213100D01*
X184705Y213641D01*
X184399Y214099D01*
X183941Y214405D01*
X183400Y214513D01*
D02*
G37*
G36*
X178900D02*
X178359Y214405D01*
X177901Y214099D01*
X177595Y213641D01*
X177487Y213100D01*
X177595Y212559D01*
X177901Y212101D01*
X178359Y211795D01*
X178900Y211687D01*
X179441Y211795D01*
X179899Y212101D01*
X180205Y212559D01*
X180313Y213100D01*
X180205Y213641D01*
X179899Y214099D01*
X179441Y214405D01*
X178900Y214513D01*
D02*
G37*
G36*
X153500Y211213D02*
X152959Y211105D01*
X152501Y210799D01*
X152195Y210341D01*
X152087Y209800D01*
X152195Y209259D01*
X152501Y208801D01*
X152959Y208495D01*
X153500Y208387D01*
X154041Y208495D01*
X154499Y208801D01*
X154805Y209259D01*
X154913Y209800D01*
X154805Y210341D01*
X154499Y210799D01*
X154041Y211105D01*
X153500Y211213D01*
D02*
G37*
G36*
X81300Y210461D02*
Y208000D01*
X83761D01*
X83695Y208495D01*
X83427Y209143D01*
X83000Y209700D01*
X82443Y210127D01*
X81795Y210395D01*
X81300Y210461D01*
D02*
G37*
G36*
X80900D02*
X80405Y210395D01*
X79756Y210127D01*
X79200Y209700D01*
X78773Y209143D01*
X78505Y208495D01*
X78439Y208000D01*
X80900D01*
Y210461D01*
D02*
G37*
G36*
X173900Y209192D02*
X173359Y209085D01*
X172901Y208779D01*
X172595Y208320D01*
X172487Y207780D01*
X172595Y207239D01*
X172901Y206780D01*
X173359Y206474D01*
X173900Y206367D01*
X174441Y206474D01*
X174899Y206780D01*
X175205Y207239D01*
X175313Y207780D01*
X175205Y208320D01*
X174899Y208779D01*
X174441Y209085D01*
X173900Y209192D01*
D02*
G37*
G36*
X61100Y210340D02*
X60128Y210147D01*
X59304Y209596D01*
X58753Y208772D01*
X58560Y207800D01*
X58753Y206828D01*
X59304Y206004D01*
X60128Y205453D01*
X61100Y205259D01*
X62072Y205453D01*
X62896Y206004D01*
X63447Y206828D01*
X63640Y207800D01*
X63447Y208772D01*
X62896Y209596D01*
X62072Y210147D01*
X61100Y210340D01*
D02*
G37*
G36*
X83761Y207600D02*
X81300D01*
Y205139D01*
X81795Y205205D01*
X82443Y205473D01*
X83000Y205900D01*
X83427Y206456D01*
X83695Y207105D01*
X83761Y207600D01*
D02*
G37*
G36*
X80900D02*
X78439D01*
X78505Y207105D01*
X78773Y206456D01*
X79200Y205900D01*
X79756Y205473D01*
X80405Y205205D01*
X80900Y205139D01*
Y207600D01*
D02*
G37*
G36*
X121100Y210487D02*
X120405Y210395D01*
X119756Y210127D01*
X119200Y209700D01*
X118773Y209143D01*
X118505Y208495D01*
X118413Y207800D01*
X118505Y207105D01*
X118773Y206456D01*
X119200Y205900D01*
X119756Y205473D01*
X120405Y205205D01*
X121100Y205113D01*
X121795Y205205D01*
X122443Y205473D01*
X123000Y205900D01*
X123427Y206456D01*
X123695Y207105D01*
X123787Y207800D01*
X123695Y208495D01*
X123427Y209143D01*
X123000Y209700D01*
X122443Y210127D01*
X121795Y210395D01*
X121100Y210487D01*
D02*
G37*
G36*
X111100D02*
X110405Y210395D01*
X109757Y210127D01*
X109200Y209700D01*
X108773Y209143D01*
X108505Y208495D01*
X108413Y207800D01*
X108505Y207105D01*
X108773Y206456D01*
X109200Y205900D01*
X109757Y205473D01*
X110405Y205205D01*
X111100Y205113D01*
X111795Y205205D01*
X112443Y205473D01*
X113000Y205900D01*
X113427Y206456D01*
X113695Y207105D01*
X113787Y207800D01*
X113695Y208495D01*
X113427Y209143D01*
X113000Y209700D01*
X112443Y210127D01*
X111795Y210395D01*
X111100Y210487D01*
D02*
G37*
G36*
X101100D02*
X100405Y210395D01*
X99756Y210127D01*
X99200Y209700D01*
X98773Y209143D01*
X98505Y208495D01*
X98413Y207800D01*
X98505Y207105D01*
X98773Y206456D01*
X99200Y205900D01*
X99756Y205473D01*
X100405Y205205D01*
X101100Y205113D01*
X101795Y205205D01*
X102444Y205473D01*
X103000Y205900D01*
X103427Y206456D01*
X103695Y207105D01*
X103787Y207800D01*
X103695Y208495D01*
X103427Y209143D01*
X103000Y209700D01*
X102444Y210127D01*
X101795Y210395D01*
X101100Y210487D01*
D02*
G37*
G36*
X71100D02*
X70405Y210395D01*
X69757Y210127D01*
X69200Y209700D01*
X68773Y209143D01*
X68505Y208495D01*
X68413Y207800D01*
X68505Y207105D01*
X68773Y206456D01*
X69200Y205900D01*
X69757Y205473D01*
X70405Y205205D01*
X71100Y205113D01*
X71795Y205205D01*
X72443Y205473D01*
X73000Y205900D01*
X73427Y206456D01*
X73695Y207105D01*
X73787Y207800D01*
X73695Y208495D01*
X73427Y209143D01*
X73000Y209700D01*
X72443Y210127D01*
X71795Y210395D01*
X71100Y210487D01*
D02*
G37*
G36*
X219800Y207013D02*
X219259Y206905D01*
X218801Y206599D01*
X218495Y206141D01*
X218387Y205600D01*
X218495Y205059D01*
X218801Y204601D01*
X219259Y204295D01*
X219800Y204187D01*
X220341Y204295D01*
X220799Y204601D01*
X221105Y205059D01*
X221213Y205600D01*
X221105Y206141D01*
X220799Y206599D01*
X220341Y206905D01*
X219800Y207013D01*
D02*
G37*
G36*
X223000Y205313D02*
X222459Y205205D01*
X222001Y204899D01*
X221695Y204441D01*
X221587Y203900D01*
X221695Y203359D01*
X222001Y202901D01*
X222459Y202595D01*
X223000Y202487D01*
X223541Y202595D01*
X223999Y202901D01*
X224305Y203359D01*
X224413Y203900D01*
X224305Y204441D01*
X223999Y204899D01*
X223541Y205205D01*
X223000Y205313D01*
D02*
G37*
G36*
X322100Y203461D02*
Y201000D01*
X324561D01*
X324495Y201495D01*
X324227Y202144D01*
X323800Y202700D01*
X323243Y203127D01*
X322595Y203395D01*
X322100Y203461D01*
D02*
G37*
G36*
X321700D02*
X321205Y203395D01*
X320556Y203127D01*
X320000Y202700D01*
X319573Y202144D01*
X319305Y201495D01*
X319239Y201000D01*
X321700D01*
Y203461D01*
D02*
G37*
G36*
X35800Y202013D02*
X35259Y201905D01*
X34801Y201599D01*
X34495Y201141D01*
X34387Y200600D01*
X34495Y200059D01*
X34801Y199601D01*
X35259Y199295D01*
X35800Y199187D01*
X36341Y199295D01*
X36799Y199601D01*
X37105Y200059D01*
X37213Y200600D01*
X37105Y201141D01*
X36799Y201599D01*
X36341Y201905D01*
X35800Y202013D01*
D02*
G37*
G36*
X341900Y203341D02*
X340928Y203147D01*
X340104Y202596D01*
X339553Y201772D01*
X339359Y200800D01*
X339553Y199828D01*
X340104Y199004D01*
X340928Y198453D01*
X341900Y198259D01*
X342872Y198453D01*
X343696Y199004D01*
X344247Y199828D01*
X344441Y200800D01*
X344247Y201772D01*
X343696Y202596D01*
X342872Y203147D01*
X341900Y203341D01*
D02*
G37*
G36*
X324561Y200600D02*
X322100D01*
Y198139D01*
X322595Y198205D01*
X323243Y198473D01*
X323800Y198900D01*
X324227Y199457D01*
X324495Y200105D01*
X324561Y200600D01*
D02*
G37*
G36*
X321700D02*
X319239D01*
X319305Y200105D01*
X319573Y199457D01*
X320000Y198900D01*
X320556Y198473D01*
X321205Y198205D01*
X321700Y198139D01*
Y200600D01*
D02*
G37*
G36*
X331900Y203487D02*
X331205Y203395D01*
X330557Y203127D01*
X330000Y202700D01*
X329573Y202144D01*
X329305Y201495D01*
X329213Y200800D01*
X329305Y200105D01*
X329573Y199457D01*
X330000Y198900D01*
X330557Y198473D01*
X331205Y198205D01*
X331900Y198113D01*
X332595Y198205D01*
X333243Y198473D01*
X333800Y198900D01*
X334227Y199457D01*
X334495Y200105D01*
X334587Y200800D01*
X334495Y201495D01*
X334227Y202144D01*
X333800Y202700D01*
X333243Y203127D01*
X332595Y203395D01*
X331900Y203487D01*
D02*
G37*
G36*
X301900D02*
X301205Y203395D01*
X300556Y203127D01*
X300000Y202700D01*
X299573Y202144D01*
X299305Y201495D01*
X299213Y200800D01*
X299305Y200105D01*
X299573Y199457D01*
X300000Y198900D01*
X300556Y198473D01*
X301205Y198205D01*
X301900Y198113D01*
X302595Y198205D01*
X303243Y198473D01*
X303800Y198900D01*
X304227Y199457D01*
X304495Y200105D01*
X304587Y200800D01*
X304495Y201495D01*
X304227Y202144D01*
X303800Y202700D01*
X303243Y203127D01*
X302595Y203395D01*
X301900Y203487D01*
D02*
G37*
G36*
X291900D02*
X291205Y203395D01*
X290557Y203127D01*
X290000Y202700D01*
X289573Y202144D01*
X289305Y201495D01*
X289213Y200800D01*
X289305Y200105D01*
X289573Y199457D01*
X290000Y198900D01*
X290557Y198473D01*
X291205Y198205D01*
X291900Y198113D01*
X292595Y198205D01*
X293244Y198473D01*
X293800Y198900D01*
X294227Y199457D01*
X294495Y200105D01*
X294587Y200800D01*
X294495Y201495D01*
X294227Y202144D01*
X293800Y202700D01*
X293244Y203127D01*
X292595Y203395D01*
X291900Y203487D01*
D02*
G37*
G36*
X281900D02*
X281205Y203395D01*
X280557Y203127D01*
X280000Y202700D01*
X279573Y202144D01*
X279305Y201495D01*
X279213Y200800D01*
X279305Y200105D01*
X279573Y199457D01*
X280000Y198900D01*
X280557Y198473D01*
X281205Y198205D01*
X281900Y198113D01*
X282595Y198205D01*
X283243Y198473D01*
X283800Y198900D01*
X284227Y199457D01*
X284495Y200105D01*
X284587Y200800D01*
X284495Y201495D01*
X284227Y202144D01*
X283800Y202700D01*
X283243Y203127D01*
X282595Y203395D01*
X281900Y203487D01*
D02*
G37*
G36*
X253700Y196113D02*
X253159Y196005D01*
X252701Y195699D01*
X252395Y195241D01*
X252287Y194700D01*
X252395Y194159D01*
X252701Y193701D01*
X253159Y193395D01*
X253700Y193287D01*
X254241Y193395D01*
X254699Y193701D01*
X255005Y194159D01*
X255113Y194700D01*
X255005Y195241D01*
X254699Y195699D01*
X254241Y196005D01*
X253700Y196113D01*
D02*
G37*
G36*
X367200Y194813D02*
X366659Y194705D01*
X366201Y194399D01*
X365895Y193941D01*
X365787Y193400D01*
X365895Y192859D01*
X366201Y192401D01*
X366659Y192095D01*
X367200Y191987D01*
X367741Y192095D01*
X368199Y192401D01*
X368505Y192859D01*
X368613Y193400D01*
X368505Y193941D01*
X368199Y194399D01*
X367741Y194705D01*
X367200Y194813D01*
D02*
G37*
G36*
X105000Y193713D02*
X104459Y193605D01*
X104001Y193299D01*
X103695Y192841D01*
X103587Y192300D01*
X103695Y191759D01*
X104001Y191301D01*
X104459Y190995D01*
X105000Y190887D01*
X105541Y190995D01*
X105999Y191301D01*
X106305Y191759D01*
X106413Y192300D01*
X106305Y192841D01*
X105999Y193299D01*
X105541Y193605D01*
X105000Y193713D01*
D02*
G37*
G36*
X115900Y193113D02*
X115359Y193005D01*
X114901Y192699D01*
X114595Y192241D01*
X114487Y191700D01*
X114595Y191159D01*
X114901Y190701D01*
X115359Y190395D01*
X115900Y190287D01*
X116441Y190395D01*
X116899Y190701D01*
X117205Y191159D01*
X117313Y191700D01*
X117205Y192241D01*
X116899Y192699D01*
X116441Y193005D01*
X115900Y193113D01*
D02*
G37*
G36*
X248915Y191628D02*
X248374Y191520D01*
X247916Y191214D01*
X247610Y190756D01*
X247502Y190215D01*
X247610Y189674D01*
X247916Y189216D01*
X248374Y188910D01*
X248915Y188802D01*
X249456Y188910D01*
X249914Y189216D01*
X250220Y189674D01*
X250328Y190215D01*
X250220Y190756D01*
X249914Y191214D01*
X249456Y191520D01*
X248915Y191628D01*
D02*
G37*
G36*
X221905Y189507D02*
X221365Y189400D01*
X220906Y189094D01*
X220600Y188635D01*
X220493Y188094D01*
X220600Y187554D01*
X220906Y187095D01*
X221365Y186789D01*
X221905Y186681D01*
X222446Y186789D01*
X222905Y187095D01*
X223211Y187554D01*
X223319Y188094D01*
X223211Y188635D01*
X222905Y189094D01*
X222446Y189400D01*
X221905Y189507D01*
D02*
G37*
G36*
X223711Y183602D02*
X223170Y183494D01*
X222712Y183188D01*
X222406Y182730D01*
X222298Y182189D01*
X222406Y181648D01*
X222712Y181190D01*
X223170Y180884D01*
X223711Y180776D01*
X224252Y180884D01*
X224710Y181190D01*
X225016Y181648D01*
X225124Y182189D01*
X225016Y182730D01*
X224710Y183188D01*
X224252Y183494D01*
X223711Y183602D01*
D02*
G37*
G36*
X250600Y182413D02*
X250059Y182305D01*
X249601Y181999D01*
X249295Y181541D01*
X249187Y181000D01*
X249295Y180459D01*
X249601Y180001D01*
X250059Y179695D01*
X250600Y179587D01*
X251141Y179695D01*
X251599Y180001D01*
X251905Y180459D01*
X252013Y181000D01*
X251905Y181541D01*
X251599Y181999D01*
X251141Y182305D01*
X250600Y182413D01*
D02*
G37*
G36*
X267000Y180713D02*
X266459Y180605D01*
X266001Y180299D01*
X265695Y179841D01*
X265587Y179300D01*
X265695Y178759D01*
X266001Y178301D01*
X266459Y177995D01*
X267000Y177887D01*
X267541Y177995D01*
X267999Y178301D01*
X268305Y178759D01*
X268413Y179300D01*
X268305Y179841D01*
X267999Y180299D01*
X267541Y180605D01*
X267000Y180713D01*
D02*
G37*
G36*
X80500Y179161D02*
Y176700D01*
X82961D01*
X82895Y177195D01*
X82627Y177843D01*
X82200Y178400D01*
X81643Y178827D01*
X80995Y179095D01*
X80500Y179161D01*
D02*
G37*
G36*
X80100D02*
X79605Y179095D01*
X78957Y178827D01*
X78400Y178400D01*
X77973Y177843D01*
X77705Y177195D01*
X77639Y176700D01*
X80100D01*
Y179161D01*
D02*
G37*
G36*
X221748Y179665D02*
X221207Y179557D01*
X220749Y179251D01*
X220443Y178793D01*
X220335Y178252D01*
X220443Y177711D01*
X220749Y177253D01*
X221207Y176947D01*
X221748Y176839D01*
X222093Y176398D01*
X222071Y176284D01*
X222113Y176071D01*
X221682Y175675D01*
X221415Y175728D01*
X220874Y175620D01*
X220416Y175314D01*
X220110Y174856D01*
X220002Y174315D01*
X220110Y173774D01*
X220416Y173316D01*
X220874Y173010D01*
X221415Y172902D01*
X221539Y172927D01*
X221964Y172502D01*
X221934Y172346D01*
X222041Y171806D01*
X222347Y171347D01*
X222806Y171041D01*
X223346Y170933D01*
X223887Y171041D01*
X224346Y171347D01*
X224652Y171806D01*
X224759Y172346D01*
X224652Y172887D01*
X224346Y173346D01*
X223887Y173652D01*
X223346Y173759D01*
X223222Y173735D01*
X222885Y174072D01*
X222888Y174587D01*
X223269Y174913D01*
X223483Y174871D01*
X224024Y174978D01*
X224483Y175284D01*
X224789Y175743D01*
X224896Y176284D01*
X224789Y176824D01*
X224483Y177283D01*
X224024Y177589D01*
X223483Y177696D01*
X223138Y178138D01*
X223161Y178252D01*
X223053Y178793D01*
X222747Y179251D01*
X222289Y179557D01*
X221748Y179665D01*
D02*
G37*
G36*
X60300Y179041D02*
X59328Y178847D01*
X58504Y178296D01*
X57953Y177472D01*
X57759Y176500D01*
X57953Y175528D01*
X58504Y174704D01*
X59328Y174153D01*
X60300Y173960D01*
X61272Y174153D01*
X62096Y174704D01*
X62647Y175528D01*
X62840Y176500D01*
X62647Y177472D01*
X62096Y178296D01*
X61272Y178847D01*
X60300Y179041D01*
D02*
G37*
G36*
X242170Y176783D02*
X241629Y176675D01*
X241171Y176369D01*
X240865Y175911D01*
X240757Y175370D01*
X240865Y174829D01*
X241171Y174371D01*
X241629Y174065D01*
X242170Y173957D01*
X242711Y174065D01*
X243169Y174371D01*
X243476Y174829D01*
X243583Y175370D01*
X243476Y175911D01*
X243169Y176369D01*
X242711Y176675D01*
X242170Y176783D01*
D02*
G37*
G36*
X82961Y176300D02*
X80500D01*
Y173839D01*
X80995Y173905D01*
X81643Y174173D01*
X82200Y174600D01*
X82627Y175156D01*
X82895Y175805D01*
X82961Y176300D01*
D02*
G37*
G36*
X80100D02*
X77639D01*
X77705Y175805D01*
X77973Y175156D01*
X78400Y174600D01*
X78957Y174173D01*
X79605Y173905D01*
X80100Y173839D01*
Y176300D01*
D02*
G37*
G36*
X120300Y179187D02*
X119605Y179095D01*
X118956Y178827D01*
X118400Y178400D01*
X117973Y177843D01*
X117705Y177195D01*
X117613Y176500D01*
X117705Y175805D01*
X117973Y175156D01*
X118400Y174600D01*
X118956Y174173D01*
X119605Y173905D01*
X120300Y173813D01*
X120995Y173905D01*
X121643Y174173D01*
X122200Y174600D01*
X122627Y175156D01*
X122895Y175805D01*
X122987Y176500D01*
X122895Y177195D01*
X122627Y177843D01*
X122200Y178400D01*
X121643Y178827D01*
X120995Y179095D01*
X120300Y179187D01*
D02*
G37*
G36*
X110300D02*
X109605Y179095D01*
X108957Y178827D01*
X108400Y178400D01*
X107973Y177843D01*
X107705Y177195D01*
X107613Y176500D01*
X107705Y175805D01*
X107973Y175156D01*
X108400Y174600D01*
X108957Y174173D01*
X109605Y173905D01*
X110300Y173813D01*
X110995Y173905D01*
X111644Y174173D01*
X112200Y174600D01*
X112627Y175156D01*
X112895Y175805D01*
X112987Y176500D01*
X112895Y177195D01*
X112627Y177843D01*
X112200Y178400D01*
X111644Y178827D01*
X110995Y179095D01*
X110300Y179187D01*
D02*
G37*
G36*
X100300D02*
X99605Y179095D01*
X98957Y178827D01*
X98400Y178400D01*
X97973Y177843D01*
X97705Y177195D01*
X97613Y176500D01*
X97705Y175805D01*
X97973Y175156D01*
X98400Y174600D01*
X98957Y174173D01*
X99605Y173905D01*
X100300Y173813D01*
X100995Y173905D01*
X101644Y174173D01*
X102200Y174600D01*
X102627Y175156D01*
X102895Y175805D01*
X102987Y176500D01*
X102895Y177195D01*
X102627Y177843D01*
X102200Y178400D01*
X101644Y178827D01*
X100995Y179095D01*
X100300Y179187D01*
D02*
G37*
G36*
X70300D02*
X69605Y179095D01*
X68957Y178827D01*
X68400Y178400D01*
X67973Y177843D01*
X67705Y177195D01*
X67613Y176500D01*
X67705Y175805D01*
X67973Y175156D01*
X68400Y174600D01*
X68957Y174173D01*
X69605Y173905D01*
X70300Y173813D01*
X70995Y173905D01*
X71644Y174173D01*
X72200Y174600D01*
X72627Y175156D01*
X72895Y175805D01*
X72987Y176500D01*
X72895Y177195D01*
X72627Y177843D01*
X72200Y178400D01*
X71644Y178827D01*
X70995Y179095D01*
X70300Y179187D01*
D02*
G37*
G36*
X153700Y175813D02*
X153159Y175705D01*
X152701Y175399D01*
X152395Y174941D01*
X152287Y174400D01*
X152395Y173859D01*
X152701Y173401D01*
X153159Y173095D01*
X153700Y172987D01*
X154241Y173095D01*
X154699Y173401D01*
X155005Y173859D01*
X155113Y174400D01*
X155005Y174941D01*
X154699Y175399D01*
X154241Y175705D01*
X153700Y175813D01*
D02*
G37*
G36*
X172300Y175113D02*
X171759Y175005D01*
X171301Y174699D01*
X170995Y174241D01*
X170887Y173700D01*
X170995Y173159D01*
X171301Y172701D01*
X171759Y172395D01*
X172300Y172287D01*
X172841Y172395D01*
X173299Y172701D01*
X173605Y173159D01*
X173713Y173700D01*
X173605Y174241D01*
X173299Y174699D01*
X172841Y175005D01*
X172300Y175113D01*
D02*
G37*
G36*
X234700Y173571D02*
X234159Y173464D01*
X233701Y173157D01*
X233395Y172699D01*
X233287Y172158D01*
X233395Y171618D01*
X233701Y171159D01*
X234159Y170853D01*
X234700Y170745D01*
X235241Y170853D01*
X235699Y171159D01*
X236005Y171618D01*
X236113Y172158D01*
X236005Y172699D01*
X235699Y173157D01*
X235241Y173464D01*
X234700Y173571D01*
D02*
G37*
G36*
X323000Y172361D02*
Y169900D01*
X325461D01*
X325395Y170395D01*
X325127Y171044D01*
X324700Y171600D01*
X324144Y172027D01*
X323495Y172295D01*
X323000Y172361D01*
D02*
G37*
G36*
X322600D02*
X322105Y172295D01*
X321457Y172027D01*
X320900Y171600D01*
X320473Y171044D01*
X320205Y170395D01*
X320139Y169900D01*
X322600D01*
Y172361D01*
D02*
G37*
G36*
X153900Y172013D02*
X153359Y171905D01*
X152901Y171599D01*
X152595Y171141D01*
X152487Y170600D01*
X152595Y170059D01*
X152901Y169601D01*
X153359Y169295D01*
X153900Y169187D01*
X154441Y169295D01*
X154899Y169601D01*
X155205Y170059D01*
X155313Y170600D01*
X155205Y171141D01*
X154899Y171599D01*
X154441Y171905D01*
X153900Y172013D01*
D02*
G37*
G36*
X35300Y171313D02*
X34759Y171205D01*
X34301Y170899D01*
X33995Y170441D01*
X33887Y169900D01*
X33995Y169359D01*
X34301Y168901D01*
X34759Y168595D01*
X35300Y168487D01*
X35841Y168595D01*
X36299Y168901D01*
X36605Y169359D01*
X36713Y169900D01*
X36605Y170441D01*
X36299Y170899D01*
X35841Y171205D01*
X35300Y171313D01*
D02*
G37*
G36*
X194063Y170976D02*
X193522Y170868D01*
X193064Y170562D01*
X192758Y170104D01*
X192650Y169563D01*
X192758Y169022D01*
X193064Y168564D01*
X193522Y168258D01*
X194063Y168150D01*
X194604Y168258D01*
X195062Y168564D01*
X195368Y169022D01*
X195476Y169563D01*
X195368Y170104D01*
X195062Y170562D01*
X194604Y170868D01*
X194063Y170976D01*
D02*
G37*
G36*
X342800Y172240D02*
X341828Y172047D01*
X341004Y171496D01*
X340453Y170672D01*
X340260Y169700D01*
X340453Y168728D01*
X341004Y167904D01*
X341828Y167353D01*
X342800Y167159D01*
X343772Y167353D01*
X344596Y167904D01*
X345147Y168728D01*
X345340Y169700D01*
X345147Y170672D01*
X344596Y171496D01*
X343772Y172047D01*
X342800Y172240D01*
D02*
G37*
G36*
X325461Y169500D02*
X323000D01*
Y167039D01*
X323495Y167105D01*
X324144Y167373D01*
X324700Y167800D01*
X325127Y168357D01*
X325395Y169005D01*
X325461Y169500D01*
D02*
G37*
G36*
X322600D02*
X320139D01*
X320205Y169005D01*
X320473Y168357D01*
X320900Y167800D01*
X321457Y167373D01*
X322105Y167105D01*
X322600Y167039D01*
Y169500D01*
D02*
G37*
G36*
X332800Y172387D02*
X332105Y172295D01*
X331456Y172027D01*
X330900Y171600D01*
X330473Y171044D01*
X330205Y170395D01*
X330113Y169700D01*
X330205Y169005D01*
X330473Y168357D01*
X330900Y167800D01*
X331456Y167373D01*
X332105Y167105D01*
X332800Y167013D01*
X333495Y167105D01*
X334143Y167373D01*
X334700Y167800D01*
X335127Y168357D01*
X335395Y169005D01*
X335487Y169700D01*
X335395Y170395D01*
X335127Y171044D01*
X334700Y171600D01*
X334143Y172027D01*
X333495Y172295D01*
X332800Y172387D01*
D02*
G37*
G36*
X302800D02*
X302105Y172295D01*
X301456Y172027D01*
X300900Y171600D01*
X300473Y171044D01*
X300205Y170395D01*
X300113Y169700D01*
X300205Y169005D01*
X300473Y168357D01*
X300900Y167800D01*
X301456Y167373D01*
X302105Y167105D01*
X302800Y167013D01*
X303495Y167105D01*
X304144Y167373D01*
X304700Y167800D01*
X305127Y168357D01*
X305395Y169005D01*
X305487Y169700D01*
X305395Y170395D01*
X305127Y171044D01*
X304700Y171600D01*
X304144Y172027D01*
X303495Y172295D01*
X302800Y172387D01*
D02*
G37*
G36*
X292800D02*
X292105Y172295D01*
X291457Y172027D01*
X290900Y171600D01*
X290473Y171044D01*
X290205Y170395D01*
X290113Y169700D01*
X290205Y169005D01*
X290473Y168357D01*
X290900Y167800D01*
X291457Y167373D01*
X292105Y167105D01*
X292800Y167013D01*
X293495Y167105D01*
X294144Y167373D01*
X294700Y167800D01*
X295127Y168357D01*
X295395Y169005D01*
X295487Y169700D01*
X295395Y170395D01*
X295127Y171044D01*
X294700Y171600D01*
X294144Y172027D01*
X293495Y172295D01*
X292800Y172387D01*
D02*
G37*
G36*
X282800D02*
X282105Y172295D01*
X281456Y172027D01*
X280900Y171600D01*
X280473Y171044D01*
X280205Y170395D01*
X280113Y169700D01*
X280205Y169005D01*
X280473Y168357D01*
X280900Y167800D01*
X281456Y167373D01*
X282105Y167105D01*
X282800Y167013D01*
X283495Y167105D01*
X284143Y167373D01*
X284700Y167800D01*
X285127Y168357D01*
X285395Y169005D01*
X285487Y169700D01*
X285395Y170395D01*
X285127Y171044D01*
X284700Y171600D01*
X284143Y172027D01*
X283495Y172295D01*
X282800Y172387D01*
D02*
G37*
G36*
X86500Y164013D02*
X85959Y163905D01*
X85501Y163599D01*
X85195Y163141D01*
X85087Y162600D01*
X85195Y162059D01*
X85501Y161601D01*
X85959Y161295D01*
X86500Y161187D01*
X87041Y161295D01*
X87499Y161601D01*
X87805Y162059D01*
X87913Y162600D01*
X87805Y163141D01*
X87499Y163599D01*
X87041Y163905D01*
X86500Y164013D01*
D02*
G37*
G36*
X366800Y163513D02*
X366259Y163405D01*
X365801Y163099D01*
X365495Y162641D01*
X365387Y162100D01*
X365495Y161559D01*
X365801Y161101D01*
X366259Y160795D01*
X366800Y160687D01*
X367341Y160795D01*
X367799Y161101D01*
X368105Y161559D01*
X368213Y162100D01*
X368105Y162641D01*
X367799Y163099D01*
X367341Y163405D01*
X366800Y163513D01*
D02*
G37*
G36*
X88600Y161013D02*
X88059Y160905D01*
X87601Y160599D01*
X87295Y160141D01*
X87187Y159600D01*
X87295Y159059D01*
X87601Y158601D01*
X88059Y158295D01*
X88600Y158187D01*
X89141Y158295D01*
X89599Y158601D01*
X89905Y159059D01*
X90013Y159600D01*
X89905Y160141D01*
X89599Y160599D01*
X89141Y160905D01*
X88600Y161013D01*
D02*
G37*
G36*
X209700Y158413D02*
X209159Y158305D01*
X208701Y157999D01*
X208395Y157541D01*
X208287Y157000D01*
X208395Y156459D01*
X208701Y156001D01*
X209159Y155695D01*
X209700Y155587D01*
X210241Y155695D01*
X210699Y156001D01*
X211005Y156459D01*
X211113Y157000D01*
X211005Y157541D01*
X210699Y157999D01*
X210241Y158305D01*
X209700Y158413D01*
D02*
G37*
G36*
X176200Y156213D02*
X175659Y156105D01*
X175201Y155799D01*
X174895Y155341D01*
X174787Y154800D01*
X174895Y154259D01*
X175201Y153801D01*
X175659Y153495D01*
X176200Y153387D01*
X176741Y153495D01*
X177199Y153801D01*
X177505Y154259D01*
X177613Y154800D01*
X177505Y155341D01*
X177199Y155799D01*
X176741Y156105D01*
X176200Y156213D01*
D02*
G37*
G36*
X211779Y154833D02*
X211239Y154726D01*
X210780Y154420D01*
X210474Y153961D01*
X210367Y153420D01*
X210474Y152880D01*
X210780Y152421D01*
X211239Y152115D01*
X211779Y152007D01*
X212320Y152115D01*
X212779Y152421D01*
X213085Y152880D01*
X213193Y153420D01*
X213085Y153961D01*
X212779Y154420D01*
X212320Y154726D01*
X211779Y154833D01*
D02*
G37*
G36*
X178300Y153513D02*
X177759Y153405D01*
X177301Y153099D01*
X176995Y152641D01*
X176887Y152100D01*
X176995Y151559D01*
X177301Y151101D01*
X177759Y150795D01*
X178300Y150687D01*
X178841Y150795D01*
X179299Y151101D01*
X179605Y151559D01*
X179713Y152100D01*
X179605Y152641D01*
X179299Y153099D01*
X178841Y153405D01*
X178300Y153513D01*
D02*
G37*
G36*
X192000Y150213D02*
X191459Y150105D01*
X191001Y149799D01*
X190695Y149341D01*
X190587Y148800D01*
X190695Y148259D01*
X191001Y147801D01*
X191459Y147495D01*
X192000Y147387D01*
X192541Y147495D01*
X192999Y147801D01*
X193305Y148259D01*
X193413Y148800D01*
X193305Y149341D01*
X192999Y149799D01*
X192541Y150105D01*
X192000Y150213D01*
D02*
G37*
G36*
X80800Y148161D02*
Y145700D01*
X83261D01*
X83195Y146195D01*
X82927Y146844D01*
X82500Y147400D01*
X81944Y147827D01*
X81295Y148095D01*
X80800Y148161D01*
D02*
G37*
G36*
X80400D02*
X79905Y148095D01*
X79256Y147827D01*
X78700Y147400D01*
X78273Y146844D01*
X78005Y146195D01*
X77939Y145700D01*
X80400D01*
Y148161D01*
D02*
G37*
G36*
X60600Y148040D02*
X59628Y147847D01*
X58804Y147296D01*
X58253Y146472D01*
X58060Y145500D01*
X58253Y144528D01*
X58804Y143704D01*
X59628Y143153D01*
X60600Y142959D01*
X61572Y143153D01*
X62396Y143704D01*
X62947Y144528D01*
X63140Y145500D01*
X62947Y146472D01*
X62396Y147296D01*
X61572Y147847D01*
X60600Y148040D01*
D02*
G37*
G36*
X83261Y145300D02*
X80800D01*
Y142839D01*
X81295Y142905D01*
X81944Y143173D01*
X82500Y143600D01*
X82927Y144157D01*
X83195Y144805D01*
X83261Y145300D01*
D02*
G37*
G36*
X80400D02*
X77939D01*
X78005Y144805D01*
X78273Y144157D01*
X78700Y143600D01*
X79256Y143173D01*
X79905Y142905D01*
X80400Y142839D01*
Y145300D01*
D02*
G37*
G36*
X120600Y148187D02*
X119905Y148095D01*
X119256Y147827D01*
X118700Y147400D01*
X118273Y146844D01*
X118005Y146195D01*
X117913Y145500D01*
X118005Y144805D01*
X118273Y144157D01*
X118700Y143600D01*
X119256Y143173D01*
X119905Y142905D01*
X120600Y142813D01*
X121295Y142905D01*
X121943Y143173D01*
X122500Y143600D01*
X122927Y144157D01*
X123195Y144805D01*
X123287Y145500D01*
X123195Y146195D01*
X122927Y146844D01*
X122500Y147400D01*
X121943Y147827D01*
X121295Y148095D01*
X120600Y148187D01*
D02*
G37*
G36*
X110600D02*
X109905Y148095D01*
X109256Y147827D01*
X108700Y147400D01*
X108273Y146844D01*
X108005Y146195D01*
X107913Y145500D01*
X108005Y144805D01*
X108273Y144157D01*
X108700Y143600D01*
X109256Y143173D01*
X109905Y142905D01*
X110600Y142813D01*
X111295Y142905D01*
X111943Y143173D01*
X112500Y143600D01*
X112927Y144157D01*
X113195Y144805D01*
X113287Y145500D01*
X113195Y146195D01*
X112927Y146844D01*
X112500Y147400D01*
X111943Y147827D01*
X111295Y148095D01*
X110600Y148187D01*
D02*
G37*
G36*
X100600D02*
X99905Y148095D01*
X99256Y147827D01*
X98700Y147400D01*
X98273Y146844D01*
X98005Y146195D01*
X97913Y145500D01*
X98005Y144805D01*
X98273Y144157D01*
X98700Y143600D01*
X99256Y143173D01*
X99905Y142905D01*
X100600Y142813D01*
X101295Y142905D01*
X101944Y143173D01*
X102500Y143600D01*
X102927Y144157D01*
X103195Y144805D01*
X103287Y145500D01*
X103195Y146195D01*
X102927Y146844D01*
X102500Y147400D01*
X101944Y147827D01*
X101295Y148095D01*
X100600Y148187D01*
D02*
G37*
G36*
X70600D02*
X69905Y148095D01*
X69257Y147827D01*
X68700Y147400D01*
X68273Y146844D01*
X68005Y146195D01*
X67913Y145500D01*
X68005Y144805D01*
X68273Y144157D01*
X68700Y143600D01*
X69257Y143173D01*
X69905Y142905D01*
X70600Y142813D01*
X71295Y142905D01*
X71943Y143173D01*
X72500Y143600D01*
X72927Y144157D01*
X73195Y144805D01*
X73287Y145500D01*
X73195Y146195D01*
X72927Y146844D01*
X72500Y147400D01*
X71943Y147827D01*
X71295Y148095D01*
X70600Y148187D01*
D02*
G37*
G36*
X322900Y141661D02*
Y139200D01*
X325361D01*
X325295Y139695D01*
X325027Y140343D01*
X324600Y140900D01*
X324043Y141327D01*
X323395Y141595D01*
X322900Y141661D01*
D02*
G37*
G36*
X322500D02*
X322005Y141595D01*
X321357Y141327D01*
X320800Y140900D01*
X320373Y140343D01*
X320105Y139695D01*
X320039Y139200D01*
X322500D01*
Y141661D01*
D02*
G37*
G36*
X35900Y141513D02*
X35359Y141405D01*
X34901Y141099D01*
X34595Y140641D01*
X34487Y140100D01*
X34595Y139559D01*
X34901Y139101D01*
X35359Y138795D01*
X35900Y138687D01*
X36441Y138795D01*
X36899Y139101D01*
X37205Y139559D01*
X37313Y140100D01*
X37205Y140641D01*
X36899Y141099D01*
X36441Y141405D01*
X35900Y141513D01*
D02*
G37*
G36*
X342700Y141541D02*
X341728Y141347D01*
X340904Y140796D01*
X340353Y139972D01*
X340160Y139000D01*
X340353Y138028D01*
X340904Y137204D01*
X341728Y136653D01*
X342700Y136460D01*
X343672Y136653D01*
X344496Y137204D01*
X345047Y138028D01*
X345240Y139000D01*
X345047Y139972D01*
X344496Y140796D01*
X343672Y141347D01*
X342700Y141541D01*
D02*
G37*
G36*
X325361Y138800D02*
X322900D01*
Y136339D01*
X323395Y136405D01*
X324043Y136673D01*
X324600Y137100D01*
X325027Y137656D01*
X325295Y138305D01*
X325361Y138800D01*
D02*
G37*
G36*
X322500D02*
X320039D01*
X320105Y138305D01*
X320373Y137656D01*
X320800Y137100D01*
X321357Y136673D01*
X322005Y136405D01*
X322500Y136339D01*
Y138800D01*
D02*
G37*
G36*
X332700Y141687D02*
X332005Y141595D01*
X331357Y141327D01*
X330800Y140900D01*
X330373Y140343D01*
X330105Y139695D01*
X330013Y139000D01*
X330105Y138305D01*
X330373Y137656D01*
X330800Y137100D01*
X331357Y136673D01*
X332005Y136405D01*
X332700Y136313D01*
X333395Y136405D01*
X334044Y136673D01*
X334600Y137100D01*
X335027Y137656D01*
X335295Y138305D01*
X335387Y139000D01*
X335295Y139695D01*
X335027Y140343D01*
X334600Y140900D01*
X334044Y141327D01*
X333395Y141595D01*
X332700Y141687D01*
D02*
G37*
G36*
X302700D02*
X302005Y141595D01*
X301357Y141327D01*
X300800Y140900D01*
X300373Y140343D01*
X300105Y139695D01*
X300013Y139000D01*
X300105Y138305D01*
X300373Y137656D01*
X300800Y137100D01*
X301357Y136673D01*
X302005Y136405D01*
X302700Y136313D01*
X303395Y136405D01*
X304044Y136673D01*
X304600Y137100D01*
X305027Y137656D01*
X305295Y138305D01*
X305387Y139000D01*
X305295Y139695D01*
X305027Y140343D01*
X304600Y140900D01*
X304044Y141327D01*
X303395Y141595D01*
X302700Y141687D01*
D02*
G37*
G36*
X292700D02*
X292005Y141595D01*
X291356Y141327D01*
X290800Y140900D01*
X290373Y140343D01*
X290105Y139695D01*
X290013Y139000D01*
X290105Y138305D01*
X290373Y137656D01*
X290800Y137100D01*
X291356Y136673D01*
X292005Y136405D01*
X292700Y136313D01*
X293395Y136405D01*
X294043Y136673D01*
X294600Y137100D01*
X295027Y137656D01*
X295295Y138305D01*
X295387Y139000D01*
X295295Y139695D01*
X295027Y140343D01*
X294600Y140900D01*
X294043Y141327D01*
X293395Y141595D01*
X292700Y141687D01*
D02*
G37*
G36*
X282700D02*
X282005Y141595D01*
X281357Y141327D01*
X280800Y140900D01*
X280373Y140343D01*
X280105Y139695D01*
X280013Y139000D01*
X280105Y138305D01*
X280373Y137656D01*
X280800Y137100D01*
X281357Y136673D01*
X282005Y136405D01*
X282700Y136313D01*
X283395Y136405D01*
X284044Y136673D01*
X284600Y137100D01*
X285027Y137656D01*
X285295Y138305D01*
X285387Y139000D01*
X285295Y139695D01*
X285027Y140343D01*
X284600Y140900D01*
X284044Y141327D01*
X283395Y141595D01*
X282700Y141687D01*
D02*
G37*
G36*
X366800Y133113D02*
X366259Y133005D01*
X365801Y132699D01*
X365495Y132241D01*
X365387Y131700D01*
X365495Y131159D01*
X365801Y130701D01*
X366259Y130395D01*
X366800Y130287D01*
X367341Y130395D01*
X367799Y130701D01*
X368105Y131159D01*
X368213Y131700D01*
X368105Y132241D01*
X367799Y132699D01*
X367341Y133005D01*
X366800Y133113D01*
D02*
G37*
G36*
X97400Y132813D02*
X96859Y132705D01*
X96401Y132399D01*
X96095Y131941D01*
X95987Y131400D01*
X96095Y130859D01*
X96401Y130401D01*
X96859Y130095D01*
X97400Y129987D01*
X97941Y130095D01*
X98399Y130401D01*
X98705Y130859D01*
X98813Y131400D01*
X98705Y131941D01*
X98399Y132399D01*
X97941Y132705D01*
X97400Y132813D01*
D02*
G37*
G36*
X91900Y131513D02*
X91359Y131405D01*
X90901Y131099D01*
X90595Y130641D01*
X90487Y130100D01*
X90595Y129559D01*
X90901Y129101D01*
X91359Y128795D01*
X91900Y128687D01*
X92441Y128795D01*
X92899Y129101D01*
X93205Y129559D01*
X93313Y130100D01*
X93205Y130641D01*
X92899Y131099D01*
X92441Y131405D01*
X91900Y131513D01*
D02*
G37*
G36*
X107300Y130813D02*
X106759Y130705D01*
X106301Y130399D01*
X105995Y129941D01*
X105887Y129400D01*
X105995Y128859D01*
X106301Y128401D01*
X106759Y128095D01*
X107300Y127987D01*
X107841Y128095D01*
X108299Y128401D01*
X108605Y128859D01*
X108713Y129400D01*
X108605Y129941D01*
X108299Y130399D01*
X107841Y130705D01*
X107300Y130813D01*
D02*
G37*
G36*
X223600Y127013D02*
X223059Y126905D01*
X222601Y126599D01*
X222295Y126141D01*
X222187Y125600D01*
X222295Y125059D01*
X222601Y124601D01*
X223059Y124295D01*
X223600Y124187D01*
X224141Y124295D01*
X224599Y124601D01*
X224905Y125059D01*
X225013Y125600D01*
X224905Y126141D01*
X224599Y126599D01*
X224141Y126905D01*
X223600Y127013D01*
D02*
G37*
G36*
X163600Y125713D02*
X163059Y125605D01*
X162601Y125299D01*
X162295Y124841D01*
X162187Y124300D01*
X162295Y123759D01*
X162601Y123301D01*
X163059Y122995D01*
X163600Y122887D01*
X164141Y122995D01*
X164599Y123301D01*
X164905Y123759D01*
X165013Y124300D01*
X164905Y124841D01*
X164599Y125299D01*
X164141Y125605D01*
X163600Y125713D01*
D02*
G37*
G36*
X311500Y125613D02*
X310959Y125505D01*
X310501Y125199D01*
X310195Y124741D01*
X310087Y124200D01*
X310195Y123659D01*
X310501Y123201D01*
X310959Y122895D01*
X311500Y122787D01*
X312041Y122895D01*
X312499Y123201D01*
X312805Y123659D01*
X312913Y124200D01*
X312805Y124741D01*
X312499Y125199D01*
X312041Y125505D01*
X311500Y125613D01*
D02*
G37*
G36*
X306400Y124213D02*
X305859Y124105D01*
X305401Y123799D01*
X305095Y123341D01*
X304987Y122800D01*
X305095Y122259D01*
X305401Y121801D01*
X305859Y121495D01*
X306400Y121387D01*
X306941Y121495D01*
X307399Y121801D01*
X307705Y122259D01*
X307813Y122800D01*
X307705Y123341D01*
X307399Y123799D01*
X306941Y124105D01*
X306400Y124213D01*
D02*
G37*
G36*
X289500Y124013D02*
X288959Y123905D01*
X288501Y123599D01*
X288195Y123141D01*
X288087Y122600D01*
X288195Y122059D01*
X288501Y121601D01*
X288959Y121295D01*
X289500Y121187D01*
X290041Y121295D01*
X290499Y121601D01*
X290805Y122059D01*
X290913Y122600D01*
X290805Y123141D01*
X290499Y123599D01*
X290041Y123905D01*
X289500Y124013D01*
D02*
G37*
G36*
X300200Y122513D02*
X299659Y122405D01*
X299201Y122099D01*
X298895Y121641D01*
X298787Y121100D01*
X298895Y120559D01*
X299201Y120101D01*
X299659Y119795D01*
X300200Y119687D01*
X300741Y119795D01*
X301199Y120101D01*
X301505Y120559D01*
X301613Y121100D01*
X301505Y121641D01*
X301199Y122099D01*
X300741Y122405D01*
X300200Y122513D01*
D02*
G37*
G36*
X225700Y121013D02*
X225159Y120905D01*
X224701Y120599D01*
X224395Y120141D01*
X224287Y119600D01*
X224395Y119059D01*
X224701Y118601D01*
X225159Y118295D01*
X225700Y118187D01*
X226241Y118295D01*
X226699Y118601D01*
X227005Y119059D01*
X227113Y119600D01*
X227005Y120141D01*
X226699Y120599D01*
X226241Y120905D01*
X225700Y121013D01*
D02*
G37*
G36*
X183808Y121005D02*
X183267Y120897D01*
X182809Y120591D01*
X182502Y120133D01*
X182395Y119592D01*
X182502Y119051D01*
X182809Y118593D01*
X183267Y118287D01*
X183808Y118179D01*
X184349Y118287D01*
X184807Y118593D01*
X185113Y119051D01*
X185221Y119592D01*
X185113Y120133D01*
X184807Y120591D01*
X184349Y120897D01*
X183808Y121005D01*
D02*
G37*
G36*
X80900Y117061D02*
Y114600D01*
X83361D01*
X83295Y115095D01*
X83027Y115744D01*
X82600Y116300D01*
X82043Y116727D01*
X81395Y116995D01*
X80900Y117061D01*
D02*
G37*
G36*
X80500D02*
X80005Y116995D01*
X79356Y116727D01*
X78800Y116300D01*
X78373Y115744D01*
X78105Y115095D01*
X78039Y114600D01*
X80500D01*
Y117061D01*
D02*
G37*
G36*
X252800Y116413D02*
X252259Y116305D01*
X251801Y115999D01*
X251495Y115541D01*
X251387Y115000D01*
X251495Y114459D01*
X251801Y114001D01*
X252259Y113695D01*
X252800Y113587D01*
X253341Y113695D01*
X253799Y114001D01*
X254105Y114459D01*
X254213Y115000D01*
X254105Y115541D01*
X253799Y115999D01*
X253341Y116305D01*
X252800Y116413D01*
D02*
G37*
G36*
X154100Y115113D02*
X153559Y115005D01*
X153101Y114699D01*
X152795Y114241D01*
X152687Y113700D01*
X152795Y113159D01*
X153101Y112701D01*
X153559Y112395D01*
X154100Y112287D01*
X154641Y112395D01*
X155099Y112701D01*
X155405Y113159D01*
X155513Y113700D01*
X155405Y114241D01*
X155099Y114699D01*
X154641Y115005D01*
X154100Y115113D01*
D02*
G37*
G36*
X60700Y116940D02*
X59728Y116747D01*
X58904Y116196D01*
X58353Y115372D01*
X58160Y114400D01*
X58353Y113428D01*
X58904Y112604D01*
X59728Y112053D01*
X60700Y111860D01*
X61672Y112053D01*
X62496Y112604D01*
X63047Y113428D01*
X63240Y114400D01*
X63047Y115372D01*
X62496Y116196D01*
X61672Y116747D01*
X60700Y116940D01*
D02*
G37*
G36*
X83361Y114200D02*
X80900D01*
Y111739D01*
X81395Y111805D01*
X82043Y112073D01*
X82600Y112500D01*
X83027Y113057D01*
X83295Y113705D01*
X83361Y114200D01*
D02*
G37*
G36*
X80500D02*
X78039D01*
X78105Y113705D01*
X78373Y113057D01*
X78800Y112500D01*
X79356Y112073D01*
X80005Y111805D01*
X80500Y111739D01*
Y114200D01*
D02*
G37*
G36*
X120700Y117087D02*
X120005Y116995D01*
X119357Y116727D01*
X118800Y116300D01*
X118373Y115744D01*
X118105Y115095D01*
X118013Y114400D01*
X118105Y113705D01*
X118373Y113057D01*
X118800Y112500D01*
X119357Y112073D01*
X120005Y111805D01*
X120700Y111713D01*
X121395Y111805D01*
X122044Y112073D01*
X122600Y112500D01*
X123027Y113057D01*
X123295Y113705D01*
X123387Y114400D01*
X123295Y115095D01*
X123027Y115744D01*
X122600Y116300D01*
X122044Y116727D01*
X121395Y116995D01*
X120700Y117087D01*
D02*
G37*
G36*
X110700D02*
X110005Y116995D01*
X109356Y116727D01*
X108800Y116300D01*
X108373Y115744D01*
X108105Y115095D01*
X108013Y114400D01*
X108105Y113705D01*
X108373Y113057D01*
X108800Y112500D01*
X109356Y112073D01*
X110005Y111805D01*
X110700Y111713D01*
X111395Y111805D01*
X112043Y112073D01*
X112600Y112500D01*
X113027Y113057D01*
X113295Y113705D01*
X113387Y114400D01*
X113295Y115095D01*
X113027Y115744D01*
X112600Y116300D01*
X112043Y116727D01*
X111395Y116995D01*
X110700Y117087D01*
D02*
G37*
G36*
X100700D02*
X100005Y116995D01*
X99357Y116727D01*
X98800Y116300D01*
X98373Y115744D01*
X98105Y115095D01*
X98013Y114400D01*
X98105Y113705D01*
X98373Y113057D01*
X98800Y112500D01*
X99357Y112073D01*
X100005Y111805D01*
X100700Y111713D01*
X101395Y111805D01*
X102043Y112073D01*
X102600Y112500D01*
X103027Y113057D01*
X103295Y113705D01*
X103387Y114400D01*
X103295Y115095D01*
X103027Y115744D01*
X102600Y116300D01*
X102043Y116727D01*
X101395Y116995D01*
X100700Y117087D01*
D02*
G37*
G36*
X70700D02*
X70005Y116995D01*
X69357Y116727D01*
X68800Y116300D01*
X68373Y115744D01*
X68105Y115095D01*
X68013Y114400D01*
X68105Y113705D01*
X68373Y113057D01*
X68800Y112500D01*
X69357Y112073D01*
X70005Y111805D01*
X70700Y111713D01*
X71395Y111805D01*
X72044Y112073D01*
X72600Y112500D01*
X73027Y113057D01*
X73295Y113705D01*
X73387Y114400D01*
X73295Y115095D01*
X73027Y115744D01*
X72600Y116300D01*
X72044Y116727D01*
X71395Y116995D01*
X70700Y117087D01*
D02*
G37*
G36*
X248600Y114013D02*
X248059Y113905D01*
X247601Y113599D01*
X247295Y113141D01*
X247187Y112600D01*
X247295Y112059D01*
X247601Y111601D01*
X248059Y111295D01*
X248600Y111187D01*
X249141Y111295D01*
X249599Y111601D01*
X249905Y112059D01*
X250013Y112600D01*
X249905Y113141D01*
X249599Y113599D01*
X249141Y113905D01*
X248600Y114013D01*
D02*
G37*
G36*
X252800Y111513D02*
X252259Y111405D01*
X251801Y111099D01*
X251495Y110641D01*
X251387Y110100D01*
X251495Y109559D01*
X251801Y109101D01*
X252259Y108795D01*
X252800Y108687D01*
X253341Y108795D01*
X253799Y109101D01*
X254105Y109559D01*
X254213Y110100D01*
X254105Y110641D01*
X253799Y111099D01*
X253341Y111405D01*
X252800Y111513D01*
D02*
G37*
G36*
X322900Y110561D02*
Y108100D01*
X325361D01*
X325295Y108595D01*
X325027Y109244D01*
X324600Y109800D01*
X324043Y110227D01*
X323395Y110495D01*
X322900Y110561D01*
D02*
G37*
G36*
X322500D02*
X322005Y110495D01*
X321357Y110227D01*
X320800Y109800D01*
X320373Y109244D01*
X320105Y108595D01*
X320039Y108100D01*
X322500D01*
Y110561D01*
D02*
G37*
G36*
X152200Y112313D02*
X151659Y112205D01*
X151201Y111899D01*
X150895Y111441D01*
X150787Y110900D01*
X150895Y110359D01*
X151201Y109901D01*
X151659Y109595D01*
X152200Y109487D01*
X152402Y109527D01*
X152827Y109102D01*
X152787Y108900D01*
X152895Y108359D01*
X153097Y108057D01*
X152775Y107638D01*
X152400Y107713D01*
X151859Y107605D01*
X151401Y107299D01*
X151095Y106841D01*
X150987Y106300D01*
X151095Y105759D01*
X151401Y105301D01*
X151859Y104995D01*
X152400Y104887D01*
X152941Y104995D01*
X153399Y105301D01*
X153705Y105759D01*
X153813Y106300D01*
X153705Y106841D01*
X153503Y107143D01*
X153825Y107562D01*
X154200Y107487D01*
X154741Y107595D01*
X155199Y107901D01*
X155505Y108359D01*
X155613Y108900D01*
X155505Y109441D01*
X155199Y109899D01*
X154741Y110205D01*
X154200Y110313D01*
X153998Y110273D01*
X153573Y110698D01*
X153613Y110900D01*
X153505Y111441D01*
X153199Y111899D01*
X152741Y112205D01*
X152200Y112313D01*
D02*
G37*
G36*
X248700Y109013D02*
X248159Y108905D01*
X247701Y108599D01*
X247395Y108141D01*
X247287Y107600D01*
X247395Y107059D01*
X247701Y106601D01*
X248159Y106295D01*
X248700Y106187D01*
X249241Y106295D01*
X249699Y106601D01*
X250005Y107059D01*
X250113Y107600D01*
X250005Y108141D01*
X249699Y108599D01*
X249241Y108905D01*
X248700Y109013D01*
D02*
G37*
G36*
X37000D02*
X36459Y108905D01*
X36001Y108599D01*
X35695Y108141D01*
X35587Y107600D01*
X35695Y107059D01*
X36001Y106601D01*
X36459Y106295D01*
X37000Y106187D01*
X37541Y106295D01*
X37999Y106601D01*
X38305Y107059D01*
X38413Y107600D01*
X38305Y108141D01*
X37999Y108599D01*
X37541Y108905D01*
X37000Y109013D01*
D02*
G37*
G36*
X342700Y110441D02*
X341728Y110247D01*
X340904Y109696D01*
X340353Y108872D01*
X340160Y107900D01*
X340353Y106928D01*
X340904Y106104D01*
X341728Y105553D01*
X342700Y105359D01*
X343672Y105553D01*
X344496Y106104D01*
X345047Y106928D01*
X345240Y107900D01*
X345047Y108872D01*
X344496Y109696D01*
X343672Y110247D01*
X342700Y110441D01*
D02*
G37*
G36*
X325361Y107700D02*
X322900D01*
Y105239D01*
X323395Y105305D01*
X324043Y105573D01*
X324600Y106000D01*
X325027Y106556D01*
X325295Y107205D01*
X325361Y107700D01*
D02*
G37*
G36*
X322500D02*
X320039D01*
X320105Y107205D01*
X320373Y106556D01*
X320800Y106000D01*
X321357Y105573D01*
X322005Y105305D01*
X322500Y105239D01*
Y107700D01*
D02*
G37*
G36*
X332700Y110587D02*
X332005Y110495D01*
X331357Y110227D01*
X330800Y109800D01*
X330373Y109244D01*
X330105Y108595D01*
X330013Y107900D01*
X330105Y107205D01*
X330373Y106556D01*
X330800Y106000D01*
X331357Y105573D01*
X332005Y105305D01*
X332700Y105213D01*
X333395Y105305D01*
X334044Y105573D01*
X334600Y106000D01*
X335027Y106556D01*
X335295Y107205D01*
X335387Y107900D01*
X335295Y108595D01*
X335027Y109244D01*
X334600Y109800D01*
X334044Y110227D01*
X333395Y110495D01*
X332700Y110587D01*
D02*
G37*
G36*
X302700D02*
X302005Y110495D01*
X301357Y110227D01*
X300800Y109800D01*
X300373Y109244D01*
X300105Y108595D01*
X300013Y107900D01*
X300105Y107205D01*
X300373Y106556D01*
X300800Y106000D01*
X301357Y105573D01*
X302005Y105305D01*
X302700Y105213D01*
X303395Y105305D01*
X304044Y105573D01*
X304600Y106000D01*
X305027Y106556D01*
X305295Y107205D01*
X305387Y107900D01*
X305295Y108595D01*
X305027Y109244D01*
X304600Y109800D01*
X304044Y110227D01*
X303395Y110495D01*
X302700Y110587D01*
D02*
G37*
G36*
X292700D02*
X292005Y110495D01*
X291356Y110227D01*
X290800Y109800D01*
X290373Y109244D01*
X290105Y108595D01*
X290013Y107900D01*
X290105Y107205D01*
X290373Y106556D01*
X290800Y106000D01*
X291356Y105573D01*
X292005Y105305D01*
X292700Y105213D01*
X293395Y105305D01*
X294043Y105573D01*
X294600Y106000D01*
X295027Y106556D01*
X295295Y107205D01*
X295387Y107900D01*
X295295Y108595D01*
X295027Y109244D01*
X294600Y109800D01*
X294043Y110227D01*
X293395Y110495D01*
X292700Y110587D01*
D02*
G37*
G36*
X282700D02*
X282005Y110495D01*
X281357Y110227D01*
X280800Y109800D01*
X280373Y109244D01*
X280105Y108595D01*
X280013Y107900D01*
X280105Y107205D01*
X280373Y106556D01*
X280800Y106000D01*
X281357Y105573D01*
X282005Y105305D01*
X282700Y105213D01*
X283395Y105305D01*
X284044Y105573D01*
X284600Y106000D01*
X285027Y106556D01*
X285295Y107205D01*
X285387Y107900D01*
X285295Y108595D01*
X285027Y109244D01*
X284600Y109800D01*
X284044Y110227D01*
X283395Y110495D01*
X282700Y110587D01*
D02*
G37*
G36*
X252900Y106213D02*
X252359Y106105D01*
X251901Y105799D01*
X251595Y105341D01*
X251487Y104800D01*
X251595Y104259D01*
X251901Y103801D01*
X252359Y103495D01*
X252900Y103387D01*
X253441Y103495D01*
X253899Y103801D01*
X254205Y104259D01*
X254313Y104800D01*
X254205Y105341D01*
X253899Y105799D01*
X253441Y106105D01*
X252900Y106213D01*
D02*
G37*
G36*
X154200Y104913D02*
X153659Y104805D01*
X153201Y104499D01*
X152895Y104041D01*
X152787Y103500D01*
X152895Y102959D01*
X153075Y102690D01*
X152774Y102240D01*
X152523Y102290D01*
X151982Y102182D01*
X151524Y101876D01*
X151218Y101418D01*
X151110Y100877D01*
X151218Y100336D01*
X151524Y99878D01*
X151982Y99571D01*
X152523Y99464D01*
X153064Y99571D01*
X153311Y99150D01*
X153044Y98971D01*
X152737Y98512D01*
X152630Y97972D01*
X152737Y97431D01*
X153044Y96973D01*
X153502Y96666D01*
X154043Y96559D01*
X154584Y96666D01*
X155042Y96973D01*
X155348Y97431D01*
X155456Y97972D01*
X155348Y98512D01*
X155042Y98971D01*
X154584Y99277D01*
X154043Y99385D01*
X153502Y99277D01*
X153255Y99699D01*
X153522Y99878D01*
X153829Y100336D01*
X153936Y100877D01*
X153829Y101418D01*
X153649Y101687D01*
X153949Y102137D01*
X154200Y102087D01*
X154741Y102195D01*
X155199Y102501D01*
X155505Y102959D01*
X155613Y103500D01*
X155505Y104041D01*
X155199Y104499D01*
X154741Y104805D01*
X154200Y104913D01*
D02*
G37*
G36*
X95600Y103799D02*
X95059Y103691D01*
X94601Y103385D01*
X94295Y102927D01*
X94187Y102386D01*
X94295Y101845D01*
X94601Y101387D01*
X95059Y101080D01*
X95600Y100973D01*
X96141Y101080D01*
X96599Y101387D01*
X96905Y101845D01*
X97013Y102386D01*
X96905Y102927D01*
X96599Y103385D01*
X96141Y103691D01*
X95600Y103799D01*
D02*
G37*
G36*
X248600Y103613D02*
X248059Y103505D01*
X247601Y103199D01*
X247295Y102741D01*
X247187Y102200D01*
X247295Y101659D01*
X247601Y101201D01*
X248059Y100895D01*
X248600Y100787D01*
X249141Y100895D01*
X249599Y101201D01*
X249905Y101659D01*
X250013Y102200D01*
X249905Y102741D01*
X249599Y103199D01*
X249141Y103505D01*
X248600Y103613D01*
D02*
G37*
G36*
X366400Y101613D02*
X365859Y101505D01*
X365401Y101199D01*
X365095Y100741D01*
X364987Y100200D01*
X365095Y99659D01*
X365401Y99201D01*
X365859Y98895D01*
X366400Y98787D01*
X366941Y98895D01*
X367399Y99201D01*
X367705Y99659D01*
X367813Y100200D01*
X367705Y100741D01*
X367399Y101199D01*
X366941Y101505D01*
X366400Y101613D01*
D02*
G37*
G36*
X92400Y101213D02*
X91859Y101105D01*
X91401Y100799D01*
X91095Y100341D01*
X90987Y99800D01*
X91095Y99259D01*
X91401Y98801D01*
X91859Y98495D01*
X92400Y98387D01*
X92941Y98495D01*
X93399Y98801D01*
X93705Y99259D01*
X93813Y99800D01*
X93705Y100341D01*
X93399Y100799D01*
X92941Y101105D01*
X92400Y101213D01*
D02*
G37*
G36*
X252700Y101113D02*
X252159Y101005D01*
X251701Y100699D01*
X251395Y100241D01*
X251287Y99700D01*
X251395Y99159D01*
X251701Y98701D01*
X252159Y98395D01*
X252700Y98287D01*
X253241Y98395D01*
X253699Y98701D01*
X254005Y99159D01*
X254113Y99700D01*
X254005Y100241D01*
X253699Y100699D01*
X253241Y101005D01*
X252700Y101113D01*
D02*
G37*
G36*
X116600Y99113D02*
X116059Y99005D01*
X115601Y98699D01*
X115295Y98241D01*
X115187Y97700D01*
X115295Y97159D01*
X115601Y96701D01*
X116059Y96395D01*
X116600Y96287D01*
X117141Y96395D01*
X117599Y96701D01*
X117905Y97159D01*
X118013Y97700D01*
X117905Y98241D01*
X117599Y98699D01*
X117141Y99005D01*
X116600Y99113D01*
D02*
G37*
G36*
X102100Y99013D02*
X101559Y98905D01*
X101101Y98599D01*
X100795Y98141D01*
X100687Y97600D01*
X100795Y97059D01*
X101101Y96601D01*
X101559Y96295D01*
X102100Y96187D01*
X102641Y96295D01*
X103099Y96601D01*
X103405Y97059D01*
X103513Y97600D01*
X103405Y98141D01*
X103099Y98599D01*
X102641Y98905D01*
X102100Y99013D01*
D02*
G37*
G36*
X300600Y95413D02*
X300059Y95305D01*
X299601Y94999D01*
X299295Y94541D01*
X299187Y94000D01*
X299295Y93459D01*
X299601Y93001D01*
X300059Y92695D01*
X300600Y92587D01*
X301141Y92695D01*
X301599Y93001D01*
X301905Y93459D01*
X302013Y94000D01*
X301905Y94541D01*
X301599Y94999D01*
X301141Y95305D01*
X300600Y95413D01*
D02*
G37*
G36*
X217100D02*
X216559Y95305D01*
X216101Y94999D01*
X215795Y94541D01*
X215687Y94000D01*
X215795Y93459D01*
X216101Y93001D01*
X216559Y92695D01*
X217100Y92587D01*
X217641Y92695D01*
X218099Y93001D01*
X218405Y93459D01*
X218513Y94000D01*
X218405Y94541D01*
X218099Y94999D01*
X217641Y95305D01*
X217100Y95413D01*
D02*
G37*
G36*
X233800Y94213D02*
X233259Y94105D01*
X232801Y93799D01*
X232495Y93341D01*
X232387Y92800D01*
X232495Y92259D01*
X232801Y91801D01*
X233259Y91495D01*
X233800Y91387D01*
X234341Y91495D01*
X234799Y91801D01*
X235105Y92259D01*
X235213Y92800D01*
X235105Y93341D01*
X234799Y93799D01*
X234341Y94105D01*
X233800Y94213D01*
D02*
G37*
G36*
X299900Y91813D02*
X299359Y91705D01*
X298901Y91399D01*
X298595Y90941D01*
X298487Y90400D01*
X298595Y89859D01*
X298901Y89401D01*
X299359Y89095D01*
X299900Y88987D01*
X300441Y89095D01*
X300899Y89401D01*
X301205Y89859D01*
X301313Y90400D01*
X301205Y90941D01*
X300899Y91399D01*
X300441Y91705D01*
X299900Y91813D01*
D02*
G37*
G36*
X294100Y90213D02*
X293559Y90105D01*
X293101Y89799D01*
X292795Y89341D01*
X292687Y88800D01*
X292795Y88259D01*
X293101Y87801D01*
X293559Y87495D01*
X294100Y87387D01*
X294641Y87495D01*
X295099Y87801D01*
X295405Y88259D01*
X295513Y88800D01*
X295405Y89341D01*
X295099Y89799D01*
X294641Y90105D01*
X294100Y90213D01*
D02*
G37*
G36*
X33200Y90013D02*
X32659Y89905D01*
X32201Y89599D01*
X31895Y89141D01*
X31787Y88600D01*
X31895Y88059D01*
X32201Y87601D01*
X32659Y87295D01*
X33200Y87187D01*
X33741Y87295D01*
X34199Y87601D01*
X34505Y88059D01*
X34613Y88600D01*
X34505Y89141D01*
X34199Y89599D01*
X33741Y89905D01*
X33200Y90013D01*
D02*
G37*
G36*
X81100Y86261D02*
Y83800D01*
X83561D01*
X83495Y84295D01*
X83227Y84943D01*
X82800Y85500D01*
X82244Y85927D01*
X81595Y86195D01*
X81100Y86261D01*
D02*
G37*
G36*
X80700D02*
X80205Y86195D01*
X79557Y85927D01*
X79000Y85500D01*
X78573Y84943D01*
X78305Y84295D01*
X78239Y83800D01*
X80700D01*
Y86261D01*
D02*
G37*
G36*
X60900Y86141D02*
X59928Y85947D01*
X59104Y85396D01*
X58553Y84572D01*
X58359Y83600D01*
X58553Y82628D01*
X59104Y81804D01*
X59928Y81253D01*
X60900Y81059D01*
X61872Y81253D01*
X62696Y81804D01*
X63247Y82628D01*
X63441Y83600D01*
X63247Y84572D01*
X62696Y85396D01*
X61872Y85947D01*
X60900Y86141D01*
D02*
G37*
G36*
X83561Y83400D02*
X81100D01*
Y80939D01*
X81595Y81005D01*
X82244Y81273D01*
X82800Y81700D01*
X83227Y82257D01*
X83495Y82905D01*
X83561Y83400D01*
D02*
G37*
G36*
X80700D02*
X78239D01*
X78305Y82905D01*
X78573Y82257D01*
X79000Y81700D01*
X79557Y81273D01*
X80205Y81005D01*
X80700Y80939D01*
Y83400D01*
D02*
G37*
G36*
X120900Y86287D02*
X120205Y86195D01*
X119556Y85927D01*
X119000Y85500D01*
X118573Y84943D01*
X118305Y84295D01*
X118213Y83600D01*
X118305Y82905D01*
X118573Y82257D01*
X119000Y81700D01*
X119556Y81273D01*
X120205Y81005D01*
X120900Y80913D01*
X121595Y81005D01*
X122243Y81273D01*
X122800Y81700D01*
X123227Y82257D01*
X123495Y82905D01*
X123587Y83600D01*
X123495Y84295D01*
X123227Y84943D01*
X122800Y85500D01*
X122243Y85927D01*
X121595Y86195D01*
X120900Y86287D01*
D02*
G37*
G36*
X110900D02*
X110205Y86195D01*
X109556Y85927D01*
X109000Y85500D01*
X108573Y84943D01*
X108305Y84295D01*
X108213Y83600D01*
X108305Y82905D01*
X108573Y82257D01*
X109000Y81700D01*
X109556Y81273D01*
X110205Y81005D01*
X110900Y80913D01*
X111595Y81005D01*
X112243Y81273D01*
X112800Y81700D01*
X113227Y82257D01*
X113495Y82905D01*
X113587Y83600D01*
X113495Y84295D01*
X113227Y84943D01*
X112800Y85500D01*
X112243Y85927D01*
X111595Y86195D01*
X110900Y86287D01*
D02*
G37*
G36*
X100900D02*
X100205Y86195D01*
X99556Y85927D01*
X99000Y85500D01*
X98573Y84943D01*
X98305Y84295D01*
X98213Y83600D01*
X98305Y82905D01*
X98573Y82257D01*
X99000Y81700D01*
X99556Y81273D01*
X100205Y81005D01*
X100900Y80913D01*
X101595Y81005D01*
X102243Y81273D01*
X102800Y81700D01*
X103227Y82257D01*
X103495Y82905D01*
X103587Y83600D01*
X103495Y84295D01*
X103227Y84943D01*
X102800Y85500D01*
X102243Y85927D01*
X101595Y86195D01*
X100900Y86287D01*
D02*
G37*
G36*
X70900D02*
X70205Y86195D01*
X69556Y85927D01*
X69000Y85500D01*
X68573Y84943D01*
X68305Y84295D01*
X68213Y83600D01*
X68305Y82905D01*
X68573Y82257D01*
X69000Y81700D01*
X69556Y81273D01*
X70205Y81005D01*
X70900Y80913D01*
X71595Y81005D01*
X72243Y81273D01*
X72800Y81700D01*
X73227Y82257D01*
X73495Y82905D01*
X73587Y83600D01*
X73495Y84295D01*
X73227Y84943D01*
X72800Y85500D01*
X72243Y85927D01*
X71595Y86195D01*
X70900Y86287D01*
D02*
G37*
G36*
X323000Y78061D02*
Y75600D01*
X325461D01*
X325395Y76095D01*
X325127Y76744D01*
X324700Y77300D01*
X324144Y77727D01*
X323495Y77995D01*
X323000Y78061D01*
D02*
G37*
G36*
X322600D02*
X322105Y77995D01*
X321457Y77727D01*
X320900Y77300D01*
X320473Y76744D01*
X320205Y76095D01*
X320139Y75600D01*
X322600D01*
Y78061D01*
D02*
G37*
G36*
X33800Y85169D02*
X32462Y84992D01*
X31216Y84476D01*
X30145Y83655D01*
X29324Y82584D01*
X28808Y81338D01*
X28631Y80000D01*
X28808Y78662D01*
X29324Y77416D01*
X30145Y76345D01*
X31216Y75524D01*
X32462Y75007D01*
X33800Y74831D01*
X35138Y75007D01*
X36384Y75524D01*
X37455Y76345D01*
X38276Y77416D01*
X38792Y78662D01*
X38969Y80000D01*
X38792Y81338D01*
X38276Y82584D01*
X37455Y83655D01*
X36384Y84476D01*
X35138Y84992D01*
X33800Y85169D01*
D02*
G37*
G36*
X13800D02*
X12462Y84992D01*
X11216Y84476D01*
X10145Y83655D01*
X9324Y82584D01*
X8807Y81338D01*
X8631Y80000D01*
X8807Y78662D01*
X9324Y77416D01*
X10145Y76345D01*
X11216Y75524D01*
X12462Y75007D01*
X13800Y74831D01*
X15138Y75007D01*
X16384Y75524D01*
X17455Y76345D01*
X18276Y77416D01*
X18792Y78662D01*
X18969Y80000D01*
X18792Y81338D01*
X18276Y82584D01*
X17455Y83655D01*
X16384Y84476D01*
X15138Y84992D01*
X13800Y85169D01*
D02*
G37*
G36*
X342800Y77940D02*
X341828Y77747D01*
X341004Y77196D01*
X340453Y76372D01*
X340260Y75400D01*
X340453Y74428D01*
X341004Y73604D01*
X341828Y73053D01*
X342800Y72860D01*
X343772Y73053D01*
X344596Y73604D01*
X345147Y74428D01*
X345340Y75400D01*
X345147Y76372D01*
X344596Y77196D01*
X343772Y77747D01*
X342800Y77940D01*
D02*
G37*
G36*
X325461Y75200D02*
X323000D01*
Y72739D01*
X323495Y72805D01*
X324144Y73073D01*
X324700Y73500D01*
X325127Y74057D01*
X325395Y74705D01*
X325461Y75200D01*
D02*
G37*
G36*
X322600D02*
X320139D01*
X320205Y74705D01*
X320473Y74057D01*
X320900Y73500D01*
X321457Y73073D01*
X322105Y72805D01*
X322600Y72739D01*
Y75200D01*
D02*
G37*
G36*
X332800Y78087D02*
X332105Y77995D01*
X331456Y77727D01*
X330900Y77300D01*
X330473Y76744D01*
X330205Y76095D01*
X330113Y75400D01*
X330205Y74705D01*
X330473Y74057D01*
X330900Y73500D01*
X331456Y73073D01*
X332105Y72805D01*
X332800Y72713D01*
X333495Y72805D01*
X334143Y73073D01*
X334700Y73500D01*
X335127Y74057D01*
X335395Y74705D01*
X335487Y75400D01*
X335395Y76095D01*
X335127Y76744D01*
X334700Y77300D01*
X334143Y77727D01*
X333495Y77995D01*
X332800Y78087D01*
D02*
G37*
G36*
X302800D02*
X302105Y77995D01*
X301456Y77727D01*
X300900Y77300D01*
X300473Y76744D01*
X300205Y76095D01*
X300113Y75400D01*
X300205Y74705D01*
X300473Y74057D01*
X300900Y73500D01*
X301456Y73073D01*
X302105Y72805D01*
X302800Y72713D01*
X303495Y72805D01*
X304144Y73073D01*
X304700Y73500D01*
X305127Y74057D01*
X305395Y74705D01*
X305487Y75400D01*
X305395Y76095D01*
X305127Y76744D01*
X304700Y77300D01*
X304144Y77727D01*
X303495Y77995D01*
X302800Y78087D01*
D02*
G37*
G36*
X292800D02*
X292105Y77995D01*
X291457Y77727D01*
X290900Y77300D01*
X290473Y76744D01*
X290205Y76095D01*
X290113Y75400D01*
X290205Y74705D01*
X290473Y74057D01*
X290900Y73500D01*
X291457Y73073D01*
X292105Y72805D01*
X292800Y72713D01*
X293495Y72805D01*
X294144Y73073D01*
X294700Y73500D01*
X295127Y74057D01*
X295395Y74705D01*
X295487Y75400D01*
X295395Y76095D01*
X295127Y76744D01*
X294700Y77300D01*
X294144Y77727D01*
X293495Y77995D01*
X292800Y78087D01*
D02*
G37*
G36*
X282800D02*
X282105Y77995D01*
X281456Y77727D01*
X280900Y77300D01*
X280473Y76744D01*
X280205Y76095D01*
X280113Y75400D01*
X280205Y74705D01*
X280473Y74057D01*
X280900Y73500D01*
X281456Y73073D01*
X282105Y72805D01*
X282800Y72713D01*
X283495Y72805D01*
X284143Y73073D01*
X284700Y73500D01*
X285127Y74057D01*
X285395Y74705D01*
X285487Y75400D01*
X285395Y76095D01*
X285127Y76744D01*
X284700Y77300D01*
X284143Y77727D01*
X283495Y77995D01*
X282800Y78087D01*
D02*
G37*
G36*
X365900Y69413D02*
X365359Y69305D01*
X364901Y68999D01*
X364595Y68541D01*
X364487Y68000D01*
X364595Y67459D01*
X364901Y67001D01*
X365359Y66695D01*
X365900Y66587D01*
X366441Y66695D01*
X366899Y67001D01*
X367205Y67459D01*
X367313Y68000D01*
X367205Y68541D01*
X366899Y68999D01*
X366441Y69305D01*
X365900Y69413D01*
D02*
G37*
G36*
X23800Y75169D02*
X22462Y74993D01*
X21216Y74476D01*
X20145Y73655D01*
X19324Y72584D01*
X18808Y71338D01*
X18631Y70000D01*
X18808Y68662D01*
X19324Y67416D01*
X20145Y66345D01*
X21216Y65524D01*
X22462Y65008D01*
X23800Y64831D01*
X25138Y65008D01*
X26384Y65524D01*
X27455Y66345D01*
X28276Y67416D01*
X28793Y68662D01*
X28969Y70000D01*
X28793Y71338D01*
X28276Y72584D01*
X27455Y73655D01*
X26384Y74476D01*
X25138Y74993D01*
X23800Y75169D01*
D02*
G37*
G36*
X33800Y65169D02*
X32462Y64992D01*
X31216Y64476D01*
X30145Y63655D01*
X29324Y62584D01*
X28808Y61338D01*
X28631Y60000D01*
X28808Y58662D01*
X29324Y57416D01*
X30145Y56345D01*
X31216Y55524D01*
X32462Y55007D01*
X33800Y54831D01*
X35138Y55007D01*
X36384Y55524D01*
X37455Y56345D01*
X38276Y57416D01*
X38792Y58662D01*
X38969Y60000D01*
X38792Y61338D01*
X38276Y62584D01*
X37455Y63655D01*
X36384Y64476D01*
X35138Y64992D01*
X33800Y65169D01*
D02*
G37*
G36*
X13800D02*
X12462Y64992D01*
X11216Y64476D01*
X10145Y63655D01*
X9324Y62584D01*
X8807Y61338D01*
X8631Y60000D01*
X8807Y58662D01*
X9324Y57416D01*
X10145Y56345D01*
X11216Y55524D01*
X12462Y55007D01*
X13800Y54831D01*
X15138Y55007D01*
X16384Y55524D01*
X17455Y56345D01*
X18276Y57416D01*
X18792Y58662D01*
X18969Y60000D01*
X18792Y61338D01*
X18276Y62584D01*
X17455Y63655D01*
X16384Y64476D01*
X15138Y64992D01*
X13800Y65169D01*
D02*
G37*
G36*
X81500Y56761D02*
Y54300D01*
X83961D01*
X83895Y54795D01*
X83627Y55444D01*
X83200Y56000D01*
X82644Y56427D01*
X81995Y56695D01*
X81500Y56761D01*
D02*
G37*
G36*
X81100D02*
X80605Y56695D01*
X79957Y56427D01*
X79400Y56000D01*
X78973Y55444D01*
X78705Y54795D01*
X78639Y54300D01*
X81100D01*
Y56761D01*
D02*
G37*
G36*
X61300Y56640D02*
X60328Y56447D01*
X59504Y55896D01*
X58953Y55072D01*
X58759Y54100D01*
X58953Y53128D01*
X59504Y52304D01*
X60328Y51753D01*
X61300Y51560D01*
X62272Y51753D01*
X63096Y52304D01*
X63647Y53128D01*
X63841Y54100D01*
X63647Y55072D01*
X63096Y55896D01*
X62272Y56447D01*
X61300Y56640D01*
D02*
G37*
G36*
X83961Y53900D02*
X81500D01*
Y51439D01*
X81995Y51505D01*
X82644Y51773D01*
X83200Y52200D01*
X83627Y52757D01*
X83895Y53405D01*
X83961Y53900D01*
D02*
G37*
G36*
X81100D02*
X78639D01*
X78705Y53405D01*
X78973Y52757D01*
X79400Y52200D01*
X79957Y51773D01*
X80605Y51505D01*
X81100Y51439D01*
Y53900D01*
D02*
G37*
G36*
X121300Y56787D02*
X120605Y56695D01*
X119957Y56427D01*
X119400Y56000D01*
X118973Y55444D01*
X118705Y54795D01*
X118613Y54100D01*
X118705Y53405D01*
X118973Y52757D01*
X119400Y52200D01*
X119957Y51773D01*
X120605Y51505D01*
X121300Y51413D01*
X121995Y51505D01*
X122643Y51773D01*
X123200Y52200D01*
X123627Y52757D01*
X123895Y53405D01*
X123987Y54100D01*
X123895Y54795D01*
X123627Y55444D01*
X123200Y56000D01*
X122643Y56427D01*
X121995Y56695D01*
X121300Y56787D01*
D02*
G37*
G36*
X111300D02*
X110605Y56695D01*
X109957Y56427D01*
X109400Y56000D01*
X108973Y55444D01*
X108705Y54795D01*
X108613Y54100D01*
X108705Y53405D01*
X108973Y52757D01*
X109400Y52200D01*
X109957Y51773D01*
X110605Y51505D01*
X111300Y51413D01*
X111995Y51505D01*
X112644Y51773D01*
X113200Y52200D01*
X113627Y52757D01*
X113895Y53405D01*
X113987Y54100D01*
X113895Y54795D01*
X113627Y55444D01*
X113200Y56000D01*
X112644Y56427D01*
X111995Y56695D01*
X111300Y56787D01*
D02*
G37*
G36*
X101300D02*
X100605Y56695D01*
X99957Y56427D01*
X99400Y56000D01*
X98973Y55444D01*
X98705Y54795D01*
X98613Y54100D01*
X98705Y53405D01*
X98973Y52757D01*
X99400Y52200D01*
X99957Y51773D01*
X100605Y51505D01*
X101300Y51413D01*
X101995Y51505D01*
X102644Y51773D01*
X103200Y52200D01*
X103627Y52757D01*
X103895Y53405D01*
X103987Y54100D01*
X103895Y54795D01*
X103627Y55444D01*
X103200Y56000D01*
X102644Y56427D01*
X101995Y56695D01*
X101300Y56787D01*
D02*
G37*
G36*
X71300D02*
X70605Y56695D01*
X69956Y56427D01*
X69400Y56000D01*
X68973Y55444D01*
X68705Y54795D01*
X68613Y54100D01*
X68705Y53405D01*
X68973Y52757D01*
X69400Y52200D01*
X69956Y51773D01*
X70605Y51505D01*
X71300Y51413D01*
X71995Y51505D01*
X72644Y51773D01*
X73200Y52200D01*
X73627Y52757D01*
X73895Y53405D01*
X73987Y54100D01*
X73895Y54795D01*
X73627Y55444D01*
X73200Y56000D01*
X72644Y56427D01*
X71995Y56695D01*
X71300Y56787D01*
D02*
G37*
G36*
X238100Y46913D02*
X237559Y46805D01*
X237101Y46499D01*
X236795Y46041D01*
X236687Y45500D01*
X236795Y44959D01*
X237101Y44501D01*
X237559Y44195D01*
X238100Y44087D01*
X238641Y44195D01*
X239099Y44501D01*
X239405Y44959D01*
X239513Y45500D01*
X239405Y46041D01*
X239099Y46499D01*
X238641Y46805D01*
X238100Y46913D01*
D02*
G37*
G36*
X322700Y45261D02*
Y42800D01*
X325161D01*
X325095Y43295D01*
X324827Y43944D01*
X324400Y44500D01*
X323844Y44927D01*
X323195Y45195D01*
X322700Y45261D01*
D02*
G37*
G36*
X322300D02*
X321805Y45195D01*
X321157Y44927D01*
X320600Y44500D01*
X320173Y43944D01*
X319905Y43295D01*
X319839Y42800D01*
X322300D01*
Y45261D01*
D02*
G37*
G36*
X37300Y44613D02*
X36759Y44505D01*
X36301Y44199D01*
X35995Y43741D01*
X35887Y43200D01*
X35995Y42659D01*
X36301Y42201D01*
X36759Y41895D01*
X37300Y41787D01*
X37841Y41895D01*
X38299Y42201D01*
X38605Y42659D01*
X38713Y43200D01*
X38605Y43741D01*
X38299Y44199D01*
X37841Y44505D01*
X37300Y44613D01*
D02*
G37*
G36*
X342500Y45140D02*
X341528Y44947D01*
X340704Y44396D01*
X340153Y43572D01*
X339960Y42600D01*
X340153Y41628D01*
X340704Y40804D01*
X341528Y40253D01*
X342500Y40060D01*
X343472Y40253D01*
X344296Y40804D01*
X344847Y41628D01*
X345040Y42600D01*
X344847Y43572D01*
X344296Y44396D01*
X343472Y44947D01*
X342500Y45140D01*
D02*
G37*
G36*
X325161Y42400D02*
X322700D01*
Y39939D01*
X323195Y40005D01*
X323844Y40273D01*
X324400Y40700D01*
X324827Y41256D01*
X325095Y41905D01*
X325161Y42400D01*
D02*
G37*
G36*
X322300D02*
X319839D01*
X319905Y41905D01*
X320173Y41256D01*
X320600Y40700D01*
X321157Y40273D01*
X321805Y40005D01*
X322300Y39939D01*
Y42400D01*
D02*
G37*
G36*
X332500Y45287D02*
X331805Y45195D01*
X331156Y44927D01*
X330600Y44500D01*
X330173Y43944D01*
X329905Y43295D01*
X329813Y42600D01*
X329905Y41905D01*
X330173Y41256D01*
X330600Y40700D01*
X331156Y40273D01*
X331805Y40005D01*
X332500Y39913D01*
X333195Y40005D01*
X333843Y40273D01*
X334400Y40700D01*
X334827Y41256D01*
X335095Y41905D01*
X335187Y42600D01*
X335095Y43295D01*
X334827Y43944D01*
X334400Y44500D01*
X333843Y44927D01*
X333195Y45195D01*
X332500Y45287D01*
D02*
G37*
G36*
X302500D02*
X301805Y45195D01*
X301156Y44927D01*
X300600Y44500D01*
X300173Y43944D01*
X299905Y43295D01*
X299813Y42600D01*
X299905Y41905D01*
X300173Y41256D01*
X300600Y40700D01*
X301156Y40273D01*
X301805Y40005D01*
X302500Y39913D01*
X303195Y40005D01*
X303843Y40273D01*
X304400Y40700D01*
X304827Y41256D01*
X305095Y41905D01*
X305187Y42600D01*
X305095Y43295D01*
X304827Y43944D01*
X304400Y44500D01*
X303843Y44927D01*
X303195Y45195D01*
X302500Y45287D01*
D02*
G37*
G36*
X292500D02*
X291805Y45195D01*
X291157Y44927D01*
X290600Y44500D01*
X290173Y43944D01*
X289905Y43295D01*
X289813Y42600D01*
X289905Y41905D01*
X290173Y41256D01*
X290600Y40700D01*
X291157Y40273D01*
X291805Y40005D01*
X292500Y39913D01*
X293195Y40005D01*
X293844Y40273D01*
X294400Y40700D01*
X294827Y41256D01*
X295095Y41905D01*
X295187Y42600D01*
X295095Y43295D01*
X294827Y43944D01*
X294400Y44500D01*
X293844Y44927D01*
X293195Y45195D01*
X292500Y45287D01*
D02*
G37*
G36*
X282500D02*
X281805Y45195D01*
X281156Y44927D01*
X280600Y44500D01*
X280173Y43944D01*
X279905Y43295D01*
X279813Y42600D01*
X279905Y41905D01*
X280173Y41256D01*
X280600Y40700D01*
X281156Y40273D01*
X281805Y40005D01*
X282500Y39913D01*
X283195Y40005D01*
X283843Y40273D01*
X284400Y40700D01*
X284827Y41256D01*
X285095Y41905D01*
X285187Y42600D01*
X285095Y43295D01*
X284827Y43944D01*
X284400Y44500D01*
X283843Y44927D01*
X283195Y45195D01*
X282500Y45287D01*
D02*
G37*
G36*
X243963Y41276D02*
X243422Y41168D01*
X242964Y40862D01*
X242658Y40404D01*
X242550Y39863D01*
X242658Y39322D01*
X242964Y38864D01*
X243422Y38558D01*
X243963Y38450D01*
X244504Y38558D01*
X244962Y38864D01*
X245133Y39120D01*
X245664Y39014D01*
X245695Y38859D01*
X246001Y38401D01*
X246459Y38095D01*
X247000Y37987D01*
X247541Y38095D01*
X247999Y38401D01*
X248305Y38859D01*
X248413Y39400D01*
X248305Y39941D01*
X247999Y40399D01*
X247541Y40705D01*
X247000Y40813D01*
X246459Y40705D01*
X246001Y40399D01*
X245830Y40143D01*
X245299Y40249D01*
X245268Y40404D01*
X244962Y40862D01*
X244504Y41168D01*
X243963Y41276D01*
D02*
G37*
G36*
X367000Y39313D02*
X366459Y39205D01*
X366001Y38899D01*
X365695Y38441D01*
X365587Y37900D01*
X365695Y37359D01*
X366001Y36901D01*
X366459Y36595D01*
X367000Y36487D01*
X367541Y36595D01*
X367999Y36901D01*
X368305Y37359D01*
X368413Y37900D01*
X368305Y38441D01*
X367999Y38899D01*
X367541Y39205D01*
X367000Y39313D01*
D02*
G37*
G36*
X155300Y46833D02*
X154994Y46706D01*
X152894Y44606D01*
X152767Y44300D01*
Y41087D01*
X152781Y41053D01*
X152773Y41017D01*
X152843Y40904D01*
X152894Y40781D01*
X152928Y40767D01*
X152948Y40735D01*
X153093Y40631D01*
X153295Y40341D01*
X153187Y39800D01*
X153295Y39259D01*
X153093Y38969D01*
X152948Y38865D01*
X152928Y38833D01*
X152894Y38819D01*
X152843Y38696D01*
X152773Y38583D01*
X152781Y38547D01*
X152767Y38513D01*
Y37065D01*
X152779Y37037D01*
X152775Y37019D01*
X152779Y37000D01*
X152775Y36981D01*
X152779Y36963D01*
X152767Y36935D01*
Y24065D01*
X152784Y24024D01*
X152775Y23981D01*
X152788Y23915D01*
X152835Y23845D01*
X152851Y23762D01*
X152924Y23713D01*
X152972Y23640D01*
X153056Y23623D01*
X153126Y23576D01*
X153615Y23475D01*
X153660Y23483D01*
X153702Y23466D01*
X202845Y23368D01*
X202845Y23368D01*
X202846Y23368D01*
X202862Y23374D01*
X203357Y23267D01*
X203481Y23130D01*
X203701Y22801D01*
X204159Y22495D01*
X204700Y22387D01*
X205241Y22495D01*
X205699Y22801D01*
X206101D01*
X206559Y22495D01*
X207100Y22387D01*
X207641Y22495D01*
X208099Y22801D01*
X208405Y23259D01*
X208513Y23800D01*
X208405Y24341D01*
X208099Y24799D01*
X207641Y25105D01*
X207490Y25135D01*
X207124Y25444D01*
X207148Y25674D01*
X207213Y26000D01*
X207105Y26541D01*
X206799Y26999D01*
X206341Y27305D01*
X205800Y27413D01*
X205259Y27305D01*
X204801Y26999D01*
X204495Y26541D01*
X204387Y26000D01*
X204495Y25459D01*
X204471Y25403D01*
X204101Y25278D01*
X203633Y25588D01*
Y36846D01*
X204041Y37101D01*
X204457Y36850D01*
X204387Y36500D01*
X204495Y35959D01*
X204801Y35501D01*
X205259Y35195D01*
X205800Y35087D01*
X206341Y35195D01*
X206799Y35501D01*
X207105Y35959D01*
X207213Y36500D01*
X207108Y37028D01*
X207441Y37095D01*
X207899Y37401D01*
X208003Y37556D01*
X208604D01*
X208721Y37380D01*
X209180Y37074D01*
X209720Y36967D01*
X209800Y36982D01*
X210276Y36811D01*
X210384Y36270D01*
X210690Y35812D01*
X211148Y35506D01*
X211689Y35398D01*
X212230Y35506D01*
X212688Y35812D01*
X212994Y36270D01*
X213038Y36489D01*
X213556Y36896D01*
X213600Y36887D01*
X214141Y36995D01*
X214599Y37301D01*
X214766Y37551D01*
X215337Y37588D01*
X215345Y37585D01*
X215401Y37501D01*
X215859Y37195D01*
X216210Y36615D01*
X216187Y36500D01*
X216295Y35959D01*
X216601Y35501D01*
X217059Y35195D01*
X217600Y35087D01*
X218141Y35195D01*
X218599Y35501D01*
X218905Y35959D01*
X219013Y36500D01*
X218905Y37041D01*
X219191Y37185D01*
X219241Y37195D01*
X219699Y37501D01*
X219799Y37651D01*
X220401D01*
X220501Y37501D01*
X220959Y37195D01*
X221500Y37087D01*
X221661Y37119D01*
X222087Y36700D01*
X222195Y36159D01*
X222501Y35701D01*
X222959Y35395D01*
X223500Y35287D01*
X224041Y35395D01*
X224499Y35701D01*
X224805Y36159D01*
X224913Y36700D01*
X224901Y36759D01*
X225326Y37184D01*
X225468Y37156D01*
X225597Y37181D01*
X226024Y36763D01*
X226132Y36222D01*
X226438Y35764D01*
X226896Y35458D01*
X227437Y35350D01*
X227978Y35458D01*
X228436Y35764D01*
X228742Y36222D01*
X228850Y36763D01*
X229310Y37012D01*
X229405Y36992D01*
X229946Y37100D01*
X230405Y37406D01*
X230711Y37865D01*
X231171Y37722D01*
X231087Y37300D01*
X231195Y36759D01*
X231501Y36301D01*
X231959Y35995D01*
X232500Y35887D01*
X233041Y35995D01*
X233499Y36301D01*
X233665Y36550D01*
X234235D01*
X234401Y36301D01*
X234859Y35995D01*
X235400Y35887D01*
X235941Y35995D01*
X236399Y36301D01*
X236449Y36376D01*
X237051D01*
X237101Y36301D01*
X237559Y35995D01*
X238100Y35887D01*
X238641Y35995D01*
X239099Y36301D01*
X239405Y36759D01*
X239468Y37074D01*
X239513Y37091D01*
X239988Y37127D01*
X240217Y36784D01*
X240676Y36478D01*
X241216Y36371D01*
X241757Y36478D01*
X242216Y36784D01*
X242522Y37243D01*
X242630Y37784D01*
X242522Y38324D01*
X242216Y38783D01*
X241757Y39089D01*
X241216Y39196D01*
X240676Y39089D01*
X240217Y38783D01*
X239911Y38324D01*
X239848Y38009D01*
X239803Y37992D01*
X239328Y37956D01*
X239099Y38299D01*
X238641Y38605D01*
X238100Y38713D01*
X237559Y38605D01*
X237101Y38299D01*
X237051Y38224D01*
X236449D01*
X236399Y38299D01*
X235941Y38605D01*
X235400Y38713D01*
X234859Y38605D01*
X234401Y38299D01*
X234235Y38050D01*
X233665D01*
X233499Y38299D01*
X233041Y38605D01*
X232500Y38713D01*
X231959Y38605D01*
X231501Y38299D01*
X231195Y37841D01*
X230735Y37984D01*
X230819Y38405D01*
X230711Y38946D01*
X230405Y39405D01*
X229946Y39711D01*
X229405Y39819D01*
X228865Y39711D01*
X228406Y39405D01*
X228100Y38946D01*
X227993Y38405D01*
X227532Y38157D01*
X227437Y38176D01*
X227308Y38150D01*
X226882Y38568D01*
X226774Y39109D01*
X226468Y39568D01*
X226009Y39874D01*
X225468Y39981D01*
X224928Y39874D01*
X224469Y39568D01*
X224163Y39109D01*
X224056Y38568D01*
X224067Y38510D01*
X223642Y38085D01*
X223500Y38113D01*
X223339Y38081D01*
X222913Y38500D01*
X222805Y39041D01*
X222499Y39499D01*
X222041Y39805D01*
X221500Y39913D01*
X220959Y39805D01*
X220501Y39499D01*
X220401Y39349D01*
X219799D01*
X219699Y39499D01*
X219241Y39805D01*
X218700Y39913D01*
X218159Y39805D01*
X217908Y39638D01*
X217550Y39540D01*
X217192Y39638D01*
X216941Y39805D01*
X216400Y39913D01*
X215859Y39805D01*
X215401Y39499D01*
X215234Y39249D01*
X214663Y39212D01*
X214655Y39215D01*
X214599Y39299D01*
X214141Y39605D01*
X213600Y39713D01*
X213059Y39605D01*
X212601Y39299D01*
X212295Y38841D01*
X212251Y38622D01*
X211733Y38215D01*
X211689Y38224D01*
X211609Y38208D01*
X211133Y38379D01*
X211026Y38920D01*
X210720Y39379D01*
X210261Y39685D01*
X209720Y39792D01*
X209180Y39685D01*
X208721Y39379D01*
X208618Y39224D01*
X208016D01*
X207899Y39399D01*
X207441Y39705D01*
X206900Y39813D01*
X206359Y39705D01*
X205901Y39399D01*
X205438Y39607D01*
X205141Y39805D01*
X204600Y39913D01*
X204110Y39816D01*
X203947Y39889D01*
X203633Y40122D01*
Y44100D01*
X203506Y44406D01*
X201206Y46706D01*
X201206Y46706D01*
X200900Y46833D01*
X155300Y46833D01*
D02*
G37*
G36*
X100800Y39013D02*
X100259Y38905D01*
X99801Y38599D01*
X99495Y38141D01*
X99387Y37600D01*
X99495Y37059D01*
X99801Y36601D01*
X100259Y36295D01*
X100800Y36187D01*
X101341Y36295D01*
X101799Y36601D01*
X102105Y37059D01*
X102213Y37600D01*
X102105Y38141D01*
X101799Y38599D01*
X101341Y38905D01*
X100800Y39013D01*
D02*
G37*
G36*
X261700Y33013D02*
X261159Y32905D01*
X260701Y32599D01*
X260395Y32141D01*
X260287Y31600D01*
X260395Y31059D01*
X260701Y30601D01*
X261159Y30295D01*
X261700Y30187D01*
X262241Y30295D01*
X262699Y30601D01*
X263005Y31059D01*
X263113Y31600D01*
X263005Y32141D01*
X262699Y32599D01*
X262241Y32905D01*
X261700Y33013D01*
D02*
G37*
G36*
X218800Y27413D02*
X218259Y27305D01*
X218008Y27138D01*
X217650Y27040D01*
X217292Y27138D01*
X217041Y27305D01*
X216500Y27413D01*
X215959Y27305D01*
X215501Y26999D01*
X215195Y26541D01*
X215087Y26000D01*
X215195Y25459D01*
X215501Y25001D01*
X215959Y24695D01*
X216003Y24686D01*
X216329Y24111D01*
X216287Y23900D01*
X216395Y23359D01*
X216701Y22901D01*
X217159Y22595D01*
X217700Y22487D01*
X218241Y22595D01*
X218699Y22901D01*
X219005Y23359D01*
X219113Y23900D01*
X219067Y24130D01*
X219337Y24687D01*
X219407Y24739D01*
X219799Y25001D01*
X220105Y25459D01*
X220213Y26000D01*
X220105Y26541D01*
X219799Y26999D01*
X219341Y27305D01*
X218800Y27413D01*
D02*
G37*
G36*
X235300Y26513D02*
X234759Y26405D01*
X234301Y26099D01*
X234044Y25715D01*
X234034Y25711D01*
X233706Y25677D01*
X233497Y25703D01*
X233299Y25999D01*
X232841Y26305D01*
X232300Y26413D01*
X231759Y26305D01*
X231301Y25999D01*
X230995Y25541D01*
X230887Y25000D01*
X230995Y24459D01*
X231301Y24001D01*
X231759Y23695D01*
X232300Y23587D01*
X232841Y23695D01*
X233299Y24001D01*
X233556Y24385D01*
X233565Y24389D01*
X233894Y24423D01*
X234103Y24397D01*
X234301Y24101D01*
X234759Y23795D01*
X235300Y23687D01*
X235841Y23795D01*
X236299Y24101D01*
X236439Y24310D01*
X236481Y24324D01*
X237017Y24276D01*
X237201Y24001D01*
X237659Y23695D01*
X238200Y23587D01*
X238741Y23695D01*
X239199Y24001D01*
X239505Y24459D01*
X239613Y25000D01*
X239505Y25541D01*
X239199Y25999D01*
X238741Y26305D01*
X238200Y26413D01*
X237659Y26305D01*
X237201Y25999D01*
X237061Y25790D01*
X237019Y25776D01*
X236483Y25824D01*
X236299Y26099D01*
X235841Y26405D01*
X235300Y26513D01*
D02*
G37*
G36*
X81300Y26461D02*
Y24000D01*
X83761D01*
X83695Y24495D01*
X83427Y25144D01*
X83000Y25700D01*
X82443Y26127D01*
X81795Y26395D01*
X81300Y26461D01*
D02*
G37*
G36*
X80900D02*
X80405Y26395D01*
X79756Y26127D01*
X79200Y25700D01*
X78773Y25144D01*
X78505Y24495D01*
X78439Y24000D01*
X80900D01*
Y26461D01*
D02*
G37*
G36*
X61100Y26340D02*
X60128Y26147D01*
X59304Y25596D01*
X58753Y24772D01*
X58560Y23800D01*
X58753Y22828D01*
X59304Y22004D01*
X60128Y21453D01*
X61100Y21260D01*
X62072Y21453D01*
X62896Y22004D01*
X63447Y22828D01*
X63640Y23800D01*
X63447Y24772D01*
X62896Y25596D01*
X62072Y26147D01*
X61100Y26340D01*
D02*
G37*
G36*
X83761Y23600D02*
X81300D01*
Y21139D01*
X81795Y21205D01*
X82443Y21473D01*
X83000Y21900D01*
X83427Y22456D01*
X83695Y23105D01*
X83761Y23600D01*
D02*
G37*
G36*
X80900D02*
X78439D01*
X78505Y23105D01*
X78773Y22456D01*
X79200Y21900D01*
X79756Y21473D01*
X80405Y21205D01*
X80900Y21139D01*
Y23600D01*
D02*
G37*
G36*
X121100Y26487D02*
X120405Y26395D01*
X119756Y26127D01*
X119200Y25700D01*
X118773Y25144D01*
X118505Y24495D01*
X118413Y23800D01*
X118505Y23105D01*
X118773Y22456D01*
X119200Y21900D01*
X119756Y21473D01*
X120405Y21205D01*
X121100Y21113D01*
X121795Y21205D01*
X122443Y21473D01*
X123000Y21900D01*
X123427Y22456D01*
X123695Y23105D01*
X123787Y23800D01*
X123695Y24495D01*
X123427Y25144D01*
X123000Y25700D01*
X122443Y26127D01*
X121795Y26395D01*
X121100Y26487D01*
D02*
G37*
G36*
X111100D02*
X110405Y26395D01*
X109757Y26127D01*
X109200Y25700D01*
X108773Y25144D01*
X108505Y24495D01*
X108413Y23800D01*
X108505Y23105D01*
X108773Y22456D01*
X109200Y21900D01*
X109757Y21473D01*
X110405Y21205D01*
X111100Y21113D01*
X111795Y21205D01*
X112443Y21473D01*
X113000Y21900D01*
X113427Y22456D01*
X113695Y23105D01*
X113787Y23800D01*
X113695Y24495D01*
X113427Y25144D01*
X113000Y25700D01*
X112443Y26127D01*
X111795Y26395D01*
X111100Y26487D01*
D02*
G37*
G36*
X101100D02*
X100405Y26395D01*
X99756Y26127D01*
X99200Y25700D01*
X98773Y25144D01*
X98505Y24495D01*
X98413Y23800D01*
X98505Y23105D01*
X98773Y22456D01*
X99200Y21900D01*
X99756Y21473D01*
X100405Y21205D01*
X101100Y21113D01*
X101795Y21205D01*
X102444Y21473D01*
X103000Y21900D01*
X103427Y22456D01*
X103695Y23105D01*
X103787Y23800D01*
X103695Y24495D01*
X103427Y25144D01*
X103000Y25700D01*
X102444Y26127D01*
X101795Y26395D01*
X101100Y26487D01*
D02*
G37*
G36*
X71100D02*
X70405Y26395D01*
X69757Y26127D01*
X69200Y25700D01*
X68773Y25144D01*
X68505Y24495D01*
X68413Y23800D01*
X68505Y23105D01*
X68773Y22456D01*
X69200Y21900D01*
X69757Y21473D01*
X70405Y21205D01*
X71100Y21113D01*
X71795Y21205D01*
X72443Y21473D01*
X73000Y21900D01*
X73427Y22456D01*
X73695Y23105D01*
X73787Y23800D01*
X73695Y24495D01*
X73427Y25144D01*
X73000Y25700D01*
X72443Y26127D01*
X71795Y26395D01*
X71100Y26487D01*
D02*
G37*
G36*
X250075Y30986D02*
X249073Y30854D01*
X248139Y30467D01*
X247337Y29852D01*
X246722Y29050D01*
X246335Y28116D01*
X246203Y27114D01*
X246335Y26112D01*
X246722Y25178D01*
X247337Y24376D01*
X247805Y24018D01*
Y23518D01*
X247337Y23159D01*
X246722Y22357D01*
X246335Y21423D01*
X246203Y20421D01*
X246335Y19419D01*
X246722Y18485D01*
X247337Y17684D01*
X248139Y17068D01*
X249073Y16681D01*
X250075Y16550D01*
X251077Y16681D01*
X252011Y17068D01*
X252813Y17684D01*
X253428Y18485D01*
X253815Y19419D01*
X253946Y20421D01*
X253815Y21423D01*
X253428Y22357D01*
X252813Y23159D01*
X252345Y23518D01*
Y24018D01*
X252813Y24376D01*
X253428Y25178D01*
X253815Y26112D01*
X253946Y27114D01*
X253815Y28116D01*
X253428Y29050D01*
X252813Y29852D01*
X252011Y30467D01*
X251077Y30854D01*
X250075Y30986D01*
D02*
G37*
G36*
X143776D02*
X142773Y30854D01*
X141840Y30467D01*
X141038Y29852D01*
X140423Y29050D01*
X140036Y28116D01*
X139904Y27114D01*
X140036Y26112D01*
X140423Y25178D01*
X141038Y24376D01*
X141505Y24018D01*
Y23518D01*
X141038Y23159D01*
X140423Y22357D01*
X140036Y21423D01*
X139904Y20421D01*
X140036Y19419D01*
X140423Y18485D01*
X141038Y17684D01*
X141840Y17068D01*
X142773Y16681D01*
X143776Y16550D01*
X144778Y16681D01*
X145711Y17068D01*
X146513Y17684D01*
X147129Y18485D01*
X147515Y19419D01*
X147647Y20421D01*
X147515Y21423D01*
X147129Y22357D01*
X146513Y23159D01*
X146046Y23518D01*
Y24018D01*
X146513Y24376D01*
X147129Y25178D01*
X147515Y26112D01*
X147647Y27114D01*
X147515Y28116D01*
X147129Y29050D01*
X146513Y29852D01*
X145711Y30467D01*
X144778Y30854D01*
X143776Y30986D01*
D02*
G37*
G36*
X37100Y19013D02*
X36559Y18905D01*
X36101Y18599D01*
X35795Y18141D01*
X35687Y17600D01*
X35795Y17059D01*
X36101Y16601D01*
X36559Y16295D01*
X37100Y16187D01*
X37641Y16295D01*
X38099Y16601D01*
X38405Y17059D01*
X38513Y17600D01*
X38405Y18141D01*
X38099Y18599D01*
X37641Y18905D01*
X37100Y19013D01*
D02*
G37*
G36*
X96900Y11613D02*
X96359Y11505D01*
X95901Y11199D01*
X95595Y10741D01*
X95487Y10200D01*
X95595Y9659D01*
X95901Y9201D01*
X96359Y8895D01*
X96900Y8787D01*
X97441Y8895D01*
X97899Y9201D01*
X98205Y9659D01*
X98313Y10200D01*
X98205Y10741D01*
X97899Y11199D01*
X97441Y11505D01*
X96900Y11613D01*
D02*
G37*
G36*
X150700Y13013D02*
X150159Y12905D01*
X149701Y12599D01*
X149395Y12141D01*
X149287Y11600D01*
X149290Y11586D01*
X148890Y11032D01*
X148759Y11005D01*
X148301Y10699D01*
X147995Y10241D01*
X147887Y9700D01*
X147995Y9159D01*
X148301Y8701D01*
X148759Y8395D01*
X149300Y8287D01*
X149841Y8395D01*
X150299Y8701D01*
X150316Y8726D01*
X150917D01*
X151001Y8601D01*
X151459Y8295D01*
X152000Y8187D01*
X152541Y8295D01*
X152999Y8601D01*
X153253Y8981D01*
X153346Y9066D01*
X153833Y9150D01*
X154062Y8997D01*
X154602Y8889D01*
X154985Y8965D01*
X155097Y8853D01*
X155205Y8312D01*
X155511Y7854D01*
X155970Y7547D01*
X156510Y7440D01*
X157051Y7547D01*
X157509Y7854D01*
X157816Y8312D01*
X157923Y8853D01*
X157816Y9394D01*
X157509Y9852D01*
X157051Y10158D01*
X156510Y10266D01*
X156128Y10190D01*
X156015Y10302D01*
X155908Y10843D01*
X155602Y11302D01*
X155143Y11608D01*
X154602Y11715D01*
X154062Y11608D01*
X153603Y11302D01*
X153349Y10921D01*
X153257Y10836D01*
X152769Y10753D01*
X152541Y10905D01*
X152449Y10924D01*
X152009Y11058D01*
X152086Y11467D01*
X152113Y11600D01*
X152005Y12141D01*
X151699Y12599D01*
X151241Y12905D01*
X150700Y13013D01*
D02*
G37*
%LPD*%
G36*
X200900Y46400D02*
X203200Y44100D01*
Y39871D01*
X203164Y39839D01*
X202700Y39650D01*
X202387Y39859D01*
X201847Y39966D01*
X201306Y39859D01*
X200847Y39553D01*
X200541Y39094D01*
X200433Y38554D01*
X199956Y38519D01*
X199878Y38535D01*
X199798Y38519D01*
X199322Y38691D01*
X199215Y39231D01*
X198909Y39690D01*
X198450Y39996D01*
X197909Y40104D01*
X197369Y39996D01*
X196910Y39690D01*
X196604Y39231D01*
X196496Y38691D01*
X196034Y38454D01*
X195941Y38472D01*
X195852Y38454D01*
X195385Y38672D01*
X195278Y39213D01*
X194972Y39672D01*
X194513Y39978D01*
X193972Y40085D01*
X193432Y39978D01*
X192973Y39672D01*
X192667Y39213D01*
X192560Y38672D01*
X192127Y38285D01*
X192004Y38309D01*
X191839Y38276D01*
X191413Y38697D01*
X191305Y39238D01*
X190999Y39696D01*
X190541Y40002D01*
X190000Y40110D01*
X189459Y40002D01*
X189001Y39696D01*
X188695Y39238D01*
X188587Y38697D01*
X188130Y38434D01*
X188067Y38446D01*
X187988Y38430D01*
X187511Y38598D01*
X187404Y39139D01*
X187098Y39598D01*
X186639Y39904D01*
X186098Y40011D01*
X185558Y39904D01*
X185099Y39598D01*
X184793Y39139D01*
X184686Y38598D01*
X184697Y38540D01*
X184338Y38181D01*
X183842Y38190D01*
X183522Y38577D01*
X183574Y38839D01*
X183467Y39379D01*
X183160Y39838D01*
X182702Y40144D01*
X182161Y40251D01*
X181621Y40144D01*
X181162Y39838D01*
X180856Y39379D01*
X180748Y38839D01*
X180797Y38596D01*
X180388Y38167D01*
X180193Y38206D01*
X179945Y38157D01*
X179824Y38238D01*
X179561Y38590D01*
X179637Y38976D01*
X179530Y39516D01*
X179224Y39975D01*
X178765Y40281D01*
X178224Y40389D01*
X177684Y40281D01*
X177225Y39975D01*
X176919Y39516D01*
X176811Y38976D01*
X176857Y38747D01*
X176440Y38320D01*
X176256Y38357D01*
X175961Y38298D01*
X175800Y38451D01*
X175610Y38735D01*
X175700Y39187D01*
X175593Y39728D01*
X175286Y40187D01*
X174828Y40493D01*
X174287Y40600D01*
X173747Y40493D01*
X173288Y40187D01*
X172982Y39728D01*
X172874Y39187D01*
X172915Y38985D01*
X172566Y38637D01*
X172038Y38642D01*
X171717Y39016D01*
X171763Y39250D01*
X171656Y39791D01*
X171350Y40249D01*
X170891Y40556D01*
X170350Y40663D01*
X169810Y40556D01*
X169351Y40249D01*
X169045Y39791D01*
X168937Y39250D01*
X168970Y39088D01*
X168599Y38717D01*
X168085Y38728D01*
X167771Y39106D01*
X167826Y39387D01*
X167719Y39927D01*
X167412Y40386D01*
X166954Y40692D01*
X166413Y40800D01*
X165873Y40692D01*
X165414Y40386D01*
X165108Y39927D01*
X165000Y39387D01*
X165046Y39158D01*
X164629Y38732D01*
X164445Y38768D01*
X164090Y38698D01*
X163780Y39133D01*
X163782Y39136D01*
X163889Y39676D01*
X163782Y40217D01*
X163476Y40676D01*
X163017Y40982D01*
X162476Y41089D01*
X161936Y40982D01*
X161477Y40676D01*
X161171Y40217D01*
X161063Y39676D01*
X161171Y39136D01*
X161241Y39030D01*
X161224Y38990D01*
X160911Y38625D01*
X160508Y38705D01*
X160040Y38612D01*
X159856Y38779D01*
X159709Y39017D01*
X159845Y39220D01*
X159952Y39761D01*
X159845Y40301D01*
X159538Y40760D01*
X159080Y41066D01*
X158539Y41174D01*
X157999Y41066D01*
X157540Y40760D01*
X157234Y40301D01*
X157126Y39761D01*
X157234Y39220D01*
X157386Y38993D01*
X157200Y38710D01*
X157055Y38587D01*
X156571Y38684D01*
X156053Y38581D01*
X155981Y38634D01*
X155706Y38961D01*
X155905Y39259D01*
X156013Y39800D01*
X155905Y40341D01*
X155599Y40799D01*
X155141Y41105D01*
X154600Y41213D01*
X154059Y41105D01*
X153700Y40865D01*
X153345Y40983D01*
X153200Y41087D01*
Y44300D01*
X155300Y46400D01*
X200900Y46400D01*
D02*
G37*
G36*
X154059Y38495D02*
X154600Y38387D01*
X155117Y38490D01*
X155190Y38437D01*
X155465Y38110D01*
X155265Y37812D01*
X155158Y37271D01*
X155265Y36730D01*
X155572Y36272D01*
X156030Y35965D01*
X156571Y35858D01*
X157112Y35965D01*
X157570Y36272D01*
X157876Y36730D01*
X157984Y37271D01*
X157876Y37812D01*
X157724Y38039D01*
X157911Y38321D01*
X158055Y38444D01*
X158539Y38348D01*
X159007Y38441D01*
X159192Y38274D01*
X159338Y38036D01*
X159203Y37833D01*
X159095Y37292D01*
X159203Y36751D01*
X159509Y36293D01*
X159967Y35987D01*
X160508Y35879D01*
X161049Y35987D01*
X161507Y36293D01*
X161813Y36751D01*
X161921Y37292D01*
X161813Y37833D01*
X161743Y37938D01*
X161760Y37978D01*
X162073Y38344D01*
X162476Y38263D01*
X162831Y38334D01*
X163141Y37898D01*
X163139Y37896D01*
X163032Y37355D01*
X163139Y36814D01*
X163446Y36356D01*
X163904Y36050D01*
X164445Y35942D01*
X164986Y36050D01*
X165444Y36356D01*
X165750Y36814D01*
X165858Y37355D01*
X165812Y37583D01*
X166190Y37969D01*
X166707Y37960D01*
X167030Y37586D01*
X166969Y37282D01*
X167077Y36741D01*
X167383Y36283D01*
X167841Y35976D01*
X168382Y35869D01*
X168923Y35976D01*
X169381Y36283D01*
X169687Y36741D01*
X169795Y37282D01*
X169763Y37445D01*
X170105Y37788D01*
X170627Y37784D01*
X170951Y37406D01*
X170906Y37181D01*
X171013Y36640D01*
X171320Y36182D01*
X171778Y35876D01*
X172319Y35768D01*
X172860Y35876D01*
X173318Y36182D01*
X173624Y36640D01*
X173732Y37181D01*
X173692Y37383D01*
X174117Y37808D01*
X174287Y37774D01*
X174582Y37833D01*
X174743Y37680D01*
X174933Y37396D01*
X174843Y36944D01*
X174951Y36403D01*
X175257Y35945D01*
X175715Y35639D01*
X176256Y35531D01*
X176797Y35639D01*
X177255Y35945D01*
X177561Y36403D01*
X177669Y36944D01*
X177623Y37172D01*
X178041Y37599D01*
X178224Y37563D01*
X178472Y37612D01*
X178594Y37530D01*
X178857Y37179D01*
X178780Y36793D01*
X178887Y36252D01*
X179194Y35794D01*
X179652Y35487D01*
X180193Y35380D01*
X180734Y35487D01*
X181192Y35794D01*
X181498Y36252D01*
X181606Y36793D01*
X181558Y37036D01*
X181938Y37435D01*
X182134Y37431D01*
X182161Y37426D01*
X182184Y37430D01*
X182447Y37425D01*
X182778Y37038D01*
X182717Y36730D01*
X182825Y36189D01*
X183131Y35731D01*
X183589Y35425D01*
X184130Y35317D01*
X184671Y35425D01*
X185129Y35731D01*
X185435Y36189D01*
X185543Y36730D01*
X185531Y36788D01*
X185957Y37214D01*
X186098Y37185D01*
X186178Y37201D01*
X186654Y37033D01*
X186761Y36492D01*
X187068Y36034D01*
X187526Y35728D01*
X188067Y35620D01*
X188608Y35728D01*
X189066Y36034D01*
X189372Y36492D01*
X189480Y37033D01*
X189937Y37296D01*
X190000Y37284D01*
X190165Y37317D01*
X190591Y36896D01*
X190699Y36355D01*
X191005Y35897D01*
X191463Y35591D01*
X192004Y35483D01*
X192545Y35591D01*
X193003Y35897D01*
X193309Y36355D01*
X193417Y36896D01*
X193850Y37284D01*
X193972Y37260D01*
X194062Y37277D01*
X194528Y37059D01*
X194635Y36518D01*
X194942Y36060D01*
X195400Y35754D01*
X195941Y35646D01*
X196482Y35754D01*
X196940Y36060D01*
X197246Y36518D01*
X197354Y37059D01*
X197817Y37296D01*
X197909Y37278D01*
X197989Y37293D01*
X198465Y37122D01*
X198573Y36581D01*
X198879Y36123D01*
X199337Y35817D01*
X199878Y35709D01*
X200419Y35817D01*
X200877Y36123D01*
X201183Y36581D01*
X201291Y37122D01*
X201769Y37156D01*
X201847Y37141D01*
X202387Y37248D01*
X202700Y37457D01*
X203164Y37268D01*
X203200Y37236D01*
Y24154D01*
X202846Y23801D01*
X153703Y23899D01*
X153213Y24000D01*
X153200Y24065D01*
Y36935D01*
X153213Y37000D01*
X153200Y37065D01*
Y38513D01*
X153345Y38617D01*
X153700Y38735D01*
X154059Y38495D01*
D02*
G37*
D48*
X211779Y153420D02*
X211800Y153400D01*
X301200Y289400D02*
X301300Y289500D01*
D49*
X190000Y38529D02*
Y38697D01*
Y38529D02*
X190100Y38429D01*
D50*
X38658Y350366D02*
D03*
X354992Y340169D02*
D03*
D54*
X321200Y318200D02*
D03*
Y289400D02*
D03*
X301200D02*
D03*
X321200Y261400D02*
D03*
X321500Y230900D02*
D03*
X321900Y200800D02*
D03*
X322800Y169700D02*
D03*
X322700Y139000D02*
D03*
Y107900D02*
D03*
X322800Y75400D02*
D03*
X322500Y42600D02*
D03*
X80100Y328300D02*
D03*
X80800Y299300D02*
D03*
X81000Y269700D02*
D03*
X81200Y239000D02*
D03*
X81100Y207800D02*
D03*
X80300Y176500D02*
D03*
X80600Y145500D02*
D03*
X80700Y114400D02*
D03*
X80900Y83600D02*
D03*
X81300Y54100D02*
D03*
X81100Y23800D02*
D03*
D56*
X253300Y385300D02*
D03*
X198300Y231500D02*
D03*
X245800Y92800D02*
D03*
X207579Y291179D02*
D03*
X195400Y156600D02*
D03*
X238700Y168100D02*
D03*
X158400Y213600D02*
D03*
X159000Y177700D02*
D03*
X161029Y166929D02*
D03*
X233500Y182900D02*
D03*
X359600Y311200D02*
D03*
X360600Y281800D02*
D03*
X361400Y254600D02*
D03*
X361300Y223400D02*
D03*
X361500Y193300D02*
D03*
X362100Y162100D02*
D03*
Y131500D02*
D03*
X42100Y262700D02*
D03*
X42200Y232400D02*
D03*
X42000Y200600D02*
D03*
X41100Y170000D02*
D03*
X41900Y140300D02*
D03*
X42800Y107800D02*
D03*
X42600Y84500D02*
D03*
X41200Y289300D02*
D03*
X40200Y330100D02*
D03*
X42500Y42900D02*
D03*
X42400Y17200D02*
D03*
X361200Y67700D02*
D03*
X361600Y100200D02*
D03*
X360800Y48300D02*
D03*
X211779Y153420D02*
D03*
X159800Y124500D02*
D03*
X149500Y39400D02*
D03*
X178000Y44500D02*
D03*
X190800D02*
D03*
X186600D02*
D03*
X182000D02*
D03*
X173700Y44600D02*
D03*
X198300Y25400D02*
D03*
X187200Y25500D02*
D03*
X176500Y25200D02*
D03*
X166300Y25300D02*
D03*
X156000Y25600D02*
D03*
X149500Y24100D02*
D03*
X151800Y24000D02*
D03*
X151700Y26200D02*
D03*
X149400Y26300D02*
D03*
Y37000D02*
D03*
X151800D02*
D03*
Y39300D02*
D03*
X190000Y38697D02*
D03*
M02*
