G04*
G04 #@! TF.GenerationSoftware,Altium Limited,Altium Designer,20.0.13 (296)*
G04*
G04 Layer_Physical_Order=4*
G04 Layer_Color=16711680*
%FSLAX25Y25*%
%MOIN*%
G70*
G01*
G75*
%ADD15C,0.01000*%
%ADD41R,0.01181X0.05906*%
%ADD48C,0.00400*%
%ADD49C,0.01155*%
%ADD50C,0.06378*%
%ADD51C,0.09449*%
%ADD52C,0.05709*%
%ADD53R,0.04528X0.04528*%
%ADD54C,0.04528*%
%ADD55C,0.19685*%
%ADD56C,0.01772*%
G36*
X148897Y13131D02*
X150465D01*
Y16484D01*
X150865D01*
Y13131D01*
X152434D01*
Y16484D01*
X152834D01*
Y13131D01*
X153500D01*
Y11147D01*
X153297Y10843D01*
X153189Y10302D01*
X153297Y9762D01*
X153500Y9458D01*
Y8418D01*
X153282Y8200D01*
X148000D01*
Y13131D01*
X148497D01*
Y16484D01*
X148897D01*
Y13131D01*
D02*
G37*
G36*
X153100Y34404D02*
X152834D01*
Y31051D01*
Y27698D01*
X153100D01*
Y22600D01*
X148000D01*
Y27698D01*
X148497D01*
Y31051D01*
Y34404D01*
X148000D01*
Y40900D01*
X153100D01*
Y34404D01*
D02*
G37*
G36*
X208474Y39751D02*
X208572Y39154D01*
X208415Y38920D01*
X208308Y38379D01*
X208415Y37839D01*
X208700Y37412D01*
Y34404D01*
X207952D01*
Y31051D01*
Y27698D01*
X208700D01*
Y22300D01*
X208200Y21800D01*
X203900D01*
X203200Y22500D01*
Y27698D01*
X203615D01*
Y31051D01*
Y34404D01*
X203200D01*
Y38255D01*
X203259Y38554D01*
X203200Y38852D01*
Y39700D01*
X203300Y39800D01*
X208400D01*
X208474Y39751D01*
D02*
G37*
G36*
X220300Y39198D02*
X220195Y39041D01*
X220087Y38500D01*
X220195Y37959D01*
X220300Y37802D01*
Y34404D01*
X219763D01*
Y31051D01*
Y27698D01*
X220300D01*
Y22300D01*
X214900D01*
Y27698D01*
X215426D01*
Y31051D01*
Y34404D01*
X214900D01*
Y37751D01*
X214905Y37759D01*
X215013Y38300D01*
X214905Y38841D01*
X214900Y38849D01*
Y39600D01*
X215000Y39700D01*
X220300D01*
Y39198D01*
D02*
G37*
G36*
X240200Y38756D02*
X239911Y38324D01*
X239804Y37784D01*
X239911Y37243D01*
X240200Y36810D01*
Y34404D01*
X239448D01*
Y31051D01*
Y27698D01*
X240200D01*
Y22300D01*
X230500D01*
Y27698D01*
X231174D01*
Y31051D01*
Y34404D01*
X230500D01*
Y37549D01*
X230711Y37865D01*
X230819Y38405D01*
X230711Y38946D01*
X230500Y39262D01*
Y39800D01*
X240200D01*
Y38756D01*
D02*
G37*
%LPC*%
G36*
X152434Y34404D02*
X150865D01*
Y31051D01*
Y27698D01*
X152434D01*
Y31051D01*
Y34404D01*
D02*
G37*
G36*
X150465D02*
X148897D01*
Y31051D01*
Y27698D01*
X150465D01*
Y31051D01*
Y34404D01*
D02*
G37*
G36*
X207552D02*
X205983D01*
Y31051D01*
Y27698D01*
X207552D01*
Y31051D01*
Y34404D01*
D02*
G37*
G36*
X205584D02*
X204015D01*
Y31051D01*
Y27698D01*
X205584D01*
Y31051D01*
Y34404D01*
D02*
G37*
G36*
X219363D02*
X217794D01*
Y31051D01*
Y27698D01*
X219363D01*
Y31051D01*
Y34404D01*
D02*
G37*
G36*
X217394D02*
X215826D01*
Y31051D01*
Y27698D01*
X217394D01*
Y31051D01*
Y34404D01*
D02*
G37*
G36*
X239048D02*
X237479D01*
Y31051D01*
Y27698D01*
X239048D01*
Y31051D01*
Y34404D01*
D02*
G37*
G36*
X237080D02*
X235511D01*
Y31051D01*
Y27698D01*
X237080D01*
Y31051D01*
Y34404D01*
D02*
G37*
G36*
X235111D02*
X233542D01*
Y31051D01*
Y27698D01*
X235111D01*
Y31051D01*
Y34404D01*
D02*
G37*
G36*
X233142D02*
X231574D01*
Y31051D01*
Y27698D01*
X233142D01*
Y31051D01*
Y34404D01*
D02*
G37*
%LPD*%
D15*
X229405Y31051D02*
Y38405D01*
X227437Y31051D02*
Y36763D01*
X225468Y31051D02*
Y38568D01*
X223500Y31051D02*
Y36700D01*
X221516Y31067D02*
Y38484D01*
X213629Y31080D02*
Y38271D01*
D41*
X148697Y16484D02*
D03*
Y31051D02*
D03*
X150665Y16484D02*
D03*
Y31051D02*
D03*
X152634Y16484D02*
D03*
Y31051D02*
D03*
X154602Y16484D02*
D03*
Y31051D02*
D03*
X156571Y16484D02*
D03*
Y31051D02*
D03*
X158539Y16484D02*
D03*
Y31051D02*
D03*
X160508Y16484D02*
D03*
Y31051D02*
D03*
X162476Y16484D02*
D03*
Y31051D02*
D03*
X164445Y16484D02*
D03*
Y31051D02*
D03*
X166413Y16484D02*
D03*
Y31051D02*
D03*
X168382Y16484D02*
D03*
Y31051D02*
D03*
X170350Y16484D02*
D03*
Y31051D02*
D03*
X172319Y16484D02*
D03*
Y31051D02*
D03*
X174287Y16484D02*
D03*
Y31051D02*
D03*
X176256Y16484D02*
D03*
Y31051D02*
D03*
X178224Y16484D02*
D03*
Y31051D02*
D03*
X180193Y16484D02*
D03*
Y31051D02*
D03*
X182161Y16484D02*
D03*
Y31051D02*
D03*
X184130Y16484D02*
D03*
Y31051D02*
D03*
X186098Y16484D02*
D03*
Y31051D02*
D03*
X188067Y16484D02*
D03*
Y31051D02*
D03*
X190035Y16484D02*
D03*
Y31051D02*
D03*
X192004Y16484D02*
D03*
Y31051D02*
D03*
X193972Y16484D02*
D03*
Y31051D02*
D03*
X195941Y16484D02*
D03*
Y31051D02*
D03*
X197909Y16484D02*
D03*
Y31051D02*
D03*
X199878Y16484D02*
D03*
Y31051D02*
D03*
X201847Y16484D02*
D03*
Y31051D02*
D03*
X203815Y16484D02*
D03*
Y31051D02*
D03*
X205784Y16484D02*
D03*
Y31051D02*
D03*
X207752Y16484D02*
D03*
Y31051D02*
D03*
X209720Y16484D02*
D03*
Y31051D02*
D03*
X211689Y16484D02*
D03*
Y31051D02*
D03*
X213657Y16484D02*
D03*
Y31051D02*
D03*
X215626Y16484D02*
D03*
Y31051D02*
D03*
X217595Y16484D02*
D03*
Y31051D02*
D03*
X219563Y16484D02*
D03*
Y31051D02*
D03*
X221532Y16484D02*
D03*
Y31051D02*
D03*
X223500Y16484D02*
D03*
Y31051D02*
D03*
X225468Y16484D02*
D03*
Y31051D02*
D03*
X227437Y16484D02*
D03*
Y31051D02*
D03*
X229405Y16484D02*
D03*
Y31051D02*
D03*
X231374Y16484D02*
D03*
Y31051D02*
D03*
X233343Y16484D02*
D03*
Y31051D02*
D03*
X235311Y16484D02*
D03*
Y31051D02*
D03*
X237280Y16484D02*
D03*
Y31051D02*
D03*
X239248Y16484D02*
D03*
Y31051D02*
D03*
X241216Y16484D02*
D03*
Y31051D02*
D03*
X243185Y16484D02*
D03*
Y31051D02*
D03*
X245153Y16484D02*
D03*
Y31051D02*
D03*
D48*
X217600Y382600D02*
X264300D01*
X277700Y369200D01*
X216700Y383500D02*
X217600Y382600D01*
X237280Y31051D02*
X239248D01*
X235311D02*
X237280D01*
X233343D02*
X235311D01*
X231374D02*
X233343D01*
X217595D02*
X219563D01*
X215626D02*
X217595D01*
X205784D02*
X207752D01*
X203815D02*
X205784D01*
X211300Y253900D02*
Y290100D01*
X205300Y295700D02*
X205671D01*
X206122Y295249D01*
X206151D01*
X211300Y290100D01*
X207900Y250500D02*
X211300Y253900D01*
X205300Y383500D02*
X216700D01*
X239400Y363500D02*
X241300Y365400D01*
X182252Y320648D02*
Y364148D01*
X162500Y320000D02*
Y363400D01*
X164800Y314500D02*
Y365500D01*
X165000Y365700D01*
X168300Y314800D02*
Y365300D01*
X166700Y317700D02*
Y363500D01*
X168300Y365300D02*
X168900Y365900D01*
X162100Y319600D02*
X162500Y320000D01*
X162100Y317100D02*
Y319600D01*
X160500Y360300D02*
Y366700D01*
X160100Y359900D02*
X160500Y360300D01*
X160100Y314900D02*
Y359900D01*
X159900Y314700D02*
X160100Y314900D01*
X158200Y317500D02*
Y363300D01*
X158400Y363500D01*
X154451Y317149D02*
Y363449D01*
X156300Y315371D02*
Y366500D01*
X156162Y315138D02*
X156300Y315000D01*
X155900Y314600D02*
X156300Y315000D01*
X156162Y315234D02*
X156300Y315371D01*
X156162Y315138D02*
Y315234D01*
X154451Y317149D02*
X154500Y317100D01*
X152600Y314400D02*
Y366300D01*
X150600Y317000D02*
Y363300D01*
X148600Y314500D02*
Y366200D01*
X94100Y326200D02*
Y354200D01*
X99000Y321300D02*
X119000D01*
X94100Y326200D02*
X99000Y321300D01*
X119000D02*
X125200Y315100D01*
X109800Y314200D02*
X111200Y312800D01*
X131800D02*
X136900Y307700D01*
X111200Y312800D02*
X131800D01*
X125500Y253100D02*
X131500Y247100D01*
Y218300D02*
Y247100D01*
X136700Y224000D02*
Y247400D01*
X139800Y225900D02*
Y252900D01*
X141300Y256700D02*
X142300Y255700D01*
Y229700D02*
Y255700D01*
X140800Y261900D02*
X141800D01*
X147100Y233600D02*
Y261900D01*
X141900Y267100D02*
X147100Y261900D01*
X150600Y317000D02*
X150700Y317100D01*
X178200Y364200D02*
X178300Y364300D01*
X178200Y320900D02*
Y364200D01*
X180200Y366500D02*
X180242Y366458D01*
Y317509D02*
Y366458D01*
X180200Y317467D02*
X180242Y317509D01*
X184000Y366600D02*
X184050Y366550D01*
X158200Y317500D02*
X158400Y317700D01*
X184050Y317650D02*
Y366550D01*
X180200Y317467D02*
X180283Y317384D01*
X174000Y363000D02*
X176200Y360800D01*
Y317700D02*
Y360800D01*
X172400Y322700D02*
X174400Y320700D01*
X172000Y365529D02*
Y365900D01*
Y365529D02*
X172400Y365129D01*
Y322700D02*
Y365129D01*
X170500Y319700D02*
Y363100D01*
Y319700D02*
X172600Y317600D01*
X134200Y222100D02*
Y234200D01*
X178200Y320900D02*
X178300Y320800D01*
X147100Y233600D02*
X149600Y231100D01*
X187100D01*
X194000Y224200D01*
Y213100D02*
Y224200D01*
X141800Y261900D02*
X144800Y258900D01*
Y231700D02*
Y258900D01*
Y231700D02*
X148600Y227900D01*
X186400D01*
X142300Y229700D02*
X146500Y225500D01*
X139800Y225900D02*
X142400Y223300D01*
X186400Y227900D02*
X191300Y223000D01*
Y215800D02*
Y223000D01*
X146500Y225500D02*
X184700D01*
X188700Y221500D01*
Y213300D02*
Y221500D01*
X142400Y223300D02*
X182200D01*
X186200Y219300D01*
Y215800D02*
Y219300D01*
X183400Y213100D02*
Y217800D01*
X139600Y221100D02*
X180100D01*
X183400Y217800D01*
X178500Y218400D02*
X181000Y215900D01*
X136700Y224000D02*
X139600Y221100D01*
X137900Y218400D02*
X178500D01*
X134200Y222100D02*
X137900Y218400D01*
X131500Y218300D02*
X134200Y215600D01*
X176400D01*
X178900Y213100D01*
X176200Y317700D02*
X176300Y317600D01*
X176100Y317400D02*
X176300Y317600D01*
X114500Y194200D02*
X216600D01*
X219800Y197400D02*
Y205600D01*
X216600Y194200D02*
X219800Y197400D01*
X178100Y320600D02*
X178300Y320800D01*
X184000Y317600D02*
X184050Y317650D01*
X184000Y317600D02*
X184100Y317500D01*
X208800Y295700D02*
X210800D01*
X213200Y293300D01*
Y247000D02*
Y293300D01*
X211300Y245100D02*
X213200Y247000D01*
X208200Y245100D02*
X211300D01*
X223000Y195300D02*
Y203900D01*
X219400Y191700D02*
X223000Y195300D01*
X115900Y191700D02*
X219400D01*
X257600Y334900D02*
Y357500D01*
X252400Y332300D02*
X255000D01*
X257600Y334900D01*
X246500Y361600D02*
X253500D01*
X257600Y357500D01*
X253200Y363300D02*
X259400Y357100D01*
X258534Y330800D02*
Y330838D01*
X259400Y331704D01*
Y357100D01*
X242800Y363300D02*
X253200D01*
X260000Y327900D02*
X261400Y329300D01*
X254100Y365400D02*
X261400Y358100D01*
Y329300D02*
Y358100D01*
X257200Y369800D02*
X265300Y361700D01*
Y329670D02*
X266270Y328700D01*
X265300Y329670D02*
Y361700D01*
X255500Y367500D02*
X263400Y359600D01*
X263000Y328200D02*
Y328571D01*
X263400Y328971D01*
Y359600D01*
X269000Y334666D02*
X269166Y334500D01*
X259800Y373700D02*
X269000Y364500D01*
Y334666D02*
Y364500D01*
X267100Y333024D02*
X268623Y331500D01*
X258300Y371800D02*
X267100Y363000D01*
Y333024D02*
Y363000D01*
X268623Y331500D02*
Y331500D01*
X266270Y328700D02*
X266500D01*
X260700Y376300D02*
X271000Y366000D01*
X265550Y324850D02*
X271000Y330300D01*
Y366000D01*
X261700Y378300D02*
X273400Y366600D01*
X267400Y322500D02*
X273400Y328500D01*
Y366600D01*
X262700Y380700D02*
X275500Y367900D01*
X268700Y319200D02*
X275500Y326000D01*
Y367900D01*
X270100Y315500D02*
X277700Y323100D01*
Y369200D01*
X241300Y365400D02*
X254100D01*
X238200Y371800D02*
X258300D01*
X239100Y369800D02*
X257200D01*
X239620Y367500D02*
X255500D01*
X238700Y366700D02*
X238820D01*
X239620Y367500D01*
X235200Y365900D02*
X239100Y369800D01*
X233651Y367251D02*
X238200Y371800D01*
X231600Y368000D02*
X237300Y373700D01*
X259800D01*
X236200Y376300D02*
X260700D01*
X229600Y369700D02*
X236200Y376300D01*
X227500Y370900D02*
X234900Y378300D01*
X261700D01*
X164300Y384100D02*
X167700Y380700D01*
X262700D01*
X235200Y363500D02*
Y365900D01*
X233600Y366000D02*
X233651Y366051D01*
Y367251D01*
X260900Y288700D02*
X267400Y282200D01*
X260900Y295400D02*
X262000Y296500D01*
X260900Y288700D02*
Y295400D01*
X255900Y324850D02*
X265550D01*
X267400Y189700D02*
Y282200D01*
X265794Y188094D02*
X267400Y189700D01*
X221905Y188094D02*
X265794D01*
X150665Y31051D02*
X152634D01*
X148697D02*
X150665D01*
X305800Y332800D02*
Y345900D01*
X310069Y350169D01*
X334992D01*
X301100Y308900D02*
X362600D01*
X297500Y305300D02*
X301100Y308900D01*
X362600D02*
X365000Y311300D01*
X242130Y175370D02*
Y175410D01*
X203100Y298700D02*
X308000D01*
X310100Y300800D01*
Y303600D01*
X263070Y175370D02*
X267000Y179300D01*
X242170Y175370D02*
X263070D01*
X262800Y289600D02*
Y292900D01*
Y289600D02*
X269100Y283300D01*
Y175900D02*
Y283300D01*
X270900Y175300D02*
Y285800D01*
X265800Y290900D02*
X270900Y285800D01*
X265800Y290900D02*
Y292800D01*
X266500Y173300D02*
X269100Y175900D01*
X240200Y173300D02*
X266500D01*
X238700Y172000D02*
X267600D01*
X270900Y175300D01*
X233500Y170400D02*
X268600D01*
X272700Y174500D01*
Y289000D01*
X237216Y176284D02*
X240200Y173300D01*
X223483Y176284D02*
X237216D01*
X221430Y174300D02*
X221445Y174315D01*
X235700Y175000D02*
X238700Y172000D01*
X233500Y175000D02*
X235700D01*
X232815Y174315D02*
X233500Y175000D01*
X221445Y174315D02*
X232815D01*
X221415D02*
X221430Y174300D01*
X231600Y363500D02*
Y368000D01*
X229600Y366000D02*
Y369700D01*
X227500Y363200D02*
Y370900D01*
X268700Y293000D02*
X272700Y289000D01*
X202000Y297600D02*
X203100Y298700D01*
X231554Y172346D02*
X233500Y170400D01*
X223346Y172346D02*
X231554D01*
X264800Y322500D02*
X267400D01*
X152700Y384100D02*
X164300D01*
X261700Y319200D02*
X268700D01*
X260000Y315500D02*
X270100D01*
X221748Y178252D02*
X221900Y178100D01*
X239440D01*
X242130Y175410D01*
Y175370D02*
X242170D01*
X372000Y36100D02*
Y325700D01*
X354933Y330228D02*
X367472D01*
X372000Y325700D01*
X250300Y33500D02*
X369400D01*
X372000Y36100D01*
X368700Y35900D02*
X370000Y37200D01*
X367200Y327100D02*
X370000Y324300D01*
Y37200D02*
Y324300D01*
X366200Y277900D02*
Y281700D01*
X363100Y274800D02*
X366200Y277900D01*
X303500Y274800D02*
X363100D01*
X301200Y277100D02*
X303500Y274800D01*
X301200Y277100D02*
Y289400D01*
X366900Y248800D02*
Y254400D01*
X364300Y246200D02*
X366900Y248800D01*
X304200Y246200D02*
X364300D01*
X301200Y249200D02*
X304200Y246200D01*
X301200Y249200D02*
Y261400D01*
X366900Y218400D02*
Y223500D01*
X363800Y215300D02*
X366900Y218400D01*
X305100Y215300D02*
X363800D01*
X301500Y218900D02*
X305100Y215300D01*
X301500Y218900D02*
Y230900D01*
X367200Y189200D02*
Y193400D01*
X362900Y184900D02*
X367200Y189200D01*
X305600Y184900D02*
X362900D01*
X301900Y188600D02*
X305600Y184900D01*
X301900Y188600D02*
Y200800D01*
X366800Y157800D02*
Y162100D01*
X364000Y155000D02*
X366800Y157800D01*
X306600Y155000D02*
X364000D01*
X302800Y158800D02*
X306600Y155000D01*
X302800Y158800D02*
Y169700D01*
X366800Y122600D02*
Y131700D01*
X364200Y120000D02*
X366800Y122600D01*
X303300Y120000D02*
X364200D01*
X302200Y121100D02*
X303300Y120000D01*
X300200Y121100D02*
X302200D01*
X35900Y257400D02*
Y262400D01*
X36100Y262600D01*
X35900Y257400D02*
X39100Y254200D01*
X98700D01*
X101000Y256500D01*
Y269700D01*
X36200Y229000D02*
Y232400D01*
Y229000D02*
X40200Y225000D01*
X98600D01*
X101200Y227600D01*
Y239000D01*
X41100Y195300D02*
X95900D01*
X101100Y200500D02*
Y207800D01*
X95900Y195300D02*
X101100Y200500D01*
X35800Y200600D02*
X41100Y195300D01*
X35300Y169600D02*
Y169900D01*
Y169600D02*
X37900Y167000D01*
X98200D01*
X100300Y169100D01*
Y176500D01*
X35900Y138100D02*
Y140100D01*
Y138100D02*
X37800Y136200D01*
X98000D01*
X100600Y138800D01*
Y145500D01*
X91900Y130100D02*
Y132300D01*
X93400Y133800D02*
X135700D01*
X91900Y132300D02*
X93400Y133800D01*
X37000Y107600D02*
X38700Y105900D01*
X97600D02*
X100700Y109000D01*
X38700Y105900D02*
X97600D01*
X100700Y109000D02*
Y114400D01*
Y123900D01*
X104000Y127200D01*
X99100Y88600D02*
X100900Y86800D01*
X33200Y88600D02*
X99100D01*
X100900Y83600D02*
Y86800D01*
X36600Y284400D02*
X98300D01*
X35200Y285800D02*
Y289600D01*
Y285800D02*
X36600Y284400D01*
X100800Y286900D02*
Y299300D01*
X98300Y284400D02*
X100800Y286900D01*
X29000Y333700D02*
X33000Y337700D01*
Y357900D01*
X36300Y361200D01*
X93400D01*
X100100Y354500D01*
Y328300D02*
Y354500D01*
X68657Y337343D02*
Y350366D01*
Y337343D02*
X71700Y334300D01*
X81400D01*
X86300Y329400D01*
Y313100D02*
Y329400D01*
X85386Y312186D02*
X86300Y313100D01*
X83900Y312100D02*
X83986Y312186D01*
X85386D01*
X53200Y315600D02*
X83600D01*
X48658Y320143D02*
X53200Y315600D01*
X48658Y320143D02*
Y350366D01*
X135900Y154800D02*
X176200D01*
X128100Y162600D02*
X135900Y154800D01*
X86500Y162600D02*
X128100D01*
X95243Y17857D02*
X106600Y6500D01*
X154157D01*
X156510Y8853D01*
X156571Y8792D02*
Y16484D01*
X134500Y152100D02*
X178300D01*
X127000Y159600D02*
X134500Y152100D01*
X88600Y159600D02*
X127000D01*
X151430Y99800D02*
X152507Y100877D01*
X92400Y99800D02*
X151430D01*
X92200Y14900D02*
X96900Y10200D01*
X37300Y43200D02*
X39800Y40700D01*
X91200D01*
X95100Y44600D01*
X99000D01*
X101300Y46900D01*
Y54100D01*
X103600Y41300D02*
X106100Y43800D01*
X102100Y97600D02*
X106100Y93600D01*
Y43800D02*
Y93600D01*
X98400Y41300D02*
X103600D01*
X95243Y38143D02*
X98400Y41300D01*
X95243Y17857D02*
Y38143D01*
X97600Y34400D02*
X100800Y37600D01*
X97600Y20200D02*
X110500Y7300D01*
X97600Y20200D02*
Y34400D01*
X110500Y7300D02*
X153300D01*
X154602Y8602D01*
Y10302D01*
Y16484D01*
X39800Y14900D02*
X92200D01*
X37100Y17600D02*
X39800Y14900D01*
X112600Y192300D02*
X114500Y194200D01*
X105000Y192300D02*
X112600D01*
X78658Y350366D02*
Y356557D01*
X79800Y357700D01*
X90600D01*
X94100Y354200D01*
X88657Y350366D02*
X89337Y349686D01*
Y314562D02*
Y349686D01*
Y314562D02*
X89600Y314300D01*
X107300Y129400D02*
X132700D01*
X150665Y16484D02*
X152634D01*
X148697D02*
X150665D01*
X366400Y96800D02*
Y100200D01*
X363600Y94000D02*
X366400Y96800D01*
X300600Y94000D02*
X363600D01*
X365900Y64400D02*
Y68000D01*
X361100Y59600D02*
X365900Y64400D01*
X305300Y59600D02*
X361100D01*
X302800Y62100D02*
X305300Y59600D01*
X302800Y62100D02*
Y75400D01*
X303400Y41700D02*
Y42600D01*
X307200Y37900D02*
X367000D01*
X303400Y41700D02*
X307200Y37900D01*
X302500Y42600D02*
X303400D01*
X340300Y345477D02*
X344992Y350169D01*
X340300Y334600D02*
Y345477D01*
Y334600D02*
X347800Y327100D01*
X249500Y31600D02*
X261700D01*
X243317Y37784D02*
X249500Y31600D01*
X241216Y37784D02*
X243317D01*
X243963Y39837D02*
X250300Y33500D01*
X243963Y39837D02*
Y75837D01*
X347800Y327100D02*
X367200D01*
X344992Y340169D02*
X354933Y330228D01*
X247000Y39400D02*
X250500Y35900D01*
X368700D01*
X225800Y94000D02*
X243963Y75837D01*
X229000Y94300D02*
X247000Y76300D01*
Y39400D02*
Y76300D01*
X225800Y94000D02*
Y119600D01*
X224800Y135600D02*
X229000Y131400D01*
Y94300D02*
Y131400D01*
X214100Y135600D02*
X224800D01*
X211779Y137921D02*
X214100Y135600D01*
X211779Y137921D02*
Y153420D01*
X223600Y92300D02*
X238600Y77300D01*
X223600Y92300D02*
Y125600D01*
X221200Y90000D02*
Y118100D01*
X209700Y129600D02*
X221200Y118100D01*
Y90000D02*
X235200Y76000D01*
X238600Y51500D02*
X241100Y49000D01*
Y37900D02*
X241216Y37784D01*
X241100Y37900D02*
Y49000D01*
X238600Y51500D02*
Y77300D01*
X235200Y48400D02*
Y76000D01*
X209700Y129600D02*
Y157000D01*
X235200Y48400D02*
X238100Y45500D01*
X202000Y294500D02*
Y297600D01*
X199600Y297700D02*
Y300100D01*
X201700Y302200D01*
X299600D01*
X301300Y303900D01*
X197100Y294700D02*
Y300300D01*
X202100Y305300D01*
X297500D01*
X252800Y115000D02*
X252900Y115100D01*
X270200D01*
X277700Y122600D01*
X289500D01*
X248700Y112500D02*
X271900D01*
X248600Y112600D02*
X248700Y112500D01*
X271900D02*
X278300Y118900D01*
X293900D01*
X295100Y120100D01*
Y124200D01*
X296700Y125800D01*
X309900D01*
X311500Y124200D01*
X252800Y110100D02*
X273200D01*
X279600Y116500D01*
X295100D01*
X297100Y118500D01*
Y122000D01*
X298500Y123400D01*
X303000D01*
X303600Y122800D01*
X306400D01*
X248800Y107500D02*
X273800D01*
X248700Y107600D02*
X248800Y107500D01*
X273800D02*
X280400Y114100D01*
X296900D01*
X300200Y117400D01*
Y121100D01*
X252900Y104800D02*
X253000Y104700D01*
X259200D01*
X262100Y101800D01*
Y97000D02*
Y101800D01*
Y97000D02*
X265100Y94000D01*
X300600D01*
X248600Y102200D02*
X255400D01*
X257300Y100300D01*
Y95500D02*
Y100300D01*
Y95500D02*
X261500Y91300D01*
X298699D01*
X299599Y90400D02*
X299900D01*
X298699Y91300D02*
X299599Y90400D01*
X252700Y99700D02*
X252800Y99600D01*
Y93500D02*
Y99600D01*
Y93500D02*
X257500Y88800D01*
X294100D01*
X194500Y297500D02*
Y301500D01*
X188300Y307700D02*
X194500Y301500D01*
X136900Y307700D02*
X188300D01*
X187100Y304500D02*
X191800Y299800D01*
X135500Y304500D02*
X187100D01*
X191800Y294900D02*
Y299800D01*
X104200Y312900D02*
Y313000D01*
X129000Y311000D02*
X135500Y304500D01*
X106100Y311000D02*
X129000D01*
X104200Y312900D02*
X106100Y311000D01*
X104100Y313000D02*
X104200D01*
X185400Y301500D02*
X189300Y297600D01*
X132900Y301500D02*
X185400D01*
X126500Y307900D02*
X132900Y301500D01*
X102000Y307900D02*
X126500D01*
X98900Y311000D02*
X102000Y307900D01*
X98900Y311000D02*
Y314200D01*
X98200Y305200D02*
X123500D01*
X130500Y298200D02*
X183315D01*
X123500Y305200D02*
X130500Y298200D01*
X183315D02*
X186808Y294707D01*
X94000Y309400D02*
X98200Y305200D01*
X94000Y309400D02*
Y313100D01*
X143300Y113700D02*
X154100D01*
X140500Y116500D02*
X143300Y113700D01*
X140500Y116500D02*
Y129000D01*
X135700Y133800D02*
X140500Y129000D01*
X142000Y110900D02*
X152200D01*
X137500Y115400D02*
X142000Y110900D01*
X137500Y115400D02*
Y128000D01*
X134100Y131400D02*
X137500Y128000D01*
X97400Y131400D02*
X134100D01*
X154100Y109000D02*
X154200Y108900D01*
X139800Y109000D02*
X154100D01*
X135200Y113600D02*
X139800Y109000D01*
X135200Y113600D02*
Y126900D01*
X152300Y106400D02*
X152400Y106300D01*
X132600Y111000D02*
X137200Y106400D01*
X152300D01*
X132700Y129400D02*
X135200Y126900D01*
X132600Y111000D02*
Y124600D01*
X130000Y127200D02*
X132600Y124600D01*
X104000Y127200D02*
X130000D01*
X151100Y103500D02*
X154200D01*
X149986Y102386D02*
X151100Y103500D01*
X95600Y102386D02*
X149986D01*
X152507Y100877D02*
X152523D01*
X116872Y97972D02*
X154043D01*
X116600Y97700D02*
X116872Y97972D01*
X221516Y31067D02*
X221532Y31051D01*
X221500Y38500D02*
X221516Y38484D01*
X213629Y31080D02*
X213657Y31051D01*
X213600Y38300D02*
X213629Y38271D01*
X190018Y31069D02*
X190035Y31051D01*
X190000Y38697D02*
X190018Y38679D01*
X154601Y31052D02*
X154602Y31051D01*
X154600Y39800D02*
X154601Y39799D01*
D49*
X190030Y36220D02*
Y38667D01*
X190018Y38679D02*
X190030Y38667D01*
X190018Y36207D02*
X190030Y36220D01*
X190018Y31069D02*
Y36207D01*
X188067Y31051D02*
Y37033D01*
X186098Y31051D02*
Y38598D01*
X184130Y31051D02*
Y36730D01*
X182161Y31051D02*
Y38839D01*
X180193Y31051D02*
Y36793D01*
X178224Y31051D02*
Y38976D01*
X176256Y31051D02*
Y36944D01*
X174287Y31051D02*
Y39187D01*
X172319Y31051D02*
Y37181D01*
X170350Y31051D02*
Y39250D01*
X168382Y31051D02*
Y37282D01*
X166413Y31051D02*
Y39387D01*
X164445Y31051D02*
Y37355D01*
X211689Y31051D02*
Y36811D01*
X209720Y31051D02*
Y38379D01*
X201847Y31051D02*
Y38554D01*
X199878Y31051D02*
Y37122D01*
X197909Y31051D02*
Y38691D01*
X195941Y31051D02*
Y37059D01*
X193972Y31051D02*
Y38672D01*
X192004Y31051D02*
Y36896D01*
X162476Y31051D02*
Y39676D01*
X160508Y31051D02*
Y37292D01*
X158539Y31051D02*
Y39761D01*
X156571Y31051D02*
Y37271D01*
X154601Y31052D02*
Y39799D01*
D50*
X38658Y350366D02*
D03*
X48658D02*
D03*
X58657D02*
D03*
X68657D02*
D03*
X78658D02*
D03*
X88657D02*
D03*
X334992Y340169D02*
D03*
Y350169D02*
D03*
X344992Y340169D02*
D03*
Y350169D02*
D03*
X354992Y340169D02*
D03*
Y350169D02*
D03*
D51*
X23800Y70000D02*
D03*
X13800Y80000D02*
D03*
X33800D02*
D03*
Y60000D02*
D03*
X13800D02*
D03*
X23800Y314500D02*
D03*
X13800Y324500D02*
D03*
X33800D02*
D03*
Y304500D02*
D03*
X13800D02*
D03*
D52*
X250075Y352705D02*
D03*
X143776D02*
D03*
X250075Y27114D02*
D03*
X143776D02*
D03*
X250075Y20421D02*
D03*
X143776D02*
D03*
D53*
X341200Y318200D02*
D03*
Y289400D02*
D03*
Y261400D02*
D03*
X341500Y230900D02*
D03*
X341900Y200800D02*
D03*
X342800Y169700D02*
D03*
X342700Y139000D02*
D03*
Y107900D02*
D03*
X342800Y75400D02*
D03*
X342500Y42600D02*
D03*
X60100Y328300D02*
D03*
X60800Y299300D02*
D03*
X61000Y269700D02*
D03*
X61200Y239000D02*
D03*
X61100Y207800D02*
D03*
X60300Y176500D02*
D03*
X60600Y145500D02*
D03*
X60700Y114400D02*
D03*
X60900Y83600D02*
D03*
X61300Y54100D02*
D03*
X61100Y23800D02*
D03*
D54*
X331200Y318200D02*
D03*
X321200D02*
D03*
X301200D02*
D03*
X291200D02*
D03*
X281200D02*
D03*
X331200Y289400D02*
D03*
X321200D02*
D03*
X301200D02*
D03*
X291200D02*
D03*
X281200D02*
D03*
X331200Y261400D02*
D03*
X321200D02*
D03*
X301200D02*
D03*
X291200D02*
D03*
X281200D02*
D03*
X331500Y230900D02*
D03*
X321500D02*
D03*
X301500D02*
D03*
X291500D02*
D03*
X281500D02*
D03*
X331900Y200800D02*
D03*
X321900D02*
D03*
X301900D02*
D03*
X291900D02*
D03*
X281900D02*
D03*
X332800Y169700D02*
D03*
X322800D02*
D03*
X302800D02*
D03*
X292800D02*
D03*
X282800D02*
D03*
X332700Y139000D02*
D03*
X322700D02*
D03*
X302700D02*
D03*
X292700D02*
D03*
X282700D02*
D03*
X332700Y107900D02*
D03*
X322700D02*
D03*
X302700D02*
D03*
X292700D02*
D03*
X282700D02*
D03*
X332800Y75400D02*
D03*
X322800D02*
D03*
X302800D02*
D03*
X292800D02*
D03*
X282800D02*
D03*
X332500Y42600D02*
D03*
X322500D02*
D03*
X302500D02*
D03*
X292500D02*
D03*
X282500D02*
D03*
X70100Y328300D02*
D03*
X80100D02*
D03*
X100100D02*
D03*
X110100D02*
D03*
X120100D02*
D03*
X70800Y299300D02*
D03*
X80800D02*
D03*
X100800D02*
D03*
X110800D02*
D03*
X120800D02*
D03*
X71000Y269700D02*
D03*
X81000D02*
D03*
X101000D02*
D03*
X111000D02*
D03*
X121000D02*
D03*
X71200Y239000D02*
D03*
X81200D02*
D03*
X101200D02*
D03*
X111200D02*
D03*
X121200D02*
D03*
X71100Y207800D02*
D03*
X81100D02*
D03*
X101100D02*
D03*
X111100D02*
D03*
X121100D02*
D03*
X70300Y176500D02*
D03*
X80300D02*
D03*
X100300D02*
D03*
X110300D02*
D03*
X120300D02*
D03*
X70600Y145500D02*
D03*
X80600D02*
D03*
X100600D02*
D03*
X110600D02*
D03*
X120600D02*
D03*
X70700Y114400D02*
D03*
X80700D02*
D03*
X100700D02*
D03*
X110700D02*
D03*
X120700D02*
D03*
X70900Y83600D02*
D03*
X80900D02*
D03*
X100900D02*
D03*
X110900D02*
D03*
X120900D02*
D03*
X71300Y54100D02*
D03*
X81300D02*
D03*
X101300D02*
D03*
X111300D02*
D03*
X121300D02*
D03*
X71100Y23800D02*
D03*
X81100D02*
D03*
X101100D02*
D03*
X111100D02*
D03*
X121100D02*
D03*
D55*
X379012Y16091D02*
D03*
X14839Y14122D02*
D03*
X378618Y379083D02*
D03*
X15626D02*
D03*
D56*
X231900Y385200D02*
D03*
X253300Y385300D02*
D03*
X198300Y231500D02*
D03*
X245800Y92800D02*
D03*
X207579Y291179D02*
D03*
X205300Y295700D02*
D03*
X195400Y156600D02*
D03*
X238700Y168100D02*
D03*
X131500Y383800D02*
D03*
X152700Y384100D02*
D03*
X183900Y383800D02*
D03*
X205300Y383500D02*
D03*
X239400Y363500D02*
D03*
X182252Y364148D02*
D03*
X173900Y207780D02*
D03*
X162500Y363400D02*
D03*
X160500Y366700D02*
D03*
X158400Y363500D02*
D03*
X156300Y366500D02*
D03*
X155900Y314600D02*
D03*
X154451Y363449D02*
D03*
X152600Y366300D02*
D03*
X150600Y363300D02*
D03*
X148600Y366200D02*
D03*
X125200Y315100D02*
D03*
X125500Y253100D02*
D03*
X134200Y234200D02*
D03*
X136700Y247400D02*
D03*
X139800Y252900D02*
D03*
X141300Y256700D02*
D03*
X140800Y261900D02*
D03*
X141900Y267100D02*
D03*
X178300Y364300D02*
D03*
X180200Y366500D02*
D03*
X184000Y366600D02*
D03*
X148600Y314500D02*
D03*
X150600Y317000D02*
D03*
X152600Y314400D02*
D03*
X154500Y317100D02*
D03*
X159900Y314700D02*
D03*
X162100Y317100D02*
D03*
X158200Y317500D02*
D03*
X174000Y363000D02*
D03*
X170500Y363100D02*
D03*
X172000Y365900D02*
D03*
X168900D02*
D03*
X166700Y363500D02*
D03*
X165000Y365700D02*
D03*
X172600Y317600D02*
D03*
X168300Y314800D02*
D03*
X166700Y317700D02*
D03*
X164800Y314500D02*
D03*
X181000Y215900D02*
D03*
X194000Y213100D02*
D03*
X191300Y215800D02*
D03*
X188700Y213300D02*
D03*
X186200Y215800D02*
D03*
X183400Y213100D02*
D03*
X178900D02*
D03*
X158400Y213600D02*
D03*
X174400Y320700D02*
D03*
X176100Y317400D02*
D03*
X178100Y320600D02*
D03*
X180283Y317384D02*
D03*
X182252Y320648D02*
D03*
X184100Y317500D02*
D03*
X207900Y250500D02*
D03*
X208800Y295700D02*
D03*
X208200Y245100D02*
D03*
X219800Y205600D02*
D03*
X223000Y203900D02*
D03*
X246500Y361600D02*
D03*
X258534Y330800D02*
D03*
X260000Y327900D02*
D03*
X263000Y328200D02*
D03*
X268623Y331500D02*
D03*
X269166Y334500D02*
D03*
X252400Y332300D02*
D03*
X242800Y363300D02*
D03*
X238700Y366700D02*
D03*
X262000Y296500D02*
D03*
X266500Y328700D02*
D03*
X221905Y188094D02*
D03*
X223711Y182189D02*
D03*
X159000Y177700D02*
D03*
X161029Y166929D02*
D03*
X305800Y332800D02*
D03*
X310100Y303600D02*
D03*
X267000Y179300D02*
D03*
X235200Y363500D02*
D03*
X262800Y292900D02*
D03*
X223483Y176284D02*
D03*
X233500Y182900D02*
D03*
X233600Y366000D02*
D03*
X255900Y324850D02*
D03*
X265800Y292800D02*
D03*
X221415Y174315D02*
D03*
X231600Y363500D02*
D03*
X229600Y366000D02*
D03*
X268700Y293000D02*
D03*
X223346Y172346D02*
D03*
X227500Y363200D02*
D03*
X264800Y322500D02*
D03*
X261700Y319200D02*
D03*
X260000Y315500D02*
D03*
X242170Y175370D02*
D03*
X221748Y178252D02*
D03*
X234700Y172158D02*
D03*
X253700Y194700D02*
D03*
X250600Y181000D02*
D03*
X248915Y190215D02*
D03*
X365000Y311300D02*
D03*
X359600Y311200D02*
D03*
X360600Y281800D02*
D03*
X366200Y281700D02*
D03*
X361400Y254600D02*
D03*
X366900Y254400D02*
D03*
X361300Y223400D02*
D03*
X366900Y223500D02*
D03*
X361500Y193300D02*
D03*
X367200Y193400D02*
D03*
X362100Y162100D02*
D03*
X366800D02*
D03*
X362100Y131500D02*
D03*
X366800Y131700D02*
D03*
X42100Y262700D02*
D03*
X36100Y262600D02*
D03*
X42200Y232400D02*
D03*
X36200D02*
D03*
X42000Y200600D02*
D03*
X35800D02*
D03*
X41100Y170000D02*
D03*
X35300Y169900D02*
D03*
X41900Y140300D02*
D03*
X35900Y140100D02*
D03*
X42800Y107800D02*
D03*
X37000Y107600D02*
D03*
X42600Y84500D02*
D03*
X33200Y88600D02*
D03*
X35300Y289600D02*
D03*
X41200Y289300D02*
D03*
X40200Y330100D02*
D03*
X29000Y333700D02*
D03*
X83900Y312100D02*
D03*
X83600Y315600D02*
D03*
X176200Y154800D02*
D03*
X86500Y162600D02*
D03*
X156510Y8853D02*
D03*
X178300Y152100D02*
D03*
X88600Y159600D02*
D03*
X92400Y99800D02*
D03*
X96900Y10200D02*
D03*
X42500Y42900D02*
D03*
X37300Y43200D02*
D03*
X152000Y9600D02*
D03*
X149300Y9700D02*
D03*
X37100Y17600D02*
D03*
X42400Y17200D02*
D03*
X105000Y192300D02*
D03*
X89600Y314300D02*
D03*
X102100Y97600D02*
D03*
X115900Y191700D02*
D03*
X107300Y129400D02*
D03*
X100800Y37600D02*
D03*
X361200Y67700D02*
D03*
X361600Y100200D02*
D03*
X366400D02*
D03*
X365900Y68000D02*
D03*
X360800Y48300D02*
D03*
X367000Y37900D02*
D03*
X261700Y31600D02*
D03*
X243963Y39863D02*
D03*
X247000Y39400D02*
D03*
X225700Y119600D02*
D03*
X223600Y125600D02*
D03*
X217100Y94000D02*
D03*
X211779Y153420D02*
D03*
X238100Y45500D02*
D03*
X233800Y92800D02*
D03*
X232500Y37300D02*
D03*
X229405Y38405D02*
D03*
X209700Y157000D02*
D03*
X241216Y37784D02*
D03*
X153500Y209800D02*
D03*
X153900Y170600D02*
D03*
X153700Y174400D02*
D03*
X194063Y169563D02*
D03*
X192000Y148800D02*
D03*
X202000Y239200D02*
D03*
X199969Y219468D02*
D03*
X207792Y264792D02*
D03*
X208900Y280100D02*
D03*
X202000Y294500D02*
D03*
X199600Y297700D02*
D03*
X197100Y294700D02*
D03*
X297500Y305300D02*
D03*
X301300Y303900D02*
D03*
X252800Y115000D02*
D03*
X289500Y122600D02*
D03*
X248600Y112600D02*
D03*
X311500Y124200D02*
D03*
X252800Y110100D02*
D03*
X306400Y122800D02*
D03*
X248700Y107600D02*
D03*
X300200Y121100D02*
D03*
X252900Y104800D02*
D03*
X300600Y94000D02*
D03*
X248600Y102200D02*
D03*
X299900Y90400D02*
D03*
X252700Y99700D02*
D03*
X294100Y88800D02*
D03*
X194500Y297500D02*
D03*
X109800Y314200D02*
D03*
X191800Y294900D02*
D03*
X104100Y313000D02*
D03*
X189300Y297600D02*
D03*
X98900Y314200D02*
D03*
X186808Y294707D02*
D03*
X94000Y313100D02*
D03*
X172300Y173700D02*
D03*
X183808Y119592D02*
D03*
X163600Y124300D02*
D03*
X159800Y124500D02*
D03*
X154100Y113700D02*
D03*
X91900Y130100D02*
D03*
X152200Y110900D02*
D03*
X97400Y131400D02*
D03*
X154200Y108900D02*
D03*
X152400Y106300D02*
D03*
X154200Y103500D02*
D03*
X152523Y100877D02*
D03*
X95600Y102386D02*
D03*
X154043Y97972D02*
D03*
X116600Y97700D02*
D03*
X149500Y39400D02*
D03*
X178000Y44500D02*
D03*
X190800D02*
D03*
X186600D02*
D03*
X182000D02*
D03*
X173700Y44600D02*
D03*
X198300Y25400D02*
D03*
X187200Y25500D02*
D03*
X176500Y25200D02*
D03*
X166300Y25300D02*
D03*
X156000Y25600D02*
D03*
X188067Y37033D02*
D03*
X186098Y38598D02*
D03*
X184130Y36730D02*
D03*
X180193Y36793D02*
D03*
X176256Y36944D02*
D03*
X172319Y37181D02*
D03*
X168382Y37282D02*
D03*
X164445Y37355D02*
D03*
X213600Y38300D02*
D03*
X154602Y10302D02*
D03*
X150700Y11600D02*
D03*
X149500Y24100D02*
D03*
X151800Y24000D02*
D03*
X151700Y26200D02*
D03*
X149400Y26300D02*
D03*
Y37000D02*
D03*
X151800D02*
D03*
Y39300D02*
D03*
X238200Y25000D02*
D03*
X235300Y25100D02*
D03*
X232300Y25000D02*
D03*
X238100Y37300D02*
D03*
X235400D02*
D03*
X217700Y23900D02*
D03*
X218800Y26000D02*
D03*
X216500D02*
D03*
X217600Y36500D02*
D03*
X218700Y38500D02*
D03*
X216400D02*
D03*
X227437Y36763D02*
D03*
X225468Y38568D02*
D03*
X223500Y36700D02*
D03*
X221500Y38500D02*
D03*
X211689Y36811D02*
D03*
X204700Y23800D02*
D03*
X205800Y26000D02*
D03*
X207100Y23800D02*
D03*
X205800Y36500D02*
D03*
X206900Y38400D02*
D03*
X204600Y38500D02*
D03*
X209720Y38379D02*
D03*
X201847Y38554D02*
D03*
X199878Y37122D02*
D03*
X197909Y38691D02*
D03*
X195941Y37059D02*
D03*
X193972Y38672D02*
D03*
X178224Y38976D02*
D03*
X192004Y36896D02*
D03*
X190000Y38697D02*
D03*
X182161Y38839D02*
D03*
X174287Y39187D02*
D03*
X154600Y39800D02*
D03*
X170350Y39250D02*
D03*
X166413Y39387D02*
D03*
X162476Y39676D02*
D03*
X160508Y37292D02*
D03*
X158539Y39761D02*
D03*
X156571Y37271D02*
D03*
M02*
