G04*
G04 #@! TF.GenerationSoftware,Altium Limited,Altium Designer,20.0.13 (296)*
G04*
G04 Layer_Color=32768*
%FSLAX25Y25*%
%MOIN*%
G70*
G01*
G75*
%ADD13C,0.00787*%
%ADD14C,0.00500*%
%ADD15C,0.01000*%
%ADD69C,0.00394*%
%ADD70C,0.00197*%
%ADD71C,0.00197*%
D13*
X31886Y345402D02*
X95429D01*
Y391138D01*
X31886Y345402D02*
Y391138D01*
X95429D01*
X328220Y335205D02*
X361764D01*
X328220D02*
Y390941D01*
X361764D01*
Y335205D02*
Y390941D01*
X233144Y185858D02*
X241774Y194488D01*
X249291Y186972D01*
X240661Y178342D02*
X249291Y186972D01*
X233144Y185858D02*
X240661Y178342D01*
D14*
X140429Y359161D02*
X253421D01*
X255390Y357193D01*
Y341524D02*
Y357193D01*
X253421Y339555D02*
X255390Y341524D01*
X140429Y339555D02*
X253421D01*
X138461Y341524D02*
X140429Y339555D01*
X138461Y341524D02*
Y357193D01*
X140429Y359161D01*
X196925Y347390D02*
Y351327D01*
X194957Y349358D02*
X198894D01*
X140429Y33571D02*
X253421D01*
X255390Y31602D01*
Y15933D02*
Y31602D01*
X253421Y13965D02*
X255390Y15933D01*
X140429Y13965D02*
X253421D01*
X138461Y15933D02*
X140429Y13965D01*
X138461Y15933D02*
Y31602D01*
X140429Y33571D01*
X196925Y21799D02*
Y25736D01*
X194957Y23768D02*
X198894D01*
X140429Y13965D02*
X253421D01*
X255390Y15933D01*
Y31602D01*
X253421Y33571D02*
X255390Y31602D01*
X140429Y33571D02*
X253421D01*
X138461Y31602D02*
X140429Y33571D01*
X138461Y15933D02*
Y31602D01*
Y15933D02*
X140429Y13965D01*
X196925Y21799D02*
Y25736D01*
X194957Y23768D02*
X198894D01*
D15*
X149957Y365815D02*
X148645D01*
X149301D01*
Y361879D01*
X149957Y362535D01*
X147333Y336327D02*
X149957D01*
X147333Y333703D01*
Y333047D01*
X147989Y332391D01*
X149301D01*
X149957Y333047D01*
Y40224D02*
X148645D01*
X149301D01*
Y36289D01*
X149957Y36945D01*
X147333Y10736D02*
X149957D01*
X147333Y8112D01*
Y7456D01*
X147989Y6801D01*
X149301D01*
X149957Y7456D01*
Y7311D02*
X148645D01*
X149301D01*
Y11247D01*
X149957Y10591D01*
X147333Y36799D02*
X149957D01*
X147333Y39423D01*
Y40079D01*
X147989Y40735D01*
X149301D01*
X149957Y40079D01*
D69*
X227331Y106200D02*
X231269D01*
X229300Y104232D02*
Y108168D01*
X169832Y107200D02*
X173768D01*
X171800Y105231D02*
Y109169D01*
X195700Y274832D02*
Y278768D01*
X193731Y276800D02*
X197669D01*
X196031Y194000D02*
X199969D01*
X198000Y192032D02*
Y195968D01*
X361400Y259217D02*
Y261383D01*
X360317Y260300D02*
X362483D01*
X362100Y136547D02*
Y138713D01*
X361017Y137630D02*
X363183D01*
X362100Y41487D02*
Y43653D01*
X361017Y42570D02*
X363183D01*
X42200Y238547D02*
Y240713D01*
X41117Y239630D02*
X43283D01*
X41900Y144847D02*
Y147013D01*
X40817Y145930D02*
X42983D01*
X42500Y21487D02*
Y23653D01*
X41417Y22570D02*
X43583D01*
X360500Y288117D02*
Y290283D01*
X359417Y289200D02*
X361583D01*
X362000Y168247D02*
Y170413D01*
X360917Y169330D02*
X363083D01*
X361100Y73087D02*
Y75253D01*
X360017Y74170D02*
X362183D01*
X42100Y269187D02*
Y271353D01*
X41017Y270270D02*
X43183D01*
X41100Y174817D02*
Y176983D01*
X40017Y175900D02*
X42183D01*
X42500Y48087D02*
Y50253D01*
X41417Y49170D02*
X43583D01*
X359500Y315917D02*
Y318083D01*
X358417Y317000D02*
X360583D01*
X361500Y199047D02*
Y201213D01*
X360417Y200130D02*
X362583D01*
X361600Y105787D02*
Y107953D01*
X360517Y106870D02*
X362683D01*
X41200Y293887D02*
Y296053D01*
X40117Y294970D02*
X42283D01*
X42000Y205917D02*
Y208083D01*
X40917Y207000D02*
X43083D01*
X42600Y89287D02*
Y91453D01*
X41517Y90370D02*
X43683D01*
X361300Y229817D02*
Y231983D01*
X360217Y230900D02*
X362383D01*
X40100Y334687D02*
Y336853D01*
X39017Y335770D02*
X41183D01*
X42800Y112587D02*
Y114753D01*
X41717Y113670D02*
X43883D01*
X202000Y232347D02*
Y234512D01*
X200917Y233429D02*
X203083D01*
X157947Y209800D02*
X160112D01*
X159029Y208717D02*
Y210883D01*
X158017Y170400D02*
X160183D01*
X159100Y169317D02*
Y171483D01*
X158188Y174400D02*
X160354D01*
X159271Y173317D02*
Y175483D01*
X192000Y153488D02*
Y155654D01*
X190917Y154571D02*
X193083D01*
X234700Y176646D02*
Y178812D01*
X233617Y177729D02*
X235783D01*
X238700Y172417D02*
Y174583D01*
X237617Y173500D02*
X239783D01*
X160688Y120900D02*
X162854D01*
X161771Y119817D02*
Y121983D01*
X208900Y284588D02*
Y286754D01*
X207817Y285671D02*
X209983D01*
X239826Y185023D02*
X242610Y187807D01*
X239826D02*
X242610Y185023D01*
X238246Y92800D02*
X240412D01*
X239329Y91717D02*
Y93883D01*
X246825Y194700D02*
X248991D01*
X247908Y193617D02*
Y195783D01*
X247525Y177700D02*
X249691D01*
X248608Y176617D02*
Y178783D01*
X144647Y383900D02*
X146813D01*
X145730Y382817D02*
Y384983D01*
X197747Y383800D02*
X199913D01*
X198830Y382717D02*
Y384883D01*
X246087Y383900D02*
X248253D01*
X247170Y382817D02*
Y384983D01*
D70*
X212174Y94192D02*
Y118208D01*
X246426Y94192D02*
Y118208D01*
X212174D02*
X246426D01*
X212174Y94192D02*
X246426D01*
X188926Y95192D02*
Y119208D01*
X154674Y95192D02*
Y119208D01*
Y95192D02*
X188926D01*
X154674Y119208D02*
X188926D01*
X183692Y259674D02*
X207708D01*
X183692Y293926D02*
X207708D01*
X183692Y259674D02*
Y293926D01*
X207708Y259674D02*
Y293926D01*
X9036Y85709D02*
X39509D01*
Y54291D02*
Y85709D01*
X9036Y54291D02*
X39509D01*
X9036Y83445D02*
Y85709D01*
X-22853Y83445D02*
X9036D01*
X-22853Y56555D02*
Y83445D01*
Y56555D02*
X9036D01*
Y54291D02*
Y56555D01*
Y330209D02*
X39509D01*
Y298791D02*
Y330209D01*
X9036Y298791D02*
X39509D01*
X9036Y327945D02*
Y330209D01*
X-22853Y327945D02*
X9036D01*
X-22853Y301055D02*
Y327945D01*
Y301055D02*
X9036D01*
Y298791D02*
Y301055D01*
X234024Y157976D02*
Y230024D01*
X161976Y157976D02*
Y230024D01*
X234024D01*
X161976Y157976D02*
X234024D01*
X365825Y260272D02*
X368030D01*
X366900Y259142D02*
Y261346D01*
X365227Y257122D02*
X368573D01*
Y263421D01*
X365227D02*
X368573D01*
X365227Y257122D02*
Y263421D01*
X365725Y137572D02*
X367930D01*
X366800Y136442D02*
Y138646D01*
X365127Y134422D02*
X368473D01*
Y140721D01*
X365127D02*
X368473D01*
X365127Y134422D02*
Y140721D01*
X365825Y42528D02*
X368030D01*
X366900Y41398D02*
Y43603D01*
X365227Y39379D02*
X368573D01*
Y45678D01*
X365227D02*
X368573D01*
X365227Y39379D02*
Y45678D01*
X35225Y239528D02*
X37430D01*
X36300Y238398D02*
Y240603D01*
X34627Y236379D02*
X37973D01*
Y242678D01*
X34627D02*
X37973D01*
X34627Y236379D02*
Y242678D01*
X34825Y145828D02*
X37030D01*
X35900Y144698D02*
Y146903D01*
X34227Y142679D02*
X37573D01*
Y148978D01*
X34227D02*
X37573D01*
X34227Y142679D02*
Y148978D01*
X35625Y22628D02*
X37830D01*
X36700Y21498D02*
Y23703D01*
X35027Y19479D02*
X38373D01*
Y25778D01*
X35027D02*
X38373D01*
X35027Y19479D02*
Y25778D01*
X359235Y256166D02*
X363565D01*
X359235Y264434D02*
X363565D01*
X359235Y256166D02*
Y264434D01*
X363565Y256166D02*
Y264434D01*
X359935Y133496D02*
X364265D01*
X359935Y141764D02*
X364265D01*
X359935Y133496D02*
Y141764D01*
X364265Y133496D02*
Y141764D01*
X359935Y38436D02*
X364265D01*
X359935Y46704D02*
X364265D01*
X359935Y38436D02*
Y46704D01*
X364265Y38436D02*
Y46704D01*
X40035Y235496D02*
X44365D01*
X40035Y243764D02*
X44365D01*
X40035Y235496D02*
Y243764D01*
X44365Y235496D02*
Y243764D01*
X39735Y141796D02*
X44065D01*
X39735Y150064D02*
X44065D01*
X39735Y141796D02*
Y150064D01*
X44065Y141796D02*
Y150064D01*
X40335Y18436D02*
X44665D01*
X40335Y26704D02*
X44665D01*
X40335Y18436D02*
Y26704D01*
X44665Y18436D02*
Y26704D01*
X365025Y289028D02*
X367230D01*
X366100Y287898D02*
Y290103D01*
X364427Y285879D02*
X367773D01*
Y292178D01*
X364427D02*
X367773D01*
X364427Y285879D02*
Y292178D01*
X365525Y169272D02*
X367730D01*
X366600Y168142D02*
Y170346D01*
X364927Y166122D02*
X368273D01*
Y172421D01*
X364927D02*
X368273D01*
X364927Y166122D02*
Y172421D01*
X364825Y74010D02*
X367030D01*
X365900Y72880D02*
Y75085D01*
X364227Y70860D02*
X367573D01*
Y77160D01*
X364227D02*
X367573D01*
X364227Y70860D02*
Y77160D01*
X35125Y270228D02*
X37330D01*
X36200Y269098D02*
Y271303D01*
X34527Y267079D02*
X37873D01*
Y273378D01*
X34527D02*
X37873D01*
X34527Y267079D02*
Y273378D01*
X34125Y175828D02*
X36330D01*
X35200Y174698D02*
Y176903D01*
X33527Y172679D02*
X36873D01*
Y178978D01*
X33527D02*
X36873D01*
X33527Y172679D02*
Y178978D01*
X36225Y49172D02*
X38430D01*
X37300Y48042D02*
Y50246D01*
X35627Y46022D02*
X38973D01*
Y52321D01*
X35627D02*
X38973D01*
X35627Y46022D02*
Y52321D01*
X358335Y285066D02*
X362665D01*
X358335Y293334D02*
X362665D01*
X358335Y285066D02*
Y293334D01*
X362665Y285066D02*
Y293334D01*
X359835Y165196D02*
X364165D01*
X359835Y173464D02*
X364165D01*
X359835Y165196D02*
Y173464D01*
X364165Y165196D02*
Y173464D01*
X358935Y70036D02*
X363265D01*
X358935Y78304D02*
X363265D01*
X358935Y70036D02*
Y78304D01*
X363265Y70036D02*
Y78304D01*
X39935Y266136D02*
X44265D01*
X39935Y274404D02*
X44265D01*
X39935Y266136D02*
Y274404D01*
X44265Y266136D02*
Y274404D01*
X38935Y171766D02*
X43265D01*
X38935Y180034D02*
X43265D01*
X38935Y171766D02*
Y180034D01*
X43265Y171766D02*
Y180034D01*
X40335Y45036D02*
X44665D01*
X40335Y53304D02*
X44665D01*
X40335Y45036D02*
Y53304D01*
X44665Y45036D02*
Y53304D01*
X363925Y316972D02*
X366130D01*
X365000Y315842D02*
Y318046D01*
X363327Y313822D02*
X366673D01*
Y320121D01*
X363327D02*
X366673D01*
X363327Y313822D02*
Y320121D01*
X366025Y200172D02*
X368230D01*
X367100Y199042D02*
Y201246D01*
X365427Y197022D02*
X368773D01*
Y203321D01*
X365427D02*
X368773D01*
X365427Y197022D02*
Y203321D01*
X365325Y106872D02*
X367530D01*
X366400Y105742D02*
Y107946D01*
X364727Y103722D02*
X368073D01*
Y110021D01*
X364727D02*
X368073D01*
X364727Y103722D02*
Y110021D01*
X34225Y295072D02*
X36430D01*
X35300Y293942D02*
Y296146D01*
X33627Y291922D02*
X36973D01*
Y298221D01*
X33627D02*
X36973D01*
X33627Y291922D02*
Y298221D01*
X35025Y206928D02*
X37230D01*
X36100Y205798D02*
Y208003D01*
X34427Y203779D02*
X37773D01*
Y210078D01*
X34427D02*
X37773D01*
X34427Y203779D02*
Y210078D01*
X35625Y90298D02*
X37830D01*
X36700Y89168D02*
Y91373D01*
X35027Y87149D02*
X38373D01*
Y93448D01*
X35027D02*
X38373D01*
X35027Y87149D02*
Y93448D01*
X357335Y312866D02*
X361665D01*
X357335Y321134D02*
X361665D01*
X357335Y312866D02*
Y321134D01*
X361665Y312866D02*
Y321134D01*
X359335Y195996D02*
X363665D01*
X359335Y204264D02*
X363665D01*
X359335Y195996D02*
Y204264D01*
X363665Y195996D02*
Y204264D01*
X359435Y102736D02*
X363765D01*
X359435Y111004D02*
X363765D01*
X359435Y102736D02*
Y111004D01*
X363765Y102736D02*
Y111004D01*
X39035Y290836D02*
X43365D01*
X39035Y299104D02*
X43365D01*
X39035Y290836D02*
Y299104D01*
X43365Y290836D02*
Y299104D01*
X39835Y202866D02*
X44165D01*
X39835Y211134D02*
X44165D01*
X39835Y202866D02*
Y211134D01*
X44165Y202866D02*
Y211134D01*
X40435Y86236D02*
X44765D01*
X40435Y94504D02*
X44765D01*
X40435Y86236D02*
Y94504D01*
X44765Y86236D02*
Y94504D01*
X365725Y230810D02*
X367930D01*
X366800Y229680D02*
Y231885D01*
X365127Y227660D02*
X368473D01*
Y233960D01*
X365127D02*
X368473D01*
X365127Y227660D02*
Y233960D01*
X33125Y335580D02*
X35330D01*
X34200Y334450D02*
Y336655D01*
X32527Y332431D02*
X35873D01*
Y338730D01*
X32527D02*
X35873D01*
X32527Y332431D02*
Y338730D01*
X35925Y113710D02*
X38130D01*
X37000Y112580D02*
Y114785D01*
X35327Y110560D02*
X38673D01*
Y116860D01*
X35327D02*
X38673D01*
X35327Y110560D02*
Y116860D01*
X359135Y226766D02*
X363465D01*
X359135Y235034D02*
X363465D01*
X359135Y226766D02*
Y235034D01*
X363465Y226766D02*
Y235034D01*
X37935Y331636D02*
X42265D01*
X37935Y339904D02*
X42265D01*
X37935Y331636D02*
Y339904D01*
X42265Y331636D02*
Y339904D01*
X40635Y109536D02*
X44965D01*
X40635Y117804D02*
X44965D01*
X40635Y109536D02*
Y117804D01*
X44965Y109536D02*
Y117804D01*
X199638Y237760D02*
X204362D01*
X199638Y229098D02*
X204362D01*
Y237760D01*
X199638Y229098D02*
Y237760D01*
X154698Y207438D02*
Y212162D01*
X163360Y207438D02*
Y212162D01*
X154698D02*
X163360D01*
X154698Y207438D02*
X163360D01*
X154769Y168038D02*
Y172762D01*
X163431Y168038D02*
Y172762D01*
X154769D02*
X163431D01*
X154769Y168038D02*
X163431D01*
X154940Y172038D02*
Y176762D01*
X163602Y172038D02*
Y176762D01*
X154940D02*
X163602D01*
X154940Y172038D02*
X163602D01*
X189638Y150240D02*
X194362D01*
X189638Y158902D02*
X194362D01*
X189638Y150240D02*
Y158902D01*
X194362Y150240D02*
Y158902D01*
X232338Y173398D02*
X237062D01*
X232338Y182060D02*
X237062D01*
X232338Y173398D02*
Y182060D01*
X237062Y173398D02*
Y182060D01*
X236535Y177634D02*
X240865D01*
X236535Y169366D02*
X240865D01*
Y177634D01*
X236535Y169366D02*
Y177634D01*
X166102Y118538D02*
Y123262D01*
X157440Y118538D02*
Y123262D01*
Y118538D02*
X166102D01*
X157440Y123262D02*
X166102D01*
X206538Y281340D02*
X211262D01*
X206538Y290002D02*
X211262D01*
X206538Y281340D02*
Y290002D01*
X211262Y281340D02*
Y290002D01*
X234998Y90438D02*
Y95162D01*
X243660Y90438D02*
Y95162D01*
X234998D02*
X243660D01*
X234998Y90438D02*
X243660D01*
X252239Y192338D02*
Y197062D01*
X243577Y192338D02*
Y197062D01*
Y192338D02*
X252239D01*
X243577Y197062D02*
X252239D01*
X252939Y175338D02*
Y180062D01*
X244277Y175338D02*
Y180062D01*
Y175338D02*
X252939D01*
X244277Y180062D02*
X252939D01*
X137372Y382670D02*
Y384875D01*
X136242Y383800D02*
X138446D01*
X134222Y382127D02*
Y385473D01*
Y382127D02*
X140521D01*
Y385473D01*
X134222D02*
X140521D01*
X149864Y381735D02*
Y386065D01*
X141596Y381735D02*
Y386065D01*
Y381735D02*
X149864D01*
X141596Y386065D02*
X149864D01*
X190210Y382670D02*
Y384875D01*
X189080Y383800D02*
X191285D01*
X187060Y382127D02*
Y385473D01*
Y382127D02*
X193360D01*
Y385473D01*
X187060D02*
X193360D01*
X202964Y381635D02*
Y385965D01*
X194696Y381635D02*
Y385965D01*
Y381635D02*
X202964D01*
X194696Y385965D02*
X202964D01*
X238328Y382770D02*
Y384975D01*
X237198Y383900D02*
X239403D01*
X235179Y382227D02*
Y385573D01*
Y382227D02*
X241478D01*
Y385573D01*
X235179D02*
X241478D01*
X251304Y381735D02*
Y386065D01*
X243036Y381735D02*
Y386065D01*
Y381735D02*
X251304D01*
X243036Y386065D02*
X251304D01*
D71*
X351161Y306113D02*
Y330287D01*
X271239Y306113D02*
X351161D01*
X271239D02*
Y330287D01*
X351161D01*
X309822Y318200D02*
X312578D01*
X311200Y316822D02*
Y319578D01*
X351161Y277313D02*
Y301487D01*
X271239Y277313D02*
X351161D01*
X271239D02*
Y301487D01*
X351161D01*
X309822Y289400D02*
X312578D01*
X311200Y288022D02*
Y290778D01*
X351161Y249313D02*
Y273487D01*
X271239Y249313D02*
X351161D01*
X271239D02*
Y273487D01*
X351161D01*
X309822Y261400D02*
X312578D01*
X311200Y260022D02*
Y262778D01*
X351461Y218813D02*
Y242987D01*
X271539Y218813D02*
X351461D01*
X271539D02*
Y242987D01*
X351461D01*
X310122Y230900D02*
X312878D01*
X311500Y229522D02*
Y232278D01*
X351861Y188713D02*
Y212887D01*
X271939Y188713D02*
X351861D01*
X271939D02*
Y212887D01*
X351861D01*
X310522Y200800D02*
X313278D01*
X311900Y199422D02*
Y202178D01*
X352761Y157613D02*
Y181787D01*
X272839Y157613D02*
X352761D01*
X272839D02*
Y181787D01*
X352761D01*
X311422Y169700D02*
X314178D01*
X312800Y168322D02*
Y171078D01*
X352661Y126913D02*
Y151087D01*
X272739Y126913D02*
X352661D01*
X272739D02*
Y151087D01*
X352661D01*
X311322Y139000D02*
X314078D01*
X312700Y137622D02*
Y140378D01*
X352661Y95813D02*
Y119987D01*
X272739Y95813D02*
X352661D01*
X272739D02*
Y119987D01*
X352661D01*
X311322Y107900D02*
X314078D01*
X312700Y106522D02*
Y109278D01*
X352761Y63313D02*
Y87487D01*
X272839Y63313D02*
X352761D01*
X272839D02*
Y87487D01*
X352761D01*
X311422Y75400D02*
X314178D01*
X312800Y74022D02*
Y76778D01*
X352461Y30513D02*
Y54687D01*
X272539Y30513D02*
X352461D01*
X272539D02*
Y54687D01*
X352461D01*
X311122Y42600D02*
X313878D01*
X312500Y41222D02*
Y43978D01*
X50139Y316213D02*
Y340387D01*
X130061D01*
Y316213D02*
Y340387D01*
X50139Y316213D02*
X130061D01*
X88722Y328300D02*
X91478D01*
X90100Y326922D02*
Y329678D01*
X50839Y287213D02*
Y311387D01*
X130761D01*
Y287213D02*
Y311387D01*
X50839Y287213D02*
X130761D01*
X89422Y299300D02*
X92178D01*
X90800Y297922D02*
Y300678D01*
X51039Y257613D02*
Y281787D01*
X130961D01*
Y257613D02*
Y281787D01*
X51039Y257613D02*
X130961D01*
X89622Y269700D02*
X92378D01*
X91000Y268322D02*
Y271078D01*
X51239Y226913D02*
Y251087D01*
X131161D01*
Y226913D02*
Y251087D01*
X51239Y226913D02*
X131161D01*
X89822Y239000D02*
X92578D01*
X91200Y237622D02*
Y240378D01*
X51139Y195713D02*
Y219887D01*
X131061D01*
Y195713D02*
Y219887D01*
X51139Y195713D02*
X131061D01*
X89722Y207800D02*
X92478D01*
X91100Y206422D02*
Y209178D01*
X50339Y164413D02*
Y188587D01*
X130261D01*
Y164413D02*
Y188587D01*
X50339Y164413D02*
X130261D01*
X88922Y176500D02*
X91678D01*
X90300Y175122D02*
Y177878D01*
X50639Y133413D02*
Y157587D01*
X130561D01*
Y133413D02*
Y157587D01*
X50639Y133413D02*
X130561D01*
X89222Y145500D02*
X91978D01*
X90600Y144122D02*
Y146878D01*
X50739Y102313D02*
Y126487D01*
X130661D01*
Y102313D02*
Y126487D01*
X50739Y102313D02*
X130661D01*
X89322Y114400D02*
X92078D01*
X90700Y113022D02*
Y115778D01*
X50939Y71513D02*
Y95687D01*
X130861D01*
Y71513D02*
Y95687D01*
X50939Y71513D02*
X130861D01*
X89522Y83600D02*
X92278D01*
X90900Y82222D02*
Y84978D01*
X51339Y42013D02*
Y66187D01*
X131261D01*
Y42013D02*
Y66187D01*
X51339Y42013D02*
X131261D01*
X89922Y54100D02*
X92678D01*
X91300Y52722D02*
Y55478D01*
X51139Y11713D02*
Y35887D01*
X131061D01*
Y11713D02*
Y35887D01*
X51139Y11713D02*
X131061D01*
X89722Y23800D02*
X92478D01*
X91100Y22422D02*
Y25178D01*
M02*
