M48
;Layer_Color=9474304
;FILE_FORMAT=2:4
INCH,TZ
;TYPE=PLATED
T1F00S00C0.0079
T2F00S00C0.0295
T3F00S00C0.0300
T4F00S00C0.0630
T5F00S00C0.0866
;TYPE=NON_PLATED
T6F00S00C0.0571
%
T01
X3710Y1760
X4240Y1720
X4250Y4290
X3730Y4320
X4260Y8450
X3320Y8860
X3700Y10760
X4280Y10780
X4190Y14030
X3590Y14010
X9190Y13010
X9740Y13140
X10730Y12940
X10210Y9760
X9560Y10239
X9240Y9980
X11660Y9770
X15404Y9797
X15252Y10088
X15420Y10350
X15240Y10630
X15420Y10890
X15220Y11090
X15410Y11370
X15460Y3980
X15180Y3930
Y3700
X14940
X14950Y3940
X14940Y2630
X14950Y2410
X15180Y2400
X15170Y2620
X15600Y2560
X15460Y1030
X15200Y960
X14930Y970
X15070Y1160
X9690Y1020
X10080Y3760
X15657Y3727
X16051Y3729
X16444Y3736
X16641Y3939
X16838Y3728
X17035Y3925
X17429Y3919
X17232Y3718
X17626Y3694
X17822Y3898
X18216Y3884
X18019Y3679
X18413Y3673
X18610Y3860
X18807Y3703
X19000Y3870
X19200Y3690
X19397Y3867
X19594Y3706
X19791Y3869
X19988Y3712
X20185Y3855
X20460Y3850
X20690Y3840
X20972Y3838
X21169Y3681
X21360Y3830
X21640Y3850
X21870
X22150
X22350Y3670
X22547Y3857
X22744Y3676
X22941Y3841
X23250Y3730
X23540
X23810
X24122Y3778
X24396Y3986
X24700Y3940
X23810Y4550
X23820Y2500
X23530Y2510
X23230Y2500
X21880Y2600
X21650
X21770Y2390
X20710Y2380
X20470
X20580Y2600
X19830Y2540
X18720Y2550
X17650Y2520
X16630Y2530
X16248Y3968
X15854Y3976
X17370Y4460
X17800Y4450
X18200
X18660
X19080
X20580Y3650
X21760
X26170Y3160
X24580Y9280
X23380
X21710Y9400
X22570Y11960
X22360Y12560
X24860Y11260
X24870Y10760
X24860Y10220
X25270Y9970
X25290Y10480
X25280Y11010
Y11500
X28950Y12260
X30020Y12110
X30640Y12280
X31150Y12420
X30060Y9400
X29990Y9040
X29410Y8880
X18381Y11959
X16360Y12430
X15980Y12450
X17830Y15210
X17620Y15480
X19200Y14880
X21178Y15342
X15651Y885
X36700Y3790
X36080Y4830
X36120Y6770
X36590Y6800
X36640Y10020
X36160
X36210Y13150
X36680Y13170
Y16210
X36210
X36150Y19330
X36720Y19340
X36690Y22350
X36130Y22340
X36140Y25460
X36690Y25440
X36620Y28170
X36060Y28180
X35960Y31120
X36500Y31130
X31010Y30360
X30130Y30390
X29750Y30530
X26870Y29300
X26580Y29280
X26280Y29290
X26200Y29650
X20880Y29570
X20530
X20200Y29450
X19710Y29470
X19450Y29750
X19960Y29770
X18930Y29760
X19180Y29490
X18681Y29471
X20758Y29118
X20890Y28010
X20779Y26479
X20790Y25050
X20820Y24510
X20200Y23920
X19830Y23150
X19997Y21947
X19400Y21310
X19130Y21580
X18870Y21330
X18620Y21580
X18100Y21590
X17890Y21310
X18340
X17390Y20778
X15840Y21360
X15900Y17770
X16103Y16693
X17230Y17370
X19406Y16956
X19540Y15660
X20970Y15700
X22335Y17235
X22141Y17431
X22348Y17628
X22175Y17825
X22371Y18219
X22191Y18809
X23350Y18290
X23470Y17216
X23870Y16810
X24217Y17537
X25060Y18100
X24892Y19022
X25370Y19470
X26700Y17930
X22300Y20390
X21980Y20560
X15350Y20980
X15370Y17440
X15390Y17060
X11590Y19170
X10500Y19230
X8650Y16260
X8860Y15960
X4110Y17000
X3530Y16990
X3580Y20060
X4200
X4220Y23240
X3620
X3610Y26260
X4210Y26270
X4120Y28930
X3530Y28960
X8390Y31210
X12550Y25310
X13980Y25290
X14130Y25670
X14080Y26190
X14190Y26710
X13670Y24740
X13420Y23420
X12520Y31510
X10980Y31420
X10410Y31300
X9890Y31420
X9400Y31310
X8960Y31430
X8360Y31560
X4020Y33010
X2900Y33370
X15060Y31700
X15450Y31710
X15590Y31460
X15260Y31440
X14860Y31450
X15060Y36330
X15445Y36345
X15260Y36630
X14860Y36620
X15270Y38410
X13150Y38380
X15630Y36650
X16050Y36670
X16250Y36340
X15840Y36350
X16670
X16500Y36570
X16890Y36590
X17200
X17050Y36310
X17400Y36300
X17830Y36430
X18020Y36650
X18400Y36660
X18225Y36415
X18390Y38380
X20530Y38350
X23190Y38520
X23360Y36600
X22960
X23160Y36350
X23520
X23940
X24280Y36330
X24650Y36160
X23870Y36670
X22750Y36320
X25330Y38530
X25240Y33230
X25853Y33080
X26000Y32790
X26300Y32820
X26650Y32870
X26862Y33150
X26917Y33450
X26480Y32250
X26170Y31920
X26000Y31550
X25590Y32485
X30580Y33280
X18225Y32065
X17810Y32060
X17440Y32070
X17260Y31760
X17610Y31740
X18028Y31738
X18410Y31750
X16670Y31770
X16830Y31480
X16480Y31450
X15990Y31470
X15820Y31750
X16210Y31710
T02
X6110Y2380
X7110
X8110
X10110
X11110
X12110
X12130Y5410
X11130
X10130
X8130
X7130
X6130
X6090Y8360
X7090
X8090
X10090
X11090
X12090
X12070Y11440
X11070
X10070
X8070
X7070
X6070
X6060Y14550
X7060
X8060
X10060
X11060
X12060
X28270Y13900
X29270
X30270
Y10790
X29270
X28270
X28280Y7540
X29280
X30280
X30250Y4260
X29250
X28250
X32250
X33250
X34250
X34280Y7540
X33280
X32280
X32270Y10790
X33270
X34270
Y13900
X33270
X32270
X32280Y16970
X33280
X34280
X34190Y20080
X33190
X32190
X32150Y23090
X33150
X34150
X34120Y26140
X33120
X32120
Y28940
X33120
X34120
X30120
X29120
X28120
Y26140
X29120
X30120
X30150Y23090
X29150
X28150
X28190Y20080
X29190
X30190
X30280Y16970
X29280
X28280
X12030Y17650
X11030
X10030
X8030
X7030
X6030
X6110Y20780
X7110
X8110
X10110
X11110
X12110
X12120Y23900
X11120
X10120
X8120
X7120
X6120
X6100Y26970
X7100
X8100
X10100
X11100
X12100
X12080Y29930
X11080
X10080
X8080
X7080
X6080
X6010Y32830
X7010
X8010
X10010
X11010
X12010
X28120Y31820
X29120
X30120
X32120
X33120
X34120
T03
X3866Y35037
X4866
X5866
X6866
X7866
X8866
X33499Y35017
Y34017
X34499
Y35017
X35499
Y34017
T04
X1380Y6000
X2380Y7000
X1380Y8000
X3380
Y6000
Y30450
X1380
X2380Y31450
X1380Y32450
X3380
T05
X1484Y1412
X37901Y1609
X1563Y37908
X37862
T06
X14378Y2042
Y2711
X25007
Y2042
X14378Y35270
X25007
M30
