G04*
G04 #@! TF.GenerationSoftware,Altium Limited,Altium Designer,20.0.13 (296)*
G04*
G04 Layer_Color=32768*
%FSLAX25Y25*%
%MOIN*%
G70*
G01*
G75*
G36*
X379088Y34113D02*
X379105Y34110D01*
X379125Y34106D01*
X379147Y34102D01*
X379171Y34097D01*
X379223Y34080D01*
X379252Y34067D01*
X379278Y34054D01*
X379306Y34036D01*
X379334Y34017D01*
X379363Y33995D01*
X379389Y33969D01*
X379391Y33966D01*
X379395Y33962D01*
X379402Y33953D01*
X379411Y33942D01*
X379421Y33929D01*
X379432Y33912D01*
X379446Y33892D01*
X379456Y33868D01*
X379469Y33844D01*
X379483Y33816D01*
X379493Y33788D01*
X379504Y33755D01*
X379513Y33720D01*
X379520Y33683D01*
X379524Y33646D01*
X379526Y33605D01*
Y33585D01*
X379524Y33572D01*
X379522Y33555D01*
X379520Y33535D01*
X379515Y33513D01*
X379511Y33489D01*
X379498Y33437D01*
X379476Y33382D01*
X379463Y33354D01*
X379448Y33328D01*
X379428Y33302D01*
X379408Y33275D01*
X379406Y33273D01*
X379402Y33269D01*
X379395Y33262D01*
X379387Y33256D01*
X379376Y33245D01*
X379361Y33234D01*
X379345Y33221D01*
X379326Y33208D01*
X379304Y33195D01*
X379282Y33182D01*
X379230Y33158D01*
X379169Y33138D01*
X379136Y33132D01*
X379101Y33127D01*
X379077Y33312D01*
X379079D01*
X379084Y33315D01*
X379092Y33317D01*
X379103Y33319D01*
X379116Y33321D01*
X379132Y33326D01*
X379164Y33336D01*
X379204Y33352D01*
X379241Y33371D01*
X379275Y33393D01*
X379306Y33419D01*
X379308Y33424D01*
X379317Y33432D01*
X379328Y33450D01*
X379339Y33472D01*
X379352Y33498D01*
X379363Y33531D01*
X379371Y33568D01*
X379374Y33607D01*
Y33620D01*
X379371Y33629D01*
X379369Y33653D01*
X379363Y33683D01*
X379352Y33718D01*
X379337Y33755D01*
X379315Y33792D01*
X379284Y33827D01*
X379280Y33831D01*
X379267Y33842D01*
X379247Y33855D01*
X379221Y33873D01*
X379188Y33890D01*
X379151Y33903D01*
X379108Y33914D01*
X379060Y33918D01*
X379058D01*
X379053D01*
X379047D01*
X379038Y33916D01*
X379014Y33914D01*
X378986Y33908D01*
X378951Y33899D01*
X378916Y33884D01*
X378881Y33862D01*
X378848Y33834D01*
X378844Y33829D01*
X378835Y33818D01*
X378822Y33801D01*
X378807Y33777D01*
X378791Y33746D01*
X378778Y33709D01*
X378770Y33668D01*
X378765Y33622D01*
Y33602D01*
X378767Y33587D01*
X378770Y33568D01*
X378774Y33546D01*
X378778Y33520D01*
X378785Y33491D01*
X378622Y33513D01*
Y33524D01*
X378624Y33533D01*
Y33561D01*
X378619Y33585D01*
X378615Y33613D01*
X378608Y33646D01*
X378597Y33683D01*
X378582Y33718D01*
X378563Y33755D01*
Y33757D01*
X378560Y33759D01*
X378552Y33770D01*
X378536Y33786D01*
X378517Y33803D01*
X378488Y33820D01*
X378456Y33836D01*
X378419Y33847D01*
X378397Y33851D01*
X378373D01*
X378371D01*
X378369D01*
X378356D01*
X378338Y33847D01*
X378314Y33842D01*
X378288Y33834D01*
X378260Y33823D01*
X378231Y33805D01*
X378205Y33781D01*
X378203Y33779D01*
X378194Y33768D01*
X378183Y33753D01*
X378170Y33733D01*
X378159Y33707D01*
X378148Y33676D01*
X378140Y33642D01*
X378137Y33602D01*
Y33585D01*
X378142Y33565D01*
X378146Y33539D01*
X378155Y33511D01*
X378166Y33483D01*
X378183Y33452D01*
X378205Y33424D01*
X378207Y33421D01*
X378218Y33413D01*
X378233Y33400D01*
X378255Y33384D01*
X378284Y33369D01*
X378318Y33354D01*
X378360Y33341D01*
X378408Y33332D01*
X378375Y33147D01*
X378373D01*
X378366Y33149D01*
X378358Y33151D01*
X378345Y33153D01*
X378329Y33158D01*
X378312Y33164D01*
X378271Y33177D01*
X378222Y33199D01*
X378175Y33225D01*
X378129Y33258D01*
X378087Y33299D01*
X378085Y33302D01*
X378083Y33306D01*
X378079Y33312D01*
X378072Y33321D01*
X378063Y33332D01*
X378055Y33347D01*
X378046Y33363D01*
X378035Y33382D01*
X378018Y33426D01*
X378000Y33476D01*
X377989Y33535D01*
X377985Y33565D01*
Y33620D01*
X377987Y33644D01*
X377991Y33672D01*
X377998Y33707D01*
X378009Y33746D01*
X378022Y33786D01*
X378039Y33825D01*
Y33827D01*
X378042Y33829D01*
X378048Y33842D01*
X378061Y33862D01*
X378077Y33884D01*
X378098Y33910D01*
X378122Y33936D01*
X378151Y33962D01*
X378183Y33984D01*
X378188Y33986D01*
X378199Y33993D01*
X378218Y34001D01*
X378242Y34012D01*
X378271Y34023D01*
X378303Y34032D01*
X378340Y34038D01*
X378377Y34041D01*
X378382D01*
X378395D01*
X378412Y34038D01*
X378436Y34034D01*
X378465Y34027D01*
X378495Y34017D01*
X378525Y34003D01*
X378556Y33986D01*
X378560Y33984D01*
X378569Y33977D01*
X378584Y33964D01*
X378602Y33947D01*
X378622Y33925D01*
X378643Y33899D01*
X378663Y33868D01*
X378682Y33831D01*
Y33834D01*
X378685Y33838D01*
X378687Y33844D01*
X378689Y33853D01*
X378698Y33877D01*
X378711Y33908D01*
X378728Y33942D01*
X378750Y33977D01*
X378778Y34010D01*
X378811Y34041D01*
X378816Y34043D01*
X378829Y34051D01*
X378850Y34065D01*
X378879Y34078D01*
X378914Y34091D01*
X378955Y34104D01*
X379003Y34113D01*
X379055Y34115D01*
X379058D01*
X379064D01*
X379075D01*
X379088Y34113D01*
D02*
G37*
G36*
X378783Y32924D02*
X378800D01*
X378842Y32922D01*
X378890Y32916D01*
X378940Y32909D01*
X378992Y32898D01*
X379044Y32885D01*
X379047D01*
X379051Y32883D01*
X379058Y32881D01*
X379066Y32879D01*
X379090Y32870D01*
X379121Y32857D01*
X379156Y32844D01*
X379190Y32826D01*
X379227Y32805D01*
X379262Y32783D01*
X379267Y32781D01*
X379278Y32772D01*
X379293Y32759D01*
X379312Y32741D01*
X379334Y32722D01*
X379356Y32698D01*
X379380Y32674D01*
X379400Y32645D01*
X379402Y32641D01*
X379408Y32632D01*
X379417Y32617D01*
X379428Y32595D01*
X379441Y32569D01*
X379452Y32539D01*
X379465Y32504D01*
X379476Y32465D01*
Y32460D01*
X379478Y32454D01*
X379480Y32447D01*
X379483Y32425D01*
X379487Y32395D01*
X379491Y32360D01*
X379496Y32318D01*
X379498Y32273D01*
X379500Y32223D01*
Y31680D01*
X377991D01*
Y32260D01*
X377994Y32299D01*
X377996Y32342D01*
X378000Y32386D01*
X378007Y32430D01*
X378013Y32467D01*
Y32469D01*
X378015Y32473D01*
Y32480D01*
X378020Y32488D01*
X378026Y32512D01*
X378037Y32543D01*
X378052Y32578D01*
X378072Y32615D01*
X378094Y32652D01*
X378122Y32687D01*
X378124Y32689D01*
X378127Y32691D01*
X378133Y32698D01*
X378140Y32706D01*
X378162Y32728D01*
X378192Y32754D01*
X378229Y32783D01*
X378273Y32813D01*
X378323Y32842D01*
X378380Y32866D01*
X378382D01*
X378386Y32868D01*
X378395Y32872D01*
X378408Y32874D01*
X378423Y32881D01*
X378440Y32885D01*
X378460Y32890D01*
X378484Y32896D01*
X378508Y32903D01*
X378536Y32907D01*
X378597Y32918D01*
X378665Y32924D01*
X378739Y32927D01*
X378741D01*
X378746D01*
X378757D01*
X378767D01*
X378783Y32924D01*
D02*
G37*
G36*
X378170Y30601D02*
X378637D01*
Y31309D01*
X378816D01*
Y30601D01*
X379500D01*
Y30400D01*
X377991D01*
Y31420D01*
X378170D01*
Y30601D01*
D02*
G37*
G36*
X15400Y31099D02*
X15398D01*
X15389D01*
X15376D01*
X15359Y31101D01*
X15339Y31103D01*
X15317Y31108D01*
X15295Y31112D01*
X15271Y31121D01*
X15269D01*
X15267Y31123D01*
X15254Y31127D01*
X15234Y31136D01*
X15208Y31149D01*
X15178Y31166D01*
X15143Y31188D01*
X15108Y31212D01*
X15071Y31243D01*
X15069D01*
X15067Y31247D01*
X15053Y31258D01*
X15034Y31278D01*
X15005Y31306D01*
X14973Y31339D01*
X14933Y31380D01*
X14890Y31430D01*
X14844Y31485D01*
X14842Y31487D01*
X14835Y31496D01*
X14825Y31509D01*
X14811Y31524D01*
X14794Y31544D01*
X14774Y31567D01*
X14752Y31591D01*
X14729Y31620D01*
X14676Y31674D01*
X14624Y31729D01*
X14598Y31755D01*
X14572Y31779D01*
X14548Y31801D01*
X14524Y31818D01*
X14522D01*
X14519Y31823D01*
X14513Y31827D01*
X14504Y31831D01*
X14480Y31847D01*
X14452Y31864D01*
X14417Y31879D01*
X14380Y31894D01*
X14338Y31903D01*
X14299Y31908D01*
X14297D01*
X14295D01*
X14282Y31905D01*
X14260Y31903D01*
X14236Y31897D01*
X14205Y31888D01*
X14175Y31873D01*
X14144Y31853D01*
X14114Y31827D01*
X14109Y31823D01*
X14101Y31812D01*
X14090Y31796D01*
X14075Y31773D01*
X14062Y31742D01*
X14048Y31707D01*
X14040Y31666D01*
X14038Y31620D01*
Y31607D01*
X14040Y31598D01*
X14042Y31572D01*
X14048Y31541D01*
X14057Y31509D01*
X14072Y31472D01*
X14092Y31437D01*
X14118Y31404D01*
X14122Y31400D01*
X14133Y31391D01*
X14151Y31378D01*
X14177Y31365D01*
X14208Y31350D01*
X14247Y31337D01*
X14290Y31328D01*
X14341Y31323D01*
X14321Y31134D01*
X14319D01*
X14312Y31136D01*
X14301D01*
X14286Y31138D01*
X14269Y31142D01*
X14249Y31147D01*
X14225Y31153D01*
X14201Y31160D01*
X14149Y31177D01*
X14096Y31203D01*
X14070Y31219D01*
X14044Y31238D01*
X14020Y31258D01*
X13998Y31280D01*
X13996Y31282D01*
X13994Y31286D01*
X13987Y31293D01*
X13981Y31304D01*
X13972Y31317D01*
X13963Y31332D01*
X13952Y31350D01*
X13942Y31371D01*
X13931Y31395D01*
X13920Y31422D01*
X13911Y31450D01*
X13902Y31480D01*
X13896Y31513D01*
X13889Y31548D01*
X13887Y31585D01*
X13885Y31624D01*
Y31646D01*
X13887Y31661D01*
X13889Y31679D01*
X13891Y31701D01*
X13896Y31725D01*
X13900Y31749D01*
X13915Y31805D01*
X13937Y31862D01*
X13950Y31890D01*
X13966Y31918D01*
X13985Y31945D01*
X14007Y31969D01*
X14009Y31971D01*
X14011Y31975D01*
X14020Y31980D01*
X14029Y31988D01*
X14040Y31999D01*
X14055Y32010D01*
X14070Y32021D01*
X14090Y32034D01*
X14131Y32056D01*
X14184Y32078D01*
X14210Y32086D01*
X14240Y32091D01*
X14271Y32095D01*
X14303Y32097D01*
X14308D01*
X14319D01*
X14336Y32095D01*
X14360Y32093D01*
X14386Y32089D01*
X14417Y32080D01*
X14449Y32071D01*
X14482Y32058D01*
X14487Y32056D01*
X14498Y32052D01*
X14515Y32043D01*
X14539Y32030D01*
X14565Y32012D01*
X14598Y31991D01*
X14630Y31964D01*
X14668Y31934D01*
X14672Y31929D01*
X14685Y31918D01*
X14696Y31908D01*
X14707Y31897D01*
X14720Y31884D01*
X14737Y31866D01*
X14755Y31849D01*
X14774Y31827D01*
X14796Y31805D01*
X14820Y31779D01*
X14844Y31751D01*
X14872Y31720D01*
X14901Y31685D01*
X14931Y31650D01*
X14933Y31648D01*
X14938Y31644D01*
X14944Y31635D01*
X14953Y31624D01*
X14966Y31611D01*
X14979Y31596D01*
X15008Y31561D01*
X15040Y31524D01*
X15073Y31489D01*
X15101Y31459D01*
X15112Y31446D01*
X15123Y31435D01*
X15125Y31432D01*
X15132Y31426D01*
X15141Y31417D01*
X15154Y31406D01*
X15169Y31395D01*
X15184Y31382D01*
X15221Y31356D01*
Y32100D01*
X15400D01*
Y31099D01*
D02*
G37*
G36*
X14683Y30924D02*
X14700D01*
X14742Y30922D01*
X14790Y30916D01*
X14840Y30909D01*
X14892Y30898D01*
X14944Y30885D01*
X14947D01*
X14951Y30883D01*
X14957Y30881D01*
X14966Y30879D01*
X14990Y30870D01*
X15021Y30857D01*
X15056Y30844D01*
X15090Y30826D01*
X15127Y30804D01*
X15162Y30783D01*
X15167Y30781D01*
X15178Y30772D01*
X15193Y30759D01*
X15213Y30741D01*
X15234Y30722D01*
X15256Y30698D01*
X15280Y30674D01*
X15300Y30645D01*
X15302Y30641D01*
X15308Y30632D01*
X15317Y30617D01*
X15328Y30595D01*
X15341Y30569D01*
X15352Y30539D01*
X15365Y30504D01*
X15376Y30465D01*
Y30460D01*
X15378Y30454D01*
X15380Y30447D01*
X15383Y30425D01*
X15387Y30395D01*
X15391Y30360D01*
X15396Y30318D01*
X15398Y30273D01*
X15400Y30222D01*
Y29680D01*
X13891D01*
Y30259D01*
X13894Y30299D01*
X13896Y30342D01*
X13900Y30386D01*
X13907Y30430D01*
X13913Y30467D01*
Y30469D01*
X13915Y30473D01*
Y30480D01*
X13920Y30488D01*
X13926Y30512D01*
X13937Y30543D01*
X13952Y30578D01*
X13972Y30615D01*
X13994Y30652D01*
X14022Y30687D01*
X14024Y30689D01*
X14027Y30691D01*
X14033Y30698D01*
X14040Y30706D01*
X14062Y30728D01*
X14092Y30754D01*
X14129Y30783D01*
X14173Y30813D01*
X14223Y30842D01*
X14279Y30866D01*
X14282D01*
X14286Y30868D01*
X14295Y30872D01*
X14308Y30874D01*
X14323Y30881D01*
X14341Y30885D01*
X14360Y30890D01*
X14384Y30896D01*
X14408Y30903D01*
X14436Y30907D01*
X14498Y30918D01*
X14565Y30924D01*
X14639Y30927D01*
X14641D01*
X14646D01*
X14657D01*
X14668D01*
X14683Y30924D01*
D02*
G37*
G36*
X14070Y28601D02*
X14537D01*
Y29309D01*
X14716D01*
Y28601D01*
X15400D01*
Y28400D01*
X13891D01*
Y29420D01*
X14070D01*
Y28601D01*
D02*
G37*
G36*
X16100Y358837D02*
X14921D01*
X14923Y358835D01*
X14931Y358824D01*
X14945Y358811D01*
X14960Y358789D01*
X14979Y358765D01*
X15001Y358735D01*
X15025Y358700D01*
X15049Y358661D01*
Y358659D01*
X15051Y358656D01*
X15060Y358643D01*
X15071Y358622D01*
X15084Y358595D01*
X15099Y358565D01*
X15115Y358532D01*
X15130Y358499D01*
X15143Y358467D01*
X14964D01*
Y358469D01*
X14960Y358473D01*
X14958Y358482D01*
X14951Y358493D01*
X14945Y358506D01*
X14936Y358521D01*
X14914Y358558D01*
X14890Y358602D01*
X14860Y358646D01*
X14825Y358691D01*
X14788Y358737D01*
X14785Y358739D01*
X14783Y358741D01*
X14777Y358748D01*
X14770Y358757D01*
X14748Y358776D01*
X14722Y358802D01*
X14692Y358829D01*
X14657Y358857D01*
X14622Y358881D01*
X14585Y358903D01*
Y359023D01*
X16100D01*
Y358837D01*
D02*
G37*
G36*
X15383Y358124D02*
X15400D01*
X15442Y358122D01*
X15490Y358116D01*
X15540Y358109D01*
X15592Y358098D01*
X15644Y358085D01*
X15647D01*
X15651Y358083D01*
X15657Y358081D01*
X15666Y358079D01*
X15690Y358070D01*
X15721Y358057D01*
X15756Y358044D01*
X15790Y358026D01*
X15827Y358004D01*
X15862Y357983D01*
X15867Y357981D01*
X15878Y357972D01*
X15893Y357959D01*
X15913Y357941D01*
X15934Y357922D01*
X15956Y357898D01*
X15980Y357874D01*
X16000Y357845D01*
X16002Y357841D01*
X16008Y357832D01*
X16017Y357817D01*
X16028Y357795D01*
X16041Y357769D01*
X16052Y357739D01*
X16065Y357704D01*
X16076Y357664D01*
Y357660D01*
X16078Y357654D01*
X16080Y357647D01*
X16083Y357625D01*
X16087Y357595D01*
X16091Y357560D01*
X16096Y357518D01*
X16098Y357473D01*
X16100Y357422D01*
Y356880D01*
X14591D01*
Y357459D01*
X14594Y357499D01*
X14596Y357542D01*
X14600Y357586D01*
X14607Y357630D01*
X14613Y357667D01*
Y357669D01*
X14615Y357673D01*
Y357680D01*
X14620Y357688D01*
X14626Y357712D01*
X14637Y357743D01*
X14652Y357778D01*
X14672Y357815D01*
X14694Y357852D01*
X14722Y357887D01*
X14724Y357889D01*
X14727Y357891D01*
X14733Y357898D01*
X14740Y357906D01*
X14762Y357928D01*
X14792Y357954D01*
X14829Y357983D01*
X14873Y358013D01*
X14923Y358042D01*
X14979Y358066D01*
X14982D01*
X14986Y358068D01*
X14995Y358072D01*
X15008Y358074D01*
X15023Y358081D01*
X15041Y358085D01*
X15060Y358090D01*
X15084Y358096D01*
X15108Y358103D01*
X15136Y358107D01*
X15198Y358118D01*
X15265Y358124D01*
X15339Y358127D01*
X15341D01*
X15346D01*
X15357D01*
X15368D01*
X15383Y358124D01*
D02*
G37*
G36*
X14770Y355801D02*
X15237D01*
Y356509D01*
X15416D01*
Y355801D01*
X16100D01*
Y355600D01*
X14591D01*
Y356620D01*
X14770D01*
Y355801D01*
D02*
G37*
%LPC*%
G36*
X378735Y32722D02*
X378733D01*
X378724D01*
X378713D01*
X378696Y32719D01*
X378676D01*
X378654Y32717D01*
X378628Y32715D01*
X378602Y32713D01*
X378543Y32702D01*
X378482Y32689D01*
X378425Y32669D01*
X378397Y32656D01*
X378373Y32643D01*
X378371D01*
X378366Y32639D01*
X378360Y32634D01*
X378351Y32630D01*
X378329Y32613D01*
X378303Y32591D01*
X378275Y32563D01*
X378246Y32530D01*
X378222Y32493D01*
X378203Y32454D01*
X378201Y32449D01*
X378199Y32438D01*
X378192Y32419D01*
X378186Y32390D01*
X378181Y32355D01*
X378175Y32312D01*
X378172Y32286D01*
Y32257D01*
X378170Y32229D01*
Y31880D01*
X379321D01*
Y32238D01*
X379319Y32253D01*
X379317Y32286D01*
X379315Y32323D01*
X379310Y32362D01*
X379304Y32401D01*
X379295Y32434D01*
X379293Y32438D01*
X379291Y32449D01*
X379284Y32465D01*
X379275Y32484D01*
X379262Y32506D01*
X379249Y32528D01*
X379234Y32550D01*
X379217Y32571D01*
X379212Y32574D01*
X379204Y32582D01*
X379188Y32595D01*
X379167Y32610D01*
X379138Y32628D01*
X379105Y32648D01*
X379068Y32665D01*
X379027Y32680D01*
X379025D01*
X379020Y32682D01*
X379014Y32685D01*
X379005Y32687D01*
X378994Y32689D01*
X378979Y32693D01*
X378964Y32698D01*
X378946Y32702D01*
X378903Y32709D01*
X378853Y32715D01*
X378796Y32719D01*
X378735Y32722D01*
D02*
G37*
G36*
X14635Y30722D02*
X14633D01*
X14624D01*
X14613D01*
X14596Y30720D01*
X14576D01*
X14554Y30717D01*
X14528Y30715D01*
X14502Y30713D01*
X14443Y30702D01*
X14382Y30689D01*
X14325Y30669D01*
X14297Y30656D01*
X14273Y30643D01*
X14271D01*
X14266Y30639D01*
X14260Y30634D01*
X14251Y30630D01*
X14229Y30613D01*
X14203Y30591D01*
X14175Y30563D01*
X14146Y30530D01*
X14122Y30493D01*
X14103Y30454D01*
X14101Y30449D01*
X14098Y30438D01*
X14092Y30419D01*
X14085Y30390D01*
X14081Y30356D01*
X14075Y30312D01*
X14072Y30286D01*
Y30257D01*
X14070Y30229D01*
Y29880D01*
X15221D01*
Y30238D01*
X15219Y30253D01*
X15217Y30286D01*
X15215Y30323D01*
X15210Y30362D01*
X15204Y30401D01*
X15195Y30434D01*
X15193Y30438D01*
X15191Y30449D01*
X15184Y30465D01*
X15176Y30484D01*
X15162Y30506D01*
X15149Y30528D01*
X15134Y30549D01*
X15117Y30571D01*
X15112Y30573D01*
X15103Y30582D01*
X15088Y30595D01*
X15067Y30610D01*
X15038Y30628D01*
X15005Y30648D01*
X14968Y30665D01*
X14927Y30680D01*
X14925D01*
X14920Y30683D01*
X14914Y30685D01*
X14905Y30687D01*
X14894Y30689D01*
X14879Y30693D01*
X14864Y30698D01*
X14846Y30702D01*
X14803Y30709D01*
X14752Y30715D01*
X14696Y30720D01*
X14635Y30722D01*
D02*
G37*
G36*
X15335Y357922D02*
X15333D01*
X15324D01*
X15313D01*
X15296Y357920D01*
X15276D01*
X15254Y357917D01*
X15228Y357915D01*
X15202Y357913D01*
X15143Y357902D01*
X15082Y357889D01*
X15025Y357869D01*
X14997Y357856D01*
X14973Y357843D01*
X14971D01*
X14966Y357839D01*
X14960Y357835D01*
X14951Y357830D01*
X14929Y357813D01*
X14903Y357791D01*
X14875Y357763D01*
X14846Y357730D01*
X14822Y357693D01*
X14803Y357654D01*
X14801Y357649D01*
X14798Y357638D01*
X14792Y357619D01*
X14785Y357590D01*
X14781Y357556D01*
X14775Y357512D01*
X14772Y357486D01*
Y357457D01*
X14770Y357429D01*
Y357080D01*
X15921D01*
Y357438D01*
X15919Y357453D01*
X15917Y357486D01*
X15915Y357523D01*
X15910Y357562D01*
X15904Y357601D01*
X15895Y357634D01*
X15893Y357638D01*
X15891Y357649D01*
X15884Y357664D01*
X15876Y357684D01*
X15862Y357706D01*
X15849Y357728D01*
X15834Y357750D01*
X15817Y357771D01*
X15812Y357773D01*
X15803Y357782D01*
X15788Y357795D01*
X15766Y357810D01*
X15738Y357828D01*
X15705Y357848D01*
X15668Y357865D01*
X15627Y357880D01*
X15625D01*
X15620Y357882D01*
X15614Y357885D01*
X15605Y357887D01*
X15594Y357889D01*
X15579Y357893D01*
X15564Y357898D01*
X15546Y357902D01*
X15503Y357909D01*
X15452Y357915D01*
X15396Y357920D01*
X15335Y357922D01*
D02*
G37*
%LPD*%
M02*
