G04*
G04 #@! TF.GenerationSoftware,Altium Limited,Altium Designer,20.0.13 (296)*
G04*
G04 Layer_Color=8388736*
%FSLAX25Y25*%
%MOIN*%
G70*
G01*
G75*
%ADD16O,0.06890X0.02362*%
%ADD17O,0.02362X0.06890*%
%ADD18O,0.07087X0.01772*%
%ADD19O,0.01772X0.07087*%
%ADD20R,0.01772X0.06496*%
%ADD21C,0.07874*%
%ADD22R,0.02362X0.01968*%
%ADD23R,0.03150X0.03347*%
%ADD24R,0.03425X0.03583*%
%ADD25R,0.03583X0.03425*%
G04:AMPARAMS|DCode=26|XSize=47.24mil|YSize=43.31mil|CornerRadius=0mil|HoleSize=0mil|Usage=FLASHONLY|Rotation=45.000|XOffset=0mil|YOffset=0mil|HoleType=Round|Shape=Rectangle|*
%AMROTATEDRECTD26*
4,1,4,-0.00139,-0.03202,-0.03202,-0.00139,0.00139,0.03202,0.03202,0.00139,-0.00139,-0.03202,0.0*
%
%ADD26ROTATEDRECTD26*%

%ADD27R,0.03425X0.03425*%
%ADD28R,0.01968X0.02362*%
%ADD29R,0.03347X0.03150*%
%ADD30C,0.06969*%
%ADD31C,0.10039*%
%ADD32C,0.06299*%
%ADD33R,0.05119X0.05119*%
%ADD34C,0.05119*%
%ADD35C,0.20276*%
%ADD36C,0.02362*%
D16*
X217292Y115157D02*
D03*
Y112598D02*
D03*
Y110039D02*
D03*
Y107480D02*
D03*
Y104920D02*
D03*
Y102361D02*
D03*
Y99802D02*
D03*
Y97243D02*
D03*
X241308Y115157D02*
D03*
Y112598D02*
D03*
Y110039D02*
D03*
Y107480D02*
D03*
Y104920D02*
D03*
Y102361D02*
D03*
Y99802D02*
D03*
Y97243D02*
D03*
X183808Y98243D02*
D03*
Y100802D02*
D03*
Y103361D02*
D03*
Y105921D02*
D03*
Y108479D02*
D03*
Y111039D02*
D03*
Y113598D02*
D03*
Y116157D02*
D03*
X159792Y98243D02*
D03*
Y100802D02*
D03*
Y103361D02*
D03*
Y105921D02*
D03*
Y108479D02*
D03*
Y111039D02*
D03*
Y113598D02*
D03*
Y116157D02*
D03*
D17*
X186743Y264792D02*
D03*
X189302D02*
D03*
X191861D02*
D03*
X194421D02*
D03*
X196979D02*
D03*
X199539D02*
D03*
X202098D02*
D03*
X204657D02*
D03*
X186743Y288808D02*
D03*
X189302D02*
D03*
X191861D02*
D03*
X194421D02*
D03*
X196979D02*
D03*
X199539D02*
D03*
X202098D02*
D03*
X204657D02*
D03*
D18*
X167193Y170378D02*
D03*
Y172346D02*
D03*
Y174315D02*
D03*
Y176284D02*
D03*
Y178252D02*
D03*
Y180220D02*
D03*
Y182189D02*
D03*
Y184158D02*
D03*
Y186126D02*
D03*
Y188094D02*
D03*
Y190063D02*
D03*
Y192032D02*
D03*
Y194000D02*
D03*
Y195968D02*
D03*
Y197937D02*
D03*
Y199906D02*
D03*
Y201874D02*
D03*
Y203842D02*
D03*
Y205811D02*
D03*
Y207780D02*
D03*
Y209748D02*
D03*
Y211717D02*
D03*
Y213685D02*
D03*
Y215653D02*
D03*
Y217622D02*
D03*
X228807D02*
D03*
Y215653D02*
D03*
Y213685D02*
D03*
Y211717D02*
D03*
Y209748D02*
D03*
Y207780D02*
D03*
Y205811D02*
D03*
Y203842D02*
D03*
Y201874D02*
D03*
Y199906D02*
D03*
Y197937D02*
D03*
Y195968D02*
D03*
Y194000D02*
D03*
Y192032D02*
D03*
Y190063D02*
D03*
Y188094D02*
D03*
Y186126D02*
D03*
Y184158D02*
D03*
Y182189D02*
D03*
Y180220D02*
D03*
Y178252D02*
D03*
Y176284D02*
D03*
Y174315D02*
D03*
Y172346D02*
D03*
Y170378D02*
D03*
D19*
X174378Y224807D02*
D03*
X176347D02*
D03*
X178315D02*
D03*
X180283D02*
D03*
X182252D02*
D03*
X184221D02*
D03*
X186189D02*
D03*
X188157D02*
D03*
X190126D02*
D03*
X192095D02*
D03*
X194063D02*
D03*
X196031D02*
D03*
X198000D02*
D03*
X199969D02*
D03*
X201937D02*
D03*
X203906D02*
D03*
X205874D02*
D03*
X207842D02*
D03*
X209811D02*
D03*
X211779D02*
D03*
X213748D02*
D03*
X215717D02*
D03*
X217685D02*
D03*
X219654D02*
D03*
X221622D02*
D03*
Y163193D02*
D03*
X219654D02*
D03*
X217685D02*
D03*
X215717D02*
D03*
X213748D02*
D03*
X211779D02*
D03*
X209811D02*
D03*
X207842D02*
D03*
X205874D02*
D03*
X203906D02*
D03*
X201937D02*
D03*
X199969D02*
D03*
X198000D02*
D03*
X196031D02*
D03*
X194063D02*
D03*
X192095D02*
D03*
X190126D02*
D03*
X188157D02*
D03*
X186189D02*
D03*
X184221D02*
D03*
X182252D02*
D03*
X180283D02*
D03*
X178315D02*
D03*
X176347D02*
D03*
X174378D02*
D03*
D20*
X148697Y356642D02*
D03*
Y342075D02*
D03*
X150665Y356642D02*
D03*
Y342075D02*
D03*
X152634Y356642D02*
D03*
Y342075D02*
D03*
X154602Y356642D02*
D03*
Y342075D02*
D03*
X156571Y356642D02*
D03*
Y342075D02*
D03*
X158539Y356642D02*
D03*
Y342075D02*
D03*
X160508Y356642D02*
D03*
Y342075D02*
D03*
X162476Y356642D02*
D03*
Y342075D02*
D03*
X164445Y356642D02*
D03*
Y342075D02*
D03*
X166413Y356642D02*
D03*
Y342075D02*
D03*
X168382Y356642D02*
D03*
Y342075D02*
D03*
X170350Y356642D02*
D03*
Y342075D02*
D03*
X172319Y356642D02*
D03*
Y342075D02*
D03*
X174287Y356642D02*
D03*
Y342075D02*
D03*
X176256Y356642D02*
D03*
Y342075D02*
D03*
X178224Y356642D02*
D03*
Y342075D02*
D03*
X180193Y356642D02*
D03*
Y342075D02*
D03*
X182161Y356642D02*
D03*
Y342075D02*
D03*
X184130Y356642D02*
D03*
Y342075D02*
D03*
X186098Y356642D02*
D03*
Y342075D02*
D03*
X188067Y356642D02*
D03*
Y342075D02*
D03*
X190035Y356642D02*
D03*
Y342075D02*
D03*
X192004Y356642D02*
D03*
Y342075D02*
D03*
X193972Y356642D02*
D03*
Y342075D02*
D03*
X195941Y356642D02*
D03*
Y342075D02*
D03*
X197909Y356642D02*
D03*
Y342075D02*
D03*
X199878Y356642D02*
D03*
Y342075D02*
D03*
X201847Y356642D02*
D03*
Y342075D02*
D03*
X203815Y356642D02*
D03*
Y342075D02*
D03*
X205784Y356642D02*
D03*
Y342075D02*
D03*
X207752Y356642D02*
D03*
Y342075D02*
D03*
X209720Y356642D02*
D03*
Y342075D02*
D03*
X211689Y356642D02*
D03*
Y342075D02*
D03*
X213657Y356642D02*
D03*
Y342075D02*
D03*
X215626Y356642D02*
D03*
Y342075D02*
D03*
X217595Y356642D02*
D03*
Y342075D02*
D03*
X219563Y356642D02*
D03*
Y342075D02*
D03*
X221532Y356642D02*
D03*
Y342075D02*
D03*
X223500Y356642D02*
D03*
Y342075D02*
D03*
X225468Y356642D02*
D03*
Y342075D02*
D03*
X227437Y356642D02*
D03*
Y342075D02*
D03*
X229405Y356642D02*
D03*
Y342075D02*
D03*
X231374Y356642D02*
D03*
Y342075D02*
D03*
X233343Y356642D02*
D03*
Y342075D02*
D03*
X235311Y356642D02*
D03*
Y342075D02*
D03*
X237280Y356642D02*
D03*
Y342075D02*
D03*
X239248Y356642D02*
D03*
Y342075D02*
D03*
X241216Y356642D02*
D03*
Y342075D02*
D03*
X243185Y356642D02*
D03*
Y342075D02*
D03*
X245153Y356642D02*
D03*
Y342075D02*
D03*
X148697Y31051D02*
D03*
Y16484D02*
D03*
X150665Y31051D02*
D03*
Y16484D02*
D03*
X152634Y31051D02*
D03*
Y16484D02*
D03*
X154602Y31051D02*
D03*
Y16484D02*
D03*
X156571Y31051D02*
D03*
Y16484D02*
D03*
X158539Y31051D02*
D03*
Y16484D02*
D03*
X160508Y31051D02*
D03*
Y16484D02*
D03*
X162476Y31051D02*
D03*
Y16484D02*
D03*
X164445Y31051D02*
D03*
Y16484D02*
D03*
X166413Y31051D02*
D03*
Y16484D02*
D03*
X168382Y31051D02*
D03*
Y16484D02*
D03*
X170350Y31051D02*
D03*
Y16484D02*
D03*
X172319Y31051D02*
D03*
Y16484D02*
D03*
X174287Y31051D02*
D03*
Y16484D02*
D03*
X176256Y31051D02*
D03*
Y16484D02*
D03*
X178224Y31051D02*
D03*
Y16484D02*
D03*
X180193Y31051D02*
D03*
Y16484D02*
D03*
X182161Y31051D02*
D03*
Y16484D02*
D03*
X184130Y31051D02*
D03*
Y16484D02*
D03*
X186098Y31051D02*
D03*
Y16484D02*
D03*
X188067Y31051D02*
D03*
Y16484D02*
D03*
X190035Y31051D02*
D03*
Y16484D02*
D03*
X192004Y31051D02*
D03*
Y16484D02*
D03*
X193972Y31051D02*
D03*
Y16484D02*
D03*
X195941Y31051D02*
D03*
Y16484D02*
D03*
X197909Y31051D02*
D03*
Y16484D02*
D03*
X199878Y31051D02*
D03*
Y16484D02*
D03*
X201847Y31051D02*
D03*
Y16484D02*
D03*
X203815Y31051D02*
D03*
Y16484D02*
D03*
X205784Y31051D02*
D03*
Y16484D02*
D03*
X207752Y31051D02*
D03*
Y16484D02*
D03*
X209720Y31051D02*
D03*
Y16484D02*
D03*
X211689Y31051D02*
D03*
Y16484D02*
D03*
X213657Y31051D02*
D03*
Y16484D02*
D03*
X215626Y31051D02*
D03*
Y16484D02*
D03*
X217595Y31051D02*
D03*
Y16484D02*
D03*
X219563Y31051D02*
D03*
Y16484D02*
D03*
X221532Y31051D02*
D03*
Y16484D02*
D03*
X223500Y31051D02*
D03*
Y16484D02*
D03*
X225468Y31051D02*
D03*
Y16484D02*
D03*
X227437Y31051D02*
D03*
Y16484D02*
D03*
X229405Y31051D02*
D03*
Y16484D02*
D03*
X231374Y31051D02*
D03*
Y16484D02*
D03*
X233343Y31051D02*
D03*
Y16484D02*
D03*
X235311Y31051D02*
D03*
Y16484D02*
D03*
X237280Y31051D02*
D03*
Y16484D02*
D03*
X239248Y31051D02*
D03*
Y16484D02*
D03*
X241216Y31051D02*
D03*
Y16484D02*
D03*
X243185Y31051D02*
D03*
Y16484D02*
D03*
X245153Y31051D02*
D03*
Y16484D02*
D03*
D21*
X379000Y35400D02*
D03*
X14900Y33400D02*
D03*
X15600Y360600D02*
D03*
D22*
X366900Y262043D02*
D03*
Y258500D02*
D03*
X366800Y139343D02*
D03*
Y135800D02*
D03*
X366900Y44300D02*
D03*
Y40757D02*
D03*
X36300Y241300D02*
D03*
Y237757D02*
D03*
X35900Y147600D02*
D03*
Y144057D02*
D03*
X36700Y24400D02*
D03*
Y20857D02*
D03*
X366100Y290800D02*
D03*
Y287257D02*
D03*
X366600Y171043D02*
D03*
Y167500D02*
D03*
X365900Y75782D02*
D03*
Y72238D02*
D03*
X36200Y272000D02*
D03*
Y268457D02*
D03*
X35200Y177600D02*
D03*
Y174057D02*
D03*
X37300Y50943D02*
D03*
Y47400D02*
D03*
X365000Y318743D02*
D03*
Y315200D02*
D03*
X367100Y201943D02*
D03*
Y198400D02*
D03*
X366400Y108643D02*
D03*
Y105100D02*
D03*
X35300Y296843D02*
D03*
Y293300D02*
D03*
X36100Y208700D02*
D03*
Y205157D02*
D03*
X36700Y92070D02*
D03*
Y88527D02*
D03*
X366800Y232582D02*
D03*
Y229038D02*
D03*
X34200Y337352D02*
D03*
Y333808D02*
D03*
X37000Y115482D02*
D03*
Y111938D02*
D03*
D23*
X361400Y258430D02*
D03*
Y262170D02*
D03*
X362100Y135760D02*
D03*
Y139500D02*
D03*
Y40700D02*
D03*
Y44440D02*
D03*
X42200Y237760D02*
D03*
Y241500D02*
D03*
X41900Y144060D02*
D03*
Y147800D02*
D03*
X42500Y20700D02*
D03*
Y24440D02*
D03*
X360500Y287330D02*
D03*
Y291070D02*
D03*
X362000Y167460D02*
D03*
Y171200D02*
D03*
X361100Y72300D02*
D03*
Y76040D02*
D03*
X42100Y268400D02*
D03*
Y272140D02*
D03*
X41100Y174030D02*
D03*
Y177770D02*
D03*
X42500Y47300D02*
D03*
Y51040D02*
D03*
X359500Y315130D02*
D03*
Y318870D02*
D03*
X361500Y198260D02*
D03*
Y202000D02*
D03*
X361600Y105000D02*
D03*
Y108740D02*
D03*
X41200Y293100D02*
D03*
Y296840D02*
D03*
X42000Y205130D02*
D03*
Y208870D02*
D03*
X42600Y88500D02*
D03*
Y92240D02*
D03*
X361300Y229030D02*
D03*
Y232770D02*
D03*
X40100Y333900D02*
D03*
Y337640D02*
D03*
X42800Y111800D02*
D03*
Y115540D02*
D03*
X238700Y175370D02*
D03*
Y171630D02*
D03*
D24*
X202000Y235358D02*
D03*
Y231500D02*
D03*
X192000Y152642D02*
D03*
Y156500D02*
D03*
X234700Y175800D02*
D03*
Y179658D02*
D03*
X208900Y283742D02*
D03*
Y287600D02*
D03*
D25*
X157100Y209800D02*
D03*
X160958D02*
D03*
X157171Y170400D02*
D03*
X161029D02*
D03*
X157342Y174400D02*
D03*
X161200D02*
D03*
X163700Y120900D02*
D03*
X159842D02*
D03*
X237400Y92800D02*
D03*
X241258D02*
D03*
D26*
X236903Y185997D02*
D03*
X241635Y190730D02*
D03*
X240800Y182100D02*
D03*
X245533Y186833D02*
D03*
D27*
X249916Y194700D02*
D03*
X245900D02*
D03*
X250616Y177700D02*
D03*
X246600D02*
D03*
D28*
X139143Y383800D02*
D03*
X135600D02*
D03*
X191982D02*
D03*
X188438D02*
D03*
X240100Y383900D02*
D03*
X236557D02*
D03*
D29*
X147600D02*
D03*
X143860D02*
D03*
X200700Y383800D02*
D03*
X196960D02*
D03*
X249040Y383900D02*
D03*
X245300D02*
D03*
D30*
X38658Y350366D02*
D03*
X48658D02*
D03*
X58657D02*
D03*
X68657D02*
D03*
X78658D02*
D03*
X88657D02*
D03*
X334992Y340169D02*
D03*
Y350169D02*
D03*
X344992Y340169D02*
D03*
Y350169D02*
D03*
X354992Y340169D02*
D03*
Y350169D02*
D03*
D31*
X23800Y70000D02*
D03*
X13800Y80000D02*
D03*
X33800D02*
D03*
Y60000D02*
D03*
X13800D02*
D03*
X23800Y314500D02*
D03*
X13800Y324500D02*
D03*
X33800D02*
D03*
Y304500D02*
D03*
X13800D02*
D03*
D32*
X250075Y352705D02*
D03*
X143776D02*
D03*
X250075Y27114D02*
D03*
X143776D02*
D03*
X250075Y20421D02*
D03*
X143776D02*
D03*
D33*
X341200Y318200D02*
D03*
Y289400D02*
D03*
Y261400D02*
D03*
X341500Y230900D02*
D03*
X341900Y200800D02*
D03*
X342800Y169700D02*
D03*
X342700Y139000D02*
D03*
Y107900D02*
D03*
X342800Y75400D02*
D03*
X342500Y42600D02*
D03*
X60100Y328300D02*
D03*
X60800Y299300D02*
D03*
X61000Y269700D02*
D03*
X61200Y239000D02*
D03*
X61100Y207800D02*
D03*
X60300Y176500D02*
D03*
X60600Y145500D02*
D03*
X60700Y114400D02*
D03*
X60900Y83600D02*
D03*
X61300Y54100D02*
D03*
X61100Y23800D02*
D03*
D34*
X331200Y318200D02*
D03*
X321200D02*
D03*
X301200D02*
D03*
X291200D02*
D03*
X281200D02*
D03*
X331200Y289400D02*
D03*
X321200D02*
D03*
X301200D02*
D03*
X291200D02*
D03*
X281200D02*
D03*
X331200Y261400D02*
D03*
X321200D02*
D03*
X301200D02*
D03*
X291200D02*
D03*
X281200D02*
D03*
X331500Y230900D02*
D03*
X321500D02*
D03*
X301500D02*
D03*
X291500D02*
D03*
X281500D02*
D03*
X331900Y200800D02*
D03*
X321900D02*
D03*
X301900D02*
D03*
X291900D02*
D03*
X281900D02*
D03*
X332800Y169700D02*
D03*
X322800D02*
D03*
X302800D02*
D03*
X292800D02*
D03*
X282800D02*
D03*
X332700Y139000D02*
D03*
X322700D02*
D03*
X302700D02*
D03*
X292700D02*
D03*
X282700D02*
D03*
X332700Y107900D02*
D03*
X322700D02*
D03*
X302700D02*
D03*
X292700D02*
D03*
X282700D02*
D03*
X332800Y75400D02*
D03*
X322800D02*
D03*
X302800D02*
D03*
X292800D02*
D03*
X282800D02*
D03*
X332500Y42600D02*
D03*
X322500D02*
D03*
X302500D02*
D03*
X292500D02*
D03*
X282500D02*
D03*
X70100Y328300D02*
D03*
X80100D02*
D03*
X100100D02*
D03*
X110100D02*
D03*
X120100D02*
D03*
X70800Y299300D02*
D03*
X80800D02*
D03*
X100800D02*
D03*
X110800D02*
D03*
X120800D02*
D03*
X71000Y269700D02*
D03*
X81000D02*
D03*
X101000D02*
D03*
X111000D02*
D03*
X121000D02*
D03*
X71200Y239000D02*
D03*
X81200D02*
D03*
X101200D02*
D03*
X111200D02*
D03*
X121200D02*
D03*
X71100Y207800D02*
D03*
X81100D02*
D03*
X101100D02*
D03*
X111100D02*
D03*
X121100D02*
D03*
X70300Y176500D02*
D03*
X80300D02*
D03*
X100300D02*
D03*
X110300D02*
D03*
X120300D02*
D03*
X70600Y145500D02*
D03*
X80600D02*
D03*
X100600D02*
D03*
X110600D02*
D03*
X120600D02*
D03*
X70700Y114400D02*
D03*
X80700D02*
D03*
X100700D02*
D03*
X110700D02*
D03*
X120700D02*
D03*
X70900Y83600D02*
D03*
X80900D02*
D03*
X100900D02*
D03*
X110900D02*
D03*
X120900D02*
D03*
X71300Y54100D02*
D03*
X81300D02*
D03*
X101300D02*
D03*
X111300D02*
D03*
X121300D02*
D03*
X71100Y23800D02*
D03*
X81100D02*
D03*
X101100D02*
D03*
X111100D02*
D03*
X121100D02*
D03*
D35*
X379012Y16091D02*
D03*
X14839Y14122D02*
D03*
X378618Y379083D02*
D03*
X15626D02*
D03*
D36*
X231900Y385200D02*
D03*
X253300Y385300D02*
D03*
X198300Y231500D02*
D03*
X245800Y92800D02*
D03*
X207579Y291179D02*
D03*
X205300Y295700D02*
D03*
X195400Y156600D02*
D03*
X238700Y168100D02*
D03*
X131500Y383800D02*
D03*
X152700Y384100D02*
D03*
X183900Y383800D02*
D03*
X205300Y383500D02*
D03*
X239400Y363500D02*
D03*
X182252Y364148D02*
D03*
X173900Y207780D02*
D03*
X162500Y363400D02*
D03*
X160500Y366700D02*
D03*
X158400Y363500D02*
D03*
X156300Y366500D02*
D03*
X155900Y314600D02*
D03*
X154451Y363449D02*
D03*
X152600Y366300D02*
D03*
X150600Y363300D02*
D03*
X148600Y366200D02*
D03*
X125200Y315100D02*
D03*
X125500Y253100D02*
D03*
X134200Y234200D02*
D03*
X136700Y247400D02*
D03*
X139800Y252900D02*
D03*
X141300Y256700D02*
D03*
X140800Y261900D02*
D03*
X141900Y267100D02*
D03*
X178300Y364300D02*
D03*
X180200Y366500D02*
D03*
X184000Y366600D02*
D03*
X148600Y314500D02*
D03*
X150600Y317000D02*
D03*
X152600Y314400D02*
D03*
X154500Y317100D02*
D03*
X159900Y314700D02*
D03*
X162100Y317100D02*
D03*
X158200Y317500D02*
D03*
X174000Y363000D02*
D03*
X170500Y363100D02*
D03*
X172000Y365900D02*
D03*
X168900D02*
D03*
X166700Y363500D02*
D03*
X165000Y365700D02*
D03*
X172600Y317600D02*
D03*
X168300Y314800D02*
D03*
X166700Y317700D02*
D03*
X164800Y314500D02*
D03*
X181000Y215900D02*
D03*
X194000Y213100D02*
D03*
X191300Y215800D02*
D03*
X188700Y213300D02*
D03*
X186200Y215800D02*
D03*
X183400Y213100D02*
D03*
X178900D02*
D03*
X158400Y213600D02*
D03*
X174400Y320700D02*
D03*
X176100Y317400D02*
D03*
X178100Y320600D02*
D03*
X180283Y317384D02*
D03*
X182252Y320648D02*
D03*
X184100Y317500D02*
D03*
X207900Y250500D02*
D03*
X208800Y295700D02*
D03*
X208200Y245100D02*
D03*
X219800Y205600D02*
D03*
X223000Y203900D02*
D03*
X246500Y361600D02*
D03*
X258534Y330800D02*
D03*
X260000Y327900D02*
D03*
X263000Y328200D02*
D03*
X268623Y331500D02*
D03*
X269166Y334500D02*
D03*
X252400Y332300D02*
D03*
X242800Y363300D02*
D03*
X238700Y366700D02*
D03*
X262000Y296500D02*
D03*
X266500Y328700D02*
D03*
X221905Y188094D02*
D03*
X223711Y182189D02*
D03*
X159000Y177700D02*
D03*
X161029Y166929D02*
D03*
X305800Y332800D02*
D03*
X310100Y303600D02*
D03*
X267000Y179300D02*
D03*
X235200Y363500D02*
D03*
X262800Y292900D02*
D03*
X223483Y176284D02*
D03*
X233500Y182900D02*
D03*
X233600Y366000D02*
D03*
X255900Y324850D02*
D03*
X265800Y292800D02*
D03*
X221415Y174315D02*
D03*
X231600Y363500D02*
D03*
X229600Y366000D02*
D03*
X268700Y293000D02*
D03*
X223346Y172346D02*
D03*
X227500Y363200D02*
D03*
X264800Y322500D02*
D03*
X261700Y319200D02*
D03*
X260000Y315500D02*
D03*
X242170Y175370D02*
D03*
X221748Y178252D02*
D03*
X234700Y172158D02*
D03*
X253700Y194700D02*
D03*
X250600Y181000D02*
D03*
X248915Y190215D02*
D03*
X365000Y311300D02*
D03*
X359600Y311200D02*
D03*
X360600Y281800D02*
D03*
X366200Y281700D02*
D03*
X361400Y254600D02*
D03*
X366900Y254400D02*
D03*
X361300Y223400D02*
D03*
X366900Y223500D02*
D03*
X361500Y193300D02*
D03*
X367200Y193400D02*
D03*
X362100Y162100D02*
D03*
X366800D02*
D03*
X362100Y131500D02*
D03*
X366800Y131700D02*
D03*
X42100Y262700D02*
D03*
X36100Y262600D02*
D03*
X42200Y232400D02*
D03*
X36200D02*
D03*
X42000Y200600D02*
D03*
X35800D02*
D03*
X41100Y170000D02*
D03*
X35300Y169900D02*
D03*
X41900Y140300D02*
D03*
X35900Y140100D02*
D03*
X42800Y107800D02*
D03*
X37000Y107600D02*
D03*
X42600Y84500D02*
D03*
X33200Y88600D02*
D03*
X35300Y289600D02*
D03*
X41200Y289300D02*
D03*
X40200Y330100D02*
D03*
X29000Y333700D02*
D03*
X83900Y312100D02*
D03*
X83600Y315600D02*
D03*
X176200Y154800D02*
D03*
X86500Y162600D02*
D03*
X156510Y8853D02*
D03*
X178300Y152100D02*
D03*
X88600Y159600D02*
D03*
X92400Y99800D02*
D03*
X96900Y10200D02*
D03*
X42500Y42900D02*
D03*
X37300Y43200D02*
D03*
X152000Y9600D02*
D03*
X149300Y9700D02*
D03*
X37100Y17600D02*
D03*
X42400Y17200D02*
D03*
X105000Y192300D02*
D03*
X89600Y314300D02*
D03*
X102100Y97600D02*
D03*
X115900Y191700D02*
D03*
X107300Y129400D02*
D03*
X100800Y37600D02*
D03*
X361200Y67700D02*
D03*
X361600Y100200D02*
D03*
X366400D02*
D03*
X365900Y68000D02*
D03*
X360800Y48300D02*
D03*
X367000Y37900D02*
D03*
X261700Y31600D02*
D03*
X243963Y39863D02*
D03*
X247000Y39400D02*
D03*
X225700Y119600D02*
D03*
X223600Y125600D02*
D03*
X217100Y94000D02*
D03*
X211779Y153420D02*
D03*
X238100Y45500D02*
D03*
X233800Y92800D02*
D03*
X232500Y37300D02*
D03*
X229405Y38405D02*
D03*
X209700Y157000D02*
D03*
X241216Y37784D02*
D03*
X153500Y209800D02*
D03*
X153900Y170600D02*
D03*
X153700Y174400D02*
D03*
X194063Y169563D02*
D03*
X192000Y148800D02*
D03*
X202000Y239200D02*
D03*
X199969Y219468D02*
D03*
X207792Y264792D02*
D03*
X208900Y280100D02*
D03*
X202000Y294500D02*
D03*
X199600Y297700D02*
D03*
X197100Y294700D02*
D03*
X297500Y305300D02*
D03*
X301300Y303900D02*
D03*
X252800Y115000D02*
D03*
X289500Y122600D02*
D03*
X248600Y112600D02*
D03*
X311500Y124200D02*
D03*
X252800Y110100D02*
D03*
X306400Y122800D02*
D03*
X248700Y107600D02*
D03*
X300200Y121100D02*
D03*
X252900Y104800D02*
D03*
X300600Y94000D02*
D03*
X248600Y102200D02*
D03*
X299900Y90400D02*
D03*
X252700Y99700D02*
D03*
X294100Y88800D02*
D03*
X194500Y297500D02*
D03*
X109800Y314200D02*
D03*
X191800Y294900D02*
D03*
X104100Y313000D02*
D03*
X189300Y297600D02*
D03*
X98900Y314200D02*
D03*
X186808Y294707D02*
D03*
X94000Y313100D02*
D03*
X172300Y173700D02*
D03*
X183808Y119592D02*
D03*
X163600Y124300D02*
D03*
X159800Y124500D02*
D03*
X154100Y113700D02*
D03*
X91900Y130100D02*
D03*
X152200Y110900D02*
D03*
X97400Y131400D02*
D03*
X154200Y108900D02*
D03*
X152400Y106300D02*
D03*
X154200Y103500D02*
D03*
X152523Y100877D02*
D03*
X95600Y102386D02*
D03*
X154043Y97972D02*
D03*
X116600Y97700D02*
D03*
X149500Y39400D02*
D03*
X178000Y44500D02*
D03*
X190800D02*
D03*
X186600D02*
D03*
X182000D02*
D03*
X173700Y44600D02*
D03*
X198300Y25400D02*
D03*
X187200Y25500D02*
D03*
X176500Y25200D02*
D03*
X166300Y25300D02*
D03*
X156000Y25600D02*
D03*
X188067Y37033D02*
D03*
X186098Y38598D02*
D03*
X184130Y36730D02*
D03*
X180193Y36793D02*
D03*
X176256Y36944D02*
D03*
X172319Y37181D02*
D03*
X168382Y37282D02*
D03*
X164445Y37355D02*
D03*
X213600Y38300D02*
D03*
X154602Y10302D02*
D03*
X150700Y11600D02*
D03*
X149500Y24100D02*
D03*
X151800Y24000D02*
D03*
X151700Y26200D02*
D03*
X149400Y26300D02*
D03*
Y37000D02*
D03*
X151800D02*
D03*
Y39300D02*
D03*
X238200Y25000D02*
D03*
X235300Y25100D02*
D03*
X232300Y25000D02*
D03*
X238100Y37300D02*
D03*
X235400D02*
D03*
X217700Y23900D02*
D03*
X218800Y26000D02*
D03*
X216500D02*
D03*
X217600Y36500D02*
D03*
X218700Y38500D02*
D03*
X216400D02*
D03*
X227437Y36763D02*
D03*
X225468Y38568D02*
D03*
X223500Y36700D02*
D03*
X221500Y38500D02*
D03*
X211689Y36811D02*
D03*
X204700Y23800D02*
D03*
X205800Y26000D02*
D03*
X207100Y23800D02*
D03*
X205800Y36500D02*
D03*
X206900Y38400D02*
D03*
X204600Y38500D02*
D03*
X209720Y38379D02*
D03*
X201847Y38554D02*
D03*
X199878Y37122D02*
D03*
X197909Y38691D02*
D03*
X195941Y37059D02*
D03*
X193972Y38672D02*
D03*
X178224Y38976D02*
D03*
X192004Y36896D02*
D03*
X190000Y38697D02*
D03*
X182161Y38839D02*
D03*
X174287Y39187D02*
D03*
X154600Y39800D02*
D03*
X170350Y39250D02*
D03*
X166413Y39387D02*
D03*
X162476Y39676D02*
D03*
X160508Y37292D02*
D03*
X158539Y39761D02*
D03*
X156571Y37271D02*
D03*
M02*
