G04*
G04 #@! TF.GenerationSoftware,Altium Limited,Altium Designer,20.0.13 (296)*
G04*
G04 Layer_Physical_Order=3*
G04 Layer_Color=36540*
%FSLAX25Y25*%
%MOIN*%
G70*
G01*
G75*
%ADD16C,0.01000*%
%ADD66C,0.00400*%
%ADD68C,0.06378*%
%ADD69C,0.04528*%
%ADD74C,0.01772*%
%ADD83C,0.04183*%
G36*
X377427Y363593D02*
X377851Y363445D01*
Y362769D01*
X376541Y361459D01*
X376351Y361000D01*
Y346977D01*
X375851Y346928D01*
X375805Y347155D01*
X375499Y347613D01*
X375149Y347847D01*
Y358700D01*
X374959Y359159D01*
X373543Y360576D01*
X373622Y361204D01*
X374459Y362041D01*
X374649Y362500D01*
Y363340D01*
X374855Y363478D01*
X375137Y363554D01*
X375547Y363493D01*
X375823Y363309D01*
X376364Y363201D01*
X376904Y363309D01*
X377351Y363607D01*
X377427Y363593D01*
D02*
G37*
G36*
X333669Y363412D02*
X333587Y363000D01*
X333695Y362459D01*
X334001Y362001D01*
X334459Y361695D01*
X335000Y361587D01*
X335541Y361695D01*
X335999Y362001D01*
X336054Y362082D01*
X338620D01*
X339738Y360964D01*
Y356581D01*
X339238Y356532D01*
X339220Y356627D01*
X338913Y357085D01*
X338455Y357391D01*
X337914Y357499D01*
X337373Y357391D01*
X336915Y357085D01*
X336609Y356627D01*
X336501Y356086D01*
X336609Y355545D01*
X336915Y355087D01*
X337373Y354780D01*
X337914Y354673D01*
X338455Y354780D01*
X338913Y355087D01*
X339220Y355545D01*
X339238Y355640D01*
X339738Y355591D01*
Y351747D01*
X339657Y351693D01*
X339351Y351234D01*
X339243Y350693D01*
X339351Y350153D01*
X339657Y349694D01*
X339910Y349525D01*
Y347449D01*
X339695Y347127D01*
X339587Y346586D01*
X339695Y346045D01*
X339716Y346013D01*
X338620Y344918D01*
X311830D01*
X311805Y345041D01*
X311499Y345499D01*
X311041Y345805D01*
X310500Y345913D01*
X309959Y345805D01*
X309501Y345499D01*
X309195Y345041D01*
X309087Y344500D01*
X309019Y344418D01*
X294318D01*
X294286Y344918D01*
X294937Y345003D01*
X295810Y345365D01*
X296560Y345940D01*
X297135Y346690D01*
X297497Y347563D01*
X297620Y348500D01*
X297497Y349437D01*
X297135Y350310D01*
X296560Y351060D01*
X295810Y351635D01*
X294937Y351997D01*
X294649Y352034D01*
Y359731D01*
X297969Y363051D01*
X322055D01*
X322206Y362551D01*
X322001Y362413D01*
X321695Y361955D01*
X321587Y361414D01*
X321695Y360874D01*
X322001Y360415D01*
X322459Y360109D01*
X323000Y360001D01*
X323541Y360109D01*
X323999Y360415D01*
X324305Y360874D01*
X324413Y361414D01*
X324305Y361955D01*
X323999Y362413D01*
X323794Y362551D01*
X323945Y363051D01*
X332331D01*
X332791Y363241D01*
X333237Y363687D01*
X333669Y363412D01*
D02*
G37*
G36*
X392845Y885D02*
X293563D01*
X293514Y1365D01*
X293973Y1555D01*
X296088Y3669D01*
X296500Y3587D01*
X297041Y3695D01*
X297499Y4001D01*
X297805Y4459D01*
X297913Y5000D01*
X297805Y5541D01*
X297732Y5651D01*
X297999Y6151D01*
X300800D01*
X301259Y6341D01*
X303087Y8169D01*
X303500Y8087D01*
X304041Y8195D01*
X304499Y8501D01*
X304805Y8959D01*
X304913Y9500D01*
X304805Y10041D01*
X304499Y10499D01*
X304041Y10805D01*
X303500Y10913D01*
X302959Y10805D01*
X302874Y10748D01*
X302555Y11137D01*
X303087Y11669D01*
X303500Y11587D01*
X304041Y11695D01*
X304499Y12001D01*
X304805Y12459D01*
X304913Y13000D01*
X304805Y13541D01*
X304499Y13999D01*
X304041Y14305D01*
X303500Y14413D01*
X302972Y14308D01*
X302931Y14336D01*
X302618Y14679D01*
X302805Y14959D01*
X302913Y15500D01*
X302805Y16041D01*
X302499Y16499D01*
X302041Y16805D01*
X301500Y16913D01*
X300959Y16805D01*
X300501Y16499D01*
X300195Y16041D01*
X300087Y15500D01*
X300195Y14959D01*
X300501Y14501D01*
X300851Y14267D01*
Y13363D01*
X300351Y13314D01*
X300305Y13541D01*
X299999Y13999D01*
X299541Y14305D01*
X299000Y14413D01*
X298459Y14305D01*
X298001Y13999D01*
X297778Y13665D01*
X297663Y13635D01*
X297337D01*
X297222Y13665D01*
X296999Y13999D01*
X296541Y14305D01*
X296000Y14413D01*
X295459Y14305D01*
X295001Y13999D01*
X294778Y13665D01*
X294663Y13635D01*
X294337D01*
X294222Y13665D01*
X293999Y13999D01*
X293541Y14305D01*
X293000Y14413D01*
X292459Y14305D01*
X292001Y13999D01*
X291695Y13541D01*
X291667Y13400D01*
X291136Y13295D01*
X290999Y13499D01*
X290541Y13805D01*
X290400Y13833D01*
X290295Y14364D01*
X290499Y14501D01*
X290805Y14959D01*
X290913Y15500D01*
X290805Y16041D01*
X290499Y16499D01*
X290041Y16805D01*
X289500Y16913D01*
X288959Y16805D01*
X288501Y16499D01*
X288267Y16149D01*
X274484D01*
X274293Y16611D01*
X274959Y17278D01*
X275149Y17737D01*
Y21100D01*
X279959Y25909D01*
X280149Y26369D01*
Y26780D01*
X280499Y27013D01*
X280805Y27472D01*
X280913Y28013D01*
X280805Y28553D01*
X280499Y29012D01*
X280041Y29318D01*
X279986Y29329D01*
X279755Y29885D01*
X279805Y29959D01*
X279913Y30500D01*
X279805Y31041D01*
X279499Y31499D01*
X279498Y31500D01*
Y32000D01*
X279499Y32001D01*
X279805Y32459D01*
X279913Y33000D01*
X279805Y33541D01*
X279499Y33999D01*
X279041Y34305D01*
X278757Y34362D01*
X278499Y34418D01*
X278393Y34902D01*
X278413Y35000D01*
X278305Y35541D01*
X278264Y35603D01*
X278531Y36103D01*
X289019D01*
X289253Y35753D01*
X289711Y35447D01*
X290252Y35339D01*
X290793Y35447D01*
X291251Y35753D01*
X291557Y36211D01*
X291665Y36752D01*
X291557Y37293D01*
X291251Y37751D01*
X290793Y38057D01*
X290252Y38165D01*
X289711Y38057D01*
X289253Y37751D01*
X289019Y37401D01*
X280034D01*
X279767Y37901D01*
X279805Y37959D01*
X279913Y38500D01*
X279805Y39041D01*
X279499Y39499D01*
X279041Y39805D01*
X278500Y39913D01*
X277959Y39805D01*
X277501Y39499D01*
X277267Y39149D01*
X275000D01*
X274541Y38959D01*
X273041Y37459D01*
X272851Y37000D01*
Y33320D01*
X272820Y33292D01*
X272351Y33098D01*
X272041Y33305D01*
X271500Y33413D01*
X270959Y33305D01*
X270501Y32999D01*
X270195Y32541D01*
X270087Y32000D01*
X270195Y31459D01*
X270501Y31001D01*
X270706Y30864D01*
X270600Y30333D01*
X270459Y30305D01*
X270001Y29999D01*
X269695Y29541D01*
X269587Y29000D01*
X269695Y28459D01*
X270001Y28001D01*
X270285Y27811D01*
X270090Y27340D01*
X270069Y27344D01*
X269528Y27237D01*
X269069Y26931D01*
X268763Y26472D01*
X268656Y25932D01*
X268763Y25391D01*
X269069Y24932D01*
X269439Y24685D01*
X269602Y24140D01*
X262493Y17032D01*
X252785D01*
X252615Y17532D01*
X252813Y17684D01*
X253428Y18485D01*
X253815Y19419D01*
X253946Y20421D01*
X253815Y21423D01*
X253428Y22357D01*
X252813Y23159D01*
X252345Y23518D01*
Y24018D01*
X252813Y24376D01*
X253428Y25178D01*
X253815Y26112D01*
X253946Y27114D01*
X253815Y28116D01*
X253428Y29050D01*
X252813Y29852D01*
X252011Y30467D01*
X251326Y30751D01*
X251426Y31251D01*
X262400D01*
X262859Y31441D01*
X275269Y43851D01*
X289180D01*
X289208Y43820D01*
X289402Y43351D01*
X289195Y43041D01*
X289087Y42500D01*
X289195Y41959D01*
X289501Y41501D01*
X289959Y41195D01*
X290500Y41087D01*
X291041Y41195D01*
X291321Y41382D01*
X291664Y41069D01*
X291692Y41028D01*
X291587Y40500D01*
X291695Y39959D01*
X292001Y39501D01*
X292459Y39195D01*
X293000Y39087D01*
X293541Y39195D01*
X293999Y39501D01*
X294233Y39851D01*
X326231D01*
X333351Y32731D01*
Y30000D01*
X333541Y29541D01*
X337541Y25541D01*
X338000Y25351D01*
X343500D01*
X343959Y25541D01*
X350459Y32041D01*
X350649Y32500D01*
Y46231D01*
X387459Y83041D01*
X387649Y83500D01*
Y332131D01*
X387459Y332591D01*
X378449Y341600D01*
Y346426D01*
X378949Y346578D01*
X379001Y346501D01*
X379459Y346195D01*
X380000Y346087D01*
X380541Y346195D01*
X380999Y346501D01*
X381305Y346959D01*
X381413Y347500D01*
X381305Y348041D01*
X380999Y348499D01*
X380541Y348805D01*
X380400Y348833D01*
X380294Y349364D01*
X380499Y349501D01*
X380733Y349851D01*
X382180D01*
X382208Y349820D01*
X382402Y349351D01*
X382195Y349041D01*
X382087Y348500D01*
X382195Y347959D01*
X382501Y347501D01*
X382959Y347195D01*
X383500Y347087D01*
X384041Y347195D01*
X384499Y347501D01*
X384805Y347959D01*
X384913Y348500D01*
X384805Y349041D01*
X384499Y349499D01*
X384478Y349513D01*
X384460Y349801D01*
X384502Y350098D01*
X388202Y353798D01*
X388614Y353716D01*
X389155Y353823D01*
X389613Y354129D01*
X389919Y354588D01*
X390027Y355129D01*
X389919Y355669D01*
X389613Y356128D01*
X389155Y356434D01*
X388614Y356541D01*
X388073Y356434D01*
X387615Y356128D01*
X387309Y355669D01*
X387201Y355129D01*
X387283Y354716D01*
X383717Y351149D01*
X380733D01*
X380499Y351499D01*
X380041Y351805D01*
X379500Y351913D01*
X378959Y351805D01*
X378949Y351799D01*
X378449Y352066D01*
Y360400D01*
X379959Y361909D01*
X380149Y362369D01*
Y365500D01*
X379959Y365959D01*
X377959Y367959D01*
X377500Y368149D01*
X361769D01*
X360649Y369269D01*
Y372000D01*
X360459Y372459D01*
X359459Y373459D01*
X359000Y373649D01*
X356500D01*
X356041Y373459D01*
X352531Y369949D01*
X87800D01*
X87341Y369759D01*
X75541Y357959D01*
X75351Y357500D01*
Y349389D01*
X74851Y349290D01*
X74635Y349810D01*
X74060Y350560D01*
X73310Y351135D01*
X72437Y351497D01*
X71500Y351620D01*
X70563Y351497D01*
X69690Y351135D01*
X68940Y350560D01*
X68365Y349810D01*
X68003Y348937D01*
X67880Y348000D01*
X68003Y347063D01*
X68365Y346190D01*
X68940Y345440D01*
X69690Y344865D01*
X70563Y344503D01*
X71500Y344380D01*
X72437Y344503D01*
X73310Y344865D01*
X74060Y345440D01*
X74635Y346190D01*
X74851Y346710D01*
X75351Y346611D01*
Y343500D01*
X75541Y343041D01*
X77041Y341541D01*
X77500Y341351D01*
X85500D01*
X85959Y341541D01*
X89460Y345041D01*
X89690Y344865D01*
X90563Y344503D01*
X91500Y344380D01*
X92437Y344503D01*
X93310Y344865D01*
X94060Y345440D01*
X94635Y346190D01*
X94997Y347063D01*
X95120Y348000D01*
X94997Y348937D01*
X94635Y349810D01*
X94060Y350560D01*
X93310Y351135D01*
X92437Y351497D01*
X91500Y351620D01*
X90563Y351497D01*
X89690Y351135D01*
X88940Y350560D01*
X88365Y349810D01*
X88003Y348937D01*
X87880Y348000D01*
X88003Y347063D01*
X88365Y346190D01*
X88542Y345960D01*
X85231Y342649D01*
X77769D01*
X76649Y343769D01*
Y357231D01*
X88069Y368651D01*
X89579D01*
X89770Y368189D01*
X81041Y359459D01*
X80851Y359000D01*
Y351535D01*
X80563Y351497D01*
X79690Y351135D01*
X78940Y350560D01*
X78365Y349810D01*
X78003Y348937D01*
X77880Y348000D01*
X78003Y347063D01*
X78365Y346190D01*
X78940Y345440D01*
X79690Y344865D01*
X80563Y344503D01*
X81500Y344380D01*
X82437Y344503D01*
X83310Y344865D01*
X84060Y345440D01*
X84635Y346190D01*
X84997Y347063D01*
X85120Y348000D01*
X84997Y348937D01*
X84635Y349810D01*
X84060Y350560D01*
X83310Y351135D01*
X82437Y351497D01*
X82149Y351535D01*
Y358731D01*
X91269Y367851D01*
X332225D01*
X332432Y367351D01*
X331031Y365949D01*
X284669D01*
X284209Y365759D01*
X278241Y359791D01*
X278051Y359331D01*
Y349060D01*
X277551Y349027D01*
X277497Y349437D01*
X277135Y350310D01*
X276560Y351060D01*
X275810Y351635D01*
X274937Y351997D01*
X274000Y352120D01*
X273063Y351997D01*
X272190Y351635D01*
X271440Y351060D01*
X270865Y350310D01*
X270503Y349437D01*
X270380Y348500D01*
X270503Y347563D01*
X270865Y346690D01*
X271440Y345940D01*
X272190Y345365D01*
X273063Y345003D01*
X274000Y344880D01*
X274937Y345003D01*
X275810Y345365D01*
X276560Y345940D01*
X277135Y346690D01*
X277497Y347563D01*
X277551Y347973D01*
X278051Y347940D01*
Y343800D01*
X278241Y343341D01*
X281042Y340540D01*
X280865Y340310D01*
X280503Y339437D01*
X280380Y338500D01*
X280503Y337563D01*
X280865Y336690D01*
X281440Y335940D01*
X282190Y335365D01*
X283063Y335003D01*
X283714Y334918D01*
X283682Y334418D01*
X274318D01*
X274286Y334918D01*
X274937Y335003D01*
X275810Y335365D01*
X276560Y335940D01*
X277135Y336690D01*
X277497Y337563D01*
X277620Y338500D01*
X277497Y339437D01*
X277135Y340310D01*
X276560Y341060D01*
X275810Y341635D01*
X274937Y341997D01*
X274000Y342120D01*
X273063Y341997D01*
X272190Y341635D01*
X271440Y341060D01*
X270865Y340310D01*
X270503Y339437D01*
X270380Y338500D01*
X270503Y337563D01*
X270865Y336690D01*
X271440Y335940D01*
X272190Y335365D01*
X273063Y335003D01*
X273714Y334918D01*
X273682Y334418D01*
X269380D01*
X265918Y337880D01*
Y341500D01*
X265848Y341851D01*
X265649Y342149D01*
X263263Y344535D01*
X262965Y344734D01*
X262614Y344804D01*
X250554D01*
X250499Y344885D01*
X250041Y345191D01*
X249500Y345299D01*
X248959Y345191D01*
X248501Y344885D01*
X248195Y344426D01*
X248087Y343886D01*
X248195Y343345D01*
X248501Y342887D01*
X248959Y342580D01*
X249500Y342473D01*
X250041Y342580D01*
X250499Y342887D01*
X250554Y342968D01*
X262234D01*
X264082Y341120D01*
Y337500D01*
X264152Y337149D01*
X264351Y336851D01*
X268351Y332851D01*
X268649Y332652D01*
X269000Y332582D01*
X286500D01*
X286851Y332652D01*
X287149Y332851D01*
X289649Y335351D01*
X289848Y335649D01*
X289918Y336000D01*
Y338182D01*
X290418Y338214D01*
X290503Y337563D01*
X290865Y336690D01*
X291440Y335940D01*
X292190Y335365D01*
X293063Y335003D01*
X293800Y334906D01*
Y338500D01*
X294000D01*
Y338700D01*
X297594D01*
X297497Y339437D01*
X297135Y340310D01*
X296560Y341060D01*
X295810Y341635D01*
X294937Y341997D01*
X294286Y342082D01*
X294318Y342582D01*
X309500D01*
X309851Y342652D01*
X310149Y342851D01*
X310404Y343106D01*
X310500Y343087D01*
X310851Y343157D01*
X310858Y343152D01*
X311209Y343082D01*
X335620D01*
X337082Y341620D01*
Y338586D01*
X337152Y338235D01*
X337351Y337937D01*
X338937Y336351D01*
X339235Y336152D01*
X339586Y336082D01*
X358620D01*
X360582Y334120D01*
Y94880D01*
X351120Y85418D01*
X292880D01*
X288149Y90149D01*
X287851Y90348D01*
X287500Y90418D01*
X137000D01*
X136649Y90348D01*
X136351Y90149D01*
X131620Y85418D01*
X19500Y85418D01*
X19149Y85348D01*
X18851Y85149D01*
X12351Y78649D01*
X12152Y78351D01*
X12082Y78000D01*
Y70003D01*
X11656Y69827D01*
X11100Y69400D01*
X10673Y68844D01*
X10405Y68195D01*
X10313Y67500D01*
X10405Y66805D01*
X10673Y66157D01*
X11100Y65600D01*
X11656Y65173D01*
X12305Y64905D01*
X13000Y64813D01*
X13695Y64905D01*
X14344Y65173D01*
X14900Y65600D01*
X15327Y66157D01*
X15595Y66805D01*
X15687Y67500D01*
X15595Y68195D01*
X15327Y68844D01*
X14900Y69400D01*
X14344Y69827D01*
X13918Y70003D01*
Y77620D01*
X19880Y83582D01*
X132000Y83582D01*
X132351Y83652D01*
X132649Y83851D01*
X137380Y88582D01*
X287120D01*
X291017Y84685D01*
X290845Y84150D01*
X290675Y84123D01*
X287149Y87649D01*
X286851Y87848D01*
X286500Y87918D01*
X144000D01*
X143649Y87848D01*
X143351Y87649D01*
X139121Y83419D01*
X138695Y83595D01*
X138000Y83687D01*
X137305Y83595D01*
X136656Y83327D01*
X136100Y82900D01*
X135673Y82344D01*
X135405Y81695D01*
X135313Y81000D01*
X135405Y80305D01*
X135673Y79656D01*
X136100Y79100D01*
X136656Y78673D01*
X137305Y78405D01*
X138000Y78313D01*
X138695Y78405D01*
X139344Y78673D01*
X139900Y79100D01*
X140327Y79656D01*
X140595Y80305D01*
X140687Y81000D01*
X140595Y81695D01*
X140419Y82121D01*
X144380Y86082D01*
X256600D01*
X256734Y85851D01*
X256785Y85582D01*
X254621Y83419D01*
X254195Y83595D01*
X253500Y83687D01*
X252805Y83595D01*
X252156Y83327D01*
X251600Y82900D01*
X251173Y82344D01*
X250905Y81695D01*
X250813Y81000D01*
X250905Y80305D01*
X251173Y79656D01*
X251600Y79100D01*
X252156Y78673D01*
X252805Y78405D01*
X253500Y78313D01*
X254195Y78405D01*
X254843Y78673D01*
X255400Y79100D01*
X255827Y79656D01*
X256095Y80305D01*
X256187Y81000D01*
X256095Y81695D01*
X255919Y82121D01*
X257880Y84082D01*
X284620D01*
X288351Y80351D01*
X288649Y80152D01*
X289000Y80082D01*
X344120D01*
X346351Y77851D01*
X346649Y77652D01*
X347000Y77582D01*
X353000D01*
X353351Y77652D01*
X353649Y77851D01*
X366149Y90351D01*
X366348Y90649D01*
X366418Y91000D01*
Y215120D01*
X372149Y220851D01*
X372348Y221149D01*
X372418Y221500D01*
Y224000D01*
X372348Y224351D01*
X372149Y224649D01*
X364168Y232630D01*
Y341196D01*
X364249Y341251D01*
X364555Y341709D01*
X364663Y342250D01*
X364555Y342791D01*
X364249Y343249D01*
X363791Y343555D01*
X363250Y343663D01*
X362709Y343555D01*
X362251Y343249D01*
X361945Y342791D01*
X361837Y342250D01*
X361856Y342154D01*
X360034Y340332D01*
X342554D01*
X342499Y340413D01*
X342041Y340720D01*
X341500Y340827D01*
X340959Y340720D01*
X340501Y340413D01*
X340195Y339955D01*
X340087Y339414D01*
X340195Y338874D01*
X340405Y338559D01*
X340206Y338057D01*
X339873Y338010D01*
X338918Y338966D01*
Y342000D01*
X338848Y342351D01*
X338693Y342582D01*
X338831Y343082D01*
X339000D01*
X339351Y343152D01*
X339649Y343351D01*
X341501Y345203D01*
X341562Y345295D01*
X341999Y345587D01*
X342305Y346045D01*
X342413Y346586D01*
X342305Y347127D01*
X341999Y347585D01*
X341746Y347754D01*
Y349830D01*
X341962Y350153D01*
X342069Y350693D01*
X341962Y351234D01*
X341655Y351693D01*
X341574Y351747D01*
Y361344D01*
X341504Y361695D01*
X341305Y361993D01*
X339649Y363649D01*
X339351Y363848D01*
X339000Y363918D01*
X336054D01*
X335999Y363999D01*
X335541Y364305D01*
X335000Y364413D01*
X334826Y364378D01*
X334542Y364832D01*
X334708Y365051D01*
X353176D01*
X353190Y365016D01*
X353259Y364551D01*
X352894Y364307D01*
X352588Y363848D01*
X352480Y363307D01*
X352588Y362767D01*
X352894Y362308D01*
X353353Y362002D01*
X353893Y361895D01*
X354434Y362002D01*
X354892Y362308D01*
X355199Y362767D01*
X355306Y363307D01*
X355199Y363848D01*
X354892Y364307D01*
X354527Y364551D01*
X354597Y365016D01*
X354611Y365051D01*
X356531D01*
X361341Y360241D01*
X361800Y360051D01*
X372231D01*
X373851Y358431D01*
Y347847D01*
X373501Y347613D01*
X373195Y347155D01*
X373087Y346614D01*
X373195Y346074D01*
X373501Y345615D01*
X373959Y345309D01*
X374500Y345201D01*
X375041Y345309D01*
X375499Y345615D01*
X375805Y346074D01*
X375851Y346300D01*
X376351Y346251D01*
Y341000D01*
X376541Y340541D01*
X385551Y331531D01*
Y84969D01*
X348041Y47459D01*
X347851Y47000D01*
Y33269D01*
X342290Y27708D01*
X342079Y27696D01*
X341807Y27733D01*
X341616Y28176D01*
X341805Y28459D01*
X341913Y29000D01*
X341805Y29541D01*
X341499Y29999D01*
X341041Y30305D01*
X340500Y30413D01*
X339959Y30305D01*
X339679Y30118D01*
X339336Y30431D01*
X339308Y30472D01*
X339413Y31000D01*
X339308Y31528D01*
X339336Y31569D01*
X339679Y31882D01*
X339959Y31695D01*
X340500Y31587D01*
X341041Y31695D01*
X341499Y32001D01*
X341805Y32459D01*
X341913Y33000D01*
X341805Y33541D01*
X341499Y33999D01*
X341041Y34305D01*
X340500Y34413D01*
X339959Y34305D01*
X339501Y33999D01*
X339195Y33541D01*
X339087Y33000D01*
X339192Y32471D01*
X339164Y32431D01*
X338821Y32118D01*
X338541Y32305D01*
X338000Y32413D01*
X337459Y32305D01*
X337001Y31999D01*
X336695Y31541D01*
X336587Y31000D01*
X336695Y30459D01*
X336752Y30374D01*
X336363Y30055D01*
X335649Y30769D01*
Y34000D01*
X335459Y34459D01*
X326959Y42959D01*
X326500Y43149D01*
X294320D01*
X294292Y43180D01*
X294098Y43649D01*
X294305Y43959D01*
X294413Y44500D01*
X294305Y45041D01*
X293999Y45499D01*
X293541Y45805D01*
X293000Y45913D01*
X292747Y46373D01*
X292805Y46459D01*
X292913Y47000D01*
X292805Y47541D01*
X292748Y47626D01*
X293137Y47945D01*
X294041Y47041D01*
X294500Y46851D01*
X308267D01*
X308501Y46501D01*
X308959Y46195D01*
X309500Y46087D01*
X310041Y46195D01*
X310499Y46501D01*
X310805Y46959D01*
X310913Y47500D01*
X310805Y48041D01*
X310499Y48499D01*
X310041Y48805D01*
X309500Y48913D01*
X308959Y48805D01*
X308501Y48499D01*
X308267Y48149D01*
X306863D01*
X306814Y48649D01*
X307041Y48695D01*
X307499Y49001D01*
X307805Y49459D01*
X307913Y50000D01*
X307805Y50541D01*
X307499Y50999D01*
X307041Y51305D01*
X306814Y51351D01*
X306863Y51851D01*
X307767D01*
X308001Y51501D01*
X308459Y51195D01*
X309000Y51087D01*
X309541Y51195D01*
X309999Y51501D01*
X310305Y51959D01*
X310413Y52500D01*
X310305Y53041D01*
X309999Y53499D01*
X309541Y53805D01*
X309000Y53913D01*
X308459Y53805D01*
X308001Y53499D01*
X307767Y53149D01*
X305500D01*
X305041Y52959D01*
X304264Y52182D01*
X276770D01*
X276311Y51992D01*
X263068Y38749D01*
X249100D01*
X248641Y38559D01*
X245831Y35749D01*
X244706D01*
X244658Y35878D01*
X244623Y36249D01*
X244999Y36501D01*
X245305Y36959D01*
X245413Y37500D01*
X245305Y38041D01*
X244999Y38499D01*
X244541Y38805D01*
X244000Y38913D01*
X243459Y38805D01*
X243070Y38545D01*
X242846Y38498D01*
X242654D01*
X242430Y38545D01*
X242041Y38805D01*
X241500Y38913D01*
X240959Y38805D01*
X240501Y38499D01*
X240195Y38041D01*
X240087Y37500D01*
X240195Y36959D01*
X240501Y36501D01*
X240877Y36249D01*
X240842Y35878D01*
X240794Y35749D01*
X235600D01*
X235141Y35559D01*
X228541Y28959D01*
X228351Y28500D01*
Y23500D01*
X228541Y23041D01*
X230541Y21041D01*
X231000Y20851D01*
X231267D01*
X231501Y20501D01*
X231959Y20195D01*
X232500Y20087D01*
X233041Y20195D01*
X233430Y20455D01*
X233654Y20502D01*
X233846D01*
X234070Y20455D01*
X234459Y20195D01*
X235000Y20087D01*
X235541Y20195D01*
X235999Y20501D01*
X236305Y20959D01*
X236413Y21500D01*
X236331Y21913D01*
X236726Y22308D01*
X236916Y22767D01*
Y24476D01*
X237416Y24628D01*
X237501Y24501D01*
X237959Y24195D01*
X238500Y24087D01*
X239041Y24195D01*
X239499Y24501D01*
X239805Y24959D01*
X239913Y25500D01*
X239805Y26041D01*
X239499Y26499D01*
X239041Y26805D01*
X238500Y26913D01*
X237959Y26805D01*
X237501Y26499D01*
X237416Y26372D01*
X236916Y26524D01*
Y29998D01*
X240569Y33651D01*
X246602D01*
X246790Y33187D01*
X241797Y28337D01*
X241795Y28332D01*
X241791Y28330D01*
X241697Y28105D01*
X241601Y27880D01*
X241602Y27876D01*
X241601Y27871D01*
Y25519D01*
X238913Y22831D01*
X238500Y22913D01*
X237959Y22805D01*
X237501Y22499D01*
X237195Y22041D01*
X237087Y21500D01*
X237195Y20959D01*
X237501Y20501D01*
X237959Y20195D01*
X238500Y20087D01*
X239041Y20195D01*
X239430Y20455D01*
X239654Y20502D01*
X239846D01*
X240070Y20455D01*
X240459Y20195D01*
X241000Y20087D01*
X241541Y20195D01*
X241930Y20455D01*
X242154Y20502D01*
X242346D01*
X242570Y20455D01*
X242959Y20195D01*
X243500Y20087D01*
X244041Y20195D01*
X244499Y20501D01*
X244805Y20959D01*
X244913Y21500D01*
X244805Y22041D01*
X244499Y22499D01*
X244492Y22573D01*
X245959Y24041D01*
X246149Y24500D01*
Y25254D01*
X246649Y25353D01*
X246722Y25178D01*
X247337Y24376D01*
X247805Y24018D01*
Y23518D01*
X247337Y23159D01*
X246722Y22357D01*
X246335Y21423D01*
X246203Y20421D01*
X246306Y19641D01*
X245999Y19208D01*
X245906Y19149D01*
X226769D01*
X224331Y21587D01*
X224413Y22000D01*
X224305Y22541D01*
X223999Y22999D01*
X223541Y23305D01*
X223000Y23413D01*
X222897Y23393D01*
X222651Y23853D01*
X224149Y25351D01*
X224348Y25649D01*
X224418Y26000D01*
Y36446D01*
X224499Y36501D01*
X224805Y36959D01*
X224913Y37500D01*
X224805Y38041D01*
X224618Y38321D01*
X224931Y38664D01*
X224972Y38692D01*
X225500Y38587D01*
X225956Y38678D01*
X226168Y38476D01*
X226287Y38273D01*
X226132Y38041D01*
X226024Y37500D01*
X226132Y36959D01*
X226438Y36501D01*
X226896Y36195D01*
X227437Y36087D01*
X227978Y36195D01*
X228436Y36501D01*
X228742Y36959D01*
X228850Y37500D01*
X228742Y38041D01*
X228504Y38397D01*
X228865Y38758D01*
X228959Y38695D01*
X229500Y38587D01*
X230041Y38695D01*
X230499Y39001D01*
X230805Y39459D01*
X230913Y40000D01*
X230805Y40541D01*
X230499Y40999D01*
X230041Y41305D01*
X229500Y41413D01*
X228959Y41305D01*
X228501Y40999D01*
X228195Y40541D01*
X228087Y40000D01*
X228195Y39459D01*
X228433Y39103D01*
X228072Y38742D01*
X227978Y38805D01*
X227437Y38913D01*
X226981Y38822D01*
X226769Y39024D01*
X226651Y39228D01*
X226805Y39459D01*
X226913Y40000D01*
X226805Y40541D01*
X226499Y40999D01*
X226041Y41305D01*
X225500Y41413D01*
X224959Y41305D01*
X224501Y40999D01*
X224195Y40541D01*
X224087Y40000D01*
X224195Y39459D01*
X224382Y39179D01*
X224069Y38836D01*
X224028Y38808D01*
X223500Y38913D01*
X222972Y38808D01*
X222931Y38836D01*
X222618Y39179D01*
X222805Y39459D01*
X222913Y40000D01*
X222805Y40541D01*
X222499Y40999D01*
X222041Y41305D01*
X221500Y41413D01*
X220959Y41305D01*
X220501Y40999D01*
X220195Y40541D01*
X220087Y40000D01*
X220195Y39459D01*
X220501Y39001D01*
X220582Y38946D01*
Y38026D01*
X220082Y37874D01*
X219999Y37999D01*
X219541Y38305D01*
X219000Y38413D01*
X218459Y38305D01*
X218070Y38045D01*
X217846Y37998D01*
X217823D01*
X217709Y38119D01*
X217814Y38535D01*
X217954Y38677D01*
X218041Y38695D01*
X218499Y39001D01*
X218805Y39459D01*
X218913Y40000D01*
X218805Y40541D01*
X218499Y40999D01*
X218041Y41305D01*
X217500Y41413D01*
X216959Y41305D01*
X216501Y40999D01*
X216195Y40541D01*
X216087Y40000D01*
X216195Y39459D01*
X216501Y39001D01*
X216668Y38889D01*
X216517Y38460D01*
X216485Y38410D01*
X215959Y38305D01*
X215501Y37999D01*
X215195Y37541D01*
X215087Y37000D01*
X215195Y36459D01*
X215501Y36001D01*
X215959Y35695D01*
X216500Y35587D01*
X217041Y35695D01*
X217430Y35955D01*
X217654Y36002D01*
X217846D01*
X218070Y35955D01*
X218459Y35695D01*
X219000Y35587D01*
X219541Y35695D01*
X219679Y35787D01*
X220249Y35567D01*
X220253Y35551D01*
X208853Y24151D01*
X208393Y24397D01*
X208413Y24500D01*
X208305Y25041D01*
X207999Y25499D01*
X207541Y25805D01*
X207382Y26347D01*
X207413Y26500D01*
X207305Y27041D01*
X206999Y27499D01*
X206541Y27805D01*
X206000Y27913D01*
X205459Y27805D01*
X205001Y27499D01*
X204695Y27041D01*
X204587Y26500D01*
X204607Y26402D01*
X204433Y26342D01*
X203933Y26699D01*
Y36801D01*
X204433Y37158D01*
X204607Y37098D01*
X204587Y37000D01*
X204695Y36459D01*
X205001Y36001D01*
X205459Y35695D01*
X206000Y35587D01*
X206541Y35695D01*
X206999Y36001D01*
X207305Y36459D01*
X207413Y37000D01*
X207382Y37153D01*
X207541Y37695D01*
X207999Y38001D01*
X208305Y38459D01*
X208318Y38522D01*
X208873Y38752D01*
X208959Y38695D01*
X209500Y38587D01*
X210007Y38688D01*
X210186Y38549D01*
X210238Y38497D01*
X210377Y38318D01*
X210276Y37811D01*
X210384Y37270D01*
X210690Y36812D01*
X211148Y36506D01*
X211689Y36398D01*
X212230Y36506D01*
X212688Y36812D01*
X212994Y37270D01*
X213102Y37811D01*
X213056Y38039D01*
X213474Y38466D01*
X213657Y38430D01*
X214198Y38537D01*
X214657Y38843D01*
X214963Y39302D01*
X215070Y39843D01*
X214963Y40383D01*
X214657Y40842D01*
X214198Y41148D01*
X213657Y41256D01*
X213117Y41148D01*
X212658Y40842D01*
X212352Y40383D01*
X212245Y39843D01*
X212290Y39614D01*
X211873Y39187D01*
X211689Y39224D01*
X211182Y39123D01*
X211003Y39262D01*
X210951Y39314D01*
X210812Y39493D01*
X210913Y40000D01*
X210805Y40541D01*
X210499Y40999D01*
X210041Y41305D01*
X209500Y41413D01*
X208959Y41305D01*
X208501Y40999D01*
X208195Y40541D01*
X208182Y40478D01*
X207627Y40248D01*
X207541Y40305D01*
X207000Y40413D01*
X206459Y40305D01*
X206070Y40045D01*
X205846Y39998D01*
X205654D01*
X205430Y40045D01*
X205041Y40305D01*
X204500Y40413D01*
X204213Y40356D01*
X203871Y40555D01*
X203779Y40668D01*
X203747Y40734D01*
X203774Y40830D01*
X203806Y40843D01*
X203831Y40904D01*
X203882Y40945D01*
X203892Y41051D01*
X203933Y41150D01*
Y46500D01*
X203806Y46806D01*
X203500Y46933D01*
X153000D01*
X152694Y46806D01*
X152567Y46500D01*
Y41649D01*
X152608Y41551D01*
X152618Y41445D01*
X152669Y41404D01*
X152694Y41343D01*
X152777Y41309D01*
X152798Y41298D01*
X152874Y41235D01*
X152969Y41206D01*
X153174Y41097D01*
X153195Y41041D01*
X153087Y40500D01*
X153195Y39959D01*
X153278Y39835D01*
X153265Y39794D01*
X153077Y39382D01*
X153007Y39277D01*
X152918Y39187D01*
Y39159D01*
X152640Y38743D01*
X152615Y38619D01*
X152567Y38502D01*
Y37998D01*
X152615Y37881D01*
X152640Y37757D01*
X152898Y37372D01*
X152971Y37000D01*
X152898Y36628D01*
X152640Y36243D01*
X152615Y36119D01*
X152567Y36002D01*
Y23000D01*
X152694Y22694D01*
X153000Y22567D01*
X203500D01*
X203806Y22694D01*
X203933Y23000D01*
X204433Y23100D01*
X204500Y23087D01*
X205041Y23195D01*
X205430Y23455D01*
X205654Y23502D01*
X205846D01*
X206070Y23455D01*
X206459Y23195D01*
X207000Y23087D01*
X207103Y23107D01*
X207349Y22647D01*
X201620Y16918D01*
X146500D01*
X146279Y16874D01*
X146067Y17341D01*
X146513Y17684D01*
X147129Y18485D01*
X147515Y19419D01*
X147647Y20421D01*
X147515Y21423D01*
X147129Y22357D01*
X146513Y23159D01*
X146046Y23518D01*
Y24018D01*
X146513Y24376D01*
X147129Y25178D01*
X147515Y26112D01*
X147647Y27114D01*
X147515Y28116D01*
X147129Y29050D01*
X146513Y29852D01*
X145711Y30467D01*
X144778Y30854D01*
X143776Y30986D01*
X142773Y30854D01*
X141840Y30467D01*
X141038Y29852D01*
X140423Y29050D01*
X140036Y28116D01*
X139904Y27114D01*
X140036Y26112D01*
X140423Y25178D01*
X141038Y24376D01*
X141505Y24018D01*
Y23518D01*
X141038Y23159D01*
X140423Y22357D01*
X140036Y21423D01*
X139904Y20421D01*
X140036Y19419D01*
X140423Y18485D01*
X141038Y17684D01*
X141840Y17068D01*
X142773Y16681D01*
X143776Y16550D01*
X144778Y16681D01*
X145459Y16964D01*
X145742Y16540D01*
X137120Y7918D01*
X70880D01*
X66418Y12380D01*
Y60000D01*
X66348Y60351D01*
X66149Y60649D01*
X60316Y66482D01*
X60347Y66528D01*
X60540Y67500D01*
X60347Y68472D01*
X59796Y69296D01*
X58972Y69847D01*
X58000Y70041D01*
X57028Y69847D01*
X56204Y69296D01*
X55653Y68472D01*
X55459Y67500D01*
X55653Y66528D01*
X56204Y65704D01*
X57028Y65153D01*
X58000Y64960D01*
X58972Y65153D01*
X59018Y65184D01*
X64582Y59620D01*
Y12000D01*
X64652Y11649D01*
X64851Y11351D01*
X69851Y6351D01*
X70149Y6152D01*
X70500Y6082D01*
X137500D01*
X137851Y6152D01*
X138149Y6351D01*
X146880Y15082D01*
X202000D01*
X202351Y15152D01*
X202649Y15351D01*
X222082Y34785D01*
X222351Y34734D01*
X222582Y34600D01*
Y26380D01*
X210620Y14418D01*
X148500D01*
X148149Y14348D01*
X147851Y14149D01*
X139120Y5418D01*
X68880D01*
X61918Y12380D01*
Y45000D01*
X61848Y45351D01*
X61649Y45649D01*
X60316Y46981D01*
X60347Y47028D01*
X60540Y48000D01*
X60347Y48972D01*
X59796Y49796D01*
X58972Y50347D01*
X58000Y50541D01*
X57028Y50347D01*
X56204Y49796D01*
X55653Y48972D01*
X55459Y48000D01*
X55653Y47028D01*
X56204Y46204D01*
X57028Y45653D01*
X58000Y45459D01*
X58972Y45653D01*
X59018Y45684D01*
X60082Y44620D01*
Y12000D01*
X60152Y11649D01*
X60351Y11351D01*
X67851Y3851D01*
X68149Y3652D01*
X68500Y3582D01*
X139500D01*
X139851Y3652D01*
X140149Y3851D01*
X148880Y12582D01*
X155345D01*
X155501Y12085D01*
X155195Y11627D01*
X155087Y11086D01*
X154616Y10890D01*
X154500Y10913D01*
X153959Y10805D01*
X153501Y10499D01*
X153372Y10306D01*
X153088Y10072D01*
X152731Y10178D01*
X152541Y10305D01*
X152390Y10335D01*
X151913Y10500D01*
X151805Y11041D01*
X151499Y11499D01*
X151041Y11805D01*
X150500Y11913D01*
X149959Y11805D01*
X149501Y11499D01*
X149195Y11041D01*
X149087Y10500D01*
X148610Y10335D01*
X148459Y10305D01*
X148001Y9999D01*
X147695Y9541D01*
X147587Y9000D01*
X147695Y8459D01*
X148001Y8001D01*
X148459Y7695D01*
X149000Y7587D01*
X149541Y7695D01*
X149999Y8001D01*
X150222Y8335D01*
X150337Y8365D01*
X150663D01*
X150778Y8335D01*
X151001Y8001D01*
X151459Y7695D01*
X152000Y7587D01*
X152541Y7695D01*
X152999Y8001D01*
X153128Y8194D01*
X153412Y8428D01*
X153769Y8322D01*
X153959Y8195D01*
X154500Y8087D01*
X155041Y8195D01*
X155499Y8501D01*
X155805Y8959D01*
X155913Y9500D01*
X156384Y9696D01*
X156500Y9673D01*
X157041Y9780D01*
X157499Y10087D01*
X157635Y10290D01*
X158106Y10095D01*
X158087Y10000D01*
X158195Y9459D01*
X158501Y9001D01*
X158959Y8695D01*
X159500Y8587D01*
X160041Y8695D01*
X160499Y9001D01*
X160805Y9459D01*
X160913Y10000D01*
X160805Y10541D01*
X160499Y10999D01*
X160041Y11305D01*
X159500Y11413D01*
X158959Y11305D01*
X158501Y10999D01*
X158365Y10796D01*
X157894Y10991D01*
X157913Y11086D01*
X157805Y11627D01*
X157499Y12085D01*
X157655Y12582D01*
X198474D01*
X198626Y12082D01*
X198501Y11999D01*
X198195Y11541D01*
X198087Y11000D01*
X198195Y10459D01*
X198501Y10001D01*
X198851Y9767D01*
Y8000D01*
X199041Y7541D01*
X205027Y1555D01*
X205486Y1365D01*
X205437Y885D01*
X750D01*
Y103059D01*
X346403D01*
X346711Y103120D01*
X346971Y103294D01*
X347145Y103554D01*
X347206Y103862D01*
Y324334D01*
X347145Y324641D01*
X346971Y324902D01*
X346711Y325076D01*
X346403Y325137D01*
X750D01*
Y392980D01*
X392845D01*
Y885D01*
D02*
G37*
G36*
X288270Y364189D02*
X283541Y359459D01*
X283351Y359000D01*
Y352034D01*
X283063Y351997D01*
X282190Y351635D01*
X281440Y351060D01*
X280865Y350310D01*
X280503Y349437D01*
X280380Y348500D01*
X280503Y347563D01*
X280865Y346690D01*
X281440Y345940D01*
X282190Y345365D01*
X283063Y345003D01*
X284000Y344880D01*
X284937Y345003D01*
X285810Y345365D01*
X286560Y345940D01*
X287135Y346690D01*
X287497Y347563D01*
X287620Y348500D01*
X287497Y349437D01*
X287135Y350310D01*
X286560Y351060D01*
X285810Y351635D01*
X284937Y351997D01*
X284649Y352034D01*
Y358731D01*
X289769Y363851D01*
X296279D01*
X296470Y363389D01*
X293541Y360459D01*
X293351Y360000D01*
Y352034D01*
X293063Y351997D01*
X292190Y351635D01*
X291440Y351060D01*
X290865Y350310D01*
X290503Y349437D01*
X290380Y348500D01*
X290503Y347563D01*
X290865Y346690D01*
X291440Y345940D01*
X292190Y345365D01*
X293063Y345003D01*
X293714Y344918D01*
X293682Y344418D01*
X291500D01*
X291149Y344348D01*
X290851Y344149D01*
X288351Y341649D01*
X288152Y341351D01*
X288082Y341000D01*
Y338818D01*
X287582Y338786D01*
X287497Y339437D01*
X287135Y340310D01*
X286560Y341060D01*
X285810Y341635D01*
X284937Y341997D01*
X284000Y342120D01*
X283063Y341997D01*
X282190Y341635D01*
X281960Y341459D01*
X279349Y344069D01*
Y359062D01*
X284938Y364651D01*
X288079D01*
X288270Y364189D01*
D02*
G37*
G36*
X368849Y225353D02*
X368603Y224893D01*
X368500Y224913D01*
X367959Y224805D01*
X367501Y224499D01*
X367279Y224168D01*
X367250D01*
X366899Y224098D01*
X366601Y223899D01*
X362918Y220215D01*
X362649Y220266D01*
X362418Y220400D01*
Y231078D01*
X362918Y231285D01*
X368849Y225353D01*
D02*
G37*
G36*
X203500Y41150D02*
X203000Y40998D01*
X202999Y40999D01*
X202541Y41305D01*
X202000Y41413D01*
X201459Y41305D01*
X201001Y40999D01*
X200695Y40541D01*
X200587Y40000D01*
X200640Y39733D01*
X200620Y39693D01*
X200214Y39347D01*
X199883Y39413D01*
X199489Y39335D01*
X199163Y39729D01*
X199159Y39740D01*
X199305Y39959D01*
X199413Y40500D01*
X199305Y41041D01*
X198999Y41499D01*
X198541Y41805D01*
X198000Y41913D01*
X197459Y41805D01*
X197001Y41499D01*
X196695Y41041D01*
X196587Y40500D01*
X196695Y39959D01*
X196925Y39614D01*
X196565Y39253D01*
X196487Y39305D01*
X195946Y39413D01*
X195480Y39320D01*
X195292Y39492D01*
X195149Y39725D01*
X195305Y39959D01*
X195413Y40500D01*
X195305Y41041D01*
X194999Y41499D01*
X194541Y41805D01*
X194000Y41913D01*
X193459Y41805D01*
X193001Y41499D01*
X192695Y41041D01*
X192587Y40500D01*
X192695Y39959D01*
X192882Y39679D01*
X192569Y39336D01*
X192528Y39308D01*
X192000Y39413D01*
X191472Y39308D01*
X191431Y39336D01*
X191118Y39679D01*
X191305Y39959D01*
X191413Y40500D01*
X191305Y41041D01*
X190999Y41499D01*
X190541Y41805D01*
X190000Y41913D01*
X189459Y41805D01*
X189001Y41499D01*
X188695Y41041D01*
X188587Y40500D01*
X188695Y39959D01*
X188849Y39728D01*
X188741Y39538D01*
X188518Y39323D01*
X188067Y39413D01*
X187526Y39305D01*
X187424Y39237D01*
X187064Y39598D01*
X187305Y39959D01*
X187413Y40500D01*
X187305Y41041D01*
X186999Y41499D01*
X186541Y41805D01*
X186000Y41913D01*
X185459Y41805D01*
X185001Y41499D01*
X184695Y41041D01*
X184587Y40500D01*
X184695Y39959D01*
X184842Y39739D01*
X184833Y39720D01*
X184511Y39334D01*
X184114Y39413D01*
X184031Y39396D01*
X183730Y39846D01*
X183805Y39959D01*
X183913Y40500D01*
X183805Y41041D01*
X183499Y41499D01*
X183041Y41805D01*
X182500Y41913D01*
X181959Y41805D01*
X181501Y41499D01*
X181195Y41041D01*
X181087Y40500D01*
X181195Y39959D01*
X181501Y39501D01*
X181959Y39195D01*
X182500Y39087D01*
X182584Y39104D01*
X182885Y38654D01*
X182809Y38541D01*
X182701Y38000D01*
X182809Y37459D01*
X183115Y37001D01*
X183574Y36695D01*
X184114Y36587D01*
X184655Y36695D01*
X185114Y37001D01*
X185420Y37459D01*
X185527Y38000D01*
X185420Y38541D01*
X185273Y38761D01*
X185281Y38780D01*
X185603Y39166D01*
X186000Y39087D01*
X186541Y39195D01*
X186643Y39263D01*
X187003Y38902D01*
X186761Y38541D01*
X186654Y38000D01*
X186761Y37459D01*
X187068Y37001D01*
X187526Y36695D01*
X188067Y36587D01*
X188608Y36695D01*
X189066Y37001D01*
X189372Y37459D01*
X189480Y38000D01*
X189372Y38541D01*
X189218Y38772D01*
X189326Y38962D01*
X189549Y39177D01*
X190000Y39087D01*
X190529Y39192D01*
X190569Y39164D01*
X190882Y38821D01*
X190695Y38541D01*
X190587Y38000D01*
X190695Y37459D01*
X191001Y37001D01*
X191459Y36695D01*
X192000Y36587D01*
X192541Y36695D01*
X192999Y37001D01*
X193305Y37459D01*
X193413Y38000D01*
X193305Y38541D01*
X193118Y38821D01*
X193431Y39164D01*
X193472Y39192D01*
X194000Y39087D01*
X194466Y39180D01*
X194654Y39008D01*
X194797Y38775D01*
X194641Y38541D01*
X194533Y38000D01*
X194641Y37459D01*
X194947Y37001D01*
X195405Y36695D01*
X195946Y36587D01*
X196487Y36695D01*
X196945Y37001D01*
X197251Y37459D01*
X197359Y38000D01*
X197251Y38541D01*
X197021Y38886D01*
X197381Y39247D01*
X197459Y39195D01*
X198000Y39087D01*
X198394Y39165D01*
X198720Y38771D01*
X198724Y38760D01*
X198578Y38541D01*
X198470Y38000D01*
X198578Y37459D01*
X198884Y37001D01*
X199342Y36695D01*
X199883Y36587D01*
X200424Y36695D01*
X200882Y37001D01*
X201188Y37459D01*
X201296Y38000D01*
X201243Y38267D01*
X201263Y38307D01*
X201669Y38653D01*
X202000Y38587D01*
X202541Y38695D01*
X202627Y38752D01*
X203182Y38522D01*
X203195Y38459D01*
X203500Y38002D01*
Y25498D01*
X203195Y25041D01*
X203087Y24500D01*
X203195Y23959D01*
X203500Y23502D01*
Y23000D01*
X153000D01*
Y36002D01*
X153305Y36459D01*
X153413Y37000D01*
X153305Y37541D01*
X153000Y37998D01*
Y38502D01*
X153305Y38959D01*
X153318Y39022D01*
X153873Y39252D01*
X153959Y39195D01*
X154500Y39087D01*
X155041Y39195D01*
X155499Y39501D01*
X155805Y39959D01*
X155913Y40500D01*
X155805Y41041D01*
X155499Y41499D01*
X155041Y41805D01*
X154500Y41913D01*
X153959Y41805D01*
X153501Y41499D01*
X153500Y41498D01*
X153000Y41649D01*
Y46500D01*
X203500D01*
Y41150D01*
D02*
G37*
G36*
X239070Y33989D02*
X235808Y30726D01*
X235617Y30267D01*
Y27097D01*
X235117Y26826D01*
X234681Y26913D01*
X234140Y26805D01*
X233682Y26499D01*
X233641Y26438D01*
X233040D01*
X232999Y26499D01*
X232541Y26805D01*
X232000Y26913D01*
X231459Y26805D01*
X231001Y26499D01*
X230695Y26041D01*
X230587Y25500D01*
X230695Y24959D01*
X231001Y24501D01*
X231459Y24195D01*
X232000Y24087D01*
X232541Y24195D01*
X232999Y24501D01*
X233040Y24562D01*
X233641D01*
X233682Y24501D01*
X234140Y24195D01*
X234681Y24087D01*
X235117Y24174D01*
X235617Y23903D01*
Y23250D01*
X235183Y22876D01*
X235000Y22913D01*
X234459Y22805D01*
X234070Y22545D01*
X233846Y22498D01*
X233654D01*
X233430Y22545D01*
X233041Y22805D01*
X232500Y22913D01*
X231959Y22805D01*
X231501Y22499D01*
X231487Y22478D01*
X230989Y22429D01*
X229649Y23769D01*
Y28231D01*
X235869Y34451D01*
X238879D01*
X239070Y33989D01*
D02*
G37*
G36*
X258208Y11320D02*
X258402Y10851D01*
X258195Y10541D01*
X258087Y10000D01*
X258174Y9564D01*
X257903Y9064D01*
X246820D01*
X246792Y9094D01*
X246598Y9564D01*
X246805Y9873D01*
X246913Y10414D01*
X246826Y10851D01*
X247097Y11351D01*
X258180D01*
X258208Y11320D01*
D02*
G37*
G36*
X221607Y22103D02*
X221587Y22000D01*
X221695Y21459D01*
X222001Y21001D01*
X222459Y20695D01*
X223000Y20587D01*
X223412Y20669D01*
X226041Y18041D01*
X226500Y17851D01*
X246016D01*
X247255Y16611D01*
X247063Y16149D01*
X226500D01*
X226041Y15959D01*
X223041Y12959D01*
X222851Y12500D01*
Y12233D01*
X222501Y11999D01*
X222195Y11541D01*
X222087Y11000D01*
X222195Y10459D01*
X222501Y10001D01*
X222959Y9695D01*
X223500Y9587D01*
X224041Y9695D01*
X224499Y10001D01*
X224500Y10002D01*
X225000D01*
X225001Y10001D01*
X225459Y9695D01*
X226000Y9587D01*
X226541Y9695D01*
X226999Y10001D01*
X227273D01*
X227731Y9695D01*
X228272Y9587D01*
X228812Y9695D01*
X229271Y10001D01*
X229335Y10097D01*
X229937D01*
X230001Y10001D01*
X230459Y9695D01*
X231000Y9587D01*
X231541Y9695D01*
X231930Y9955D01*
X232154Y10002D01*
X232346D01*
X232570Y9955D01*
X232959Y9695D01*
X233500Y9587D01*
X234041Y9695D01*
X234499Y10001D01*
X234805Y10459D01*
X234913Y11000D01*
X235201Y11351D01*
X243903D01*
X244174Y10851D01*
X244087Y10414D01*
X244195Y9873D01*
X244402Y9564D01*
X244208Y9094D01*
X244180Y9064D01*
X222355D01*
X220831Y10588D01*
X220913Y11000D01*
X220805Y11541D01*
X220499Y11999D01*
X220041Y12305D01*
X219500Y12413D01*
X218959Y12305D01*
X218501Y11999D01*
X218481Y11970D01*
X217976Y11929D01*
X217541Y12220D01*
X217000Y12327D01*
X216459Y12220D01*
X216001Y11913D01*
X215999Y11910D01*
X215498D01*
X215494Y11916D01*
X215036Y12222D01*
X214495Y12330D01*
X213954Y12222D01*
X213607Y11990D01*
X213065Y11980D01*
X212965Y12022D01*
X212541Y12305D01*
X212000Y12413D01*
X211848Y12383D01*
X211649Y12851D01*
X221147Y22349D01*
X221607Y22103D01*
D02*
G37*
G36*
X288501Y14501D02*
X288959Y14195D01*
X289100Y14167D01*
X289206Y13636D01*
X289001Y13499D01*
X288695Y13041D01*
X288617Y12649D01*
X287131D01*
X286672Y12459D01*
X282476Y8264D01*
X267729D01*
X267538Y8726D01*
X273663Y14851D01*
X288267D01*
X288501Y14501D01*
D02*
G37*
G36*
X295268Y5651D02*
X295195Y5541D01*
X295087Y5000D01*
X295169Y4588D01*
X293245Y2664D01*
X286155D01*
X285964Y3126D01*
X288989Y6151D01*
X295001D01*
X295268Y5651D01*
D02*
G37*
%LPC*%
G36*
X316500Y357413D02*
X315959Y357305D01*
X315501Y356999D01*
X315195Y356541D01*
X315087Y356000D01*
X315195Y355459D01*
X315501Y355001D01*
X315959Y354695D01*
X316500Y354587D01*
X317041Y354695D01*
X317499Y355001D01*
X317805Y355459D01*
X317913Y356000D01*
X317805Y356541D01*
X317499Y356999D01*
X317041Y357305D01*
X316500Y357413D01*
D02*
G37*
G36*
X309500Y356913D02*
X308959Y356805D01*
X308501Y356499D01*
X308195Y356041D01*
X308087Y355500D01*
X308195Y354959D01*
X308501Y354501D01*
X308959Y354195D01*
X309500Y354087D01*
X310041Y354195D01*
X310499Y354501D01*
X310805Y354959D01*
X310913Y355500D01*
X310805Y356041D01*
X310499Y356499D01*
X310041Y356805D01*
X309500Y356913D01*
D02*
G37*
G36*
X190000Y384413D02*
X189459Y384305D01*
X189001Y383999D01*
X188695Y383541D01*
X188587Y383000D01*
X188695Y382459D01*
X189001Y382001D01*
X189459Y381695D01*
X190000Y381587D01*
X190541Y381695D01*
X190999Y382001D01*
X191305Y382459D01*
X191413Y383000D01*
X191305Y383541D01*
X190999Y383999D01*
X190541Y384305D01*
X190000Y384413D01*
D02*
G37*
G36*
X342500Y383327D02*
X341959Y383220D01*
X341501Y382913D01*
X341195Y382455D01*
X341087Y381914D01*
X341195Y381374D01*
X341501Y380915D01*
X341959Y380609D01*
X342500Y380501D01*
X343041Y380609D01*
X343499Y380915D01*
X343805Y381374D01*
X343913Y381914D01*
X343805Y382455D01*
X343499Y382913D01*
X343041Y383220D01*
X342500Y383327D01*
D02*
G37*
G36*
X308875Y381538D02*
X308334Y381430D01*
X307876Y381124D01*
X307570Y380666D01*
X307462Y380125D01*
X307570Y379584D01*
X307876Y379126D01*
X308334Y378820D01*
X308875Y378712D01*
X309416Y378820D01*
X309874Y379126D01*
X310180Y379584D01*
X310288Y380125D01*
X310180Y380666D01*
X309874Y381124D01*
X309416Y381430D01*
X308875Y381538D01*
D02*
G37*
G36*
X336500Y381413D02*
X335959Y381305D01*
X335501Y380999D01*
X335195Y380541D01*
X335087Y380000D01*
X335195Y379459D01*
X335501Y379001D01*
X335959Y378695D01*
X336500Y378587D01*
X337041Y378695D01*
X337499Y379001D01*
X337805Y379459D01*
X337913Y380000D01*
X337805Y380541D01*
X337499Y380999D01*
X337041Y381305D01*
X336500Y381413D01*
D02*
G37*
G36*
X192500D02*
X191959Y381305D01*
X191501Y380999D01*
X191195Y380541D01*
X191087Y380000D01*
X191195Y379459D01*
X191501Y379001D01*
X191959Y378695D01*
X192500Y378587D01*
X193041Y378695D01*
X193499Y379001D01*
X193805Y379459D01*
X193913Y380000D01*
X193805Y380541D01*
X193499Y380999D01*
X193041Y381305D01*
X192500Y381413D01*
D02*
G37*
G36*
X358997Y378910D02*
X358457Y378803D01*
X357998Y378496D01*
X357692Y378038D01*
X357584Y377497D01*
X357692Y376957D01*
X357998Y376498D01*
X358457Y376192D01*
X358997Y376084D01*
X359538Y376192D01*
X359996Y376498D01*
X360303Y376957D01*
X360410Y377497D01*
X360303Y378038D01*
X359996Y378496D01*
X359538Y378803D01*
X358997Y378910D01*
D02*
G37*
G36*
X361500Y376413D02*
X360959Y376305D01*
X360501Y375999D01*
X360195Y375541D01*
X360087Y375000D01*
X360195Y374459D01*
X360501Y374001D01*
X360959Y373695D01*
X361500Y373587D01*
X362041Y373695D01*
X362499Y374001D01*
X362805Y374459D01*
X362913Y375000D01*
X362805Y375541D01*
X362499Y375999D01*
X362041Y376305D01*
X361500Y376413D01*
D02*
G37*
G36*
X309500D02*
X308959Y376305D01*
X308501Y375999D01*
X308195Y375541D01*
X308087Y375000D01*
X308195Y374459D01*
X308501Y374001D01*
X308959Y373695D01*
X309500Y373587D01*
X310041Y373695D01*
X310499Y374001D01*
X310805Y374459D01*
X310913Y375000D01*
X310805Y375541D01*
X310499Y375999D01*
X310041Y376305D01*
X309500Y376413D01*
D02*
G37*
G36*
X243000Y376227D02*
X242459Y376120D01*
X242001Y375813D01*
X241695Y375355D01*
X241587Y374814D01*
X241695Y374273D01*
X242001Y373815D01*
X242459Y373509D01*
X243000Y373401D01*
X243541Y373509D01*
X243999Y373815D01*
X244305Y374273D01*
X244413Y374814D01*
X244305Y375355D01*
X243999Y375813D01*
X243541Y376120D01*
X243000Y376227D01*
D02*
G37*
G36*
X203000Y375913D02*
X202459Y375805D01*
X202001Y375499D01*
X201695Y375041D01*
X201587Y374500D01*
X201695Y373959D01*
X202001Y373501D01*
X202459Y373195D01*
X203000Y373087D01*
X203541Y373195D01*
X203999Y373501D01*
X204305Y373959D01*
X204413Y374500D01*
X204305Y375041D01*
X203999Y375499D01*
X203541Y375805D01*
X203000Y375913D01*
D02*
G37*
G36*
X182500D02*
X181959Y375805D01*
X181501Y375499D01*
X181195Y375041D01*
X181087Y374500D01*
X181195Y373959D01*
X181501Y373501D01*
X181959Y373195D01*
X182500Y373087D01*
X183041Y373195D01*
X183499Y373501D01*
X183805Y373959D01*
X183913Y374500D01*
X183805Y375041D01*
X183499Y375499D01*
X183041Y375805D01*
X182500Y375913D01*
D02*
G37*
G36*
X161500Y375413D02*
X160959Y375305D01*
X160501Y374999D01*
X160195Y374541D01*
X160087Y374000D01*
X160195Y373459D01*
X160501Y373001D01*
X160959Y372695D01*
X161500Y372587D01*
X162041Y372695D01*
X162499Y373001D01*
X162805Y373459D01*
X162913Y374000D01*
X162805Y374541D01*
X162499Y374999D01*
X162041Y375305D01*
X161500Y375413D01*
D02*
G37*
G36*
X141500D02*
X140959Y375305D01*
X140501Y374999D01*
X140195Y374541D01*
X140087Y374000D01*
X140195Y373459D01*
X140501Y373001D01*
X140959Y372695D01*
X141500Y372587D01*
X142041Y372695D01*
X142499Y373001D01*
X142805Y373459D01*
X142913Y374000D01*
X142805Y374541D01*
X142499Y374999D01*
X142041Y375305D01*
X141500Y375413D01*
D02*
G37*
G36*
X378618Y389375D02*
X376610Y389177D01*
X374679Y388591D01*
X372900Y387640D01*
X371340Y386360D01*
X370061Y384801D01*
X369110Y383021D01*
X368524Y381091D01*
X368326Y379083D01*
X368524Y377075D01*
X369110Y375144D01*
X370061Y373365D01*
X371340Y371805D01*
X372900Y370525D01*
X374679Y369574D01*
X376610Y368988D01*
X378618Y368791D01*
X380626Y368988D01*
X382557Y369574D01*
X384336Y370525D01*
X385896Y371805D01*
X387176Y373365D01*
X388127Y375144D01*
X388712Y377075D01*
X388910Y379083D01*
X388712Y381091D01*
X388127Y383021D01*
X387176Y384801D01*
X385896Y386360D01*
X384336Y387640D01*
X382557Y388591D01*
X380626Y389177D01*
X378618Y389375D01*
D02*
G37*
G36*
X15626D02*
X13618Y389177D01*
X11687Y388591D01*
X9908Y387640D01*
X8348Y386360D01*
X7068Y384801D01*
X6117Y383021D01*
X5532Y381091D01*
X5334Y379083D01*
X5532Y377075D01*
X6117Y375144D01*
X7068Y373365D01*
X8348Y371805D01*
X9908Y370525D01*
X11687Y369574D01*
X13618Y368988D01*
X15626Y368791D01*
X17634Y368988D01*
X19565Y369574D01*
X21344Y370525D01*
X22904Y371805D01*
X24183Y373365D01*
X25135Y375144D01*
X25720Y377075D01*
X25918Y379083D01*
X25720Y381091D01*
X25135Y383021D01*
X24183Y384801D01*
X22904Y386360D01*
X21344Y387640D01*
X19565Y388591D01*
X17634Y389177D01*
X15626Y389375D01*
D02*
G37*
G36*
X223500Y365913D02*
X222959Y365805D01*
X222501Y365499D01*
X222195Y365041D01*
X222087Y364500D01*
X222127Y364298D01*
X221702Y363873D01*
X221500Y363913D01*
X221298Y363873D01*
X220873Y364298D01*
X220913Y364500D01*
X220805Y365041D01*
X220499Y365499D01*
X220041Y365805D01*
X219500Y365913D01*
X218959Y365805D01*
X218501Y365499D01*
X218195Y365041D01*
X218087Y364500D01*
X218127Y364298D01*
X217702Y363873D01*
X217500Y363913D01*
X217298Y363873D01*
X216873Y364298D01*
X216913Y364500D01*
X216805Y365041D01*
X216499Y365499D01*
X216041Y365805D01*
X215500Y365913D01*
X214959Y365805D01*
X214501Y365499D01*
X214195Y365041D01*
X214087Y364500D01*
X213696Y364112D01*
X213537Y364123D01*
X213163Y364500D01*
X213055Y365041D01*
X212749Y365499D01*
X212291Y365805D01*
X211750Y365913D01*
X211209Y365805D01*
X210751Y365499D01*
X210445Y365041D01*
X210337Y364500D01*
X209963Y364123D01*
X209804Y364112D01*
X209413Y364500D01*
X209305Y365041D01*
X208999Y365499D01*
X208541Y365805D01*
X208000Y365913D01*
X207459Y365805D01*
X207001Y365499D01*
X206695Y365041D01*
X206587Y364500D01*
X206627Y364298D01*
X206202Y363873D01*
X206000Y363913D01*
X205798Y363873D01*
X205373Y364298D01*
X205413Y364500D01*
X205305Y365041D01*
X204999Y365499D01*
X204541Y365805D01*
X204000Y365913D01*
X203459Y365805D01*
X203001Y365499D01*
X202695Y365041D01*
X202587Y364500D01*
X202627Y364298D01*
X202202Y363873D01*
X202000Y363913D01*
X201798Y363873D01*
X201373Y364298D01*
X201413Y364500D01*
X201305Y365041D01*
X200999Y365499D01*
X200541Y365805D01*
X200000Y365913D01*
X199459Y365805D01*
X199001Y365499D01*
X198695Y365041D01*
X198587Y364500D01*
X198627Y364298D01*
X198202Y363873D01*
X198000Y363913D01*
X197798Y363873D01*
X197373Y364298D01*
X197413Y364500D01*
X197305Y365041D01*
X196999Y365499D01*
X196541Y365805D01*
X196000Y365913D01*
X195459Y365805D01*
X195001Y365499D01*
X194695Y365041D01*
X194587Y364500D01*
X194624Y364316D01*
X194199Y363891D01*
X194086Y363913D01*
X193545Y363805D01*
X193087Y363499D01*
X192780Y363041D01*
X192673Y362500D01*
X192780Y361959D01*
X193087Y361501D01*
X193545Y361195D01*
X194086Y361087D01*
X194626Y361195D01*
X195085Y361501D01*
X195391Y361959D01*
X195499Y362500D01*
X195462Y362684D01*
X195887Y363109D01*
X196000Y363087D01*
X196202Y363127D01*
X196627Y362702D01*
X196587Y362500D01*
X196695Y361959D01*
X197001Y361501D01*
X197459Y361195D01*
X198000Y361087D01*
X198541Y361195D01*
X198999Y361501D01*
X199305Y361959D01*
X199413Y362500D01*
X199373Y362702D01*
X199730Y363059D01*
X200270D01*
X200627Y362702D01*
X200587Y362500D01*
X200695Y361959D01*
X201001Y361501D01*
X201459Y361195D01*
X202000Y361087D01*
X202541Y361195D01*
X202999Y361501D01*
X203305Y361959D01*
X203413Y362500D01*
X203373Y362702D01*
X203730Y363059D01*
X204270D01*
X204627Y362702D01*
X204587Y362500D01*
X204695Y361959D01*
X205001Y361501D01*
X205459Y361195D01*
X206000Y361087D01*
X206541Y361195D01*
X206999Y361501D01*
X207305Y361959D01*
X207413Y362500D01*
X207373Y362702D01*
X207730Y363059D01*
X208270D01*
X208627Y362702D01*
X208587Y362500D01*
X208695Y361959D01*
X209001Y361501D01*
X209459Y361195D01*
X210000Y361087D01*
X210541Y361195D01*
X210999Y361501D01*
X211305Y361959D01*
X211413Y362500D01*
X211750Y362725D01*
X212087Y362500D01*
X212195Y361959D01*
X212501Y361501D01*
X212959Y361195D01*
X213500Y361087D01*
X214041Y361195D01*
X214499Y361501D01*
X214805Y361959D01*
X214913Y362500D01*
X214873Y362702D01*
X215298Y363127D01*
X215500Y363087D01*
X215702Y363127D01*
X216127Y362702D01*
X216087Y362500D01*
X216195Y361959D01*
X216501Y361501D01*
X216959Y361195D01*
X217500Y361087D01*
X218041Y361195D01*
X218499Y361501D01*
X218805Y361959D01*
X218913Y362500D01*
X218873Y362702D01*
X219230Y363059D01*
X219770D01*
X220127Y362702D01*
X220087Y362500D01*
X220195Y361959D01*
X220501Y361501D01*
X220959Y361195D01*
X221500Y361087D01*
X222041Y361195D01*
X222499Y361501D01*
X222805Y361959D01*
X222913Y362500D01*
X222873Y362702D01*
X223298Y363127D01*
X223500Y363087D01*
X224028Y363192D01*
X224069Y363164D01*
X224382Y362821D01*
X224195Y362541D01*
X224087Y362000D01*
X224195Y361459D01*
X224501Y361001D01*
X224959Y360695D01*
X225500Y360587D01*
X226041Y360695D01*
X226499Y361001D01*
X226805Y361459D01*
X226913Y362000D01*
X226873Y362202D01*
X227230Y362559D01*
X227770D01*
X228127Y362202D01*
X228087Y362000D01*
X228195Y361459D01*
X228501Y361001D01*
X228959Y360695D01*
X229500Y360587D01*
X230041Y360695D01*
X230499Y361001D01*
X230805Y361459D01*
X230913Y362000D01*
X230873Y362202D01*
X231230Y362559D01*
X231770D01*
X232127Y362202D01*
X232087Y362000D01*
X232195Y361459D01*
X232501Y361001D01*
X232959Y360695D01*
X233500Y360587D01*
X234041Y360695D01*
X234499Y361001D01*
X234805Y361459D01*
X234913Y362000D01*
X234873Y362202D01*
X235230Y362559D01*
X235770D01*
X236127Y362202D01*
X236087Y362000D01*
X236195Y361459D01*
X236501Y361001D01*
X236959Y360695D01*
X237500Y360587D01*
X238041Y360695D01*
X238499Y361001D01*
X238805Y361459D01*
X238913Y362000D01*
X238808Y362528D01*
X238836Y362569D01*
X239179Y362882D01*
X239459Y362695D01*
X240000Y362587D01*
X240196Y362116D01*
X240173Y362000D01*
X240280Y361459D01*
X240587Y361001D01*
X241045Y360695D01*
X241586Y360587D01*
X242126Y360695D01*
X242585Y361001D01*
X242891Y361459D01*
X242937Y361689D01*
X243450Y362097D01*
X243500Y362087D01*
X243702Y362127D01*
X244127Y361702D01*
X244087Y361500D01*
X244195Y360959D01*
X244501Y360501D01*
X244959Y360195D01*
X245500Y360087D01*
X246041Y360195D01*
X246499Y360501D01*
X246805Y360959D01*
X246913Y361500D01*
X246805Y362041D01*
X246499Y362499D01*
X246041Y362805D01*
X245500Y362913D01*
X245298Y362873D01*
X244873Y363298D01*
X244913Y363500D01*
X244805Y364041D01*
X244499Y364499D01*
X244041Y364805D01*
X243500Y364913D01*
X242959Y364805D01*
X242501Y364499D01*
X242195Y364041D01*
X241683Y363783D01*
X241402Y363856D01*
X241390Y363884D01*
X241413Y364000D01*
X241305Y364541D01*
X240999Y364999D01*
X240541Y365305D01*
X240000Y365413D01*
X239459Y365305D01*
X239001Y364999D01*
X238695Y364541D01*
X238587Y364000D01*
X238692Y363472D01*
X238664Y363431D01*
X238321Y363118D01*
X238041Y363305D01*
X237500Y363413D01*
X237298Y363373D01*
X236873Y363798D01*
X236913Y364000D01*
X236805Y364541D01*
X236499Y364999D01*
X236041Y365305D01*
X235500Y365413D01*
X234959Y365305D01*
X234501Y364999D01*
X234195Y364541D01*
X234087Y364000D01*
X234127Y363798D01*
X233702Y363373D01*
X233500Y363413D01*
X233298Y363373D01*
X232873Y363798D01*
X232913Y364000D01*
X232805Y364541D01*
X232499Y364999D01*
X232041Y365305D01*
X231500Y365413D01*
X230959Y365305D01*
X230501Y364999D01*
X230195Y364541D01*
X230087Y364000D01*
X230127Y363798D01*
X229702Y363373D01*
X229500Y363413D01*
X229298Y363373D01*
X228873Y363798D01*
X228913Y364000D01*
X228805Y364541D01*
X228499Y364999D01*
X228041Y365305D01*
X227500Y365413D01*
X226959Y365305D01*
X226501Y364999D01*
X226195Y364541D01*
X226087Y364000D01*
X226127Y363798D01*
X225702Y363373D01*
X225500Y363413D01*
X224972Y363308D01*
X224931Y363336D01*
X224618Y363679D01*
X224805Y363959D01*
X224913Y364500D01*
X224805Y365041D01*
X224499Y365499D01*
X224041Y365805D01*
X223500Y365913D01*
D02*
G37*
G36*
X260000Y363413D02*
X259459Y363305D01*
X259001Y362999D01*
X258695Y362541D01*
X258587Y362000D01*
X258695Y361459D01*
X259001Y361001D01*
X259459Y360695D01*
X260000Y360587D01*
X260541Y360695D01*
X260999Y361001D01*
X261305Y361459D01*
X261413Y362000D01*
X261305Y362541D01*
X260999Y362999D01*
X260541Y363305D01*
X260000Y363413D01*
D02*
G37*
G36*
X261978Y360391D02*
X261438Y360284D01*
X260979Y359977D01*
X260673Y359519D01*
X260565Y358978D01*
X260673Y358438D01*
X260979Y357979D01*
X261438Y357673D01*
X261978Y357565D01*
X262519Y357673D01*
X262977Y357979D01*
X263284Y358438D01*
X263391Y358978D01*
X263284Y359519D01*
X262977Y359977D01*
X262519Y360284D01*
X261978Y360391D01*
D02*
G37*
G36*
X143776Y356576D02*
X142773Y356445D01*
X141840Y356058D01*
X141038Y355442D01*
X140423Y354641D01*
X140036Y353707D01*
X139904Y352705D01*
X140036Y351703D01*
X140423Y350769D01*
X141038Y349967D01*
X141840Y349352D01*
X142773Y348965D01*
X143776Y348833D01*
X144778Y348965D01*
X145711Y349352D01*
X146513Y349967D01*
X147091Y350719D01*
X147173Y350776D01*
X147708Y350862D01*
X147959Y350695D01*
X148500Y350587D01*
X148702Y350627D01*
X149127Y350202D01*
X149087Y350000D01*
X149195Y349459D01*
X149501Y349001D01*
X149959Y348695D01*
X150500Y348587D01*
X151041Y348695D01*
X151499Y349001D01*
X151805Y349459D01*
X151913Y350000D01*
X151873Y350202D01*
X152230Y350559D01*
X152770D01*
X153127Y350202D01*
X153087Y350000D01*
X153195Y349459D01*
X153501Y349001D01*
X153959Y348695D01*
X154500Y348587D01*
X155041Y348695D01*
X155499Y349001D01*
X155805Y349459D01*
X155913Y350000D01*
X155873Y350202D01*
X156298Y350627D01*
X156500Y350587D01*
X157041Y350695D01*
X157240Y350828D01*
X157472Y350725D01*
X157723Y350549D01*
X157816Y350081D01*
X158122Y349622D01*
X158581Y349316D01*
X159121Y349208D01*
X159662Y349316D01*
X160120Y349622D01*
X160427Y350081D01*
X160534Y350621D01*
X160427Y351162D01*
X160120Y351621D01*
X159662Y351927D01*
X159121Y352034D01*
X158581Y351927D01*
X158382Y351794D01*
X158149Y351896D01*
X157899Y352072D01*
X157805Y352541D01*
X157499Y352999D01*
X157041Y353305D01*
X156500Y353413D01*
X155959Y353305D01*
X155501Y352999D01*
X155195Y352541D01*
X155087Y352000D01*
X155127Y351798D01*
X154702Y351373D01*
X154500Y351413D01*
X154298Y351373D01*
X153873Y351798D01*
X153913Y352000D01*
X153805Y352541D01*
X153499Y352999D01*
X153041Y353305D01*
X152500Y353413D01*
X151959Y353305D01*
X151501Y352999D01*
X151195Y352541D01*
X151087Y352000D01*
X151127Y351798D01*
X150702Y351373D01*
X150500Y351413D01*
X150298Y351373D01*
X149873Y351798D01*
X149913Y352000D01*
X149805Y352541D01*
X149499Y352999D01*
X149041Y353305D01*
X148500Y353413D01*
X148070Y353327D01*
X147536Y353547D01*
X147515Y353707D01*
X147129Y354641D01*
X146513Y355442D01*
X145711Y356058D01*
X144778Y356445D01*
X143776Y356576D01*
D02*
G37*
G36*
X250075D02*
X249073Y356445D01*
X248139Y356058D01*
X247337Y355442D01*
X246722Y354641D01*
X246335Y353707D01*
X246203Y352705D01*
X246335Y351703D01*
X246722Y350769D01*
X247337Y349967D01*
X248139Y349352D01*
X249073Y348965D01*
X250075Y348833D01*
X251077Y348965D01*
X252011Y349352D01*
X252813Y349967D01*
X253428Y350769D01*
X253815Y351703D01*
X253946Y352705D01*
X253815Y353707D01*
X253428Y354641D01*
X252813Y355442D01*
X252011Y356058D01*
X251077Y356445D01*
X250075Y356576D01*
D02*
G37*
G36*
X203000Y349413D02*
X202459Y349305D01*
X202001Y348999D01*
X201778Y348665D01*
X201663Y348635D01*
X201337D01*
X201222Y348665D01*
X200999Y348999D01*
X200541Y349305D01*
X200000Y349413D01*
X199459Y349305D01*
X199001Y348999D01*
X198695Y348541D01*
X198587Y348000D01*
X198695Y347459D01*
X199001Y347001D01*
X199459Y346695D01*
X200000Y346587D01*
X200541Y346695D01*
X200999Y347001D01*
X201222Y347335D01*
X201337Y347365D01*
X201663D01*
X201778Y347335D01*
X202001Y347001D01*
X202459Y346695D01*
X203000Y346587D01*
X203541Y346695D01*
X203999Y347001D01*
X204305Y347459D01*
X204413Y348000D01*
X204305Y348541D01*
X203999Y348999D01*
X203541Y349305D01*
X203000Y349413D01*
D02*
G37*
G36*
X186000Y350716D02*
X185459Y350609D01*
X185001Y350302D01*
X184695Y349844D01*
X184587Y349303D01*
X184695Y348762D01*
X184700Y348755D01*
X184377Y348338D01*
X184000Y348413D01*
X183720Y348357D01*
X183592Y348443D01*
X183333Y348777D01*
X183413Y349177D01*
X183305Y349718D01*
X182999Y350176D01*
X182541Y350483D01*
X182000Y350590D01*
X181459Y350483D01*
X181001Y350176D01*
X180695Y349718D01*
X180587Y349177D01*
X180616Y349031D01*
X180193Y348606D01*
X179652Y348498D01*
X179194Y348192D01*
X178887Y347734D01*
X178780Y347193D01*
X178887Y346652D01*
X179194Y346194D01*
X179652Y345887D01*
X180193Y345780D01*
X180734Y345887D01*
X181192Y346194D01*
X181498Y346652D01*
X181606Y347193D01*
X181577Y347339D01*
X181937Y347701D01*
X182296Y347678D01*
X182634Y347238D01*
X182587Y347000D01*
X182695Y346459D01*
X183001Y346001D01*
X183459Y345695D01*
X184000Y345587D01*
X184541Y345695D01*
X184999Y346001D01*
X185305Y346459D01*
X185413Y347000D01*
X185305Y347541D01*
X185300Y347548D01*
X185623Y347965D01*
X186000Y347890D01*
X186541Y347998D01*
X186999Y348304D01*
X187305Y348762D01*
X187413Y349303D01*
X187305Y349844D01*
X186999Y350302D01*
X186541Y350609D01*
X186000Y350716D01*
D02*
G37*
G36*
X41700Y351594D02*
Y348200D01*
X45094D01*
X44997Y348937D01*
X44635Y349810D01*
X44060Y350560D01*
X43310Y351135D01*
X42437Y351497D01*
X41700Y351594D01*
D02*
G37*
G36*
X41300D02*
X40563Y351497D01*
X39690Y351135D01*
X38940Y350560D01*
X38365Y349810D01*
X38003Y348937D01*
X37906Y348200D01*
X41300D01*
Y351594D01*
D02*
G37*
G36*
X160500Y348413D02*
X159959Y348305D01*
X159501Y347999D01*
X159195Y347541D01*
X159182Y347478D01*
X158782Y347431D01*
X158666Y347446D01*
X158378Y347878D01*
X157919Y348184D01*
X157379Y348292D01*
X156838Y348184D01*
X156379Y347878D01*
X156073Y347419D01*
X155966Y346879D01*
X156073Y346338D01*
X156379Y345880D01*
X156838Y345573D01*
X157379Y345466D01*
X157919Y345573D01*
X158378Y345880D01*
X158684Y346338D01*
X158696Y346400D01*
X159096Y346448D01*
X159213Y346432D01*
X159501Y346001D01*
X159959Y345695D01*
X160500Y345587D01*
X161041Y345695D01*
X161499Y346001D01*
X161805Y346459D01*
X161913Y347000D01*
X161805Y347541D01*
X161499Y347999D01*
X161041Y348305D01*
X160500Y348413D01*
D02*
G37*
G36*
X190000Y349913D02*
X189459Y349805D01*
X189001Y349499D01*
X188695Y349041D01*
X188587Y348500D01*
X188695Y347959D01*
X189001Y347501D01*
X189459Y347195D01*
X190000Y347087D01*
X190541Y347195D01*
X190731Y347322D01*
X191088Y347428D01*
X191372Y347194D01*
X191501Y347001D01*
X191959Y346695D01*
X192500Y346587D01*
X193041Y346695D01*
X193499Y347001D01*
X193805Y347459D01*
X193913Y348000D01*
X193805Y348541D01*
X193499Y348999D01*
X193041Y349305D01*
X192500Y349413D01*
X191959Y349305D01*
X191769Y349178D01*
X191412Y349072D01*
X191128Y349306D01*
X190999Y349499D01*
X190541Y349805D01*
X190000Y349913D01*
D02*
G37*
G36*
X45094Y347800D02*
X41700D01*
Y344406D01*
X42437Y344503D01*
X43310Y344865D01*
X44060Y345440D01*
X44635Y346190D01*
X44997Y347063D01*
X45094Y347800D01*
D02*
G37*
G36*
X41300D02*
X37906D01*
X38003Y347063D01*
X38365Y346190D01*
X38940Y345440D01*
X39690Y344865D01*
X40563Y344503D01*
X41300Y344406D01*
Y347800D01*
D02*
G37*
G36*
X61500Y351620D02*
X60563Y351497D01*
X59690Y351135D01*
X58940Y350560D01*
X58365Y349810D01*
X58003Y348937D01*
X57880Y348000D01*
X58003Y347063D01*
X58365Y346190D01*
X58940Y345440D01*
X59690Y344865D01*
X60563Y344503D01*
X61500Y344380D01*
X62437Y344503D01*
X63310Y344865D01*
X64060Y345440D01*
X64635Y346190D01*
X64997Y347063D01*
X65120Y348000D01*
X64997Y348937D01*
X64635Y349810D01*
X64060Y350560D01*
X63310Y351135D01*
X62437Y351497D01*
X61500Y351620D01*
D02*
G37*
G36*
X51500D02*
X50563Y351497D01*
X49690Y351135D01*
X48940Y350560D01*
X48365Y349810D01*
X48003Y348937D01*
X47880Y348000D01*
X48003Y347063D01*
X48365Y346190D01*
X48940Y345440D01*
X49690Y344865D01*
X50563Y344503D01*
X51500Y344380D01*
X52437Y344503D01*
X53310Y344865D01*
X54060Y345440D01*
X54635Y346190D01*
X54997Y347063D01*
X55120Y348000D01*
X54997Y348937D01*
X54635Y349810D01*
X54060Y350560D01*
X53310Y351135D01*
X52437Y351497D01*
X51500Y351620D01*
D02*
G37*
G36*
X310495Y341327D02*
X309955Y341220D01*
X309496Y340913D01*
X309190Y340455D01*
X309083Y339914D01*
X309190Y339373D01*
X309496Y338915D01*
X309955Y338609D01*
X310495Y338501D01*
X311036Y338609D01*
X311495Y338915D01*
X311801Y339373D01*
X311909Y339914D01*
X311801Y340455D01*
X311495Y340913D01*
X311036Y341220D01*
X310495Y341327D01*
D02*
G37*
G36*
X331500Y340913D02*
X330959Y340805D01*
X330501Y340499D01*
X330195Y340041D01*
X330087Y339500D01*
X330195Y338959D01*
X330501Y338501D01*
X330959Y338195D01*
X331500Y338087D01*
X332041Y338195D01*
X332499Y338501D01*
X332805Y338959D01*
X332913Y339500D01*
X332805Y340041D01*
X332499Y340499D01*
X332041Y340805D01*
X331500Y340913D01*
D02*
G37*
G36*
X172500Y338413D02*
X171959Y338305D01*
X171501Y337999D01*
X171195Y337541D01*
X171174Y337436D01*
X171045Y337007D01*
X170631Y337073D01*
X170500Y337099D01*
X170370Y337073D01*
X169955Y337007D01*
X169826Y337436D01*
X169805Y337541D01*
X169499Y337999D01*
X169041Y338305D01*
X168500Y338413D01*
X167959Y338305D01*
X167501Y337999D01*
X167195Y337541D01*
X167087Y337000D01*
X167195Y336459D01*
X167297Y336307D01*
X166996Y335857D01*
X166713Y335913D01*
X166172Y335805D01*
X165714Y335499D01*
X165407Y335041D01*
X165300Y334500D01*
X165407Y333959D01*
X165714Y333501D01*
X166172Y333195D01*
X166713Y333087D01*
X167253Y333195D01*
X167712Y333501D01*
X168018Y333959D01*
X168126Y334500D01*
X168018Y335041D01*
X167916Y335193D01*
X168217Y335643D01*
X168500Y335587D01*
X168631Y335613D01*
X169045Y335679D01*
X169174Y335250D01*
X169195Y335145D01*
X169501Y334687D01*
X169959Y334380D01*
X170500Y334273D01*
X171041Y334380D01*
X171499Y334687D01*
X171805Y335145D01*
X171826Y335250D01*
X171955Y335679D01*
X172370Y335613D01*
X172500Y335587D01*
X173041Y335695D01*
X173499Y336001D01*
X173805Y336459D01*
X173913Y337000D01*
X173805Y337541D01*
X173499Y337999D01*
X173041Y338305D01*
X172500Y338413D01*
D02*
G37*
G36*
X160500D02*
X159959Y338305D01*
X159501Y337999D01*
X159195Y337541D01*
X159138Y337257D01*
X159082Y336999D01*
X158598Y336893D01*
X158500Y336913D01*
X158402Y336893D01*
X157917Y336999D01*
X157862Y337257D01*
X157805Y337541D01*
X157499Y337999D01*
X157041Y338305D01*
X156500Y338413D01*
X155959Y338305D01*
X155501Y337999D01*
X155195Y337541D01*
X155138Y337257D01*
X155082Y336999D01*
X154598Y336893D01*
X154500Y336913D01*
X154402Y336893D01*
X153918Y336999D01*
X153862Y337257D01*
X153805Y337541D01*
X153499Y337999D01*
X153041Y338305D01*
X152500Y338413D01*
X151959Y338305D01*
X151501Y337999D01*
X151195Y337541D01*
X151138Y337257D01*
X151083Y336999D01*
X150598Y336893D01*
X150500Y336913D01*
X150402Y336893D01*
X149917Y336999D01*
X149862Y337257D01*
X149805Y337541D01*
X149499Y337999D01*
X149041Y338305D01*
X148500Y338413D01*
X147959Y338305D01*
X147501Y337999D01*
X147195Y337541D01*
X147087Y337000D01*
X147195Y336459D01*
X147501Y336001D01*
X147959Y335695D01*
X148500Y335587D01*
X148598Y335607D01*
X149083Y335501D01*
X149138Y335243D01*
X149195Y334959D01*
X149501Y334501D01*
X149959Y334195D01*
X150500Y334087D01*
X151041Y334195D01*
X151499Y334501D01*
X151805Y334959D01*
X151862Y335243D01*
X151918Y335501D01*
X152402Y335607D01*
X152500Y335587D01*
X152598Y335607D01*
X153083Y335501D01*
X153138Y335243D01*
X153195Y334959D01*
X153501Y334501D01*
X153959Y334195D01*
X154500Y334087D01*
X155041Y334195D01*
X155499Y334501D01*
X155805Y334959D01*
X155862Y335243D01*
X155918Y335501D01*
X156402Y335607D01*
X156500Y335587D01*
X156598Y335607D01*
X157082Y335501D01*
X157138Y335243D01*
X157195Y334959D01*
X157501Y334501D01*
X157959Y334195D01*
X158500Y334087D01*
X159041Y334195D01*
X159499Y334501D01*
X159805Y334959D01*
X159862Y335243D01*
X159917Y335501D01*
X160402Y335607D01*
X160500Y335587D01*
X160598Y335607D01*
X161082Y335501D01*
X161138Y335243D01*
X161195Y334959D01*
X161501Y334501D01*
X161959Y334195D01*
X162500Y334087D01*
X163041Y334195D01*
X163499Y334501D01*
X163805Y334959D01*
X163913Y335500D01*
X163805Y336041D01*
X163499Y336499D01*
X163041Y336805D01*
X162500Y336913D01*
X162402Y336893D01*
X161917Y336999D01*
X161862Y337257D01*
X161805Y337541D01*
X161499Y337999D01*
X161041Y338305D01*
X160500Y338413D01*
D02*
G37*
G36*
X297594Y338300D02*
X294200D01*
Y334906D01*
X294937Y335003D01*
X295810Y335365D01*
X296560Y335940D01*
X297135Y336690D01*
X297497Y337563D01*
X297594Y338300D01*
D02*
G37*
G36*
X370870Y326413D02*
X370329Y326305D01*
X369871Y325999D01*
X369565Y325541D01*
X369457Y325000D01*
X369565Y324459D01*
X369871Y324001D01*
X370329Y323695D01*
X370870Y323587D01*
X371411Y323695D01*
X371869Y324001D01*
X372176Y324459D01*
X372283Y325000D01*
X372176Y325541D01*
X371869Y325999D01*
X371411Y326305D01*
X370870Y326413D01*
D02*
G37*
G36*
X371000Y315413D02*
X370459Y315305D01*
X370001Y314999D01*
X369695Y314541D01*
X369587Y314000D01*
X369695Y313459D01*
X370001Y313001D01*
X370459Y312695D01*
X371000Y312587D01*
X371541Y312695D01*
X371999Y313001D01*
X372305Y313459D01*
X372413Y314000D01*
X372305Y314541D01*
X371999Y314999D01*
X371541Y315305D01*
X371000Y315413D01*
D02*
G37*
G36*
Y287413D02*
X370459Y287305D01*
X370001Y286999D01*
X369695Y286541D01*
X369587Y286000D01*
X369695Y285459D01*
X370001Y285001D01*
X370459Y284695D01*
X371000Y284587D01*
X371541Y284695D01*
X371999Y285001D01*
X372305Y285459D01*
X372413Y286000D01*
X372305Y286541D01*
X371999Y286999D01*
X371541Y287305D01*
X371000Y287413D01*
D02*
G37*
G36*
Y252413D02*
X370459Y252305D01*
X370001Y251999D01*
X369695Y251541D01*
X369587Y251000D01*
X369695Y250459D01*
X370001Y250001D01*
X370459Y249695D01*
X371000Y249587D01*
X371541Y249695D01*
X371999Y250001D01*
X372305Y250459D01*
X372413Y251000D01*
X372305Y251541D01*
X371999Y251999D01*
X371541Y252305D01*
X371000Y252413D01*
D02*
G37*
G36*
Y247913D02*
X370459Y247805D01*
X370001Y247499D01*
X369695Y247041D01*
X369587Y246500D01*
X369695Y245959D01*
X370001Y245501D01*
X370459Y245195D01*
X371000Y245087D01*
X371541Y245195D01*
X371999Y245501D01*
X372305Y245959D01*
X372413Y246500D01*
X372305Y247041D01*
X371999Y247499D01*
X371541Y247805D01*
X371000Y247913D01*
D02*
G37*
G36*
Y243913D02*
X370459Y243805D01*
X370001Y243499D01*
X369695Y243041D01*
X369587Y242500D01*
X369695Y241959D01*
X370001Y241501D01*
X370459Y241195D01*
X371000Y241087D01*
X371541Y241195D01*
X371999Y241501D01*
X372305Y241959D01*
X372413Y242500D01*
X372305Y243041D01*
X371999Y243499D01*
X371541Y243805D01*
X371000Y243913D01*
D02*
G37*
G36*
X358000Y216913D02*
X357459Y216805D01*
X357001Y216499D01*
X356695Y216041D01*
X356587Y215500D01*
X356695Y214959D01*
X357001Y214501D01*
X357459Y214195D01*
X358000Y214087D01*
X358541Y214195D01*
X358999Y214501D01*
X359305Y214959D01*
X359413Y215500D01*
X359305Y216041D01*
X358999Y216499D01*
X358541Y216805D01*
X358000Y216913D01*
D02*
G37*
G36*
X380442Y202756D02*
X379902Y202649D01*
X379443Y202343D01*
X379137Y201884D01*
X379029Y201343D01*
X379137Y200803D01*
X379443Y200344D01*
X379902Y200038D01*
X380442Y199930D01*
X380983Y200038D01*
X381442Y200344D01*
X381748Y200803D01*
X381855Y201343D01*
X381748Y201884D01*
X381442Y202343D01*
X380983Y202649D01*
X380442Y202756D01*
D02*
G37*
G36*
X380286Y192913D02*
X379745Y192805D01*
X379287Y192499D01*
X378980Y192041D01*
X378873Y191500D01*
X378980Y190959D01*
X379287Y190501D01*
X379745Y190195D01*
X380286Y190087D01*
X380826Y190195D01*
X381285Y190501D01*
X381591Y190959D01*
X381699Y191500D01*
X381591Y192041D01*
X381285Y192499D01*
X380826Y192805D01*
X380286Y192913D01*
D02*
G37*
G36*
X356000Y188413D02*
X355459Y188305D01*
X355001Y187999D01*
X354695Y187541D01*
X354587Y187000D01*
X354669Y186588D01*
X354041Y185959D01*
X353851Y185500D01*
Y181714D01*
X354041Y181255D01*
X354883Y180412D01*
X354801Y180000D01*
X354909Y179459D01*
X355215Y179001D01*
X355359Y178904D01*
X355499Y178405D01*
X355435Y178299D01*
X355195Y177939D01*
X355087Y177399D01*
X355195Y176858D01*
X355501Y176400D01*
X355959Y176093D01*
X356500Y175986D01*
X357041Y176093D01*
X357499Y176400D01*
X357805Y176858D01*
X357913Y177399D01*
X357805Y177939D01*
X357499Y178398D01*
X357355Y178494D01*
X357215Y178994D01*
X357280Y179100D01*
X357520Y179459D01*
X357627Y180000D01*
X357520Y180541D01*
X357213Y180999D01*
X356914Y181199D01*
X356857Y181692D01*
X356879Y181778D01*
X357085Y181915D01*
X357391Y182373D01*
X357499Y182914D01*
X357391Y183455D01*
X357085Y183913D01*
X356627Y184220D01*
X356086Y184327D01*
X355649Y184240D01*
X355149Y184511D01*
Y185231D01*
X355588Y185669D01*
X356000Y185587D01*
X356541Y185695D01*
X356999Y186001D01*
X357305Y186459D01*
X357413Y187000D01*
X357305Y187541D01*
X356999Y187999D01*
X356541Y188305D01*
X356000Y188413D01*
D02*
G37*
G36*
X380429Y180913D02*
X379888Y180805D01*
X379430Y180499D01*
X379124Y180041D01*
X379016Y179500D01*
X379124Y178959D01*
X379430Y178501D01*
X379888Y178195D01*
X380429Y178087D01*
X380970Y178195D01*
X381428Y178501D01*
X381734Y178959D01*
X381842Y179500D01*
X381734Y180041D01*
X381428Y180499D01*
X380970Y180805D01*
X380429Y180913D01*
D02*
G37*
G36*
X358000Y163913D02*
X357459Y163805D01*
X357001Y163499D01*
X356695Y163041D01*
X356587Y162500D01*
X356695Y161959D01*
X356955Y161570D01*
X357002Y161346D01*
Y161154D01*
X356955Y160930D01*
X356695Y160541D01*
X356587Y160000D01*
X356695Y159459D01*
X357001Y159001D01*
X357459Y158695D01*
X358000Y158587D01*
X358541Y158695D01*
X358999Y159001D01*
X359305Y159459D01*
X359413Y160000D01*
X359305Y160541D01*
X359045Y160930D01*
X358998Y161154D01*
Y161346D01*
X359045Y161570D01*
X359305Y161959D01*
X359413Y162500D01*
X359305Y163041D01*
X358999Y163499D01*
X358541Y163805D01*
X358000Y163913D01*
D02*
G37*
G36*
X380614Y149749D02*
X380073Y149642D01*
X379615Y149336D01*
X379309Y148877D01*
X379201Y148336D01*
X379309Y147796D01*
X379615Y147337D01*
X380073Y147031D01*
X380614Y146923D01*
X381155Y147031D01*
X381613Y147337D01*
X381920Y147796D01*
X382027Y148336D01*
X381920Y148877D01*
X381613Y149336D01*
X381155Y149642D01*
X380614Y149749D01*
D02*
G37*
G36*
X378000Y126867D02*
X377459Y126760D01*
X377001Y126453D01*
X376695Y125995D01*
X376587Y125454D01*
X376695Y124914D01*
X377001Y124455D01*
X377459Y124149D01*
X378000Y124041D01*
X378541Y124149D01*
X378999Y124455D01*
X379305Y124914D01*
X379413Y125454D01*
X379305Y125995D01*
X378999Y126453D01*
X378541Y126760D01*
X378000Y126867D01*
D02*
G37*
G36*
X300000Y98913D02*
X299459Y98805D01*
X299001Y98499D01*
X298695Y98041D01*
X298587Y97500D01*
X298695Y96959D01*
X299001Y96501D01*
X299459Y96195D01*
X300000Y96087D01*
X300541Y96195D01*
X300999Y96501D01*
X301305Y96959D01*
X301413Y97500D01*
X301305Y98041D01*
X300999Y98499D01*
X300541Y98805D01*
X300000Y98913D01*
D02*
G37*
G36*
X304000Y97913D02*
X303459Y97805D01*
X303001Y97499D01*
X302695Y97041D01*
X302587Y96500D01*
X302695Y95959D01*
X303001Y95501D01*
X303459Y95195D01*
X304000Y95087D01*
X304541Y95195D01*
X304999Y95501D01*
X305305Y95959D01*
X305413Y96500D01*
X305305Y97041D01*
X304999Y97499D01*
X304541Y97805D01*
X304000Y97913D01*
D02*
G37*
G36*
X307500Y95913D02*
X306959Y95805D01*
X306501Y95499D01*
X306195Y95041D01*
X306087Y94500D01*
X306195Y93959D01*
X306501Y93501D01*
X306959Y93195D01*
X307500Y93087D01*
X308041Y93195D01*
X308499Y93501D01*
X308805Y93959D01*
X308913Y94500D01*
X308805Y95041D01*
X308499Y95499D01*
X308041Y95805D01*
X307500Y95913D01*
D02*
G37*
G36*
X316000Y94413D02*
X315459Y94305D01*
X315001Y93999D01*
X314695Y93541D01*
X314587Y93000D01*
X314695Y92459D01*
X315001Y92001D01*
X315459Y91695D01*
X316000Y91587D01*
X316541Y91695D01*
X316999Y92001D01*
X317305Y92459D01*
X317413Y93000D01*
X317305Y93541D01*
X316999Y93999D01*
X316541Y94305D01*
X316000Y94413D01*
D02*
G37*
G36*
X295500Y93913D02*
X294959Y93805D01*
X294501Y93499D01*
X294195Y93041D01*
X294087Y92500D01*
X294195Y91959D01*
X294501Y91501D01*
X294959Y91195D01*
X295500Y91087D01*
X296041Y91195D01*
X296499Y91501D01*
X296805Y91959D01*
X296913Y92500D01*
X296805Y93041D01*
X296499Y93499D01*
X296041Y93805D01*
X295500Y93913D01*
D02*
G37*
G36*
X301000Y93413D02*
X300459Y93305D01*
X300001Y92999D01*
X299695Y92541D01*
X299587Y92000D01*
X299695Y91459D01*
X300001Y91001D01*
X300459Y90695D01*
X301000Y90587D01*
X301541Y90695D01*
X301999Y91001D01*
X302305Y91459D01*
X302413Y92000D01*
X302305Y92541D01*
X301999Y92999D01*
X301541Y93305D01*
X301000Y93413D01*
D02*
G37*
G36*
X307500Y91913D02*
X306959Y91805D01*
X306501Y91499D01*
X306195Y91041D01*
X306087Y90500D01*
X306107Y90402D01*
X306001Y89917D01*
X305743Y89862D01*
X305459Y89805D01*
X305001Y89499D01*
X304695Y89041D01*
X304587Y88500D01*
X304695Y87959D01*
X305001Y87501D01*
X305459Y87195D01*
X306000Y87087D01*
X306541Y87195D01*
X306999Y87501D01*
X307305Y87959D01*
X307413Y88500D01*
X307393Y88598D01*
X307417Y88705D01*
X307630Y88768D01*
X307805Y88665D01*
X308109Y88390D01*
X308195Y87959D01*
X308501Y87501D01*
X308959Y87195D01*
X309500Y87087D01*
X310041Y87195D01*
X310499Y87501D01*
X310805Y87959D01*
X310913Y88500D01*
X310805Y89041D01*
X310499Y89499D01*
X310041Y89805D01*
X309500Y89913D01*
X309298Y89873D01*
X308873Y90298D01*
X308913Y90500D01*
X308805Y91041D01*
X308499Y91499D01*
X308041Y91805D01*
X307500Y91913D01*
D02*
G37*
G36*
X302586Y89913D02*
X302045Y89805D01*
X301587Y89499D01*
X301280Y89041D01*
X301173Y88500D01*
X301280Y87959D01*
X301587Y87501D01*
X302045Y87195D01*
X302586Y87087D01*
X303127Y87195D01*
X303585Y87501D01*
X303891Y87959D01*
X303999Y88500D01*
X303891Y89041D01*
X303585Y89499D01*
X303127Y89805D01*
X302586Y89913D01*
D02*
G37*
G36*
X299000D02*
X298459Y89805D01*
X298001Y89499D01*
X297695Y89041D01*
X297587Y88500D01*
X297695Y87959D01*
X298001Y87501D01*
X298459Y87195D01*
X299000Y87087D01*
X299541Y87195D01*
X299999Y87501D01*
X300305Y87959D01*
X300413Y88500D01*
X300305Y89041D01*
X299999Y89499D01*
X299541Y89805D01*
X299000Y89913D01*
D02*
G37*
G36*
X292000Y92413D02*
X291459Y92305D01*
X291001Y91999D01*
X290695Y91541D01*
X290587Y91000D01*
X290695Y90459D01*
X291001Y90001D01*
X291459Y89695D01*
X292000Y89587D01*
X292051Y89597D01*
X292352Y89147D01*
X292280Y89041D01*
X292173Y88500D01*
X292280Y87959D01*
X292587Y87501D01*
X293045Y87195D01*
X293586Y87087D01*
X294127Y87195D01*
X294585Y87501D01*
X294891Y87959D01*
X294999Y88500D01*
X294891Y89041D01*
X294585Y89499D01*
X294127Y89805D01*
X293586Y89913D01*
X293535Y89903D01*
X293234Y90353D01*
X293305Y90459D01*
X293413Y91000D01*
X293305Y91541D01*
X292999Y91999D01*
X292541Y92305D01*
X292000Y92413D01*
D02*
G37*
G36*
X109500Y91540D02*
X108528Y91347D01*
X107704Y90796D01*
X107153Y89972D01*
X106959Y89000D01*
X107153Y88028D01*
X107704Y87204D01*
X108528Y86653D01*
X109500Y86459D01*
X110472Y86653D01*
X111296Y87204D01*
X111847Y88028D01*
X112040Y89000D01*
X111847Y89972D01*
X111296Y90796D01*
X110472Y91347D01*
X109500Y91540D01*
D02*
G37*
G36*
X82000D02*
X81028Y91347D01*
X80204Y90796D01*
X79653Y89972D01*
X79460Y89000D01*
X79653Y88028D01*
X80204Y87204D01*
X81028Y86653D01*
X82000Y86459D01*
X82972Y86653D01*
X83796Y87204D01*
X84347Y88028D01*
X84540Y89000D01*
X84347Y89972D01*
X83796Y90796D01*
X82972Y91347D01*
X82000Y91540D01*
D02*
G37*
G36*
X376000Y88413D02*
X375459Y88305D01*
X375001Y87999D01*
X374695Y87541D01*
X374587Y87000D01*
X374695Y86459D01*
X375001Y86001D01*
X375459Y85695D01*
X376000Y85587D01*
X376541Y85695D01*
X376999Y86001D01*
X377305Y86459D01*
X377413Y87000D01*
X377305Y87541D01*
X376999Y87999D01*
X376541Y88305D01*
X376000Y88413D01*
D02*
G37*
G36*
X168200Y83661D02*
Y81200D01*
X170661D01*
X170595Y81695D01*
X170327Y82344D01*
X169900Y82900D01*
X169343Y83327D01*
X168695Y83595D01*
X168200Y83661D01*
D02*
G37*
G36*
X223700D02*
Y81200D01*
X226161D01*
X226095Y81695D01*
X225827Y82344D01*
X225400Y82900D01*
X224844Y83327D01*
X224195Y83595D01*
X223700Y83661D01*
D02*
G37*
G36*
X223300D02*
X222805Y83595D01*
X222157Y83327D01*
X221600Y82900D01*
X221173Y82344D01*
X220905Y81695D01*
X220839Y81200D01*
X223300D01*
Y83661D01*
D02*
G37*
G36*
X167800D02*
X167305Y83595D01*
X166656Y83327D01*
X166100Y82900D01*
X165673Y82344D01*
X165405Y81695D01*
X165339Y81200D01*
X167800D01*
Y83661D01*
D02*
G37*
G36*
X280500Y81413D02*
X279959Y81305D01*
X279501Y80999D01*
X279195Y80541D01*
X279087Y80000D01*
X279195Y79459D01*
X279501Y79001D01*
X279959Y78695D01*
X280500Y78587D01*
X281041Y78695D01*
X281499Y79001D01*
X281805Y79459D01*
X281913Y80000D01*
X281805Y80541D01*
X281499Y80999D01*
X281041Y81305D01*
X280500Y81413D01*
D02*
G37*
G36*
X208500Y83540D02*
X207528Y83347D01*
X206704Y82796D01*
X206153Y81972D01*
X205960Y81000D01*
X206153Y80028D01*
X206704Y79204D01*
X207528Y78653D01*
X208500Y78460D01*
X209472Y78653D01*
X210296Y79204D01*
X210847Y80028D01*
X211040Y81000D01*
X210847Y81972D01*
X210296Y82796D01*
X209472Y83347D01*
X208500Y83540D01*
D02*
G37*
G36*
X183000D02*
X182028Y83347D01*
X181204Y82796D01*
X180653Y81972D01*
X180459Y81000D01*
X180653Y80028D01*
X181204Y79204D01*
X182028Y78653D01*
X183000Y78460D01*
X183972Y78653D01*
X184796Y79204D01*
X185347Y80028D01*
X185540Y81000D01*
X185347Y81972D01*
X184796Y82796D01*
X183972Y83347D01*
X183000Y83540D01*
D02*
G37*
G36*
X170661Y80800D02*
X168200D01*
Y78339D01*
X168695Y78405D01*
X169343Y78673D01*
X169900Y79100D01*
X170327Y79656D01*
X170595Y80305D01*
X170661Y80800D01*
D02*
G37*
G36*
X226161D02*
X223700D01*
Y78339D01*
X224195Y78405D01*
X224844Y78673D01*
X225400Y79100D01*
X225827Y79656D01*
X226095Y80305D01*
X226161Y80800D01*
D02*
G37*
G36*
X223300D02*
X220839D01*
X220905Y80305D01*
X221173Y79656D01*
X221600Y79100D01*
X222157Y78673D01*
X222805Y78405D01*
X223300Y78339D01*
Y80800D01*
D02*
G37*
G36*
X167800D02*
X165339D01*
X165405Y80305D01*
X165673Y79656D01*
X166100Y79100D01*
X166656Y78673D01*
X167305Y78405D01*
X167800Y78339D01*
Y80800D01*
D02*
G37*
G36*
X238500Y83687D02*
X237805Y83595D01*
X237157Y83327D01*
X236600Y82900D01*
X236173Y82344D01*
X235905Y81695D01*
X235813Y81000D01*
X235905Y80305D01*
X236173Y79656D01*
X236600Y79100D01*
X237157Y78673D01*
X237805Y78405D01*
X238500Y78313D01*
X239195Y78405D01*
X239844Y78673D01*
X240400Y79100D01*
X240827Y79656D01*
X241095Y80305D01*
X241187Y81000D01*
X241095Y81695D01*
X240827Y82344D01*
X240400Y82900D01*
X239844Y83327D01*
X239195Y83595D01*
X238500Y83687D01*
D02*
G37*
G36*
X153000D02*
X152305Y83595D01*
X151656Y83327D01*
X151100Y82900D01*
X150673Y82344D01*
X150405Y81695D01*
X150313Y81000D01*
X150405Y80305D01*
X150673Y79656D01*
X151100Y79100D01*
X151656Y78673D01*
X152305Y78405D01*
X153000Y78313D01*
X153695Y78405D01*
X154343Y78673D01*
X154900Y79100D01*
X155327Y79656D01*
X155595Y80305D01*
X155687Y81000D01*
X155595Y81695D01*
X155327Y82344D01*
X154900Y82900D01*
X154343Y83327D01*
X153695Y83595D01*
X153000Y83687D01*
D02*
G37*
G36*
X109500Y81687D02*
X108805Y81595D01*
X108157Y81327D01*
X107600Y80900D01*
X107173Y80344D01*
X106905Y79695D01*
X106813Y79000D01*
X106905Y78305D01*
X107173Y77657D01*
X107600Y77100D01*
X108157Y76673D01*
X108805Y76405D01*
X109500Y76313D01*
X110195Y76405D01*
X110844Y76673D01*
X111400Y77100D01*
X111827Y77657D01*
X112095Y78305D01*
X112187Y79000D01*
X112095Y79695D01*
X111827Y80344D01*
X111400Y80900D01*
X110844Y81327D01*
X110195Y81595D01*
X109500Y81687D01*
D02*
G37*
G36*
X82000D02*
X81305Y81595D01*
X80656Y81327D01*
X80100Y80900D01*
X79673Y80344D01*
X79405Y79695D01*
X79313Y79000D01*
X79405Y78305D01*
X79673Y77657D01*
X80100Y77100D01*
X80656Y76673D01*
X81305Y76405D01*
X82000Y76313D01*
X82695Y76405D01*
X83343Y76673D01*
X83900Y77100D01*
X84327Y77657D01*
X84595Y78305D01*
X84687Y79000D01*
X84595Y79695D01*
X84327Y80344D01*
X83900Y80900D01*
X83343Y81327D01*
X82695Y81595D01*
X82000Y81687D01*
D02*
G37*
G36*
X335000Y78913D02*
X334459Y78805D01*
X334001Y78499D01*
X333695Y78041D01*
X333587Y77500D01*
X333695Y76959D01*
X333882Y76679D01*
X333569Y76336D01*
X333528Y76308D01*
X333000Y76413D01*
X332471Y76308D01*
X332431Y76336D01*
X332118Y76679D01*
X332305Y76959D01*
X332413Y77500D01*
X332305Y78041D01*
X331999Y78499D01*
X331541Y78805D01*
X331000Y78913D01*
X330459Y78805D01*
X330001Y78499D01*
X329695Y78041D01*
X329587Y77500D01*
X329695Y76959D01*
X329882Y76679D01*
X329569Y76336D01*
X329528Y76308D01*
X329000Y76413D01*
X328949Y76403D01*
X328648Y76853D01*
X328720Y76959D01*
X328827Y77500D01*
X328720Y78041D01*
X328413Y78499D01*
X327955Y78805D01*
X327414Y78913D01*
X326873Y78805D01*
X326415Y78499D01*
X326109Y78041D01*
X326001Y77500D01*
X326109Y76959D01*
X326260Y76733D01*
X326197Y76609D01*
X325929Y76328D01*
X325500Y76413D01*
X324972Y76308D01*
X324931Y76336D01*
X324618Y76679D01*
X324805Y76959D01*
X324913Y77500D01*
X324805Y78041D01*
X324499Y78499D01*
X324041Y78805D01*
X323500Y78913D01*
X322959Y78805D01*
X322501Y78499D01*
X322195Y78041D01*
X322087Y77500D01*
X322195Y76959D01*
X322501Y76501D01*
X322959Y76195D01*
X323500Y76087D01*
X324028Y76192D01*
X324069Y76164D01*
X324382Y75821D01*
X324195Y75541D01*
X324087Y75000D01*
X324195Y74459D01*
X324501Y74001D01*
X324959Y73695D01*
X325500Y73587D01*
X326041Y73695D01*
X326499Y74001D01*
X326805Y74459D01*
X326913Y75000D01*
X326805Y75541D01*
X326654Y75767D01*
X326717Y75891D01*
X326985Y76173D01*
X327414Y76087D01*
X327465Y76097D01*
X327766Y75647D01*
X327695Y75541D01*
X327587Y75000D01*
X327695Y74459D01*
X328001Y74001D01*
X328459Y73695D01*
X329000Y73587D01*
X329541Y73695D01*
X329999Y74001D01*
X330305Y74459D01*
X330413Y75000D01*
X330305Y75541D01*
X330118Y75821D01*
X330431Y76164D01*
X330471Y76192D01*
X331000Y76087D01*
X331528Y76192D01*
X331569Y76164D01*
X331882Y75821D01*
X331695Y75541D01*
X331587Y75000D01*
X331695Y74459D01*
X332001Y74001D01*
X332459Y73695D01*
X333000Y73587D01*
X333541Y73695D01*
X333999Y74001D01*
X334305Y74459D01*
X334413Y75000D01*
X334305Y75541D01*
X334118Y75821D01*
X334431Y76164D01*
X334472Y76192D01*
X335000Y76087D01*
X335528Y76192D01*
X335569Y76164D01*
X335882Y75821D01*
X335695Y75541D01*
X335587Y75000D01*
X335695Y74459D01*
X336001Y74001D01*
X336459Y73695D01*
X337000Y73587D01*
X337541Y73695D01*
X337999Y74001D01*
X338305Y74459D01*
X338413Y75000D01*
X338305Y75541D01*
X337999Y75999D01*
X337541Y76305D01*
X337000Y76413D01*
X336472Y76308D01*
X336431Y76336D01*
X336118Y76679D01*
X336305Y76959D01*
X336413Y77500D01*
X336305Y78041D01*
X335999Y78499D01*
X335541Y78805D01*
X335000Y78913D01*
D02*
G37*
G36*
X319500D02*
X318959Y78805D01*
X318501Y78499D01*
X318195Y78041D01*
X318087Y77500D01*
X318195Y76959D01*
X318382Y76679D01*
X318069Y76336D01*
X318028Y76308D01*
X317500Y76413D01*
X316971Y76308D01*
X316931Y76336D01*
X316618Y76679D01*
X316805Y76959D01*
X316913Y77500D01*
X316805Y78041D01*
X316499Y78499D01*
X316041Y78805D01*
X315500Y78913D01*
X314959Y78805D01*
X314501Y78499D01*
X314195Y78041D01*
X314087Y77500D01*
X314195Y76959D01*
X314501Y76501D01*
X314959Y76195D01*
X315500Y76087D01*
X316028Y76192D01*
X316069Y76164D01*
X316382Y75821D01*
X316195Y75541D01*
X316087Y75000D01*
X316195Y74459D01*
X316501Y74001D01*
X316959Y73695D01*
X317500Y73587D01*
X318041Y73695D01*
X318499Y74001D01*
X318805Y74459D01*
X318913Y75000D01*
X318805Y75541D01*
X318618Y75821D01*
X318931Y76164D01*
X318971Y76192D01*
X319500Y76087D01*
X320041Y76195D01*
X320499Y76501D01*
X320805Y76959D01*
X320913Y77500D01*
X320805Y78041D01*
X320499Y78499D01*
X320041Y78805D01*
X319500Y78913D01*
D02*
G37*
G36*
X340914Y75413D02*
X340373Y75305D01*
X339915Y74999D01*
X339609Y74541D01*
X339501Y74000D01*
X339609Y73459D01*
X339915Y73001D01*
X340373Y72695D01*
X340914Y72587D01*
X341455Y72695D01*
X341913Y73001D01*
X342220Y73459D01*
X342327Y74000D01*
X342220Y74541D01*
X341913Y74999D01*
X341455Y75305D01*
X340914Y75413D01*
D02*
G37*
G36*
X387216Y73663D02*
X386676Y73555D01*
X386217Y73249D01*
X385911Y72791D01*
X385804Y72250D01*
X385911Y71709D01*
X386217Y71251D01*
X386676Y70945D01*
X387216Y70837D01*
X387757Y70945D01*
X388216Y71251D01*
X388522Y71709D01*
X388630Y72250D01*
X388522Y72791D01*
X388216Y73249D01*
X387757Y73555D01*
X387216Y73663D01*
D02*
G37*
G36*
X274500Y72913D02*
X273959Y72805D01*
X273501Y72499D01*
X273195Y72041D01*
X273087Y71500D01*
X273195Y70959D01*
X273501Y70501D01*
X273959Y70195D01*
X274500Y70087D01*
X275041Y70195D01*
X275499Y70501D01*
X275805Y70959D01*
X275913Y71500D01*
X275805Y72041D01*
X275499Y72499D01*
X275041Y72805D01*
X274500Y72913D01*
D02*
G37*
G36*
X232500Y72413D02*
X231959Y72305D01*
X231501Y71999D01*
X231195Y71541D01*
X231087Y71000D01*
X231195Y70459D01*
X231501Y70001D01*
X231959Y69695D01*
X232500Y69587D01*
X233041Y69695D01*
X233499Y70001D01*
X233805Y70459D01*
X233913Y71000D01*
X233805Y71541D01*
X233499Y71999D01*
X233041Y72305D01*
X232500Y72413D01*
D02*
G37*
G36*
X109700Y71661D02*
Y69200D01*
X112161D01*
X112095Y69695D01*
X111827Y70344D01*
X111400Y70900D01*
X110844Y71327D01*
X110195Y71595D01*
X109700Y71661D01*
D02*
G37*
G36*
X82200D02*
Y69200D01*
X84661D01*
X84595Y69695D01*
X84327Y70344D01*
X83900Y70900D01*
X83343Y71327D01*
X82695Y71595D01*
X82200Y71661D01*
D02*
G37*
G36*
X109300D02*
X108805Y71595D01*
X108157Y71327D01*
X107600Y70900D01*
X107173Y70344D01*
X106905Y69695D01*
X106839Y69200D01*
X109300D01*
Y71661D01*
D02*
G37*
G36*
X81800D02*
X81305Y71595D01*
X80656Y71327D01*
X80100Y70900D01*
X79673Y70344D01*
X79405Y69695D01*
X79339Y69200D01*
X81800D01*
Y71661D01*
D02*
G37*
G36*
X266000Y71913D02*
X265459Y71805D01*
X265001Y71499D01*
X264695Y71041D01*
X264587Y70500D01*
X264695Y69959D01*
X265001Y69501D01*
X265459Y69195D01*
X266000Y69087D01*
X266541Y69195D01*
X266999Y69501D01*
X267305Y69959D01*
X267413Y70500D01*
X267305Y71041D01*
X266999Y71499D01*
X266541Y71805D01*
X266000Y71913D01*
D02*
G37*
G36*
X43200Y70161D02*
Y67700D01*
X45661D01*
X45595Y68195D01*
X45327Y68844D01*
X44900Y69400D01*
X44344Y69827D01*
X43695Y70095D01*
X43200Y70161D01*
D02*
G37*
G36*
X42800D02*
X42305Y70095D01*
X41657Y69827D01*
X41100Y69400D01*
X40673Y68844D01*
X40405Y68195D01*
X40339Y67700D01*
X42800D01*
Y70161D01*
D02*
G37*
G36*
X339000Y71913D02*
X338459Y71805D01*
X338001Y71499D01*
X337695Y71041D01*
X337587Y70500D01*
X337695Y69959D01*
X338001Y69501D01*
X338459Y69195D01*
X339000Y69087D01*
X339202Y69127D01*
X339627Y68702D01*
X339587Y68500D01*
X339692Y67971D01*
X339664Y67931D01*
X339321Y67618D01*
X339041Y67805D01*
X338500Y67913D01*
X337959Y67805D01*
X337501Y67499D01*
X337195Y67041D01*
X337087Y66500D01*
X337195Y65959D01*
X337501Y65501D01*
X337959Y65195D01*
X338500Y65087D01*
X338702Y65127D01*
X339127Y64702D01*
X339087Y64500D01*
X339192Y63972D01*
X339164Y63931D01*
X338821Y63618D01*
X338541Y63805D01*
X338000Y63913D01*
X337459Y63805D01*
X337001Y63499D01*
X336695Y63041D01*
X336587Y62500D01*
X336695Y61959D01*
X337001Y61501D01*
X337459Y61195D01*
X338000Y61087D01*
X338541Y61195D01*
X338821Y61382D01*
X339164Y61069D01*
X339192Y61028D01*
X339087Y60500D01*
X339192Y59971D01*
X339164Y59931D01*
X338821Y59618D01*
X338541Y59805D01*
X338000Y59913D01*
X337459Y59805D01*
X337001Y59499D01*
X336695Y59041D01*
X336587Y58500D01*
X336695Y57959D01*
X337001Y57501D01*
X337459Y57195D01*
X338000Y57087D01*
X338541Y57195D01*
X338821Y57382D01*
X339164Y57069D01*
X339192Y57029D01*
X339087Y56500D01*
X339192Y55971D01*
X339164Y55931D01*
X338821Y55618D01*
X338541Y55805D01*
X338000Y55913D01*
X337459Y55805D01*
X337001Y55499D01*
X336695Y55041D01*
X336587Y54500D01*
X336695Y53959D01*
X337001Y53501D01*
X337459Y53195D01*
X338000Y53087D01*
X338259Y53139D01*
X338678Y52894D01*
X338737Y52763D01*
X338823Y52331D01*
X338959Y52127D01*
X338599Y51767D01*
X338541Y51805D01*
X338000Y51913D01*
X337459Y51805D01*
X337001Y51499D01*
X336695Y51041D01*
X336587Y50500D01*
X336695Y49959D01*
X337001Y49501D01*
X337459Y49195D01*
X338000Y49087D01*
X338202Y49127D01*
X338559Y48770D01*
Y48230D01*
X338202Y47873D01*
X338000Y47913D01*
X337459Y47805D01*
X337001Y47499D01*
X336695Y47041D01*
X336587Y46500D01*
X336695Y45959D01*
X337001Y45501D01*
X337459Y45195D01*
X338000Y45087D01*
X338202Y45127D01*
X338627Y44702D01*
X338587Y44500D01*
X338692Y43971D01*
X338664Y43931D01*
X338321Y43618D01*
X338041Y43805D01*
X337500Y43913D01*
X336959Y43805D01*
X336501Y43499D01*
X336195Y43041D01*
X336087Y42500D01*
X336195Y41959D01*
X336501Y41501D01*
X336959Y41195D01*
X337500Y41087D01*
X338041Y41195D01*
X338127Y41253D01*
X338587Y41000D01*
X338695Y40459D01*
X339001Y40001D01*
X339459Y39695D01*
X340000Y39587D01*
X340541Y39695D01*
X340999Y40001D01*
X341305Y40459D01*
X341413Y41000D01*
X341305Y41541D01*
X340999Y41999D01*
X340541Y42305D01*
X340000Y42413D01*
X339459Y42305D01*
X339372Y42247D01*
X338913Y42500D01*
X338808Y43029D01*
X338836Y43069D01*
X339179Y43382D01*
X339459Y43195D01*
X340000Y43087D01*
X340541Y43195D01*
X340999Y43501D01*
X341305Y43959D01*
X341413Y44500D01*
X341305Y45041D01*
X340999Y45499D01*
X340541Y45805D01*
X340000Y45913D01*
X339798Y45873D01*
X339441Y46230D01*
Y46770D01*
X339798Y47127D01*
X340000Y47087D01*
X340541Y47195D01*
X340999Y47501D01*
X341305Y47959D01*
X341413Y48500D01*
X341305Y49041D01*
X340999Y49499D01*
X340541Y49805D01*
X340000Y49913D01*
X339798Y49873D01*
X339373Y50298D01*
X339413Y50500D01*
X339305Y51041D01*
X339169Y51244D01*
X339530Y51605D01*
X339588Y51566D01*
X340129Y51458D01*
X340669Y51566D01*
X341128Y51872D01*
X341434Y52331D01*
X341542Y52871D01*
X341434Y53412D01*
X341128Y53870D01*
X340669Y54177D01*
X340129Y54284D01*
X339870Y54233D01*
X339451Y54478D01*
X339391Y54609D01*
X339308Y55028D01*
X339336Y55069D01*
X339679Y55382D01*
X339959Y55195D01*
X340500Y55087D01*
X341041Y55195D01*
X341499Y55501D01*
X341805Y55959D01*
X341913Y56500D01*
X341805Y57041D01*
X341499Y57499D01*
X341041Y57805D01*
X340500Y57913D01*
X339959Y57805D01*
X339679Y57618D01*
X339336Y57931D01*
X339308Y57972D01*
X339413Y58500D01*
X339308Y59029D01*
X339336Y59069D01*
X339679Y59382D01*
X339959Y59195D01*
X340500Y59087D01*
X341041Y59195D01*
X341499Y59501D01*
X341805Y59959D01*
X341913Y60500D01*
X341805Y61041D01*
X341499Y61499D01*
X341041Y61805D01*
X340500Y61913D01*
X339959Y61805D01*
X339679Y61618D01*
X339336Y61931D01*
X339308Y61971D01*
X339413Y62500D01*
X339308Y63029D01*
X339336Y63069D01*
X339679Y63382D01*
X339959Y63195D01*
X340500Y63087D01*
X341041Y63195D01*
X341499Y63501D01*
X341805Y63959D01*
X341913Y64500D01*
X341805Y65041D01*
X341499Y65499D01*
X341041Y65805D01*
X340500Y65913D01*
X340298Y65873D01*
X339873Y66298D01*
X339913Y66500D01*
X339808Y67028D01*
X339836Y67069D01*
X340179Y67382D01*
X340459Y67195D01*
X341000Y67087D01*
X341541Y67195D01*
X341999Y67501D01*
X342305Y67959D01*
X342413Y68500D01*
X342305Y69041D01*
X341999Y69499D01*
X341541Y69805D01*
X341000Y69913D01*
X340798Y69873D01*
X340373Y70298D01*
X340413Y70500D01*
X340305Y71041D01*
X339999Y71499D01*
X339541Y71805D01*
X339000Y71913D01*
D02*
G37*
G36*
X290500Y69913D02*
X289959Y69805D01*
X289501Y69499D01*
X289195Y69041D01*
X289087Y68500D01*
X289195Y67959D01*
X289501Y67501D01*
X289959Y67195D01*
X290500Y67087D01*
X291041Y67195D01*
X291499Y67501D01*
X291805Y67959D01*
X291913Y68500D01*
X291805Y69041D01*
X291499Y69499D01*
X291041Y69805D01*
X290500Y69913D01*
D02*
G37*
G36*
X356614Y69413D02*
X356073Y69305D01*
X355615Y68999D01*
X355309Y68541D01*
X355201Y68000D01*
X355309Y67459D01*
X355615Y67001D01*
X356073Y66695D01*
X356614Y66587D01*
X357155Y66695D01*
X357613Y67001D01*
X357920Y67459D01*
X358027Y68000D01*
X357920Y68541D01*
X357613Y68999D01*
X357155Y69305D01*
X356614Y69413D01*
D02*
G37*
G36*
X112161Y68800D02*
X109700D01*
Y66339D01*
X110195Y66405D01*
X110844Y66673D01*
X111400Y67100D01*
X111827Y67656D01*
X112095Y68305D01*
X112161Y68800D01*
D02*
G37*
G36*
X84661D02*
X82200D01*
Y66339D01*
X82695Y66405D01*
X83343Y66673D01*
X83900Y67100D01*
X84327Y67656D01*
X84595Y68305D01*
X84661Y68800D01*
D02*
G37*
G36*
X109300D02*
X106839D01*
X106905Y68305D01*
X107173Y67656D01*
X107600Y67100D01*
X108157Y66673D01*
X108805Y66405D01*
X109300Y66339D01*
Y68800D01*
D02*
G37*
G36*
X81800D02*
X79339D01*
X79405Y68305D01*
X79673Y67656D01*
X80100Y67100D01*
X80656Y66673D01*
X81305Y66405D01*
X81800Y66339D01*
Y68800D01*
D02*
G37*
G36*
X45661Y67300D02*
X43200D01*
Y64839D01*
X43695Y64905D01*
X44344Y65173D01*
X44900Y65600D01*
X45327Y66157D01*
X45595Y66805D01*
X45661Y67300D01*
D02*
G37*
G36*
X42800D02*
X40339D01*
X40405Y66805D01*
X40673Y66157D01*
X41100Y65600D01*
X41657Y65173D01*
X42305Y64905D01*
X42800Y64839D01*
Y67300D01*
D02*
G37*
G36*
X28000Y70187D02*
X27305Y70095D01*
X26656Y69827D01*
X26100Y69400D01*
X25673Y68844D01*
X25405Y68195D01*
X25313Y67500D01*
X25405Y66805D01*
X25673Y66157D01*
X26100Y65600D01*
X26656Y65173D01*
X27305Y64905D01*
X28000Y64813D01*
X28695Y64905D01*
X29344Y65173D01*
X29900Y65600D01*
X30327Y66157D01*
X30595Y66805D01*
X30687Y67500D01*
X30595Y68195D01*
X30327Y68844D01*
X29900Y69400D01*
X29344Y69827D01*
X28695Y70095D01*
X28000Y70187D01*
D02*
G37*
G36*
X264000Y67413D02*
X263459Y67305D01*
X263001Y66999D01*
X262695Y66541D01*
X262587Y66000D01*
X262695Y65459D01*
X263001Y65001D01*
X263459Y64695D01*
X264000Y64587D01*
X264541Y64695D01*
X264999Y65001D01*
X265305Y65459D01*
X265413Y66000D01*
X265305Y66541D01*
X264999Y66999D01*
X264541Y67305D01*
X264000Y67413D01*
D02*
G37*
G36*
X291000Y65913D02*
X290459Y65805D01*
X290001Y65499D01*
X289695Y65041D01*
X289587Y64500D01*
X289695Y63959D01*
X290001Y63501D01*
X290459Y63195D01*
X291000Y63087D01*
X291541Y63195D01*
X291999Y63501D01*
X292305Y63959D01*
X292413Y64500D01*
X292305Y65041D01*
X291999Y65499D01*
X291541Y65805D01*
X291000Y65913D01*
D02*
G37*
G36*
X383500Y64913D02*
X382959Y64805D01*
X382501Y64499D01*
X382195Y64041D01*
X382087Y63500D01*
X382195Y62959D01*
X382501Y62501D01*
X382959Y62195D01*
X383500Y62087D01*
X384041Y62195D01*
X384499Y62501D01*
X384805Y62959D01*
X384913Y63500D01*
X384805Y64041D01*
X384499Y64499D01*
X384041Y64805D01*
X383500Y64913D01*
D02*
G37*
G36*
X246500Y64413D02*
X245959Y64305D01*
X245501Y63999D01*
X245195Y63541D01*
X245087Y63000D01*
X245195Y62459D01*
X245501Y62001D01*
X245959Y61695D01*
X246500Y61587D01*
X247041Y61695D01*
X247499Y62001D01*
X247805Y62459D01*
X247913Y63000D01*
X247805Y63541D01*
X247499Y63999D01*
X247041Y64305D01*
X246500Y64413D01*
D02*
G37*
G36*
X154200Y62661D02*
Y60200D01*
X156661D01*
X156595Y60695D01*
X156327Y61343D01*
X155900Y61900D01*
X155343Y62327D01*
X154695Y62595D01*
X154200Y62661D01*
D02*
G37*
G36*
X153800D02*
X153305Y62595D01*
X152656Y62327D01*
X152100Y61900D01*
X151673Y61343D01*
X151405Y60695D01*
X151339Y60200D01*
X153800D01*
Y62661D01*
D02*
G37*
G36*
X139000Y62541D02*
X138028Y62347D01*
X137204Y61796D01*
X136653Y60972D01*
X136460Y60000D01*
X136653Y59028D01*
X137204Y58204D01*
X138028Y57653D01*
X139000Y57459D01*
X139972Y57653D01*
X140796Y58204D01*
X141347Y59028D01*
X141541Y60000D01*
X141347Y60972D01*
X140796Y61796D01*
X139972Y62347D01*
X139000Y62541D01*
D02*
G37*
G36*
X156661Y59800D02*
X154200D01*
Y57339D01*
X154695Y57405D01*
X155343Y57673D01*
X155900Y58100D01*
X156327Y58657D01*
X156595Y59305D01*
X156661Y59800D01*
D02*
G37*
G36*
X153800D02*
X151339D01*
X151405Y59305D01*
X151673Y58657D01*
X152100Y58100D01*
X152656Y57673D01*
X153305Y57405D01*
X153800Y57339D01*
Y59800D01*
D02*
G37*
G36*
X184000Y62687D02*
X183305Y62595D01*
X182657Y62327D01*
X182100Y61900D01*
X181673Y61343D01*
X181405Y60695D01*
X181313Y60000D01*
X181405Y59305D01*
X181673Y58657D01*
X182100Y58100D01*
X182657Y57673D01*
X183305Y57405D01*
X184000Y57313D01*
X184695Y57405D01*
X185344Y57673D01*
X185900Y58100D01*
X186327Y58657D01*
X186595Y59305D01*
X186687Y60000D01*
X186595Y60695D01*
X186327Y61343D01*
X185900Y61900D01*
X185344Y62327D01*
X184695Y62595D01*
X184000Y62687D01*
D02*
G37*
G36*
X169000D02*
X168305Y62595D01*
X167657Y62327D01*
X167100Y61900D01*
X166673Y61343D01*
X166405Y60695D01*
X166313Y60000D01*
X166405Y59305D01*
X166673Y58657D01*
X167100Y58100D01*
X167657Y57673D01*
X168305Y57405D01*
X169000Y57313D01*
X169695Y57405D01*
X170343Y57673D01*
X170900Y58100D01*
X171327Y58657D01*
X171595Y59305D01*
X171687Y60000D01*
X171595Y60695D01*
X171327Y61343D01*
X170900Y61900D01*
X170343Y62327D01*
X169695Y62595D01*
X169000Y62687D01*
D02*
G37*
G36*
X291000Y59913D02*
X290459Y59805D01*
X290001Y59499D01*
X289695Y59041D01*
X289587Y58500D01*
X289695Y57959D01*
X290001Y57501D01*
X290459Y57195D01*
X291000Y57087D01*
X291541Y57195D01*
X291999Y57501D01*
X292305Y57959D01*
X292413Y58500D01*
X292305Y59041D01*
X291999Y59499D01*
X291541Y59805D01*
X291000Y59913D01*
D02*
G37*
G36*
X279000Y57913D02*
X278459Y57805D01*
X278001Y57499D01*
X277695Y57041D01*
X277587Y56500D01*
X277627Y56298D01*
X277202Y55873D01*
X277000Y55913D01*
X276459Y55805D01*
X276001Y55499D01*
X275695Y55041D01*
X275587Y54500D01*
X275695Y53959D01*
X276001Y53501D01*
X276459Y53195D01*
X277000Y53087D01*
X277541Y53195D01*
X277999Y53501D01*
X278305Y53959D01*
X278413Y54500D01*
X278373Y54702D01*
X278798Y55127D01*
X279000Y55087D01*
X279541Y55195D01*
X279999Y55501D01*
X280305Y55959D01*
X280413Y56500D01*
X280305Y57041D01*
X279999Y57499D01*
X279541Y57805D01*
X279000Y57913D01*
D02*
G37*
G36*
X259000Y61913D02*
X258459Y61805D01*
X258001Y61499D01*
X257695Y61041D01*
X257587Y60500D01*
X257695Y59959D01*
X258001Y59501D01*
X258335Y59278D01*
X258365Y59163D01*
Y58837D01*
X258335Y58722D01*
X258001Y58499D01*
X257695Y58041D01*
X257587Y57500D01*
X257695Y56959D01*
X258001Y56501D01*
X258459Y56195D01*
X258600Y56167D01*
X258705Y55636D01*
X258501Y55499D01*
X258195Y55041D01*
X258087Y54500D01*
X258195Y53959D01*
X258501Y53501D01*
X258959Y53195D01*
X259500Y53087D01*
X260041Y53195D01*
X260499Y53501D01*
X260805Y53959D01*
X260913Y54500D01*
X260805Y55041D01*
X260499Y55499D01*
X260041Y55805D01*
X259900Y55833D01*
X259794Y56364D01*
X259999Y56501D01*
X260305Y56959D01*
X260413Y57500D01*
X260305Y58041D01*
X259999Y58499D01*
X259665Y58722D01*
X259635Y58837D01*
Y59163D01*
X259665Y59278D01*
X259999Y59501D01*
X260305Y59959D01*
X260413Y60500D01*
X260305Y61041D01*
X259999Y61499D01*
X259541Y61805D01*
X259000Y61913D01*
D02*
G37*
G36*
X382000Y54413D02*
X381459Y54305D01*
X381001Y53999D01*
X380695Y53541D01*
X380587Y53000D01*
X380695Y52459D01*
X381001Y52001D01*
X381459Y51695D01*
X382000Y51587D01*
X382541Y51695D01*
X382999Y52001D01*
X383305Y52459D01*
X383413Y53000D01*
X383305Y53541D01*
X382999Y53999D01*
X382541Y54305D01*
X382000Y54413D01*
D02*
G37*
G36*
X375000D02*
X374459Y54305D01*
X374001Y53999D01*
X373695Y53541D01*
X373587Y53000D01*
X373695Y52459D01*
X374001Y52001D01*
X374459Y51695D01*
X375000Y51587D01*
X375541Y51695D01*
X375999Y52001D01*
X376305Y52459D01*
X376413Y53000D01*
X376305Y53541D01*
X375999Y53999D01*
X375541Y54305D01*
X375000Y54413D01*
D02*
G37*
G36*
X262000Y52913D02*
X261459Y52805D01*
X261001Y52499D01*
X260695Y52041D01*
X260587Y51500D01*
X260695Y50959D01*
X261001Y50501D01*
X261459Y50195D01*
X262000Y50087D01*
X262541Y50195D01*
X262999Y50501D01*
X263305Y50959D01*
X263413Y51500D01*
X263305Y52041D01*
X262999Y52499D01*
X262541Y52805D01*
X262000Y52913D01*
D02*
G37*
G36*
X43200Y50661D02*
Y48200D01*
X45661D01*
X45595Y48695D01*
X45327Y49343D01*
X44900Y49900D01*
X44344Y50327D01*
X43695Y50595D01*
X43200Y50661D01*
D02*
G37*
G36*
X42800D02*
X42305Y50595D01*
X41657Y50327D01*
X41100Y49900D01*
X40673Y49343D01*
X40405Y48695D01*
X40339Y48200D01*
X42800D01*
Y50661D01*
D02*
G37*
G36*
X109500Y51687D02*
X108805Y51595D01*
X108157Y51327D01*
X107600Y50900D01*
X107173Y50344D01*
X106905Y49695D01*
X106813Y49000D01*
X106905Y48305D01*
X107173Y47657D01*
X107600Y47100D01*
X108157Y46673D01*
X108805Y46405D01*
X109500Y46313D01*
X110195Y46405D01*
X110844Y46673D01*
X111400Y47100D01*
X111827Y47657D01*
X112095Y48305D01*
X112187Y49000D01*
X112095Y49695D01*
X111827Y50344D01*
X111400Y50900D01*
X110844Y51327D01*
X110195Y51595D01*
X109500Y51687D01*
D02*
G37*
G36*
X82000D02*
X81305Y51595D01*
X80656Y51327D01*
X80100Y50900D01*
X79673Y50344D01*
X79405Y49695D01*
X79313Y49000D01*
X79405Y48305D01*
X79673Y47657D01*
X80100Y47100D01*
X80656Y46673D01*
X81305Y46405D01*
X82000Y46313D01*
X82695Y46405D01*
X83343Y46673D01*
X83900Y47100D01*
X84327Y47657D01*
X84595Y48305D01*
X84687Y49000D01*
X84595Y49695D01*
X84327Y50344D01*
X83900Y50900D01*
X83343Y51327D01*
X82695Y51595D01*
X82000Y51687D01*
D02*
G37*
G36*
X45661Y47800D02*
X43200D01*
Y45339D01*
X43695Y45405D01*
X44344Y45673D01*
X44900Y46100D01*
X45327Y46657D01*
X45595Y47305D01*
X45661Y47800D01*
D02*
G37*
G36*
X42800D02*
X40339D01*
X40405Y47305D01*
X40673Y46657D01*
X41100Y46100D01*
X41657Y45673D01*
X42305Y45405D01*
X42800Y45339D01*
Y47800D01*
D02*
G37*
G36*
X28000Y50687D02*
X27305Y50595D01*
X26656Y50327D01*
X26100Y49900D01*
X25673Y49343D01*
X25405Y48695D01*
X25313Y48000D01*
X25405Y47305D01*
X25673Y46657D01*
X26100Y46100D01*
X26656Y45673D01*
X27305Y45405D01*
X28000Y45313D01*
X28695Y45405D01*
X29344Y45673D01*
X29900Y46100D01*
X30327Y46657D01*
X30595Y47305D01*
X30687Y48000D01*
X30595Y48695D01*
X30327Y49343D01*
X29900Y49900D01*
X29344Y50327D01*
X28695Y50595D01*
X28000Y50687D01*
D02*
G37*
G36*
X13000D02*
X12305Y50595D01*
X11656Y50327D01*
X11100Y49900D01*
X10673Y49343D01*
X10405Y48695D01*
X10313Y48000D01*
X10405Y47305D01*
X10673Y46657D01*
X11100Y46100D01*
X11656Y45673D01*
X12305Y45405D01*
X13000Y45313D01*
X13695Y45405D01*
X14344Y45673D01*
X14900Y46100D01*
X15327Y46657D01*
X15595Y47305D01*
X15687Y48000D01*
X15595Y48695D01*
X15327Y49343D01*
X14900Y49900D01*
X14344Y50327D01*
X13695Y50595D01*
X13000Y50687D01*
D02*
G37*
G36*
X238000Y40413D02*
X237459Y40305D01*
X237070Y40045D01*
X236846Y39998D01*
X236654D01*
X236430Y40045D01*
X236041Y40305D01*
X235500Y40413D01*
X234959Y40305D01*
X234570Y40045D01*
X234346Y39998D01*
X234154D01*
X233930Y40045D01*
X233541Y40305D01*
X233000Y40413D01*
X232459Y40305D01*
X232001Y39999D01*
X231695Y39541D01*
X231587Y39000D01*
X231695Y38459D01*
X232001Y38001D01*
X232459Y37695D01*
X233000Y37587D01*
X233541Y37695D01*
X233930Y37955D01*
X234154Y38002D01*
X234346D01*
X234570Y37955D01*
X234959Y37695D01*
X235500Y37587D01*
X236041Y37695D01*
X236430Y37955D01*
X236654Y38002D01*
X236846D01*
X237070Y37955D01*
X237459Y37695D01*
X238000Y37587D01*
X238541Y37695D01*
X238999Y38001D01*
X239305Y38459D01*
X239413Y39000D01*
X239305Y39541D01*
X238999Y39999D01*
X238541Y40305D01*
X238000Y40413D01*
D02*
G37*
G36*
X359614Y40759D02*
X359073Y40651D01*
X358615Y40345D01*
X358309Y39887D01*
X358201Y39346D01*
X358309Y38805D01*
X358615Y38347D01*
X359073Y38041D01*
X359614Y37933D01*
X360155Y38041D01*
X360613Y38347D01*
X360920Y38805D01*
X361027Y39346D01*
X360920Y39887D01*
X360613Y40345D01*
X360155Y40651D01*
X359614Y40759D01*
D02*
G37*
G36*
X109500Y41687D02*
X108805Y41595D01*
X108157Y41327D01*
X107600Y40900D01*
X107173Y40343D01*
X106905Y39695D01*
X106813Y39000D01*
X106905Y38305D01*
X107173Y37657D01*
X107600Y37100D01*
X108157Y36673D01*
X108805Y36405D01*
X109500Y36313D01*
X110195Y36405D01*
X110844Y36673D01*
X111400Y37100D01*
X111827Y37657D01*
X112095Y38305D01*
X112187Y39000D01*
X112095Y39695D01*
X111827Y40343D01*
X111400Y40900D01*
X110844Y41327D01*
X110195Y41595D01*
X109500Y41687D01*
D02*
G37*
G36*
X82000D02*
X81305Y41595D01*
X80656Y41327D01*
X80100Y40900D01*
X79673Y40343D01*
X79405Y39695D01*
X79313Y39000D01*
X79405Y38305D01*
X79673Y37657D01*
X80100Y37100D01*
X80656Y36673D01*
X81305Y36405D01*
X82000Y36313D01*
X82695Y36405D01*
X83343Y36673D01*
X83900Y37100D01*
X84327Y37657D01*
X84595Y38305D01*
X84687Y39000D01*
X84595Y39695D01*
X84327Y40343D01*
X83900Y40900D01*
X83343Y41327D01*
X82695Y41595D01*
X82000Y41687D01*
D02*
G37*
G36*
X340500Y38913D02*
X339959Y38805D01*
X339501Y38499D01*
X339195Y38041D01*
X339087Y37500D01*
X339195Y36959D01*
X339501Y36501D01*
X339959Y36195D01*
X340500Y36087D01*
X341041Y36195D01*
X341499Y36501D01*
X341805Y36959D01*
X341913Y37500D01*
X341805Y38041D01*
X341499Y38499D01*
X341041Y38805D01*
X340500Y38913D01*
D02*
G37*
G36*
X337500Y36913D02*
X336959Y36805D01*
X336501Y36499D01*
X336195Y36041D01*
X336087Y35500D01*
X336195Y34959D01*
X336501Y34501D01*
X336959Y34195D01*
X337500Y34087D01*
X338041Y34195D01*
X338499Y34501D01*
X338805Y34959D01*
X338913Y35500D01*
X338805Y36041D01*
X338499Y36499D01*
X338041Y36805D01*
X337500Y36913D01*
D02*
G37*
G36*
X369500Y33913D02*
X368959Y33805D01*
X368501Y33499D01*
X368195Y33041D01*
X368087Y32500D01*
X368195Y31959D01*
X368501Y31501D01*
X368959Y31195D01*
X369500Y31087D01*
X370041Y31195D01*
X370499Y31501D01*
X370805Y31959D01*
X370913Y32500D01*
X370805Y33041D01*
X370499Y33499D01*
X370041Y33805D01*
X369500Y33913D01*
D02*
G37*
G36*
X327500Y31913D02*
X326959Y31805D01*
X326501Y31499D01*
X326195Y31041D01*
X326087Y30500D01*
X326195Y29959D01*
X326501Y29501D01*
X326959Y29195D01*
X327500Y29087D01*
X328041Y29195D01*
X328499Y29501D01*
X328805Y29959D01*
X328913Y30500D01*
X328805Y31041D01*
X328499Y31499D01*
X328041Y31805D01*
X327500Y31913D01*
D02*
G37*
G36*
X323500D02*
X322959Y31805D01*
X322501Y31499D01*
X322195Y31041D01*
X322087Y30500D01*
X322195Y29959D01*
X322501Y29501D01*
X322959Y29195D01*
X323500Y29087D01*
X324041Y29195D01*
X324499Y29501D01*
X324805Y29959D01*
X324913Y30500D01*
X324805Y31041D01*
X324499Y31499D01*
X324041Y31805D01*
X323500Y31913D01*
D02*
G37*
G36*
X219000Y27913D02*
X218459Y27805D01*
X218070Y27545D01*
X217846Y27498D01*
X217654D01*
X217430Y27545D01*
X217041Y27805D01*
X216500Y27913D01*
X215959Y27805D01*
X215501Y27499D01*
X215195Y27041D01*
X215087Y26500D01*
X215195Y25959D01*
X215501Y25501D01*
X215959Y25195D01*
X216243Y25138D01*
X216501Y25082D01*
X216607Y24598D01*
X216587Y24500D01*
X216695Y23959D01*
X217001Y23501D01*
X217459Y23195D01*
X218000Y23087D01*
X218541Y23195D01*
X218999Y23501D01*
X219305Y23959D01*
X219413Y24500D01*
X219383Y24653D01*
X219541Y25195D01*
X219999Y25501D01*
X220305Y25959D01*
X220413Y26500D01*
X220305Y27041D01*
X219999Y27499D01*
X219541Y27805D01*
X219000Y27913D01*
D02*
G37*
G36*
X313500Y29413D02*
X312959Y29305D01*
X312501Y28999D01*
X312195Y28541D01*
X312087Y28000D01*
X312195Y27459D01*
X312501Y27001D01*
X312959Y26695D01*
X313500Y26587D01*
X314041Y26695D01*
X314499Y27001D01*
X314805Y27459D01*
X314913Y28000D01*
X314805Y28541D01*
X314499Y28999D01*
X314041Y29305D01*
X313500Y29413D01*
D02*
G37*
G36*
X109500Y31687D02*
X108805Y31595D01*
X108157Y31327D01*
X107600Y30900D01*
X107173Y30343D01*
X106905Y29695D01*
X106813Y29000D01*
X106905Y28305D01*
X107173Y27656D01*
X107600Y27100D01*
X108157Y26673D01*
X108805Y26405D01*
X109500Y26313D01*
X110195Y26405D01*
X110844Y26673D01*
X111400Y27100D01*
X111827Y27656D01*
X112095Y28305D01*
X112187Y29000D01*
X112095Y29695D01*
X111827Y30343D01*
X111400Y30900D01*
X110844Y31327D01*
X110195Y31595D01*
X109500Y31687D01*
D02*
G37*
G36*
X82000D02*
X81305Y31595D01*
X80656Y31327D01*
X80100Y30900D01*
X79673Y30343D01*
X79405Y29695D01*
X79313Y29000D01*
X79405Y28305D01*
X79673Y27656D01*
X80100Y27100D01*
X80656Y26673D01*
X81305Y26405D01*
X82000Y26313D01*
X82695Y26405D01*
X83343Y26673D01*
X83900Y27100D01*
X84327Y27656D01*
X84595Y28305D01*
X84687Y29000D01*
X84595Y29695D01*
X84327Y30343D01*
X83900Y30900D01*
X83343Y31327D01*
X82695Y31595D01*
X82000Y31687D01*
D02*
G37*
G36*
X329500Y28913D02*
X328959Y28805D01*
X328501Y28499D01*
X328195Y28041D01*
X328087Y27500D01*
X328195Y26959D01*
X328501Y26501D01*
X328959Y26195D01*
X329500Y26087D01*
X330041Y26195D01*
X330499Y26501D01*
X330805Y26959D01*
X330913Y27500D01*
X330805Y28041D01*
X330499Y28499D01*
X330041Y28805D01*
X329500Y28913D01*
D02*
G37*
G36*
X325500D02*
X324959Y28805D01*
X324501Y28499D01*
X324195Y28041D01*
X324087Y27500D01*
X324195Y26959D01*
X324501Y26501D01*
X324959Y26195D01*
X325500Y26087D01*
X326041Y26195D01*
X326499Y26501D01*
X326805Y26959D01*
X326913Y27500D01*
X326805Y28041D01*
X326499Y28499D01*
X326041Y28805D01*
X325500Y28913D01*
D02*
G37*
G36*
X343187Y18913D02*
X342646Y18805D01*
X342188Y18499D01*
X341882Y18041D01*
X341774Y17500D01*
X341882Y16959D01*
X342188Y16501D01*
X342646Y16195D01*
X343187Y16087D01*
X343728Y16195D01*
X344186Y16501D01*
X344493Y16959D01*
X344600Y17500D01*
X344493Y18041D01*
X344186Y18499D01*
X343728Y18805D01*
X343187Y18913D01*
D02*
G37*
G36*
X335500Y17913D02*
X334959Y17805D01*
X334501Y17499D01*
X334195Y17041D01*
X334087Y16500D01*
X334195Y15959D01*
X334501Y15501D01*
X334959Y15195D01*
X335500Y15087D01*
X336041Y15195D01*
X336499Y15501D01*
X336805Y15959D01*
X336913Y16500D01*
X336805Y17041D01*
X336499Y17499D01*
X336041Y17805D01*
X335500Y17913D01*
D02*
G37*
G36*
X330614D02*
X330073Y17805D01*
X329615Y17499D01*
X329309Y17041D01*
X329201Y16500D01*
X329309Y15959D01*
X329615Y15501D01*
X330073Y15195D01*
X330614Y15087D01*
X331155Y15195D01*
X331613Y15501D01*
X331920Y15959D01*
X332027Y16500D01*
X331920Y17041D01*
X331613Y17499D01*
X331155Y17805D01*
X330614Y17913D01*
D02*
G37*
G36*
X333000Y15413D02*
X332459Y15305D01*
X332001Y14999D01*
X331695Y14541D01*
X331587Y14000D01*
X331695Y13459D01*
X332001Y13001D01*
X332459Y12695D01*
X333000Y12587D01*
X333541Y12695D01*
X333999Y13001D01*
X334305Y13459D01*
X334413Y14000D01*
X334305Y14541D01*
X333999Y14999D01*
X333541Y15305D01*
X333000Y15413D01*
D02*
G37*
G36*
X337957Y15277D02*
X337416Y15170D01*
X336958Y14863D01*
X336652Y14405D01*
X336544Y13864D01*
X336652Y13323D01*
X336958Y12865D01*
X337416Y12559D01*
X337957Y12451D01*
X338498Y12559D01*
X338956Y12865D01*
X339263Y13323D01*
X339370Y13864D01*
X339263Y14405D01*
X338956Y14863D01*
X338498Y15170D01*
X337957Y15277D01*
D02*
G37*
G36*
X314500Y12413D02*
X313959Y12305D01*
X313501Y11999D01*
X313195Y11541D01*
X313087Y11000D01*
X313195Y10459D01*
X313501Y10001D01*
X313959Y9695D01*
X314500Y9587D01*
X315041Y9695D01*
X315499Y10001D01*
X315805Y10459D01*
X315913Y11000D01*
X315805Y11541D01*
X315499Y11999D01*
X315041Y12305D01*
X314500Y12413D01*
D02*
G37*
G36*
X379012Y26383D02*
X377004Y26185D01*
X375073Y25599D01*
X373294Y24648D01*
X371734Y23368D01*
X370454Y21809D01*
X369503Y20029D01*
X368917Y18098D01*
X368720Y16091D01*
X368917Y14083D01*
X369503Y12152D01*
X370454Y10373D01*
X371734Y8813D01*
X373294Y7533D01*
X375073Y6582D01*
X377004Y5996D01*
X379012Y5799D01*
X381020Y5996D01*
X382950Y6582D01*
X384730Y7533D01*
X386289Y8813D01*
X387569Y10373D01*
X388520Y12152D01*
X389106Y14083D01*
X389304Y16091D01*
X389106Y18098D01*
X388520Y20029D01*
X387569Y21809D01*
X386289Y23368D01*
X384730Y24648D01*
X382950Y25599D01*
X381020Y26185D01*
X379012Y26383D01*
D02*
G37*
G36*
X162500Y8327D02*
X161959Y8220D01*
X161501Y7913D01*
X161195Y7455D01*
X161087Y6914D01*
X161195Y6373D01*
X161501Y5915D01*
X161959Y5609D01*
X162500Y5501D01*
X163041Y5609D01*
X163499Y5915D01*
X163805Y6373D01*
X163913Y6914D01*
X163805Y7455D01*
X163499Y7913D01*
X163041Y8220D01*
X162500Y8327D01*
D02*
G37*
G36*
X14839Y24414D02*
X12831Y24216D01*
X10900Y23631D01*
X9121Y22680D01*
X7561Y21400D01*
X6281Y19840D01*
X5330Y18061D01*
X4744Y16130D01*
X4546Y14122D01*
X4744Y12114D01*
X5330Y10183D01*
X6281Y8404D01*
X7561Y6844D01*
X9121Y5565D01*
X10900Y4613D01*
X12831Y4028D01*
X14839Y3830D01*
X16847Y4028D01*
X18777Y4613D01*
X20557Y5565D01*
X22116Y6844D01*
X23396Y8404D01*
X24347Y10183D01*
X24933Y12114D01*
X25131Y14122D01*
X24933Y16130D01*
X24347Y18061D01*
X23396Y19840D01*
X22116Y21400D01*
X20557Y22680D01*
X18777Y23631D01*
X16847Y24216D01*
X14839Y24414D01*
D02*
G37*
G36*
X178000Y41913D02*
X177459Y41805D01*
X177001Y41499D01*
X176695Y41041D01*
X176587Y40500D01*
X176695Y39959D01*
X176920Y39621D01*
X176822Y39443D01*
X176598Y39215D01*
X176145Y39305D01*
X175604Y39197D01*
X175146Y38891D01*
X174840Y38432D01*
X174732Y37892D01*
X174840Y37351D01*
X175146Y36893D01*
X175604Y36586D01*
X176145Y36479D01*
X176686Y36586D01*
X177144Y36893D01*
X177450Y37351D01*
X177558Y37892D01*
X177450Y38432D01*
X177225Y38770D01*
X177323Y38949D01*
X177547Y39177D01*
X178000Y39087D01*
X178541Y39195D01*
X178999Y39501D01*
X179305Y39959D01*
X179413Y40500D01*
X179305Y41041D01*
X178999Y41499D01*
X178541Y41805D01*
X178000Y41913D01*
D02*
G37*
G36*
X170500D02*
X169959Y41805D01*
X169501Y41499D01*
X169195Y41041D01*
X169087Y40500D01*
X169195Y39959D01*
X169501Y39501D01*
X169204Y39114D01*
X168917Y39305D01*
X168377Y39413D01*
X167990Y39336D01*
X167662Y39745D01*
X167805Y39959D01*
X167913Y40500D01*
X167805Y41041D01*
X167499Y41499D01*
X167041Y41805D01*
X166500Y41913D01*
X165959Y41805D01*
X165501Y41499D01*
X165195Y41041D01*
X165087Y40500D01*
X165195Y39959D01*
X165422Y39618D01*
X165062Y39258D01*
X164991Y39305D01*
X164450Y39413D01*
X163979Y39319D01*
X163802Y39478D01*
X163649Y39724D01*
X163805Y39959D01*
X163913Y40500D01*
X163805Y41041D01*
X163499Y41499D01*
X163041Y41805D01*
X162500Y41913D01*
X161959Y41805D01*
X161501Y41499D01*
X161195Y41041D01*
X161087Y40500D01*
X161195Y39959D01*
X161382Y39679D01*
X161069Y39336D01*
X161029Y39308D01*
X160500Y39413D01*
X159971Y39308D01*
X159931Y39336D01*
X159618Y39679D01*
X159805Y39959D01*
X159913Y40500D01*
X159805Y41041D01*
X159499Y41499D01*
X159041Y41805D01*
X158500Y41913D01*
X157959Y41805D01*
X157501Y41499D01*
X157195Y41041D01*
X157087Y40500D01*
X157195Y39959D01*
X157415Y39630D01*
X157170Y39316D01*
X157073Y39241D01*
X156566Y39342D01*
X156025Y39235D01*
X155567Y38928D01*
X155260Y38470D01*
X155153Y37929D01*
X155260Y37388D01*
X155567Y36930D01*
X156025Y36624D01*
X156566Y36516D01*
X157106Y36624D01*
X157565Y36930D01*
X157871Y37388D01*
X157979Y37929D01*
X157871Y38470D01*
X157651Y38799D01*
X157896Y39113D01*
X157993Y39188D01*
X158500Y39087D01*
X159028Y39192D01*
X159069Y39164D01*
X159382Y38821D01*
X159195Y38541D01*
X159087Y38000D01*
X159195Y37459D01*
X159501Y37001D01*
X159959Y36695D01*
X160500Y36587D01*
X161041Y36695D01*
X161499Y37001D01*
X161805Y37459D01*
X161913Y38000D01*
X161805Y38541D01*
X161618Y38821D01*
X161931Y39164D01*
X161971Y39192D01*
X162500Y39087D01*
X162971Y39181D01*
X163148Y39022D01*
X163302Y38776D01*
X163145Y38541D01*
X163037Y38000D01*
X163145Y37459D01*
X163451Y37001D01*
X163909Y36695D01*
X164450Y36587D01*
X164991Y36695D01*
X165449Y37001D01*
X165755Y37459D01*
X165863Y38000D01*
X165755Y38541D01*
X165528Y38882D01*
X165888Y39242D01*
X165959Y39195D01*
X166500Y39087D01*
X166886Y39164D01*
X167215Y38755D01*
X167071Y38541D01*
X166964Y38000D01*
X167071Y37459D01*
X167378Y37001D01*
X167836Y36695D01*
X168377Y36587D01*
X168917Y36695D01*
X169376Y37001D01*
X169682Y37459D01*
X169790Y38000D01*
X169682Y38541D01*
X169376Y38999D01*
X169673Y39386D01*
X169959Y39195D01*
X170500Y39087D01*
X171041Y39195D01*
X171499Y39501D01*
X171805Y39959D01*
X171913Y40500D01*
X171805Y41041D01*
X171499Y41499D01*
X171041Y41805D01*
X170500Y41913D01*
D02*
G37*
G36*
X174000D02*
X173459Y41805D01*
X173001Y41499D01*
X172695Y41041D01*
X172587Y40500D01*
X172695Y39959D01*
X173001Y39501D01*
X173459Y39195D01*
X174000Y39087D01*
X174541Y39195D01*
X174999Y39501D01*
X175305Y39959D01*
X175413Y40500D01*
X175305Y41041D01*
X174999Y41499D01*
X174541Y41805D01*
X174000Y41913D01*
D02*
G37*
G36*
X180188Y39106D02*
X179647Y38998D01*
X179189Y38692D01*
X178882Y38234D01*
X178775Y37693D01*
X178882Y37152D01*
X179189Y36694D01*
X179647Y36388D01*
X180188Y36280D01*
X180728Y36388D01*
X181187Y36694D01*
X181493Y37152D01*
X181601Y37693D01*
X181493Y38234D01*
X181187Y38692D01*
X180728Y38998D01*
X180188Y39106D01*
D02*
G37*
G36*
X172314Y37729D02*
X171773Y37621D01*
X171315Y37315D01*
X171008Y36857D01*
X170901Y36316D01*
X171008Y35775D01*
X171315Y35317D01*
X171773Y35010D01*
X172314Y34903D01*
X172854Y35010D01*
X173313Y35317D01*
X173619Y35775D01*
X173727Y36316D01*
X173619Y36857D01*
X173313Y37315D01*
X172854Y37621D01*
X172314Y37729D01*
D02*
G37*
%LPD*%
D16*
X309500Y343500D02*
X310500Y344500D01*
X291500Y343500D02*
X309500D01*
X289000Y341000D02*
X291500Y343500D01*
X310500Y344500D02*
X310709D01*
X269000Y333500D02*
X286500D01*
X289000Y336000D01*
Y341000D01*
X148500Y13500D02*
X211000D01*
X223500Y26000D02*
Y37500D01*
X211000Y13500D02*
X223500Y26000D01*
X221500Y35500D02*
Y40000D01*
X146500Y16000D02*
X202000D01*
X221500Y35500D01*
X249500Y343886D02*
X262614D01*
X265000Y337500D02*
Y341500D01*
X262614Y343886D02*
X265000Y341500D01*
Y337500D02*
X269000Y333500D01*
X13000Y67500D02*
Y78000D01*
X19500Y84500D01*
X58000Y48000D02*
X61000Y45000D01*
Y12000D02*
Y45000D01*
Y12000D02*
X68500Y4500D01*
X139500D01*
X65500Y12000D02*
X70500Y7000D01*
X137500D02*
X146500Y16000D01*
X70500Y7000D02*
X137500D01*
X139500Y4500D02*
X148500Y13500D01*
X65500Y12000D02*
Y60000D01*
X58000Y67500D02*
X65500Y60000D01*
X336000Y344000D02*
X339000D01*
X311209D02*
X336000D01*
X338000Y342000D01*
Y338586D02*
Y342000D01*
X339000Y344000D02*
X340852Y345852D01*
X338000Y338586D02*
X339586Y337000D01*
X340852Y345852D02*
Y346438D01*
X341000Y346586D01*
X310709Y344500D02*
X311209Y344000D01*
X339586Y337000D02*
X359000D01*
X19500Y84500D02*
X132000Y84500D01*
X137000Y89500D01*
X287500D01*
X292500Y84500D01*
X351500D01*
X361500Y94500D01*
Y334500D01*
X359000Y337000D02*
X361500Y334500D01*
X335000Y363000D02*
X339000D01*
X340656Y361344D01*
Y350693D02*
Y361344D01*
X340828Y346758D02*
Y350521D01*
X353000Y78500D02*
X365500Y91000D01*
Y215500D02*
X371500Y221500D01*
X365500Y91000D02*
Y215500D01*
X347000Y78500D02*
X353000D01*
X362928Y91223D02*
Y91405D01*
X363314Y91791D02*
Y92000D01*
X362928Y91405D02*
X363314Y91791D01*
X354705Y83000D02*
X362928Y91223D01*
X363500Y92623D02*
Y219500D01*
X367250Y223250D01*
X290500Y83000D02*
X354705D01*
X367250Y223250D02*
X368250D01*
X253500Y81000D02*
X257500Y85000D01*
X285000D01*
X289000Y81000D01*
X344500D01*
X347000Y78500D01*
X371500Y221500D02*
Y224000D01*
X363250Y232250D02*
X371500Y224000D01*
X363250Y232250D02*
Y342250D01*
X341500Y339414D02*
X360414D01*
X363250Y342250D01*
X286500Y87000D02*
X290500Y83000D01*
X138000Y81000D02*
X144000Y87000D01*
X286500D01*
D66*
X236267Y22767D02*
Y30267D01*
X235000Y21500D02*
X236267Y22767D01*
Y30267D02*
X240300Y34300D01*
X223000Y22000D02*
X226500Y18500D01*
X246285D01*
X240300Y34300D02*
X253169D01*
X229000Y28500D02*
X235600Y35100D01*
X246100D02*
X249100Y38100D01*
X235600Y35100D02*
X246100D01*
X249100Y38100D02*
X263337D01*
X242250Y25250D02*
Y27871D01*
X248044Y33500D01*
X253500D01*
X238500Y21500D02*
X242250Y25250D01*
X241000Y21500D02*
Y22500D01*
X244500Y26000D01*
X243500Y21500D02*
Y22500D01*
X245500Y24500D01*
X244500Y28711D02*
X248489Y32700D01*
X244500Y26000D02*
Y28711D01*
X245500Y24500D02*
Y28251D01*
X249149Y31900D01*
X262400D01*
X261700Y32700D02*
X276000Y47000D01*
X248489Y32700D02*
X261700D01*
X231000Y21500D02*
X232500D01*
X229000Y23500D02*
Y28500D01*
Y23500D02*
X231000Y21500D01*
X263337Y38100D02*
X276770Y51533D01*
X256500Y36500D02*
X264000D01*
X253169Y34300D02*
X256169Y37300D01*
X253500Y33500D02*
X256500Y36500D01*
X264000D02*
X276500Y49000D01*
X263669Y37300D02*
X276369Y50000D01*
X256169Y37300D02*
X263669D01*
X304533Y51533D02*
X305500Y52500D01*
X276770Y51533D02*
X304533D01*
X305500Y52500D02*
X309000D01*
X276369Y50000D02*
X306500D01*
X276500Y49000D02*
X293000D01*
X262400Y31900D02*
X275000Y44500D01*
X293000D01*
X276000Y47000D02*
X291500D01*
X293000Y49000D02*
X294500Y47500D01*
X309500D01*
X212000Y11000D02*
X212151Y10849D01*
Y9849D02*
Y10849D01*
X217000Y10500D02*
Y10914D01*
X214495Y10917D02*
X214583D01*
X218686Y6814D01*
X354500Y181714D02*
Y185500D01*
X356000Y187000D01*
X354500Y181714D02*
X356214Y180000D01*
X87800Y369300D02*
X352800D01*
X76000Y357500D02*
X87800Y369300D01*
X352800D02*
X356500Y373000D01*
X275000Y38500D02*
X278500D01*
X290500Y42500D02*
X326500D01*
X340656Y350693D02*
X340828Y350521D01*
Y346758D02*
X341000Y346586D01*
X199500Y8000D02*
Y11000D01*
Y8000D02*
X205486Y2014D01*
X293514D01*
X284734Y2814D02*
X288720Y6800D01*
X202000Y8500D02*
X207686Y2814D01*
X204500Y9500D02*
X210386Y3614D01*
X284402D01*
X207686Y2814D02*
X284734D01*
X204500Y9500D02*
Y11000D01*
X212086Y4414D02*
X284071D01*
X284402Y3614D02*
X288388Y7600D01*
X207000Y9500D02*
Y11000D01*
Y9500D02*
X212086Y4414D01*
X215986Y6014D02*
X283408D01*
X212151Y9849D02*
X215986Y6014D01*
X209500Y9500D02*
X213786Y5214D01*
X283740D01*
X284071Y4414D02*
X288057Y8400D01*
X209500Y9500D02*
Y11000D01*
X293514Y2014D02*
X296500Y5000D01*
X202000Y8500D02*
Y11000D01*
X288720Y6800D02*
X300800D01*
X303500Y9500D01*
X298100Y7600D02*
X303500Y13000D01*
X222086Y8414D02*
X266308D01*
X219500Y11000D02*
X222086Y8414D01*
X283077Y6814D02*
X287063Y10800D01*
X219886Y7614D02*
X282746D01*
X283740Y5214D02*
X287725Y9200D01*
X218686Y6814D02*
X283077D01*
X283408Y6014D02*
X287394Y10000D01*
X217000Y10500D02*
X219886Y7614D01*
X282746D02*
X287131Y12000D01*
X266308Y8414D02*
X273394Y15500D01*
X288388Y7600D02*
X298100D01*
X288057Y8400D02*
X297400D01*
X301500Y12500D01*
Y15500D01*
X287725Y9200D02*
X295200D01*
X299000Y13000D01*
X293000Y10000D02*
X296000Y13000D01*
X287394Y10000D02*
X293000D01*
X289629Y12500D02*
X290000D01*
X289129Y12000D02*
X289629Y12500D01*
X287131Y12000D02*
X289129D01*
X287063Y10800D02*
X290800D01*
X273394Y15500D02*
X289500D01*
X290800Y10800D02*
X293000Y13000D01*
Y13000D01*
X234500Y12000D02*
X268763D01*
X232500Y13000D02*
X268631D01*
X229900Y13900D02*
X268400D01*
X228200Y14700D02*
X264331D01*
X226500Y15500D02*
X264000D01*
X262762Y16383D02*
X273500Y27120D01*
X248402Y16383D02*
X262762D01*
X264000Y15500D02*
X274300Y25800D01*
X264331Y14700D02*
X275100Y25469D01*
X233500Y11000D02*
X234500Y12000D01*
X274500Y17737D02*
Y21369D01*
X268763Y12000D02*
X274500Y17737D01*
Y21369D02*
X279500Y26369D01*
Y28013D01*
Y28086D01*
X279914Y28500D01*
X268400Y13900D02*
X272131Y17631D01*
X268631Y13000D02*
X273303Y17672D01*
X223500Y12500D02*
X226500Y15500D01*
X223500Y11000D02*
Y12500D01*
X226000D02*
X228200Y14700D01*
X226000Y11000D02*
Y12500D01*
X228900Y12900D02*
X229900Y13900D01*
X228900Y11920D02*
Y12900D01*
X228272Y11000D02*
Y11292D01*
X228900Y11920D01*
X231000Y11000D02*
Y11371D01*
X231401Y11772D01*
Y11901D02*
X232500Y13000D01*
X231401Y11772D02*
Y11901D01*
X246285Y18500D02*
X248402Y16383D01*
X273303Y17672D02*
Y21303D01*
X277083Y25083D01*
Y29083D02*
X278500Y30500D01*
X277083Y25083D02*
Y29083D01*
X275100Y25469D02*
Y33100D01*
X274300Y25800D02*
Y35800D01*
X272131Y17631D02*
Y21369D01*
X276283Y25520D02*
Y31283D01*
X273500Y27120D02*
Y37000D01*
X272131Y21369D02*
X276283Y25520D01*
X273500Y37000D02*
X275000Y38500D01*
X274300Y35800D02*
X275252Y36752D01*
X290252D01*
X278129Y33000D02*
X278500D01*
X277728Y32599D02*
X278129Y33000D01*
X277599Y32599D02*
X277728D01*
X276283Y31283D02*
X277599Y32599D01*
X275100Y33100D02*
X277000Y35000D01*
X77500Y342000D02*
X85500D01*
X91500Y348000D01*
X76000Y343500D02*
X77500Y342000D01*
X76000Y343500D02*
Y357500D01*
X356500Y373000D02*
X359000D01*
X360000Y372000D01*
Y369000D02*
Y372000D01*
Y369000D02*
X361500Y367500D01*
X377500D01*
X379500Y365500D01*
Y362369D02*
Y365500D01*
X377369Y366500D02*
X378500Y365369D01*
X360500Y366500D02*
X377369D01*
X378500Y362500D02*
Y365369D01*
X377800Y360669D02*
X379500Y362369D01*
X377800Y341331D02*
Y360669D01*
Y341331D02*
X387000Y332131D01*
Y83500D02*
Y332131D01*
X348500Y47000D02*
X386200Y84700D01*
X350000Y46500D02*
X387000Y83500D01*
X377000Y341000D02*
X386200Y331800D01*
Y84700D02*
Y331800D01*
X350000Y32500D02*
Y46500D01*
X343500Y26000D02*
X350000Y32500D01*
X338000Y26000D02*
X343500D01*
X334000Y30000D02*
X338000Y26000D01*
X334000Y30000D02*
Y33000D01*
X326500Y40500D02*
X334000Y33000D01*
X293000Y40500D02*
X326500D01*
X377000Y341000D02*
Y361000D01*
X358500Y368500D02*
X360500Y366500D01*
X377000Y361000D02*
X378500Y362500D01*
X379500Y350500D02*
X383986D01*
X91000Y368500D02*
X358500D01*
X81500Y348000D02*
Y359000D01*
X91000Y368500D01*
X348500Y33000D02*
Y47000D01*
X335000Y30500D02*
X338500Y27000D01*
X335000Y30500D02*
Y34000D01*
X338500Y27000D02*
X342500D01*
X326500Y42500D02*
X335000Y34000D01*
X388614Y355129D02*
X388614D01*
X383986Y350500D02*
X388614Y355129D01*
X342500Y27000D02*
X348500Y33000D01*
X294000Y348500D02*
Y360000D01*
X297700Y363700D01*
X278700Y343800D02*
Y359331D01*
X284000Y359000D02*
X289500Y364500D01*
X332000D01*
X278700Y359331D02*
X284669Y365300D01*
X331300D01*
X332000Y364500D02*
X334000Y366500D01*
X331300Y365300D02*
X333300Y367300D01*
X284000Y348500D02*
Y359000D01*
X297700Y363700D02*
X332331D01*
X334331Y365700D01*
X356800D02*
X361800Y360700D01*
X334331Y365700D02*
X356800D01*
X334000Y366500D02*
X357500D01*
X362500Y361500D01*
X358200Y367300D02*
X363000Y362500D01*
X333300Y367300D02*
X358200D01*
X371428Y363428D02*
Y364485D01*
X361800Y360700D02*
X372500D01*
X371428Y364485D02*
X371557Y364614D01*
X374500Y346614D02*
Y358700D01*
X372500Y360700D02*
X374500Y358700D01*
X362500Y361500D02*
X373000D01*
X278700Y343800D02*
X283000Y339500D01*
Y339000D02*
Y339500D01*
X374000Y362500D02*
Y364573D01*
X373000Y361500D02*
X374000Y362500D01*
X363000D02*
X370500D01*
X371428Y363428D01*
X368250Y223250D02*
X368500Y223500D01*
D68*
X41500Y348000D02*
D03*
X81500D02*
D03*
X91500D02*
D03*
X284000Y338500D02*
D03*
Y348500D02*
D03*
X294000Y338500D02*
D03*
Y348500D02*
D03*
D69*
X253500Y81000D02*
D03*
X223500D02*
D03*
X168000D02*
D03*
X138000D02*
D03*
X154000Y60000D02*
D03*
X109500Y69000D02*
D03*
X82000D02*
D03*
X43000Y67500D02*
D03*
X13000D02*
D03*
X43000Y48000D02*
D03*
D74*
X186000Y25500D02*
D03*
X178500D02*
D03*
X171500D02*
D03*
X165500D02*
D03*
X184000Y44000D02*
D03*
X168000D02*
D03*
X175500D02*
D03*
X180000D02*
D03*
X172000D02*
D03*
X149500Y24500D02*
D03*
X151500D02*
D03*
Y26500D02*
D03*
X149500D02*
D03*
X152000Y39500D02*
D03*
Y37000D02*
D03*
X149500D02*
D03*
Y39500D02*
D03*
X223000Y22000D02*
D03*
X238500Y21500D02*
D03*
X241000D02*
D03*
X243500D02*
D03*
X232500D02*
D03*
X235000D02*
D03*
X309000Y52500D02*
D03*
X306500Y50000D02*
D03*
X291500Y47000D02*
D03*
X309500Y47500D02*
D03*
X231000Y11000D02*
D03*
X212000D02*
D03*
X217000Y10914D02*
D03*
X214495Y10917D02*
D03*
X249500Y343886D02*
D03*
X278500Y38500D02*
D03*
X290500Y42500D02*
D03*
X293000Y44500D02*
D03*
X367500Y138000D02*
D03*
X363314Y92000D02*
D03*
X234000D02*
D03*
X199500Y11000D02*
D03*
X296500Y5000D02*
D03*
X202000Y11000D02*
D03*
X303500Y9500D02*
D03*
Y13000D02*
D03*
X204500Y11000D02*
D03*
X207000D02*
D03*
X299000Y13000D02*
D03*
X301500Y15500D02*
D03*
X209500Y11000D02*
D03*
X296000Y13000D02*
D03*
X290000Y12500D02*
D03*
X293000Y13000D02*
D03*
X219500Y11000D02*
D03*
X289500Y15500D02*
D03*
X233500Y11000D02*
D03*
X279500Y28013D02*
D03*
X278500Y30500D02*
D03*
X228272Y11000D02*
D03*
X278500Y33000D02*
D03*
X226000Y11000D02*
D03*
X277000Y35000D02*
D03*
X223500Y11000D02*
D03*
X290252Y36752D02*
D03*
X293000Y40500D02*
D03*
X379500Y350500D02*
D03*
X223000Y375000D02*
D03*
X341500Y339414D02*
D03*
X341000Y346586D02*
D03*
X340656Y350693D02*
D03*
X345414Y363500D02*
D03*
X363250Y342250D02*
D03*
X371000Y334314D02*
D03*
X371557Y364614D02*
D03*
X374500Y346614D02*
D03*
X310500Y344500D02*
D03*
X335000Y363000D02*
D03*
X388614Y355129D02*
D03*
X383000Y342500D02*
D03*
X374000Y364573D02*
D03*
X224000Y67500D02*
D03*
X42500Y79500D02*
D03*
X44500Y36000D02*
D03*
X87500Y15000D02*
D03*
X117000D02*
D03*
X162000Y48500D02*
D03*
X162500Y93500D02*
D03*
X376500Y304500D02*
D03*
X371086Y229057D02*
D03*
X356000Y187000D02*
D03*
X356214Y180000D02*
D03*
X368500Y223500D02*
D03*
X380286Y182000D02*
D03*
X357000Y77500D02*
D03*
X356810Y71304D02*
D03*
X373000Y39000D02*
D03*
X310500Y11000D02*
D03*
X358000Y37000D02*
D03*
X271000Y78500D02*
D03*
X324000Y91614D02*
D03*
X277000Y69000D02*
D03*
X223500Y37500D02*
D03*
X221500Y40000D02*
D03*
D83*
X58000Y67500D02*
D03*
Y48000D02*
D03*
M02*
