G04*
G04 #@! TF.GenerationSoftware,Altium Limited,Altium Designer,20.0.13 (296)*
G04*
G04 Layer_Color=8388736*
%FSLAX25Y25*%
%MOIN*%
G70*
G01*
G75*
%ADD17O,0.01968X0.06693*%
%ADD18O,0.02559X0.05906*%
%ADD19O,0.01968X0.06102*%
%ADD20O,0.06102X0.01968*%
%ADD21R,0.03347X0.03150*%
%ADD22O,0.03150X0.07284*%
%ADD23O,0.07087X0.01772*%
%ADD24O,0.01772X0.07087*%
%ADD25O,0.06890X0.02362*%
%ADD26R,0.05315X0.03150*%
%ADD27O,0.03150X0.07087*%
%ADD28O,0.07087X0.03150*%
%ADD29R,0.01772X0.06496*%
%ADD30R,0.01968X0.02362*%
%ADD31C,0.07874*%
%ADD32R,0.03150X0.03347*%
%ADD33R,0.04528X0.04528*%
%ADD34R,0.03425X0.03583*%
%ADD35R,0.03583X0.03425*%
%ADD36R,0.06299X0.06496*%
G04:AMPARAMS|DCode=37|XSize=47.24mil|YSize=43.31mil|CornerRadius=0mil|HoleSize=0mil|Usage=FLASHONLY|Rotation=45.000|XOffset=0mil|YOffset=0mil|HoleType=Round|Shape=Rectangle|*
%AMROTATEDRECTD37*
4,1,4,-0.00139,-0.03202,-0.03202,-0.00139,0.00139,0.03202,0.03202,0.00139,-0.00139,-0.03202,0.0*
%
%ADD37ROTATEDRECTD37*%

%ADD38R,0.03425X0.03425*%
%ADD39C,0.06969*%
%ADD40C,0.05119*%
%ADD41R,0.05119X0.05119*%
%ADD42C,0.20276*%
%ADD43R,0.05119X0.05119*%
%ADD44C,0.06299*%
%ADD45C,0.02362*%
D17*
X326937Y356653D02*
D03*
X324969D02*
D03*
X323000D02*
D03*
X321031D02*
D03*
X319063D02*
D03*
X326937Y338347D02*
D03*
X324969D02*
D03*
X323000D02*
D03*
X321031D02*
D03*
X319063D02*
D03*
D18*
X345382Y339894D02*
D03*
X347941D02*
D03*
X350500D02*
D03*
X353059D02*
D03*
X345382Y357807D02*
D03*
X347941D02*
D03*
X350500D02*
D03*
X353059D02*
D03*
D19*
X376437Y359661D02*
D03*
X374468D02*
D03*
X372500D02*
D03*
X370532D02*
D03*
X368563D02*
D03*
X376437Y342339D02*
D03*
X374468D02*
D03*
X372500D02*
D03*
X370532D02*
D03*
X368563D02*
D03*
D20*
X361339Y172937D02*
D03*
Y170968D02*
D03*
Y169000D02*
D03*
Y167032D02*
D03*
Y165063D02*
D03*
X378661Y172937D02*
D03*
Y170968D02*
D03*
Y169000D02*
D03*
Y167032D02*
D03*
Y165063D02*
D03*
D21*
X333130Y350000D02*
D03*
X336870D02*
D03*
X379000Y184500D02*
D03*
X375260D02*
D03*
X146130Y374000D02*
D03*
X149870D02*
D03*
X186260Y374500D02*
D03*
X190000D02*
D03*
X227260Y375000D02*
D03*
X231000D02*
D03*
X229870Y92000D02*
D03*
X226130D02*
D03*
X158500D02*
D03*
X154760D02*
D03*
X113000Y15000D02*
D03*
X109260D02*
D03*
X158000Y48500D02*
D03*
X154260D02*
D03*
X39870Y36000D02*
D03*
X36130D02*
D03*
X83370Y15000D02*
D03*
X79630D02*
D03*
X37870Y79500D02*
D03*
X34130D02*
D03*
X368870Y189000D02*
D03*
X365130D02*
D03*
X377630Y289000D02*
D03*
X381370D02*
D03*
X365260Y184500D02*
D03*
X369000D02*
D03*
X363740Y289000D02*
D03*
X360000D02*
D03*
X368760D02*
D03*
X372500D02*
D03*
X373370Y151000D02*
D03*
X369630D02*
D03*
X372870Y331500D02*
D03*
X369130D02*
D03*
X378870Y188500D02*
D03*
X375130D02*
D03*
X360630Y270000D02*
D03*
X364370D02*
D03*
X372870Y328000D02*
D03*
X369130D02*
D03*
X381370Y151000D02*
D03*
X377630D02*
D03*
X370760Y113000D02*
D03*
X374500D02*
D03*
X331260Y356000D02*
D03*
X335000D02*
D03*
X331260Y360000D02*
D03*
X335000D02*
D03*
X333130Y345500D02*
D03*
X336870D02*
D03*
X369740Y76500D02*
D03*
X366000D02*
D03*
Y263500D02*
D03*
X362260D02*
D03*
X314130Y382500D02*
D03*
X317870D02*
D03*
X318000Y377500D02*
D03*
X314260D02*
D03*
X317870Y367500D02*
D03*
X314130D02*
D03*
X355260D02*
D03*
X359000D02*
D03*
D22*
X368500Y46976D02*
D03*
X373500D02*
D03*
X378500D02*
D03*
X383500D02*
D03*
X368500Y69024D02*
D03*
X373500D02*
D03*
X378500D02*
D03*
X383500D02*
D03*
X364500Y120976D02*
D03*
X369500D02*
D03*
X374500D02*
D03*
X379500D02*
D03*
X364500Y143024D02*
D03*
X369500D02*
D03*
X374500D02*
D03*
X379500D02*
D03*
X377000Y319524D02*
D03*
X372000D02*
D03*
X367000D02*
D03*
X362000D02*
D03*
X377000Y297476D02*
D03*
X372000D02*
D03*
X367000D02*
D03*
X362000D02*
D03*
X364500Y233976D02*
D03*
X369500D02*
D03*
X374500D02*
D03*
X379500D02*
D03*
X364500Y256024D02*
D03*
X369500D02*
D03*
X374500D02*
D03*
X379500D02*
D03*
D23*
X346307Y76122D02*
D03*
Y74154D02*
D03*
Y72185D02*
D03*
Y70217D02*
D03*
Y68248D02*
D03*
Y66280D02*
D03*
Y64311D02*
D03*
Y62343D02*
D03*
Y60374D02*
D03*
Y58406D02*
D03*
Y56437D02*
D03*
Y54469D02*
D03*
Y52500D02*
D03*
Y50532D02*
D03*
Y48563D02*
D03*
Y46595D02*
D03*
Y44626D02*
D03*
Y42658D02*
D03*
Y40689D02*
D03*
Y38721D02*
D03*
Y36752D02*
D03*
Y34784D02*
D03*
Y32815D02*
D03*
Y30847D02*
D03*
Y28878D02*
D03*
X284693D02*
D03*
Y30847D02*
D03*
Y32815D02*
D03*
Y34784D02*
D03*
Y36752D02*
D03*
Y38721D02*
D03*
Y40689D02*
D03*
Y42658D02*
D03*
Y44626D02*
D03*
Y46595D02*
D03*
Y48563D02*
D03*
Y50532D02*
D03*
Y52500D02*
D03*
Y54469D02*
D03*
Y56437D02*
D03*
Y58406D02*
D03*
Y60374D02*
D03*
Y62343D02*
D03*
Y64311D02*
D03*
Y66280D02*
D03*
Y68248D02*
D03*
Y70217D02*
D03*
Y72185D02*
D03*
Y74154D02*
D03*
Y76122D02*
D03*
D24*
X339122Y21693D02*
D03*
X337154D02*
D03*
X335185D02*
D03*
X333217D02*
D03*
X331248D02*
D03*
X329279D02*
D03*
X327311D02*
D03*
X325342D02*
D03*
X323374D02*
D03*
X321406D02*
D03*
X319437D02*
D03*
X317469D02*
D03*
X315500D02*
D03*
X313531D02*
D03*
X311563D02*
D03*
X309594D02*
D03*
X307626D02*
D03*
X305658D02*
D03*
X303689D02*
D03*
X301720D02*
D03*
X299752D02*
D03*
X297783D02*
D03*
X295815D02*
D03*
X293847D02*
D03*
X291878D02*
D03*
Y83307D02*
D03*
X293847D02*
D03*
X295815D02*
D03*
X297783D02*
D03*
X299752D02*
D03*
X301720D02*
D03*
X303689D02*
D03*
X305658D02*
D03*
X307626D02*
D03*
X309594D02*
D03*
X311563D02*
D03*
X313531D02*
D03*
X315500D02*
D03*
X317469D02*
D03*
X319437D02*
D03*
X321406D02*
D03*
X323374D02*
D03*
X325342D02*
D03*
X327311D02*
D03*
X329279D02*
D03*
X331248D02*
D03*
X333217D02*
D03*
X335185D02*
D03*
X337154D02*
D03*
X339122D02*
D03*
D25*
X252508Y45043D02*
D03*
Y47602D02*
D03*
Y50161D02*
D03*
Y52720D02*
D03*
Y55279D02*
D03*
Y57839D02*
D03*
Y60398D02*
D03*
Y62957D02*
D03*
X228492Y45043D02*
D03*
Y47602D02*
D03*
Y50161D02*
D03*
Y52720D02*
D03*
Y55279D02*
D03*
Y57839D02*
D03*
Y60398D02*
D03*
Y62957D02*
D03*
D26*
X364382Y282240D02*
D03*
Y274760D02*
D03*
X374618Y278500D02*
D03*
X375618Y98760D02*
D03*
Y106240D02*
D03*
X365382Y102500D02*
D03*
D27*
X365000Y196378D02*
D03*
X370000D02*
D03*
X375000D02*
D03*
X380000D02*
D03*
X365000Y218622D02*
D03*
X370000D02*
D03*
X375000D02*
D03*
X380000D02*
D03*
D28*
X325378Y382500D02*
D03*
Y377500D02*
D03*
Y372500D02*
D03*
Y367500D02*
D03*
X347622Y382500D02*
D03*
Y377500D02*
D03*
Y372500D02*
D03*
Y367500D02*
D03*
D29*
X148697Y356642D02*
D03*
Y342075D02*
D03*
X150665Y356642D02*
D03*
Y342075D02*
D03*
X152634Y356642D02*
D03*
Y342075D02*
D03*
X154602Y356642D02*
D03*
Y342075D02*
D03*
X156571Y356642D02*
D03*
Y342075D02*
D03*
X158539Y356642D02*
D03*
Y342075D02*
D03*
X160508Y356642D02*
D03*
Y342075D02*
D03*
X162476Y356642D02*
D03*
Y342075D02*
D03*
X164445Y356642D02*
D03*
Y342075D02*
D03*
X166413Y356642D02*
D03*
Y342075D02*
D03*
X168382Y356642D02*
D03*
Y342075D02*
D03*
X170350Y356642D02*
D03*
Y342075D02*
D03*
X172319Y356642D02*
D03*
Y342075D02*
D03*
X174287Y356642D02*
D03*
Y342075D02*
D03*
X176256Y356642D02*
D03*
Y342075D02*
D03*
X178224Y356642D02*
D03*
Y342075D02*
D03*
X180193Y356642D02*
D03*
Y342075D02*
D03*
X182161Y356642D02*
D03*
Y342075D02*
D03*
X184130Y356642D02*
D03*
Y342075D02*
D03*
X186098Y356642D02*
D03*
Y342075D02*
D03*
X188067Y356642D02*
D03*
Y342075D02*
D03*
X190035Y356642D02*
D03*
Y342075D02*
D03*
X192004Y356642D02*
D03*
Y342075D02*
D03*
X193972Y356642D02*
D03*
Y342075D02*
D03*
X195941Y356642D02*
D03*
Y342075D02*
D03*
X197909Y356642D02*
D03*
Y342075D02*
D03*
X199878Y356642D02*
D03*
Y342075D02*
D03*
X201847Y356642D02*
D03*
Y342075D02*
D03*
X203815Y356642D02*
D03*
Y342075D02*
D03*
X205784Y356642D02*
D03*
Y342075D02*
D03*
X207752Y356642D02*
D03*
Y342075D02*
D03*
X209720Y356642D02*
D03*
Y342075D02*
D03*
X211689Y356642D02*
D03*
Y342075D02*
D03*
X213657Y356642D02*
D03*
Y342075D02*
D03*
X215626Y356642D02*
D03*
Y342075D02*
D03*
X217595Y356642D02*
D03*
Y342075D02*
D03*
X219563Y356642D02*
D03*
Y342075D02*
D03*
X221532Y356642D02*
D03*
Y342075D02*
D03*
X223500Y356642D02*
D03*
Y342075D02*
D03*
X225468Y356642D02*
D03*
Y342075D02*
D03*
X227437Y356642D02*
D03*
Y342075D02*
D03*
X229405Y356642D02*
D03*
Y342075D02*
D03*
X231374Y356642D02*
D03*
Y342075D02*
D03*
X233343Y356642D02*
D03*
Y342075D02*
D03*
X235311Y356642D02*
D03*
Y342075D02*
D03*
X237280Y356642D02*
D03*
Y342075D02*
D03*
X239248Y356642D02*
D03*
Y342075D02*
D03*
X241216Y356642D02*
D03*
Y342075D02*
D03*
X243185Y356642D02*
D03*
Y342075D02*
D03*
X245153Y356642D02*
D03*
Y342075D02*
D03*
X148697Y31051D02*
D03*
Y16484D02*
D03*
X150665Y31051D02*
D03*
Y16484D02*
D03*
X152634Y31051D02*
D03*
Y16484D02*
D03*
X154602Y31051D02*
D03*
Y16484D02*
D03*
X156571Y31051D02*
D03*
Y16484D02*
D03*
X158539Y31051D02*
D03*
Y16484D02*
D03*
X160508Y31051D02*
D03*
Y16484D02*
D03*
X162476Y31051D02*
D03*
Y16484D02*
D03*
X164445Y31051D02*
D03*
Y16484D02*
D03*
X166413Y31051D02*
D03*
Y16484D02*
D03*
X168382Y31051D02*
D03*
Y16484D02*
D03*
X170350Y31051D02*
D03*
Y16484D02*
D03*
X172319Y31051D02*
D03*
Y16484D02*
D03*
X174287Y31051D02*
D03*
Y16484D02*
D03*
X176256Y31051D02*
D03*
Y16484D02*
D03*
X178224Y31051D02*
D03*
Y16484D02*
D03*
X180193Y31051D02*
D03*
Y16484D02*
D03*
X182161Y31051D02*
D03*
Y16484D02*
D03*
X184130Y31051D02*
D03*
Y16484D02*
D03*
X186098Y31051D02*
D03*
Y16484D02*
D03*
X188067Y31051D02*
D03*
Y16484D02*
D03*
X190035Y31051D02*
D03*
Y16484D02*
D03*
X192004Y31051D02*
D03*
Y16484D02*
D03*
X193972Y31051D02*
D03*
Y16484D02*
D03*
X195941Y31051D02*
D03*
Y16484D02*
D03*
X197909Y31051D02*
D03*
Y16484D02*
D03*
X199878Y31051D02*
D03*
Y16484D02*
D03*
X201847Y31051D02*
D03*
Y16484D02*
D03*
X203815Y31051D02*
D03*
Y16484D02*
D03*
X205784Y31051D02*
D03*
Y16484D02*
D03*
X207752Y31051D02*
D03*
Y16484D02*
D03*
X209720Y31051D02*
D03*
Y16484D02*
D03*
X211689Y31051D02*
D03*
Y16484D02*
D03*
X213657Y31051D02*
D03*
Y16484D02*
D03*
X215626Y31051D02*
D03*
Y16484D02*
D03*
X217595Y31051D02*
D03*
Y16484D02*
D03*
X219563Y31051D02*
D03*
Y16484D02*
D03*
X221532Y31051D02*
D03*
Y16484D02*
D03*
X223500Y31051D02*
D03*
Y16484D02*
D03*
X225468Y31051D02*
D03*
Y16484D02*
D03*
X227437Y31051D02*
D03*
Y16484D02*
D03*
X229405Y31051D02*
D03*
Y16484D02*
D03*
X231374Y31051D02*
D03*
Y16484D02*
D03*
X233343Y31051D02*
D03*
Y16484D02*
D03*
X235311Y31051D02*
D03*
Y16484D02*
D03*
X237280Y31051D02*
D03*
Y16484D02*
D03*
X239248Y31051D02*
D03*
Y16484D02*
D03*
X241216Y31051D02*
D03*
Y16484D02*
D03*
X243185Y31051D02*
D03*
Y16484D02*
D03*
X245153Y31051D02*
D03*
Y16484D02*
D03*
D30*
X154718Y374000D02*
D03*
X158262D02*
D03*
X195457Y374500D02*
D03*
X199000D02*
D03*
X235957Y375000D02*
D03*
X239500D02*
D03*
X221543Y92000D02*
D03*
X218000D02*
D03*
X150043D02*
D03*
X146500D02*
D03*
X105000Y15000D02*
D03*
X101457D02*
D03*
X149500Y48500D02*
D03*
X145957D02*
D03*
X31500Y36000D02*
D03*
X27957D02*
D03*
X75000Y15000D02*
D03*
X71457D02*
D03*
X30000Y79500D02*
D03*
X26457D02*
D03*
D31*
X379012Y35374D02*
D03*
X14839Y33413D02*
D03*
X15626Y360579D02*
D03*
D32*
X362500Y335500D02*
D03*
Y339240D02*
D03*
X358000D02*
D03*
Y335500D02*
D03*
X358500Y349240D02*
D03*
Y345500D02*
D03*
X338500Y335630D02*
D03*
Y339370D02*
D03*
X334500D02*
D03*
Y335630D02*
D03*
X367000Y88760D02*
D03*
Y92500D02*
D03*
X371500D02*
D03*
Y88760D02*
D03*
X381500Y113240D02*
D03*
Y109500D02*
D03*
Y100760D02*
D03*
Y104500D02*
D03*
X274500Y74760D02*
D03*
Y78500D02*
D03*
D33*
X381000Y92587D02*
D03*
Y85500D02*
D03*
D34*
X353500Y67642D02*
D03*
Y71500D02*
D03*
Y80358D02*
D03*
Y76500D02*
D03*
X279000Y76000D02*
D03*
Y72142D02*
D03*
X354000Y40858D02*
D03*
Y37000D02*
D03*
X314000Y340000D02*
D03*
Y343858D02*
D03*
X369000Y36571D02*
D03*
Y40429D02*
D03*
X380000Y344358D02*
D03*
Y340500D02*
D03*
D35*
X317071Y89500D02*
D03*
X320929D02*
D03*
X314500Y14500D02*
D03*
X310642D02*
D03*
X232429Y67500D02*
D03*
X228571D02*
D03*
X380858Y177000D02*
D03*
X377000D02*
D03*
X378858Y227000D02*
D03*
X375000D02*
D03*
D36*
X383000Y77000D02*
D03*
X375716D02*
D03*
X380283Y266000D02*
D03*
X373000D02*
D03*
D37*
X267185Y62082D02*
D03*
X271918Y66815D02*
D03*
X271082Y58185D02*
D03*
X275815Y62918D02*
D03*
D38*
X265984Y74000D02*
D03*
X270000D02*
D03*
X265484Y51500D02*
D03*
X269500D02*
D03*
D39*
X41500Y348000D02*
D03*
X51500D02*
D03*
X61500D02*
D03*
X71500D02*
D03*
X81500D02*
D03*
X91500D02*
D03*
X274000Y338500D02*
D03*
Y348500D02*
D03*
X284000Y338500D02*
D03*
Y348500D02*
D03*
X294000Y338500D02*
D03*
Y348500D02*
D03*
D40*
X253500Y81000D02*
D03*
X238500D02*
D03*
X223500D02*
D03*
X168000D02*
D03*
X153000D02*
D03*
X138000D02*
D03*
X154000Y60000D02*
D03*
X169000D02*
D03*
X184000D02*
D03*
X109500Y79000D02*
D03*
Y69000D02*
D03*
Y49000D02*
D03*
Y39000D02*
D03*
Y29000D02*
D03*
X82000Y79000D02*
D03*
Y69000D02*
D03*
Y49000D02*
D03*
Y39000D02*
D03*
Y29000D02*
D03*
X43000Y67500D02*
D03*
X28000D02*
D03*
X13000D02*
D03*
X43000Y48000D02*
D03*
X28000D02*
D03*
X13000D02*
D03*
D41*
X208500Y81000D02*
D03*
X183000D02*
D03*
X139000Y60000D02*
D03*
X58000Y67500D02*
D03*
Y48000D02*
D03*
D42*
X15626Y379083D02*
D03*
X378618D02*
D03*
X379012Y16091D02*
D03*
X14839Y14122D02*
D03*
D43*
X109500Y89000D02*
D03*
X82000D02*
D03*
D44*
X250075Y352705D02*
D03*
X143776D02*
D03*
X250075Y20421D02*
D03*
X143776D02*
D03*
X250075Y27114D02*
D03*
X143776D02*
D03*
D45*
X234681Y25500D02*
D03*
X204500Y39000D02*
D03*
X209500Y40000D02*
D03*
X186000Y349303D02*
D03*
X184000Y347000D02*
D03*
X182000Y349177D02*
D03*
X180193Y347193D02*
D03*
X186000Y25500D02*
D03*
X178500D02*
D03*
X171500D02*
D03*
X165500D02*
D03*
X184000Y44000D02*
D03*
X168000D02*
D03*
X175500D02*
D03*
X180000D02*
D03*
X172000D02*
D03*
X152000Y9000D02*
D03*
X149000D02*
D03*
X150500Y10500D02*
D03*
X149500Y24500D02*
D03*
X151500D02*
D03*
Y26500D02*
D03*
X149500D02*
D03*
X152000Y39500D02*
D03*
Y37000D02*
D03*
X149500D02*
D03*
Y39500D02*
D03*
X174000Y40500D02*
D03*
X176145Y37892D02*
D03*
X180188Y37693D02*
D03*
X184114Y38000D02*
D03*
X188067D02*
D03*
X172314Y36316D02*
D03*
X168377Y38000D02*
D03*
X164450D02*
D03*
X160500D02*
D03*
X156566Y37929D02*
D03*
X206000Y26500D02*
D03*
X204500Y24500D02*
D03*
X207000D02*
D03*
X206000Y37000D02*
D03*
X207000Y39000D02*
D03*
X219000Y37000D02*
D03*
X216500D02*
D03*
X217500Y40000D02*
D03*
X218000Y24500D02*
D03*
X216500Y26500D02*
D03*
X219000D02*
D03*
X223000Y22000D02*
D03*
X233000Y39000D02*
D03*
X235500D02*
D03*
X238000D02*
D03*
X232000Y25500D02*
D03*
X238500D02*
D03*
Y21500D02*
D03*
X241000D02*
D03*
X243500D02*
D03*
X232500D02*
D03*
X235000D02*
D03*
X259000Y34500D02*
D03*
X309000Y52500D02*
D03*
X306500Y50000D02*
D03*
X291500Y47000D02*
D03*
X309500Y47500D02*
D03*
X231000Y11000D02*
D03*
X212000D02*
D03*
X217000Y10914D02*
D03*
X214495Y10917D02*
D03*
X203000Y348000D02*
D03*
X200000D02*
D03*
X261978Y358978D02*
D03*
X260000Y362000D02*
D03*
X316500Y356000D02*
D03*
X356086Y182914D02*
D03*
X241586Y362000D02*
D03*
X223500Y364500D02*
D03*
X150500Y350000D02*
D03*
X154500D02*
D03*
X157379Y346879D02*
D03*
X249500Y343886D02*
D03*
X278500Y38500D02*
D03*
X290500Y42500D02*
D03*
X293000Y44500D02*
D03*
X367500Y138000D02*
D03*
X363314Y92000D02*
D03*
X234000D02*
D03*
X199500Y11000D02*
D03*
X296500Y5000D02*
D03*
X202000Y11000D02*
D03*
X303500Y9500D02*
D03*
Y13000D02*
D03*
X204500Y11000D02*
D03*
X207000D02*
D03*
X299000Y13000D02*
D03*
X301500Y15500D02*
D03*
X209500Y11000D02*
D03*
X296000Y13000D02*
D03*
X290000Y12500D02*
D03*
X293000Y13000D02*
D03*
X259500Y10000D02*
D03*
X219500Y11000D02*
D03*
X289500Y15500D02*
D03*
X233500Y11000D02*
D03*
X245500Y10414D02*
D03*
X279500Y28013D02*
D03*
X162500Y6914D02*
D03*
X271000Y29000D02*
D03*
X270069Y25932D02*
D03*
X278500Y30500D02*
D03*
X228272Y11000D02*
D03*
X278500Y33000D02*
D03*
X226000Y11000D02*
D03*
X270187Y18313D02*
D03*
X277000Y35000D02*
D03*
X223500Y11000D02*
D03*
X290252Y36752D02*
D03*
X293000Y40500D02*
D03*
X379500Y350500D02*
D03*
X340500Y29000D02*
D03*
X333000Y75000D02*
D03*
X159500Y10000D02*
D03*
X244000Y37500D02*
D03*
X241500D02*
D03*
X271500Y32000D02*
D03*
X141500Y374000D02*
D03*
X182500Y374500D02*
D03*
X194086Y362500D02*
D03*
X192500Y380000D02*
D03*
X190000Y383000D02*
D03*
X196000Y364500D02*
D03*
X198000Y362500D02*
D03*
X200000Y364500D02*
D03*
X202000Y362500D02*
D03*
X204000Y364500D02*
D03*
X206000Y362500D02*
D03*
X208000Y364500D02*
D03*
X243000Y374814D02*
D03*
X210000Y362500D02*
D03*
X211750Y364500D02*
D03*
X213500Y362500D02*
D03*
X215500Y364500D02*
D03*
X217500Y362500D02*
D03*
X219500Y364500D02*
D03*
X223000Y375000D02*
D03*
X221500Y362500D02*
D03*
X227500Y364000D02*
D03*
X225500Y362000D02*
D03*
X229500D02*
D03*
X231500Y364000D02*
D03*
X233500Y362000D02*
D03*
X235500Y364000D02*
D03*
X237500Y362000D02*
D03*
X240000Y364000D02*
D03*
X243500Y363500D02*
D03*
X245500Y361500D02*
D03*
X159121Y350621D02*
D03*
X156500Y352000D02*
D03*
X160500Y347000D02*
D03*
X152500Y352000D02*
D03*
X148500D02*
D03*
X168500Y337000D02*
D03*
X172500D02*
D03*
X170500Y335686D02*
D03*
X166713Y334500D02*
D03*
X162500Y335500D02*
D03*
X160500Y337000D02*
D03*
X158500Y335500D02*
D03*
X156500Y337000D02*
D03*
X154500Y335500D02*
D03*
X152500Y337000D02*
D03*
X150500Y335500D02*
D03*
X148500Y337000D02*
D03*
X161500Y374000D02*
D03*
X203000Y374500D02*
D03*
X358997Y377497D02*
D03*
X361500Y375000D02*
D03*
X357682Y370682D02*
D03*
X342500Y381914D02*
D03*
X336500Y380000D02*
D03*
X309500Y375000D02*
D03*
X331500Y339500D02*
D03*
X341500Y339414D02*
D03*
X341000Y346586D02*
D03*
X340656Y350693D02*
D03*
X337914Y356086D02*
D03*
X345414Y363500D02*
D03*
X308875Y380125D02*
D03*
X353893Y363307D02*
D03*
X363250Y342250D02*
D03*
X370870Y325000D02*
D03*
X371000Y334314D02*
D03*
X371557Y364614D02*
D03*
X374500Y346614D02*
D03*
X376364Y364614D02*
D03*
X368386D02*
D03*
X309500Y355500D02*
D03*
X310500Y344500D02*
D03*
X310495Y339914D02*
D03*
X323000Y361414D02*
D03*
X380000Y347500D02*
D03*
X383500Y348500D02*
D03*
X335000Y363000D02*
D03*
X388614Y355129D02*
D03*
X383000Y342500D02*
D03*
X374000Y364573D02*
D03*
X246500Y63000D02*
D03*
X232500Y71000D02*
D03*
X224000Y67500D02*
D03*
X42500Y79500D02*
D03*
X44500Y36000D02*
D03*
X87500Y15000D02*
D03*
X117000D02*
D03*
X162000Y48500D02*
D03*
X162500Y93500D02*
D03*
X376500Y304500D02*
D03*
X371000Y286000D02*
D03*
Y314000D02*
D03*
Y242500D02*
D03*
Y246500D02*
D03*
Y251000D02*
D03*
X371086Y229057D02*
D03*
X356000Y187000D02*
D03*
X358000Y215500D02*
D03*
X356214Y180000D02*
D03*
X356500Y177399D02*
D03*
X358000Y162500D02*
D03*
Y160000D02*
D03*
X368500Y223500D02*
D03*
X380614Y148336D02*
D03*
X378000Y125454D02*
D03*
X380442Y201343D02*
D03*
X380286Y182000D02*
D03*
Y191500D02*
D03*
X380429Y179500D02*
D03*
X376000Y87000D02*
D03*
X357000Y77500D02*
D03*
X356810Y71304D02*
D03*
X387216Y72250D02*
D03*
X315500Y77500D02*
D03*
X319500D02*
D03*
X369500Y32500D02*
D03*
X382000Y53000D02*
D03*
X373000Y39000D02*
D03*
X375000Y53000D02*
D03*
X383500Y63500D02*
D03*
X313500Y28000D02*
D03*
X310500Y11000D02*
D03*
X314500D02*
D03*
X356614Y68000D02*
D03*
X337957Y13864D02*
D03*
X359614Y39346D02*
D03*
X323500Y30500D02*
D03*
X343187Y17500D02*
D03*
X329500Y27500D02*
D03*
X325500D02*
D03*
X327500Y30500D02*
D03*
X358000Y37000D02*
D03*
X335500Y16500D02*
D03*
X330614D02*
D03*
X333000Y14000D02*
D03*
X340500Y33000D02*
D03*
X338000Y31000D02*
D03*
X340500Y37500D02*
D03*
X337500Y35500D02*
D03*
X340000Y41000D02*
D03*
X337500Y42500D02*
D03*
X340000Y44500D02*
D03*
Y48500D02*
D03*
X338000Y46500D02*
D03*
X340129Y52871D02*
D03*
X338000Y50500D02*
D03*
X340500Y56500D02*
D03*
X338000Y54500D02*
D03*
X340914Y74000D02*
D03*
X340500Y60500D02*
D03*
X338000Y58500D02*
D03*
X350000Y80414D02*
D03*
X338000Y62500D02*
D03*
X340500Y64500D02*
D03*
X338500Y66500D02*
D03*
X341000Y68500D02*
D03*
X339000Y70500D02*
D03*
X337000Y75000D02*
D03*
X335000Y77500D02*
D03*
X331000D02*
D03*
X327414D02*
D03*
X329000Y75000D02*
D03*
X325500D02*
D03*
X323500Y77500D02*
D03*
X264000Y66000D02*
D03*
X262000Y51500D02*
D03*
X266000Y70500D02*
D03*
X271000Y78500D02*
D03*
X280500Y80000D02*
D03*
X317500Y75000D02*
D03*
X324000Y91614D02*
D03*
X316000Y93000D02*
D03*
X302586Y88500D02*
D03*
X299000D02*
D03*
X295500Y92500D02*
D03*
X306000Y88500D02*
D03*
X307500Y90500D02*
D03*
X309500Y88500D02*
D03*
X301000Y92000D02*
D03*
X307500Y94500D02*
D03*
X304000Y96500D02*
D03*
X300000Y97500D02*
D03*
X293586Y88500D02*
D03*
X292000Y91000D02*
D03*
X290500Y68500D02*
D03*
X274500Y71500D02*
D03*
X277000Y69000D02*
D03*
X291000Y64500D02*
D03*
X259000Y60500D02*
D03*
X291000Y58500D02*
D03*
X259000Y57500D02*
D03*
X279000Y56500D02*
D03*
X259500Y54500D02*
D03*
X277000D02*
D03*
X156500Y11086D02*
D03*
X192500Y348000D02*
D03*
X190000Y348500D02*
D03*
X154500Y9500D02*
D03*
X229500Y40000D02*
D03*
X227437Y37500D02*
D03*
X225500Y40000D02*
D03*
X223500Y37500D02*
D03*
X221500Y40000D02*
D03*
X213657Y39843D02*
D03*
X211689Y37811D02*
D03*
X202000Y40000D02*
D03*
X199883Y38000D02*
D03*
X198000Y40500D02*
D03*
X195946Y38000D02*
D03*
X194000Y40500D02*
D03*
X192000Y38000D02*
D03*
X190000Y40500D02*
D03*
X186000D02*
D03*
X182500D02*
D03*
X178000D02*
D03*
X170500D02*
D03*
X166500D02*
D03*
X162500D02*
D03*
X158500D02*
D03*
X154500D02*
D03*
M02*
