G04*
G04 #@! TF.GenerationSoftware,Altium Limited,Altium Designer,20.0.13 (296)*
G04*
G04 Layer_Physical_Order=4*
G04 Layer_Color=16711680*
%FSLAX25Y25*%
%MOIN*%
G70*
G01*
G75*
%ADD16C,0.01000*%
%ADD58R,0.01181X0.05906*%
%ADD66C,0.00400*%
%ADD67C,0.01155*%
%ADD68C,0.06378*%
%ADD69C,0.04528*%
%ADD70R,0.04528X0.04528*%
%ADD71C,0.19685*%
%ADD72R,0.04528X0.04528*%
%ADD73C,0.05709*%
%ADD74C,0.01772*%
G36*
X153180Y41063D02*
X153187Y41000D01*
X153087Y40500D01*
X153195Y39959D01*
X153500Y39502D01*
Y34404D01*
X152834D01*
Y31051D01*
Y27698D01*
X153500D01*
Y23000D01*
X147500D01*
Y26075D01*
X147515Y26112D01*
X147647Y27114D01*
X147632Y27229D01*
X148075Y27698D01*
X148497D01*
Y31051D01*
Y34404D01*
X147706D01*
X147500Y34819D01*
Y41500D01*
X152900D01*
X153180Y41063D01*
D02*
G37*
G36*
X240000Y34404D02*
X239448D01*
Y31051D01*
Y27698D01*
X240000D01*
Y23000D01*
X230500D01*
Y27698D01*
X231174D01*
Y31051D01*
Y34404D01*
X230500D01*
Y39002D01*
X230805Y39459D01*
X230913Y40000D01*
X230805Y40541D01*
X230500Y40998D01*
Y41500D01*
X240000D01*
Y34404D01*
D02*
G37*
G36*
X220500Y40998D02*
X220195Y40541D01*
X220087Y40000D01*
X220195Y39459D01*
X220500Y39002D01*
Y34404D01*
X219763D01*
Y31051D01*
Y27698D01*
X220500D01*
Y23000D01*
X215000D01*
Y27698D01*
X215426D01*
Y31051D01*
Y34404D01*
X215000D01*
Y39488D01*
X215070Y39843D01*
X215000Y40197D01*
Y41500D01*
X220500D01*
Y40998D01*
D02*
G37*
G36*
X213000Y45500D02*
X208500Y41000D01*
Y40998D01*
X208195Y40541D01*
X208087Y40000D01*
X208195Y39459D01*
X208500Y39002D01*
Y34404D01*
X207952D01*
Y31051D01*
Y27698D01*
X208500D01*
Y23000D01*
X203000D01*
Y27698D01*
X203615D01*
Y31051D01*
Y34404D01*
X203000D01*
X202843Y34561D01*
Y38897D01*
X202999Y39001D01*
X203305Y39459D01*
X203413Y40000D01*
X203305Y40541D01*
X202999Y40999D01*
X202541Y41305D01*
X202000Y41413D01*
X201459Y41305D01*
X201001Y40999D01*
X201000Y40998D01*
X200500Y41150D01*
Y88500D01*
X213000D01*
Y45500D01*
D02*
G37*
G36*
X148897Y13131D02*
X150465D01*
Y16484D01*
X150865D01*
Y13131D01*
X152434D01*
Y16484D01*
X152834D01*
Y13131D01*
X153500D01*
Y10498D01*
X153195Y10041D01*
X153087Y9500D01*
X153195Y8959D01*
X153500Y8502D01*
Y7500D01*
X147500D01*
Y12717D01*
X147706Y13131D01*
X148497D01*
Y16484D01*
X148897D01*
Y13131D01*
D02*
G37*
%LPC*%
G36*
X150865Y34404D02*
Y31051D01*
Y27698D01*
X152434D01*
Y31051D01*
Y34404D01*
X150865D01*
D02*
G37*
G36*
X148897D02*
Y31051D01*
Y27698D01*
X150465D01*
Y31051D01*
Y34404D01*
X148897D01*
D02*
G37*
G36*
X239048D02*
X237479D01*
Y31051D01*
Y27698D01*
X239048D01*
Y31051D01*
Y34404D01*
D02*
G37*
G36*
X237080D02*
X235511D01*
Y31051D01*
Y27698D01*
X237080D01*
Y31051D01*
Y34404D01*
D02*
G37*
G36*
X235111D02*
X233543D01*
Y31051D01*
Y27698D01*
X235111D01*
Y31051D01*
Y34404D01*
D02*
G37*
G36*
X233143D02*
X231574D01*
Y31051D01*
Y27698D01*
X233143D01*
Y31051D01*
Y34404D01*
D02*
G37*
G36*
X219363D02*
X217794D01*
Y31051D01*
Y27698D01*
X219363D01*
Y31051D01*
Y34404D01*
D02*
G37*
G36*
X217394D02*
X215826D01*
Y31051D01*
Y27698D01*
X217394D01*
Y31051D01*
Y34404D01*
D02*
G37*
G36*
X211164Y83664D02*
X208700D01*
Y81200D01*
X211164D01*
Y83664D01*
D02*
G37*
G36*
X208300D02*
X205836D01*
Y81200D01*
X208300D01*
Y83664D01*
D02*
G37*
G36*
X211164Y80800D02*
X208700D01*
Y78336D01*
X211164D01*
Y80800D01*
D02*
G37*
G36*
X208300D02*
X205836D01*
Y78336D01*
X208300D01*
Y80800D01*
D02*
G37*
G36*
X207552Y34404D02*
X205983D01*
Y31051D01*
Y27698D01*
X207552D01*
Y31051D01*
Y34404D01*
D02*
G37*
G36*
X205583D02*
X204015D01*
Y31051D01*
Y27698D01*
X205583D01*
Y31051D01*
Y34404D01*
D02*
G37*
%LPD*%
D16*
X209610Y31161D02*
Y39890D01*
X229453Y31098D02*
Y39953D01*
X227437Y31051D02*
Y37500D01*
X225484Y31067D02*
Y39984D01*
X223500Y31051D02*
Y37500D01*
X221516Y31067D02*
Y39984D01*
X213657Y31051D02*
Y39843D01*
X211689Y31051D02*
Y37811D01*
D58*
X148697Y16484D02*
D03*
Y31051D02*
D03*
X150665Y16484D02*
D03*
Y31051D02*
D03*
X152634Y16484D02*
D03*
Y31051D02*
D03*
X154602Y16484D02*
D03*
Y31051D02*
D03*
X156571Y16484D02*
D03*
Y31051D02*
D03*
X158539Y16484D02*
D03*
Y31051D02*
D03*
X160508Y16484D02*
D03*
Y31051D02*
D03*
X162476Y16484D02*
D03*
Y31051D02*
D03*
X164445Y16484D02*
D03*
Y31051D02*
D03*
X166413Y16484D02*
D03*
Y31051D02*
D03*
X168382Y16484D02*
D03*
Y31051D02*
D03*
X170350Y16484D02*
D03*
Y31051D02*
D03*
X172319Y16484D02*
D03*
Y31051D02*
D03*
X174287Y16484D02*
D03*
Y31051D02*
D03*
X176256Y16484D02*
D03*
Y31051D02*
D03*
X178224Y16484D02*
D03*
Y31051D02*
D03*
X180193Y16484D02*
D03*
Y31051D02*
D03*
X182161Y16484D02*
D03*
Y31051D02*
D03*
X184130Y16484D02*
D03*
Y31051D02*
D03*
X186098Y16484D02*
D03*
Y31051D02*
D03*
X188067Y16484D02*
D03*
Y31051D02*
D03*
X190035Y16484D02*
D03*
Y31051D02*
D03*
X192004Y16484D02*
D03*
Y31051D02*
D03*
X193972Y16484D02*
D03*
Y31051D02*
D03*
X195941Y16484D02*
D03*
Y31051D02*
D03*
X197909Y16484D02*
D03*
Y31051D02*
D03*
X199878Y16484D02*
D03*
Y31051D02*
D03*
X201847Y16484D02*
D03*
Y31051D02*
D03*
X203815Y16484D02*
D03*
Y31051D02*
D03*
X205784Y16484D02*
D03*
Y31051D02*
D03*
X207752Y16484D02*
D03*
Y31051D02*
D03*
X209720Y16484D02*
D03*
Y31051D02*
D03*
X211689Y16484D02*
D03*
Y31051D02*
D03*
X213657Y16484D02*
D03*
Y31051D02*
D03*
X215626Y16484D02*
D03*
Y31051D02*
D03*
X217595Y16484D02*
D03*
Y31051D02*
D03*
X219563Y16484D02*
D03*
Y31051D02*
D03*
X221532Y16484D02*
D03*
Y31051D02*
D03*
X223500Y16484D02*
D03*
Y31051D02*
D03*
X225468Y16484D02*
D03*
Y31051D02*
D03*
X227437Y16484D02*
D03*
Y31051D02*
D03*
X229405Y16484D02*
D03*
Y31051D02*
D03*
X231374Y16484D02*
D03*
Y31051D02*
D03*
X233343Y16484D02*
D03*
Y31051D02*
D03*
X235311Y16484D02*
D03*
Y31051D02*
D03*
X237280Y16484D02*
D03*
Y31051D02*
D03*
X239248Y16484D02*
D03*
Y31051D02*
D03*
X241216Y16484D02*
D03*
Y31051D02*
D03*
X243185Y16484D02*
D03*
Y31051D02*
D03*
X245153Y16484D02*
D03*
Y31051D02*
D03*
D66*
X209500Y40000D02*
X209610Y39890D01*
X259000Y34500D02*
X261500D01*
X270069Y25932D01*
X203000Y348000D02*
Y354000D01*
X206000Y357000D01*
X246500D01*
X248478Y358978D01*
X261978D01*
X200000Y348000D02*
Y354500D01*
X204000Y358500D01*
X245500D01*
X249000Y362000D01*
X260000D01*
X309500Y355500D02*
X316000D01*
X316500Y356000D01*
X318889Y357586D02*
X320175Y356300D01*
X305595Y357586D02*
X318889D01*
X299081Y364100D02*
X305595Y357586D01*
X319220Y358386D02*
X320506Y357100D01*
X305927Y358386D02*
X319220D01*
X299413Y364900D02*
X305927Y358386D01*
X319551Y359186D02*
X320837Y357900D01*
X306258Y359186D02*
X319551D01*
X299744Y365700D02*
X306258Y359186D01*
X319883Y359986D02*
X321169Y358700D01*
X306590Y359986D02*
X319883D01*
X300076Y366500D02*
X306590Y359986D01*
X320214Y360786D02*
X321500Y359500D01*
X306921Y360786D02*
X320214D01*
X300407Y367300D02*
X306921Y360786D01*
X320175Y356300D02*
X333569D01*
X356086Y182501D02*
Y182914D01*
X241586Y362000D02*
Y363828D01*
X229769Y372900D02*
X302726D01*
X223500Y366631D02*
X229769Y372900D01*
X223500Y364500D02*
Y366631D01*
X154500Y346500D02*
Y350000D01*
X157379Y346879D02*
X157621D01*
X161100Y343400D01*
X383386Y364614D02*
X390200Y357800D01*
X376364Y364614D02*
X383386D01*
X365914Y92357D02*
Y140914D01*
X357957Y84400D02*
X365914Y92357D01*
X342500Y84400D02*
X357957D01*
X365914Y140914D02*
X367828Y142828D01*
X365114Y96169D02*
Y141700D01*
X354145Y85200D02*
X365114Y96169D01*
Y141700D02*
X366914Y143500D01*
X364314Y96500D02*
Y142031D01*
X353814Y86000D02*
X364314Y96500D01*
Y142031D02*
X366114Y143831D01*
X363514Y96832D02*
Y142363D01*
X353482Y86800D02*
X363514Y96832D01*
Y142363D02*
X365314Y144163D01*
X362714Y97163D02*
Y142694D01*
X353151Y87600D02*
X362714Y97163D01*
Y142694D02*
X364514Y144494D01*
X361914Y97495D02*
Y143026D01*
X352820Y88400D02*
X361914Y97495D01*
Y143026D02*
X363714Y144825D01*
X361114Y143357D02*
X362914Y145157D01*
X361114Y97826D02*
Y143357D01*
X352488Y89200D02*
X361114Y97826D01*
X360314Y143688D02*
X362114Y145488D01*
X360314Y98157D02*
Y143688D01*
X352157Y90000D02*
X360314Y98157D01*
X359514Y144020D02*
X361314Y145820D01*
X359514Y98489D02*
Y144020D01*
X351825Y90800D02*
X359514Y98489D01*
X358714Y144351D02*
X360514Y146151D01*
X358714Y98820D02*
Y144351D01*
X351494Y91600D02*
X358714Y98820D01*
X357914Y144682D02*
X359714Y146482D01*
X357914Y99151D02*
Y144682D01*
X351163Y92400D02*
X357914Y99151D01*
X357114Y145014D02*
X358914Y146814D01*
X357114Y99483D02*
Y145014D01*
X350831Y93200D02*
X357114Y99483D01*
X356314Y145814D02*
X358000Y147500D01*
X356314Y99814D02*
Y145814D01*
X350500Y94000D02*
X356314Y99814D01*
X355514Y176380D02*
X356500Y177366D01*
X355514Y100145D02*
Y176380D01*
X350169Y94800D02*
X355514Y100145D01*
X354714Y178214D02*
X356214Y179714D01*
X354714Y100477D02*
Y178214D01*
X349837Y95600D02*
X354714Y100477D01*
X353914Y180414D02*
X356000Y182500D01*
X353914Y100808D02*
Y180414D01*
X349506Y96400D02*
X353914Y100808D01*
X367828Y142828D02*
Y154009D01*
X339200Y85200D02*
X354145D01*
X353035Y101060D02*
Y185780D01*
X349174Y97200D02*
X353035Y101060D01*
X352235Y101508D02*
Y186111D01*
X348726Y98000D02*
X352235Y101508D01*
X313000Y98000D02*
X348726D01*
X351391Y101796D02*
Y326584D01*
X348395Y98800D02*
X351391Y101796D01*
X311800Y98800D02*
X348395D01*
X350591Y102127D02*
Y326069D01*
X348063Y99600D02*
X350591Y102127D01*
X307100Y99600D02*
X348063D01*
X349791Y102459D02*
Y325737D01*
X347732Y100400D02*
X349791Y102459D01*
X305657Y100400D02*
X347732D01*
X348991Y102790D02*
Y325406D01*
X347401Y101200D02*
X348991Y102790D01*
X303700Y101200D02*
X347401D01*
X348191Y103121D02*
Y325075D01*
X347069Y102000D02*
X348191Y103121D01*
X302257Y102000D02*
X347069D01*
X347391Y103453D02*
Y324743D01*
X346738Y102800D02*
X347391Y103453D01*
X301926Y102800D02*
X346738D01*
X314200Y97200D02*
X349174D01*
X314895Y96400D02*
X349506D01*
X315226Y95600D02*
X349837D01*
X315557Y94800D02*
X350169D01*
X320500Y94000D02*
X350500D01*
X320831Y93200D02*
X350831D01*
X327400Y92400D02*
X351163D01*
X327731Y91600D02*
X351494D01*
X328063Y90800D02*
X351825D01*
X329000Y90000D02*
X352157D01*
X330200Y89200D02*
X352488D01*
X331900Y88400D02*
X352820D01*
X333600Y87600D02*
X353151D01*
X335300Y86800D02*
X353482D01*
X337000Y86000D02*
X353814D01*
X255631Y10000D02*
X259500D01*
X162586Y7000D02*
X250500D01*
X256500Y13000D02*
X277500D01*
X250500Y7000D02*
X256500Y13000D01*
X250960Y5328D02*
X255631Y10000D01*
X156500Y10672D02*
X161843Y5328D01*
X156500Y10672D02*
Y11086D01*
X161843Y5328D02*
X250960D01*
X160672Y8828D02*
X249460D01*
X159500Y10000D02*
X160672Y8828D01*
X254631Y14000D02*
X275500D01*
X249460Y8828D02*
X254631Y14000D01*
X250000Y10500D02*
X257813Y18313D01*
X277500Y13000D02*
X301000Y36500D01*
X275500Y14000D02*
X298500Y37000D01*
X245586Y10500D02*
X250000D01*
X257813Y18313D02*
X270187D01*
X245500Y10414D02*
X245586Y10500D01*
X162500Y6914D02*
X162586Y7000D01*
X262500Y37500D02*
X271000Y29000D01*
X340500D02*
X340617Y29117D01*
X301000Y36500D02*
Y57500D01*
X307000Y63500D01*
X329500D01*
X337000Y71000D01*
Y75000D01*
X333000D02*
Y84500D01*
X335300Y86800D01*
X298500Y37000D02*
Y58500D01*
X306000Y66000D01*
X329500D01*
X335000Y71500D01*
Y77500D01*
X244000Y37500D02*
X262500D01*
X354900Y188100D02*
X356278Y186722D01*
X243500Y40000D02*
X267500D01*
X241500Y37500D02*
Y37871D01*
X241901Y38401D02*
X243500Y40000D01*
X241500Y37871D02*
X241901Y38272D01*
Y38401D01*
X267500Y40000D02*
X271500Y36000D01*
Y32000D02*
Y36000D01*
X141500Y382500D02*
X148900Y389900D01*
X141500Y374000D02*
Y382500D01*
X182500Y374500D02*
Y381000D01*
X190600Y389100D01*
X192500Y348000D02*
Y348371D01*
X192000Y348871D02*
X192500Y348371D01*
X192000Y348871D02*
Y379129D01*
X192500Y379629D01*
Y380000D01*
X194000Y362586D02*
X194086Y362500D01*
X194000Y362586D02*
Y378000D01*
X204300Y388300D01*
X196000Y378000D02*
X205500Y387500D01*
X196000Y364500D02*
Y378000D01*
X190000Y348500D02*
Y383000D01*
X198000Y378000D02*
X206571Y386571D01*
X198000Y362500D02*
Y378000D01*
X206571Y386571D02*
X353298D01*
X200000Y364500D02*
Y368500D01*
X199500Y369000D02*
X200000Y368500D01*
X199500Y369000D02*
Y377500D01*
X207771Y385771D01*
X352967D01*
X200500Y370000D02*
X202000Y368500D01*
X200500Y370000D02*
Y377000D01*
X208100Y384600D01*
X202000Y362500D02*
Y368500D01*
X208100Y384600D02*
X350729D01*
X204000Y364500D02*
Y372000D01*
X215800Y383800D01*
X206000Y362500D02*
Y371500D01*
X217500Y383000D01*
X208000Y364500D02*
Y371000D01*
X217500Y383000D02*
X337500D01*
X350729Y384600D02*
X357566Y377762D01*
X219200Y382200D02*
X336800D01*
X215800Y383800D02*
X350200D01*
X362800Y371200D01*
X336800Y382200D02*
X340000Y379000D01*
X337500Y383000D02*
X340700Y379800D01*
X208000Y371000D02*
X219200Y382200D01*
X210000Y370894D02*
X220506Y381400D01*
X246500Y379000D02*
X249400Y376100D01*
X246831Y379800D02*
X249731Y376900D01*
X222500Y378000D02*
X246000D01*
X220506Y381400D02*
X247494D01*
X220837Y380600D02*
X247163D01*
X213500Y372131D02*
X221169Y379800D01*
X244600Y376400D02*
X247300Y373700D01*
X247163Y380600D02*
X250063Y377700D01*
X247494Y381400D02*
X250394Y378500D01*
X246000Y378000D02*
X248700Y375300D01*
X215500Y373000D02*
X221500Y379000D01*
X217500Y373000D02*
X222500Y378000D01*
X238700Y377200D02*
X245300D01*
X248000Y374500D01*
X221169Y379800D02*
X246831D01*
X211750Y371513D02*
X220837Y380600D01*
X239400Y376400D02*
X244600D01*
X236500Y375000D02*
X238700Y377200D01*
X221500Y379000D02*
X246500D01*
X237000Y374000D02*
X239400Y376400D01*
X210000Y362500D02*
Y370894D01*
X211750Y364500D02*
Y371513D01*
X250394Y378500D02*
X305131D01*
X249731Y376900D02*
X304383D01*
X249400Y376100D02*
X304052D01*
X248000Y374500D02*
X303389D01*
X247300Y373700D02*
X303058D01*
X248700Y375300D02*
X303721D01*
X213500Y362500D02*
Y372131D01*
X215500Y364500D02*
Y373000D01*
X217500Y362500D02*
Y373000D01*
X219500Y364500D02*
Y368000D01*
X226500Y375000D01*
X236500D01*
X227500Y374000D02*
X237000D01*
X221500Y368000D02*
X227500Y374000D01*
X221500Y362500D02*
Y368000D01*
X225500Y362000D02*
Y367500D01*
X230100Y372100D01*
X227500Y364000D02*
Y367000D01*
X230100Y372100D02*
X302395D01*
X306095Y368400D01*
X227500Y367000D02*
X231800Y371300D01*
X229500Y362000D02*
Y366500D01*
X233500Y370500D01*
X231500Y364000D02*
Y366000D01*
X235200Y369700D01*
X233500Y362000D02*
Y365500D01*
X236900Y368900D02*
X301070D01*
X233500Y365500D02*
X236900Y368900D01*
X235500Y365000D02*
X238600Y368100D01*
X235500Y364000D02*
Y365000D01*
X238600Y368100D02*
X300738D01*
X305838Y363000D01*
X237500Y362000D02*
Y364000D01*
X240800Y367300D01*
X240151Y364151D02*
Y365151D01*
X241500Y366500D01*
X300076D01*
X240000Y364000D02*
X240151Y364151D01*
X243457Y365700D02*
X299744D01*
X241586Y363828D02*
X243457Y365700D01*
X243500Y363500D02*
X244900Y364900D01*
X245500Y361500D02*
X248100Y364100D01*
X299081D01*
X159121Y350621D02*
X159243Y350500D01*
X171631D01*
X179831Y342300D01*
X189500D01*
X189500Y342300D02*
Y342300D01*
X189500Y342300D02*
X189500Y342300D01*
X156500Y351000D02*
Y352000D01*
Y351000D02*
X158500Y349000D01*
X172000D01*
X179500Y341500D01*
X188500D01*
X188500Y341500D02*
Y341500D01*
X188500Y341500D02*
X188500Y341500D01*
X160500Y347000D02*
X163300Y344200D01*
X174826D01*
X178325Y340700D01*
X188000D01*
Y340700D02*
Y340700D01*
X161100Y343400D02*
X174494D01*
X177994Y339900D01*
X188500Y339900D02*
Y339900D01*
X177994D02*
X188500D01*
X154500Y346500D02*
X158400Y342600D01*
X174163D01*
X177663Y339100D01*
X189000D01*
Y339100D02*
Y339100D01*
X152500Y346500D02*
Y352000D01*
Y346500D02*
X157200Y341800D01*
X173831D01*
X177331Y338300D01*
X189500D01*
X150500Y347000D02*
Y350000D01*
Y347000D02*
X156500Y341000D01*
X173500D01*
X177000Y337500D01*
X190500D01*
X148500Y347500D02*
Y352000D01*
X176500Y336500D02*
X262106D01*
X156000Y340000D02*
X173000D01*
X176500Y336500D01*
X148500Y347500D02*
X156000Y340000D01*
X172500Y337000D02*
X173800Y335700D01*
X170500Y335500D02*
Y335686D01*
Y335500D02*
X171100Y334900D01*
X166713Y334500D02*
X167913Y333300D01*
X263431D01*
X269500Y339369D01*
X168500Y335000D02*
Y337000D01*
Y335000D02*
X169400Y334100D01*
X263100D01*
X268700Y339700D01*
X173800Y335700D02*
X262437D01*
X262106Y336500D02*
X266300Y340694D01*
X262769Y334900D02*
X267900Y340031D01*
X171100Y334900D02*
X262769D01*
X262437Y335700D02*
X267100Y340363D01*
X154179Y325322D02*
X346812D01*
X148500Y331000D02*
Y337000D01*
Y331000D02*
X154179Y325322D01*
X162500Y332500D02*
Y335500D01*
Y332500D02*
X164000Y331000D01*
X188500Y339900D02*
X259849Y339900D01*
X350800Y335200D02*
X357300Y328700D01*
X349700Y332800D02*
X354900Y327600D01*
X301300Y335200D02*
X350800D01*
X284000Y338500D02*
X288900Y333600D01*
X350137D02*
X355700Y328037D01*
X299969Y334400D02*
X350469D01*
X288900Y333600D02*
X350137D01*
X300000Y336500D02*
X301300Y335200D01*
X299000Y335369D02*
X299969Y334400D01*
X350469D02*
X356500Y328369D01*
X281700Y332800D02*
X349700D01*
X279000Y335500D02*
X281700Y332800D01*
X160500Y331997D02*
Y337000D01*
Y331997D02*
X162297Y330200D01*
X164000Y331000D02*
X349237Y331000D01*
X159400Y328600D02*
X348059D01*
X156500Y331500D02*
Y337000D01*
Y331500D02*
X159400Y328600D01*
X160600Y329400D02*
X348574D01*
X158500Y331500D02*
X160600Y329400D01*
X158500Y331500D02*
Y335500D01*
X162297Y330200D02*
X348906D01*
X157000Y327000D02*
X347397D01*
X152500Y331500D02*
Y337000D01*
Y331500D02*
X157000Y327000D01*
X158200Y327800D02*
X347728D01*
X154500Y331500D02*
Y335500D01*
Y331500D02*
X158200Y327800D01*
X155800Y326200D02*
X347065D01*
X150500Y331500D02*
X155800Y326200D01*
X150500Y331500D02*
Y335500D01*
X355100Y389900D02*
X367000Y378000D01*
X148900Y389900D02*
X355100D01*
X367000Y372500D02*
Y378000D01*
X190600Y389100D02*
X354769D01*
X366100Y372269D02*
Y377769D01*
X354769Y389100D02*
X366100Y377769D01*
X204300Y388300D02*
X354200D01*
X365300Y371700D02*
Y377200D01*
X354200Y388300D02*
X365300Y377200D01*
X358738Y377757D02*
Y377762D01*
X353298Y386571D02*
X363600Y376269D01*
Y366026D02*
Y376269D01*
X205500Y387500D02*
X353500D01*
X361500Y375000D02*
Y377237D01*
X364500Y366257D02*
Y376500D01*
X352967Y385771D02*
X361500Y377237D01*
X353500Y387500D02*
X364500Y376500D01*
X358738Y377757D02*
X358997Y377497D01*
X357566Y377762D02*
X358738D01*
X305631Y378000D02*
X352606D01*
X361200Y365032D02*
Y370537D01*
X340000Y379000D02*
X352737D01*
X357682Y370682D02*
Y370813D01*
X352606Y378000D02*
X360400Y370206D01*
X352737Y379000D02*
X361200Y370537D01*
X362000Y365363D02*
Y370869D01*
X351495Y377000D02*
X357682Y370813D01*
X340700Y379800D02*
X353069D01*
X360400Y364701D02*
Y370206D01*
X362800Y365695D02*
Y371200D01*
X353069Y379800D02*
X362000Y370869D01*
X305500Y377000D02*
X351495D01*
X383500Y368000D02*
X392660Y358840D01*
X371500Y368000D02*
X383500D01*
X392660Y79936D02*
Y358840D01*
X391800Y80567D02*
Y358569D01*
X371169Y367200D02*
X383169D01*
X391800Y358569D01*
X391000Y80898D02*
Y358131D01*
X370600Y366400D02*
X382731D01*
X391000Y358131D01*
X390200Y357800D02*
X390200Y81229D01*
X375800Y66829D02*
X390200Y81229D01*
X309000Y380000D02*
X336500D01*
X308875Y380125D02*
X309000Y380000D01*
X305131Y378500D02*
X305631Y378000D01*
X250063Y377700D02*
X304800D01*
X305500Y377000D01*
X304383Y376900D02*
X307955Y373328D01*
X349509D01*
X365538Y357300D01*
X304052Y376100D02*
X307652Y372500D01*
X303721Y375300D02*
X307321Y371700D01*
X303389Y374500D02*
X306989Y370900D01*
X348544D01*
X303058Y373700D02*
X306758Y370000D01*
X309500Y375000D02*
X348969D01*
X365869Y358100D01*
X302726Y372900D02*
X306426Y369200D01*
X231800Y371300D02*
X302064D01*
X233500Y370500D02*
X301732D01*
X302064Y371300D02*
X305764Y367600D01*
X301732Y370500D02*
X305432Y366800D01*
X235200Y369700D02*
X301401D01*
X305101Y366000D01*
X274000Y348500D02*
X279000Y353500D01*
X294606D02*
X297803Y350303D01*
X279000Y353500D02*
X294606D01*
X301070Y368900D02*
X304970Y365000D01*
X338000D01*
X305838Y363000D02*
X331500D01*
X333800Y360700D01*
X240800Y367300D02*
X300407D01*
X244900Y364900D02*
X299413D01*
X298750Y363250D02*
X309100Y352900D01*
X188000Y340700D02*
X260200Y340700D01*
X262300Y342800D01*
Y353982D01*
X259500Y341500D02*
X261500Y343500D01*
X189500Y342300D02*
X258800Y342300D01*
X188500Y341500D02*
X259500Y341500D01*
X260700Y344200D02*
Y354645D01*
X258800Y342300D02*
X260700Y344200D01*
X261500Y343500D02*
Y354314D01*
X260980Y339900D02*
X263100Y342020D01*
X261643Y338300D02*
X264700Y341357D01*
X266300Y340694D02*
Y352326D01*
X269500Y339369D02*
Y351000D01*
X261312Y339100D02*
X263900Y341688D01*
X260180Y339100D02*
X261312D01*
X190500Y337500D02*
X261975Y337500D01*
X267900Y340031D02*
Y351663D01*
X261975Y337500D02*
X265500Y341025D01*
X259849Y339900D02*
X260980D01*
X267100Y340363D02*
Y351994D01*
X263900Y341688D02*
Y353320D01*
X189500Y338300D02*
X261643Y338300D01*
X298051Y362500D02*
X298285Y362266D01*
X269686Y362500D02*
X298051D01*
X261500Y354314D02*
X269686Y362500D01*
X269355Y363300D02*
X298750D01*
X260700Y354645D02*
X269355Y363300D01*
X298285Y362266D02*
X308551Y352000D01*
X298285Y362266D02*
X298285D01*
X349495Y341086D02*
X360914Y329666D01*
X312180Y341086D02*
X349495D01*
X311766Y341500D02*
X312180Y341086D01*
X303672Y337828D02*
X351621D01*
X360000Y329449D01*
X302500Y339000D02*
X303672Y337828D01*
X302500Y339000D02*
Y346366D01*
X301700Y338300D02*
X303000Y337000D01*
X351318D02*
X359100Y329218D01*
X303000Y337000D02*
X351318D01*
X301700Y338300D02*
Y346034D01*
X300900Y337100D02*
Y345703D01*
X302000Y336000D02*
X351186D01*
X300900Y337100D02*
X302000Y336000D01*
X300000Y336500D02*
Y345000D01*
X299000Y335369D02*
Y343500D01*
X351186Y336000D02*
X358300Y328886D01*
X348906Y330200D02*
X352500Y326606D01*
X349237Y331000D02*
X353300Y326937D01*
X348574Y329400D02*
X351391Y326584D01*
X347728Y327800D02*
X349791Y325737D01*
X348059Y328600D02*
X350591Y326069D01*
X347397Y327000D02*
X348991Y325406D01*
X347065Y326200D02*
X348191Y325075D01*
X346812Y325322D02*
X347391Y324743D01*
X334800Y348200D02*
X348037D01*
X338307Y350800D02*
X339999Y349108D01*
X348261D01*
X333569Y348300D02*
X336869Y345000D01*
X350106D01*
X314788Y344000D02*
X349974D01*
X314500Y343000D02*
X349843D01*
X362514Y330329D01*
X311000Y346500D02*
X314500Y343000D01*
X349974Y344000D02*
X363314Y330660D01*
X311288Y347500D02*
X314788Y344000D01*
X306223Y348300D02*
X333569D01*
X333000Y350000D02*
X334800Y348200D01*
X308288Y350000D02*
X333000D01*
X348037Y348200D02*
X364914Y331323D01*
X350106Y345000D02*
X364114Y330992D01*
X347689Y354679D02*
X369284Y333084D01*
X339005Y354679D02*
X347689D01*
X338826Y354500D02*
X339005Y354679D01*
X347358Y353879D02*
X368484Y332753D01*
X339336Y353879D02*
X347358D01*
X339157Y353700D02*
X339336Y353879D01*
X347027Y353079D02*
X367500Y332606D01*
X339668Y353079D02*
X347027D01*
X339489Y352900D02*
X339668Y353079D01*
X348261Y349108D02*
X365714Y331655D01*
X308620Y350800D02*
X338307D01*
X346221Y352279D02*
X366514Y331986D01*
X339999Y352279D02*
X346221D01*
X339720Y352000D02*
X339999Y352279D01*
X336500Y354500D02*
X338826D01*
X336169Y353700D02*
X339157D01*
X309100Y352900D02*
X339489D01*
X308551Y352000D02*
X339720D01*
X333900Y357100D02*
X336500Y354500D01*
X333569Y356300D02*
X336169Y353700D01*
X320506Y357100D02*
X333900D01*
X349712Y342000D02*
X361714Y329998D01*
X312500Y342500D02*
X313000Y342000D01*
X349712D01*
X364914Y221956D02*
Y331323D01*
X297388Y360900D02*
X308288Y350000D01*
X297720Y361700D02*
X308620Y350800D01*
X367500Y227500D02*
Y332606D01*
X321169Y358700D02*
X345931D01*
X359331Y345300D01*
X346263Y359500D02*
X359663Y346100D01*
X321500Y359500D02*
X346263D01*
X320837Y357900D02*
X345600D01*
X359000Y344500D01*
X346194Y360700D02*
X359994Y346900D01*
X333800Y360700D02*
X346194D01*
X338000Y365000D02*
X340000Y363000D01*
Y363000D02*
Y363000D01*
X341500Y361500D02*
X346526D01*
X340000Y363000D02*
X341500Y361500D01*
X346526D02*
X360326Y347700D01*
X305101Y366000D02*
X346343D01*
X347000Y362157D02*
Y365343D01*
X346343Y366000D02*
X347000Y365343D01*
X305432Y366800D02*
X346674D01*
X347800Y365674D01*
Y362488D02*
Y365674D01*
Y362488D02*
X360988Y349300D01*
X305764Y367600D02*
X347006D01*
X348600Y366006D01*
Y362820D02*
Y366006D01*
Y362820D02*
X361320Y350100D01*
X306095Y368400D02*
X347337D01*
X349400Y366337D01*
Y363151D02*
X361651Y350900D01*
X349400Y363151D02*
Y366337D01*
X306426Y369200D02*
X347669D01*
X307321Y371700D02*
X348875D01*
X307652Y372500D02*
X349206D01*
X347669Y369200D02*
X350200Y366669D01*
X351000Y363814D02*
Y367000D01*
X362314Y352500D02*
X366556D01*
X351000Y363814D02*
X362314Y352500D01*
X350200Y363482D02*
X361982Y351700D01*
X350200Y363482D02*
Y366669D01*
X306758Y370000D02*
X348000D01*
X351000Y367000D01*
X348544Y370900D02*
X364544Y354900D01*
X349206Y372500D02*
X365206Y356500D01*
X366556Y352500D02*
X373000Y346056D01*
Y345277D02*
Y346056D01*
Y345277D02*
X373777Y344500D01*
X374556D02*
X381286Y337771D01*
X373777Y344500D02*
X374556D01*
X372200Y344830D02*
X373330Y343700D01*
X372200Y344830D02*
Y345725D01*
X373330Y343700D02*
X374225D01*
X361982Y351700D02*
X366225D01*
X372200Y345725D01*
X374225Y343700D02*
X380486Y337439D01*
X361651Y350900D02*
X365894D01*
X371400Y345394D01*
Y343363D02*
Y345394D01*
Y343363D02*
X371863Y342900D01*
X373894D02*
X379686Y337108D01*
X371863Y342900D02*
X373894D01*
X361320Y350100D02*
X365562D01*
X370600Y345062D01*
Y343031D02*
Y345062D01*
Y343031D02*
X371531Y342100D01*
X373562D01*
X378886Y336776D01*
X367400Y339994D02*
X368494Y338900D01*
X368200Y341300D02*
Y344068D01*
X369800Y339700D02*
X372568D01*
X368200Y341300D02*
X369800Y339700D01*
X369000Y342000D02*
Y344399D01*
X370500Y340500D02*
X372900D01*
X369000Y342000D02*
X370500Y340500D01*
X369800Y342700D02*
X371200Y341300D01*
X373231D01*
X369800Y342700D02*
Y344731D01*
X360988Y349300D02*
X365231D01*
X363574Y345300D02*
X365800Y343074D01*
X359663Y346100D02*
X363905D01*
X364899Y348500D02*
X369000Y344399D01*
X360326Y347700D02*
X364568D01*
X363905Y346100D02*
X366600Y343405D01*
X359994Y346900D02*
X364237D01*
X364568Y347700D02*
X368200Y344068D01*
X360657Y348500D02*
X364899D01*
X364237Y346900D02*
X367400Y343737D01*
X363243Y344500D02*
X365000Y342743D01*
X359331Y345300D02*
X363574D01*
X367400Y339994D02*
Y343737D01*
X366600Y339663D02*
Y343405D01*
X365800Y339331D02*
Y343074D01*
X359000Y344500D02*
X363243D01*
X365000Y339000D02*
Y342743D01*
X365231Y349300D02*
X369800Y344731D01*
X373231Y341300D02*
X378086Y336445D01*
X347000Y362157D02*
X360657Y348500D01*
X369284Y228616D02*
Y333084D01*
X368484Y228016D02*
Y332753D01*
X372900Y340500D02*
X376586Y336814D01*
X372568Y339700D02*
X375786Y336482D01*
X368494Y338900D02*
X372237D01*
X374986Y336151D01*
X366600Y339663D02*
X368163Y338100D01*
X371905D01*
X374186Y335820D01*
X365800Y339331D02*
X367831Y337300D01*
X371808Y337066D02*
Y337066D01*
X371574Y337300D02*
X371808Y337066D01*
X367831Y337300D02*
X371574D01*
X371808Y337066D02*
X373386Y335488D01*
X369284Y228616D02*
X371900Y226000D01*
X368484Y228016D02*
X371100Y225400D01*
X372586Y313217D02*
Y335157D01*
X371243Y336500D02*
X372586Y335157D01*
X367500Y336500D02*
X371243D01*
X373386Y312886D02*
Y335488D01*
X374186Y312555D02*
Y335820D01*
X374986Y311986D02*
Y336151D01*
X375786Y311654D02*
Y336482D01*
X376586Y311323D02*
Y336814D01*
X380486Y204761D02*
Y337439D01*
X379686Y205092D02*
Y337108D01*
X378886Y205424D02*
Y336776D01*
X378086Y205755D02*
Y336445D01*
X365000Y339000D02*
X367500Y336500D01*
X362514Y220962D02*
Y330329D01*
X361714Y220631D02*
Y329998D01*
X360914Y220299D02*
Y329666D01*
X360000Y220082D02*
Y329449D01*
X359100Y219850D02*
Y329218D01*
X358300Y219519D02*
Y328886D01*
X357300Y219388D02*
Y328700D01*
X356500Y217000D02*
Y328369D01*
X355700Y216669D02*
Y328037D01*
X363314Y221293D02*
Y330660D01*
X364114Y221625D02*
Y330992D01*
X365714Y222287D02*
Y331655D01*
X366514Y222619D02*
Y331986D01*
X374914Y309651D02*
X376586Y311323D01*
X374114Y309983D02*
X375786Y311654D01*
X373314Y310314D02*
X374986Y311986D01*
X372514Y310883D02*
X374186Y312555D01*
X371714Y311214D02*
X373386Y312886D01*
X370914Y311545D02*
X372586Y313217D01*
X354900Y188100D02*
Y327600D01*
X353300Y186045D02*
Y326937D01*
X352500Y186377D02*
Y326606D01*
X365538Y357300D02*
X380437D01*
X365869Y358100D02*
X380769D01*
X365206Y356500D02*
X373500D01*
X364544Y354900D02*
X372837D01*
X374119Y353619D01*
X367857Y362900D02*
X383100D01*
X364500Y366257D02*
X367857Y362900D01*
X367526Y362100D02*
X382769D01*
X363600Y366026D02*
X367526Y362100D01*
X367195Y361300D02*
X382437D01*
X362800Y365695D02*
X367195Y361300D01*
X366863Y360500D02*
X382000D01*
X362000Y365363D02*
X366863Y360500D01*
X366532Y359700D02*
X381669D01*
X361200Y365032D02*
X366532Y359700D01*
X366200Y358900D02*
X381100D01*
X360400Y364701D02*
X366200Y358900D01*
X364875Y355700D02*
X373169D01*
X348875Y371700D02*
X364875Y355700D01*
X366100Y372269D02*
X371169Y367200D01*
X367000Y372500D02*
X371500Y368000D01*
X365300Y371700D02*
X370600Y366400D01*
X373169Y355700D02*
X377000Y351869D01*
X374119Y353619D02*
X376200Y351537D01*
X374119Y353619D02*
X374119D01*
X376200Y344669D02*
Y351537D01*
X382200Y84543D02*
Y338669D01*
X376200Y344669D02*
X382200Y338669D01*
X358300Y219519D02*
X361500Y216319D01*
X367500Y227500D02*
X370300Y224700D01*
X381286Y204430D02*
Y337771D01*
X355700Y213836D02*
Y216669D01*
X355700Y216669D02*
X355700Y216669D01*
X270018Y361700D02*
X297720D01*
X270349Y360900D02*
X297388D01*
X270680Y360100D02*
X297057D01*
X304203Y352954D01*
Y350320D02*
Y352954D01*
Y350320D02*
X306223Y348300D01*
X271012Y359300D02*
X296726D01*
X303403Y352623D01*
Y349988D02*
Y352623D01*
X305891Y347500D02*
X311288D01*
X303403Y349988D02*
X305891Y347500D01*
X302603Y349657D02*
X305760Y346500D01*
X311000D01*
X304600Y343500D02*
Y346528D01*
X301003Y348994D02*
X303800Y346197D01*
X304600Y343500D02*
X305600Y342500D01*
X303800Y342700D02*
X305000Y341500D01*
X301803Y349325D02*
X304600Y346528D01*
X303800Y342700D02*
Y346197D01*
X271343Y358500D02*
X296394D01*
X302603Y352291D01*
Y349657D02*
Y352291D01*
X271674Y357700D02*
X296063D01*
X301803Y351960D01*
Y349325D02*
Y351960D01*
X305600Y342500D02*
X312500D01*
X305000Y341500D02*
X311766D01*
X300203Y348663D02*
X302500Y346366D01*
X298603Y348000D02*
X300900Y345703D01*
X299403Y348331D02*
X301700Y346034D01*
X295000Y347500D02*
X299000Y343500D01*
X297803Y347197D02*
Y350303D01*
X298603Y348000D02*
Y350634D01*
X299403Y348331D02*
Y350966D01*
X297803Y347197D02*
X300000Y345000D01*
X300203Y348663D02*
Y351297D01*
X272006Y356900D02*
X295731D01*
X301003Y348994D02*
Y351628D01*
X295731Y356900D02*
X301003Y351628D01*
X272337Y356100D02*
X295400D01*
X300203Y351297D01*
X295069Y355300D02*
X299403Y350966D01*
X294737Y354500D02*
X298603Y350634D01*
X272669Y355300D02*
X295069D01*
X273000Y354500D02*
X294737D01*
X377000Y345000D02*
X383000Y339000D01*
X377000Y345000D02*
Y351869D01*
X383000Y84212D02*
Y339000D01*
X377914Y345217D02*
Y352086D01*
Y345217D02*
X383800Y339331D01*
Y83880D02*
Y339331D01*
X373500Y356500D02*
X377914Y352086D01*
X369400Y69480D02*
X383800Y83880D01*
X383100Y362900D02*
X387028Y358972D01*
X380769Y358100D02*
X382050Y356819D01*
X382769Y362100D02*
X386228Y358640D01*
X382437Y361300D02*
X385250Y358487D01*
X381669Y359700D02*
X383650Y357719D01*
X381100Y358900D02*
X382850Y357150D01*
X380437Y357300D02*
X381200Y356537D01*
X382000Y360500D02*
X384450Y358050D01*
X381625Y346875D02*
Y350962D01*
X381200Y351387D02*
X381625Y350962D01*
X381200Y351387D02*
Y356537D01*
X381625Y346875D02*
X384600Y343900D01*
X382050Y356350D02*
Y356819D01*
X382000Y351975D02*
Y356300D01*
X382050Y356350D01*
X383500Y348500D02*
Y350475D01*
X382000Y351975D02*
X383500Y350475D01*
X387028Y354472D02*
Y358972D01*
X385250Y353250D02*
Y358487D01*
X386228Y353772D02*
Y358640D01*
X384450Y352919D02*
Y358050D01*
X383650Y352587D02*
Y357719D01*
X382850Y352256D02*
Y357150D01*
X385400Y342803D02*
Y349706D01*
X382850Y352256D02*
X385400Y349706D01*
X385400Y83218D02*
Y342803D01*
X385400Y342803D02*
X385400Y342803D01*
X383650Y352587D02*
X386200Y350037D01*
X386200Y82886D02*
Y343135D01*
X386200Y343135D02*
X386200Y343135D01*
X386200Y343135D02*
Y350037D01*
X384450Y352919D02*
X387000Y350369D01*
Y343466D02*
Y350369D01*
Y343466D02*
X387000D01*
X385250Y353250D02*
X387800Y350700D01*
X388600Y351400D02*
X388600Y81892D01*
X386228Y353772D02*
X388600Y351400D01*
X389400Y81561D02*
X389400Y81561D01*
X387028Y354472D02*
X389400Y352100D01*
Y81561D02*
Y352100D01*
X384600Y343900D02*
X384600Y83549D01*
X378200Y65476D02*
X392660Y79936D01*
X387000Y82555D02*
Y343466D01*
X387800Y350700D02*
X387800Y82224D01*
X366514Y222619D02*
X369500Y219633D01*
X365714Y222287D02*
X368700Y219302D01*
X364914Y221956D02*
X367900Y218970D01*
X364114Y221625D02*
X367100Y218639D01*
X363314Y221293D02*
X366300Y218307D01*
X362514Y220962D02*
X365500Y217976D01*
X361714Y220631D02*
X364700Y217645D01*
X360914Y220299D02*
X363900Y217313D01*
X374914Y293461D02*
Y309651D01*
Y293461D02*
X377000Y291375D01*
X374114Y292886D02*
Y309983D01*
Y292886D02*
X376000Y291000D01*
X373314Y292186D02*
Y310314D01*
Y292186D02*
X375100Y290400D01*
X372514Y291586D02*
Y310883D01*
Y291586D02*
X374300Y289800D01*
X371714Y290786D02*
Y311214D01*
Y290786D02*
X373500Y289000D01*
X370914Y290086D02*
Y311545D01*
Y290086D02*
X372700Y288300D01*
X370114Y312743D02*
X371000Y313629D01*
X370114Y287257D02*
Y312743D01*
Y287257D02*
X371000Y286371D01*
X375500Y203169D02*
X378086Y205755D01*
X376300Y202838D02*
X378886Y205424D01*
X377100Y202506D02*
X379686Y205092D01*
X377900Y202175D02*
X380486Y204761D01*
X378700Y201844D02*
X381286Y204430D01*
X374300Y206495D02*
Y289800D01*
X371000Y286000D02*
Y286371D01*
Y313629D02*
Y314000D01*
X372700Y207157D02*
Y288300D01*
X373500Y206826D02*
Y289000D01*
X375100Y206163D02*
Y290400D01*
X369900Y205489D02*
X371900Y207489D01*
Y226000D01*
X369100Y205820D02*
X371100Y207820D01*
Y225400D01*
X370300Y208152D02*
Y224700D01*
X368300Y206152D02*
X370300Y208152D01*
X359100Y219850D02*
X362300Y216651D01*
X357300Y219388D02*
X360700Y215988D01*
X360000Y220082D02*
X363100Y216982D01*
X352235Y186111D02*
X352500Y186377D01*
X353035Y185780D02*
X353300Y186045D01*
X357800Y179000D02*
Y211736D01*
X358600Y170116D02*
Y210028D01*
X359400Y170447D02*
Y209697D01*
X360200Y170779D02*
Y209365D01*
X361000Y171110D02*
Y209034D01*
X361800Y171441D02*
Y208702D01*
X362600Y171773D02*
Y208371D01*
X363400Y172104D02*
Y208040D01*
X364200Y172435D02*
Y207708D01*
X365000Y172767D02*
Y207377D01*
X365900Y172998D02*
Y207146D01*
X366700Y173329D02*
Y206814D01*
X367500Y173661D02*
Y206483D01*
X368300Y173992D02*
Y206152D01*
X369100Y174324D02*
Y205820D01*
X369900Y174655D02*
Y205489D01*
X370700Y174986D02*
Y205157D01*
X371500Y175318D02*
Y204826D01*
X372300Y175649D02*
Y204495D01*
Y175649D02*
X374686Y173263D01*
X373100Y175980D02*
Y204163D01*
Y175980D02*
X375486Y173595D01*
X373900Y176312D02*
X376286Y173926D01*
X373900Y176312D02*
Y203832D01*
X374700Y176643D02*
Y203501D01*
Y176643D02*
X377086Y174257D01*
X375500Y176974D02*
X377886Y174589D01*
X375500Y176974D02*
Y203169D01*
X376300Y177306D02*
Y202838D01*
Y177306D02*
X378686Y174920D01*
X377100Y177637D02*
X379486Y175251D01*
X377100Y177637D02*
Y202506D01*
X377900Y177969D02*
Y202175D01*
Y177969D02*
X380286Y175583D01*
X378700Y178300D02*
X381086Y175914D01*
X378700Y178300D02*
Y201844D01*
X356500Y217000D02*
X358000Y215500D01*
X355700Y213836D02*
X357800Y211736D01*
X356214Y179714D02*
Y180000D01*
X356500Y177399D02*
Y177700D01*
X357800Y179000D01*
X356500Y177366D02*
Y177399D01*
X358000Y147500D02*
Y160000D01*
X358914Y146814D02*
Y157540D01*
X361086Y159712D01*
X359714Y146482D02*
Y157209D01*
X361886Y159380D01*
X360514Y146151D02*
Y156877D01*
X362686Y159049D01*
X361314Y145820D02*
Y156546D01*
X363486Y158718D01*
X362114Y145488D02*
Y156215D01*
X364286Y158386D01*
X362914Y145157D02*
Y155883D01*
X365086Y158055D01*
X363714Y144825D02*
Y155552D01*
X365886Y157723D01*
X364514Y144494D02*
Y155220D01*
X366686Y157392D01*
X365314Y144163D02*
Y154889D01*
X367486Y157061D01*
X366114Y143831D02*
Y154558D01*
X368286Y156729D01*
X366914Y143500D02*
Y154226D01*
X369086Y156398D01*
X367828Y154009D02*
X369886Y156067D01*
X368628Y143372D02*
Y153678D01*
X370686Y155735D01*
X369428Y143703D02*
Y153347D01*
X371486Y155404D01*
X370228Y144035D02*
Y153015D01*
X372286Y155073D01*
X371028Y144366D02*
Y152684D01*
X373086Y154741D01*
X371828Y144697D02*
Y152352D01*
X373886Y154410D01*
X372628Y145029D02*
Y152021D01*
X374686Y154078D01*
X373428Y145360D02*
Y151690D01*
X375486Y153747D01*
X374228Y145691D02*
Y151358D01*
X376286Y153416D01*
X375028Y146023D02*
Y151027D01*
X377086Y153084D01*
X375828Y146354D02*
Y150696D01*
X377886Y152753D01*
X376628Y146685D02*
Y150364D01*
X378686Y152422D01*
X377428Y147017D02*
Y150033D01*
X379486Y152090D01*
X378228Y147348D02*
X380500Y145077D01*
X378228Y147348D02*
Y149701D01*
X380286Y151759D01*
X379028Y147679D02*
X381300Y145408D01*
X379028Y147679D02*
Y149370D01*
X381086Y151427D01*
X377428Y147017D02*
X379700Y144745D01*
X376628Y146685D02*
X377600Y145714D01*
X376800Y132931D02*
Y145382D01*
X375828Y146354D02*
X376800Y145382D01*
X376000Y133263D02*
Y145051D01*
X375028Y146023D02*
X376000Y145051D01*
X375200Y133594D02*
Y144720D01*
X374228Y145691D02*
X375200Y144720D01*
X374400Y133925D02*
Y144388D01*
X373428Y145360D02*
X374400Y144388D01*
X373600Y134257D02*
Y144057D01*
X372628Y145029D02*
X373600Y144057D01*
X372800Y134588D02*
Y143726D01*
X371828Y144697D02*
X372800Y143726D01*
X372000Y134920D02*
Y143394D01*
X371028Y144366D02*
X372000Y143394D01*
X371200Y135251D02*
Y143063D01*
X370228Y144035D02*
X371200Y143063D01*
X370400Y135900D02*
Y142731D01*
X369428Y143703D02*
X370400Y142731D01*
X369600Y136231D02*
Y142400D01*
X368628Y143372D02*
X369600Y142400D01*
X367000Y133631D02*
X369600Y136231D01*
X367800Y133300D02*
X370400Y135900D01*
X368600Y132651D02*
X371200Y135251D01*
X369400Y132320D02*
X372000Y134920D01*
X370200Y131988D02*
X372800Y134588D01*
X371000Y131657D02*
X373600Y134257D01*
X372000Y131526D02*
X374400Y133925D01*
X373000Y131394D02*
X375200Y133594D01*
X374000Y131263D02*
X376000Y133263D01*
X375114Y131246D02*
X376800Y132931D01*
X377600Y132600D02*
Y145714D01*
X375914Y130914D02*
X377600Y132600D01*
X379700Y85437D02*
Y144745D01*
X340763Y46500D02*
X379700Y85437D01*
X380500Y85106D02*
Y145077D01*
X364201Y68807D02*
X380500Y85106D01*
X381086Y151427D02*
Y175914D01*
X380286Y151759D02*
Y175583D01*
X379486Y152090D02*
Y175251D01*
X378686Y152422D02*
Y174920D01*
X377886Y152753D02*
Y174589D01*
X377086Y153084D02*
Y174257D01*
X376286Y153416D02*
Y173926D01*
X375486Y153747D02*
Y173595D01*
X374686Y154078D02*
Y173263D01*
X371500Y175318D02*
X373886Y172932D01*
Y154410D02*
Y172932D01*
X370700Y174986D02*
X373086Y172600D01*
Y154741D02*
Y172600D01*
X369900Y174655D02*
X372286Y172269D01*
Y155073D02*
Y172269D01*
X369100Y174324D02*
X371486Y171938D01*
Y155404D02*
Y171938D01*
X368300Y173992D02*
X370686Y171606D01*
Y155735D02*
Y171606D01*
X367500Y173661D02*
X369886Y171275D01*
Y156067D02*
Y171275D01*
X366700Y173329D02*
X369086Y170944D01*
Y156398D02*
Y170944D01*
X365900Y172998D02*
X368286Y170612D01*
Y156729D02*
Y170612D01*
X365000Y172767D02*
X367486Y170281D01*
Y157061D02*
Y170281D01*
X364200Y172435D02*
X366686Y169949D01*
Y157392D02*
Y169949D01*
X363400Y172104D02*
X365886Y169618D01*
Y157723D02*
Y169618D01*
X362600Y171773D02*
X365086Y169287D01*
Y158055D02*
Y169287D01*
X361800Y171441D02*
X364286Y168955D01*
Y158386D02*
Y168955D01*
X361000Y171110D02*
X363486Y168624D01*
Y158718D02*
Y168624D01*
X360200Y170779D02*
X362686Y168293D01*
Y159049D02*
Y168293D01*
X359400Y170447D02*
X361886Y167961D01*
Y159380D02*
Y167961D01*
X358600Y170116D02*
X361086Y167630D01*
Y159712D02*
Y167630D01*
X360700Y212128D02*
Y215988D01*
X358600Y210028D02*
X360700Y212128D01*
X361500Y211796D02*
Y216319D01*
X359400Y209697D02*
X361500Y211796D01*
X362300Y211465D02*
Y216651D01*
X360200Y209365D02*
X362300Y211465D01*
X361000Y209034D02*
X363100Y211134D01*
Y216982D01*
X363900Y210802D02*
Y217313D01*
X361800Y208702D02*
X363900Y210802D01*
X364700Y210471D02*
Y217645D01*
X362600Y208371D02*
X364700Y210471D01*
X365500Y210140D02*
Y217976D01*
X363400Y208040D02*
X365500Y210140D01*
X364200Y207708D02*
X366300Y209808D01*
Y218307D01*
X263100Y342020D02*
Y353651D01*
X365000Y207377D02*
X367100Y209477D01*
Y218639D01*
X365900Y207146D02*
X367900Y209146D01*
Y218970D01*
X366700Y206814D02*
X368700Y208814D01*
Y219302D01*
X369500Y208483D02*
Y219633D01*
X367800Y127225D02*
Y133300D01*
X367000Y127556D02*
Y133631D01*
X367500Y206483D02*
X369500Y208483D01*
X370700Y205157D02*
X372700Y207157D01*
X371500Y204826D02*
X373500Y206826D01*
X372300Y204495D02*
X374300Y206495D01*
X381300Y84775D02*
Y145408D01*
X375914Y91286D02*
Y130914D01*
X371000Y125900D02*
Y131657D01*
X369400Y126562D02*
Y132320D01*
X368600Y126894D02*
Y132651D01*
X372000Y125768D02*
Y131526D01*
X374000Y125505D02*
Y131263D01*
X375114Y90929D02*
Y131246D01*
X370200Y126231D02*
Y131988D01*
X373000Y125637D02*
Y131394D01*
X373314Y124820D02*
X374000Y125505D01*
X372514Y125151D02*
X373000Y125637D01*
X371714Y125482D02*
X372000Y125768D01*
X370114Y126145D02*
X370200Y126231D01*
X367714Y127139D02*
X367800Y127225D01*
X368514Y126808D02*
X368600Y126894D01*
X366914Y127471D02*
X367000Y127556D01*
X370914Y125814D02*
X371000Y125900D01*
X369314Y126477D02*
X369400Y126562D01*
X373314Y84895D02*
Y124820D01*
X361920Y73500D02*
X373314Y84895D01*
X372514Y85226D02*
Y125151D01*
X361788Y74500D02*
X372514Y85226D01*
X371714Y85557D02*
Y125482D01*
X361457Y75300D02*
X371714Y85557D01*
X370914Y85889D02*
Y125814D01*
X364626Y79600D02*
X370914Y85889D01*
X370114Y86220D02*
Y126145D01*
X364294Y80400D02*
X370114Y86220D01*
X369314Y86551D02*
Y126477D01*
X363963Y81200D02*
X369314Y86551D01*
X368514Y86883D02*
Y126808D01*
X363631Y82000D02*
X368514Y86883D01*
X367714Y87214D02*
Y127139D01*
X363300Y82800D02*
X367714Y87214D01*
X366914Y87783D02*
Y127471D01*
X362731Y83600D02*
X366914Y87783D01*
X375914Y91286D02*
X378500Y88700D01*
X375114Y90929D02*
X377586Y88458D01*
X373100Y204163D02*
X375100Y206163D01*
X376000Y205932D02*
Y207500D01*
X373900Y203832D02*
X376000Y205932D01*
Y207500D02*
X376000Y291000D01*
X374700Y203501D02*
X377000Y205801D01*
Y206000D01*
X367000Y70474D02*
X381300Y84775D01*
X377000Y206000D02*
X377000Y291375D01*
X368600Y69812D02*
X383000Y84212D01*
X372600Y68155D02*
X387000Y82555D01*
X367800Y70143D02*
X382200Y84543D01*
X375000Y67161D02*
X389400Y81561D01*
X371000Y68818D02*
X385400Y83218D01*
X373400Y67824D02*
X387800Y82224D01*
X370200Y69149D02*
X384600Y83549D01*
X371800Y68486D02*
X386200Y82886D01*
X374200Y67492D02*
X388600Y81892D01*
X338000Y50500D02*
X342500D01*
X377586Y85586D01*
Y88458D01*
X345000Y82800D02*
X363300D01*
X345331Y82000D02*
X363631D01*
X354941Y81200D02*
X363963D01*
X355273Y80400D02*
X364294D01*
X355604Y79600D02*
X364626D01*
X356300Y75300D02*
X361457D01*
X356631Y74500D02*
X361788D01*
X356763Y73500D02*
X361920D01*
X378500Y85369D02*
Y88700D01*
X341631Y48500D02*
X378500Y85369D01*
X344272Y83600D02*
X362731D01*
X347300Y66300D02*
X356300Y75300D01*
X349500Y60000D02*
Y66237D01*
X347300Y63169D02*
Y66300D01*
X349500Y66237D02*
X356763Y73500D01*
X348500Y66369D02*
X356631Y74500D01*
X348500Y61000D02*
Y66369D01*
X353682Y76817D02*
Y77678D01*
X345700Y70828D02*
X355273Y80400D01*
X344900Y65400D02*
Y71159D01*
X345700Y65069D02*
Y70828D01*
X353682Y77678D02*
X355604Y79600D01*
X344900Y71159D02*
X354941Y81200D01*
X376600Y66498D02*
X391000Y80898D01*
X377400Y66167D02*
X391800Y80567D01*
X378200Y60175D02*
Y65476D01*
X377400Y60506D02*
Y66167D01*
X376600Y60837D02*
Y66498D01*
X375800Y61169D02*
Y66829D01*
X375000Y61500D02*
Y67161D01*
X374200Y61831D02*
Y67492D01*
X373400Y62163D02*
Y67824D01*
X372600Y62494D02*
Y68155D01*
X371800Y62826D02*
Y68486D01*
X367000Y70422D02*
Y70474D01*
X364201Y68754D02*
Y68807D01*
X353600Y57022D02*
X367000Y70422D01*
X353600Y55857D02*
Y57022D01*
X340000Y44500D02*
Y44553D01*
X364201Y68754D01*
X371000Y66000D02*
Y68818D01*
X369400Y66769D02*
Y69480D01*
X370200Y66437D02*
Y69149D01*
X343500Y39737D02*
X370200Y66437D01*
X342500Y39869D02*
X369400Y66769D01*
X368600Y67100D02*
Y69812D01*
X367800Y68800D02*
Y70143D01*
X340586Y39086D02*
X368600Y67100D01*
X340000Y41000D02*
X367800Y68800D01*
X344500Y39500D02*
X371000Y66000D01*
X337957Y13864D02*
Y14957D01*
X349800Y40826D02*
X371800Y62826D01*
X349800Y33088D02*
Y40826D01*
X342612Y25900D02*
X349800Y33088D01*
X330000Y33500D02*
X337600Y25900D01*
X326500Y33500D02*
X330000D01*
X327000Y32500D02*
X329500D01*
X334000Y28000D02*
Y28000D01*
X329500Y32500D02*
X334000Y28000D01*
X335500Y16500D02*
X335500D01*
X340300Y21300D02*
X343669D01*
X335500Y16500D02*
X340300Y21300D01*
X336614Y22500D02*
X343737D01*
X330614Y16500D02*
X336614Y22500D01*
X343737D02*
X353000Y31763D01*
X334000Y28000D02*
X336900Y25100D01*
X342943D01*
X350600Y32757D01*
X343606Y23500D02*
X352200Y32094D01*
X333500Y23500D02*
X343606D01*
X337600Y25900D02*
X342612D01*
X335700Y24300D02*
X343274D01*
X332500Y27500D02*
X335700Y24300D01*
X343274D02*
X351400Y32425D01*
X329500Y27500D02*
X333500Y23500D01*
X332500Y27500D02*
X332500D01*
X329500Y30500D02*
X332500Y27500D01*
X325500Y31000D02*
X327000Y32500D01*
X323500Y30500D02*
X326500Y33500D01*
X325500Y27500D02*
Y31000D01*
X333000Y14000D02*
X335243D01*
X341743Y20500D02*
X344000D01*
X343431Y17744D02*
X344244D01*
X343187Y17500D02*
X343431Y17744D01*
X342566Y19566D02*
X344566D01*
X335243Y14000D02*
X341743Y20500D01*
X337957Y14957D02*
X342566Y19566D01*
X354014Y31646D02*
Y39383D01*
X343669Y21300D02*
X354014Y31646D01*
X356414Y29914D02*
Y38389D01*
X344244Y17744D02*
X356414Y29914D01*
Y38389D02*
X378200Y60175D01*
X344000Y20500D02*
X354814Y31314D01*
Y39051D01*
X350600Y32757D02*
Y40494D01*
X352200Y32094D02*
Y39831D01*
X351400Y32425D02*
Y40163D01*
X340617Y29117D02*
X341986D01*
X344500Y31631D02*
Y39500D01*
X353000Y31763D02*
Y39500D01*
X341986Y29117D02*
X344500Y31631D01*
X355614Y30614D02*
Y38720D01*
X344566Y19566D02*
X355614Y30614D01*
X350600Y40494D02*
X372600Y62494D01*
X351400Y40163D02*
X373400Y62163D01*
X327500Y30500D02*
X329500D01*
X352200Y39831D02*
X374200Y61831D01*
X354014Y39383D02*
X375800Y61169D01*
X355614Y38720D02*
X377400Y60506D01*
X353000Y39500D02*
X375000Y61500D01*
X354814Y39051D02*
X376600Y60837D01*
X338586Y39086D02*
X340586D01*
X338000Y46500D02*
X340763D01*
X340000Y48500D02*
X341631D01*
X340329Y42586D02*
X353600Y55857D01*
X343500Y32500D02*
Y39737D01*
X342000Y31000D02*
X343500Y32500D01*
X340500Y33000D02*
X342500Y35000D01*
Y39869D01*
X338000Y31000D02*
X342000D01*
X337500Y38000D02*
X338586Y39086D01*
X340129Y52871D02*
X340500Y52500D01*
X342000D01*
X349500Y60000D01*
X337500Y35500D02*
Y38000D01*
X337586Y42586D02*
X340329D01*
X337500Y42500D02*
X337586Y42586D01*
X346500Y63500D02*
Y69635D01*
X353682Y76817D01*
X342000Y54500D02*
X348500Y61000D01*
X338000Y54500D02*
X342000D01*
X340631Y56500D02*
X347300Y63169D01*
X340500Y56500D02*
X340631D01*
X341500Y58500D02*
X346500Y63500D01*
X338000Y58500D02*
X341500D01*
X344100Y80769D02*
X345331Y82000D01*
X342000Y64500D02*
X344100Y66600D01*
X343300Y67300D02*
Y81100D01*
X342500Y81828D02*
X344272Y83600D01*
X343300Y81100D02*
X345000Y82800D01*
X341394Y60763D02*
X345700Y65069D01*
X342500Y72000D02*
Y81828D01*
X344100Y66600D02*
Y80769D01*
X342000Y62500D02*
X344900Y65400D01*
X342500Y66500D02*
X343300Y67300D01*
X341000Y70500D02*
X342500Y72000D01*
X340500Y60500D02*
X340762Y60763D01*
X338000Y62500D02*
X342000D01*
X340762Y60763D02*
X341394D01*
X340500Y64500D02*
X342000D01*
X338500Y66500D02*
X342500D01*
X339000Y75000D02*
X341000Y77000D01*
Y82900D01*
X342500Y84400D01*
X339000Y70500D02*
Y75000D01*
X341000Y68500D02*
Y70500D01*
X325500Y75000D02*
Y86500D01*
X329000Y90000D01*
X327500Y77586D02*
Y86500D01*
X330200Y89200D01*
X335000Y84000D02*
X337000Y86000D01*
X331000Y85000D02*
X333600Y87600D01*
X329000Y85500D02*
X331900Y88400D01*
X337000Y83000D02*
X339200Y85200D01*
X329000Y75000D02*
Y85500D01*
X331000Y77500D02*
Y85000D01*
X335000Y77500D02*
Y84000D01*
X262300Y353982D02*
X270018Y361700D01*
X337000Y75000D02*
Y83000D01*
X263100Y353651D02*
X270349Y360900D01*
X189000Y339100D02*
X260180Y339100D01*
X263900Y353320D02*
X270680Y360100D01*
X267100Y351994D02*
X272006Y356900D01*
X264700Y352988D02*
X271012Y359300D01*
X265500Y352657D02*
X271343Y358500D01*
X266300Y352326D02*
X271674Y357700D01*
X268700Y351331D02*
X272669Y355300D01*
X269500Y351000D02*
X273000Y354500D01*
X267900Y351663D02*
X272337Y356100D01*
X264700Y341357D02*
Y352988D01*
X265500Y341025D02*
Y352657D01*
X327414Y77500D02*
X327500Y77586D01*
X325463Y88200D02*
X328063Y90800D01*
X323500Y87700D02*
X324000Y88200D01*
X323500Y77500D02*
Y87700D01*
X324000Y88200D02*
X325463D01*
X325500Y89369D02*
Y89369D01*
X319000Y89000D02*
X325131D01*
X317500Y75000D02*
Y87500D01*
X325131Y89000D02*
X325500Y89369D01*
Y89369D02*
X327731Y91600D01*
X317500Y87500D02*
X319000Y89000D01*
X268700Y339700D02*
Y351331D01*
X318269Y89400D02*
X318869Y90000D01*
X317400Y89400D02*
X318269D01*
X315500Y77500D02*
Y87500D01*
X318869Y90000D02*
X325000D01*
X315500Y87500D02*
X317400Y89400D01*
X325000Y90000D02*
X327400Y92400D01*
X314500Y88500D02*
X316200Y90200D01*
X317831D01*
X320831Y93200D01*
X314500Y85369D02*
Y88500D01*
X317500Y91000D02*
X320500Y94000D01*
X315500Y91000D02*
X317500D01*
X295866Y83366D02*
X312497D01*
X314500Y85369D01*
X290500Y78000D02*
X295866Y83366D01*
X290500Y68500D02*
Y78000D01*
X309500Y91005D02*
X314895Y96400D01*
X312500Y91743D02*
X315557Y94800D01*
X307500Y90500D02*
X314200Y97200D01*
X311500Y91874D02*
X315226Y95600D01*
X309500Y88500D02*
Y91005D01*
X311500Y87000D02*
Y91874D01*
X312500Y86500D02*
Y91743D01*
X310000Y95000D02*
X313000Y98000D01*
X310000Y94234D02*
Y95000D01*
X308266Y92500D02*
X310000Y94234D01*
X306500Y92500D02*
X308266D01*
X310500Y86000D02*
X311500Y87000D01*
X305000Y86000D02*
X310500D01*
X302586Y88414D02*
X305000Y86000D01*
X302586Y88414D02*
Y88500D01*
X311000Y85000D02*
X312500Y86500D01*
X303000Y85000D02*
X311000D01*
X301000Y87000D02*
X303000Y85000D01*
X301000Y87000D02*
Y92000D01*
X313500Y89000D02*
X315500Y91000D01*
X313500Y85500D02*
Y89000D01*
X305914Y88586D02*
Y91914D01*
X306500Y92500D01*
X312166Y84166D02*
X313500Y85500D01*
X299000Y87000D02*
X301834Y84166D01*
X312166D01*
X299000Y87000D02*
Y88500D01*
X279000Y343500D02*
X284000Y348500D01*
X279000Y335500D02*
Y343500D01*
X295500Y92500D02*
Y96374D01*
X301926Y102800D01*
X298414Y91040D02*
Y93157D01*
X295988Y88614D02*
X298414Y91040D01*
X293700Y88614D02*
X295988D01*
X297586Y97329D02*
X302257Y102000D01*
X297586Y91343D02*
Y97329D01*
X296157Y89914D02*
X297586Y91343D01*
X294807Y89914D02*
X296157D01*
X293721Y91000D02*
X294807Y89914D01*
X305914Y88586D02*
X306000Y88500D01*
X293586D02*
X293700Y88614D01*
X304000Y96500D02*
X307100Y99600D01*
X298414Y93157D02*
X305657Y100400D01*
X307500Y94500D02*
X311800Y98800D01*
X300000Y97500D02*
X303700Y101200D01*
X292000Y91000D02*
X293721D01*
X274500Y71500D02*
X278500D01*
X281500Y68500D01*
X290500D01*
X261000Y58500D02*
X291000D01*
X259000Y60500D02*
X261000Y58500D01*
X260000Y56500D02*
X279000D01*
X259000Y57500D02*
X260000Y56500D01*
X259500Y54500D02*
X277000D01*
X156500Y11086D02*
X156535Y11121D01*
Y16449D01*
X156571Y16484D01*
X237280Y31051D02*
X239248D01*
X235311D02*
X237280D01*
X233343D02*
X235311D01*
X231374D02*
X233343D01*
X217595D02*
X219563D01*
X215626D02*
X217595D01*
X205784D02*
X207752D01*
X203815D02*
X205784D01*
X150665Y16484D02*
X152634D01*
X148697D02*
X150665D01*
Y31051D02*
X152634D01*
X148697D02*
X150665D01*
X154551Y16433D02*
X154602Y16484D01*
X154551Y9551D02*
Y16433D01*
X154500Y9500D02*
X154551Y9551D01*
X229405Y31051D02*
X229453Y31098D01*
Y39953D02*
X229500Y40000D01*
X225468Y31051D02*
X225484Y31067D01*
Y39984D02*
X225500Y40000D01*
X221516Y31067D02*
X221532Y31051D01*
X221500Y40000D02*
X221516Y39984D01*
X209610Y31161D02*
X209720Y31051D01*
D67*
X174000Y40500D02*
X174073Y40427D01*
Y37187D02*
X174287Y36973D01*
X174073Y37187D02*
Y40427D01*
X176145Y31162D02*
Y37892D01*
X178224Y31051D02*
Y40109D01*
X180188Y37693D02*
X180190Y37690D01*
X182151Y31062D02*
Y39984D01*
X184114Y38000D02*
X184122Y37992D01*
X186085Y31064D02*
Y40415D01*
X188067Y31051D02*
Y38000D01*
X172314Y36316D02*
X172316Y36313D01*
X170350Y31051D02*
Y40183D01*
X168377Y38000D02*
X168379Y37997D01*
X166413Y31051D02*
Y40413D01*
X164447Y37997D02*
X164450Y38000D01*
X162487Y31062D02*
Y40487D01*
X160500Y38000D02*
X160504Y37996D01*
X158534Y31056D02*
Y40466D01*
X156566Y37929D02*
X156568Y37927D01*
X154589Y31064D02*
Y40411D01*
X174287Y31051D02*
Y36973D01*
X156568Y31054D02*
X156571Y31051D01*
X156568Y31054D02*
Y37927D01*
X201847Y31051D02*
Y39680D01*
X202000Y39833D01*
Y40000D01*
X199878Y31051D02*
X199881Y31054D01*
Y37997D01*
X199883Y38000D01*
X197909Y31051D02*
X197920Y31062D01*
Y40420D01*
X198000Y40500D01*
X195941Y31051D02*
X195943Y31054D01*
Y37997D01*
X195946Y38000D01*
X193972Y31051D02*
X193983Y31062D01*
Y40483D01*
X194000Y40500D01*
X192002Y31053D02*
X192004Y31051D01*
X192002Y31053D02*
Y37998D01*
X192000Y38000D02*
X192002Y37998D01*
X190030Y31056D02*
X190035Y31051D01*
X190030Y31056D02*
Y40470D01*
X190000Y40500D02*
X190030Y40470D01*
X186085Y31064D02*
X186098Y31051D01*
X186000Y40500D02*
X186085Y40415D01*
X184122Y31059D02*
X184130Y31051D01*
X184122Y31059D02*
Y37992D01*
X182151Y31062D02*
X182161Y31051D01*
X182151Y39984D02*
X182500Y40333D01*
Y40500D01*
X176145Y31162D02*
X176256Y31051D01*
X178000Y40333D02*
X178224Y40109D01*
X178000Y40333D02*
Y40500D01*
X172316Y31054D02*
Y36313D01*
X180190Y31054D02*
X180193Y31051D01*
X180190Y31054D02*
Y37690D01*
X172316Y31054D02*
X172319Y31051D01*
X170350Y40183D02*
X170500Y40333D01*
Y40500D01*
X168379Y31054D02*
X168382Y31051D01*
X168379Y31054D02*
Y37997D01*
X166413Y40413D02*
X166500Y40500D01*
X164445Y31051D02*
X164447Y31054D01*
Y37997D01*
X162476Y31051D02*
X162487Y31062D01*
Y40487D02*
X162500Y40500D01*
X160504Y31055D02*
X160508Y31051D01*
X160504Y31055D02*
Y37996D01*
X158534Y31056D02*
X158539Y31051D01*
X158500Y40500D02*
X158534Y40466D01*
X154589Y31064D02*
X154602Y31051D01*
X154500Y40500D02*
X154589Y40411D01*
D68*
X41500Y348000D02*
D03*
X51500D02*
D03*
X61500D02*
D03*
X71500D02*
D03*
X81500D02*
D03*
X91500D02*
D03*
X274000Y338500D02*
D03*
Y348500D02*
D03*
X284000Y338500D02*
D03*
Y348500D02*
D03*
X294000Y338500D02*
D03*
Y348500D02*
D03*
D69*
X253500Y81000D02*
D03*
X238500D02*
D03*
X223500D02*
D03*
X168000D02*
D03*
X153000D02*
D03*
X138000D02*
D03*
X154000Y60000D02*
D03*
X169000D02*
D03*
X184000D02*
D03*
X109500Y79000D02*
D03*
Y69000D02*
D03*
Y49000D02*
D03*
Y39000D02*
D03*
Y29000D02*
D03*
X82000Y79000D02*
D03*
Y69000D02*
D03*
Y49000D02*
D03*
Y39000D02*
D03*
Y29000D02*
D03*
X43000Y67500D02*
D03*
X28000D02*
D03*
X13000D02*
D03*
X43000Y48000D02*
D03*
X28000D02*
D03*
X13000D02*
D03*
D70*
X208500Y81000D02*
D03*
X183000D02*
D03*
X139000Y60000D02*
D03*
X58000Y67500D02*
D03*
Y48000D02*
D03*
D71*
X15626Y379083D02*
D03*
X378618D02*
D03*
X379012Y16091D02*
D03*
X14839Y14122D02*
D03*
D72*
X109500Y89000D02*
D03*
X82000D02*
D03*
D73*
X250075Y352705D02*
D03*
X143776D02*
D03*
X250075Y20421D02*
D03*
X143776D02*
D03*
X250075Y27114D02*
D03*
X143776D02*
D03*
D74*
X234681Y25500D02*
D03*
X204500Y39000D02*
D03*
X209500Y40000D02*
D03*
X186000Y349303D02*
D03*
X184000Y347000D02*
D03*
X182000Y349177D02*
D03*
X180193Y347193D02*
D03*
X186000Y25500D02*
D03*
X178500D02*
D03*
X171500D02*
D03*
X165500D02*
D03*
X184000Y44000D02*
D03*
X168000D02*
D03*
X175500D02*
D03*
X180000D02*
D03*
X172000D02*
D03*
X152000Y9000D02*
D03*
X149000D02*
D03*
X150500Y10500D02*
D03*
X149500Y24500D02*
D03*
X151500D02*
D03*
Y26500D02*
D03*
X149500D02*
D03*
X152000Y39500D02*
D03*
Y37000D02*
D03*
X149500D02*
D03*
Y39500D02*
D03*
X174000Y40500D02*
D03*
X176145Y37892D02*
D03*
X180188Y37693D02*
D03*
X184114Y38000D02*
D03*
X188067D02*
D03*
X172314Y36316D02*
D03*
X168377Y38000D02*
D03*
X164450D02*
D03*
X160500D02*
D03*
X156566Y37929D02*
D03*
X206000Y26500D02*
D03*
X204500Y24500D02*
D03*
X207000D02*
D03*
X206000Y37000D02*
D03*
X207000Y39000D02*
D03*
X219000Y37000D02*
D03*
X216500D02*
D03*
X217500Y40000D02*
D03*
X218000Y24500D02*
D03*
X216500Y26500D02*
D03*
X219000D02*
D03*
X223000Y22000D02*
D03*
X233000Y39000D02*
D03*
X235500D02*
D03*
X238000D02*
D03*
X232000Y25500D02*
D03*
X238500D02*
D03*
Y21500D02*
D03*
X241000D02*
D03*
X243500D02*
D03*
X232500D02*
D03*
X235000D02*
D03*
X259000Y34500D02*
D03*
X309000Y52500D02*
D03*
X306500Y50000D02*
D03*
X291500Y47000D02*
D03*
X309500Y47500D02*
D03*
X231000Y11000D02*
D03*
X212000D02*
D03*
X217000Y10914D02*
D03*
X214495Y10917D02*
D03*
X203000Y348000D02*
D03*
X200000D02*
D03*
X261978Y358978D02*
D03*
X260000Y362000D02*
D03*
X316500Y356000D02*
D03*
X356086Y182914D02*
D03*
X241586Y362000D02*
D03*
X223500Y364500D02*
D03*
X150500Y350000D02*
D03*
X154500D02*
D03*
X157379Y346879D02*
D03*
X249500Y343886D02*
D03*
X278500Y38500D02*
D03*
X290500Y42500D02*
D03*
X293000Y44500D02*
D03*
X367500Y138000D02*
D03*
X363314Y92000D02*
D03*
X234000D02*
D03*
X199500Y11000D02*
D03*
X296500Y5000D02*
D03*
X202000Y11000D02*
D03*
X303500Y9500D02*
D03*
Y13000D02*
D03*
X204500Y11000D02*
D03*
X207000D02*
D03*
X299000Y13000D02*
D03*
X301500Y15500D02*
D03*
X209500Y11000D02*
D03*
X296000Y13000D02*
D03*
X290000Y12500D02*
D03*
X293000Y13000D02*
D03*
X259500Y10000D02*
D03*
X219500Y11000D02*
D03*
X289500Y15500D02*
D03*
X233500Y11000D02*
D03*
X245500Y10414D02*
D03*
X279500Y28013D02*
D03*
X162500Y6914D02*
D03*
X271000Y29000D02*
D03*
X270069Y25932D02*
D03*
X278500Y30500D02*
D03*
X228272Y11000D02*
D03*
X278500Y33000D02*
D03*
X226000Y11000D02*
D03*
X270187Y18313D02*
D03*
X277000Y35000D02*
D03*
X223500Y11000D02*
D03*
X290252Y36752D02*
D03*
X293000Y40500D02*
D03*
X379500Y350500D02*
D03*
X340500Y29000D02*
D03*
X333000Y75000D02*
D03*
X159500Y10000D02*
D03*
X244000Y37500D02*
D03*
X241500D02*
D03*
X271500Y32000D02*
D03*
X141500Y374000D02*
D03*
X182500Y374500D02*
D03*
X194086Y362500D02*
D03*
X192500Y380000D02*
D03*
X190000Y383000D02*
D03*
X196000Y364500D02*
D03*
X198000Y362500D02*
D03*
X200000Y364500D02*
D03*
X202000Y362500D02*
D03*
X204000Y364500D02*
D03*
X206000Y362500D02*
D03*
X208000Y364500D02*
D03*
X243000Y374814D02*
D03*
X210000Y362500D02*
D03*
X211750Y364500D02*
D03*
X213500Y362500D02*
D03*
X215500Y364500D02*
D03*
X217500Y362500D02*
D03*
X219500Y364500D02*
D03*
X223000Y375000D02*
D03*
X221500Y362500D02*
D03*
X227500Y364000D02*
D03*
X225500Y362000D02*
D03*
X229500D02*
D03*
X231500Y364000D02*
D03*
X233500Y362000D02*
D03*
X235500Y364000D02*
D03*
X237500Y362000D02*
D03*
X240000Y364000D02*
D03*
X243500Y363500D02*
D03*
X245500Y361500D02*
D03*
X159121Y350621D02*
D03*
X156500Y352000D02*
D03*
X160500Y347000D02*
D03*
X152500Y352000D02*
D03*
X148500D02*
D03*
X168500Y337000D02*
D03*
X172500D02*
D03*
X170500Y335686D02*
D03*
X166713Y334500D02*
D03*
X162500Y335500D02*
D03*
X160500Y337000D02*
D03*
X158500Y335500D02*
D03*
X156500Y337000D02*
D03*
X154500Y335500D02*
D03*
X152500Y337000D02*
D03*
X150500Y335500D02*
D03*
X148500Y337000D02*
D03*
X161500Y374000D02*
D03*
X203000Y374500D02*
D03*
X358997Y377497D02*
D03*
X361500Y375000D02*
D03*
X357682Y370682D02*
D03*
X342500Y381914D02*
D03*
X336500Y380000D02*
D03*
X309500Y375000D02*
D03*
X331500Y339500D02*
D03*
X341500Y339414D02*
D03*
X341000Y346586D02*
D03*
X340656Y350693D02*
D03*
X337914Y356086D02*
D03*
X345414Y363500D02*
D03*
X308875Y380125D02*
D03*
X353893Y363307D02*
D03*
X363250Y342250D02*
D03*
X370870Y325000D02*
D03*
X371000Y334314D02*
D03*
X371557Y364614D02*
D03*
X374500Y346614D02*
D03*
X376364Y364614D02*
D03*
X368386D02*
D03*
X309500Y355500D02*
D03*
X310500Y344500D02*
D03*
X310495Y339914D02*
D03*
X323000Y361414D02*
D03*
X380000Y347500D02*
D03*
X383500Y348500D02*
D03*
X335000Y363000D02*
D03*
X388614Y355129D02*
D03*
X383000Y342500D02*
D03*
X374000Y364573D02*
D03*
X246500Y63000D02*
D03*
X232500Y71000D02*
D03*
X224000Y67500D02*
D03*
X42500Y79500D02*
D03*
X44500Y36000D02*
D03*
X87500Y15000D02*
D03*
X117000D02*
D03*
X162000Y48500D02*
D03*
X162500Y93500D02*
D03*
X376500Y304500D02*
D03*
X371000Y286000D02*
D03*
Y314000D02*
D03*
Y242500D02*
D03*
Y246500D02*
D03*
Y251000D02*
D03*
X371086Y229057D02*
D03*
X356000Y187000D02*
D03*
X358000Y215500D02*
D03*
X356214Y180000D02*
D03*
X356500Y177399D02*
D03*
X358000Y162500D02*
D03*
Y160000D02*
D03*
X368500Y223500D02*
D03*
X380614Y148336D02*
D03*
X378000Y125454D02*
D03*
X380442Y201343D02*
D03*
X380286Y182000D02*
D03*
Y191500D02*
D03*
X380429Y179500D02*
D03*
X376000Y87000D02*
D03*
X357000Y77500D02*
D03*
X356810Y71304D02*
D03*
X387216Y72250D02*
D03*
X315500Y77500D02*
D03*
X319500D02*
D03*
X369500Y32500D02*
D03*
X382000Y53000D02*
D03*
X373000Y39000D02*
D03*
X375000Y53000D02*
D03*
X383500Y63500D02*
D03*
X313500Y28000D02*
D03*
X310500Y11000D02*
D03*
X314500D02*
D03*
X356614Y68000D02*
D03*
X337957Y13864D02*
D03*
X359614Y39346D02*
D03*
X323500Y30500D02*
D03*
X343187Y17500D02*
D03*
X329500Y27500D02*
D03*
X325500D02*
D03*
X327500Y30500D02*
D03*
X358000Y37000D02*
D03*
X335500Y16500D02*
D03*
X330614D02*
D03*
X333000Y14000D02*
D03*
X340500Y33000D02*
D03*
X338000Y31000D02*
D03*
X340500Y37500D02*
D03*
X337500Y35500D02*
D03*
X340000Y41000D02*
D03*
X337500Y42500D02*
D03*
X340000Y44500D02*
D03*
Y48500D02*
D03*
X338000Y46500D02*
D03*
X340129Y52871D02*
D03*
X338000Y50500D02*
D03*
X340500Y56500D02*
D03*
X338000Y54500D02*
D03*
X340914Y74000D02*
D03*
X340500Y60500D02*
D03*
X338000Y58500D02*
D03*
X350000Y80414D02*
D03*
X338000Y62500D02*
D03*
X340500Y64500D02*
D03*
X338500Y66500D02*
D03*
X341000Y68500D02*
D03*
X339000Y70500D02*
D03*
X337000Y75000D02*
D03*
X335000Y77500D02*
D03*
X331000D02*
D03*
X327414D02*
D03*
X329000Y75000D02*
D03*
X325500D02*
D03*
X323500Y77500D02*
D03*
X264000Y66000D02*
D03*
X262000Y51500D02*
D03*
X266000Y70500D02*
D03*
X271000Y78500D02*
D03*
X280500Y80000D02*
D03*
X317500Y75000D02*
D03*
X324000Y91614D02*
D03*
X316000Y93000D02*
D03*
X302586Y88500D02*
D03*
X299000D02*
D03*
X295500Y92500D02*
D03*
X306000Y88500D02*
D03*
X307500Y90500D02*
D03*
X309500Y88500D02*
D03*
X301000Y92000D02*
D03*
X307500Y94500D02*
D03*
X304000Y96500D02*
D03*
X300000Y97500D02*
D03*
X293586Y88500D02*
D03*
X292000Y91000D02*
D03*
X290500Y68500D02*
D03*
X274500Y71500D02*
D03*
X277000Y69000D02*
D03*
X291000Y64500D02*
D03*
X259000Y60500D02*
D03*
X291000Y58500D02*
D03*
X259000Y57500D02*
D03*
X279000Y56500D02*
D03*
X259500Y54500D02*
D03*
X277000D02*
D03*
X156500Y11086D02*
D03*
X192500Y348000D02*
D03*
X190000Y348500D02*
D03*
X154500Y9500D02*
D03*
X229500Y40000D02*
D03*
X227437Y37500D02*
D03*
X225500Y40000D02*
D03*
X223500Y37500D02*
D03*
X221500Y40000D02*
D03*
X213657Y39843D02*
D03*
X211689Y37811D02*
D03*
X202000Y40000D02*
D03*
X199883Y38000D02*
D03*
X198000Y40500D02*
D03*
X195946Y38000D02*
D03*
X194000Y40500D02*
D03*
X192000Y38000D02*
D03*
X190000Y40500D02*
D03*
X186000D02*
D03*
X182500D02*
D03*
X178000D02*
D03*
X170500D02*
D03*
X166500D02*
D03*
X162500D02*
D03*
X158500D02*
D03*
X154500D02*
D03*
M02*
