M48
;Layer_Color=9474304
;FILE_FORMAT=2:4
INCH,TZ
;TYPE=PLATED
T1F00S00C0.0079
T2F00S00C0.0295
T3F00S00C0.0300
T4F00S00C0.0866
;TYPE=NON_PLATED
T5F00S00C0.0571
%
T01
X4450Y3600
X8750Y1500
X11700
X14900Y900
X15200
X15050Y1050
X15450Y950
X15650Y1109
X15950Y1000
X16250Y691
X16550Y2550
X17150
X17850
X18600
X18411Y3800
X18807
X19200
X19595
X19988
X20200Y4000
X20450Y3900
X20700
X20600Y3700
X20950Y4000
X21366Y3984
X21750Y4000
X21650Y3700
X21900
X22350Y3750
X22744
X22550Y4000
X22950
X23300Y3900
X23550
X23800
X24150Y3750
X24400
X24350Y2150
X24100
X23850
X23500
X23250
X23200Y2550
X23468
X23850
X22300Y2200
X21800Y2450
X21900Y2650
X21650
X20600
X20700Y2450
X20450
Y1100
X20200
X19950
X20700
X20950
X21200
X21450Y1092
X21700Y1091
X21950Y1100
X22350
X22600
X22827
X23100
X23350
X24550Y1041
X25950Y1000
X27019Y1831
X27007Y2593
X27100Y2900
X27150Y3200
X27850Y3300
Y3050
X27950Y2801
X27700Y3500
X27850Y3850
X29025Y3675
X29050Y4250
X29300Y4450
X29150Y4700
X29300Y4050
Y1300
X29600
X29900
X29000Y1250
X28950Y1550
X29650Y500
X25900Y3450
X26200Y5150
X25950Y5450
X27700
X27900Y5650
X22150Y4000
X21169Y3781
X19800Y4050
X19400
X19000
X18600
X18250
X17800
X17400
X17050
X16650
X16250
X15850
X15450
X15200Y3950
Y3700
X14950
Y3950
X15657Y3793
X16050Y3800
X16445
X16838
X17231Y3632
X17615Y3789
X18019Y3769
X18000Y4400
X18400
X17550
X17200
X16800
X16200Y4850
X15150Y2650
Y2450
X14950
Y2650
X30150Y1550
X30350Y1300
Y950
X31050Y1100
X31450
X31350Y2800
X32350Y3050
X32750
X32950Y2750
X32550
X33800Y3100
X34050Y2900
Y3300
Y3750
X34000Y4100
Y4450
Y4850
X33800Y4650
Y5050
Y5450
X34013Y5287
X34050Y5650
X33750Y4250
Y3550
X33550Y1650
X33061
X33300Y1400
X33796Y1386
X34319Y1750
X35800Y3700
X35961Y3935
X37300Y3900
X36950Y3250
X37500Y5300
X38200
X30900Y5250
X30650Y5000
X30950Y4750
X31750Y7500
X31550Y7750
X31950
X32350
X32741
X33100
X33500
X33300Y7500
X33700
X34091Y7400
X33900Y7050
X34100Y6850
X34050Y6450
Y6050
X33800Y5850
Y6250
X33850Y6650
X32900Y7500
X32550
X32400Y9161
X31600Y9300
X30750Y9450
Y9050
X30600Y8850
X30259
X30100Y9200
X30000Y9750
X30400Y9650
X30950Y8850
X35000Y8041
X35700Y7750
X35681Y7130
X35661Y6800
X36331Y9200
X37600Y8700
X38722Y7225
X38350Y6350
X37800Y12545
X36750Y13800
X38061Y14834
X38043Y17950
X38029Y18200
Y19150
X38044Y20134
X35600Y18700
X35609Y18291
X35621Y18000
X35650Y17740
X35800Y16250
Y16000
X29550Y9250
X29200Y9100
X29359Y8850
X29900
X28050Y8000
X27100Y7850
X27450Y7150
X27700Y6900
X26600Y7050
X26400Y6600
X25900Y6050
Y5750
X24650Y6300
X23250Y7100
X22400Y6750
X23400Y9200
X16250Y9350
X29050Y6850
X29100Y6450
Y5850
X4250Y7950
X14850Y33700
X15050Y33550
X15250Y33700
X15450Y33550
X15650Y33700
X15850Y33550
X16050Y33700
X16250Y33550
X16671Y33450
X16850Y33700
X17050Y33569
X17250Y33700
X18019Y34719
X18200Y34918
X18600Y34930
X18400Y34700
X19000Y34850
X19250Y34800
X20000
X20300
X20200Y36250
X19800
X19409
X19600Y36450
X20000
X20400
X20600Y36250
X20800Y36450
X21175
X21000Y36250
X21350
X21550Y36450
X21750Y36250
X21950Y36450
X22350
X22150Y36250
X22550Y36200
X22750Y36400
X22950Y36200
X23150Y36400
X23350Y36200
X23550Y36400
X23750Y36200
X24159
X24350Y36350
X24000Y36400
X24550Y36150
X26000Y36200
X26198Y35898
X24950Y34389
X16050Y34700
X15738Y34688
X15912Y35062
X15650Y35200
X15450Y35000
X15050
X15250Y35200
X14850
X30950Y35550
X31650Y35600
X32300Y36141
X33500Y36300
X33791Y35609
X34066Y35069
X34100Y34659
X34150Y33941
X33150Y33950
X31050Y33991
X31050Y34450
X34541Y36350
X35389Y36331
X36839Y36461
X37156
X37400Y36457
X37636Y36461
X37950Y35050
X38000Y34750
X38350Y34850
X38300Y34250
X37450Y34661
X36325Y34225
X37100Y33431
X37087Y32500
X37100Y31400
X37650Y30450
X37100Y28600
Y25100
Y24650
Y24250
X37109Y22906
X36850Y22350
X35800Y21550
X38861Y35513
X35768Y37068
X35900Y37750
X36150Y37500
X34250Y38191
X33650Y38000
X30887Y38012
X30950Y37500
X24300Y37481
X22300Y37500
X20300Y37450
X19250Y38000
X19000Y38300
X18250Y37450
X16150Y37400
X14150
T02
X1300Y4800
X2800
X4300
X5800
X8200Y4900
Y3900
Y2900
X10950
Y3900
Y4900
X15400Y6000
X16900
X18400
X18300Y8100
X16800
X15300
X20850
X22350
X23850
X25350
X13800
X13900Y6000
X10950Y6900
Y7900
Y8900
X8200
Y7900
Y6900
X5800Y6750
X4300
X2800
X1300
T03
X4150Y34800
X5150
X6150
X7150
X8150
X9150
X27400Y34850
Y33850
X28400
Y34850
X29400
Y33850
T04
X1484Y1412
X37901Y1609
X37862Y37908
X1563
T05
X14378Y2042
Y2711
X25007
Y2042
Y35270
X14378
M30
