G04*
G04 #@! TF.GenerationSoftware,Altium Limited,Altium Designer,20.0.13 (296)*
G04*
G04 Layer_Color=32768*
%FSLAX25Y25*%
%MOIN*%
G70*
G01*
G75*
%ADD14C,0.00787*%
%ADD15C,0.00500*%
%ADD16C,0.01000*%
%ADD84C,0.00394*%
%ADD86C,0.00197*%
%ADD87C,0.00197*%
D14*
X34728Y343035D02*
X98272D01*
Y388772D01*
X34728Y343035D02*
Y388772D01*
X98272D01*
X267228Y333535D02*
X300772D01*
X267228D02*
Y389272D01*
X300772D01*
Y333535D02*
Y389272D01*
X263427Y61943D02*
X272057Y70573D01*
X279573Y63057D01*
X270943Y54427D02*
X279573Y63057D01*
X263427Y61943D02*
X270943Y54427D01*
D15*
X140429Y359161D02*
X253421D01*
X255390Y357193D01*
Y341524D02*
Y357193D01*
X253421Y339555D02*
X255390Y341524D01*
X140429Y339555D02*
X253421D01*
X138461Y341524D02*
X140429Y339555D01*
X138461Y341524D02*
Y357193D01*
X140429Y359161D01*
X196925Y347390D02*
Y351327D01*
X194957Y349358D02*
X198894D01*
X140429Y13965D02*
X253421D01*
X255390Y15933D01*
Y31602D01*
X253421Y33571D02*
X255390Y31602D01*
X140429Y33571D02*
X253421D01*
X138461Y31602D02*
X140429Y33571D01*
X138461Y15933D02*
Y31602D01*
Y15933D02*
X140429Y13965D01*
X196925Y21799D02*
Y25736D01*
X194957Y23768D02*
X198894D01*
X140429Y33571D02*
X253421D01*
X255390Y31602D01*
Y15933D02*
Y31602D01*
X253421Y13965D02*
X255390Y15933D01*
X140429Y13965D02*
X253421D01*
X138461Y15933D02*
X140429Y13965D01*
X138461Y15933D02*
Y31602D01*
X140429Y33571D01*
X196925Y21799D02*
Y25736D01*
X194957Y23768D02*
X198894D01*
D16*
X149957Y365815D02*
X148645D01*
X149301D01*
Y361879D01*
X149957Y362535D01*
X147333Y336327D02*
X149957D01*
X147333Y333703D01*
Y333047D01*
X147989Y332391D01*
X149301D01*
X149957Y333047D01*
Y7311D02*
X148645D01*
X149301D01*
Y11247D01*
X149957Y10591D01*
X147333Y36799D02*
X149957D01*
X147333Y39423D01*
Y40079D01*
X147989Y40735D01*
X149301D01*
X149957Y40079D01*
Y40224D02*
X148645D01*
X149301D01*
Y36289D01*
X149957Y36945D01*
X147333Y10736D02*
X149957D01*
X147333Y8112D01*
Y7456D01*
X147989Y6801D01*
X149301D01*
X149957Y7456D01*
D84*
X323000Y345532D02*
Y349468D01*
X321031Y347500D02*
X324969D01*
X349220Y346882D02*
Y350819D01*
X347252Y348850D02*
X351189D01*
X372500Y349031D02*
Y352969D01*
X370532Y351000D02*
X374468D01*
X368032Y169000D02*
X371969D01*
X370000Y167032D02*
Y170968D01*
X333917Y350000D02*
X336083D01*
X335000Y348917D02*
Y351083D01*
X376047Y184500D02*
X378213D01*
X377130Y183417D02*
Y185583D01*
X376000Y56032D02*
Y59969D01*
X374031Y58000D02*
X377969D01*
X313531Y52500D02*
X317469D01*
X315500Y50532D02*
Y54469D01*
X238531Y54000D02*
X242469D01*
X240500Y52031D02*
Y55968D01*
X367531Y278500D02*
X371468D01*
X369500Y276532D02*
Y280469D01*
X368531Y102500D02*
X372468D01*
X370500Y100531D02*
Y104469D01*
X372500Y205532D02*
Y209469D01*
X370532Y207500D02*
X374468D01*
X372000Y130032D02*
Y133968D01*
X370031Y132000D02*
X373969D01*
X369500Y306532D02*
Y310469D01*
X367531Y308500D02*
X371468D01*
X372000Y243032D02*
Y246969D01*
X370031Y245000D02*
X373969D01*
X334531Y375000D02*
X338469D01*
X336500Y373031D02*
Y376969D01*
X146917Y374000D02*
X149083D01*
X148000Y372917D02*
Y375083D01*
X187047Y374500D02*
X189213D01*
X188130Y373417D02*
Y375583D01*
X228047Y375000D02*
X230213D01*
X229130Y373917D02*
Y376083D01*
X362500Y336287D02*
Y338453D01*
X361417Y337370D02*
X363583D01*
X358000Y336287D02*
Y338453D01*
X356917Y337370D02*
X359083D01*
X358500Y346287D02*
Y348453D01*
X357417Y347370D02*
X359583D01*
X338500Y336417D02*
Y338583D01*
X337417Y337500D02*
X339583D01*
X334500Y336417D02*
Y338583D01*
X333417Y337500D02*
X335583D01*
X226917Y92000D02*
X229083D01*
X228000Y90917D02*
Y93083D01*
X155547Y92000D02*
X157713D01*
X156630Y90917D02*
Y93083D01*
X110047Y15000D02*
X112213D01*
X111130Y13917D02*
Y16083D01*
X155047Y48500D02*
X157213D01*
X156130Y47417D02*
Y49583D01*
X36917Y36000D02*
X39083D01*
X38000Y34917D02*
Y37083D01*
X80417Y15000D02*
X82583D01*
X81500Y13917D02*
Y16083D01*
X34917Y79500D02*
X37083D01*
X36000Y78417D02*
Y80583D01*
X365917Y189000D02*
X368083D01*
X367000Y187917D02*
Y190083D01*
X378417Y289000D02*
X380583D01*
X379500Y287917D02*
Y290083D01*
X367000Y89547D02*
Y91713D01*
X365917Y90630D02*
X368083D01*
X366047Y184500D02*
X368213D01*
X367130Y183417D02*
Y185583D01*
X360787Y289000D02*
X362953D01*
X361870Y287917D02*
Y290083D01*
X371500Y89547D02*
Y91713D01*
X370417Y90630D02*
X372583D01*
X369547Y289000D02*
X371713D01*
X370630Y287917D02*
Y290083D01*
X370417Y151000D02*
X372583D01*
X371500Y149917D02*
Y152083D01*
X369917Y331500D02*
X372083D01*
X371000Y330417D02*
Y332583D01*
X381500Y110287D02*
Y112453D01*
X380417Y111370D02*
X382583D01*
X375917Y188500D02*
X378083D01*
X377000Y187417D02*
Y189583D01*
X361417Y270000D02*
X363583D01*
X362500Y268917D02*
Y271083D01*
X369917Y328000D02*
X372083D01*
X371000Y326917D02*
Y329083D01*
X378417Y151000D02*
X380583D01*
X379500Y149917D02*
Y152083D01*
X381500Y101547D02*
Y103713D01*
X380417Y102630D02*
X382583D01*
X371547Y113000D02*
X373713D01*
X372630Y111917D02*
Y114083D01*
X379228Y89043D02*
X382772D01*
X381000Y87272D02*
Y90815D01*
X332047Y356000D02*
X334213D01*
X333130Y354917D02*
Y357083D01*
X332047Y360000D02*
X334213D01*
X333130Y358917D02*
Y361083D01*
X333917Y345500D02*
X336083D01*
X335000Y344417D02*
Y346583D01*
X353500Y68488D02*
Y70653D01*
X352417Y69571D02*
X354583D01*
X353500Y77346D02*
Y79512D01*
X352417Y78429D02*
X354583D01*
X317917Y89500D02*
X320083D01*
X319000Y88417D02*
Y90583D01*
X279000Y72988D02*
Y75153D01*
X277917Y74071D02*
X280083D01*
X311488Y14500D02*
X313653D01*
X312571Y13417D02*
Y15583D01*
X354000Y37846D02*
Y40012D01*
X352917Y38929D02*
X355083D01*
X314000Y340846D02*
Y343012D01*
X312917Y341929D02*
X315083D01*
X229417Y67500D02*
X231583D01*
X230500Y66417D02*
Y68583D01*
X274500Y75547D02*
Y77713D01*
X273417Y76630D02*
X275583D01*
X377847Y177000D02*
X380012D01*
X378929Y175917D02*
Y178083D01*
X366787Y76500D02*
X368953D01*
X367870Y75417D02*
Y77583D01*
X369000Y37417D02*
Y39583D01*
X367917Y38500D02*
X370083D01*
X377390Y77000D02*
X381327D01*
X379358Y75032D02*
Y78969D01*
X380000Y341347D02*
Y343512D01*
X378917Y342429D02*
X381083D01*
X363047Y263500D02*
X365213D01*
X364130Y262417D02*
Y264583D01*
X375847Y227000D02*
X378012D01*
X376929Y225917D02*
Y228083D01*
X374673Y266000D02*
X378610D01*
X376642Y264032D02*
Y267969D01*
X270108Y61108D02*
X272892Y63892D01*
X270108D02*
X272892Y61108D01*
X266910Y74000D02*
X269075D01*
X267992Y72917D02*
Y75083D01*
X266409Y51500D02*
X268575D01*
X267492Y50417D02*
Y52583D01*
X314917Y382500D02*
X317083D01*
X316000Y381417D02*
Y383583D01*
X315047Y377500D02*
X317213D01*
X316130Y376417D02*
Y378583D01*
X314917Y367500D02*
X317083D01*
X316000Y366417D02*
Y368583D01*
X356047Y367500D02*
X358213D01*
X357130Y366417D02*
Y368583D01*
D86*
X314929Y361673D02*
X331071D01*
X314929Y333327D02*
X331071D01*
Y361673D01*
X314929Y333327D02*
Y361673D01*
X341937Y336350D02*
X356504D01*
X341937Y361350D02*
X356504D01*
X341937Y336350D02*
Y361350D01*
X356504Y336350D02*
Y361350D01*
X365610Y363303D02*
X379390D01*
X365610Y338697D02*
X379390D01*
Y363303D01*
X365610Y338697D02*
Y363303D01*
X357697Y162110D02*
Y175890D01*
X382303Y162110D02*
Y175890D01*
X357697D02*
X382303D01*
X357697Y162110D02*
X382303D01*
X330866Y347835D02*
Y352165D01*
X339134Y347835D02*
Y352165D01*
X330866D02*
X339134D01*
X330866Y347835D02*
X339134D01*
X381264Y182335D02*
Y186665D01*
X372996Y182335D02*
Y186665D01*
Y182335D02*
X381264D01*
X372996Y186665D02*
X381264D01*
X364386Y41760D02*
X387614D01*
X364386Y74240D02*
X387614D01*
X364386Y41760D02*
Y74240D01*
X387614Y41760D02*
Y74240D01*
X279476Y16476D02*
Y88524D01*
X351524Y16476D02*
Y88524D01*
X279476Y16476D02*
X351524D01*
X279476Y88524D02*
X351524D01*
X257626Y41992D02*
Y66008D01*
X223374Y41992D02*
Y66008D01*
Y41992D02*
X257626D01*
X223374Y66008D02*
X257626D01*
X360150Y270626D02*
Y286374D01*
X378850Y270626D02*
Y286374D01*
X360150D02*
X378850D01*
X360150Y270626D02*
X378850D01*
X379850Y94626D02*
Y110374D01*
X361150Y94626D02*
Y110374D01*
Y94626D02*
X379850D01*
X361150Y110374D02*
X379850D01*
X360689Y191161D02*
X384311D01*
X360689Y223839D02*
X384311D01*
X360689Y191161D02*
Y223839D01*
X384311Y191161D02*
Y223839D01*
X360386Y115760D02*
X383614D01*
X360386Y148240D02*
X383614D01*
X360386Y115760D02*
Y148240D01*
X383614Y115760D02*
Y148240D01*
X357886Y324740D02*
X381114D01*
X357886Y292260D02*
X381114D01*
Y324740D01*
X357886Y292260D02*
Y324740D01*
X360386Y228760D02*
X383614D01*
X360386Y261240D02*
X383614D01*
X360386Y228760D02*
Y261240D01*
X383614Y228760D02*
Y261240D01*
X320260Y363189D02*
Y386811D01*
X352740Y363189D02*
Y386811D01*
X320260D02*
X352740D01*
X320260Y363189D02*
X352740D01*
X156490Y372925D02*
Y375130D01*
X155415Y374000D02*
X157620D01*
X159640Y372327D02*
Y375673D01*
X153340D02*
X159640D01*
X153340Y372327D02*
Y375673D01*
Y372327D02*
X159640D01*
X143866Y371835D02*
Y376165D01*
X152134Y371835D02*
Y376165D01*
X143866D02*
X152134D01*
X143866Y371835D02*
X152134D01*
X197228Y373425D02*
Y375630D01*
X196154Y374500D02*
X198358D01*
X200378Y372827D02*
Y376173D01*
X194079D02*
X200378D01*
X194079Y372827D02*
Y376173D01*
Y372827D02*
X200378D01*
X183996Y372335D02*
Y376665D01*
X192264Y372335D02*
Y376665D01*
X183996D02*
X192264D01*
X183996Y372335D02*
X192264D01*
X237728Y373925D02*
Y376130D01*
X236654Y375000D02*
X238858D01*
X240878Y373327D02*
Y376673D01*
X234579D02*
X240878D01*
X234579Y373327D02*
Y376673D01*
Y373327D02*
X240878D01*
X224996Y372835D02*
Y377165D01*
X233264Y372835D02*
Y377165D01*
X224996D02*
X233264D01*
X224996Y372835D02*
X233264D01*
X360335Y333236D02*
X364665D01*
X360335Y341504D02*
X364665D01*
X360335Y333236D02*
Y341504D01*
X364665Y333236D02*
Y341504D01*
X355835D02*
X360165D01*
X355835Y333236D02*
X360165D01*
Y341504D01*
X355835Y333236D02*
Y341504D01*
X356335Y351504D02*
X360665D01*
X356335Y343236D02*
X360665D01*
Y351504D01*
X356335Y343236D02*
Y351504D01*
X336335Y333366D02*
X340665D01*
X336335Y341634D02*
X340665D01*
X336335Y333366D02*
Y341634D01*
X340665Y333366D02*
Y341634D01*
X332335D02*
X336665D01*
X332335Y333366D02*
X336665D01*
Y341634D01*
X332335Y333366D02*
Y341634D01*
X219772Y90870D02*
Y93075D01*
X218642Y92000D02*
X220846D01*
X216622Y90327D02*
Y93673D01*
Y90327D02*
X222921D01*
Y93673D01*
X216622D02*
X222921D01*
X148272Y90870D02*
Y93075D01*
X147142Y92000D02*
X149346D01*
X145122Y90327D02*
Y93673D01*
Y90327D02*
X151421D01*
Y93673D01*
X145122D02*
X151421D01*
X103228Y13870D02*
Y16075D01*
X102098Y15000D02*
X104303D01*
X100079Y13327D02*
Y16673D01*
Y13327D02*
X106378D01*
Y16673D01*
X100079D02*
X106378D01*
X232134Y89835D02*
Y94165D01*
X223866Y89835D02*
Y94165D01*
Y89835D02*
X232134D01*
X223866Y94165D02*
X232134D01*
X160764Y89835D02*
Y94165D01*
X152496Y89835D02*
Y94165D01*
Y89835D02*
X160764D01*
X152496Y94165D02*
X160764D01*
X115264Y12835D02*
Y17165D01*
X106996Y12835D02*
Y17165D01*
Y12835D02*
X115264D01*
X106996Y17165D02*
X115264D01*
X147728Y47370D02*
Y49575D01*
X146598Y48500D02*
X148803D01*
X144579Y46827D02*
Y50173D01*
Y46827D02*
X150878D01*
Y50173D01*
X144579D02*
X150878D01*
X29728Y34870D02*
Y37075D01*
X28598Y36000D02*
X30803D01*
X26579Y34327D02*
Y37673D01*
Y34327D02*
X32878D01*
Y37673D01*
X26579D02*
X32878D01*
X73228Y13870D02*
Y16075D01*
X72098Y15000D02*
X74303D01*
X70079Y13327D02*
Y16673D01*
Y13327D02*
X76378D01*
Y16673D01*
X70079D02*
X76378D01*
X160264Y46335D02*
Y50665D01*
X151996Y46335D02*
Y50665D01*
Y46335D02*
X160264D01*
X151996Y50665D02*
X160264D01*
X42134Y33835D02*
Y38165D01*
X33866Y33835D02*
Y38165D01*
Y33835D02*
X42134D01*
X33866Y38165D02*
X42134D01*
X85634Y12835D02*
Y17165D01*
X77366Y12835D02*
Y17165D01*
Y12835D02*
X85634D01*
X77366Y17165D02*
X85634D01*
X28228Y78370D02*
Y80575D01*
X27098Y79500D02*
X29303D01*
X25079Y77827D02*
Y81173D01*
Y77827D02*
X31378D01*
Y81173D01*
X25079D02*
X31378D01*
X40134Y77335D02*
Y81665D01*
X31866Y77335D02*
Y81665D01*
Y77335D02*
X40134D01*
X31866Y81665D02*
X40134D01*
X371134Y186835D02*
Y191165D01*
X362866Y186835D02*
Y191165D01*
Y186835D02*
X371134D01*
X362866Y191165D02*
X371134D01*
X375366Y286835D02*
Y291165D01*
X383634Y286835D02*
Y291165D01*
X375366D02*
X383634D01*
X375366Y286835D02*
X383634D01*
X364835Y86496D02*
X369165D01*
X364835Y94764D02*
X369165D01*
X364835Y86496D02*
Y94764D01*
X369165Y86496D02*
Y94764D01*
X362996Y182335D02*
Y186665D01*
X371264Y182335D02*
Y186665D01*
X362996D02*
X371264D01*
X362996Y182335D02*
X371264D01*
X366004Y286835D02*
Y291165D01*
X357736Y286835D02*
Y291165D01*
Y286835D02*
X366004D01*
X357736Y291165D02*
X366004D01*
X369335Y94764D02*
X373665D01*
X369335Y86496D02*
X373665D01*
Y94764D01*
X369335Y86496D02*
Y94764D01*
X366496Y286835D02*
Y291165D01*
X374764Y286835D02*
Y291165D01*
X366496D02*
X374764D01*
X366496Y286835D02*
X374764D01*
X375634Y148835D02*
Y153165D01*
X367366Y148835D02*
Y153165D01*
Y148835D02*
X375634D01*
X367366Y153165D02*
X375634D01*
X375134Y329335D02*
Y333665D01*
X366866Y329335D02*
Y333665D01*
Y329335D02*
X375134D01*
X366866Y333665D02*
X375134D01*
X379335Y115504D02*
X383665D01*
X379335Y107236D02*
X383665D01*
Y115504D01*
X379335Y107236D02*
Y115504D01*
X381134Y186335D02*
Y190665D01*
X372866Y186335D02*
Y190665D01*
Y186335D02*
X381134D01*
X372866Y190665D02*
X381134D01*
X358366Y267835D02*
Y272165D01*
X366634Y267835D02*
Y272165D01*
X358366D02*
X366634D01*
X358366Y267835D02*
X366634D01*
X375134Y325835D02*
Y330165D01*
X366866Y325835D02*
Y330165D01*
Y325835D02*
X375134D01*
X366866Y330165D02*
X375134D01*
X383634Y148835D02*
Y153165D01*
X375366Y148835D02*
Y153165D01*
Y148835D02*
X383634D01*
X375366Y153165D02*
X383634D01*
X379335Y98496D02*
X383665D01*
X379335Y106764D02*
X383665D01*
X379335Y98496D02*
Y106764D01*
X383665Y98496D02*
Y106764D01*
X368496Y110835D02*
Y115165D01*
X376764Y110835D02*
Y115165D01*
X368496D02*
X376764D01*
X368496Y110835D02*
X376764D01*
X384937Y81563D02*
Y96524D01*
X377063Y81563D02*
Y96524D01*
X384937D01*
X377063Y81563D02*
X384937D01*
X328996Y353835D02*
Y358165D01*
X337264Y353835D02*
Y358165D01*
X328996D02*
X337264D01*
X328996Y353835D02*
X337264D01*
X328996Y357835D02*
Y362165D01*
X337264Y357835D02*
Y362165D01*
X328996D02*
X337264D01*
X328996Y357835D02*
X337264D01*
X330866Y343335D02*
Y347665D01*
X339134Y343335D02*
Y347665D01*
X330866D02*
X339134D01*
X330866Y343335D02*
X339134D01*
X351138Y65240D02*
X355862D01*
X351138Y73902D02*
X355862D01*
X351138Y65240D02*
Y73902D01*
X355862Y65240D02*
Y73902D01*
X351138Y82760D02*
X355862D01*
X351138Y74098D02*
X355862D01*
Y82760D01*
X351138Y74098D02*
Y82760D01*
X314669Y87138D02*
Y91862D01*
X323331Y87138D02*
Y91862D01*
X314669D02*
X323331D01*
X314669Y87138D02*
X323331D01*
X276638Y78402D02*
X281362D01*
X276638Y69740D02*
X281362D01*
Y78402D01*
X276638Y69740D02*
Y78402D01*
X316902Y12138D02*
Y16862D01*
X308240Y12138D02*
Y16862D01*
Y12138D02*
X316902D01*
X308240Y16862D02*
X316902D01*
X351638Y43260D02*
X356362D01*
X351638Y34598D02*
X356362D01*
Y43260D01*
X351638Y34598D02*
Y43260D01*
X311638Y337598D02*
X316362D01*
X311638Y346260D02*
X316362D01*
X311638Y337598D02*
Y346260D01*
X316362Y337598D02*
Y346260D01*
X234831Y65138D02*
Y69862D01*
X226169Y65138D02*
Y69862D01*
Y65138D02*
X234831D01*
X226169Y69862D02*
X234831D01*
X272335Y72496D02*
X276665D01*
X272335Y80764D02*
X276665D01*
X272335Y72496D02*
Y80764D01*
X276665Y72496D02*
Y80764D01*
X383260Y174638D02*
Y179362D01*
X374598Y174638D02*
Y179362D01*
Y174638D02*
X383260D01*
X374598Y179362D02*
X383260D01*
X372004Y74335D02*
Y78665D01*
X363736Y74335D02*
Y78665D01*
Y74335D02*
X372004D01*
X363736Y78665D02*
X372004D01*
X366638Y34169D02*
X371362D01*
X366638Y42831D02*
X371362D01*
X366638Y34169D02*
Y42831D01*
X371362Y34169D02*
Y42831D01*
X387823Y72079D02*
Y81921D01*
X370894Y72079D02*
Y81921D01*
Y72079D02*
X387823D01*
X370894Y81921D02*
X387823D01*
X377638Y346760D02*
X382362D01*
X377638Y338098D02*
X382362D01*
Y346760D01*
X377638Y338098D02*
Y346760D01*
X368264Y261335D02*
Y265665D01*
X359996Y261335D02*
Y265665D01*
Y261335D02*
X368264D01*
X359996Y265665D02*
X368264D01*
X381260Y224638D02*
Y229362D01*
X372598Y224638D02*
Y229362D01*
Y224638D02*
X381260D01*
X372598Y229362D02*
X381260D01*
X385106Y261079D02*
Y270921D01*
X368177Y261079D02*
Y270921D01*
Y261079D02*
X385106D01*
X368177Y270921D02*
X385106D01*
X263661Y71638D02*
Y76362D01*
X272323Y71638D02*
Y76362D01*
X263661D02*
X272323D01*
X263661Y71638D02*
X272323D01*
X263161Y49138D02*
Y53862D01*
X271823Y49138D02*
Y53862D01*
X263161D02*
X271823D01*
X263161Y49138D02*
X271823D01*
X311866Y380335D02*
Y384665D01*
X320134Y380335D02*
Y384665D01*
X311866D02*
X320134D01*
X311866Y380335D02*
X320134D01*
X320264Y375335D02*
Y379665D01*
X311996Y375335D02*
Y379665D01*
Y375335D02*
X320264D01*
X311996Y379665D02*
X320264D01*
X320134Y365335D02*
Y369665D01*
X311866Y365335D02*
Y369665D01*
Y365335D02*
X320134D01*
X311866Y369665D02*
X320134D01*
X352996Y365335D02*
Y369665D01*
X361264Y365335D02*
Y369665D01*
X352996D02*
X361264D01*
X352996Y365335D02*
X361264D01*
D87*
X231000Y79622D02*
Y82378D01*
X229622Y81000D02*
X232378D01*
X199500Y72500D02*
X261500D01*
Y89500D01*
X199500D02*
X261500D01*
X199500Y72500D02*
Y89500D01*
X192000Y72500D02*
Y89500D01*
X130000Y72500D02*
X192000D01*
X130000D02*
Y89500D01*
X192000D01*
X159122Y81000D02*
X161878D01*
X160500Y79622D02*
Y82378D01*
X130000Y51500D02*
Y68500D01*
X192000D01*
Y51500D02*
Y68500D01*
X130000Y51500D02*
X192000D01*
X160122Y60000D02*
X162878D01*
X161500Y58622D02*
Y61378D01*
X97413Y98961D02*
X121587D01*
Y19039D02*
Y98961D01*
X97413Y19039D02*
X121587D01*
X97413D02*
Y98961D01*
X109500Y57622D02*
Y60378D01*
X108122Y59000D02*
X110878D01*
X69913Y98961D02*
X94087D01*
Y19039D02*
Y98961D01*
X69913Y19039D02*
X94087D01*
X69913D02*
Y98961D01*
X82000Y57622D02*
Y60378D01*
X80622Y59000D02*
X83378D01*
X67000D02*
Y76000D01*
X5000Y59000D02*
X67000D01*
X5000D02*
Y76000D01*
X67000D01*
X34122Y67500D02*
X36878D01*
X35500Y66122D02*
Y68878D01*
X67000Y39500D02*
Y56500D01*
X5000Y39500D02*
X67000D01*
X5000D02*
Y56500D01*
X67000D01*
X34122Y48000D02*
X36878D01*
X35500Y46622D02*
Y49378D01*
M02*
