G04*
G04 #@! TF.GenerationSoftware,Altium Limited,Altium Designer,20.0.13 (296)*
G04*
G04 Layer_Color=65535*
%FSLAX25Y25*%
%MOIN*%
G70*
G01*
G75*
%ADD10C,0.00984*%
%ADD11C,0.02362*%
%ADD12C,0.01575*%
%ADD13C,0.00394*%
%ADD14C,0.00787*%
%ADD15C,0.00500*%
%ADD16C,0.01000*%
G36*
X132891Y369245D02*
X133183Y369135D01*
X133511Y368953D01*
X133548Y368917D01*
X133621Y368844D01*
X133730Y368735D01*
X133876Y368552D01*
X134021Y368370D01*
X134131Y368115D01*
X134204Y367860D01*
X134240Y367568D01*
Y367532D01*
Y367459D01*
X134204Y367277D01*
X134131Y367058D01*
X134021Y366766D01*
X133839Y366402D01*
X133621Y366001D01*
X133329Y365491D01*
X128372D01*
Y369281D01*
X132673D01*
X132891Y369245D01*
D02*
G37*
G36*
X126914Y367459D02*
X125273Y365491D01*
X125091Y365819D01*
X124800D01*
X124654Y365855D01*
X123925D01*
X123560Y365891D01*
X122321D01*
X121774Y365928D01*
X119915D01*
X119952Y366001D01*
X119988Y366110D01*
X120025Y366256D01*
X120134Y366475D01*
X120243Y366730D01*
X120425Y367058D01*
X120608Y367459D01*
Y367495D01*
X120644Y367568D01*
X120717Y367677D01*
X120790Y367823D01*
X120972Y368151D01*
X121118Y368479D01*
Y368516D01*
X121191Y368589D01*
X121264Y368662D01*
X121373Y368808D01*
X121555Y368917D01*
X121738Y369063D01*
X121993Y369172D01*
X122284Y369245D01*
X122394D01*
X122503Y369281D01*
X125128D01*
X125237Y369318D01*
X125565Y369500D01*
X126914Y367459D01*
D02*
G37*
G36*
X134641Y367204D02*
X134678Y367131D01*
X134787Y367021D01*
X134896Y366839D01*
X135042Y366657D01*
X135224Y366402D01*
X135589Y365855D01*
X135625Y365782D01*
X135734Y365636D01*
X135880Y365381D01*
X136026Y365053D01*
X136208Y364725D01*
X136354Y364397D01*
X136464Y364105D01*
X136500Y363850D01*
Y363777D01*
X136464Y363704D01*
X136427Y363559D01*
X136354Y363376D01*
X136245Y363158D01*
X136099Y362866D01*
X135917Y362538D01*
X135880Y362502D01*
X135807Y362356D01*
X135698Y362137D01*
X135552Y361882D01*
X135261Y361408D01*
X135151Y361189D01*
X135078Y361044D01*
Y360606D01*
X132527Y360460D01*
X131579Y362793D01*
X131944D01*
X131980Y362830D01*
X132053Y362939D01*
X132126Y363085D01*
X132235Y363267D01*
X132491Y363668D01*
X132600Y363814D01*
X132673Y363960D01*
Y363996D01*
X132709Y364033D01*
X132782Y364142D01*
X132891Y364288D01*
X133110Y364652D01*
X133365Y365126D01*
X133693Y365636D01*
X134021Y366183D01*
X134313Y366730D01*
X134605Y367240D01*
X134641Y367204D01*
D02*
G37*
G36*
X121337Y365600D02*
X121993D01*
X124399Y361189D01*
X121227Y359403D01*
X119186Y363303D01*
Y363340D01*
X119150Y363376D01*
X119004Y363595D01*
X118895Y363850D01*
X118858Y364069D01*
Y364105D01*
X118895Y364251D01*
X118968Y364470D01*
X119113Y364798D01*
Y364834D01*
X119186Y364944D01*
X119296Y365053D01*
X119441Y365199D01*
X119660Y365381D01*
X119952Y365491D01*
X120316Y365600D01*
X120754Y365636D01*
X121082D01*
X121337Y365600D01*
D02*
G37*
G36*
X133329Y357945D02*
X130850Y354446D01*
X130814Y354410D01*
X130777Y354337D01*
X130668Y354227D01*
X130522Y354082D01*
X130304Y353972D01*
X130048Y353863D01*
X129757Y353790D01*
X129429Y353754D01*
X129283D01*
X129137Y353790D01*
X128955Y353826D01*
X128736Y353936D01*
X128517Y354045D01*
X128299Y354227D01*
X128080Y354446D01*
X128044Y354519D01*
X127971Y354628D01*
X127898Y354774D01*
X127788Y354956D01*
X127679Y355212D01*
X127570Y355503D01*
X127424Y355868D01*
X130158Y359950D01*
X133329Y357945D01*
D02*
G37*
G36*
X126075Y358820D02*
X125893Y358528D01*
X128080Y353754D01*
X125237D01*
X125091Y353826D01*
X124909Y353863D01*
X124654Y353972D01*
X124435Y354082D01*
X124216Y354191D01*
X124071Y354337D01*
X123961Y354483D01*
X123925Y354556D01*
X123815Y354738D01*
X123670Y354993D01*
X123451Y355357D01*
X123269Y355758D01*
X123050Y356159D01*
X122831Y356597D01*
X122649Y356998D01*
X122321Y357180D01*
X123524Y359403D01*
X126075Y358820D01*
D02*
G37*
G36*
X117035Y367978D02*
X117188Y367934D01*
X117385Y367891D01*
X117581Y367803D01*
X117778Y367694D01*
X117975Y367541D01*
X117997Y367519D01*
X118041Y367475D01*
X118150Y367366D01*
X118172Y367344D01*
X118194Y367300D01*
X118281Y367147D01*
X118303Y367125D01*
X118325Y367060D01*
X118369Y366950D01*
X118434Y366797D01*
X118478Y366622D01*
X118500Y366425D01*
Y366207D01*
X118478Y365966D01*
Y365944D01*
X118456Y365879D01*
X118434Y365791D01*
X118412Y365725D01*
Y365704D01*
X118391Y365660D01*
X118347Y365594D01*
X118303Y365507D01*
Y365485D01*
Y365463D01*
X118281D01*
X111698Y354047D01*
Y354025D01*
X111655Y353981D01*
X111567Y353850D01*
X111392Y353653D01*
X111195Y353478D01*
X111152Y353456D01*
X111064Y353413D01*
X111042Y353391D01*
X110999Y353369D01*
X110911Y353325D01*
X110824Y353281D01*
X110692Y353238D01*
X110539Y353216D01*
X110386Y353172D01*
X110102D01*
X109971Y353194D01*
X109818Y353238D01*
X109643Y353281D01*
X109446Y353369D01*
X109271Y353478D01*
X109074Y353631D01*
X109052Y353653D01*
X109008Y353697D01*
X108899Y353806D01*
X108877Y353828D01*
X108855Y353872D01*
X108768Y354003D01*
X102163Y365441D01*
X102141Y365463D01*
X102119Y365529D01*
X102076Y365660D01*
X102010Y365813D01*
X101966Y365988D01*
X101944Y366207D01*
Y366425D01*
X101966Y366666D01*
Y366688D01*
X101988Y366732D01*
X102010Y366819D01*
X102032Y366906D01*
Y366928D01*
X102054Y366972D01*
X102097Y367038D01*
X102141Y367147D01*
X102163D01*
X102185Y367169D01*
X102229Y367234D01*
X102294Y367344D01*
X102404Y367453D01*
X102535Y367584D01*
X102688Y367716D01*
X102885Y367825D01*
X103103Y367913D01*
X103125D01*
X103191Y367934D01*
X103279Y367956D01*
X103366D01*
X103388Y367978D01*
X103475D01*
X103585Y368000D01*
X116903D01*
X117035Y367978D01*
D02*
G37*
G36*
X58500Y84252D02*
X57304D01*
Y100000D01*
X58500D01*
Y84252D01*
D02*
G37*
G36*
X56706D02*
X56108D01*
Y100000D01*
X56706D01*
Y84252D01*
D02*
G37*
G36*
X53716D02*
X53118D01*
Y100000D01*
X53716D01*
Y84252D01*
D02*
G37*
G36*
X51922D02*
X50128D01*
Y100000D01*
X51922D01*
Y84252D01*
D02*
G37*
G36*
X49530D02*
X48932D01*
Y100000D01*
X49530D01*
Y84252D01*
D02*
G37*
G36*
X48333D02*
X47137D01*
Y100000D01*
X48333D01*
Y84252D01*
D02*
G37*
G36*
X45343D02*
X44745D01*
Y100000D01*
X45343D01*
Y84252D01*
D02*
G37*
G36*
X42951D02*
X42353D01*
Y100000D01*
X42951D01*
Y84252D01*
D02*
G37*
G36*
X40559D02*
X39363D01*
Y100000D01*
X40559D01*
Y84252D01*
D02*
G37*
G36*
X38765D02*
X37569D01*
Y100000D01*
X38765D01*
Y84252D01*
D02*
G37*
G36*
X36971D02*
X35177D01*
Y100000D01*
X36971D01*
Y84252D01*
D02*
G37*
G36*
X33383D02*
X32785D01*
Y100000D01*
X33383D01*
Y84252D01*
D02*
G37*
G36*
X32187D02*
X31589D01*
Y100000D01*
X32187D01*
Y84252D01*
D02*
G37*
G36*
X29795D02*
X29197D01*
Y100000D01*
X29795D01*
Y84252D01*
D02*
G37*
G36*
X28598D02*
X27402D01*
Y100000D01*
X28598D01*
Y84252D01*
D02*
G37*
G36*
X25608D02*
X25010D01*
Y100000D01*
X25608D01*
Y84252D01*
D02*
G37*
G36*
X23814D02*
X23216D01*
Y100000D01*
X23814D01*
Y84252D01*
D02*
G37*
G36*
X21422D02*
X20226D01*
Y100000D01*
X21422D01*
Y84252D01*
D02*
G37*
G36*
X19030D02*
X17834D01*
Y100000D01*
X19030D01*
Y84252D01*
D02*
G37*
G36*
X16040D02*
X14246D01*
Y100000D01*
X16040D01*
Y84252D01*
D02*
G37*
G36*
X13648D02*
X13050D01*
Y100000D01*
X13648D01*
Y84252D01*
D02*
G37*
G36*
X12452D02*
X11256D01*
Y100000D01*
X12452D01*
Y84252D01*
D02*
G37*
G36*
X205713Y71934D02*
Y71891D01*
Y71803D01*
Y71694D01*
Y71541D01*
Y71519D01*
Y71453D01*
Y71366D01*
Y71235D01*
Y71082D01*
Y70907D01*
Y70513D01*
Y70491D01*
Y70425D01*
Y70316D01*
Y70163D01*
Y69835D01*
Y69485D01*
Y69463D01*
Y69419D01*
Y69332D01*
Y69244D01*
Y69157D01*
Y69069D01*
Y69026D01*
Y69004D01*
X193750D01*
Y69026D01*
Y69069D01*
Y69113D01*
Y69201D01*
Y69332D01*
Y69485D01*
Y69507D01*
Y69572D01*
Y69660D01*
Y69791D01*
Y69944D01*
Y70119D01*
Y70513D01*
Y70535D01*
Y70600D01*
Y70710D01*
Y70863D01*
Y71191D01*
Y71541D01*
Y71563D01*
Y71606D01*
Y71759D01*
Y71934D01*
Y71978D01*
Y72000D01*
X205713D01*
Y71934D01*
D02*
G37*
G36*
X206238Y65745D02*
X202279Y61655D01*
X202454Y59840D01*
X202695Y57325D01*
X202804Y56275D01*
X206500Y52426D01*
X206238Y52164D01*
X202848Y55685D01*
X202935Y54832D01*
X203504D01*
Y54154D01*
X202979D01*
X203001Y54001D01*
X202957Y53913D01*
X202913Y53848D01*
X202826Y53760D01*
X202695Y53651D01*
X202563Y53564D01*
X202410Y53476D01*
X202257Y53411D01*
X202148Y53345D01*
Y52929D01*
X201251D01*
Y53104D01*
X200967Y53061D01*
X200683Y53017D01*
X200420Y52995D01*
X200245D01*
Y52711D01*
X198146D01*
Y53039D01*
X197883Y53061D01*
X197555Y53126D01*
X197249Y53192D01*
X196943Y53279D01*
X196659Y53389D01*
X196462Y53476D01*
X196309Y53585D01*
X196199Y53673D01*
X196156Y53607D01*
X196046Y53542D01*
X195915Y53498D01*
X195762Y53476D01*
X195609Y53498D01*
X195456Y53564D01*
X195346Y53651D01*
X195259Y53804D01*
X195215Y53892D01*
X195193Y54023D01*
X195215Y54132D01*
X195237Y54220D01*
X195281Y54329D01*
X195346Y54395D01*
X195412Y54460D01*
X195477Y54504D01*
X195521Y54548D01*
Y54745D01*
X193028Y52164D01*
X192744Y52426D01*
X195412Y55160D01*
X195128D01*
Y56625D01*
X196177D01*
X196374Y58922D01*
X196659Y62093D01*
X193159Y65723D01*
X193422Y66008D01*
X196702Y62618D01*
X196724Y62815D01*
X196571Y62880D01*
X196396Y62990D01*
X196243Y63143D01*
X196134Y63296D01*
X196046Y63471D01*
X195981Y63646D01*
X195937Y63821D01*
X195915Y64039D01*
X195937Y64236D01*
X196002Y64455D01*
X196112Y64695D01*
X196265Y64914D01*
X196418Y65067D01*
X196615Y65198D01*
X196855Y65286D01*
X197052Y65351D01*
X197315D01*
X197577Y65330D01*
X197861Y65242D01*
X198102Y65067D01*
X198277Y64870D01*
X198408Y64695D01*
X198496Y64521D01*
X201076D01*
Y65417D01*
X201907D01*
Y64521D01*
X202017D01*
X202235Y62180D01*
X205975Y66008D01*
X206238Y65745D01*
D02*
G37*
G36*
X208916Y65456D02*
X209091D01*
X209528Y65325D01*
X209965Y65063D01*
X210053Y64975D01*
X210184Y64756D01*
X210315Y64407D01*
X210403Y63925D01*
Y63882D01*
X209965D01*
Y63925D01*
Y63969D01*
X209922Y64188D01*
X209834Y64494D01*
X209616Y64756D01*
X209528Y64800D01*
X209353Y64931D01*
X209003Y65063D01*
X208610Y65106D01*
X208522D01*
X208303Y65063D01*
X208041Y64975D01*
X207735Y64844D01*
X207691Y64800D01*
X207560Y64669D01*
X207429Y64450D01*
X207385Y64144D01*
Y64057D01*
X207429Y63925D01*
X207472Y63707D01*
X207604Y63532D01*
X207647Y63488D01*
X207822Y63401D01*
X208128Y63269D01*
X208566Y63138D01*
X209003Y63007D01*
X209047D01*
X209134Y62963D01*
X209441Y62876D01*
X209790Y62744D01*
X209922Y62613D01*
X210053Y62526D01*
X210097Y62482D01*
X210184Y62307D01*
X210272Y62045D01*
X210315Y61695D01*
Y61651D01*
Y61607D01*
X210272Y61345D01*
X210140Y61082D01*
X209878Y60776D01*
X209834D01*
X209790Y60732D01*
X209572Y60557D01*
X209178Y60426D01*
X208741Y60382D01*
X208478D01*
X208303Y60426D01*
X207910Y60557D01*
X207560Y60820D01*
X207472Y60864D01*
X207341Y61082D01*
X207210Y61388D01*
X207122Y61870D01*
X207560D01*
Y61826D01*
Y61782D01*
X207604Y61607D01*
X207691Y61345D01*
X207866Y61082D01*
X207910Y61039D01*
X208085Y60951D01*
X208347Y60864D01*
X208741Y60820D01*
X209047D01*
X209309Y60907D01*
X209572Y60995D01*
X209616Y61039D01*
X209703Y61170D01*
X209790Y61432D01*
X209834Y61738D01*
Y61782D01*
X209790Y61913D01*
X209747Y62088D01*
X209659Y62263D01*
X209616Y62307D01*
X209484Y62351D01*
X209309Y62438D01*
X209047Y62526D01*
X208478Y62701D01*
X208435D01*
X208347Y62744D01*
X208216Y62788D01*
X208041Y62832D01*
X207647Y63007D01*
X207341Y63226D01*
X207297Y63313D01*
X207122Y63488D01*
X206991Y63750D01*
X206947Y64100D01*
Y64144D01*
Y64188D01*
X206991Y64450D01*
X207122Y64800D01*
X207385Y65106D01*
X207472Y65150D01*
X207691Y65281D01*
X208085Y65456D01*
X208610Y65500D01*
X208741D01*
X208916Y65456D01*
D02*
G37*
G36*
X223000Y60514D02*
X220769D01*
X220682Y60557D01*
X220551D01*
X220419Y60601D01*
X220288Y60645D01*
X220157Y60732D01*
X220113Y60776D01*
X219982Y60864D01*
X219851Y60995D01*
X219720Y61170D01*
X219676Y61213D01*
X219632Y61345D01*
X219588Y61520D01*
X219545Y61782D01*
Y61870D01*
X219588Y62045D01*
X219632Y62307D01*
X219763Y62569D01*
X219807Y62613D01*
X219938Y62744D01*
X220113Y62876D01*
X220332Y63007D01*
X220288D01*
X220157Y63051D01*
X219895Y63269D01*
Y63313D01*
X219851Y63444D01*
X219807Y63707D01*
X219763Y64100D01*
X219676Y64844D01*
Y64888D01*
Y65019D01*
X219632Y65063D01*
Y65106D01*
X219588Y65194D01*
X219501Y65281D01*
Y65369D01*
X220026D01*
Y65325D01*
Y65238D01*
X220069Y65150D01*
Y65106D01*
X220113Y65019D01*
Y64975D01*
Y64844D01*
X220157Y64231D01*
Y64188D01*
Y64144D01*
X220201Y63882D01*
X220288Y63575D01*
X220419Y63357D01*
X220463Y63313D01*
X220551Y63269D01*
X220769Y63226D01*
X222563D01*
Y65369D01*
X223000D01*
Y60514D01*
D02*
G37*
G36*
X214908D02*
X214471D01*
Y62613D01*
X211715D01*
Y60514D01*
X211278D01*
Y65369D01*
X211715D01*
Y63051D01*
X214471D01*
Y65369D01*
X214908D01*
Y60514D01*
D02*
G37*
G36*
X217576Y65412D02*
X217751D01*
X218145Y65238D01*
X218320Y65150D01*
X218495Y64975D01*
Y64931D01*
X218582Y64888D01*
X218713Y64625D01*
X218845Y64188D01*
X218932Y63619D01*
Y63575D01*
Y63488D01*
X218888Y63313D01*
Y63138D01*
X218757Y62657D01*
X218495Y62263D01*
Y62220D01*
X218407Y62176D01*
X218189Y62001D01*
X217839Y61870D01*
X217576Y61782D01*
X217183D01*
X217051Y61826D01*
X216876D01*
X216483Y62001D01*
X216308Y62088D01*
X216133Y62263D01*
Y62307D01*
X216089Y62351D01*
X216002Y62482D01*
X215914Y62613D01*
X215783Y63051D01*
X215739Y63619D01*
Y63663D01*
Y63750D01*
Y63925D01*
X215783Y64100D01*
X215914Y64538D01*
X216133Y64975D01*
X216220Y65063D01*
X216439Y65194D01*
X216833Y65369D01*
X217051Y65412D01*
X217314Y65456D01*
X217445D01*
X217576Y65412D01*
D02*
G37*
G36*
X218320Y60514D02*
X218364Y60426D01*
X218451Y60251D01*
X218582Y59945D01*
X218670Y59726D01*
X218801Y59464D01*
X218932Y59201D01*
X219063Y58851D01*
X219238Y58458D01*
X219457Y58021D01*
Y57977D01*
X219501Y57889D01*
X219545Y57802D01*
X219632Y57627D01*
X219851Y57189D01*
X220113Y56752D01*
X220463Y56271D01*
X220769Y55877D01*
X220944Y55702D01*
X221119Y55615D01*
X221294Y55527D01*
X221469D01*
X221382Y55440D01*
X221294Y55352D01*
X221163Y55221D01*
X220988Y55046D01*
X220725Y54827D01*
X220682Y54784D01*
X220594Y54740D01*
X220463Y54609D01*
X220288Y54478D01*
X220113Y54390D01*
X219895Y54303D01*
X219676Y54259D01*
X219501Y54303D01*
X219413Y54346D01*
X219238Y54434D01*
X219020Y54609D01*
X218757Y54871D01*
X218713Y54915D01*
X218670Y55002D01*
X218582Y55177D01*
X218451Y55396D01*
X218145Y55877D01*
X217882Y56446D01*
Y56490D01*
X217839Y56533D01*
X217707Y56796D01*
X217576Y57014D01*
X217532Y57102D01*
Y57146D01*
X217489Y57102D01*
X217445Y57058D01*
X217357Y56927D01*
X217226Y56665D01*
X216964Y56358D01*
X216658Y55877D01*
X216439Y55615D01*
X216220Y55265D01*
Y55221D01*
X216177Y55177D01*
X215958Y54915D01*
X215695Y54565D01*
X215302Y54040D01*
X214821Y53428D01*
X214208Y52772D01*
X213552Y52028D01*
X212852Y51241D01*
X212809Y51197D01*
X212765Y51153D01*
X212502Y50891D01*
X212109Y50497D01*
X211584Y50060D01*
X211015Y49535D01*
X210315Y48966D01*
X209616Y48441D01*
X208872Y47960D01*
X208828D01*
X208785Y47916D01*
X208653Y47829D01*
X208610Y47785D01*
X208478Y47742D01*
X208303Y47654D01*
X208128Y47610D01*
Y47654D01*
X208085Y47742D01*
X207997Y47873D01*
X207953Y47916D01*
X207910Y47960D01*
X207866Y48004D01*
Y48048D01*
X207997Y48135D01*
X208085Y48266D01*
X208260Y48398D01*
X208478Y48616D01*
X208785Y48923D01*
X208828Y48966D01*
X208960Y49054D01*
X209134Y49229D01*
X209353Y49491D01*
X209922Y50060D01*
X210578Y50716D01*
Y50760D01*
X210665Y50803D01*
X210928Y51066D01*
X211278Y51503D01*
X211759Y52028D01*
X212327Y52684D01*
X212896Y53428D01*
X213508Y54259D01*
X214121Y55134D01*
Y55177D01*
X214164Y55221D01*
X214252Y55352D01*
X214383Y55527D01*
X214646Y55965D01*
X214952Y56490D01*
X215302Y57102D01*
X215652Y57714D01*
X216002Y58370D01*
X216264Y58983D01*
X218320Y60557D01*
Y60514D01*
D02*
G37*
%LPC*%
G36*
X112442Y365966D02*
X112355D01*
X112333Y365944D01*
Y365922D01*
Y365879D01*
Y365857D01*
X112311Y365835D01*
Y365769D01*
Y365747D01*
Y365725D01*
Y365704D01*
X112333Y365682D01*
Y365660D01*
X112355Y365616D01*
X112420Y365485D01*
Y365463D01*
X112442Y365441D01*
X112464Y365419D01*
X112486Y365376D01*
Y365354D01*
X112508Y365332D01*
X112595Y365244D01*
X112726Y365157D01*
X112792Y365113D01*
X112901D01*
X112967Y365135D01*
X112989D01*
X112967Y365223D01*
Y365244D01*
X112945Y365288D01*
X112901Y365376D01*
X112879Y365463D01*
X112792Y365660D01*
X112748Y365747D01*
X112704Y365813D01*
X112683Y365835D01*
X112639Y365879D01*
X112551Y365922D01*
X112442Y365966D01*
D02*
G37*
G36*
X109643Y365572D02*
X109555D01*
X109490Y365551D01*
X109424Y365507D01*
X109402D01*
X109380Y365485D01*
Y365441D01*
X109358Y365419D01*
Y365376D01*
Y365354D01*
Y365288D01*
Y365201D01*
X109424Y365091D01*
X109446D01*
X109468Y365069D01*
X109511D01*
X109533Y365048D01*
X109555D01*
X109599Y365026D01*
X109664Y365004D01*
X109708Y364982D01*
Y365004D01*
X109730Y365091D01*
Y365113D01*
X109774Y365201D01*
X109818Y365332D01*
X109905Y365485D01*
X109883Y365507D01*
X109839Y365529D01*
X109752Y365551D01*
X109643Y365572D01*
D02*
G37*
G36*
X110999Y365922D02*
X110736D01*
X110649Y365879D01*
X110605Y365857D01*
X110561Y365835D01*
X110496Y365791D01*
X110474Y365769D01*
X110408Y365704D01*
X110321Y365616D01*
X110189Y365441D01*
Y365419D01*
X110168Y365398D01*
X110080Y365288D01*
X110014Y365157D01*
X109971Y365026D01*
X109993Y365004D01*
X110036Y364982D01*
X110146Y364960D01*
X110277Y364916D01*
X110343D01*
X110474Y364938D01*
X110561D01*
X110670Y364960D01*
X110758Y364982D01*
X110845D01*
X110867Y365004D01*
X110911D01*
X110933Y365026D01*
X110999Y365048D01*
X111086Y365113D01*
X111174Y365179D01*
X111195Y365223D01*
X111239Y365288D01*
X111283Y365398D01*
X111305Y365419D01*
X111327Y365529D01*
Y365572D01*
X111283Y365660D01*
X111239Y365769D01*
X111174Y365857D01*
X111130Y365879D01*
X111086Y365900D01*
X110999Y365922D01*
D02*
G37*
G36*
X111327Y365201D02*
X111324Y365176D01*
X111305Y365157D01*
X111283Y365113D01*
X111261Y365091D01*
X111239Y365069D01*
X111174Y365026D01*
X111064Y364960D01*
X110933Y364895D01*
X110911D01*
X110889Y364873D01*
X110824D01*
X110802Y364851D01*
X110780D01*
X110736Y364829D01*
X110692D01*
X110561Y364807D01*
X110255D01*
X110233Y364829D01*
X110146Y364851D01*
X110080D01*
X109949Y364895D01*
Y364873D01*
X109927Y364851D01*
X109905Y364785D01*
Y364763D01*
X109883Y364741D01*
X109861Y364654D01*
X109818Y364566D01*
Y364545D01*
X109796Y364523D01*
X109730Y364435D01*
X109621Y364304D01*
X109490Y364173D01*
X109468D01*
X109424Y364129D01*
X109336Y364063D01*
X109205Y363976D01*
X109183D01*
X109161Y363954D01*
X109052Y363867D01*
X108943Y363779D01*
X108834Y363692D01*
X109730Y363167D01*
X109774Y363189D01*
X109883Y363276D01*
X110036Y363407D01*
X110255Y363560D01*
X110277D01*
X110299Y363604D01*
X110430Y363714D01*
X110605Y363867D01*
X110780Y364063D01*
X110802Y364085D01*
X110867Y364173D01*
X110955Y364282D01*
X111042Y364435D01*
X111152Y364610D01*
X111239Y364807D01*
X111305Y365004D01*
X111324Y365176D01*
X111327Y365179D01*
Y365201D01*
D02*
G37*
G36*
X109030Y364895D02*
X108921D01*
X108834Y364873D01*
X108768Y364829D01*
Y364807D01*
Y364785D01*
X108746Y364720D01*
X108724Y364654D01*
Y364610D01*
Y364588D01*
Y364566D01*
Y364523D01*
X108768Y364479D01*
Y364457D01*
X108790D01*
Y364435D01*
Y364413D01*
X108834Y364391D01*
X108899Y364304D01*
X109008Y364216D01*
X109052Y364173D01*
X109074D01*
X109096Y364195D01*
X109183Y364238D01*
X109271Y364304D01*
X109336Y364348D01*
X109358Y364370D01*
X109424Y364435D01*
X109511Y364545D01*
X109599Y364676D01*
Y364698D01*
X109621Y364720D01*
Y364741D01*
X109599D01*
X109577Y364763D01*
X109468Y364829D01*
X109424D01*
X109336Y364851D01*
X109205Y364873D01*
X109030Y364895D01*
D02*
G37*
G36*
X110386Y363364D02*
X110364D01*
X110343Y363320D01*
X110233Y363254D01*
X110102Y363145D01*
X109971Y363035D01*
X110561Y362707D01*
Y362729D01*
Y362773D01*
X110583Y362817D01*
Y362861D01*
Y362882D01*
Y362926D01*
X110539Y363057D01*
Y363079D01*
X110518Y363123D01*
X110496Y363145D01*
X110474Y363211D01*
X110430Y363298D01*
X110386Y363364D01*
D02*
G37*
G36*
X111042Y363998D02*
Y363976D01*
X111021Y363954D01*
X110999Y363932D01*
X110977Y363910D01*
X110933Y363867D01*
X110845Y363779D01*
X110714Y363648D01*
X110561Y363517D01*
X110583Y363495D01*
X110605Y363451D01*
X110670Y363342D01*
X110736Y363211D01*
X110758Y363167D01*
Y363145D01*
X110780Y363079D01*
X110802Y362992D01*
X110824Y362882D01*
Y362861D01*
Y362795D01*
X110802Y362686D01*
X110780Y362576D01*
X111195Y362336D01*
Y362357D01*
X111239Y362379D01*
X111305Y362511D01*
Y362532D01*
Y362576D01*
X111327Y362664D01*
Y362751D01*
Y362773D01*
Y362817D01*
Y362948D01*
Y363079D01*
Y363123D01*
Y363145D01*
Y363189D01*
Y363276D01*
X111305Y363385D01*
X111283Y363495D01*
Y363517D01*
X111261Y363582D01*
X111239Y363626D01*
X111217Y363670D01*
Y363692D01*
X111174Y363757D01*
X111130Y363867D01*
X111042Y363998D01*
D02*
G37*
G36*
X111458Y364632D02*
X111436Y364588D01*
X111392Y364501D01*
X111327Y364370D01*
X111217Y364195D01*
X111239Y364151D01*
X111283Y364063D01*
X111370Y363932D01*
X111436Y363779D01*
Y363757D01*
X111458Y363714D01*
X111480Y363670D01*
X111502D01*
Y363648D01*
Y363626D01*
X111523Y363560D01*
Y363539D01*
Y363517D01*
X111545Y363451D01*
X111567Y363320D01*
Y363145D01*
Y363123D01*
Y363079D01*
Y362970D01*
Y362948D01*
Y362904D01*
Y362751D01*
Y362729D01*
Y362642D01*
Y362554D01*
X111545Y362445D01*
Y362423D01*
X111502Y362357D01*
X111414Y362204D01*
X111786Y362008D01*
Y362030D01*
X111808Y362117D01*
X111873Y362248D01*
X111983Y362423D01*
X112005Y362445D01*
X112048Y362532D01*
X112114Y362642D01*
X112136Y362729D01*
Y362751D01*
Y362839D01*
X112114Y362970D01*
X112092Y363079D01*
X112048Y363211D01*
Y363232D01*
X112027Y363276D01*
X112005Y363342D01*
X111983Y363429D01*
X111939Y363626D01*
Y363692D01*
Y363757D01*
Y363801D01*
X111961Y363888D01*
X111983Y364041D01*
Y364216D01*
Y364260D01*
X111961Y364282D01*
X111939D01*
X111917Y364304D01*
X111873Y364326D01*
X111830Y364370D01*
X111808D01*
X111786Y364391D01*
X111742Y364435D01*
X111720Y364457D01*
X111677Y364501D01*
X111589Y364545D01*
X111567D01*
X111545Y364588D01*
X111458Y364632D01*
D02*
G37*
G36*
X112201Y365879D02*
X112180Y365857D01*
X112136Y365835D01*
X112114Y365813D01*
X112048Y365725D01*
X111983Y365616D01*
X111939Y365463D01*
Y365419D01*
Y365376D01*
X111961Y365310D01*
Y365201D01*
X112005Y365048D01*
X112048Y364873D01*
X112114Y364654D01*
X112136Y364632D01*
Y364588D01*
X112158Y364501D01*
X112180Y364479D01*
Y364435D01*
X112201Y364370D01*
Y364348D01*
X112223Y364304D01*
Y364282D01*
Y364216D01*
Y364195D01*
Y364173D01*
Y364041D01*
Y363888D01*
X112180Y363692D01*
Y363670D01*
Y363626D01*
X112201Y363495D01*
X112223Y363407D01*
X112267Y363298D01*
Y363276D01*
X112289Y363232D01*
X112311Y363145D01*
X112333Y363057D01*
X112376Y362861D01*
X112398Y362751D01*
Y362686D01*
Y362664D01*
X112355Y362576D01*
X112289Y362445D01*
X112180Y362292D01*
Y362270D01*
X112158Y362248D01*
X112092Y362139D01*
X112027Y361986D01*
X112005Y361855D01*
X113251Y361133D01*
Y361155D01*
Y361177D01*
X113295Y361308D01*
X113361Y361526D01*
X113492Y361789D01*
Y361811D01*
X113514Y361833D01*
X113579Y361964D01*
X113623Y362117D01*
X113667Y362226D01*
Y362270D01*
X113689Y362314D01*
Y362379D01*
X113667Y362489D01*
Y362598D01*
X113623Y362751D01*
X113579Y362926D01*
Y362948D01*
X113557Y363014D01*
X113535Y363079D01*
X113514Y363145D01*
Y363167D01*
Y363211D01*
X113492Y363320D01*
X113448Y363517D01*
X113404Y363801D01*
Y363823D01*
Y363845D01*
X113382Y363998D01*
X113361Y364151D01*
X113317Y364326D01*
X113295Y364370D01*
X113273Y364457D01*
X113207Y364588D01*
X113142Y364741D01*
X113120Y364763D01*
X113098Y364851D01*
X113076Y364938D01*
X113032Y365026D01*
X112989D01*
X112967Y365004D01*
X112836D01*
X112704Y365048D01*
X112617Y365091D01*
X112530Y365135D01*
X112464Y365223D01*
X112376Y365332D01*
X112355Y365376D01*
X112311Y365419D01*
X112289Y365441D01*
X112267Y365485D01*
X112201Y365638D01*
Y365682D01*
Y365769D01*
Y365791D01*
Y365813D01*
Y365857D01*
Y365879D01*
D02*
G37*
G36*
X103038Y366207D02*
Y366163D01*
Y366075D01*
Y366054D01*
Y365988D01*
Y365944D01*
X103060Y365857D01*
X103103Y365747D01*
X103169Y365616D01*
Y365594D01*
X105772Y361067D01*
X105793D01*
X105815Y361111D01*
X105903Y361177D01*
X105925Y361198D01*
X105968Y361264D01*
X106056Y361351D01*
X106143Y361505D01*
X106165Y361526D01*
X106187Y361592D01*
X106253Y361723D01*
X106318Y361920D01*
Y361942D01*
X106340Y361964D01*
X106384Y362095D01*
X106450Y362248D01*
X106537Y362379D01*
Y362401D01*
X106581Y362445D01*
X106668Y362554D01*
X106690Y362576D01*
X106734Y362620D01*
X106843Y362751D01*
X106865Y362773D01*
X106931Y362839D01*
X107040Y362926D01*
X107150Y363035D01*
X107456Y363254D01*
X107631Y363364D01*
X107784Y363451D01*
X103038Y366207D01*
D02*
G37*
G36*
X116488Y366994D02*
X103935D01*
Y366972D01*
X103781D01*
X103738Y366950D01*
X103650D01*
X103585Y366906D01*
X103432Y366819D01*
X108615Y363823D01*
X108637Y363845D01*
X108680Y363888D01*
X108768Y363954D01*
X108855Y364041D01*
X108834Y364063D01*
X108790Y364085D01*
X108702Y364173D01*
X108593Y364282D01*
X108571Y364304D01*
X108549Y364326D01*
X108505Y364391D01*
X108484Y364501D01*
X108462Y364610D01*
Y364632D01*
X108484Y364698D01*
X108505Y364785D01*
X108527Y364895D01*
X108549Y364916D01*
X108571Y364982D01*
X108593Y365004D01*
X108680Y365048D01*
X108812Y365113D01*
X109008Y365135D01*
X109118D01*
Y365157D01*
X109096Y365223D01*
Y365332D01*
X109118Y365441D01*
Y365463D01*
Y365485D01*
X109140Y365551D01*
X109161Y365594D01*
X109205Y365638D01*
X109227Y365660D01*
X109249Y365682D01*
X109271Y365704D01*
X109358Y365769D01*
X109490Y365813D01*
X109664Y365835D01*
X109708D01*
X109796Y365813D01*
X109927Y365769D01*
X110058Y365682D01*
X110080Y365704D01*
X110146Y365791D01*
X110233Y365900D01*
X110343Y365988D01*
X110364D01*
X110386Y366032D01*
X110452Y366054D01*
X110539Y366097D01*
X110561D01*
X110605Y366119D01*
X110758Y366163D01*
X111042D01*
X111130Y366141D01*
X111239Y366097D01*
X111327Y366032D01*
Y366010D01*
X111370Y365988D01*
X111414Y365922D01*
X111458Y365857D01*
X111502Y365747D01*
X111545Y365616D01*
X111567Y365485D01*
X111589Y365310D01*
Y365288D01*
Y365266D01*
Y365244D01*
Y365223D01*
Y365135D01*
X111567Y365026D01*
X111545Y364895D01*
X111567Y364873D01*
X111611Y364829D01*
X111720Y364763D01*
X111742Y364741D01*
X111764Y364720D01*
X111852Y364676D01*
Y364698D01*
X111830Y364763D01*
X111786Y364873D01*
X111764Y365004D01*
X111720Y365266D01*
X111698Y365398D01*
Y365485D01*
Y365507D01*
Y365529D01*
X111742Y365682D01*
X111830Y365857D01*
X111895Y365944D01*
X111983Y366032D01*
X112005Y366054D01*
X112048Y366075D01*
X112201Y366163D01*
X112223D01*
X112289Y366185D01*
X112376Y366207D01*
X112508D01*
X112595Y366163D01*
X112748Y366097D01*
X112879Y365966D01*
X112901Y365922D01*
X112945Y365879D01*
X112967Y365813D01*
X113032Y365725D01*
X113076Y365616D01*
X113142Y365463D01*
X113207Y365288D01*
Y365266D01*
Y365244D01*
X113229Y365223D01*
Y365201D01*
Y365179D01*
X113251Y365135D01*
X113295Y365026D01*
X113339Y364960D01*
X113382Y364851D01*
Y364829D01*
X113404Y364807D01*
X113448Y364676D01*
X113492Y364545D01*
X113535Y364413D01*
Y364391D01*
X113579Y364282D01*
X113601Y364195D01*
Y364107D01*
X113623Y363976D01*
X113645Y363823D01*
Y363801D01*
Y363757D01*
X113667Y363692D01*
X113689Y363604D01*
X113710Y363407D01*
X113754Y363232D01*
Y363211D01*
Y363189D01*
X113776Y363167D01*
X113798Y363079D01*
X113820Y362992D01*
Y362970D01*
X113842Y362904D01*
X113864Y362795D01*
X113885Y362664D01*
X113929Y362401D01*
Y362270D01*
X113907Y362161D01*
Y362139D01*
X113864Y362051D01*
X113798Y361898D01*
X113710Y361701D01*
Y361680D01*
X113689Y361636D01*
X113645Y361548D01*
X113601Y361461D01*
X113535Y361220D01*
X113492Y361002D01*
X114345Y360521D01*
X117297Y365616D01*
Y365638D01*
Y365660D01*
X117319Y365682D01*
X117341Y365769D01*
X117363Y365791D01*
X117385Y365900D01*
Y365922D01*
Y365966D01*
X117406Y366032D01*
Y366119D01*
X117385Y366316D01*
X117297Y366535D01*
X117275D01*
X117253Y366579D01*
X117210Y366644D01*
X117188Y366666D01*
X117122Y366753D01*
X117100D01*
X117078Y366797D01*
X116947Y366863D01*
X116750Y366950D01*
X116619Y366972D01*
X116488Y366994D01*
D02*
G37*
G36*
X108068Y363298D02*
X108046D01*
X107981Y363276D01*
X107893Y363232D01*
X107762Y363167D01*
X107609Y363079D01*
X107434Y362948D01*
X107237Y362773D01*
X107018Y362576D01*
X106996Y362554D01*
X106974Y362532D01*
X106865Y362401D01*
X106843Y362379D01*
X106821Y362357D01*
X106734Y362248D01*
X106712Y362226D01*
X106690Y362161D01*
X106625Y362030D01*
X106537Y361833D01*
Y361811D01*
X106515Y361789D01*
X106472Y361658D01*
X106428Y361526D01*
X106362Y361373D01*
X106340Y361330D01*
X106275Y361242D01*
X106187Y361133D01*
X106078Y361002D01*
X106056Y360980D01*
X106012Y360958D01*
X105903Y360870D01*
X107171Y358683D01*
X107937Y358990D01*
X107959D01*
X108002Y359011D01*
X108068Y359033D01*
X108156Y359077D01*
X108374Y359121D01*
X108637Y359165D01*
X108877D01*
X109096Y359143D01*
X109380Y359121D01*
X110058D01*
X110386Y359165D01*
X110714Y359230D01*
X110736D01*
X110780Y359252D01*
X110867Y359296D01*
X110999Y359361D01*
X111130Y359427D01*
X111305Y359514D01*
X111480Y359646D01*
X111677Y359777D01*
X111698Y359799D01*
X111764Y359821D01*
X111852Y359886D01*
X112005Y359996D01*
X112048Y360017D01*
X112114Y360039D01*
X112201Y360105D01*
X112223Y360127D01*
X112311Y360171D01*
X112420Y360258D01*
X112551Y360346D01*
X112573Y360367D01*
X112639Y360411D01*
X112704Y360477D01*
X112792Y360564D01*
X108068Y363298D01*
D02*
G37*
G36*
X113011Y360433D02*
X112989Y360411D01*
X112945Y360346D01*
X112836Y360258D01*
X112704Y360149D01*
X112683Y360127D01*
X112595Y360083D01*
X112486Y359996D01*
X112333Y359908D01*
X112311Y359886D01*
X112245Y359842D01*
X112223D01*
X112201Y359821D01*
X112136Y359777D01*
X112114D01*
X112092Y359755D01*
X112005Y359689D01*
X111895Y359624D01*
X111830Y359580D01*
X111808Y359558D01*
X111742Y359514D01*
X111633Y359449D01*
X111480Y359361D01*
X111152Y359165D01*
X110977Y359077D01*
X110802Y359011D01*
X110780D01*
X110714Y358990D01*
X110605Y358946D01*
X110474Y358924D01*
X110321Y358902D01*
X110124Y358880D01*
X109905Y358858D01*
X109643D01*
X109533Y358880D01*
X109140D01*
X108943Y358902D01*
X108549D01*
X108462Y358880D01*
X108265Y358837D01*
X108024Y358771D01*
X107281Y358465D01*
X109424Y354747D01*
X109446D01*
X109468Y354725D01*
X109511Y354637D01*
Y354616D01*
X109555Y354594D01*
X109599Y354550D01*
X109621Y354528D01*
X109643Y354506D01*
X109774Y354419D01*
X109971Y354353D01*
X110080Y354309D01*
X110211D01*
Y354288D01*
X110255D01*
X110364Y354309D01*
X110518Y354331D01*
X110692Y354419D01*
X110714Y354441D01*
X110736Y354463D01*
X110758D01*
X110780Y354484D01*
X110845Y354550D01*
X110933Y354637D01*
X111021Y354769D01*
X113973Y359886D01*
X113011Y360433D01*
D02*
G37*
G36*
X201536Y65045D02*
X201448D01*
Y64521D01*
X201536D01*
Y65045D01*
D02*
G37*
G36*
X197271Y64674D02*
X197249D01*
X197161Y64652D01*
X197052Y64630D01*
X196943Y64586D01*
X196812Y64521D01*
X196724Y64389D01*
X196637Y64236D01*
X196615Y64017D01*
Y63996D01*
Y63908D01*
X196659Y63799D01*
X196702Y63689D01*
X196768Y63558D01*
X196899Y63471D01*
X197052Y63383D01*
X197271Y63361D01*
X197380D01*
X197468Y63405D01*
X197599Y63449D01*
X197708Y63514D01*
X197818Y63646D01*
X197905Y63799D01*
X197927Y64017D01*
Y64039D01*
X197905Y64127D01*
X197883Y64214D01*
X197839Y64346D01*
X197774Y64455D01*
X197643Y64564D01*
X197490Y64652D01*
X197271Y64674D01*
D02*
G37*
G36*
X201667Y64127D02*
X198583D01*
X198605Y63930D01*
X198539Y63646D01*
X198430Y63383D01*
X198277Y63165D01*
X198124Y63011D01*
X197949Y62880D01*
X197708Y62771D01*
X197468Y62705D01*
X197271Y62683D01*
X197096Y62705D01*
X197052Y62224D01*
X199655Y59534D01*
X201885Y61830D01*
X201667Y64127D01*
D02*
G37*
G36*
X199917Y57303D02*
X197949D01*
Y57172D01*
X199917D01*
Y57303D01*
D02*
G37*
G36*
X201929Y61327D02*
X199917Y59250D01*
X202367Y56713D01*
X201929Y61327D01*
D02*
G37*
G36*
X197008Y61721D02*
X196571Y56625D01*
X196615D01*
Y56407D01*
X197533Y57347D01*
Y57675D01*
X197861D01*
X199392Y59250D01*
X197008Y61721D01*
D02*
G37*
G36*
X196243Y56254D02*
X195521D01*
Y55532D01*
X196243D01*
Y56254D01*
D02*
G37*
G36*
X199655Y58987D02*
X198386Y57675D01*
X200289D01*
Y56800D01*
X197533D01*
X196615Y55860D01*
Y55160D01*
X196462D01*
X196418Y54832D01*
X202541D01*
X202432Y56100D01*
X199655Y58987D01*
D02*
G37*
G36*
X195784Y54220D02*
X195762D01*
X195674Y54198D01*
X195609Y54154D01*
X195587Y54045D01*
Y54023D01*
X195609Y53935D01*
X195674Y53870D01*
X195784Y53848D01*
X195806D01*
X195871Y53870D01*
X195937Y53935D01*
X195959Y54045D01*
Y54067D01*
X195937Y54132D01*
X195893Y54198D01*
X195784Y54220D01*
D02*
G37*
G36*
X202607Y54154D02*
X202148D01*
Y53782D01*
X202367Y53892D01*
X202498Y53979D01*
X202607Y54088D01*
Y54154D01*
D02*
G37*
G36*
X201251D02*
X196374D01*
Y54067D01*
X196527Y53913D01*
X196724Y53804D01*
X196987Y53673D01*
X197315Y53585D01*
X197708Y53498D01*
X198146Y53432D01*
Y53673D01*
X200245D01*
Y53389D01*
X200617Y53411D01*
X200945Y53454D01*
X201251Y53520D01*
Y54154D01*
D02*
G37*
G36*
X201776Y53804D02*
X201623D01*
Y53301D01*
X201776D01*
Y53804D01*
D02*
G37*
G36*
X199852Y53301D02*
X198518D01*
Y53082D01*
X199852D01*
Y53301D01*
D02*
G37*
%LPD*%
G36*
X197490Y64389D02*
X197577Y64346D01*
X197643Y64280D01*
X197686Y64170D01*
X197708Y64017D01*
Y63996D01*
Y63952D01*
X197643Y63799D01*
X197599Y63711D01*
X197533Y63646D01*
X197424Y63602D01*
X197271Y63580D01*
X197205D01*
X197052Y63624D01*
X196965Y63689D01*
X196899Y63755D01*
X196855Y63864D01*
X196834Y64017D01*
Y64039D01*
Y64083D01*
X196877Y64236D01*
X196943Y64324D01*
X197008Y64389D01*
X197118Y64433D01*
X197271Y64455D01*
X197336D01*
X197490Y64389D01*
D02*
G37*
%LPC*%
G36*
X197271Y64083D02*
X197227D01*
X197205Y64061D01*
Y64017D01*
Y63996D01*
Y63974D01*
X197227Y63952D01*
X197293D01*
X197315Y63974D01*
X197336Y64017D01*
Y64039D01*
X197315Y64061D01*
X197271Y64083D01*
D02*
G37*
G36*
X222563Y62788D02*
X221163D01*
X220901Y62744D01*
X220594Y62701D01*
X220288Y62569D01*
X220244Y62526D01*
X220157Y62394D01*
X220069Y62176D01*
X220026Y61826D01*
Y61782D01*
Y61695D01*
X220069Y61563D01*
X220113Y61388D01*
Y61345D01*
X220157Y61301D01*
X220376Y61082D01*
X220419D01*
X220463Y61039D01*
X220725Y60995D01*
X220769D01*
X220857Y60951D01*
X221032Y60907D01*
X222563D01*
Y62788D01*
D02*
G37*
G36*
X217314Y65106D02*
X217226D01*
X217008Y65063D01*
X216701Y64931D01*
X216483Y64713D01*
X216439Y64625D01*
X216308Y64407D01*
X216177Y64057D01*
X216133Y63619D01*
Y63575D01*
Y63488D01*
X216177Y63182D01*
X216264Y62832D01*
X216483Y62526D01*
X216527Y62482D01*
X216701Y62307D01*
X216964Y62176D01*
X217314Y62132D01*
X217401D01*
X217620Y62176D01*
X217926Y62307D01*
X218189Y62526D01*
X218232Y62613D01*
X218320Y62788D01*
X218451Y63138D01*
X218495Y63619D01*
Y63663D01*
Y63750D01*
X218451Y64013D01*
X218364Y64363D01*
X218189Y64713D01*
X218145Y64756D01*
X217970Y64888D01*
X217707Y65063D01*
X217314Y65106D01*
D02*
G37*
%LPD*%
D10*
X330992Y352500D02*
X330254Y352926D01*
Y352074D01*
X330992Y352500D01*
X342724Y339894D02*
X341986Y340320D01*
Y339468D01*
X342724Y339894D01*
X379784Y359661D02*
X379045Y360088D01*
Y359235D01*
X379784Y359661D01*
X361831Y175791D02*
X361092Y176217D01*
Y175365D01*
X361831Y175791D01*
X365547Y46976D02*
X364809Y47403D01*
Y46550D01*
X365547Y46976D01*
X342370Y83307D02*
X341632Y83733D01*
Y82881D01*
X342370Y83307D01*
X253000Y41992D02*
X252262Y42418D01*
Y41566D01*
X253000Y41992D01*
X364874Y285685D02*
X364136Y286111D01*
Y285259D01*
X364874Y285685D01*
X376110Y95315D02*
X375372Y95741D01*
Y94889D01*
X376110Y95315D01*
X362047Y196378D02*
X361309Y196804D01*
Y195952D01*
X362047Y196378D01*
X361547Y120976D02*
X360809Y121403D01*
Y120550D01*
X361547Y120976D01*
X380937Y319524D02*
X380199Y319950D01*
Y319097D01*
X380937Y319524D01*
X361547Y233976D02*
X360809Y234403D01*
Y233550D01*
X361547Y233976D01*
X325870Y385945D02*
X325132Y386371D01*
Y385519D01*
X325870Y385945D01*
X268303Y54914D02*
X267565Y55340D01*
Y54488D01*
X268303Y54914D01*
D11*
X326346Y348091D02*
X325902Y349014D01*
X324903Y349242D01*
X324101Y348603D01*
Y347578D01*
X324903Y346939D01*
X325902Y347167D01*
X326346Y348091D01*
X348039Y348063D02*
X347595Y348986D01*
X346595Y349215D01*
X345794Y348575D01*
Y347551D01*
X346595Y346912D01*
X347595Y347140D01*
X348039Y348063D01*
X371472Y55835D02*
X371028Y56758D01*
X370028Y56986D01*
X369227Y56347D01*
Y55322D01*
X370028Y54683D01*
X371028Y54911D01*
X371472Y55835D01*
X338728Y74547D02*
X338284Y75471D01*
X337284Y75699D01*
X336483Y75060D01*
Y74035D01*
X337284Y73396D01*
X338284Y73624D01*
X338728Y74547D01*
X245028Y47898D02*
X244583Y48821D01*
X243584Y49049D01*
X242782Y48410D01*
Y47385D01*
X243584Y46746D01*
X244583Y46974D01*
X245028Y47898D01*
X367776Y205138D02*
X367331Y206061D01*
X366332Y206289D01*
X365530Y205650D01*
Y204625D01*
X366332Y203986D01*
X367331Y204214D01*
X367776Y205138D01*
X367472Y129835D02*
X367028Y130758D01*
X366028Y130986D01*
X365227Y130347D01*
Y129322D01*
X366028Y128683D01*
X367028Y128911D01*
X367472Y129835D01*
X376390Y310665D02*
X375945Y311589D01*
X374946Y311817D01*
X374145Y311178D01*
Y310153D01*
X374946Y309514D01*
X375945Y309742D01*
X376390Y310665D01*
X367472Y242835D02*
X367028Y243758D01*
X366028Y243986D01*
X365227Y243347D01*
Y242322D01*
X366028Y241683D01*
X367028Y241911D01*
X367472Y242835D01*
X335319Y380906D02*
X334874Y381829D01*
X333875Y382057D01*
X333074Y381418D01*
Y380393D01*
X333875Y379754D01*
X334874Y379982D01*
X335319Y380906D01*
D12*
X376043Y352181D02*
X375499Y352930D01*
X374619Y352644D01*
Y351718D01*
X375499Y351432D01*
X376043Y352181D01*
X369606Y171756D02*
X369062Y172505D01*
X368182Y172219D01*
Y171293D01*
X369062Y171007D01*
X369606Y171756D01*
D13*
X160356Y372162D02*
D03*
X201094Y372662D02*
D03*
X241594Y373162D02*
D03*
X216300Y93838D02*
D03*
X144799D02*
D03*
X99756Y16838D02*
D03*
X144256Y50338D02*
D03*
X26256Y37838D02*
D03*
X69756Y16838D02*
D03*
X24756Y81338D02*
D03*
D14*
X98272Y343035D02*
Y388772D01*
X34728Y343035D02*
Y388772D01*
X98272D01*
X34728Y343035D02*
X98272D01*
X267228Y333535D02*
X300772D01*
X267228D02*
Y389272D01*
X300772D01*
Y333535D02*
Y389272D01*
X316898Y352028D02*
X329102D01*
X316898Y342972D02*
X329102D01*
Y352028D01*
X316898Y342972D02*
Y352028D01*
X342921Y344126D02*
X355520D01*
X342921Y353575D02*
X355520D01*
X342921Y344126D02*
Y353575D01*
X355520Y344126D02*
Y353575D01*
X366595Y355331D02*
X378405D01*
X366595Y346669D02*
X378405D01*
Y355331D01*
X366595Y346669D02*
Y355331D01*
X365669Y163094D02*
Y174906D01*
X374331Y163094D02*
Y174906D01*
X365669D02*
X374331D01*
X365669Y163094D02*
X374331D01*
X366354Y51898D02*
X385646D01*
X366354Y64102D02*
X385646D01*
X366354Y51898D02*
Y64102D01*
X385646Y51898D02*
Y64102D01*
X289516Y26516D02*
Y78484D01*
X341484Y26516D02*
Y78484D01*
X289516Y26516D02*
X341484D01*
X289516Y78484D02*
X341484D01*
X247783Y43961D02*
Y64039D01*
X233217Y43961D02*
Y64039D01*
Y43961D02*
X247783D01*
X233217Y64039D02*
X247783D01*
X368319Y284405D02*
X372256D01*
Y281354D02*
Y284405D01*
X368319Y272594D02*
X372256D01*
Y275646D01*
X367744Y96595D02*
X371681D01*
X367744D02*
Y99646D01*
Y108405D02*
X371681D01*
X367744Y105354D02*
Y108405D01*
X362657Y201201D02*
X382343D01*
X362657Y213799D02*
X382343D01*
X362657Y201201D02*
Y213799D01*
X382343Y201201D02*
Y213799D01*
X362354Y125898D02*
X381646D01*
X362354Y138102D02*
X381646D01*
X362354Y125898D02*
Y138102D01*
X381646Y125898D02*
Y138102D01*
X359854Y314602D02*
X379146D01*
X359854Y302398D02*
X379146D01*
Y314602D01*
X359854Y302398D02*
Y314602D01*
X362354Y238898D02*
X381646D01*
X362354Y251102D02*
X381646D01*
X362354Y238898D02*
Y251102D01*
X381646Y238898D02*
Y251102D01*
X330201Y365158D02*
Y384842D01*
X342799Y365158D02*
Y384842D01*
X330201D02*
X342799D01*
X330201Y365158D02*
X342799D01*
X382575Y88650D02*
Y89437D01*
X379425Y88650D02*
Y89437D01*
X263287Y63474D02*
X270526Y70713D01*
X272399Y54318D02*
X279637Y61556D01*
D15*
X136492Y340697D02*
X139642Y337547D01*
X136492Y340697D02*
Y358020D01*
X139642Y361169D01*
X254209D01*
X257358Y358020D01*
Y340697D02*
Y358020D01*
X254209Y337547D02*
X257358Y340697D01*
X139642Y337547D02*
X254209D01*
X136492Y15106D02*
X139642Y11957D01*
X136492Y15106D02*
Y32429D01*
X139642Y35579D01*
X254209D01*
X257358Y32429D01*
Y15106D02*
Y32429D01*
X254209Y11957D02*
X257358Y15106D01*
X139642Y11957D02*
X254209D01*
D16*
X102946Y350498D02*
X101280Y349665D01*
X99614Y347999D01*
Y346333D01*
X100447Y345500D01*
X102113D01*
X102946Y346333D01*
Y347166D01*
X102113Y347999D01*
X99614D01*
X29335Y345500D02*
X31001D01*
X30168D01*
Y350498D01*
X29335Y349665D01*
X306165Y351000D02*
X304499D01*
X305332D01*
Y346002D01*
X306165Y346835D01*
X262554Y346002D02*
X265886D01*
Y348501D01*
X264220Y347668D01*
X263387D01*
X262554Y348501D01*
Y350167D01*
X263387Y351000D01*
X265053D01*
X265886Y350167D01*
X262554Y336002D02*
X264220Y336835D01*
X265886Y338501D01*
Y340167D01*
X265053Y341000D01*
X263387D01*
X262554Y340167D01*
Y339334D01*
X263387Y338501D01*
X265886D01*
X302833Y341000D02*
X306165D01*
X302833Y337668D01*
Y336835D01*
X303666Y336002D01*
X305332D01*
X306165Y336835D01*
X65500Y17161D02*
Y23720D01*
X62220Y27000D01*
X58940Y23720D01*
Y17161D01*
X49101Y18801D02*
X50741Y17161D01*
X54021D01*
X55661Y18801D01*
Y25360D01*
X54021Y27000D01*
X50741D01*
X49101Y25360D01*
X45821Y17161D02*
X39262D01*
X42542D01*
Y27000D01*
X35982Y17161D02*
Y27000D01*
X31062D01*
X29422Y25360D01*
Y23720D01*
X31062Y22080D01*
X35982D01*
X31062D01*
X29422Y20440D01*
Y18801D01*
X31062Y17161D01*
X35982D01*
X86000Y338500D02*
X82720D01*
X84360D01*
Y331940D01*
X86000D01*
X76161Y338500D02*
X72881D01*
X71241Y336860D01*
Y333580D01*
X72881Y331940D01*
X76161D01*
X77801Y333580D01*
Y336860D01*
X76161Y338500D01*
X67961D02*
Y331940D01*
X63042D01*
X61402Y333580D01*
Y338500D01*
X56482D02*
X53202D01*
X51562Y336860D01*
Y333580D01*
X53202Y331940D01*
X56482D01*
X58122Y333580D01*
Y336860D01*
X56482Y338500D01*
X48283D02*
X43363D01*
X41723Y336860D01*
X43363Y335220D01*
X46643D01*
X48283Y333580D01*
X46643Y331940D01*
X41723D01*
X33523Y338500D02*
X36803D01*
X38443Y336860D01*
Y333580D01*
X36803Y331940D01*
X33523D01*
X31884Y333580D01*
Y335220D01*
X38443D01*
X28604Y338500D02*
Y331940D01*
X23684D01*
X22044Y333580D01*
Y338500D01*
X18765D02*
X13845D01*
X12205Y336860D01*
X13845Y335220D01*
X17125D01*
X18765Y333580D01*
X17125Y331940D01*
X12205D01*
X129000Y330161D02*
Y338360D01*
X127360Y340000D01*
X124080D01*
X122440Y338360D01*
Y330161D01*
X119161Y340000D02*
Y330161D01*
X112601Y340000D01*
Y330161D01*
X102762D02*
X109321D01*
Y340000D01*
X102762D01*
X109321Y335080D02*
X106042D01*
X99482Y330161D02*
Y340000D01*
X94562D01*
X92922Y338360D01*
Y331801D01*
X94562Y330161D01*
X99482D01*
X130461Y381045D02*
Y387043D01*
X127462D01*
X126462Y386044D01*
Y382045D01*
X127462Y381045D01*
X130461D01*
X120464D02*
X124463D01*
Y387043D01*
X120464D01*
X124463Y384044D02*
X122463D01*
X118465Y381045D02*
Y387043D01*
X115465D01*
X114466Y386044D01*
Y385044D01*
X115465Y384044D01*
X118465D01*
X115465D01*
X114466Y383045D01*
Y382045D01*
X115465Y381045D01*
X118465D01*
X112467D02*
Y386044D01*
X111467Y387043D01*
X109467D01*
X108468Y386044D01*
Y381045D01*
X102470Y382045D02*
X103469Y381045D01*
X105469D01*
X106468Y382045D01*
Y386044D01*
X105469Y387043D01*
X103469D01*
X102470Y386044D01*
Y384044D01*
X104469D01*
X166500Y371500D02*
Y367501D01*
X164501Y365502D01*
X162501Y367501D01*
Y371500D01*
Y368501D01*
X166500D01*
X160502Y365502D02*
Y371500D01*
X156503D01*
X154504D02*
Y367501D01*
X152505Y365502D01*
X150505Y367501D01*
Y371500D01*
Y368501D01*
X154504D01*
X148506Y371500D02*
Y365502D01*
X145507D01*
X144507Y366502D01*
Y368501D01*
X145507Y369501D01*
X148506D01*
X146507D02*
X144507Y371500D01*
X142508D02*
Y365502D01*
X140508Y367501D01*
X138509Y365502D01*
Y371500D01*
X209001Y367002D02*
X210001Y366002D01*
X212000D01*
X213000Y367002D01*
Y371000D01*
X212000Y372000D01*
X210001D01*
X209001Y371000D01*
X204003Y366002D02*
X206002D01*
X207002Y367002D01*
Y371000D01*
X206002Y372000D01*
X204003D01*
X203003Y371000D01*
Y367002D01*
X204003Y366002D01*
X201004Y372000D02*
Y366002D01*
X199004Y368001D01*
X197005Y366002D01*
Y372000D01*
X195006D02*
Y366002D01*
X193007Y368001D01*
X191007Y366002D01*
Y372000D01*
X189008D02*
Y368001D01*
X187008Y366002D01*
X185009Y368001D01*
Y372000D01*
Y369001D01*
X189008D01*
X183010Y372000D02*
Y366002D01*
X179011Y372000D01*
Y366002D01*
X177012D02*
Y372000D01*
X174013D01*
X173013Y371000D01*
Y367002D01*
X174013Y366002D01*
X177012D01*
X249500Y372500D02*
Y366502D01*
X246501D01*
X245501Y367502D01*
Y369501D01*
X246501Y370501D01*
X249500D01*
X240503Y366502D02*
X242502D01*
X243502Y367502D01*
Y371500D01*
X242502Y372500D01*
X240503D01*
X239503Y371500D01*
Y367502D01*
X240503Y366502D01*
X237504D02*
Y372500D01*
X235505Y370501D01*
X233505Y372500D01*
Y366502D01*
X227507D02*
X231506D01*
Y372500D01*
X227507D01*
X231506Y369501D02*
X229506D01*
X225508Y372500D02*
Y366502D01*
X222509D01*
X221509Y367502D01*
Y369501D01*
X222509Y370501D01*
X225508D01*
X223508D02*
X221509Y372500D01*
X263500Y387000D02*
Y381002D01*
X260501D01*
X259501Y382002D01*
Y384001D01*
X260501Y385001D01*
X263500D01*
X257502Y387000D02*
Y381002D01*
X254503D01*
X253503Y382002D01*
Y384001D01*
X254503Y385001D01*
X257502D01*
X255503D02*
X253503Y387000D01*
X248505Y381002D02*
X250504D01*
X251504Y382002D01*
Y386000D01*
X250504Y387000D01*
X248505D01*
X247505Y386000D01*
Y382002D01*
X248505Y381002D01*
X241507Y382002D02*
X242507Y381002D01*
X244506D01*
X245506Y382002D01*
Y386000D01*
X244506Y387000D01*
X242507D01*
X241507Y386000D01*
Y384001D01*
X243507D01*
X239508Y387000D02*
Y381002D01*
X236509D01*
X235509Y382002D01*
Y384001D01*
X236509Y385001D01*
X239508D01*
X237508D02*
X235509Y387000D01*
X233510D02*
Y383001D01*
X231510Y381002D01*
X229511Y383001D01*
Y387000D01*
Y384001D01*
X233510D01*
X227512Y387000D02*
Y381002D01*
X225512Y383001D01*
X223513Y381002D01*
Y387000D01*
X221514D02*
Y381002D01*
X219514Y383001D01*
X217515Y381002D01*
Y387000D01*
X211517Y381002D02*
X215515D01*
Y387000D01*
X211517D01*
X215515Y384001D02*
X213516D01*
X209518Y387000D02*
Y381002D01*
X206518D01*
X205519Y382002D01*
Y384001D01*
X206518Y385001D01*
X209518D01*
X207518D02*
X205519Y387000D01*
X242499Y90001D02*
Y95999D01*
Y94000D01*
X238500Y90001D01*
X241499Y93000D01*
X238500Y95999D01*
X236501D02*
X234501D01*
X235501D01*
Y90001D01*
X236501Y91001D01*
X359499Y138498D02*
X354501D01*
X353501Y137498D01*
Y135498D01*
X354501Y134499D01*
X359499D01*
X353501Y132500D02*
Y130500D01*
Y131500D01*
X359499D01*
X358499Y132500D01*
X353501Y123502D02*
Y127501D01*
X357500Y123502D01*
X358499D01*
X359499Y124502D01*
Y126501D01*
X358499Y127501D01*
X356999Y313498D02*
X352001D01*
X351001Y312498D01*
Y310499D01*
X352001Y309499D01*
X356999D01*
X351001Y307500D02*
Y305501D01*
Y306500D01*
X356999D01*
X355999Y307500D01*
X351001Y302502D02*
Y300502D01*
Y301502D01*
X356999D01*
X355999Y302502D01*
X359499Y215498D02*
X354501D01*
X353501Y214498D01*
Y212498D01*
X354501Y211499D01*
X359499D01*
X353501Y209500D02*
Y207500D01*
Y208500D01*
X359499D01*
X358499Y209500D01*
Y204501D02*
X359499Y203501D01*
Y201502D01*
X358499Y200502D01*
X354501D01*
X353501Y201502D01*
Y203501D01*
X354501Y204501D01*
X358499D01*
X362220Y364349D02*
X357221D01*
X356222Y363349D01*
Y361350D01*
X357221Y360350D01*
X362220D01*
X357221Y358351D02*
X356222Y357351D01*
Y355352D01*
X357221Y354352D01*
X361220D01*
X362220Y355352D01*
Y357351D01*
X361220Y358351D01*
X360220D01*
X359221Y357351D01*
Y354352D01*
X362998Y379001D02*
Y383999D01*
X361999Y384999D01*
X359999D01*
X359000Y383999D01*
Y379001D01*
X357000Y380001D02*
X356001Y379001D01*
X354001D01*
X353002Y380001D01*
Y381000D01*
X354001Y382000D01*
X353002Y383000D01*
Y383999D01*
X354001Y384999D01*
X356001D01*
X357000Y383999D01*
Y383000D01*
X356001Y382000D01*
X357000Y381000D01*
Y380001D01*
X356001Y382000D02*
X354001D01*
X387999Y367998D02*
X383001D01*
X382001Y366999D01*
Y364999D01*
X383001Y364000D01*
X387999D01*
Y362000D02*
Y358002D01*
X386999D01*
X383001Y362000D01*
X382001D01*
X358999Y248498D02*
X354001D01*
X353001Y247499D01*
Y245499D01*
X354001Y244500D01*
X358999D01*
Y238502D02*
X357999Y240501D01*
X356000Y242500D01*
X354001D01*
X353001Y241501D01*
Y239501D01*
X354001Y238502D01*
X355000D01*
X356000Y239501D01*
Y242500D01*
X364499Y62498D02*
X359501D01*
X358501Y61499D01*
Y59499D01*
X359501Y58500D01*
X364499D01*
Y52502D02*
Y56500D01*
X361500D01*
X362500Y54501D01*
Y53501D01*
X361500Y52502D01*
X359501D01*
X358501Y53501D01*
Y55501D01*
X359501Y56500D01*
X367002Y159499D02*
Y154501D01*
X368001Y153501D01*
X370001D01*
X371000Y154501D01*
Y159499D01*
X375999Y153501D02*
Y159499D01*
X373000Y156500D01*
X376998D01*
X344501Y86002D02*
X349499D01*
X350499Y87001D01*
Y89001D01*
X349499Y90000D01*
X344501D01*
X345501Y92000D02*
X344501Y92999D01*
Y94999D01*
X345501Y95998D01*
X346500D01*
X347500Y94999D01*
Y93999D01*
Y94999D01*
X348500Y95998D01*
X349499D01*
X350499Y94999D01*
Y92999D01*
X349499Y92000D01*
X315499Y358998D02*
X310501D01*
X309501Y357999D01*
Y355999D01*
X310501Y355000D01*
X315499D01*
X309501Y349002D02*
Y353000D01*
X313500Y349002D01*
X314499D01*
X315499Y350001D01*
Y352001D01*
X314499Y353000D01*
X267999Y39501D02*
Y44499D01*
X266999Y45499D01*
X265000D01*
X264000Y44499D01*
Y39501D01*
X262001Y45499D02*
X260001D01*
X261001D01*
Y39501D01*
X262001Y40501D01*
X355501Y103500D02*
X359499D01*
X360499Y104499D01*
Y106499D01*
X359499Y107498D01*
X355501D01*
X354501Y106499D01*
Y104499D01*
X356500Y105499D02*
X354501Y103500D01*
Y104499D02*
X355501Y103500D01*
X354501Y97502D02*
Y101500D01*
X358500Y97502D01*
X359499D01*
X360499Y98501D01*
Y100501D01*
X359499Y101500D01*
X353501Y279500D02*
X357499D01*
X358499Y280500D01*
Y282499D01*
X357499Y283499D01*
X353501D01*
X352501Y282499D01*
Y280500D01*
X354500Y281499D02*
X352501Y279500D01*
Y280500D02*
X353501Y279500D01*
X352501Y277501D02*
Y275501D01*
Y276501D01*
X358499D01*
X357499Y277501D01*
X51998Y76501D02*
Y82499D01*
Y80500D01*
X48000Y76501D01*
X50999Y79500D01*
X48000Y82499D01*
X46000Y76501D02*
X42002D01*
Y77501D01*
X46000Y81499D01*
Y82499D01*
X87002Y16999D02*
Y11001D01*
Y13000D01*
X91000Y16999D01*
X88001Y14000D01*
X91000Y11001D01*
X96998Y16999D02*
X94999Y15999D01*
X93000Y14000D01*
Y12001D01*
X93999Y11001D01*
X95999D01*
X96998Y12001D01*
Y13000D01*
X95999Y14000D01*
X93000D01*
X44502Y36999D02*
Y31001D01*
Y33000D01*
X48500Y36999D01*
X45501Y34000D01*
X48500Y31001D01*
X54498Y36999D02*
X50500D01*
Y34000D01*
X52499Y35000D01*
X53499D01*
X54498Y34000D01*
Y32001D01*
X53499Y31001D01*
X51499D01*
X50500Y32001D01*
X173998Y44001D02*
Y49999D01*
Y48000D01*
X170000Y44001D01*
X172999Y47000D01*
X170000Y49999D01*
X165001D02*
Y44001D01*
X168000Y47000D01*
X164002D01*
X117502Y16499D02*
Y10501D01*
Y12500D01*
X121500Y16499D01*
X118501Y13500D01*
X121500Y10501D01*
X123500Y15499D02*
X124499Y16499D01*
X126499D01*
X127498Y15499D01*
Y14500D01*
X126499Y13500D01*
X125499D01*
X126499D01*
X127498Y12500D01*
Y11501D01*
X126499Y10501D01*
X124499D01*
X123500Y11501D01*
X173998Y90501D02*
Y96499D01*
Y94500D01*
X170000Y90501D01*
X172999Y93500D01*
X170000Y96499D01*
X164002D02*
X168000D01*
X164002Y92500D01*
Y91501D01*
X165001Y90501D01*
X167001D01*
X168000Y91501D01*
X108500Y371501D02*
X110499D01*
X109499D01*
Y376499D01*
X110499Y377499D01*
X111499D01*
X112498Y376499D01*
X102502Y371501D02*
X106500D01*
Y374500D01*
X104501Y373500D01*
X103501D01*
X102502Y374500D01*
Y376499D01*
X103501Y377499D01*
X105501D01*
X106500Y376499D01*
X260500Y371501D02*
X262499D01*
X261499D01*
Y376499D01*
X262499Y377499D01*
X263499D01*
X264498Y376499D01*
X255501Y377499D02*
Y371501D01*
X258500Y374500D01*
X254502D01*
X193500Y43001D02*
X195499D01*
X194499D01*
Y47999D01*
X195499Y48999D01*
X196499D01*
X197498Y47999D01*
X187502Y48999D02*
X191500D01*
X187502Y45000D01*
Y44001D01*
X188501Y43001D01*
X190501D01*
X191500Y44001D01*
X191000Y327501D02*
X192999D01*
X192000D01*
Y332499D01*
X192999Y333499D01*
X193999D01*
X194999Y332499D01*
X189001Y333499D02*
X187001D01*
X188001D01*
Y327501D01*
X189001Y328501D01*
M02*
