G04*
G04 #@! TF.GenerationSoftware,Altium Limited,Altium Designer,20.0.13 (296)*
G04*
G04 Layer_Physical_Order=1*
G04 Layer_Color=255*
%FSLAX25Y25*%
%MOIN*%
G70*
G01*
G75*
%ADD16C,0.01000*%
%ADD30R,0.01968X0.02362*%
G04:AMPARAMS|DCode=37|XSize=47.24mil|YSize=43.31mil|CornerRadius=0mil|HoleSize=0mil|Usage=FLASHONLY|Rotation=45.000|XOffset=0mil|YOffset=0mil|HoleType=Round|Shape=Rectangle|*
%AMROTATEDRECTD37*
4,1,4,-0.00139,-0.03202,-0.03202,-0.00139,0.00139,0.03202,0.03202,0.00139,-0.00139,-0.03202,0.0*
%
%ADD37ROTATEDRECTD37*%

%ADD46O,0.01378X0.06102*%
%ADD47O,0.01968X0.05315*%
%ADD48O,0.01378X0.05512*%
%ADD49O,0.05512X0.01378*%
%ADD50R,0.02756X0.02559*%
%ADD51O,0.02559X0.06693*%
%ADD52O,0.06496X0.01181*%
%ADD53O,0.01181X0.06496*%
%ADD54O,0.06299X0.01772*%
%ADD55R,0.04724X0.02559*%
%ADD56O,0.02559X0.06496*%
%ADD57O,0.06496X0.02559*%
%ADD58R,0.01181X0.05906*%
%ADD59C,0.03937*%
%ADD60R,0.02559X0.02756*%
%ADD61R,0.03937X0.03937*%
%ADD62R,0.02835X0.02992*%
%ADD63R,0.02992X0.02835*%
%ADD64R,0.05709X0.05906*%
%ADD65R,0.02835X0.02835*%
%ADD66C,0.00400*%
%ADD67C,0.01155*%
%ADD68C,0.06378*%
%ADD69C,0.04528*%
%ADD70R,0.04528X0.04528*%
%ADD71C,0.19685*%
%ADD72R,0.04528X0.04528*%
%ADD73C,0.05709*%
%ADD74C,0.01772*%
G36*
X384500Y272000D02*
X384851Y271649D01*
Y224000D01*
X376861D01*
X376500Y224149D01*
X372769D01*
X371336Y225582D01*
X371543Y226082D01*
X373104D01*
Y225183D01*
X376462D01*
X376896Y225183D01*
X377396Y225183D01*
X378658D01*
Y227000D01*
Y228817D01*
X377396D01*
X376962Y228817D01*
X376462Y228817D01*
X375418D01*
Y230503D01*
X375711Y230699D01*
X376082Y231254D01*
X376212Y231909D01*
Y236043D01*
X376082Y236699D01*
X375711Y237254D01*
X375155Y237625D01*
X374500Y237756D01*
X373845Y237625D01*
X373289Y237254D01*
X372918Y236699D01*
X372788Y236043D01*
Y231909D01*
X372918Y231254D01*
X373289Y230699D01*
X373582Y230503D01*
Y228869D01*
X373104Y228817D01*
X372706Y229092D01*
X372439Y229359D01*
X372391Y229598D01*
X372085Y230056D01*
X371626Y230362D01*
X371151Y230457D01*
X370984Y230691D01*
X370870Y230937D01*
X371082Y231254D01*
X371212Y231909D01*
Y233776D01*
X369700D01*
Y230053D01*
X369893Y229765D01*
X369780Y229598D01*
X369673Y229057D01*
X369780Y228516D01*
X369846Y228418D01*
X369579Y227918D01*
X366880D01*
X365418Y229380D01*
Y230503D01*
X365711Y230699D01*
X366082Y231254D01*
X366212Y231909D01*
Y236043D01*
X366082Y236699D01*
X365711Y237254D01*
X365155Y237625D01*
X364500Y237756D01*
X363845Y237625D01*
X363289Y237254D01*
X362918Y236699D01*
X362788Y236043D01*
Y231909D01*
X362918Y231254D01*
X363289Y230699D01*
X363582Y230503D01*
Y229000D01*
X363652Y228649D01*
X363851Y228351D01*
X365553Y226649D01*
X365346Y226149D01*
X361500D01*
X361041Y225959D01*
X359082Y224000D01*
X356500D01*
Y263049D01*
X356962Y263240D01*
X357351Y262851D01*
X357649Y262652D01*
X358000Y262582D01*
X360482D01*
Y261821D01*
X361342D01*
Y260331D01*
X361412Y259980D01*
X361611Y259682D01*
X362856Y258436D01*
X362788Y258090D01*
Y253957D01*
X362918Y253301D01*
X363289Y252746D01*
X363845Y252375D01*
X364500Y252244D01*
X365155Y252375D01*
X365711Y252746D01*
X366082Y253301D01*
X366212Y253957D01*
Y255106D01*
X367788D01*
Y253957D01*
X367918Y253301D01*
X368289Y252746D01*
X368845Y252375D01*
X369500Y252244D01*
X370155Y252375D01*
X370230Y252425D01*
X370730Y252157D01*
Y251648D01*
X370541Y251459D01*
X370351Y251000D01*
X370541Y250541D01*
X371000Y250351D01*
X371459Y250541D01*
X371839Y250920D01*
X372029Y251379D01*
Y254487D01*
X372314Y254715D01*
X372788Y254507D01*
Y253957D01*
X372918Y253301D01*
X373289Y252746D01*
X373845Y252375D01*
X374300Y252284D01*
Y256024D01*
Y259763D01*
X373845Y259673D01*
X373289Y259301D01*
X372918Y258746D01*
X372788Y258090D01*
Y256873D01*
X372328Y256683D01*
X371674Y256029D01*
X371212Y256220D01*
Y258090D01*
X371082Y258746D01*
X370711Y259301D01*
X370155Y259673D01*
X369500Y259803D01*
X368845Y259673D01*
X368289Y259301D01*
X367918Y258746D01*
X367788Y258090D01*
Y256941D01*
X366212D01*
Y258090D01*
X366082Y258746D01*
X365711Y259301D01*
X365155Y259673D01*
X364500Y259803D01*
X364154Y259734D01*
X363177Y260711D01*
Y261467D01*
X363531Y261821D01*
X364038Y261821D01*
X364538Y261821D01*
X367778D01*
Y262851D01*
X369746D01*
Y262647D01*
X376254D01*
Y269353D01*
X369746D01*
Y264149D01*
X367778D01*
Y265179D01*
X364538D01*
X364222Y265179D01*
X363722Y265179D01*
X360482D01*
Y264418D01*
X358380D01*
X356500Y266298D01*
Y272000D01*
X357000Y272500D01*
X363271D01*
X363317Y272000D01*
X362997Y271679D01*
X362592Y271679D01*
X362092Y271679D01*
X360830D01*
Y270000D01*
Y268320D01*
X362092D01*
X362408Y268320D01*
X362908Y268320D01*
X366148D01*
Y271679D01*
X364649D01*
Y272500D01*
X384500D01*
Y272000D01*
D02*
G37*
G36*
X389000Y80642D02*
Y42500D01*
X388000Y41500D01*
X378951D01*
X378760Y41962D01*
X379236Y42438D01*
X379435Y42736D01*
X379504Y43087D01*
Y43561D01*
X379711Y43699D01*
X380082Y44254D01*
X380212Y44910D01*
Y49043D01*
X380082Y49699D01*
X379711Y50254D01*
X379155Y50625D01*
X378500Y50756D01*
X377845Y50625D01*
X377289Y50254D01*
X376918Y49699D01*
X376788Y49043D01*
Y44910D01*
X376918Y44254D01*
X377289Y43699D01*
X377328Y43672D01*
X377377Y43175D01*
X376120Y41918D01*
X370817D01*
Y42325D01*
X369418D01*
Y43503D01*
X369711Y43699D01*
X370082Y44254D01*
X370212Y44910D01*
Y49043D01*
X370082Y49699D01*
X369711Y50254D01*
X369155Y50625D01*
X368500Y50756D01*
X367845Y50625D01*
X367289Y50254D01*
X366918Y49699D01*
X366788Y49043D01*
Y44910D01*
X366918Y44254D01*
X367289Y43699D01*
X367582Y43503D01*
Y42325D01*
X367183D01*
Y41500D01*
X365500D01*
Y70073D01*
X365962Y70264D01*
X366206Y70020D01*
X366504Y69821D01*
X366788Y69765D01*
Y66957D01*
X366918Y66301D01*
X367289Y65746D01*
X367845Y65375D01*
X368500Y65244D01*
X369155Y65375D01*
X369711Y65746D01*
X370082Y66301D01*
X370212Y66957D01*
Y68106D01*
X371788D01*
Y66957D01*
X371918Y66301D01*
X372289Y65746D01*
X372845Y65375D01*
X373500Y65244D01*
X374155Y65375D01*
X374711Y65746D01*
X375082Y66301D01*
X375212Y66957D01*
Y71091D01*
X375082Y71746D01*
X374711Y72301D01*
X374155Y72673D01*
X373500Y72803D01*
X372845Y72673D01*
X372289Y72301D01*
X371918Y71746D01*
X371788Y71091D01*
Y69941D01*
X370212D01*
Y71091D01*
X370082Y71746D01*
X369711Y72301D01*
X369155Y72673D01*
X368500Y72803D01*
X367845Y72673D01*
X367418Y72387D01*
X366989Y72550D01*
X366918Y72609D01*
Y74467D01*
X367271Y74821D01*
X367778Y74821D01*
X368278Y74821D01*
X371518D01*
Y75759D01*
X372018Y75837D01*
X372462Y75501D01*
Y73647D01*
X378971D01*
Y80277D01*
X378971Y80353D01*
X379127Y80739D01*
X379606Y80759D01*
X379746Y80294D01*
Y77200D01*
X382800D01*
Y80353D01*
X382379D01*
X382374Y80853D01*
X388643Y80992D01*
X389000Y80642D01*
D02*
G37*
G36*
X153180Y41063D02*
X153187Y41000D01*
X153087Y40500D01*
X153195Y39959D01*
X153500Y39502D01*
Y34404D01*
X152834D01*
Y31051D01*
Y27698D01*
X153500D01*
Y23000D01*
X147500D01*
Y26075D01*
X147515Y26112D01*
X147647Y27114D01*
X147632Y27229D01*
X148075Y27698D01*
X148497D01*
Y31051D01*
Y34404D01*
X147706D01*
X147500Y34819D01*
Y41500D01*
X152900D01*
X153180Y41063D01*
D02*
G37*
G36*
X240000Y34404D02*
X239448D01*
Y31051D01*
Y27698D01*
X240000D01*
Y23000D01*
X230500D01*
Y27698D01*
X231174D01*
Y31051D01*
Y34404D01*
X230500D01*
Y39002D01*
X230805Y39459D01*
X230913Y40000D01*
X230805Y40541D01*
X230500Y40998D01*
Y41500D01*
X240000D01*
Y34404D01*
D02*
G37*
G36*
X220500Y41500D02*
Y40998D01*
X220195Y40541D01*
X220087Y40000D01*
X220195Y39459D01*
X220500Y39002D01*
Y34404D01*
X219763D01*
Y31051D01*
Y27698D01*
X220500D01*
Y23000D01*
X215000D01*
Y27698D01*
X215426D01*
Y31051D01*
Y34404D01*
X215000D01*
Y39488D01*
X215070Y39843D01*
X215000Y40197D01*
Y41500D01*
X220500Y41500D01*
D02*
G37*
G36*
X208500Y40998D02*
X208195Y40541D01*
X208087Y40000D01*
X208195Y39459D01*
X208500Y39002D01*
Y34404D01*
X207952D01*
Y31051D01*
Y27698D01*
X208500D01*
Y23000D01*
X203000D01*
Y27698D01*
X203615D01*
Y31051D01*
Y34404D01*
X203000D01*
Y39002D01*
X203305Y39459D01*
X203413Y40000D01*
X203305Y40541D01*
X203000Y40998D01*
Y41500D01*
X208500D01*
Y40998D01*
D02*
G37*
G36*
X148897Y13131D02*
X150465D01*
Y16484D01*
X150865D01*
Y13131D01*
X152434D01*
Y16484D01*
X152834D01*
Y13131D01*
X153500D01*
Y10498D01*
X153195Y10041D01*
X153087Y9500D01*
X153195Y8959D01*
X153500Y8502D01*
Y7500D01*
X147500D01*
Y12717D01*
X147706Y13131D01*
X148497D01*
Y16484D01*
X148897D01*
Y13131D01*
D02*
G37*
%LPC*%
G36*
X360430Y271679D02*
X358852D01*
Y270200D01*
X360430D01*
Y271679D01*
D02*
G37*
G36*
Y269800D02*
X358852D01*
Y268320D01*
X360430D01*
Y269800D01*
D02*
G37*
G36*
X383538Y269353D02*
X380483D01*
Y266200D01*
X383538D01*
Y269353D01*
D02*
G37*
G36*
X380083D02*
X377029D01*
Y266200D01*
X380083D01*
Y269353D01*
D02*
G37*
G36*
X383538Y265800D02*
X380483D01*
Y262647D01*
X383538D01*
Y265800D01*
D02*
G37*
G36*
X380083D02*
X377029D01*
Y262647D01*
X380083D01*
Y265800D01*
D02*
G37*
G36*
X379700Y259763D02*
Y256224D01*
X381212D01*
Y258090D01*
X381082Y258746D01*
X380711Y259301D01*
X380155Y259673D01*
X379700Y259763D01*
D02*
G37*
G36*
X374700D02*
Y256224D01*
X376212D01*
Y258090D01*
X376082Y258746D01*
X375711Y259301D01*
X375155Y259673D01*
X374700Y259763D01*
D02*
G37*
G36*
X379300D02*
X378845Y259673D01*
X378289Y259301D01*
X377918Y258746D01*
X377788Y258090D01*
Y256224D01*
X379300D01*
Y259763D01*
D02*
G37*
G36*
X381212Y255824D02*
X379700D01*
Y252284D01*
X380155Y252375D01*
X380711Y252746D01*
X381082Y253301D01*
X381212Y253957D01*
Y255824D01*
D02*
G37*
G36*
X376212D02*
X374700D01*
Y252284D01*
X375155Y252375D01*
X375711Y252746D01*
X376082Y253301D01*
X376212Y253957D01*
Y255824D01*
D02*
G37*
G36*
X379300D02*
X377788D01*
Y253957D01*
X377918Y253301D01*
X378289Y252746D01*
X378845Y252375D01*
X379300Y252284D01*
Y255824D01*
D02*
G37*
G36*
X379700Y237716D02*
Y234176D01*
X381212D01*
Y236043D01*
X381082Y236699D01*
X380711Y237254D01*
X380155Y237625D01*
X379700Y237716D01*
D02*
G37*
G36*
X369700D02*
Y234176D01*
X371212D01*
Y236043D01*
X371082Y236699D01*
X370711Y237254D01*
X370155Y237625D01*
X369700Y237716D01*
D02*
G37*
G36*
X379300D02*
X378845Y237625D01*
X378289Y237254D01*
X377918Y236699D01*
X377788Y236043D01*
Y234176D01*
X379300D01*
Y237716D01*
D02*
G37*
G36*
X369300D02*
X368845Y237625D01*
X368289Y237254D01*
X367918Y236699D01*
X367788Y236043D01*
Y234176D01*
X369300D01*
Y237716D01*
D02*
G37*
G36*
X381212Y233776D02*
X379700D01*
Y230237D01*
X380155Y230327D01*
X380711Y230699D01*
X381082Y231254D01*
X381212Y231909D01*
Y233776D01*
D02*
G37*
G36*
X379300D02*
X377788D01*
Y231909D01*
X377918Y231254D01*
X378289Y230699D01*
X378845Y230327D01*
X379300Y230237D01*
Y233776D01*
D02*
G37*
G36*
X369300D02*
X367788D01*
Y231909D01*
X367918Y231254D01*
X368289Y230699D01*
X368845Y230327D01*
X369300Y230237D01*
Y233776D01*
D02*
G37*
G36*
X379058Y228817D02*
Y227200D01*
X380754D01*
Y228817D01*
X379058D01*
D02*
G37*
G36*
X380754Y226800D02*
X379058D01*
Y225183D01*
X380754D01*
Y226800D01*
D02*
G37*
G36*
X386254Y80353D02*
X383200D01*
Y77200D01*
X386254D01*
Y80353D01*
D02*
G37*
G36*
Y76800D02*
X383200D01*
Y73647D01*
X386254D01*
Y76800D01*
D02*
G37*
G36*
X382800D02*
X379746D01*
Y73647D01*
X382800D01*
Y76800D01*
D02*
G37*
G36*
X383700Y72763D02*
Y69224D01*
X385212D01*
Y71091D01*
X385082Y71746D01*
X384711Y72301D01*
X384155Y72673D01*
X383700Y72763D01*
D02*
G37*
G36*
X378300D02*
X377845Y72673D01*
X377289Y72301D01*
X376918Y71746D01*
X376788Y71091D01*
Y69224D01*
X378300D01*
Y72763D01*
D02*
G37*
G36*
X385212Y68824D02*
X383700D01*
Y65284D01*
X384155Y65375D01*
X384711Y65746D01*
X385082Y66301D01*
X385212Y66957D01*
Y68824D01*
D02*
G37*
G36*
X378700Y72763D02*
Y69024D01*
Y65284D01*
X379155Y65375D01*
X379711Y65746D01*
X380082Y66301D01*
X380212Y66957D01*
Y68106D01*
X381788D01*
Y66957D01*
X381918Y66301D01*
X382289Y65746D01*
X382845Y65375D01*
X383300Y65284D01*
Y69024D01*
Y72763D01*
X382845Y72673D01*
X382289Y72301D01*
X381918Y71746D01*
X381788Y71091D01*
Y69941D01*
X380212D01*
Y71091D01*
X380082Y71746D01*
X379711Y72301D01*
X379155Y72673D01*
X378700Y72763D01*
D02*
G37*
G36*
X378300Y68824D02*
X376788D01*
Y66957D01*
X376918Y66301D01*
X377289Y65746D01*
X377845Y65375D01*
X378300Y65284D01*
Y68824D01*
D02*
G37*
G36*
X375000Y53649D02*
X374541Y53459D01*
X374351Y53000D01*
Y52500D01*
X374541Y52041D01*
X375000Y51851D01*
X375459Y52041D01*
X375649Y52500D01*
Y53000D01*
X375459Y53459D01*
X375000Y53649D01*
D02*
G37*
G36*
X383700Y50716D02*
Y47176D01*
X385212D01*
Y49043D01*
X385082Y49699D01*
X384711Y50254D01*
X384155Y50625D01*
X383700Y50716D01*
D02*
G37*
G36*
X373700D02*
Y47176D01*
X375212D01*
Y49043D01*
X375082Y49699D01*
X374711Y50254D01*
X374155Y50625D01*
X373700Y50716D01*
D02*
G37*
G36*
X383300D02*
X382845Y50625D01*
X382289Y50254D01*
X381918Y49699D01*
X381788Y49043D01*
Y47176D01*
X383300D01*
Y50716D01*
D02*
G37*
G36*
X373300D02*
X372845Y50625D01*
X372289Y50254D01*
X371918Y49699D01*
X371788Y49043D01*
Y47176D01*
X373300D01*
Y50716D01*
D02*
G37*
G36*
X385212Y46776D02*
X383700D01*
Y43237D01*
X384155Y43327D01*
X384711Y43699D01*
X385082Y44254D01*
X385212Y44910D01*
Y46776D01*
D02*
G37*
G36*
X375212D02*
X373700D01*
Y43237D01*
X374155Y43327D01*
X374711Y43699D01*
X375082Y44254D01*
X375212Y44910D01*
Y46776D01*
D02*
G37*
G36*
X383300D02*
X381788D01*
Y44910D01*
X381918Y44254D01*
X382289Y43699D01*
X382845Y43327D01*
X383300Y43237D01*
Y46776D01*
D02*
G37*
G36*
X373300D02*
X371788D01*
Y44910D01*
X371918Y44254D01*
X372289Y43699D01*
X372845Y43327D01*
X373300Y43237D01*
Y46776D01*
D02*
G37*
G36*
X150865Y34404D02*
Y31051D01*
Y27698D01*
X152434D01*
Y31051D01*
Y34404D01*
X150865D01*
D02*
G37*
G36*
X148897D02*
Y31051D01*
Y27698D01*
X150465D01*
Y31051D01*
Y34404D01*
X148897D01*
D02*
G37*
G36*
X239048D02*
X237479D01*
Y31051D01*
Y27698D01*
X239048D01*
Y31051D01*
Y34404D01*
D02*
G37*
G36*
X237080D02*
X235511D01*
Y31051D01*
Y27698D01*
X237080D01*
Y31051D01*
Y34404D01*
D02*
G37*
G36*
X235111D02*
X233543D01*
Y31051D01*
Y27698D01*
X235111D01*
Y31051D01*
Y34404D01*
D02*
G37*
G36*
X233143D02*
X231574D01*
Y31051D01*
Y27698D01*
X233143D01*
Y31051D01*
Y34404D01*
D02*
G37*
G36*
X219363D02*
X217794D01*
Y31051D01*
Y27698D01*
X219363D01*
Y31051D01*
Y34404D01*
D02*
G37*
G36*
X217394D02*
X215826D01*
Y31051D01*
Y27698D01*
X217394D01*
Y31051D01*
Y34404D01*
D02*
G37*
G36*
X207552D02*
X205983D01*
Y31051D01*
Y27698D01*
X207552D01*
Y31051D01*
Y34404D01*
D02*
G37*
G36*
X205583D02*
X204015D01*
Y31051D01*
Y27698D01*
X205583D01*
Y31051D01*
Y34404D01*
D02*
G37*
%LPD*%
D16*
X209500Y40000D02*
Y45500D01*
X186098Y342075D02*
Y349205D01*
X184065Y342270D02*
Y346935D01*
X182161Y342075D02*
Y349016D01*
X180193Y342075D02*
Y347193D01*
X249500Y342000D02*
Y343886D01*
X245544Y340000D02*
X247500D01*
X249500Y342000D01*
X367500Y138000D02*
Y138177D01*
X364677Y141000D02*
X367500Y138177D01*
X364500Y141000D02*
X364677D01*
X363314Y92000D02*
X363705D01*
X366500D01*
X347324Y382202D02*
X347622Y382500D01*
X342709Y381914D02*
X342996Y382202D01*
X347324D01*
X342500Y381914D02*
X342709D01*
X380000Y345358D02*
X380500Y344858D01*
X380000Y347500D02*
Y347528D01*
Y345358D02*
Y347500D01*
X380429Y176429D02*
Y179500D01*
X379365Y123043D02*
X379500D01*
X376104Y86748D02*
X376209Y86852D01*
X345382Y358201D02*
X345398Y358217D01*
Y363484D01*
X345414Y363500D01*
X353893Y363200D02*
Y363307D01*
X353059Y362365D02*
X353893Y363200D01*
X353059Y358201D02*
Y362365D01*
X370532Y346031D02*
X373000Y348500D01*
X379028D02*
X380000Y347528D01*
X373000Y348500D02*
X379028D01*
X368474Y360144D02*
X368563Y360055D01*
X368474Y360144D02*
Y364526D01*
X368386Y364614D02*
X368474Y364526D01*
X311142Y343858D02*
X314000D01*
X310581Y340000D02*
X314000D01*
X310495Y339914D02*
X310581Y340000D01*
X314358Y343500D02*
X322000D01*
X323000Y338347D02*
Y342500D01*
X322000Y343500D02*
X323000Y342500D01*
Y356653D02*
Y361414D01*
X370532Y341945D02*
Y346031D01*
X380000Y344358D02*
X380500Y344858D01*
X379500Y341000D02*
X380000Y340500D01*
X376702Y341000D02*
X379500D01*
X376437Y341266D02*
X376702Y341000D01*
X376437Y341266D02*
Y341945D01*
X380000Y340500D02*
Y340579D01*
X380917Y341496D02*
X381802D01*
X380000Y340579D02*
X380917Y341496D01*
X381802D02*
X382806Y342500D01*
X383000D01*
X376437Y176563D02*
X377000Y176000D01*
X246500Y63000D02*
X252465D01*
X232429Y67500D02*
Y70929D01*
X224000Y67500D02*
X228571D01*
X228492Y62957D02*
Y67421D01*
X369500Y316500D02*
Y323630D01*
X370870Y325000D01*
X367500Y314500D02*
X369500Y316500D01*
X362000Y317000D02*
X364500Y314500D01*
X367500D01*
X376500Y297976D02*
Y304500D01*
X355000Y293000D02*
X359129Y297129D01*
X361653D02*
X362000Y297476D01*
X359129Y297129D02*
X361653D01*
X355000Y266500D02*
X358000Y263500D01*
X355000Y266500D02*
Y293000D01*
X366500Y227000D02*
X375000D01*
X371500Y229000D02*
X373000Y227500D01*
X374500D01*
Y233976D01*
X364500Y229000D02*
Y233976D01*
Y229000D02*
X366500Y227000D01*
X358000Y263500D02*
X362260D01*
X368500Y223410D02*
X369702Y222208D01*
Y218920D02*
Y222208D01*
Y218920D02*
X370000Y218622D01*
X368500Y223410D02*
Y223500D01*
X378000Y124409D02*
X379365Y123043D01*
X378000Y124409D02*
Y125454D01*
X380221Y196599D02*
Y201122D01*
X379055Y169000D02*
X379165Y169110D01*
X382496D01*
X383105Y169719D01*
X382496Y172827D02*
X383105Y172218D01*
Y169719D02*
Y172218D01*
X379165Y172827D02*
X382496D01*
X379055Y172937D02*
X379165Y172827D01*
X380186Y182000D02*
X380286D01*
X380000D02*
X380186D01*
X379098Y184500D02*
X379878Y183721D01*
X379000Y184500D02*
X379098D01*
X379878Y182993D02*
Y183721D01*
Y182993D02*
X380000Y182871D01*
X377111Y179111D02*
X380000Y182000D01*
X377111Y177111D02*
Y179111D01*
X377000Y177000D02*
X377111Y177111D01*
X377000Y173480D02*
Y176000D01*
X380429Y176429D02*
X380858Y176000D01*
X379752Y86748D02*
X381000Y85500D01*
X376461Y86748D02*
X379752D01*
X376357Y86852D02*
X376461Y86748D01*
X376209Y86852D02*
X376357D01*
X354500Y77500D02*
X357000D01*
X353500Y76500D02*
X354500Y77500D01*
X356614Y71500D02*
X356810Y71304D01*
X353500Y71500D02*
X356614D01*
X368500Y82000D02*
X384000D01*
X366000Y79500D02*
X368500Y82000D01*
X384000D02*
X385000Y83000D01*
X366000Y76500D02*
Y79500D01*
X385000Y83000D02*
Y108000D01*
X383500Y109500D02*
X385000Y108000D01*
X319500Y77500D02*
Y83244D01*
X369000Y33209D02*
Y36571D01*
X369500Y32500D02*
Y32709D01*
X369000Y33209D02*
X369500Y32709D01*
X369571Y41000D02*
X376500D01*
X378587Y43087D01*
X369000Y40429D02*
X371571D01*
X378587Y43087D02*
Y46889D01*
X371571Y40429D02*
X373000Y39000D01*
X368500Y40929D02*
Y46976D01*
X378500Y69024D02*
X383500D01*
X366000Y71524D02*
Y76500D01*
X313531Y21693D02*
Y27968D01*
X310500Y11000D02*
Y14358D01*
X314500Y11000D02*
Y14500D01*
X311563Y15421D02*
Y21693D01*
X366000Y71524D02*
X366855Y70669D01*
X367503D01*
X353711Y67852D02*
X356467D01*
X353500Y67642D02*
X353711Y67852D01*
X356467D02*
X356614Y68000D01*
X359507Y39346D02*
X359614D01*
X357995Y40858D02*
X359507Y39346D01*
X354000Y37000D02*
X358000D01*
X354000Y40858D02*
X357995D01*
X340500Y37500D02*
X341721Y38721D01*
X346307Y36752D02*
X353752D01*
X341721Y38721D02*
X346307D01*
X346272Y74119D02*
X346307Y74154D01*
X341033Y74119D02*
X346272D01*
X340914Y74000D02*
X341033Y74119D01*
X350000Y80414D02*
X350086D01*
X350142Y80358D02*
X353500D01*
X350086Y80414D02*
X350142Y80358D01*
X346307Y72185D02*
X352815D01*
X346307Y76122D02*
X353122D01*
X279000Y76000D02*
Y78500D01*
X280500Y80000D01*
X321183Y89675D02*
X321925Y90417D01*
X321008Y89500D02*
X321183Y89675D01*
X279000Y66865D02*
Y70129D01*
X322917Y90417D02*
X324000Y91500D01*
X321925Y90417D02*
X322917D01*
X324000Y91500D02*
Y91614D01*
X320929Y89500D02*
X321008D01*
X316000Y92500D02*
Y93000D01*
Y92500D02*
X317071Y91429D01*
Y89500D02*
Y91429D01*
X321500Y83402D02*
Y89358D01*
X279586Y66280D02*
X284693D01*
X279000Y66865D02*
X279586Y66280D01*
X277772Y69401D02*
X279000Y70629D01*
X277371Y69000D02*
X277772Y69401D01*
X284693Y64311D02*
X290811D01*
X381500Y109500D02*
X383500D01*
X368500Y69024D02*
X373500D01*
X362260Y260331D02*
X364500Y258090D01*
X362260Y260331D02*
Y263500D01*
X364500Y256024D02*
X369500D01*
X177000Y75000D02*
X183000Y81000D01*
X177000Y55000D02*
Y75000D01*
Y55000D02*
X182000Y50000D01*
X205000D01*
X209500Y45500D01*
X229405Y31051D02*
Y39906D01*
X227437Y31051D02*
Y37500D01*
X225468Y31051D02*
Y39968D01*
X223500Y31051D02*
Y37500D01*
X221532Y31051D02*
Y39968D01*
X213657Y31051D02*
Y39843D01*
X211689Y31051D02*
Y37811D01*
X209720Y31051D02*
Y39779D01*
D30*
X154718Y374000D02*
D03*
X158262D02*
D03*
X195457Y374500D02*
D03*
X199000D02*
D03*
X235957Y375000D02*
D03*
X239500D02*
D03*
X221543Y92000D02*
D03*
X218000D02*
D03*
X150043D02*
D03*
X146500D02*
D03*
X105000Y15000D02*
D03*
X101457D02*
D03*
X149500Y48500D02*
D03*
X145957D02*
D03*
X31500Y36000D02*
D03*
X27957D02*
D03*
X75000Y15000D02*
D03*
X71457D02*
D03*
X30000Y79500D02*
D03*
X26457D02*
D03*
D37*
X267185Y62082D02*
D03*
X271918Y66815D02*
D03*
X271082Y58185D02*
D03*
X275815Y62918D02*
D03*
D46*
X326937Y356653D02*
D03*
X324969D02*
D03*
X323000D02*
D03*
X321031D02*
D03*
X319063D02*
D03*
X326937Y338347D02*
D03*
X324969D02*
D03*
X323000D02*
D03*
X321031D02*
D03*
X319063D02*
D03*
D47*
X345382Y339894D02*
D03*
X347941D02*
D03*
X350500D02*
D03*
X353059D02*
D03*
X345382Y357807D02*
D03*
X347941D02*
D03*
X350500D02*
D03*
X353059D02*
D03*
D48*
X376437Y359661D02*
D03*
X374468D02*
D03*
X372500D02*
D03*
X370532D02*
D03*
X368563D02*
D03*
X376437Y342339D02*
D03*
X374468D02*
D03*
X372500D02*
D03*
X370532D02*
D03*
X368563D02*
D03*
D49*
X361339Y172937D02*
D03*
Y170968D02*
D03*
Y169000D02*
D03*
Y167032D02*
D03*
Y165063D02*
D03*
X378661Y172937D02*
D03*
Y170968D02*
D03*
Y169000D02*
D03*
Y167032D02*
D03*
Y165063D02*
D03*
D50*
X333130Y350000D02*
D03*
X336870D02*
D03*
X379000Y184500D02*
D03*
X375260D02*
D03*
X146130Y374000D02*
D03*
X149870D02*
D03*
X186260Y374500D02*
D03*
X190000D02*
D03*
X227260Y375000D02*
D03*
X231000D02*
D03*
X229870Y92000D02*
D03*
X226130D02*
D03*
X158500D02*
D03*
X154760D02*
D03*
X113000Y15000D02*
D03*
X109260D02*
D03*
X158000Y48500D02*
D03*
X154260D02*
D03*
X39870Y36000D02*
D03*
X36130D02*
D03*
X83370Y15000D02*
D03*
X79630D02*
D03*
X37870Y79500D02*
D03*
X34130D02*
D03*
X368870Y189000D02*
D03*
X365130D02*
D03*
X377630Y289000D02*
D03*
X381370D02*
D03*
X365260Y184500D02*
D03*
X369000D02*
D03*
X363740Y289000D02*
D03*
X360000D02*
D03*
X368760D02*
D03*
X372500D02*
D03*
X373370Y151000D02*
D03*
X369630D02*
D03*
X372870Y331500D02*
D03*
X369130D02*
D03*
X378870Y188500D02*
D03*
X375130D02*
D03*
X360630Y270000D02*
D03*
X364370D02*
D03*
X372870Y328000D02*
D03*
X369130D02*
D03*
X381370Y151000D02*
D03*
X377630D02*
D03*
X370760Y113000D02*
D03*
X374500D02*
D03*
X331260Y356000D02*
D03*
X335000D02*
D03*
X331260Y360000D02*
D03*
X335000D02*
D03*
X333130Y345500D02*
D03*
X336870D02*
D03*
X369740Y76500D02*
D03*
X366000D02*
D03*
Y263500D02*
D03*
X362260D02*
D03*
X314130Y382500D02*
D03*
X317870D02*
D03*
X318000Y377500D02*
D03*
X314260D02*
D03*
X317870Y367500D02*
D03*
X314130D02*
D03*
X355260D02*
D03*
X359000D02*
D03*
D51*
X368500Y46976D02*
D03*
X373500D02*
D03*
X378500D02*
D03*
X383500D02*
D03*
X368500Y69024D02*
D03*
X373500D02*
D03*
X378500D02*
D03*
X383500D02*
D03*
X364500Y120976D02*
D03*
X369500D02*
D03*
X374500D02*
D03*
X379500D02*
D03*
X364500Y143024D02*
D03*
X369500D02*
D03*
X374500D02*
D03*
X379500D02*
D03*
X377000Y319524D02*
D03*
X372000D02*
D03*
X367000D02*
D03*
X362000D02*
D03*
X377000Y297476D02*
D03*
X372000D02*
D03*
X367000D02*
D03*
X362000D02*
D03*
X364500Y233976D02*
D03*
X369500D02*
D03*
X374500D02*
D03*
X379500D02*
D03*
X364500Y256024D02*
D03*
X369500D02*
D03*
X374500D02*
D03*
X379500D02*
D03*
D52*
X346307Y76122D02*
D03*
Y74154D02*
D03*
Y72185D02*
D03*
Y70217D02*
D03*
Y68248D02*
D03*
Y66280D02*
D03*
Y64311D02*
D03*
Y62343D02*
D03*
Y60374D02*
D03*
Y58406D02*
D03*
Y56437D02*
D03*
Y54469D02*
D03*
Y52500D02*
D03*
Y50532D02*
D03*
Y48563D02*
D03*
Y46595D02*
D03*
Y44626D02*
D03*
Y42658D02*
D03*
Y40689D02*
D03*
Y38721D02*
D03*
Y36752D02*
D03*
Y34784D02*
D03*
Y32815D02*
D03*
Y30847D02*
D03*
Y28878D02*
D03*
X284693D02*
D03*
Y30847D02*
D03*
Y32815D02*
D03*
Y34784D02*
D03*
Y36752D02*
D03*
Y38721D02*
D03*
Y40689D02*
D03*
Y42658D02*
D03*
Y44626D02*
D03*
Y46595D02*
D03*
Y48563D02*
D03*
Y50532D02*
D03*
Y52500D02*
D03*
Y54469D02*
D03*
Y56437D02*
D03*
Y58406D02*
D03*
Y60374D02*
D03*
Y62343D02*
D03*
Y64311D02*
D03*
Y66280D02*
D03*
Y68248D02*
D03*
Y70217D02*
D03*
Y72185D02*
D03*
Y74154D02*
D03*
Y76122D02*
D03*
D53*
X339122Y21693D02*
D03*
X337154D02*
D03*
X335185D02*
D03*
X333217D02*
D03*
X331248D02*
D03*
X329279D02*
D03*
X327311D02*
D03*
X325342D02*
D03*
X323374D02*
D03*
X321406D02*
D03*
X319437D02*
D03*
X317469D02*
D03*
X315500D02*
D03*
X313531D02*
D03*
X311563D02*
D03*
X309594D02*
D03*
X307626D02*
D03*
X305658D02*
D03*
X303689D02*
D03*
X301720D02*
D03*
X299752D02*
D03*
X297783D02*
D03*
X295815D02*
D03*
X293847D02*
D03*
X291878D02*
D03*
Y83307D02*
D03*
X293847D02*
D03*
X295815D02*
D03*
X297783D02*
D03*
X299752D02*
D03*
X301720D02*
D03*
X303689D02*
D03*
X305658D02*
D03*
X307626D02*
D03*
X309594D02*
D03*
X311563D02*
D03*
X313531D02*
D03*
X315500D02*
D03*
X317469D02*
D03*
X319437D02*
D03*
X321406D02*
D03*
X323374D02*
D03*
X325342D02*
D03*
X327311D02*
D03*
X329279D02*
D03*
X331248D02*
D03*
X333217D02*
D03*
X335185D02*
D03*
X337154D02*
D03*
X339122D02*
D03*
D54*
X252508Y45043D02*
D03*
Y47602D02*
D03*
Y50161D02*
D03*
Y52720D02*
D03*
Y55279D02*
D03*
Y57839D02*
D03*
Y60398D02*
D03*
Y62957D02*
D03*
X228492Y45043D02*
D03*
Y47602D02*
D03*
Y50161D02*
D03*
Y52720D02*
D03*
Y55279D02*
D03*
Y57839D02*
D03*
Y60398D02*
D03*
Y62957D02*
D03*
D55*
X364382Y282240D02*
D03*
Y274760D02*
D03*
X374618Y278500D02*
D03*
X375618Y98760D02*
D03*
Y106240D02*
D03*
X365382Y102500D02*
D03*
D56*
X365000Y196378D02*
D03*
X370000D02*
D03*
X375000D02*
D03*
X380000D02*
D03*
X365000Y218622D02*
D03*
X370000D02*
D03*
X375000D02*
D03*
X380000D02*
D03*
D57*
X325378Y382500D02*
D03*
Y377500D02*
D03*
Y372500D02*
D03*
Y367500D02*
D03*
X347622Y382500D02*
D03*
Y377500D02*
D03*
Y372500D02*
D03*
Y367500D02*
D03*
D58*
X148697Y356642D02*
D03*
Y342075D02*
D03*
X150665Y356642D02*
D03*
Y342075D02*
D03*
X152634Y356642D02*
D03*
Y342075D02*
D03*
X154602Y356642D02*
D03*
Y342075D02*
D03*
X156571Y356642D02*
D03*
Y342075D02*
D03*
X158539Y356642D02*
D03*
Y342075D02*
D03*
X160508Y356642D02*
D03*
Y342075D02*
D03*
X162476Y356642D02*
D03*
Y342075D02*
D03*
X164445Y356642D02*
D03*
Y342075D02*
D03*
X166413Y356642D02*
D03*
Y342075D02*
D03*
X168382Y356642D02*
D03*
Y342075D02*
D03*
X170350Y356642D02*
D03*
Y342075D02*
D03*
X172319Y356642D02*
D03*
Y342075D02*
D03*
X174287Y356642D02*
D03*
Y342075D02*
D03*
X176256Y356642D02*
D03*
Y342075D02*
D03*
X178224Y356642D02*
D03*
Y342075D02*
D03*
X180193Y356642D02*
D03*
Y342075D02*
D03*
X182161Y356642D02*
D03*
Y342075D02*
D03*
X184130Y356642D02*
D03*
Y342075D02*
D03*
X186098Y356642D02*
D03*
Y342075D02*
D03*
X188067Y356642D02*
D03*
Y342075D02*
D03*
X190035Y356642D02*
D03*
Y342075D02*
D03*
X192004Y356642D02*
D03*
Y342075D02*
D03*
X193972Y356642D02*
D03*
Y342075D02*
D03*
X195941Y356642D02*
D03*
Y342075D02*
D03*
X197909Y356642D02*
D03*
Y342075D02*
D03*
X199878Y356642D02*
D03*
Y342075D02*
D03*
X201847Y356642D02*
D03*
Y342075D02*
D03*
X203815Y356642D02*
D03*
Y342075D02*
D03*
X205784Y356642D02*
D03*
Y342075D02*
D03*
X207752Y356642D02*
D03*
Y342075D02*
D03*
X209720Y356642D02*
D03*
Y342075D02*
D03*
X211689Y356642D02*
D03*
Y342075D02*
D03*
X213657Y356642D02*
D03*
Y342075D02*
D03*
X215626Y356642D02*
D03*
Y342075D02*
D03*
X217595Y356642D02*
D03*
Y342075D02*
D03*
X219563Y356642D02*
D03*
Y342075D02*
D03*
X221532Y356642D02*
D03*
Y342075D02*
D03*
X223500Y356642D02*
D03*
Y342075D02*
D03*
X225468Y356642D02*
D03*
Y342075D02*
D03*
X227437Y356642D02*
D03*
Y342075D02*
D03*
X229405Y356642D02*
D03*
Y342075D02*
D03*
X231374Y356642D02*
D03*
Y342075D02*
D03*
X233343Y356642D02*
D03*
Y342075D02*
D03*
X235311Y356642D02*
D03*
Y342075D02*
D03*
X237280Y356642D02*
D03*
Y342075D02*
D03*
X239248Y356642D02*
D03*
Y342075D02*
D03*
X241216Y356642D02*
D03*
Y342075D02*
D03*
X243185Y356642D02*
D03*
Y342075D02*
D03*
X245153Y356642D02*
D03*
Y342075D02*
D03*
X148697Y31051D02*
D03*
Y16484D02*
D03*
X150665Y31051D02*
D03*
Y16484D02*
D03*
X152634Y31051D02*
D03*
Y16484D02*
D03*
X154602Y31051D02*
D03*
Y16484D02*
D03*
X156571Y31051D02*
D03*
Y16484D02*
D03*
X158539Y31051D02*
D03*
Y16484D02*
D03*
X160508Y31051D02*
D03*
Y16484D02*
D03*
X162476Y31051D02*
D03*
Y16484D02*
D03*
X164445Y31051D02*
D03*
Y16484D02*
D03*
X166413Y31051D02*
D03*
Y16484D02*
D03*
X168382Y31051D02*
D03*
Y16484D02*
D03*
X170350Y31051D02*
D03*
Y16484D02*
D03*
X172319Y31051D02*
D03*
Y16484D02*
D03*
X174287Y31051D02*
D03*
Y16484D02*
D03*
X176256Y31051D02*
D03*
Y16484D02*
D03*
X178224Y31051D02*
D03*
Y16484D02*
D03*
X180193Y31051D02*
D03*
Y16484D02*
D03*
X182161Y31051D02*
D03*
Y16484D02*
D03*
X184130Y31051D02*
D03*
Y16484D02*
D03*
X186098Y31051D02*
D03*
Y16484D02*
D03*
X188067Y31051D02*
D03*
Y16484D02*
D03*
X190035Y31051D02*
D03*
Y16484D02*
D03*
X192004Y31051D02*
D03*
Y16484D02*
D03*
X193972Y31051D02*
D03*
Y16484D02*
D03*
X195941Y31051D02*
D03*
Y16484D02*
D03*
X197909Y31051D02*
D03*
Y16484D02*
D03*
X199878Y31051D02*
D03*
Y16484D02*
D03*
X201847Y31051D02*
D03*
Y16484D02*
D03*
X203815Y31051D02*
D03*
Y16484D02*
D03*
X205784Y31051D02*
D03*
Y16484D02*
D03*
X207752Y31051D02*
D03*
Y16484D02*
D03*
X209720Y31051D02*
D03*
Y16484D02*
D03*
X211689Y31051D02*
D03*
Y16484D02*
D03*
X213657Y31051D02*
D03*
Y16484D02*
D03*
X215626Y31051D02*
D03*
Y16484D02*
D03*
X217595Y31051D02*
D03*
Y16484D02*
D03*
X219563Y31051D02*
D03*
Y16484D02*
D03*
X221532Y31051D02*
D03*
Y16484D02*
D03*
X223500Y31051D02*
D03*
Y16484D02*
D03*
X225468Y31051D02*
D03*
Y16484D02*
D03*
X227437Y31051D02*
D03*
Y16484D02*
D03*
X229405Y31051D02*
D03*
Y16484D02*
D03*
X231374Y31051D02*
D03*
Y16484D02*
D03*
X233343Y31051D02*
D03*
Y16484D02*
D03*
X235311Y31051D02*
D03*
Y16484D02*
D03*
X237280Y31051D02*
D03*
Y16484D02*
D03*
X239248Y31051D02*
D03*
Y16484D02*
D03*
X241216Y31051D02*
D03*
Y16484D02*
D03*
X243185Y31051D02*
D03*
Y16484D02*
D03*
X245153Y31051D02*
D03*
Y16484D02*
D03*
D59*
X379012Y35374D02*
D03*
X14839Y33413D02*
D03*
X15626Y360579D02*
D03*
D60*
X362500Y335500D02*
D03*
Y339240D02*
D03*
X358000D02*
D03*
Y335500D02*
D03*
X358500Y349240D02*
D03*
Y345500D02*
D03*
X338500Y335630D02*
D03*
Y339370D02*
D03*
X334500D02*
D03*
Y335630D02*
D03*
X367000Y88760D02*
D03*
Y92500D02*
D03*
X371500D02*
D03*
Y88760D02*
D03*
X381500Y113240D02*
D03*
Y109500D02*
D03*
Y100760D02*
D03*
Y104500D02*
D03*
X274500Y74760D02*
D03*
Y78500D02*
D03*
D61*
X381000Y92587D02*
D03*
Y85500D02*
D03*
D62*
X353500Y67642D02*
D03*
Y71500D02*
D03*
Y80358D02*
D03*
Y76500D02*
D03*
X279000Y76000D02*
D03*
Y72142D02*
D03*
X354000Y40858D02*
D03*
Y37000D02*
D03*
X314000Y340000D02*
D03*
Y343858D02*
D03*
X369000Y36571D02*
D03*
Y40429D02*
D03*
X380000Y344358D02*
D03*
Y340500D02*
D03*
D63*
X317071Y89500D02*
D03*
X320929D02*
D03*
X314500Y14500D02*
D03*
X310642D02*
D03*
X232429Y67500D02*
D03*
X228571D02*
D03*
X380858Y177000D02*
D03*
X377000D02*
D03*
X378858Y227000D02*
D03*
X375000D02*
D03*
D64*
X383000Y77000D02*
D03*
X375716D02*
D03*
X380283Y266000D02*
D03*
X373000D02*
D03*
D65*
X265984Y74000D02*
D03*
X270000D02*
D03*
X265484Y51500D02*
D03*
X269500D02*
D03*
D66*
X209500Y40000D02*
X209720Y39779D01*
X186000Y349303D02*
X186098Y349205D01*
X184000Y342205D02*
X184065Y342270D01*
X184000Y347000D02*
X184065Y346935D01*
X184000Y342205D02*
X184130Y342075D01*
X182000Y349177D02*
X182161Y349016D01*
X221516Y16500D02*
Y20516D01*
X223000Y22000D01*
X237390Y20390D02*
X238500Y21500D01*
X237390Y16594D02*
Y20390D01*
X239248Y19748D02*
X241000Y21500D01*
X239248Y16484D02*
Y19748D01*
X241607Y19864D02*
X243243Y21500D01*
X243500D01*
X241607Y16875D02*
Y19864D01*
X241216Y16484D02*
X241607Y16875D01*
X237280Y16484D02*
X237390Y16594D01*
X235156Y16640D02*
X235311Y16484D01*
X235156Y16640D02*
Y21344D01*
X235000Y21500D02*
X235156Y21344D01*
X233343Y16484D02*
Y20286D01*
X232500Y21129D02*
X233343Y20286D01*
X232500Y21129D02*
Y21500D01*
X256500Y37000D02*
X259000Y34500D01*
X309000Y52500D02*
X310500D01*
X311563Y53563D01*
Y83307D01*
X306500Y50000D02*
X311000D01*
X313531Y52531D01*
Y83307D01*
X309500Y47500D02*
X324500D01*
X334000Y57000D01*
X301720Y83307D02*
Y88266D01*
X286500Y24500D02*
X299752Y37752D01*
X303539Y83158D02*
X303689Y83307D01*
X287000Y23500D02*
X301720Y38221D01*
X303539Y80064D02*
Y83158D01*
X299752Y83307D02*
Y86509D01*
Y37752D02*
Y83307D01*
X303500Y80025D02*
X303539Y80064D01*
X286000Y20869D02*
X303500Y38369D01*
X301720Y38221D02*
Y83307D01*
X303500Y38369D02*
Y80025D01*
X334000Y57000D02*
Y70000D01*
X336000Y72000D01*
X338000D01*
X339122Y73122D01*
X291500Y47000D02*
X295500Y51000D01*
Y68000D01*
X293284Y70217D02*
X295500Y68000D01*
X231374Y13126D02*
Y16484D01*
Y13126D02*
X233500Y11000D01*
X229500Y12500D02*
X231000Y11000D01*
X229405Y16484D02*
X229500Y16390D01*
Y12500D02*
Y16390D01*
X227437Y12206D02*
Y16484D01*
X228272Y11000D02*
Y11371D01*
X227437Y12206D02*
X228272Y11371D01*
X225468Y12531D02*
Y16484D01*
Y12531D02*
X225738Y12262D01*
Y11262D02*
X226000Y11000D01*
X225738Y11262D02*
Y12262D01*
X223500Y11000D02*
Y16484D01*
X221516Y16500D02*
X221532Y16484D01*
X212826Y12586D02*
X214495Y10917D01*
X211914Y12586D02*
X212826D01*
X214586Y12500D02*
X215500D01*
X214048Y13038D02*
X214586Y12500D01*
X214048Y13038D02*
Y16094D01*
X211500Y13000D02*
X211914Y12586D01*
X211500Y13000D02*
Y16295D01*
X211689Y16484D01*
X215626D02*
X216017Y16094D01*
Y13115D02*
Y16094D01*
Y13115D02*
X216631Y12500D01*
X218101D01*
X217000Y10914D02*
Y11000D01*
X215500Y12500D02*
X217000Y11000D01*
X219500D02*
Y11101D01*
X218101Y12500D02*
X219500Y11101D01*
X214495Y10917D02*
Y11005D01*
X213657Y16484D02*
X214048Y16094D01*
X211689Y14122D02*
X212080Y13732D01*
X211689Y14122D02*
Y16484D01*
X209720D02*
X210000Y16205D01*
Y13000D02*
X212000Y11000D01*
X210000Y13000D02*
Y16205D01*
X207752Y12748D02*
Y16484D01*
Y12748D02*
X209500Y11000D01*
X205784Y12217D02*
Y16484D01*
Y12217D02*
X207000Y11000D01*
X203815Y12056D02*
Y16484D01*
Y12056D02*
X204500Y11371D01*
Y11000D02*
Y11371D01*
X201847Y16484D02*
X201923Y16408D01*
Y11077D02*
Y16408D01*
Y11077D02*
X202000Y11000D01*
X199689Y16295D02*
X199878Y16484D01*
X199689Y11189D02*
Y16295D01*
X199500Y11000D02*
X199689Y11189D01*
X201847Y346847D02*
X203000Y348000D01*
X201847Y342075D02*
Y346847D01*
X199878Y347878D02*
X200000Y348000D01*
X199878Y342075D02*
Y347878D01*
X260000Y362000D02*
X263869D01*
X267734Y365866D01*
X306101D02*
X314100Y357866D01*
X267734Y365866D02*
X306101D01*
X314100Y353900D02*
Y357866D01*
Y353900D02*
X317500Y350500D01*
X324000D01*
X324969Y351468D01*
Y356653D01*
X316500Y356000D02*
Y363000D01*
X317870Y364370D01*
X268066Y365066D02*
X305769D01*
X261978Y358978D02*
X268066Y365066D01*
X256000Y351500D02*
Y369000D01*
X253000Y348500D02*
X256000Y351500D01*
Y369000D02*
X264500Y377500D01*
X248000Y348500D02*
X253000D01*
X264500Y377500D02*
X306957D01*
X326937Y356452D02*
Y356653D01*
Y350437D02*
Y356452D01*
X255000Y347000D02*
X272200Y364200D01*
X247500Y347000D02*
X255000D01*
X245000Y349500D02*
X247500Y347000D01*
X305503Y364200D02*
X312500Y357203D01*
X272200Y364200D02*
X305503D01*
X305769Y365066D02*
X313300Y357535D01*
Y353331D02*
Y357535D01*
Y353331D02*
X317131Y349500D01*
X326000D01*
X326937Y350437D01*
X312500Y353000D02*
X317000Y348500D01*
X327000D02*
X332000Y353500D01*
X317000Y348500D02*
X327000D01*
X323000Y347000D02*
X330130D01*
X317000D02*
X323000D01*
X324969Y338347D02*
Y345031D01*
X323000Y347000D02*
X324969Y345031D01*
X333130Y350000D02*
X334145Y351015D01*
X330130Y347000D02*
X333130Y350000D01*
X311500Y352500D02*
X317000Y347000D01*
X211500Y333500D02*
X216000Y329000D01*
X211500Y341886D02*
X211689Y342075D01*
X211500Y333500D02*
Y341886D01*
X213500Y334000D02*
Y342075D01*
X215500Y334500D02*
Y342075D01*
X217500Y334000D02*
Y342075D01*
X227500Y335500D02*
X229200Y333800D01*
X227437Y342075D02*
X227500Y342012D01*
Y335500D02*
Y342012D01*
X334000Y335500D02*
X338370D01*
X225468Y335531D02*
Y342075D01*
X245153Y340390D02*
Y342075D01*
Y340390D02*
X245544Y340000D01*
X209500Y333500D02*
X215000Y328000D01*
X209500Y333500D02*
Y341854D01*
X209720Y342075D01*
X207500Y333500D02*
Y342075D01*
Y333500D02*
X214000Y327000D01*
X356086Y182914D02*
X358586D01*
X360945Y180555D01*
Y172937D02*
Y180555D01*
X245153Y356642D02*
X245327Y356815D01*
Y361327D01*
X245500Y361500D01*
X243185Y356642D02*
X243342Y356799D01*
Y363342D01*
X243500Y363500D01*
X241216Y356642D02*
X241401Y356826D01*
Y361815D01*
X241586Y362000D01*
X239248Y356642D02*
Y362877D01*
X240000Y363629D01*
Y364000D01*
X237280Y356642D02*
X237390Y356752D01*
Y361890D01*
X237500Y362000D01*
X235311Y356642D02*
X235405Y356736D01*
Y363906D01*
X235500Y364000D01*
X233343Y356642D02*
X233421Y356720D01*
Y361921D01*
X233500Y362000D01*
X231374Y356642D02*
X231437Y356705D01*
Y363937D01*
X231500Y364000D01*
X229405Y356642D02*
X229453Y356689D01*
Y361953D01*
X229500Y362000D01*
X227437Y356642D02*
X227468Y356673D01*
Y363968D01*
X227500Y364000D01*
X225468Y356642D02*
X225484Y356658D01*
Y361984D01*
X225500Y362000D01*
X223500Y356642D02*
Y364500D01*
X221516Y356658D02*
X221532Y356642D01*
X221516Y356658D02*
Y362484D01*
X221500Y362500D02*
X221516Y362484D01*
X219531Y356673D02*
X219563Y356642D01*
X219531Y356673D02*
Y364469D01*
X219500Y364500D02*
X219531Y364469D01*
X217547Y356689D02*
X217595Y356642D01*
X217547Y356689D02*
Y362453D01*
X217500Y362500D02*
X217547Y362453D01*
X215563Y356705D02*
X215626Y356642D01*
X215563Y356705D02*
Y364437D01*
X215500Y364500D02*
X215563Y364437D01*
X213579Y356720D02*
X213657Y356642D01*
X213579Y356720D02*
Y362421D01*
X213500Y362500D02*
X213579Y362421D01*
X211689Y356642D02*
X211719Y356672D01*
Y364470D01*
X211750Y364500D01*
X209720Y356642D02*
X209860Y356782D01*
Y362360D01*
X210000Y362500D01*
X207752Y356642D02*
X207876Y356766D01*
Y364376D01*
X208000Y364500D01*
X205784Y356642D02*
X205892Y356750D01*
Y362392D01*
X206000Y362500D01*
X203815Y356642D02*
X203907Y356734D01*
Y364407D01*
X204000Y364500D01*
X201847Y356642D02*
X201923Y356718D01*
Y362423D01*
X202000Y362500D01*
X199878Y356642D02*
X199939Y356703D01*
Y364439D01*
X200000Y364500D01*
X197909Y356642D02*
X197955Y356687D01*
Y362455D01*
X198000Y362500D01*
X195941Y356642D02*
X195970Y356671D01*
Y364471D01*
X196000Y364500D01*
X193972Y356642D02*
X194029Y356698D01*
Y362443D01*
X194086Y362500D01*
X178500Y356642D02*
Y378500D01*
X176500Y356642D02*
Y379000D01*
X174500Y356642D02*
Y379500D01*
X158500Y356602D02*
X158539Y356642D01*
X158500Y351614D02*
Y356602D01*
X159121Y350621D02*
Y350992D01*
X158500Y351614D02*
X159121Y350992D01*
X156535Y356606D02*
X156571Y356642D01*
X156535Y352035D02*
Y356606D01*
X156500Y352000D02*
X156535Y352035D01*
X154551Y356591D02*
X154602Y356642D01*
X154551Y350051D02*
Y356591D01*
X154500Y350000D02*
X154551Y350051D01*
X152567Y356575D02*
X152634Y356642D01*
X152567Y352067D02*
Y356575D01*
X152500Y352000D02*
X152567Y352067D01*
X150583Y356559D02*
X150665Y356642D01*
X150583Y350083D02*
Y356559D01*
X150500Y350000D02*
X150583Y350083D01*
X148598Y356543D02*
X148697Y356642D01*
X148598Y352098D02*
Y356543D01*
X148500Y352000D02*
X148598Y352098D01*
X156000Y349000D02*
X158500D01*
X113000Y347500D02*
X154500D01*
X156000Y349000D01*
X71500Y348000D02*
X71789Y348289D01*
Y351789D01*
X75000Y355000D01*
X105500D01*
X113000Y347500D01*
X156399Y346000D02*
X157162Y346764D01*
X157264D02*
X157379Y346879D01*
X157162Y346764D02*
X157264D01*
X158500Y349000D02*
X160500Y347000D01*
X51500Y342500D02*
Y348000D01*
Y342500D02*
X57500Y336500D01*
X110500D01*
X120000Y346000D01*
X156399D01*
X156535Y342039D02*
X156571Y342075D01*
X156535Y337035D02*
Y342039D01*
X156500Y337000D02*
X156535Y337035D01*
X172319Y342075D02*
X172409Y341984D01*
Y337090D02*
Y341984D01*
Y337090D02*
X172500Y337000D01*
X170350Y342075D02*
X170425Y342000D01*
Y335761D02*
Y342000D01*
Y335761D02*
X170500Y335686D01*
X168382Y342075D02*
X168441Y342016D01*
Y337059D02*
Y342016D01*
Y337059D02*
X168500Y337000D01*
X166413Y342075D02*
X166563Y341925D01*
Y334650D02*
Y341925D01*
Y334650D02*
X166713Y334500D01*
X164445Y342075D02*
X164472Y342047D01*
X162476Y342075D02*
X162488Y342063D01*
Y335512D02*
Y342063D01*
Y335512D02*
X162500Y335500D01*
X160504Y342071D02*
X160508Y342075D01*
X160504Y337004D02*
Y342071D01*
X160500Y337000D02*
X160504Y337004D01*
X158520Y342055D02*
X158539Y342075D01*
X158520Y335520D02*
Y342055D01*
X158500Y335500D02*
X158520Y335520D01*
X156500Y337000D02*
Y337500D01*
X154551Y342024D02*
X154602Y342075D01*
X154551Y335551D02*
Y342024D01*
X154500Y335500D02*
X154551Y335551D01*
X152567Y342008D02*
X152634Y342075D01*
X152567Y337067D02*
Y342008D01*
X152500Y337000D02*
X152567Y337067D01*
X150583Y341992D02*
X150665Y342075D01*
X150583Y335583D02*
Y341992D01*
X150500Y335500D02*
X150583Y335583D01*
X148598Y341976D02*
X148697Y342075D01*
X148598Y337098D02*
Y341976D01*
X148500Y337000D02*
X148598Y337098D01*
X213500Y334000D02*
X217500Y330000D01*
X215500Y334500D02*
X219000Y331000D01*
X217500Y334000D02*
X219500Y332000D01*
X256972Y345472D02*
X274500Y363000D01*
X244500Y348000D02*
X247028Y345472D01*
X256972D01*
X358000Y335500D02*
X362500D01*
X355091D02*
X358000D01*
X225468Y335531D02*
X228000Y333000D01*
X252508Y57500D02*
X254000D01*
X254169Y57669D01*
X258831D01*
X259000Y57500D01*
X256500Y44000D02*
X277000D01*
X252508Y45043D02*
X252770Y44781D01*
X255719D01*
X256500Y44000D01*
X257076Y50424D02*
X260500Y47000D01*
X254576Y50424D02*
X257076D01*
X252508Y52500D02*
X258000D01*
X254000Y55500D02*
X256500D01*
X252508Y60500D02*
X259000D01*
X278500Y38500D02*
X278720Y38721D01*
X284693D01*
X290342Y42658D02*
X290500Y42500D01*
X284693Y42658D02*
X290342D01*
X292874Y44626D02*
X293000Y44500D01*
X284693Y44626D02*
X292874D01*
X221000Y55500D02*
X229000D01*
X219500Y52500D02*
X228500D01*
X215500Y47500D02*
X228500D01*
X215000Y45000D02*
X228500D01*
X362000Y94000D02*
X363705Y92295D01*
X353835Y98985D02*
Y183335D01*
Y98985D02*
X364060Y88760D01*
X363705Y92000D02*
Y92295D01*
X364060Y88760D02*
X367000D01*
X353835Y183335D02*
X355000Y184500D01*
X365260D01*
X229870Y92000D02*
X234000D01*
X296500Y5000D02*
X303000D01*
X306500Y8500D01*
Y16000D01*
X307626Y17126D01*
Y21693D01*
X303500Y9500D02*
X305658Y11658D01*
Y21693D01*
X303500Y13000D02*
X303689Y13189D01*
Y21693D01*
X299000Y13000D02*
X299752Y13752D01*
X301500Y15500D02*
X301720Y15721D01*
Y21693D01*
X299752Y13752D02*
Y21693D01*
X296000Y13000D02*
X297783Y14784D01*
Y21693D01*
X290000Y12500D02*
X293847Y16346D01*
X293000Y13000D02*
X295815Y15815D01*
Y21693D01*
X293847Y16346D02*
Y21693D01*
X259500Y10000D02*
Y10500D01*
X266000Y17000D01*
Y31000D01*
X289500Y15500D02*
X291878Y17878D01*
Y21693D01*
X271409Y19535D02*
Y19535D01*
X272743Y20869D01*
X286000D01*
X245500Y10414D02*
Y16138D01*
X279513Y28013D02*
X280378Y28878D01*
X279500Y28013D02*
X279513D01*
X280378Y28878D02*
X284693D01*
X277000Y26000D02*
X286500D01*
X271500Y31500D02*
X277000Y26000D01*
X286500D02*
X297783Y37284D01*
X271500Y31500D02*
Y32000D01*
X271000Y29000D02*
X275500Y24500D01*
X286500D01*
X270069Y25932D02*
X272500Y23500D01*
X287000D01*
X245153Y16484D02*
X245500Y16138D01*
X162500Y6914D02*
Y10000D01*
X278500Y30500D02*
X278847Y30847D01*
X284693D01*
X278500Y33000D02*
X278685Y32815D01*
X284693D01*
X270187Y18313D02*
X271409Y19535D01*
X277000Y35000D02*
X277217Y34784D01*
X284693D01*
Y36752D02*
X290252D01*
X292811Y40689D02*
X293000Y40500D01*
X284693Y40689D02*
X292811D01*
X340500Y29000D02*
X340622Y28878D01*
X154500Y9500D02*
X159000Y5000D01*
X251000D02*
X262500Y16500D01*
X159000Y5000D02*
X251000D01*
X160508Y11992D02*
Y16484D01*
Y11992D02*
X162500Y10000D01*
X333000Y75000D02*
Y75500D01*
X333217Y75717D01*
Y83307D01*
X159500Y10000D02*
Y10180D01*
X158539Y11141D02*
X159500Y10180D01*
X158539Y11141D02*
Y16484D01*
X245153Y31051D02*
Y35654D01*
X246500Y37000D01*
X256500D01*
X243185Y31051D02*
Y36314D01*
X244000Y37129D01*
Y37500D01*
X241216Y31051D02*
X241358Y31193D01*
Y37358D01*
X241500Y37500D01*
X266000Y31000D02*
X275689Y40689D01*
X297783Y37284D02*
Y83307D01*
X262500Y32500D02*
X272657Y42658D01*
X262500Y16500D02*
Y32500D01*
X174500Y379500D02*
X182600Y387600D01*
X356794D01*
X176500Y379000D02*
X184300Y386800D01*
X356463D01*
X178500Y378500D02*
X186000Y386000D01*
X356131D01*
X141500Y374000D02*
X146130D01*
X182500Y374500D02*
X186260D01*
X308750Y380000D02*
X308875Y380125D01*
X192500Y380000D02*
X308750D01*
X239686Y374814D02*
X243000D01*
X239500Y375000D02*
X239686Y374814D01*
X211500Y365000D02*
X211750Y364750D01*
Y364500D02*
Y364750D01*
X223000Y375000D02*
X227260D01*
X189500Y58000D02*
Y82000D01*
X179500Y85000D02*
X186500D01*
X189500Y82000D01*
X166672Y334500D02*
X166713D01*
X158262Y374000D02*
X161500D01*
X149870D02*
X154718D01*
X199000Y374500D02*
X203000D01*
X190000D02*
X195457D01*
X231000Y375000D02*
X235957D01*
X367100Y369900D02*
Y377294D01*
X356794Y387600D02*
X367100Y377294D01*
X356463Y386800D02*
X366300Y376963D01*
X367100Y369900D02*
X369000Y368000D01*
X366300Y369266D02*
Y376963D01*
X314130Y383630D02*
X315700Y385200D01*
X355800D02*
X364500Y376500D01*
X315700Y385200D02*
X355800D01*
X356131Y386000D02*
X365500Y376631D01*
X190234Y382500D02*
X314130D01*
Y383630D01*
X365500Y368934D02*
Y376631D01*
X358997Y377497D02*
X359000Y377495D01*
Y373000D02*
Y377495D01*
X364500Y357500D02*
Y376500D01*
X359000Y373000D02*
X362000Y370000D01*
X359500Y380000D02*
X363600Y375900D01*
X336500Y380000D02*
X359500D01*
X363600Y357163D02*
Y375900D01*
X361500Y375000D02*
X362800Y373700D01*
X357682Y370682D02*
X357818D01*
X359000Y369500D01*
X347721Y356850D02*
Y361763D01*
X309457Y375000D02*
X309500D01*
X306957Y377500D02*
X309457Y375000D01*
X310000Y368500D02*
X311000Y367500D01*
X309500Y374629D02*
Y375000D01*
Y374629D02*
X310000Y374129D01*
Y368500D02*
Y374129D01*
X329914Y335383D02*
Y341414D01*
X331000Y342500D02*
X342500D01*
X329914Y341414D02*
X331000Y342500D01*
X332000Y339000D02*
X333000D01*
X331500Y339500D02*
X332000Y339000D01*
X328331Y333800D02*
X329914Y335383D01*
X229200Y333800D02*
X328331Y333800D01*
X333000Y339000D02*
X334000Y340000D01*
X329000Y335600D02*
Y342000D01*
X330300Y343300D01*
X341300D01*
X328000Y334600D02*
X329000Y335600D01*
X338500Y339370D02*
X341456D01*
X341500Y339414D01*
X341000Y346500D02*
Y346586D01*
X335000Y348000D02*
X340205D01*
X342200Y349995D01*
Y349995D01*
X342586Y350380D01*
X340000Y345500D02*
X341000Y346500D01*
X336870Y345500D02*
X340000D01*
X342586Y350380D02*
Y367090D01*
X343500Y345500D02*
Y365347D01*
X345654Y367500D01*
X341300Y343300D02*
X343500Y345500D01*
X344300Y348800D02*
X347000Y351500D01*
X344300Y344300D02*
Y348800D01*
X342500Y342500D02*
X344300Y344300D01*
X345654Y367500D02*
X355260D01*
X339766Y350000D02*
X340392Y350626D01*
X340589D02*
X340656Y350693D01*
X340392Y350626D02*
X340589D01*
X347000Y351500D02*
X360500D01*
X345496Y370000D02*
X352000D01*
X342586Y367090D02*
X345496Y370000D01*
X339131Y352500D02*
X341000Y354369D01*
X335000Y352500D02*
X339131D01*
X339000Y353500D02*
X340000Y354500D01*
X332000Y353500D02*
X339000D01*
X340000Y354500D02*
Y374689D01*
X341000Y354369D02*
Y370500D01*
X336870Y350000D02*
X339766D01*
X334145Y351645D02*
X335000Y352500D01*
Y356000D02*
X335086Y356086D01*
X337914D01*
X348500Y332000D02*
X353035Y327465D01*
Y89111D02*
Y327465D01*
X219500Y332000D02*
X348500D01*
X348000Y331000D02*
X352235Y326765D01*
X219000Y331000D02*
X348000D01*
X352235Y88780D02*
Y326765D01*
X350635Y88117D02*
Y326103D01*
X351435Y88448D02*
Y326434D01*
X349035Y324000D02*
Y325440D01*
X214000Y327000D02*
X347475D01*
X217500Y330000D02*
X347869D01*
X347475Y327000D02*
X349035Y325440D01*
X347606Y328000D02*
X349835Y325771D01*
X347737Y329000D02*
X350635Y326103D01*
X347869Y330000D02*
X351435Y326434D01*
X216000Y329000D02*
X347737D01*
X349835Y87786D02*
Y325771D01*
X215000Y328000D02*
X347606D01*
X340000Y374689D02*
X342811Y377500D01*
X341000Y370500D02*
X343000Y372500D01*
X311500Y377500D02*
X314260D01*
X308875Y380125D02*
X311500Y377500D01*
X362500Y341500D02*
X363250Y342250D01*
X362500Y339240D02*
Y341500D01*
X370870Y325000D02*
X371906Y326036D01*
Y327036D02*
X372870Y328000D01*
X371906Y326036D02*
Y327036D01*
X367500Y337500D02*
X371500D01*
X372460Y341905D02*
X372500Y341945D01*
X372460Y338460D02*
Y341905D01*
X371500Y337500D02*
X372460Y338460D01*
X366500Y338500D02*
Y342000D01*
Y338500D02*
X367500Y337500D01*
X365391Y333522D02*
X368569Y336700D01*
X365000Y332000D02*
X368900Y335900D01*
X382200Y336700D02*
X385000Y339500D01*
X368900Y335900D02*
X382531D01*
X385800Y339169D01*
X371000Y334043D02*
Y334314D01*
X368569Y336700D02*
X382200D01*
X363522Y333522D02*
X365391D01*
X365000Y330500D02*
Y332000D01*
X353900Y323900D02*
X363522Y333522D01*
X385800Y339169D02*
Y348443D01*
X385000Y339500D02*
Y344682D01*
X383500Y346182D02*
X385000Y344682D01*
X384157Y350086D02*
X385800Y348443D01*
X357000Y322500D02*
X365000Y330500D01*
X357000Y312500D02*
Y322500D01*
X371000Y334043D02*
X371692Y333351D01*
Y332178D02*
Y333351D01*
Y332178D02*
X372370Y331500D01*
X364500Y344000D02*
X366500Y342000D01*
X362500Y344000D02*
X364500D01*
X360500Y342000D02*
X362500Y344000D01*
X358500Y342000D02*
X360500D01*
X358000Y341500D02*
X358500Y342000D01*
X371557Y364614D02*
X371691D01*
X374500Y346500D02*
Y346614D01*
X374468Y341945D02*
Y346468D01*
X374500Y346500D01*
X369000Y368000D02*
X377500D01*
X381500Y364000D01*
X376364Y364614D02*
X376400Y364578D01*
X366300Y369266D02*
X368566Y367000D01*
X365500Y368934D02*
X368234Y366200D01*
X372500Y360055D02*
Y363805D01*
X377037Y366200D02*
X379500Y363737D01*
X376400Y360092D02*
X376437Y360055D01*
X371691Y364614D02*
X372500Y363805D01*
X368566Y367000D02*
X377369D01*
X368234Y366200D02*
X377037D01*
X377369Y367000D02*
X380528Y363840D01*
X376400Y360092D02*
Y364578D01*
X212379Y326121D02*
X347144D01*
X203815Y333185D02*
X211679Y325322D01*
X203815Y333185D02*
Y342075D01*
X205500Y333000D02*
X212379Y326121D01*
X211679Y325322D02*
X346812D01*
X205500Y333000D02*
Y341791D01*
X347144Y326121D02*
X348191Y325075D01*
X348191Y323500D02*
X348191D01*
Y325075D01*
X347391Y103453D02*
Y324743D01*
X346812Y325322D02*
X347391Y324743D01*
X308000Y354000D02*
X309500Y355500D01*
X308000Y338000D02*
Y354000D01*
X309000Y337000D02*
X318611D01*
X308000Y338000D02*
X309000Y337000D01*
X319063Y337452D02*
Y338347D01*
X318611Y337000D02*
X319063Y337452D01*
X311500Y352500D02*
Y357072D01*
X312500Y353000D02*
Y357203D01*
X305572Y363000D02*
X311500Y357072D01*
X274500Y363000D02*
X305572D01*
X310500Y344500D02*
X311142Y343858D01*
X314000D02*
X314358Y343500D01*
X317870Y364370D02*
Y367500D01*
X342811Y377500D02*
X347622D01*
X334145Y351015D02*
Y351645D01*
X330500Y363000D02*
X333500Y366000D01*
X332500Y382500D02*
X333500Y381500D01*
Y366000D02*
Y381500D01*
X322000Y363000D02*
X330500D01*
X321000Y356685D02*
Y362000D01*
X322000Y363000D01*
X325378Y377500D02*
X329500D01*
X331500Y375500D01*
Y366500D02*
Y375500D01*
X329500Y364500D02*
X331500Y366500D01*
X320500Y364500D02*
X329500D01*
X319063Y356653D02*
Y363063D01*
X320500Y364500D01*
X321000Y356685D02*
X321031Y356653D01*
X325378Y382500D02*
X332500D01*
X343000Y372500D02*
X347622D01*
X373359Y350500D02*
X379500D01*
X368563Y345704D02*
X373359Y350500D01*
X368563Y341945D02*
Y345704D01*
X311000Y367500D02*
X314130D01*
X326000Y361000D02*
X328000D01*
X325004Y356689D02*
Y360004D01*
X324969Y356653D02*
X325004Y356689D01*
Y360004D02*
X326000Y361000D01*
X357560Y365000D02*
X358415Y365855D01*
X350958Y365000D02*
X357560D01*
X358415Y366915D02*
X359000Y367500D01*
X358415Y365855D02*
Y366915D01*
X347721Y361763D02*
X350958Y365000D01*
X359000Y367500D02*
Y369500D01*
X383500Y346182D02*
Y348500D01*
X335000Y363000D02*
X335084Y362916D01*
Y362584D02*
Y362916D01*
X335000Y362500D02*
X335084Y362584D01*
X335000Y360000D02*
Y362500D01*
X388614Y354886D02*
Y355129D01*
X382183Y350086D02*
X384157D01*
X379769Y352500D02*
X382183Y350086D01*
X386600Y336969D02*
Y348774D01*
X384488Y350886D02*
X386600Y348774D01*
X387400Y336637D02*
Y349105D01*
X384820Y351686D02*
X387400Y349105D01*
X388200Y336306D02*
Y349437D01*
X385151Y352486D02*
X388200Y349437D01*
X389000Y335975D02*
Y349768D01*
X385482Y353286D02*
X389000Y349768D01*
X389800Y335643D02*
Y350099D01*
X385814Y354086D02*
X389800Y350099D01*
X390600Y335312D02*
Y350431D01*
X386145Y354886D02*
X390600Y350431D01*
X380794Y356000D02*
X383508Y353286D01*
X380663Y355000D02*
X383177Y352486D01*
X384483Y354886D02*
X386145D01*
X380528Y358840D02*
X384483Y354886D01*
X384151Y354086D02*
X385814D01*
X379500Y358737D02*
X384151Y354086D01*
X383508Y353286D02*
X385482D01*
X383177Y352486D02*
X385151D01*
X382845Y351686D02*
X384820D01*
X380431Y354100D02*
X382845Y351686D01*
X382514Y350886D02*
X384488D01*
X380100Y353300D02*
X382514Y350886D01*
X389180Y333892D02*
X390600Y335312D01*
X387500Y333343D02*
X389800Y335643D01*
X377000Y325106D02*
X388200Y336306D01*
X375120Y324358D02*
X387400Y336637D01*
X374000Y324369D02*
X386600Y336969D01*
X379500Y358737D02*
Y363737D01*
X380528Y358840D02*
Y363840D01*
X391800Y335380D02*
Y351700D01*
X388614Y354886D02*
X391800Y351700D01*
X392660Y335109D02*
Y354840D01*
X321144Y89715D02*
X321183Y89675D01*
X386700Y333675D02*
X389000Y335975D01*
X389980Y333560D02*
X391800Y335380D01*
X354000Y192500D02*
Y242928D01*
X353900Y243028D02*
X354000Y242928D01*
X353900Y243028D02*
Y323900D01*
X357500Y189000D02*
X365130D01*
X354000Y192500D02*
X357500Y189000D01*
X364500Y357500D02*
X366000Y356000D01*
X362800Y356831D02*
Y373700D01*
X362000Y356500D02*
Y370000D01*
X363600Y357163D02*
X365763Y355000D01*
X362800Y356831D02*
X365531Y354100D01*
X362000Y356500D02*
X365200Y353300D01*
X383500Y357000D02*
X390500D01*
X381500Y359000D02*
Y364000D01*
Y359000D02*
X383500Y357000D01*
X390500D02*
X392660Y354840D01*
X374244Y360280D02*
Y364330D01*
X374000Y364573D02*
X374244Y364330D01*
X387500Y315500D02*
X387500Y163000D01*
X387500Y315500D02*
Y333343D01*
X377630Y153130D02*
X387500Y163000D01*
X365531Y354100D02*
X380431D01*
X352500Y352500D02*
X379769D01*
X365200Y353300D02*
X380100D01*
X366000Y356000D02*
X380794D01*
X365763Y355000D02*
X380663D01*
X374244Y360280D02*
X374468Y360055D01*
X350667Y354333D02*
X352500Y352500D01*
X350667Y354333D02*
Y358034D01*
X350500Y358201D02*
X350667Y358034D01*
X360500Y351500D02*
X361500Y350500D01*
X321500Y334600D02*
X328000D01*
X321031Y338347D02*
X321219Y338159D01*
Y334881D02*
Y338159D01*
Y334881D02*
X321500Y334600D01*
X333500Y346500D02*
X335000Y348000D01*
X361500Y344500D02*
Y350500D01*
X360000Y343000D02*
X361500Y344500D01*
X356500Y343000D02*
X360000D01*
X353059Y339500D02*
Y340453D01*
X353874Y341268D01*
X354768D01*
X356500Y343000D01*
X334000Y335402D02*
Y335500D01*
X332921Y334322D02*
X334000Y335402D01*
X332822Y334322D02*
X332921D01*
X331500Y333000D02*
X332822Y334322D01*
X228000Y333000D02*
X331500D01*
X329000Y360000D02*
X331260D01*
X328000Y361000D02*
X329000Y360000D01*
X327389Y356000D02*
X331260D01*
X326937Y356452D02*
X327389Y356000D01*
X368563Y360055D02*
X370532D01*
X377000Y319524D02*
Y325106D01*
X389180Y162680D02*
Y333892D01*
X386700Y164700D02*
Y333675D01*
X377000Y312500D02*
Y319524D01*
X375120Y312620D02*
Y324358D01*
X374000Y313000D02*
Y324369D01*
X390780Y158780D02*
Y333229D01*
X389980Y160480D02*
Y333560D01*
X390780Y333229D02*
X392660Y335109D01*
X369000Y306500D02*
X375120Y312620D01*
X385000Y158500D02*
X389180Y162680D01*
X387000Y157500D02*
X389980Y160480D01*
X389000Y157000D02*
X390780Y158780D01*
X378500Y156500D02*
X386700Y164700D01*
X367000Y297476D02*
Y306000D01*
X374000Y313000D01*
X369000Y289240D02*
Y306500D01*
X370000Y305500D02*
X377000Y312500D01*
X370000Y293500D02*
Y305500D01*
X387000Y141500D02*
Y157500D01*
X372000Y126500D02*
X387000Y141500D01*
X372000Y116500D02*
Y126500D01*
X370760Y113000D02*
Y115260D01*
X372000Y116500D01*
X389000Y141000D02*
Y157000D01*
X374500Y126500D02*
X389000Y141000D01*
X370000Y129500D02*
X372500D01*
X385000Y142000D02*
Y158500D01*
X372500Y129500D02*
X385000Y142000D01*
X377000Y137500D02*
Y146500D01*
X365500Y131000D02*
X370500D01*
X377000Y137500D01*
X252465Y63000D02*
X252508Y62957D01*
X232429Y70929D02*
X232500Y71000D01*
X228492Y67421D02*
X228571Y67500D01*
X37870Y79500D02*
X42500D01*
X39870Y36000D02*
X44500D01*
X83370Y15000D02*
X87500D01*
X113000D02*
X117000D01*
X158000Y48500D02*
X162000D01*
Y93500D02*
X162500D01*
X158500Y92000D02*
X160500D01*
X162000Y93500D01*
X358000Y339240D02*
Y341500D01*
X362000Y297476D02*
Y307500D01*
X357000Y312500D02*
X362000Y307500D01*
X347622Y377500D02*
X352000D01*
X353500Y376000D01*
Y371500D02*
Y376000D01*
X352000Y370000D02*
X353500Y371500D01*
X362000Y317000D02*
Y319524D01*
X368630Y325130D02*
Y330500D01*
X367000Y323500D02*
X368630Y325130D01*
X384000Y286500D02*
Y304000D01*
X376000Y285000D02*
X382500D01*
X384000Y286500D01*
X381000Y307000D02*
X384000Y304000D01*
X375000Y307000D02*
X381000D01*
X372000Y304000D02*
X375000Y307000D01*
X376500Y297976D02*
X377000Y297476D01*
X372000D02*
Y304000D01*
Y315101D02*
Y319524D01*
X371000Y314101D02*
X372000Y315101D01*
X371000Y314000D02*
Y314101D01*
X372402Y289000D02*
X372500D01*
X371322Y287920D02*
X372402Y289000D01*
X371322Y286322D02*
Y287920D01*
X371000Y286000D02*
X371322Y286322D01*
X368760Y289000D02*
X369000Y289240D01*
X371500Y292000D02*
X380000D01*
X370000Y293500D02*
X371500Y292000D01*
X371379Y251379D02*
Y254816D01*
X371000Y251000D02*
X371379Y251379D01*
Y254816D02*
X372788Y256224D01*
X374300D02*
X374500Y256024D01*
X372788Y256224D02*
X374300D01*
X385500Y169500D02*
Y274500D01*
X369500Y276000D02*
X384000D01*
X385500Y274500D01*
X367000Y278500D02*
X369500Y276000D01*
X364000Y270370D02*
X364370Y270000D01*
X371086Y229057D02*
X371143Y229000D01*
X371500D01*
X374500Y227500D02*
X375000Y227000D01*
X358000Y222000D02*
X361500Y225500D01*
X370500D02*
X372500Y223500D01*
X361500Y225500D02*
X370500D01*
X365000Y292500D02*
X365793Y293293D01*
X366587Y294087D02*
Y297063D01*
X367000Y297476D01*
X365793Y293293D02*
X365793D01*
X366587Y294087D01*
X357000Y291000D02*
X358500Y292500D01*
X365000D01*
X357000Y279000D02*
Y291000D01*
X361240Y274760D02*
X364382D01*
X357000Y279000D02*
X361240Y274760D01*
X353035Y89111D02*
X361786Y80360D01*
X352235Y88780D02*
X360986Y80028D01*
X351435Y88448D02*
X360186Y79697D01*
X350635Y88117D02*
X359386Y79366D01*
X349835Y87786D02*
X358586Y79034D01*
X349035Y324000D02*
X349035Y102834D01*
X345287Y99086D02*
X349035Y102834D01*
X140086Y99086D02*
X345287D01*
X348191Y323500D02*
X348191Y103121D01*
X346069Y101000D02*
X348191Y103121D01*
X133000Y101000D02*
X346069D01*
X377630Y151000D02*
Y153130D01*
X374500Y120976D02*
Y126500D01*
X358000Y215500D02*
Y222000D01*
X372500Y223500D02*
X376500D01*
X377500Y222500D01*
Y207500D02*
Y222500D01*
X372500Y191500D02*
Y202500D01*
X377500Y207500D01*
X372000Y171000D02*
Y191000D01*
X372500Y191500D01*
X356214Y180000D02*
X357500D01*
X367000Y126500D02*
X370000Y129500D01*
X367000Y117500D02*
Y126500D01*
X366500Y117000D02*
X367000Y117500D01*
X366500Y107500D02*
Y117000D01*
X371500Y102500D02*
X378000D01*
X366500Y107500D02*
X371500Y102500D01*
X379740Y100760D02*
X381500D01*
X378000Y102500D02*
X379740Y100760D01*
X368000Y108500D02*
X370260Y106240D01*
X368000Y116000D02*
X369087Y117087D01*
X368000Y108500D02*
Y116000D01*
X364500Y103382D02*
X365382Y102500D01*
X364500Y103382D02*
Y120976D01*
X379024Y171000D02*
X379055Y170968D01*
X372000Y171000D02*
X379024D01*
X368000Y164500D02*
Y167000D01*
X372000Y171000D01*
X358000Y160000D02*
X363500D01*
X368000Y164500D01*
X356500Y174500D02*
X358453Y176453D01*
Y179046D01*
X357500Y180000D02*
X358453Y179046D01*
X356500Y171500D02*
Y174500D01*
X357031Y170968D02*
X360945D01*
X356500Y171500D02*
X357031Y170968D01*
X355500Y176399D02*
X356500Y177399D01*
X355500Y170000D02*
Y176399D01*
Y170000D02*
X356500Y169000D01*
X360945D01*
X369500Y156500D02*
X378500D01*
X367000Y154000D02*
X369500Y156500D01*
X367000Y147591D02*
Y154000D01*
X357000Y162500D02*
X358000D01*
X356500Y163000D02*
X357000Y162500D01*
X356500Y163000D02*
Y166500D01*
X357031Y167032D02*
X360945D01*
X356500Y166500D02*
X357031Y167032D01*
X358586Y45283D02*
Y79034D01*
X370000Y218622D02*
Y220590D01*
X381000Y148571D02*
Y150500D01*
X380614Y148336D02*
X380849Y148571D01*
X381000D01*
X380221Y201122D02*
X380442Y201343D01*
X380000Y196378D02*
X380221Y196599D01*
X360000Y280500D02*
Y289000D01*
X362000Y278500D02*
X367000D01*
X360000Y280500D02*
X362000Y278500D01*
X383032Y167032D02*
X385500Y169500D01*
X379055Y167032D02*
X383032D01*
X380000Y191500D02*
X380286D01*
X380000Y182186D02*
X380186Y182000D01*
X380000Y182186D02*
Y182871D01*
X377543Y172937D02*
X379055D01*
X377000Y173480D02*
X377543Y172937D01*
X367000Y147591D02*
X369500Y145091D01*
X378870Y188500D02*
Y190370D01*
X380000Y191500D01*
X373370Y151000D02*
X377630D01*
X376000Y87000D02*
X376104Y86896D01*
Y86748D02*
Y86896D01*
X379500Y120976D02*
Y123043D01*
X362000Y94000D02*
Y127500D01*
X365500Y131000D01*
X378000Y146500D02*
X379500Y145000D01*
X377630Y151000D02*
X378000Y150630D01*
Y146500D02*
Y150630D01*
X379500Y143024D02*
Y145000D01*
X370000Y148000D02*
X375500D01*
X377000Y146500D01*
X369630Y148370D02*
Y151000D01*
Y148370D02*
X370000Y148000D01*
X369500Y143024D02*
Y145091D01*
Y143024D02*
X374500D01*
X366500Y92000D02*
X367000Y92500D01*
X358586Y45283D02*
X361200Y42669D01*
X359386Y45614D02*
Y79366D01*
Y45614D02*
X362000Y43000D01*
X360186Y45946D02*
Y79697D01*
Y45946D02*
X362800Y43331D01*
X360986Y46277D02*
Y80028D01*
Y46277D02*
X363600Y43663D01*
X361786Y46608D02*
Y80360D01*
Y46608D02*
X364400Y43994D01*
X369000Y40429D02*
X369571Y41000D01*
X378500Y46976D02*
X378587Y46889D01*
X368500Y40929D02*
X369000Y40429D01*
X375000Y52500D02*
Y53000D01*
X352839Y337752D02*
X355091Y335500D01*
X352839Y337752D02*
Y338150D01*
X344526Y8500D02*
X364400Y28374D01*
Y43994D01*
X309500Y8500D02*
X344526D01*
X308000Y10000D02*
X309500Y8500D01*
X313500Y28000D02*
X313531Y27968D01*
X310500Y14358D02*
X310642Y14500D01*
X308000Y10000D02*
Y16000D01*
X309594Y17594D02*
Y21693D01*
X308000Y16000D02*
X309594Y17594D01*
X310642Y14500D02*
X311563Y15421D01*
X313531Y15469D02*
X314500Y14500D01*
X368500Y69024D02*
Y69671D01*
X367503Y70669D02*
X368500Y69671D01*
X344494Y9600D02*
X363600Y28706D01*
Y43663D01*
X343831Y11200D02*
X362000Y29369D01*
X324600Y10400D02*
X344163D01*
X362800Y29037D02*
Y43331D01*
X361200Y29700D02*
Y42669D01*
X344163Y10400D02*
X362800Y29037D01*
X362000Y29369D02*
Y43000D01*
X325669Y11200D02*
X343831D01*
X326000Y12000D02*
X343500D01*
X361200Y29700D01*
X323900Y9600D02*
X344494D01*
X315500Y18000D02*
Y21693D01*
Y18000D02*
X323900Y9600D01*
X317469Y17531D02*
X324600Y10400D01*
X317469Y17531D02*
Y21693D01*
X337957Y13864D02*
Y13957D01*
X319437Y17432D02*
X325669Y11200D01*
X319437Y17432D02*
Y21693D01*
X208000Y348000D02*
X244500D01*
X205784Y342075D02*
Y345783D01*
X208000Y348000D01*
X207500Y349500D02*
X245000D01*
X203815Y345815D02*
X207500Y349500D01*
X194000Y346500D02*
X198500Y351000D01*
X245500D02*
X248000Y348500D01*
X198500Y351000D02*
X245500D01*
X205500Y341791D02*
X205784Y342075D01*
X97500Y83500D02*
X115500D01*
X133000Y101000D01*
X92000Y89000D02*
X97500Y83500D01*
X82000Y89000D02*
X92000D01*
X346812Y102874D02*
X347391Y103453D01*
X109500Y89000D02*
X123374Y102874D01*
X346812D01*
X20000Y81500D02*
X24500Y86000D01*
X45000D01*
X47500Y83500D01*
Y78500D02*
Y83500D01*
X52500Y73500D02*
X114500D01*
X47500Y78500D02*
X52500Y73500D01*
X114500D02*
X140086Y99086D01*
X143500Y96000D02*
X196500D01*
X118500Y62500D02*
Y71000D01*
X143500Y96000D01*
X20000Y56000D02*
Y81500D01*
X26457Y72543D02*
X28000Y71000D01*
X26457Y72543D02*
Y79500D01*
X28000Y67500D02*
Y71000D01*
Y64500D02*
Y67500D01*
X337154Y14761D02*
Y21693D01*
Y14761D02*
X337957Y13957D01*
X321406Y16594D02*
Y21693D01*
Y16594D02*
X326000Y12000D01*
X323374Y21693D02*
Y30374D01*
X323500Y30500D01*
X339540Y17500D02*
X343187D01*
X339122Y17917D02*
X339540Y17500D01*
X383000Y77000D02*
X385503Y74497D01*
X329279Y27279D02*
X329500Y27500D01*
X325342Y21693D02*
Y27343D01*
X325500Y27500D01*
X327500Y30000D02*
Y30500D01*
X327311Y21693D02*
Y29811D01*
X327500Y30000D01*
X329279Y21693D02*
Y27279D01*
X339122Y17917D02*
Y21693D01*
X335036Y16964D02*
Y21543D01*
Y16964D02*
X335500Y16500D01*
X333217Y14217D02*
Y21693D01*
X330614Y16500D02*
X331014D01*
X331248Y16734D02*
Y21693D01*
X331014Y16500D02*
X331248Y16734D01*
X333000Y14000D02*
X333217Y14217D01*
X335036Y21543D02*
X335185Y21693D01*
X340622Y28878D02*
X346307D01*
X340500Y33000D02*
X340685Y32815D01*
X338154Y30847D02*
X346307D01*
X338000Y31000D02*
X338154Y30847D01*
X340685Y32815D02*
X346307D01*
X338216Y34784D02*
X346307D01*
X337500Y35500D02*
X338216Y34784D01*
X353752Y36752D02*
X354000Y37000D01*
X340311Y40689D02*
X346307D01*
X340000Y41000D02*
X340311Y40689D01*
X337500Y42500D02*
X338000D01*
X338158Y42658D02*
X346307D01*
X338000Y42500D02*
X338158Y42658D01*
X340126Y44626D02*
X346307D01*
X340000Y44500D02*
X340126Y44626D01*
X340000Y48500D02*
X340063Y48563D01*
X338094Y46595D02*
X346307D01*
X338000Y46500D02*
X338094Y46595D01*
X340063Y48563D02*
X346307D01*
X340129Y52871D02*
X340500Y52500D01*
X338032Y50532D02*
X346307D01*
X338000Y50500D02*
X338032Y50532D01*
X340500Y52500D02*
X346307D01*
X338032Y54469D02*
X346307D01*
X338000Y54500D02*
X338032Y54469D01*
X346244Y56500D02*
X346307Y56437D01*
X340500Y56500D02*
X346244D01*
X340500Y60500D02*
X340626Y60374D01*
X338094Y58406D02*
X346307D01*
X338000Y58500D02*
X338094Y58406D01*
X375000Y209500D02*
Y218622D01*
X367500Y202000D02*
X375000Y209500D01*
X367500Y191370D02*
Y202000D01*
X365130Y189000D02*
X365228D01*
X366308Y190079D01*
Y190178D01*
X367500Y191370D01*
X368870Y184370D02*
Y189000D01*
X368740Y184240D02*
X368870Y184370D01*
X370000Y192500D02*
Y196378D01*
X368870Y189000D02*
Y191370D01*
X370000Y192500D01*
X375000Y189130D02*
X375130Y189000D01*
X375000Y189130D02*
Y196378D01*
X375260Y184500D02*
Y188870D01*
X375130Y189000D02*
X375260Y188870D01*
X340626Y60374D02*
X346307D01*
X338000Y62500D02*
X338500D01*
X338657Y62343D02*
X346307D01*
X338500Y62500D02*
X338657Y62343D01*
X340689Y64311D02*
X346307D01*
X340500Y64500D02*
X340689Y64311D01*
X338500Y66500D02*
X339000D01*
X339220Y66280D02*
X346307D01*
X339000Y66500D02*
X339220Y66280D01*
X346181Y68374D02*
X346307Y68248D01*
X341126Y68374D02*
X346181D01*
X341000Y68500D02*
X341126Y68374D01*
X339122Y73122D02*
Y83307D01*
X339283Y70217D02*
X346307D01*
X339000Y70500D02*
X339283Y70217D01*
X352815Y72185D02*
X353500Y71500D01*
X353122Y76122D02*
X353500Y76500D01*
X364500Y141000D02*
Y143024D01*
X337154Y75153D02*
Y83307D01*
X337000Y75000D02*
X337154Y75153D01*
X335185Y77685D02*
Y83307D01*
X335000Y77500D02*
X335185Y77685D01*
X331248Y77734D02*
Y83307D01*
X331014Y77500D02*
X331248Y77734D01*
X331000Y77500D02*
X331014D01*
X327311Y77603D02*
X327414Y77500D01*
X327311Y77603D02*
Y83307D01*
X329000Y75000D02*
X329279Y75279D01*
Y83307D01*
X325342Y75157D02*
Y83307D01*
Y75157D02*
X325500Y75000D01*
X323500Y77500D02*
Y83181D01*
X323374Y83307D02*
X323500Y83181D01*
X319437Y83307D02*
X319500Y83244D01*
X264000Y65267D02*
X267185Y62082D01*
X264000Y65267D02*
Y66000D01*
X267185Y62082D02*
Y62082D01*
X262000Y51500D02*
X265484D01*
X269500D02*
X270500Y52500D01*
X271082Y55532D02*
Y58185D01*
X270500Y54949D02*
X271082Y55532D01*
X270500Y52500D02*
Y54949D01*
X271082Y58185D02*
X271222Y58324D01*
X265984Y70516D02*
Y74000D01*
Y70516D02*
X266000Y70500D01*
X271000Y78500D02*
X274500D01*
X317469Y75032D02*
Y83307D01*
Y75032D02*
X317500Y75000D01*
X315500Y77500D02*
Y83307D01*
X321183Y89675D02*
X321500Y89358D01*
X321144Y89715D02*
X322147Y90717D01*
X321406Y83307D02*
X321500Y83402D01*
X297933Y86933D02*
X299000Y88000D01*
Y88500D01*
X295500Y83622D02*
Y92500D01*
Y83622D02*
X295815Y83307D01*
X291000Y94500D02*
X307500D01*
X290000Y93500D02*
X291000Y94500D01*
X290000Y79000D02*
Y93500D01*
Y79000D02*
X291000Y78000D01*
X300914Y87672D02*
Y91914D01*
X301000Y92000D01*
X299752Y86509D02*
X300914Y87672D01*
X305658Y88157D02*
X306000Y88500D01*
X307500Y90500D02*
X307626Y90374D01*
Y83307D02*
Y90374D01*
X309500Y88500D02*
X309594Y88406D01*
X305658Y83307D02*
Y88157D01*
X297933Y83456D02*
Y86933D01*
X297783Y83307D02*
X297933Y83456D01*
X309594Y83307D02*
Y88406D01*
X303000Y95500D02*
X304000Y96500D01*
X299000D02*
X300000Y97500D01*
X290000Y96500D02*
X299000D01*
X288000Y94500D02*
X290000Y96500D01*
X290500Y95500D02*
X303000D01*
X289000Y78000D02*
Y94000D01*
X290500Y95500D01*
X284693Y76122D02*
X287139D01*
X288000Y76983D01*
Y94500D01*
X289000Y78000D02*
X289500Y77500D01*
Y75000D02*
Y77500D01*
X288653Y74154D02*
X289500Y75000D01*
X284693Y74154D02*
X288653D01*
X291000Y73500D02*
Y78000D01*
X284693Y72185D02*
X289685D01*
X291000Y73500D01*
X293847Y83307D02*
Y88239D01*
X293586Y88500D02*
X293847Y88239D01*
X292000Y83429D02*
Y91000D01*
X291878Y83307D02*
X292000Y83429D01*
X284693Y70217D02*
X293284D01*
X284693Y68248D02*
X290248D01*
X290500Y68500D01*
X274500Y71500D02*
Y74760D01*
X279000Y70629D02*
Y72142D01*
Y70129D02*
Y70629D01*
X277000Y69000D02*
X277371D01*
X277772Y69401D02*
X277901D01*
X290811Y64311D02*
X291000Y64500D01*
X284693Y58406D02*
X290905D01*
X291000Y58500D01*
X279063Y56437D02*
X284693D01*
X279000Y56500D02*
X279063Y56437D01*
X257500Y54500D02*
X259500D01*
X256500Y55500D02*
X257500Y54500D01*
X277031Y54469D02*
X284693D01*
X277000Y54500D02*
X277031Y54469D01*
X271918Y66815D02*
Y66815D01*
X270000Y68733D02*
X271918Y66815D01*
X270000Y68733D02*
Y74000D01*
X275676Y62778D02*
X275815Y62918D01*
X270660Y62778D02*
X275676D01*
X269964Y62082D02*
X270660Y62778D01*
X267185Y62082D02*
X269964D01*
X271918Y66815D02*
X272057Y66954D01*
X275645D01*
X275691Y67000D01*
X276500D01*
X280001Y62499D02*
X280157Y62343D01*
X279616Y62884D02*
X280001Y62499D01*
X279616Y62884D02*
Y63884D01*
X276500Y67000D02*
X279616Y63884D01*
X280157Y62343D02*
X284693D01*
X271222Y58324D02*
X275824D01*
X277874Y60374D02*
X284693D01*
X275824Y58324D02*
X277874Y60374D01*
X228500Y60500D02*
X235500D01*
X238500Y63500D02*
Y81000D01*
X235500Y60500D02*
X238500Y63500D01*
X13000Y48000D02*
Y49000D01*
X20000Y56000D01*
X196500Y96000D02*
X201500Y91000D01*
X153000Y81000D02*
X165500Y93500D01*
X195500D02*
X200000Y89000D01*
X165500Y93500D02*
X195500D01*
X160500Y83500D02*
X168000Y91000D01*
X193500D02*
X197000Y87500D01*
X168000Y91000D02*
X193500D01*
X170500Y89000D02*
X192000D01*
X164000Y82500D02*
X170500Y89000D01*
X192000D02*
X194500Y86500D01*
X172000Y81000D02*
X178000Y87000D01*
X190000D01*
X192000Y85000D01*
X174500Y80000D02*
X179500Y85000D01*
X222000Y58000D02*
X227000D01*
X210500Y69500D02*
X222000Y58000D01*
X203000Y69500D02*
X210500D01*
X201500Y71000D02*
X203000Y69500D01*
X201500Y71000D02*
Y91000D01*
X200000Y68500D02*
X201500Y67000D01*
X200000Y68500D02*
Y89000D01*
X194500Y63000D02*
Y86500D01*
X197000Y66500D02*
Y87500D01*
X194500Y63000D02*
X196500Y61000D01*
X197000Y66500D02*
X200000Y63500D01*
X116500Y60500D02*
X118500Y62500D01*
X32000Y60500D02*
X116500D01*
X28000Y64500D02*
X32000Y60500D01*
X148636Y81364D02*
X152636D01*
X146500Y83500D02*
Y92000D01*
Y83500D02*
X148636Y81364D01*
X121000Y60000D02*
Y66500D01*
X128500Y74000D02*
X155500D01*
X121000Y66500D02*
X128500Y74000D01*
X131500Y71000D02*
X156500D01*
X164000Y78500D02*
Y82500D01*
X156500Y71000D02*
X164000Y78500D01*
X209500Y67000D02*
X221000Y55500D01*
X201500Y67000D02*
X209500D01*
X208500Y63500D02*
X219500Y52500D01*
X200000Y63500D02*
X208500D01*
X160500Y79000D02*
Y83500D01*
X155500Y74000D02*
X160500Y79000D01*
X37500Y57500D02*
X118500D01*
X121000Y60000D01*
X28000Y48000D02*
X37500Y57500D01*
X272657Y42658D02*
X284693D01*
X169000Y61000D02*
X174500Y66500D01*
Y80000D01*
X172000Y69500D02*
Y81000D01*
X170000Y67500D02*
X172000Y69500D01*
X206500Y61000D02*
X217500Y50000D01*
X228000D01*
X205500Y57500D02*
X215500Y47500D01*
X196500Y61000D02*
X206500D01*
X125000Y57000D02*
Y64500D01*
X131500Y71000D01*
X87500Y54500D02*
X122500D01*
X125000Y57000D01*
X82000Y49000D02*
X87500Y54500D01*
X195000Y57500D02*
X205500D01*
X192000Y60500D02*
X195000Y57500D01*
X192000Y60500D02*
Y85000D01*
X129000Y62500D02*
X134000Y67500D01*
X170000D01*
X129000Y52500D02*
Y62500D01*
X109500Y49000D02*
X125500D01*
X129000Y52500D01*
X205000Y55000D02*
X215000Y45000D01*
X192500Y55000D02*
X205000D01*
X189500Y58000D02*
X192500Y55000D01*
X169000Y60000D02*
Y61000D01*
X31500Y36000D02*
X36130D01*
X27957D02*
X28000Y36043D01*
Y48000D01*
X30000Y79500D02*
X34130D01*
X221543Y92000D02*
X226130D01*
X218000Y88000D02*
Y92000D01*
X221000Y85000D02*
X232500D01*
X218000Y88000D02*
X221000Y85000D01*
X237710Y81790D02*
X238500Y81000D01*
X235710Y81790D02*
X237710D01*
X232500Y85000D02*
X235710Y81790D01*
X258000Y52500D02*
X262000Y48500D01*
X273000D01*
X277000Y52500D02*
X284693D01*
X273000Y48500D02*
X277000Y52500D01*
X274500Y47000D02*
X278031Y50532D01*
X260500Y47000D02*
X274500D01*
X256398Y47602D02*
X258500Y45500D01*
X276000D02*
X279063Y48563D01*
X258500Y45500D02*
X276000D01*
X277000Y44000D02*
X279594Y46595D01*
X252508Y47602D02*
X256398D01*
X279063Y48563D02*
X284693D01*
X275689Y40689D02*
X284693D01*
X278031Y50532D02*
X284693D01*
X279594Y46595D02*
X284693D01*
X77000Y49000D02*
X82000D01*
X74000Y46000D02*
X77000Y49000D01*
X74000Y22500D02*
Y46000D01*
X71457Y15000D02*
Y19957D01*
X74000Y22500D01*
X75000Y15000D02*
X79630D01*
X105000D02*
X109260D01*
X101457D02*
X101500Y15043D01*
Y20500D01*
X78500Y23500D02*
X98500D01*
X101500Y20500D01*
X76500Y25500D02*
X78500Y23500D01*
X76500Y25500D02*
Y41500D01*
X79000Y44000D02*
X104500D01*
X76500Y41500D02*
X79000Y44000D01*
X104500D02*
X109500Y49000D01*
X161500Y60000D02*
X169000D01*
X157000Y64500D02*
X161500Y60000D01*
X136500Y64500D02*
X157000D01*
X134500Y50500D02*
Y62500D01*
X136500Y64500D01*
Y48500D02*
X145957D01*
X134500Y50500D02*
X136500Y48500D01*
X149500D02*
X154260D01*
X152636Y81364D02*
X153000Y81000D01*
X150043Y92000D02*
X154760D01*
X351500Y345500D02*
X358500D01*
X350279Y344280D02*
X351500Y345500D01*
X350279Y338150D02*
Y344280D01*
X358240Y349500D02*
X358500Y349240D01*
X356000Y349500D02*
X358240D01*
X349500Y347500D02*
X354000D01*
X356000Y349500D01*
X347721Y338150D02*
Y345721D01*
X349500Y347500D01*
X343650Y338150D02*
X345161D01*
X341130Y335630D02*
X343650Y338150D01*
X338500Y335630D02*
X341130D01*
X338370Y335500D02*
X338500Y335630D01*
X369087Y120563D02*
X369500Y120976D01*
X369087Y117087D02*
Y120563D01*
X370260Y106240D02*
X375618D01*
X374500Y113000D02*
Y120976D01*
X374740Y113240D02*
X381500D01*
X374500Y113000D02*
X374740Y113240D01*
X378441Y104500D02*
X381500D01*
X376701Y106240D02*
X378441Y104500D01*
X375618Y106240D02*
X376701D01*
X381000Y92587D02*
Y100260D01*
X381500Y100760D01*
X375358Y98500D02*
X375618Y98760D01*
X373000Y98500D02*
X375358D01*
X371500Y92500D02*
Y97000D01*
X373000Y98500D01*
X367000Y88760D02*
X371500D01*
X369435Y76500D02*
X372000D01*
X373000Y77500D01*
X366000Y263500D02*
X370500D01*
X373000Y266000D01*
X364500Y256024D02*
Y258090D01*
X381355Y289015D02*
X381370Y289000D01*
X381355Y289015D02*
Y290645D01*
X380000Y292000D02*
X381355Y290645D01*
X374618Y283618D02*
X376000Y285000D01*
X374618Y278500D02*
Y283618D01*
X364000Y270370D02*
Y274378D01*
X364382Y274760D01*
X363740Y282882D02*
Y289000D01*
Y282882D02*
X364382Y282240D01*
X363740Y289000D02*
X368760D01*
X372500D02*
X377630D01*
X156571Y11277D02*
Y16484D01*
X156500Y11086D02*
Y11206D01*
X156571Y11277D01*
X192500Y346629D02*
Y348000D01*
X192004Y342075D02*
Y346133D01*
X192500Y346629D01*
X190018Y342092D02*
X190035Y342075D01*
X190018Y342092D02*
Y348482D01*
X190000Y348500D02*
X190018Y348482D01*
X190000Y382734D02*
X190234Y382500D01*
X190000Y382734D02*
Y383000D01*
X367000Y319524D02*
Y323500D01*
X193972Y342075D02*
X194000Y342102D01*
Y346500D01*
X317870Y367500D02*
X325378D01*
X317870Y382500D02*
X325378D01*
X318000Y377500D02*
X325378D01*
X203815Y342075D02*
Y345815D01*
X328500Y345500D02*
X333130D01*
X326937Y343937D02*
X328500Y345500D01*
X326937Y338347D02*
Y343937D01*
X217595Y31051D02*
X219563D01*
X215626D02*
X217595D01*
X237280D02*
X239248D01*
X235311D02*
X237280D01*
X233343D02*
X235311D01*
X231374D02*
X233343D01*
X205784D02*
X207752D01*
X203815D02*
X205784D01*
X150665Y16484D02*
X152634D01*
X148697D02*
X150665D01*
Y31051D02*
X152634D01*
X148697D02*
X150665D01*
X154602Y9602D02*
Y16484D01*
X154500Y9500D02*
X154602Y9602D01*
X229405Y39906D02*
X229500Y40000D01*
X225468Y39968D02*
X225500Y40000D01*
X221500D02*
X221532Y39968D01*
D67*
X174000Y40500D02*
X174073Y40427D01*
X176145Y31162D02*
Y37892D01*
X180188Y37693D02*
X180190Y37690D01*
X188067Y31051D02*
Y38000D01*
X186098Y31051D02*
Y40402D01*
X182151Y31062D02*
Y40151D01*
X178224Y31051D02*
Y40276D01*
X174073Y37187D02*
X174287Y36973D01*
X174073Y37187D02*
Y40427D01*
X174287Y31051D02*
Y36973D01*
X172314Y36316D02*
X172316Y36313D01*
X168377Y38000D02*
X168382Y37995D01*
X160500Y31059D02*
Y38000D01*
Y42000D01*
X156566Y37929D02*
X156568Y37927D01*
X154602Y31051D02*
Y39898D01*
X170350Y31051D02*
Y40350D01*
X158500Y38771D02*
Y40500D01*
Y38771D02*
X158529Y38742D01*
X156568Y31054D02*
X156571Y31051D01*
X158526Y31064D02*
Y33791D01*
X156568Y31054D02*
Y37927D01*
X158500Y33817D02*
X158526Y33791D01*
X158529Y37116D02*
Y38742D01*
X158500Y33817D02*
Y37087D01*
X158529Y37116D01*
X158526Y31064D02*
X158539Y31051D01*
X156000Y43000D02*
X158500Y40500D01*
X164445Y37945D02*
X164500Y38000D01*
Y51500D01*
X161500Y54500D02*
X164500Y51500D01*
X139000Y60000D02*
X144500Y54500D01*
X161500D01*
X82000Y29000D02*
X86500Y33500D01*
X132500D01*
X137000Y38000D01*
Y41500D01*
X140500Y45000D01*
X157500D01*
X160500Y42000D01*
X109500Y29000D02*
X137500D01*
X144000Y35500D01*
Y41500D01*
X145500Y43000D01*
X156000D01*
X176145Y31162D02*
X176256Y31051D01*
X172316Y31054D02*
X172319Y31051D01*
X172316Y31054D02*
Y36313D01*
X201847Y31051D02*
Y39847D01*
X202000Y40000D01*
X199878Y37995D02*
X199883Y38000D01*
X199878Y31051D02*
Y37995D01*
X195946Y37946D02*
Y38000D01*
X195941Y37941D02*
X195946Y37946D01*
X197909Y31051D02*
Y40409D01*
X198000Y40500D01*
X195941Y31051D02*
Y37941D01*
X193972Y31051D02*
Y40472D01*
X194000Y40500D01*
X192000Y31055D02*
X192004Y31051D01*
X192000Y31055D02*
Y38000D01*
X190035Y31051D02*
Y40465D01*
X190000Y40500D02*
X190035Y40465D01*
X166413Y31051D02*
Y40413D01*
X162476Y31051D02*
Y40476D01*
X186000Y40500D02*
X186098Y40402D01*
X182151Y40151D02*
X182500Y40500D01*
X182151Y31062D02*
X182161Y31051D01*
X180190Y31054D02*
X180193Y31051D01*
X180190Y31054D02*
Y37690D01*
X184130Y31051D02*
Y37130D01*
X178000Y40500D02*
X178224Y40276D01*
X170350Y40350D02*
X170500Y40500D01*
X168382Y31051D02*
Y37995D01*
X166413Y40413D02*
X166500Y40500D01*
X164445Y31051D02*
Y37945D01*
X162476Y40476D02*
X162500Y40500D01*
X160500Y31059D02*
X160508Y31051D01*
X154500Y40000D02*
X154602Y39898D01*
X154500Y40000D02*
Y40500D01*
D68*
X41500Y348000D02*
D03*
X51500D02*
D03*
X61500D02*
D03*
X71500D02*
D03*
X81500D02*
D03*
X91500D02*
D03*
X274000Y338500D02*
D03*
Y348500D02*
D03*
X284000Y338500D02*
D03*
Y348500D02*
D03*
X294000Y338500D02*
D03*
Y348500D02*
D03*
D69*
X253500Y81000D02*
D03*
X238500D02*
D03*
X223500D02*
D03*
X168000D02*
D03*
X153000D02*
D03*
X138000D02*
D03*
X154000Y60000D02*
D03*
X169000D02*
D03*
X184000D02*
D03*
X109500Y79000D02*
D03*
Y69000D02*
D03*
Y49000D02*
D03*
Y39000D02*
D03*
Y29000D02*
D03*
X82000Y79000D02*
D03*
Y69000D02*
D03*
Y49000D02*
D03*
Y39000D02*
D03*
Y29000D02*
D03*
X43000Y67500D02*
D03*
X28000D02*
D03*
X13000D02*
D03*
X43000Y48000D02*
D03*
X28000D02*
D03*
X13000D02*
D03*
D70*
X208500Y81000D02*
D03*
X183000D02*
D03*
X139000Y60000D02*
D03*
X58000Y67500D02*
D03*
Y48000D02*
D03*
D71*
X15626Y379083D02*
D03*
X378618D02*
D03*
X379012Y16091D02*
D03*
X14839Y14122D02*
D03*
D72*
X109500Y89000D02*
D03*
X82000D02*
D03*
D73*
X250075Y352705D02*
D03*
X143776D02*
D03*
X250075Y20421D02*
D03*
X143776D02*
D03*
X250075Y27114D02*
D03*
X143776D02*
D03*
D74*
X234681Y25500D02*
D03*
X204500Y39000D02*
D03*
X209500Y40000D02*
D03*
X186000Y349303D02*
D03*
X184000Y347000D02*
D03*
X182000Y349177D02*
D03*
X180193Y347193D02*
D03*
X186000Y25500D02*
D03*
X178500D02*
D03*
X171500D02*
D03*
X165500D02*
D03*
X184000Y44000D02*
D03*
X168000D02*
D03*
X175500D02*
D03*
X180000D02*
D03*
X172000D02*
D03*
X152000Y9000D02*
D03*
X149000D02*
D03*
X150500Y10500D02*
D03*
X149500Y24500D02*
D03*
X151500D02*
D03*
Y26500D02*
D03*
X149500D02*
D03*
X152000Y39500D02*
D03*
Y37000D02*
D03*
X149500D02*
D03*
Y39500D02*
D03*
X174000Y40500D02*
D03*
X176145Y37892D02*
D03*
X180188Y37693D02*
D03*
X184114Y38000D02*
D03*
X188067D02*
D03*
X172314Y36316D02*
D03*
X168377Y38000D02*
D03*
X164450D02*
D03*
X160500D02*
D03*
X156566Y37929D02*
D03*
X206000Y26500D02*
D03*
X204500Y24500D02*
D03*
X207000D02*
D03*
X206000Y37000D02*
D03*
X207000Y39000D02*
D03*
X219000Y37000D02*
D03*
X216500D02*
D03*
X217500Y40000D02*
D03*
X218000Y24500D02*
D03*
X216500Y26500D02*
D03*
X219000D02*
D03*
X223000Y22000D02*
D03*
X233000Y39000D02*
D03*
X235500D02*
D03*
X238000D02*
D03*
X232000Y25500D02*
D03*
X238500D02*
D03*
Y21500D02*
D03*
X241000D02*
D03*
X243500D02*
D03*
X232500D02*
D03*
X235000D02*
D03*
X259000Y34500D02*
D03*
X309000Y52500D02*
D03*
X306500Y50000D02*
D03*
X291500Y47000D02*
D03*
X309500Y47500D02*
D03*
X231000Y11000D02*
D03*
X212000D02*
D03*
X217000Y10914D02*
D03*
X214495Y10917D02*
D03*
X203000Y348000D02*
D03*
X200000D02*
D03*
X261978Y358978D02*
D03*
X260000Y362000D02*
D03*
X316500Y356000D02*
D03*
X356086Y182914D02*
D03*
X241586Y362000D02*
D03*
X223500Y364500D02*
D03*
X150500Y350000D02*
D03*
X154500D02*
D03*
X157379Y346879D02*
D03*
X249500Y343886D02*
D03*
X278500Y38500D02*
D03*
X290500Y42500D02*
D03*
X293000Y44500D02*
D03*
X367500Y138000D02*
D03*
X363314Y92000D02*
D03*
X234000D02*
D03*
X199500Y11000D02*
D03*
X296500Y5000D02*
D03*
X202000Y11000D02*
D03*
X303500Y9500D02*
D03*
Y13000D02*
D03*
X204500Y11000D02*
D03*
X207000D02*
D03*
X299000Y13000D02*
D03*
X301500Y15500D02*
D03*
X209500Y11000D02*
D03*
X296000Y13000D02*
D03*
X290000Y12500D02*
D03*
X293000Y13000D02*
D03*
X259500Y10000D02*
D03*
X219500Y11000D02*
D03*
X289500Y15500D02*
D03*
X233500Y11000D02*
D03*
X245500Y10414D02*
D03*
X279500Y28013D02*
D03*
X162500Y6914D02*
D03*
X271000Y29000D02*
D03*
X270069Y25932D02*
D03*
X278500Y30500D02*
D03*
X228272Y11000D02*
D03*
X278500Y33000D02*
D03*
X226000Y11000D02*
D03*
X270187Y18313D02*
D03*
X277000Y35000D02*
D03*
X223500Y11000D02*
D03*
X290252Y36752D02*
D03*
X293000Y40500D02*
D03*
X379500Y350500D02*
D03*
X340500Y29000D02*
D03*
X333000Y75000D02*
D03*
X159500Y10000D02*
D03*
X244000Y37500D02*
D03*
X241500D02*
D03*
X271500Y32000D02*
D03*
X141500Y374000D02*
D03*
X182500Y374500D02*
D03*
X194086Y362500D02*
D03*
X192500Y380000D02*
D03*
X190000Y383000D02*
D03*
X196000Y364500D02*
D03*
X198000Y362500D02*
D03*
X200000Y364500D02*
D03*
X202000Y362500D02*
D03*
X204000Y364500D02*
D03*
X206000Y362500D02*
D03*
X208000Y364500D02*
D03*
X243000Y374814D02*
D03*
X210000Y362500D02*
D03*
X211750Y364500D02*
D03*
X213500Y362500D02*
D03*
X215500Y364500D02*
D03*
X217500Y362500D02*
D03*
X219500Y364500D02*
D03*
X223000Y375000D02*
D03*
X221500Y362500D02*
D03*
X227500Y364000D02*
D03*
X225500Y362000D02*
D03*
X229500D02*
D03*
X231500Y364000D02*
D03*
X233500Y362000D02*
D03*
X235500Y364000D02*
D03*
X237500Y362000D02*
D03*
X240000Y364000D02*
D03*
X243500Y363500D02*
D03*
X245500Y361500D02*
D03*
X159121Y350621D02*
D03*
X156500Y352000D02*
D03*
X160500Y347000D02*
D03*
X152500Y352000D02*
D03*
X148500D02*
D03*
X168500Y337000D02*
D03*
X172500D02*
D03*
X170500Y335686D02*
D03*
X166713Y334500D02*
D03*
X162500Y335500D02*
D03*
X160500Y337000D02*
D03*
X158500Y335500D02*
D03*
X156500Y337000D02*
D03*
X154500Y335500D02*
D03*
X152500Y337000D02*
D03*
X150500Y335500D02*
D03*
X148500Y337000D02*
D03*
X161500Y374000D02*
D03*
X203000Y374500D02*
D03*
X358997Y377497D02*
D03*
X361500Y375000D02*
D03*
X357682Y370682D02*
D03*
X342500Y381914D02*
D03*
X336500Y380000D02*
D03*
X309500Y375000D02*
D03*
X331500Y339500D02*
D03*
X341500Y339414D02*
D03*
X341000Y346586D02*
D03*
X340656Y350693D02*
D03*
X337914Y356086D02*
D03*
X345414Y363500D02*
D03*
X308875Y380125D02*
D03*
X353893Y363307D02*
D03*
X363250Y342250D02*
D03*
X370870Y325000D02*
D03*
X371000Y334314D02*
D03*
X371557Y364614D02*
D03*
X374500Y346614D02*
D03*
X376364Y364614D02*
D03*
X368386D02*
D03*
X309500Y355500D02*
D03*
X310500Y344500D02*
D03*
X310495Y339914D02*
D03*
X323000Y361414D02*
D03*
X380000Y347500D02*
D03*
X383500Y348500D02*
D03*
X335000Y363000D02*
D03*
X388614Y355129D02*
D03*
X383000Y342500D02*
D03*
X374000Y364573D02*
D03*
X246500Y63000D02*
D03*
X232500Y71000D02*
D03*
X224000Y67500D02*
D03*
X42500Y79500D02*
D03*
X44500Y36000D02*
D03*
X87500Y15000D02*
D03*
X117000D02*
D03*
X162000Y48500D02*
D03*
X162500Y93500D02*
D03*
X376500Y304500D02*
D03*
X371000Y286000D02*
D03*
Y314000D02*
D03*
Y242500D02*
D03*
Y246500D02*
D03*
Y251000D02*
D03*
X371086Y229057D02*
D03*
X356000Y187000D02*
D03*
X358000Y215500D02*
D03*
X356214Y180000D02*
D03*
X356500Y177399D02*
D03*
X358000Y162500D02*
D03*
Y160000D02*
D03*
X368500Y223500D02*
D03*
X380614Y148336D02*
D03*
X378000Y125454D02*
D03*
X380442Y201343D02*
D03*
X380286Y182000D02*
D03*
Y191500D02*
D03*
X380429Y179500D02*
D03*
X376000Y87000D02*
D03*
X357000Y77500D02*
D03*
X356810Y71304D02*
D03*
X387216Y72250D02*
D03*
X315500Y77500D02*
D03*
X319500D02*
D03*
X369500Y32500D02*
D03*
X382000Y53000D02*
D03*
X373000Y39000D02*
D03*
X375000Y53000D02*
D03*
X383500Y63500D02*
D03*
X313500Y28000D02*
D03*
X310500Y11000D02*
D03*
X314500D02*
D03*
X356614Y68000D02*
D03*
X337957Y13864D02*
D03*
X359614Y39346D02*
D03*
X323500Y30500D02*
D03*
X343187Y17500D02*
D03*
X329500Y27500D02*
D03*
X325500D02*
D03*
X327500Y30500D02*
D03*
X358000Y37000D02*
D03*
X335500Y16500D02*
D03*
X330614D02*
D03*
X333000Y14000D02*
D03*
X340500Y33000D02*
D03*
X338000Y31000D02*
D03*
X340500Y37500D02*
D03*
X337500Y35500D02*
D03*
X340000Y41000D02*
D03*
X337500Y42500D02*
D03*
X340000Y44500D02*
D03*
Y48500D02*
D03*
X338000Y46500D02*
D03*
X340129Y52871D02*
D03*
X338000Y50500D02*
D03*
X340500Y56500D02*
D03*
X338000Y54500D02*
D03*
X340914Y74000D02*
D03*
X340500Y60500D02*
D03*
X338000Y58500D02*
D03*
X350000Y80414D02*
D03*
X338000Y62500D02*
D03*
X340500Y64500D02*
D03*
X338500Y66500D02*
D03*
X341000Y68500D02*
D03*
X339000Y70500D02*
D03*
X337000Y75000D02*
D03*
X335000Y77500D02*
D03*
X331000D02*
D03*
X327414D02*
D03*
X329000Y75000D02*
D03*
X325500D02*
D03*
X323500Y77500D02*
D03*
X264000Y66000D02*
D03*
X262000Y51500D02*
D03*
X266000Y70500D02*
D03*
X271000Y78500D02*
D03*
X280500Y80000D02*
D03*
X317500Y75000D02*
D03*
X324000Y91614D02*
D03*
X316000Y93000D02*
D03*
X302586Y88500D02*
D03*
X299000D02*
D03*
X295500Y92500D02*
D03*
X306000Y88500D02*
D03*
X307500Y90500D02*
D03*
X309500Y88500D02*
D03*
X301000Y92000D02*
D03*
X307500Y94500D02*
D03*
X304000Y96500D02*
D03*
X300000Y97500D02*
D03*
X293586Y88500D02*
D03*
X292000Y91000D02*
D03*
X290500Y68500D02*
D03*
X274500Y71500D02*
D03*
X277000Y69000D02*
D03*
X291000Y64500D02*
D03*
X259000Y60500D02*
D03*
X291000Y58500D02*
D03*
X259000Y57500D02*
D03*
X279000Y56500D02*
D03*
X259500Y54500D02*
D03*
X277000D02*
D03*
X156500Y11086D02*
D03*
X192500Y348000D02*
D03*
X190000Y348500D02*
D03*
X154500Y9500D02*
D03*
X229500Y40000D02*
D03*
X227437Y37500D02*
D03*
X225500Y40000D02*
D03*
X223500Y37500D02*
D03*
X221500Y40000D02*
D03*
X213657Y39843D02*
D03*
X211689Y37811D02*
D03*
X202000Y40000D02*
D03*
X199883Y38000D02*
D03*
X198000Y40500D02*
D03*
X195946Y38000D02*
D03*
X194000Y40500D02*
D03*
X192000Y38000D02*
D03*
X190000Y40500D02*
D03*
X186000D02*
D03*
X182500D02*
D03*
X178000D02*
D03*
X170500D02*
D03*
X166500D02*
D03*
X162500D02*
D03*
X158500D02*
D03*
X154500D02*
D03*
M02*
