G04*
G04 #@! TF.GenerationSoftware,Altium Limited,Altium Designer,20.0.13 (296)*
G04*
G04 Layer_Color=16711935*
%FSLAX25Y25*%
%MOIN*%
G70*
G01*
G75*
%ADD29R,0.01772X0.06496*%
%ADD39C,0.06969*%
%ADD40C,0.05119*%
%ADD41R,0.05119X0.05119*%
%ADD42C,0.20276*%
%ADD43R,0.05119X0.05119*%
%ADD44C,0.06299*%
%ADD45C,0.02362*%
D29*
X148697Y16484D02*
D03*
Y31051D02*
D03*
X150665Y16484D02*
D03*
Y31051D02*
D03*
X152634Y16484D02*
D03*
Y31051D02*
D03*
X154602Y16484D02*
D03*
Y31051D02*
D03*
X156571Y16484D02*
D03*
Y31051D02*
D03*
X158539Y16484D02*
D03*
Y31051D02*
D03*
X160508Y16484D02*
D03*
Y31051D02*
D03*
X162476Y16484D02*
D03*
Y31051D02*
D03*
X164445Y16484D02*
D03*
Y31051D02*
D03*
X166413Y16484D02*
D03*
Y31051D02*
D03*
X168382Y16484D02*
D03*
Y31051D02*
D03*
X170350Y16484D02*
D03*
Y31051D02*
D03*
X172319Y16484D02*
D03*
Y31051D02*
D03*
X174287Y16484D02*
D03*
Y31051D02*
D03*
X176256Y16484D02*
D03*
Y31051D02*
D03*
X178224Y16484D02*
D03*
Y31051D02*
D03*
X180193Y16484D02*
D03*
Y31051D02*
D03*
X182161Y16484D02*
D03*
Y31051D02*
D03*
X184130Y16484D02*
D03*
Y31051D02*
D03*
X186098Y16484D02*
D03*
Y31051D02*
D03*
X188067Y16484D02*
D03*
Y31051D02*
D03*
X190035Y16484D02*
D03*
Y31051D02*
D03*
X192004Y16484D02*
D03*
Y31051D02*
D03*
X193972Y16484D02*
D03*
Y31051D02*
D03*
X195941Y16484D02*
D03*
Y31051D02*
D03*
X197909Y16484D02*
D03*
Y31051D02*
D03*
X199878Y16484D02*
D03*
Y31051D02*
D03*
X201847Y16484D02*
D03*
Y31051D02*
D03*
X203815Y16484D02*
D03*
Y31051D02*
D03*
X205784Y16484D02*
D03*
Y31051D02*
D03*
X207752Y16484D02*
D03*
Y31051D02*
D03*
X209720Y16484D02*
D03*
Y31051D02*
D03*
X211689Y16484D02*
D03*
Y31051D02*
D03*
X213657Y16484D02*
D03*
Y31051D02*
D03*
X215626Y16484D02*
D03*
Y31051D02*
D03*
X217595Y16484D02*
D03*
Y31051D02*
D03*
X219563Y16484D02*
D03*
Y31051D02*
D03*
X221532Y16484D02*
D03*
Y31051D02*
D03*
X223500Y16484D02*
D03*
Y31051D02*
D03*
X225468Y16484D02*
D03*
Y31051D02*
D03*
X227437Y16484D02*
D03*
Y31051D02*
D03*
X229405Y16484D02*
D03*
Y31051D02*
D03*
X231374Y16484D02*
D03*
Y31051D02*
D03*
X233343Y16484D02*
D03*
Y31051D02*
D03*
X235311Y16484D02*
D03*
Y31051D02*
D03*
X237280Y16484D02*
D03*
Y31051D02*
D03*
X239248Y16484D02*
D03*
Y31051D02*
D03*
X241216Y16484D02*
D03*
Y31051D02*
D03*
X243185Y16484D02*
D03*
Y31051D02*
D03*
X245153Y16484D02*
D03*
Y31051D02*
D03*
D39*
X41500Y348000D02*
D03*
X51500D02*
D03*
X61500D02*
D03*
X71500D02*
D03*
X81500D02*
D03*
X91500D02*
D03*
X274000Y338500D02*
D03*
Y348500D02*
D03*
X284000Y338500D02*
D03*
Y348500D02*
D03*
X294000Y338500D02*
D03*
Y348500D02*
D03*
D40*
X253500Y81000D02*
D03*
X238500D02*
D03*
X223500D02*
D03*
X168000D02*
D03*
X153000D02*
D03*
X138000D02*
D03*
X154000Y60000D02*
D03*
X169000D02*
D03*
X184000D02*
D03*
X109500Y79000D02*
D03*
Y69000D02*
D03*
Y49000D02*
D03*
Y39000D02*
D03*
Y29000D02*
D03*
X82000Y79000D02*
D03*
Y69000D02*
D03*
Y49000D02*
D03*
Y39000D02*
D03*
Y29000D02*
D03*
X43000Y67500D02*
D03*
X28000D02*
D03*
X13000D02*
D03*
X43000Y48000D02*
D03*
X28000D02*
D03*
X13000D02*
D03*
D41*
X208500Y81000D02*
D03*
X183000D02*
D03*
X139000Y60000D02*
D03*
X58000Y67500D02*
D03*
Y48000D02*
D03*
D42*
X15626Y379083D02*
D03*
X378618D02*
D03*
X379012Y16091D02*
D03*
X14839Y14122D02*
D03*
D43*
X109500Y89000D02*
D03*
X82000D02*
D03*
D44*
X250075Y352705D02*
D03*
X143776D02*
D03*
X250075Y20421D02*
D03*
X143776D02*
D03*
X250075Y27114D02*
D03*
X143776D02*
D03*
D45*
X234681Y25500D02*
D03*
X204500Y39000D02*
D03*
X209500Y40000D02*
D03*
X186000Y349303D02*
D03*
X184000Y347000D02*
D03*
X182000Y349177D02*
D03*
X180193Y347193D02*
D03*
X186000Y25500D02*
D03*
X178500D02*
D03*
X171500D02*
D03*
X165500D02*
D03*
X184000Y44000D02*
D03*
X168000D02*
D03*
X175500D02*
D03*
X180000D02*
D03*
X172000D02*
D03*
X152000Y9000D02*
D03*
X149000D02*
D03*
X150500Y10500D02*
D03*
X149500Y24500D02*
D03*
X151500D02*
D03*
Y26500D02*
D03*
X149500D02*
D03*
X152000Y39500D02*
D03*
Y37000D02*
D03*
X149500D02*
D03*
Y39500D02*
D03*
X174000Y40500D02*
D03*
X176145Y37892D02*
D03*
X180188Y37693D02*
D03*
X184114Y38000D02*
D03*
X188067D02*
D03*
X172314Y36316D02*
D03*
X168377Y38000D02*
D03*
X164450D02*
D03*
X160500D02*
D03*
X156566Y37929D02*
D03*
X206000Y26500D02*
D03*
X204500Y24500D02*
D03*
X207000D02*
D03*
X206000Y37000D02*
D03*
X207000Y39000D02*
D03*
X219000Y37000D02*
D03*
X216500D02*
D03*
X217500Y40000D02*
D03*
X218000Y24500D02*
D03*
X216500Y26500D02*
D03*
X219000D02*
D03*
X223000Y22000D02*
D03*
X233000Y39000D02*
D03*
X235500D02*
D03*
X238000D02*
D03*
X232000Y25500D02*
D03*
X238500D02*
D03*
Y21500D02*
D03*
X241000D02*
D03*
X243500D02*
D03*
X232500D02*
D03*
X235000D02*
D03*
X259000Y34500D02*
D03*
X309000Y52500D02*
D03*
X306500Y50000D02*
D03*
X291500Y47000D02*
D03*
X309500Y47500D02*
D03*
X231000Y11000D02*
D03*
X212000D02*
D03*
X217000Y10914D02*
D03*
X214495Y10917D02*
D03*
X203000Y348000D02*
D03*
X200000D02*
D03*
X261978Y358978D02*
D03*
X260000Y362000D02*
D03*
X316500Y356000D02*
D03*
X356086Y182914D02*
D03*
X241586Y362000D02*
D03*
X223500Y364500D02*
D03*
X150500Y350000D02*
D03*
X154500D02*
D03*
X157379Y346879D02*
D03*
X249500Y343886D02*
D03*
X278500Y38500D02*
D03*
X290500Y42500D02*
D03*
X293000Y44500D02*
D03*
X367500Y138000D02*
D03*
X363314Y92000D02*
D03*
X234000D02*
D03*
X199500Y11000D02*
D03*
X296500Y5000D02*
D03*
X202000Y11000D02*
D03*
X303500Y9500D02*
D03*
Y13000D02*
D03*
X204500Y11000D02*
D03*
X207000D02*
D03*
X299000Y13000D02*
D03*
X301500Y15500D02*
D03*
X209500Y11000D02*
D03*
X296000Y13000D02*
D03*
X290000Y12500D02*
D03*
X293000Y13000D02*
D03*
X259500Y10000D02*
D03*
X219500Y11000D02*
D03*
X289500Y15500D02*
D03*
X233500Y11000D02*
D03*
X245500Y10414D02*
D03*
X279500Y28013D02*
D03*
X162500Y6914D02*
D03*
X271000Y29000D02*
D03*
X270069Y25932D02*
D03*
X278500Y30500D02*
D03*
X228272Y11000D02*
D03*
X278500Y33000D02*
D03*
X226000Y11000D02*
D03*
X270187Y18313D02*
D03*
X277000Y35000D02*
D03*
X223500Y11000D02*
D03*
X290252Y36752D02*
D03*
X293000Y40500D02*
D03*
X379500Y350500D02*
D03*
X340500Y29000D02*
D03*
X333000Y75000D02*
D03*
X159500Y10000D02*
D03*
X244000Y37500D02*
D03*
X241500D02*
D03*
X271500Y32000D02*
D03*
X141500Y374000D02*
D03*
X182500Y374500D02*
D03*
X194086Y362500D02*
D03*
X192500Y380000D02*
D03*
X190000Y383000D02*
D03*
X196000Y364500D02*
D03*
X198000Y362500D02*
D03*
X200000Y364500D02*
D03*
X202000Y362500D02*
D03*
X204000Y364500D02*
D03*
X206000Y362500D02*
D03*
X208000Y364500D02*
D03*
X243000Y374814D02*
D03*
X210000Y362500D02*
D03*
X211750Y364500D02*
D03*
X213500Y362500D02*
D03*
X215500Y364500D02*
D03*
X217500Y362500D02*
D03*
X219500Y364500D02*
D03*
X223000Y375000D02*
D03*
X221500Y362500D02*
D03*
X227500Y364000D02*
D03*
X225500Y362000D02*
D03*
X229500D02*
D03*
X231500Y364000D02*
D03*
X233500Y362000D02*
D03*
X235500Y364000D02*
D03*
X237500Y362000D02*
D03*
X240000Y364000D02*
D03*
X243500Y363500D02*
D03*
X245500Y361500D02*
D03*
X159121Y350621D02*
D03*
X156500Y352000D02*
D03*
X160500Y347000D02*
D03*
X152500Y352000D02*
D03*
X148500D02*
D03*
X168500Y337000D02*
D03*
X172500D02*
D03*
X170500Y335686D02*
D03*
X166713Y334500D02*
D03*
X162500Y335500D02*
D03*
X160500Y337000D02*
D03*
X158500Y335500D02*
D03*
X156500Y337000D02*
D03*
X154500Y335500D02*
D03*
X152500Y337000D02*
D03*
X150500Y335500D02*
D03*
X148500Y337000D02*
D03*
X161500Y374000D02*
D03*
X203000Y374500D02*
D03*
X358997Y377497D02*
D03*
X361500Y375000D02*
D03*
X357682Y370682D02*
D03*
X342500Y381914D02*
D03*
X336500Y380000D02*
D03*
X309500Y375000D02*
D03*
X331500Y339500D02*
D03*
X341500Y339414D02*
D03*
X341000Y346586D02*
D03*
X340656Y350693D02*
D03*
X337914Y356086D02*
D03*
X345414Y363500D02*
D03*
X308875Y380125D02*
D03*
X353893Y363307D02*
D03*
X363250Y342250D02*
D03*
X370870Y325000D02*
D03*
X371000Y334314D02*
D03*
X371557Y364614D02*
D03*
X374500Y346614D02*
D03*
X376364Y364614D02*
D03*
X368386D02*
D03*
X309500Y355500D02*
D03*
X310500Y344500D02*
D03*
X310495Y339914D02*
D03*
X323000Y361414D02*
D03*
X380000Y347500D02*
D03*
X383500Y348500D02*
D03*
X335000Y363000D02*
D03*
X388614Y355129D02*
D03*
X383000Y342500D02*
D03*
X374000Y364573D02*
D03*
X246500Y63000D02*
D03*
X232500Y71000D02*
D03*
X224000Y67500D02*
D03*
X42500Y79500D02*
D03*
X44500Y36000D02*
D03*
X87500Y15000D02*
D03*
X117000D02*
D03*
X162000Y48500D02*
D03*
X162500Y93500D02*
D03*
X376500Y304500D02*
D03*
X371000Y286000D02*
D03*
Y314000D02*
D03*
Y242500D02*
D03*
Y246500D02*
D03*
Y251000D02*
D03*
X371086Y229057D02*
D03*
X356000Y187000D02*
D03*
X358000Y215500D02*
D03*
X356214Y180000D02*
D03*
X356500Y177399D02*
D03*
X358000Y162500D02*
D03*
Y160000D02*
D03*
X368500Y223500D02*
D03*
X380614Y148336D02*
D03*
X378000Y125454D02*
D03*
X380442Y201343D02*
D03*
X380286Y182000D02*
D03*
Y191500D02*
D03*
X380429Y179500D02*
D03*
X376000Y87000D02*
D03*
X357000Y77500D02*
D03*
X356810Y71304D02*
D03*
X387216Y72250D02*
D03*
X315500Y77500D02*
D03*
X319500D02*
D03*
X369500Y32500D02*
D03*
X382000Y53000D02*
D03*
X373000Y39000D02*
D03*
X375000Y53000D02*
D03*
X383500Y63500D02*
D03*
X313500Y28000D02*
D03*
X310500Y11000D02*
D03*
X314500D02*
D03*
X356614Y68000D02*
D03*
X337957Y13864D02*
D03*
X359614Y39346D02*
D03*
X323500Y30500D02*
D03*
X343187Y17500D02*
D03*
X329500Y27500D02*
D03*
X325500D02*
D03*
X327500Y30500D02*
D03*
X358000Y37000D02*
D03*
X335500Y16500D02*
D03*
X330614D02*
D03*
X333000Y14000D02*
D03*
X340500Y33000D02*
D03*
X338000Y31000D02*
D03*
X340500Y37500D02*
D03*
X337500Y35500D02*
D03*
X340000Y41000D02*
D03*
X337500Y42500D02*
D03*
X340000Y44500D02*
D03*
Y48500D02*
D03*
X338000Y46500D02*
D03*
X340129Y52871D02*
D03*
X338000Y50500D02*
D03*
X340500Y56500D02*
D03*
X338000Y54500D02*
D03*
X340914Y74000D02*
D03*
X340500Y60500D02*
D03*
X338000Y58500D02*
D03*
X350000Y80414D02*
D03*
X338000Y62500D02*
D03*
X340500Y64500D02*
D03*
X338500Y66500D02*
D03*
X341000Y68500D02*
D03*
X339000Y70500D02*
D03*
X337000Y75000D02*
D03*
X335000Y77500D02*
D03*
X331000D02*
D03*
X327414D02*
D03*
X329000Y75000D02*
D03*
X325500D02*
D03*
X323500Y77500D02*
D03*
X264000Y66000D02*
D03*
X262000Y51500D02*
D03*
X266000Y70500D02*
D03*
X271000Y78500D02*
D03*
X280500Y80000D02*
D03*
X317500Y75000D02*
D03*
X324000Y91614D02*
D03*
X316000Y93000D02*
D03*
X302586Y88500D02*
D03*
X299000D02*
D03*
X295500Y92500D02*
D03*
X306000Y88500D02*
D03*
X307500Y90500D02*
D03*
X309500Y88500D02*
D03*
X301000Y92000D02*
D03*
X307500Y94500D02*
D03*
X304000Y96500D02*
D03*
X300000Y97500D02*
D03*
X293586Y88500D02*
D03*
X292000Y91000D02*
D03*
X290500Y68500D02*
D03*
X274500Y71500D02*
D03*
X277000Y69000D02*
D03*
X291000Y64500D02*
D03*
X259000Y60500D02*
D03*
X291000Y58500D02*
D03*
X259000Y57500D02*
D03*
X279000Y56500D02*
D03*
X259500Y54500D02*
D03*
X277000D02*
D03*
X156500Y11086D02*
D03*
X192500Y348000D02*
D03*
X190000Y348500D02*
D03*
X154500Y9500D02*
D03*
X229500Y40000D02*
D03*
X227437Y37500D02*
D03*
X225500Y40000D02*
D03*
X223500Y37500D02*
D03*
X221500Y40000D02*
D03*
X213657Y39843D02*
D03*
X211689Y37811D02*
D03*
X202000Y40000D02*
D03*
X199883Y38000D02*
D03*
X198000Y40500D02*
D03*
X195946Y38000D02*
D03*
X194000Y40500D02*
D03*
X192000Y38000D02*
D03*
X190000Y40500D02*
D03*
X186000D02*
D03*
X182500D02*
D03*
X178000D02*
D03*
X170500D02*
D03*
X166500D02*
D03*
X162500D02*
D03*
X158500D02*
D03*
X154500D02*
D03*
M02*
