G04*
G04 #@! TF.GenerationSoftware,Altium Limited,Altium Designer,20.0.13 (296)*
G04*
G04 Layer_Color=32768*
%FSLAX25Y25*%
%MOIN*%
G70*
G01*
G75*
G36*
X379100Y34087D02*
X379117Y34084D01*
X379137Y34080D01*
X379159Y34076D01*
X379183Y34071D01*
X379235Y34054D01*
X379263Y34041D01*
X379289Y34028D01*
X379318Y34010D01*
X379346Y33991D01*
X379375Y33969D01*
X379401Y33943D01*
X379403Y33941D01*
X379407Y33936D01*
X379414Y33927D01*
X379422Y33917D01*
X379433Y33903D01*
X379444Y33886D01*
X379457Y33866D01*
X379468Y33842D01*
X379481Y33818D01*
X379494Y33790D01*
X379505Y33762D01*
X379516Y33729D01*
X379525Y33694D01*
X379531Y33657D01*
X379536Y33620D01*
X379538Y33579D01*
Y33559D01*
X379536Y33546D01*
X379534Y33529D01*
X379531Y33509D01*
X379527Y33487D01*
X379523Y33463D01*
X379510Y33411D01*
X379488Y33356D01*
X379475Y33328D01*
X379460Y33302D01*
X379440Y33276D01*
X379420Y33249D01*
X379418Y33247D01*
X379414Y33243D01*
X379407Y33236D01*
X379398Y33230D01*
X379388Y33219D01*
X379372Y33208D01*
X379357Y33195D01*
X379337Y33182D01*
X379316Y33169D01*
X379294Y33156D01*
X379241Y33132D01*
X379181Y33112D01*
X379148Y33106D01*
X379113Y33101D01*
X379089Y33286D01*
X379091D01*
X379095Y33289D01*
X379104Y33291D01*
X379115Y33293D01*
X379128Y33295D01*
X379143Y33300D01*
X379176Y33310D01*
X379215Y33326D01*
X379252Y33345D01*
X379287Y33367D01*
X379318Y33393D01*
X379320Y33398D01*
X379329Y33406D01*
X379340Y33424D01*
X379350Y33446D01*
X379364Y33472D01*
X379375Y33505D01*
X379383Y33542D01*
X379385Y33581D01*
Y33594D01*
X379383Y33603D01*
X379381Y33627D01*
X379375Y33657D01*
X379364Y33692D01*
X379348Y33729D01*
X379327Y33766D01*
X379296Y33801D01*
X379292Y33805D01*
X379278Y33816D01*
X379259Y33829D01*
X379233Y33847D01*
X379200Y33864D01*
X379163Y33877D01*
X379119Y33888D01*
X379071Y33893D01*
X379069D01*
X379065D01*
X379058D01*
X379050Y33890D01*
X379026Y33888D01*
X378997Y33882D01*
X378962Y33873D01*
X378928Y33858D01*
X378893Y33836D01*
X378860Y33808D01*
X378856Y33803D01*
X378847Y33792D01*
X378834Y33775D01*
X378819Y33751D01*
X378803Y33720D01*
X378790Y33683D01*
X378782Y33642D01*
X378777Y33596D01*
Y33576D01*
X378779Y33561D01*
X378782Y33542D01*
X378786Y33520D01*
X378790Y33494D01*
X378797Y33465D01*
X378633Y33487D01*
Y33498D01*
X378635Y33507D01*
Y33535D01*
X378631Y33559D01*
X378627Y33587D01*
X378620Y33620D01*
X378609Y33657D01*
X378594Y33692D01*
X378574Y33729D01*
Y33731D01*
X378572Y33733D01*
X378563Y33744D01*
X378548Y33760D01*
X378529Y33777D01*
X378500Y33794D01*
X378468Y33810D01*
X378431Y33821D01*
X378409Y33825D01*
X378385D01*
X378383D01*
X378380D01*
X378367D01*
X378350Y33821D01*
X378326Y33816D01*
X378300Y33808D01*
X378271Y33797D01*
X378243Y33779D01*
X378217Y33755D01*
X378215Y33753D01*
X378206Y33742D01*
X378195Y33727D01*
X378182Y33707D01*
X378171Y33681D01*
X378160Y33651D01*
X378151Y33616D01*
X378149Y33576D01*
Y33559D01*
X378154Y33539D01*
X378158Y33513D01*
X378167Y33485D01*
X378178Y33457D01*
X378195Y33426D01*
X378217Y33398D01*
X378219Y33395D01*
X378230Y33387D01*
X378245Y33374D01*
X378267Y33358D01*
X378295Y33343D01*
X378330Y33328D01*
X378372Y33315D01*
X378420Y33306D01*
X378387Y33121D01*
X378385D01*
X378378Y33123D01*
X378369Y33125D01*
X378356Y33127D01*
X378341Y33132D01*
X378324Y33138D01*
X378282Y33151D01*
X378234Y33173D01*
X378186Y33199D01*
X378141Y33232D01*
X378099Y33273D01*
X378097Y33276D01*
X378095Y33280D01*
X378091Y33286D01*
X378084Y33295D01*
X378075Y33306D01*
X378066Y33321D01*
X378058Y33337D01*
X378047Y33356D01*
X378029Y33400D01*
X378012Y33450D01*
X378001Y33509D01*
X377997Y33539D01*
Y33594D01*
X377999Y33618D01*
X378003Y33646D01*
X378010Y33681D01*
X378021Y33720D01*
X378034Y33760D01*
X378051Y33799D01*
Y33801D01*
X378053Y33803D01*
X378060Y33816D01*
X378073Y33836D01*
X378088Y33858D01*
X378110Y33884D01*
X378134Y33910D01*
X378162Y33936D01*
X378195Y33958D01*
X378199Y33960D01*
X378210Y33967D01*
X378230Y33975D01*
X378254Y33986D01*
X378282Y33997D01*
X378315Y34006D01*
X378352Y34012D01*
X378389Y34015D01*
X378394D01*
X378407D01*
X378424Y34012D01*
X378448Y34008D01*
X378476Y34001D01*
X378507Y33991D01*
X378537Y33978D01*
X378568Y33960D01*
X378572Y33958D01*
X378581Y33951D01*
X378596Y33938D01*
X378614Y33921D01*
X378633Y33899D01*
X378655Y33873D01*
X378675Y33842D01*
X378694Y33805D01*
Y33808D01*
X378696Y33812D01*
X378699Y33818D01*
X378701Y33827D01*
X378710Y33851D01*
X378723Y33882D01*
X378740Y33917D01*
X378762Y33951D01*
X378790Y33984D01*
X378823Y34015D01*
X378827Y34017D01*
X378840Y34025D01*
X378862Y34039D01*
X378890Y34052D01*
X378925Y34065D01*
X378967Y34078D01*
X379015Y34087D01*
X379067Y34089D01*
X379069D01*
X379076D01*
X379087D01*
X379100Y34087D01*
D02*
G37*
G36*
X378795Y32899D02*
X378812D01*
X378854Y32896D01*
X378901Y32890D01*
X378952Y32883D01*
X379004Y32872D01*
X379056Y32859D01*
X379058D01*
X379063Y32857D01*
X379069Y32855D01*
X379078Y32853D01*
X379102Y32844D01*
X379133Y32831D01*
X379167Y32818D01*
X379202Y32800D01*
X379239Y32779D01*
X379274Y32757D01*
X379278Y32755D01*
X379289Y32746D01*
X379305Y32733D01*
X379324Y32715D01*
X379346Y32696D01*
X379368Y32672D01*
X379392Y32648D01*
X379412Y32619D01*
X379414Y32615D01*
X379420Y32606D01*
X379429Y32591D01*
X379440Y32569D01*
X379453Y32543D01*
X379464Y32513D01*
X379477Y32478D01*
X379488Y32438D01*
Y32434D01*
X379490Y32428D01*
X379492Y32421D01*
X379494Y32399D01*
X379499Y32369D01*
X379503Y32334D01*
X379507Y32292D01*
X379510Y32247D01*
X379512Y32197D01*
Y31654D01*
X378003D01*
Y32234D01*
X378005Y32273D01*
X378008Y32316D01*
X378012Y32360D01*
X378018Y32404D01*
X378025Y32441D01*
Y32443D01*
X378027Y32447D01*
Y32454D01*
X378032Y32462D01*
X378038Y32486D01*
X378049Y32517D01*
X378064Y32552D01*
X378084Y32589D01*
X378106Y32626D01*
X378134Y32661D01*
X378136Y32663D01*
X378138Y32665D01*
X378145Y32672D01*
X378151Y32680D01*
X378173Y32702D01*
X378204Y32728D01*
X378241Y32757D01*
X378285Y32787D01*
X378335Y32816D01*
X378391Y32840D01*
X378394D01*
X378398Y32842D01*
X378407Y32846D01*
X378420Y32848D01*
X378435Y32855D01*
X378452Y32859D01*
X378472Y32864D01*
X378496Y32870D01*
X378520Y32877D01*
X378548Y32881D01*
X378609Y32892D01*
X378677Y32899D01*
X378751Y32901D01*
X378753D01*
X378758D01*
X378768D01*
X378779D01*
X378795Y32899D01*
D02*
G37*
G36*
X378182Y30575D02*
X378648D01*
Y31283D01*
X378827D01*
Y30575D01*
X379512D01*
Y30374D01*
X378003D01*
Y31394D01*
X378182D01*
Y30575D01*
D02*
G37*
G36*
X15339Y31112D02*
X15336D01*
X15328D01*
X15315D01*
X15297Y31114D01*
X15278Y31117D01*
X15256Y31121D01*
X15234Y31125D01*
X15210Y31134D01*
X15208D01*
X15206Y31136D01*
X15192Y31141D01*
X15173Y31149D01*
X15147Y31162D01*
X15116Y31180D01*
X15081Y31202D01*
X15046Y31226D01*
X15009Y31256D01*
X15007D01*
X15005Y31260D01*
X14992Y31271D01*
X14972Y31291D01*
X14944Y31319D01*
X14911Y31352D01*
X14872Y31394D01*
X14829Y31444D01*
X14783Y31498D01*
X14781Y31500D01*
X14774Y31509D01*
X14763Y31522D01*
X14750Y31537D01*
X14732Y31557D01*
X14713Y31581D01*
X14691Y31605D01*
X14667Y31633D01*
X14615Y31688D01*
X14562Y31742D01*
X14536Y31768D01*
X14510Y31792D01*
X14486Y31814D01*
X14462Y31832D01*
X14460D01*
X14458Y31836D01*
X14451Y31840D01*
X14443Y31845D01*
X14419Y31860D01*
X14390Y31877D01*
X14355Y31893D01*
X14318Y31908D01*
X14277Y31917D01*
X14238Y31921D01*
X14235D01*
X14233D01*
X14220Y31919D01*
X14198Y31917D01*
X14175Y31910D01*
X14144Y31901D01*
X14113Y31886D01*
X14083Y31866D01*
X14052Y31840D01*
X14048Y31836D01*
X14039Y31825D01*
X14028Y31810D01*
X14013Y31786D01*
X14000Y31755D01*
X13987Y31720D01*
X13978Y31679D01*
X13976Y31633D01*
Y31620D01*
X13978Y31611D01*
X13980Y31585D01*
X13987Y31555D01*
X13996Y31522D01*
X14011Y31485D01*
X14031Y31450D01*
X14057Y31417D01*
X14061Y31413D01*
X14072Y31404D01*
X14089Y31391D01*
X14116Y31378D01*
X14146Y31363D01*
X14185Y31350D01*
X14229Y31341D01*
X14279Y31337D01*
X14259Y31147D01*
X14257D01*
X14251Y31149D01*
X14240D01*
X14225Y31152D01*
X14207Y31156D01*
X14187Y31160D01*
X14164Y31167D01*
X14140Y31173D01*
X14087Y31191D01*
X14035Y31217D01*
X14009Y31232D01*
X13983Y31252D01*
X13959Y31271D01*
X13937Y31293D01*
X13935Y31295D01*
X13932Y31300D01*
X13926Y31306D01*
X13919Y31317D01*
X13911Y31330D01*
X13902Y31345D01*
X13891Y31363D01*
X13880Y31385D01*
X13869Y31409D01*
X13858Y31435D01*
X13850Y31463D01*
X13841Y31494D01*
X13834Y31526D01*
X13828Y31561D01*
X13826Y31598D01*
X13824Y31638D01*
Y31659D01*
X13826Y31675D01*
X13828Y31692D01*
X13830Y31714D01*
X13834Y31738D01*
X13839Y31762D01*
X13854Y31819D01*
X13876Y31875D01*
X13889Y31904D01*
X13904Y31932D01*
X13924Y31958D01*
X13946Y31982D01*
X13948Y31984D01*
X13950Y31989D01*
X13959Y31993D01*
X13967Y32002D01*
X13978Y32013D01*
X13994Y32024D01*
X14009Y32034D01*
X14028Y32047D01*
X14070Y32069D01*
X14122Y32091D01*
X14148Y32100D01*
X14179Y32104D01*
X14209Y32109D01*
X14242Y32111D01*
X14246D01*
X14257D01*
X14275Y32109D01*
X14299Y32106D01*
X14325Y32102D01*
X14355Y32093D01*
X14388Y32085D01*
X14421Y32071D01*
X14425Y32069D01*
X14436Y32065D01*
X14454Y32056D01*
X14478Y32043D01*
X14504Y32026D01*
X14536Y32004D01*
X14569Y31978D01*
X14606Y31947D01*
X14611Y31943D01*
X14624Y31932D01*
X14634Y31921D01*
X14645Y31910D01*
X14658Y31897D01*
X14676Y31880D01*
X14693Y31862D01*
X14713Y31840D01*
X14735Y31819D01*
X14759Y31792D01*
X14783Y31764D01*
X14811Y31734D01*
X14839Y31699D01*
X14870Y31664D01*
X14872Y31662D01*
X14876Y31657D01*
X14883Y31648D01*
X14892Y31638D01*
X14905Y31624D01*
X14918Y31609D01*
X14946Y31574D01*
X14979Y31537D01*
X15012Y31502D01*
X15040Y31472D01*
X15051Y31459D01*
X15062Y31448D01*
X15064Y31446D01*
X15070Y31439D01*
X15079Y31431D01*
X15092Y31420D01*
X15108Y31409D01*
X15123Y31396D01*
X15160Y31370D01*
Y32113D01*
X15339D01*
Y31112D01*
D02*
G37*
G36*
X14621Y30938D02*
X14639D01*
X14680Y30936D01*
X14728Y30929D01*
X14778Y30923D01*
X14831Y30912D01*
X14883Y30899D01*
X14885D01*
X14889Y30896D01*
X14896Y30894D01*
X14905Y30892D01*
X14929Y30883D01*
X14959Y30870D01*
X14994Y30857D01*
X15029Y30840D01*
X15066Y30818D01*
X15101Y30796D01*
X15105Y30794D01*
X15116Y30785D01*
X15132Y30772D01*
X15151Y30755D01*
X15173Y30735D01*
X15195Y30711D01*
X15219Y30687D01*
X15238Y30659D01*
X15240Y30654D01*
X15247Y30646D01*
X15256Y30630D01*
X15267Y30609D01*
X15280Y30582D01*
X15291Y30552D01*
X15304Y30517D01*
X15315Y30478D01*
Y30474D01*
X15317Y30467D01*
X15319Y30460D01*
X15321Y30439D01*
X15326Y30408D01*
X15330Y30373D01*
X15334Y30332D01*
X15336Y30286D01*
X15339Y30236D01*
Y29693D01*
X13830D01*
Y30273D01*
X13832Y30312D01*
X13834Y30356D01*
X13839Y30399D01*
X13845Y30443D01*
X13852Y30480D01*
Y30482D01*
X13854Y30487D01*
Y30493D01*
X13858Y30502D01*
X13865Y30526D01*
X13876Y30556D01*
X13891Y30591D01*
X13911Y30628D01*
X13932Y30665D01*
X13961Y30700D01*
X13963Y30702D01*
X13965Y30705D01*
X13972Y30711D01*
X13978Y30720D01*
X14000Y30742D01*
X14031Y30768D01*
X14068Y30796D01*
X14111Y30827D01*
X14161Y30855D01*
X14218Y30879D01*
X14220D01*
X14225Y30881D01*
X14233Y30885D01*
X14246Y30888D01*
X14262Y30894D01*
X14279Y30899D01*
X14299Y30903D01*
X14323Y30909D01*
X14347Y30916D01*
X14375Y30920D01*
X14436Y30931D01*
X14504Y30938D01*
X14578Y30940D01*
X14580D01*
X14584D01*
X14595D01*
X14606D01*
X14621Y30938D01*
D02*
G37*
G36*
X14009Y28614D02*
X14475D01*
Y29322D01*
X14654D01*
Y28614D01*
X15339D01*
Y28413D01*
X13830D01*
Y29434D01*
X14009D01*
Y28614D01*
D02*
G37*
G36*
X14049Y360079D02*
X13863D01*
Y361258D01*
X13861Y361256D01*
X13850Y361247D01*
X13837Y361234D01*
X13815Y361219D01*
X13791Y361199D01*
X13761Y361177D01*
X13726Y361154D01*
X13687Y361129D01*
X13684D01*
X13682Y361127D01*
X13669Y361119D01*
X13647Y361108D01*
X13621Y361095D01*
X13591Y361079D01*
X13558Y361064D01*
X13525Y361049D01*
X13493Y361036D01*
Y361214D01*
X13495D01*
X13499Y361219D01*
X13508Y361221D01*
X13519Y361228D01*
X13532Y361234D01*
X13547Y361243D01*
X13584Y361265D01*
X13628Y361289D01*
X13671Y361319D01*
X13717Y361354D01*
X13763Y361391D01*
X13765Y361393D01*
X13767Y361396D01*
X13774Y361402D01*
X13783Y361408D01*
X13802Y361430D01*
X13828Y361456D01*
X13855Y361487D01*
X13883Y361522D01*
X13907Y361557D01*
X13929Y361594D01*
X14049D01*
Y360079D01*
D02*
G37*
G36*
X12525Y361585D02*
X12568Y361583D01*
X12612Y361579D01*
X12656Y361572D01*
X12693Y361565D01*
X12695D01*
X12699Y361563D01*
X12706D01*
X12714Y361559D01*
X12738Y361552D01*
X12769Y361542D01*
X12804Y361526D01*
X12841Y361507D01*
X12878Y361485D01*
X12913Y361456D01*
X12915Y361454D01*
X12917Y361452D01*
X12924Y361446D01*
X12932Y361439D01*
X12954Y361417D01*
X12980Y361387D01*
X13009Y361350D01*
X13039Y361306D01*
X13068Y361256D01*
X13092Y361199D01*
Y361197D01*
X13094Y361193D01*
X13098Y361184D01*
X13100Y361171D01*
X13107Y361156D01*
X13111Y361138D01*
X13115Y361119D01*
X13122Y361095D01*
X13129Y361071D01*
X13133Y361042D01*
X13144Y360981D01*
X13150Y360914D01*
X13153Y360840D01*
Y360837D01*
Y360833D01*
Y360822D01*
Y360811D01*
X13150Y360796D01*
Y360778D01*
X13148Y360737D01*
X13142Y360689D01*
X13135Y360639D01*
X13124Y360587D01*
X13111Y360534D01*
Y360532D01*
X13109Y360528D01*
X13107Y360521D01*
X13105Y360513D01*
X13096Y360489D01*
X13083Y360458D01*
X13070Y360423D01*
X13052Y360388D01*
X13031Y360351D01*
X13009Y360316D01*
X13006Y360312D01*
X12998Y360301D01*
X12985Y360286D01*
X12967Y360266D01*
X12948Y360244D01*
X12924Y360223D01*
X12900Y360199D01*
X12871Y360179D01*
X12867Y360177D01*
X12858Y360170D01*
X12843Y360162D01*
X12821Y360151D01*
X12795Y360138D01*
X12765Y360127D01*
X12730Y360114D01*
X12690Y360103D01*
X12686D01*
X12679Y360101D01*
X12673Y360098D01*
X12651Y360096D01*
X12621Y360092D01*
X12586Y360087D01*
X12544Y360083D01*
X12499Y360081D01*
X12449Y360079D01*
X11906D01*
Y361587D01*
X12485D01*
X12525Y361585D01*
D02*
G37*
G36*
X11646Y361408D02*
X10826D01*
Y360942D01*
X11535D01*
Y360763D01*
X10826D01*
Y360079D01*
X10626D01*
Y361587D01*
X11646D01*
Y361408D01*
D02*
G37*
%LPC*%
G36*
X378747Y32696D02*
X378745D01*
X378736D01*
X378725D01*
X378707Y32693D01*
X378688D01*
X378666Y32691D01*
X378640Y32689D01*
X378614Y32687D01*
X378555Y32676D01*
X378494Y32663D01*
X378437Y32643D01*
X378409Y32630D01*
X378385Y32617D01*
X378383D01*
X378378Y32613D01*
X378372Y32609D01*
X378363Y32604D01*
X378341Y32587D01*
X378315Y32565D01*
X378287Y32537D01*
X378258Y32504D01*
X378234Y32467D01*
X378215Y32428D01*
X378212Y32423D01*
X378210Y32412D01*
X378204Y32393D01*
X378197Y32364D01*
X378193Y32329D01*
X378186Y32286D01*
X378184Y32260D01*
Y32231D01*
X378182Y32203D01*
Y31854D01*
X379333D01*
Y32212D01*
X379331Y32227D01*
X379329Y32260D01*
X379327Y32297D01*
X379322Y32336D01*
X379316Y32375D01*
X379307Y32408D01*
X379305Y32412D01*
X379303Y32423D01*
X379296Y32438D01*
X379287Y32458D01*
X379274Y32480D01*
X379261Y32502D01*
X379246Y32524D01*
X379228Y32545D01*
X379224Y32548D01*
X379215Y32556D01*
X379200Y32569D01*
X379178Y32585D01*
X379150Y32602D01*
X379117Y32622D01*
X379080Y32639D01*
X379039Y32654D01*
X379037D01*
X379032Y32656D01*
X379026Y32659D01*
X379017Y32661D01*
X379006Y32663D01*
X378991Y32667D01*
X378976Y32672D01*
X378958Y32676D01*
X378914Y32683D01*
X378864Y32689D01*
X378808Y32693D01*
X378747Y32696D01*
D02*
G37*
G36*
X14573Y30735D02*
X14571D01*
X14562D01*
X14552D01*
X14534Y30733D01*
X14514D01*
X14493Y30731D01*
X14467Y30729D01*
X14440Y30726D01*
X14382Y30716D01*
X14321Y30702D01*
X14264Y30683D01*
X14235Y30670D01*
X14211Y30657D01*
X14209D01*
X14205Y30652D01*
X14198Y30648D01*
X14190Y30643D01*
X14168Y30626D01*
X14142Y30604D01*
X14113Y30576D01*
X14085Y30543D01*
X14061Y30506D01*
X14041Y30467D01*
X14039Y30463D01*
X14037Y30452D01*
X14031Y30432D01*
X14024Y30404D01*
X14020Y30369D01*
X14013Y30325D01*
X14011Y30299D01*
Y30271D01*
X14009Y30242D01*
Y29894D01*
X15160D01*
Y30251D01*
X15158Y30266D01*
X15156Y30299D01*
X15153Y30336D01*
X15149Y30375D01*
X15142Y30415D01*
X15134Y30447D01*
X15132Y30452D01*
X15129Y30463D01*
X15123Y30478D01*
X15114Y30498D01*
X15101Y30519D01*
X15088Y30541D01*
X15073Y30563D01*
X15055Y30585D01*
X15051Y30587D01*
X15042Y30596D01*
X15027Y30609D01*
X15005Y30624D01*
X14977Y30641D01*
X14944Y30661D01*
X14907Y30678D01*
X14865Y30694D01*
X14863D01*
X14859Y30696D01*
X14852Y30698D01*
X14844Y30700D01*
X14833Y30702D01*
X14818Y30707D01*
X14802Y30711D01*
X14785Y30716D01*
X14741Y30722D01*
X14691Y30729D01*
X14634Y30733D01*
X14573Y30735D01*
D02*
G37*
G36*
X12455Y361408D02*
X12106D01*
Y360258D01*
X12464D01*
X12479Y360260D01*
X12512Y360262D01*
X12549Y360264D01*
X12588Y360268D01*
X12627Y360275D01*
X12660Y360284D01*
X12664Y360286D01*
X12675Y360288D01*
X12690Y360295D01*
X12710Y360303D01*
X12732Y360316D01*
X12754Y360329D01*
X12776Y360345D01*
X12797Y360362D01*
X12799Y360367D01*
X12808Y360375D01*
X12821Y360390D01*
X12836Y360412D01*
X12854Y360441D01*
X12874Y360473D01*
X12891Y360510D01*
X12906Y360552D01*
Y360554D01*
X12908Y360558D01*
X12911Y360565D01*
X12913Y360574D01*
X12915Y360584D01*
X12919Y360600D01*
X12924Y360615D01*
X12928Y360632D01*
X12935Y360676D01*
X12941Y360726D01*
X12946Y360783D01*
X12948Y360844D01*
Y360846D01*
Y360855D01*
Y360866D01*
X12946Y360883D01*
Y360903D01*
X12943Y360925D01*
X12941Y360951D01*
X12939Y360977D01*
X12928Y361036D01*
X12915Y361097D01*
X12895Y361154D01*
X12882Y361182D01*
X12869Y361206D01*
Y361208D01*
X12865Y361212D01*
X12860Y361219D01*
X12856Y361228D01*
X12839Y361249D01*
X12817Y361276D01*
X12788Y361304D01*
X12756Y361332D01*
X12719Y361356D01*
X12679Y361376D01*
X12675Y361378D01*
X12664Y361380D01*
X12645Y361387D01*
X12616Y361393D01*
X12581Y361398D01*
X12538Y361404D01*
X12512Y361406D01*
X12483D01*
X12455Y361408D01*
D02*
G37*
%LPD*%
M02*
