G04*
G04 #@! TF.GenerationSoftware,Altium Limited,Altium Designer,20.0.13 (296)*
G04*
G04 Layer_Physical_Order=2*
G04 Layer_Color=32768*
%FSLAX25Y25*%
%MOIN*%
G70*
G01*
G75*
%ADD120C,0.04000*%
%ADD121C,0.03800*%
G04:AMPARAMS|DCode=122|XSize=61.622mil|YSize=61.622mil|CornerRadius=0mil|HoleSize=0mil|Usage=FLASHONLY|Rotation=0.000|XOffset=0mil|YOffset=0mil|HoleType=Round|Shape=Relief|Width=4mil|Gap=4mil|Entries=4|*
%AMTHD122*
7,0,0,0.06162,0.05362,0.00400,45*
%
%ADD122THD122*%
%ADD123C,0.10170*%
%ADD124C,0.04737*%
%ADD125C,0.07099*%
G04:AMPARAMS|DCode=126|XSize=94.614mil|YSize=94.614mil|CornerRadius=0mil|HoleSize=0mil|Usage=FLASHONLY|Rotation=0.000|XOffset=0mil|YOffset=0mil|HoleType=Round|Shape=Relief|Width=4mil|Gap=4mil|Entries=4|*
%AMTHD126*
7,0,0,0.09461,0.08661,0.00400,45*
%
%ADD126THD126*%
%ADD127C,0.03753*%
G04:AMPARAMS|DCode=128|XSize=61.152mil|YSize=61.152mil|CornerRadius=0mil|HoleSize=0mil|Usage=FLASHONLY|Rotation=0.000|XOffset=0mil|YOffset=0mil|HoleType=Round|Shape=Relief|Width=4mil|Gap=4mil|Entries=4|*
%AMTHD128*
7,0,0,0.06115,0.05315,0.00400,45*
%
%ADD128THD128*%
%ADD129C,0.06312*%
%ADD130C,0.10249*%
G04:AMPARAMS|DCode=131|XSize=86.74mil|YSize=86.74mil|CornerRadius=0mil|HoleSize=0mil|Usage=FLASHONLY|Rotation=0.000|XOffset=0mil|YOffset=0mil|HoleType=Round|Shape=Relief|Width=4mil|Gap=4mil|Entries=4|*
%AMTHD131*
7,0,0,0.08674,0.07874,0.00400,45*
%
%ADD131THD131*%
%ADD132C,0.06509*%
G04:AMPARAMS|DCode=133|XSize=118.236mil|YSize=118.236mil|CornerRadius=0mil|HoleSize=0mil|Usage=FLASHONLY|Rotation=0.000|XOffset=0mil|YOffset=0mil|HoleType=Round|Shape=Relief|Width=4mil|Gap=4mil|Entries=4|*
%AMTHD133*
7,0,0,0.11824,0.11024,0.00400,45*
%
%ADD133THD133*%
%ADD134C,0.01587*%
%ADD135C,0.03600*%
D120*
X25Y25D02*
Y393726D01*
X393726D01*
Y25D02*
Y393726D01*
X25Y25D02*
X393726D01*
D121*
X323000Y44000D02*
D03*
X313000D02*
D03*
X293000D02*
D03*
X283000D02*
D03*
X273000D02*
D03*
X38658Y350366D02*
D03*
X48658D02*
D03*
X68657D02*
D03*
X78658D02*
D03*
X88657D02*
D03*
X71351Y41165D02*
D03*
X61351Y51165D02*
D03*
Y41165D02*
D03*
X51351Y51165D02*
D03*
Y41165D02*
D03*
X315597Y351500D02*
D03*
X325597Y341500D02*
D03*
Y351500D02*
D03*
X335597Y341500D02*
D03*
Y351500D02*
D03*
D122*
X303000Y44000D02*
D03*
X58657Y350366D02*
D03*
X71351Y51165D02*
D03*
X315597Y341500D02*
D03*
D123*
X25465Y112279D02*
D03*
Y64878D02*
D03*
D124*
X36134Y83657D02*
D03*
X44008Y93500D02*
D03*
X36134D02*
D03*
X44008Y83657D02*
D03*
D125*
X22500Y322500D02*
D03*
Y282564D02*
D03*
D126*
X12500Y332500D02*
D03*
X32500D02*
D03*
Y312500D02*
D03*
X12500D02*
D03*
Y292564D02*
D03*
X32500D02*
D03*
Y272564D02*
D03*
X12500D02*
D03*
D127*
X129966Y320588D02*
D03*
X109966D02*
D03*
X89966D02*
D03*
X69966D02*
D03*
X129466Y282588D02*
D03*
X109466D02*
D03*
X89466D02*
D03*
X69466D02*
D03*
X283466Y242088D02*
D03*
X268466D02*
D03*
X253466D02*
D03*
X254466Y220088D02*
D03*
X269466D02*
D03*
X284466D02*
D03*
X299466D02*
D03*
X297966Y198088D02*
D03*
X282966D02*
D03*
X267966D02*
D03*
X252966D02*
D03*
X253966Y176088D02*
D03*
X268966D02*
D03*
X283966D02*
D03*
X298966D02*
D03*
X297966Y155088D02*
D03*
X282966D02*
D03*
X267966D02*
D03*
X252966D02*
D03*
X268966Y134088D02*
D03*
X283966D02*
D03*
X298966D02*
D03*
X283000Y113000D02*
D03*
X268000D02*
D03*
X253000D02*
D03*
X268000Y92000D02*
D03*
X283000D02*
D03*
X298000D02*
D03*
X281966Y71088D02*
D03*
X266966D02*
D03*
X251966D02*
D03*
X128466Y255088D02*
D03*
X143466D02*
D03*
X158466D02*
D03*
X142466Y233088D02*
D03*
X127466D02*
D03*
X112466D02*
D03*
X128966Y210210D02*
D03*
X143966D02*
D03*
X158966D02*
D03*
X142966Y187710D02*
D03*
X127966D02*
D03*
X112966D02*
D03*
X128466Y165710D02*
D03*
X143466D02*
D03*
X158466D02*
D03*
X142966Y142710D02*
D03*
X127966D02*
D03*
X112966D02*
D03*
X113966Y119710D02*
D03*
X128966D02*
D03*
X143966D02*
D03*
X158966D02*
D03*
X158000Y98000D02*
D03*
X143000D02*
D03*
X128000D02*
D03*
X113000D02*
D03*
X113466Y73710D02*
D03*
X128466D02*
D03*
X143466D02*
D03*
X158466D02*
D03*
X142500Y50500D02*
D03*
X127500D02*
D03*
X112500D02*
D03*
D128*
X119966Y320588D02*
D03*
X79966D02*
D03*
X119466Y282588D02*
D03*
X79466D02*
D03*
X298466Y242088D02*
D03*
X253966Y134088D02*
D03*
X298000Y113000D02*
D03*
X253000Y92000D02*
D03*
X296966Y71088D02*
D03*
X113466Y255088D02*
D03*
X157466Y233088D02*
D03*
X113966Y210210D02*
D03*
X157966Y187710D02*
D03*
X113466Y165710D02*
D03*
X157966Y142710D02*
D03*
X157500Y50500D02*
D03*
D129*
X362874Y227500D02*
D03*
Y247185D02*
D03*
Y266870D02*
D03*
Y286555D02*
D03*
Y306240D02*
D03*
Y325925D02*
D03*
X362000Y102000D02*
D03*
Y82315D02*
D03*
X28004Y202000D02*
D03*
Y222000D02*
D03*
D130*
X372716Y207815D02*
D03*
Y345610D02*
D03*
X371843Y161055D02*
D03*
Y62630D02*
D03*
X18161Y142000D02*
D03*
Y242000D02*
D03*
D131*
X362000Y141370D02*
D03*
Y121685D02*
D03*
X28004Y162000D02*
D03*
Y182000D02*
D03*
D132*
X250075Y352705D02*
D03*
X143776D02*
D03*
X250075Y27114D02*
D03*
X143776D02*
D03*
D133*
X379012Y16091D02*
D03*
X14839Y14122D02*
D03*
X378618Y379083D02*
D03*
X15626D02*
D03*
D134*
X196850Y92850D02*
D03*
X78000Y237500D02*
D03*
X87500D02*
D03*
X82500D02*
D03*
X60689Y226500D02*
D03*
X215255Y23386D02*
D03*
X78000Y139500D02*
D03*
X83500D02*
D03*
X204500Y26000D02*
D03*
X207000D02*
D03*
Y24000D02*
D03*
X183500Y335000D02*
D03*
X218500D02*
D03*
X229500Y95000D02*
D03*
X246500Y93500D02*
D03*
Y96500D02*
D03*
X137500Y38000D02*
D03*
X133500D02*
D03*
Y44000D02*
D03*
X130500D02*
D03*
X256000Y277000D02*
D03*
X250500D02*
D03*
X240000Y84500D02*
D03*
X177000Y150000D02*
D03*
X183000D02*
D03*
X207851Y140649D02*
D03*
X204500Y144000D02*
D03*
X170000Y97500D02*
D03*
X177000Y324000D02*
D03*
X180000Y302000D02*
D03*
X245500Y299000D02*
D03*
Y302500D02*
D03*
X243000Y300500D02*
D03*
Y297000D02*
D03*
X242129Y293532D02*
D03*
X210459Y24239D02*
D03*
X235000Y21500D02*
D03*
X317000Y142500D02*
D03*
X317500Y80500D02*
D03*
X314500Y82000D02*
D03*
X318000Y101500D02*
D03*
X315000Y103000D02*
D03*
X316500Y122500D02*
D03*
X308000Y103000D02*
D03*
X314000Y124000D02*
D03*
X300500D02*
D03*
X352000Y191500D02*
D03*
Y195000D02*
D03*
X264500Y24000D02*
D03*
X261000D02*
D03*
X257500D02*
D03*
X179500D02*
D03*
X275000Y211500D02*
D03*
X279000D02*
D03*
X275000Y209000D02*
D03*
X279000D02*
D03*
X286500Y230500D02*
D03*
X255000Y310500D02*
D03*
X257500D02*
D03*
X224500Y283500D02*
D03*
X225500Y286000D02*
D03*
X223500Y280500D02*
D03*
X217500Y212500D02*
D03*
X177433Y144400D02*
D03*
X322500Y193000D02*
D03*
Y191000D02*
D03*
X356000Y168000D02*
D03*
X276000Y198500D02*
D03*
X297500Y231000D02*
D03*
X292000D02*
D03*
X305000Y230500D02*
D03*
X276000Y202000D02*
D03*
X193786Y143000D02*
D03*
X167000Y107500D02*
D03*
X127500Y130500D02*
D03*
X239000Y218000D02*
D03*
X294000Y272500D02*
D03*
X298500D02*
D03*
X237000Y220000D02*
D03*
X234000Y211000D02*
D03*
X193500Y145500D02*
D03*
X98500Y105000D02*
D03*
X236000Y49000D02*
D03*
X229500Y50500D02*
D03*
X230500Y47000D02*
D03*
X233500Y53000D02*
D03*
X298500Y165500D02*
D03*
X304000Y149500D02*
D03*
X204500Y24000D02*
D03*
X98000Y245500D02*
D03*
X78500Y91000D02*
D03*
X80500Y89000D02*
D03*
X84000Y84500D02*
D03*
Y80000D02*
D03*
X321000Y247500D02*
D03*
X312500Y233000D02*
D03*
X317000Y230000D02*
D03*
Y185000D02*
D03*
Y207000D02*
D03*
Y164000D02*
D03*
X311500Y190500D02*
D03*
X208000Y110000D02*
D03*
X200000D02*
D03*
X208000Y117000D02*
D03*
X200500D02*
D03*
X208000Y124000D02*
D03*
X200500D02*
D03*
X361000Y168000D02*
D03*
X350500D02*
D03*
X345500Y165000D02*
D03*
X350500D02*
D03*
X356000D02*
D03*
X361000D02*
D03*
X182500Y107886D02*
D03*
X363000Y74000D02*
D03*
X371500Y76000D02*
D03*
X363000Y92000D02*
D03*
X371500Y105000D02*
D03*
Y95500D02*
D03*
Y86500D02*
D03*
X161500Y85500D02*
D03*
X159000D02*
D03*
X166500Y88000D02*
D03*
X209000Y93000D02*
D03*
X205500D02*
D03*
X109002Y57686D02*
D03*
X111100Y60160D02*
D03*
X187500Y65791D02*
D03*
X72500Y266000D02*
D03*
X66000D02*
D03*
X59000D02*
D03*
X87500Y256000D02*
D03*
X34500Y255000D02*
D03*
X107500Y109000D02*
D03*
X105500Y220500D02*
D03*
Y198000D02*
D03*
Y176500D02*
D03*
Y153500D02*
D03*
X95250Y198750D02*
D03*
X93000Y129500D02*
D03*
Y152500D02*
D03*
X93500Y179000D02*
D03*
X93000Y217000D02*
D03*
X92500Y197361D02*
D03*
X94086Y175000D02*
D03*
X57500Y243500D02*
D03*
Y247000D02*
D03*
X104000Y130000D02*
D03*
X204000Y58000D02*
D03*
X209000D02*
D03*
X188000Y70000D02*
D03*
X89500Y89000D02*
D03*
X63000Y77000D02*
D03*
X78500Y249000D02*
D03*
X78000Y240500D02*
D03*
X82500D02*
D03*
X87500D02*
D03*
X50500Y230000D02*
D03*
X47000D02*
D03*
X43000D02*
D03*
Y233000D02*
D03*
X47000D02*
D03*
X50500D02*
D03*
X87000Y181500D02*
D03*
Y167500D02*
D03*
Y160500D02*
D03*
X87500Y153000D02*
D03*
X60000Y139500D02*
D03*
X66500D02*
D03*
X72500D02*
D03*
X55000D02*
D03*
X62000Y94414D02*
D03*
X89500Y64500D02*
D03*
X61500Y59500D02*
D03*
X89630Y16000D02*
D03*
X94000Y63500D02*
D03*
X84917Y204416D02*
D03*
X51500Y330500D02*
D03*
X53500Y290500D02*
D03*
X95000Y266500D02*
D03*
Y106000D02*
D03*
X90500Y79500D02*
D03*
X89500Y52500D02*
D03*
X62000Y224500D02*
D03*
X87500Y174000D02*
D03*
X72638Y84586D02*
D03*
X239000Y367000D02*
D03*
X241500Y381500D02*
D03*
X52500Y338500D02*
D03*
X112000Y344000D02*
D03*
X161500Y318000D02*
D03*
X166000Y314500D02*
D03*
X217500Y270500D02*
D03*
X198500Y287500D02*
D03*
X196000Y291000D02*
D03*
X193000Y293000D02*
D03*
X214000Y271000D02*
D03*
X155000Y365000D02*
D03*
X201000Y381500D02*
D03*
X156500Y382000D02*
D03*
X226500Y305500D02*
D03*
X224500Y309500D02*
D03*
X180000Y368500D02*
D03*
X177500Y365000D02*
D03*
X175000Y368500D02*
D03*
X172500Y365000D02*
D03*
X170500Y369000D02*
D03*
X166500D02*
D03*
X168500Y365000D02*
D03*
X219000Y288000D02*
D03*
X219500Y283500D02*
D03*
X217000Y281000D02*
D03*
X214000Y283500D02*
D03*
X212000Y281000D02*
D03*
X204000D02*
D03*
X208000D02*
D03*
X163500Y365000D02*
D03*
X161500Y369000D02*
D03*
X154000D02*
D03*
X159500Y365000D02*
D03*
X151500Y367500D02*
D03*
X157500Y369000D02*
D03*
X206000Y283500D02*
D03*
X149000Y369000D02*
D03*
X210000Y283500D02*
D03*
X235000Y367000D02*
D03*
X237000Y369000D02*
D03*
X241000D02*
D03*
X243500Y367000D02*
D03*
X246000Y369000D02*
D03*
X243000Y304000D02*
D03*
X245500Y294000D02*
D03*
X184500Y278000D02*
D03*
X181000Y275500D02*
D03*
X40000Y264000D02*
D03*
X34500Y259500D02*
D03*
X37500Y262000D02*
D03*
X39500Y125500D02*
D03*
X36500Y122000D02*
D03*
X33000Y125500D02*
D03*
X42000Y123000D02*
D03*
X110500Y19000D02*
D03*
X164500Y22500D02*
D03*
X161500Y23000D02*
D03*
X157500Y10899D02*
D03*
X153500Y10250D02*
D03*
X268000Y13500D02*
D03*
X163000Y282000D02*
D03*
X162500Y279000D02*
D03*
X164000Y276000D02*
D03*
X167000Y282500D02*
D03*
X194430Y71658D02*
D03*
X192000Y71500D02*
D03*
X99000Y90000D02*
D03*
X192000Y258500D02*
D03*
X213500Y255500D02*
D03*
X216000Y258000D02*
D03*
X209500Y229500D02*
D03*
X275500Y92500D02*
D03*
X279000Y97500D02*
D03*
X293000Y124000D02*
D03*
X289000Y124500D02*
D03*
X210500Y221000D02*
D03*
Y225500D02*
D03*
X184914Y247500D02*
D03*
X190500Y270500D02*
D03*
X183000Y249500D02*
D03*
X197000Y239000D02*
D03*
X289000Y146000D02*
D03*
X202500Y146500D02*
D03*
X187500Y270500D02*
D03*
X213500Y213500D02*
D03*
X181500Y270500D02*
D03*
X184500D02*
D03*
X209500Y213500D02*
D03*
X205000D02*
D03*
X192000Y208500D02*
D03*
X178000Y180000D02*
D03*
X196618Y184000D02*
D03*
X196500Y140000D02*
D03*
X226000Y48500D02*
D03*
X227500Y54000D02*
D03*
X319000Y60500D02*
D03*
X237500Y126000D02*
D03*
X240500Y123000D02*
D03*
X94000Y39500D02*
D03*
X170500Y159000D02*
D03*
X137500Y151500D02*
D03*
X133000Y131500D02*
D03*
X172500Y161500D02*
D03*
X170000Y164000D02*
D03*
X188000Y203000D02*
D03*
X94733Y109138D02*
D03*
X172000Y166500D02*
D03*
X138500Y174914D02*
D03*
X129500Y176500D02*
D03*
X143500Y178500D02*
D03*
X94000Y155500D02*
D03*
X94500Y132500D02*
D03*
X170500Y169500D02*
D03*
X132500Y202500D02*
D03*
X126873Y198969D02*
D03*
X189500Y200500D02*
D03*
X144000Y200000D02*
D03*
X141000Y197500D02*
D03*
X130000Y200000D02*
D03*
X189000Y190000D02*
D03*
X95000Y245500D02*
D03*
X188000Y198000D02*
D03*
Y193000D02*
D03*
X189000Y195500D02*
D03*
D135*
X311500Y161000D02*
D03*
Y154000D02*
D03*
X273500Y166500D02*
D03*
X279500D02*
D03*
M02*
