G04*
G04 #@! TF.GenerationSoftware,Altium Limited,Altium Designer,20.0.13 (296)*
G04*
G04 Layer_Color=16711935*
%FSLAX25Y25*%
%MOIN*%
G70*
G01*
G75*
%ADD16C,0.01000*%
%ADD105C,0.00400*%
D16*
X380716Y207815D02*
X380654Y208818D01*
X380465Y209805D01*
X380155Y210760D01*
X379727Y211669D01*
X379189Y212517D01*
X378548Y213291D01*
X377816Y213979D01*
X377003Y214570D01*
X376123Y215054D01*
X375189Y215423D01*
X374216Y215673D01*
X373219Y215799D01*
X372214D01*
X371217Y215673D01*
X370244Y215423D01*
X369310Y215054D01*
X368430Y214570D01*
X367617Y213979D01*
X366885Y213291D01*
X366244Y212517D01*
X365706Y211669D01*
X365278Y210760D01*
X364968Y209805D01*
X364780Y208818D01*
X364717Y207815D01*
X364780Y206812D01*
X364968Y205825D01*
X365278Y204870D01*
X365706Y203961D01*
X366244Y203113D01*
X366885Y202339D01*
X367617Y201651D01*
X368430Y201060D01*
X369310Y200576D01*
X370244Y200206D01*
X371217Y199957D01*
X372214Y199831D01*
X373219D01*
X374216Y199957D01*
X375189Y200206D01*
X376123Y200576D01*
X377003Y201060D01*
X377816Y201651D01*
X378548Y202339D01*
X379189Y203113D01*
X379727Y203961D01*
X380155Y204870D01*
X380465Y205825D01*
X380654Y206812D01*
X380716Y207815D01*
Y345610D02*
X380654Y346613D01*
X380465Y347600D01*
X380155Y348555D01*
X379727Y349464D01*
X379189Y350312D01*
X378548Y351087D01*
X377816Y351774D01*
X377003Y352365D01*
X376123Y352849D01*
X375189Y353219D01*
X374216Y353468D01*
X373219Y353594D01*
X372214D01*
X371217Y353468D01*
X370244Y353219D01*
X369310Y352849D01*
X368430Y352365D01*
X367617Y351774D01*
X366885Y351087D01*
X366244Y350312D01*
X365706Y349464D01*
X365278Y348555D01*
X364968Y347600D01*
X364780Y346613D01*
X364717Y345610D01*
X364780Y344608D01*
X364968Y343621D01*
X365278Y342665D01*
X365706Y341756D01*
X366244Y340908D01*
X366885Y340134D01*
X367617Y339446D01*
X368430Y338856D01*
X369310Y338372D01*
X370244Y338002D01*
X371217Y337752D01*
X372214Y337626D01*
X373219D01*
X374216Y337752D01*
X375189Y338002D01*
X376123Y338372D01*
X377003Y338856D01*
X377816Y339446D01*
X378548Y340134D01*
X379189Y340908D01*
X379727Y341756D01*
X380155Y342665D01*
X380465Y343621D01*
X380654Y344608D01*
X380716Y345610D01*
D105*
X25Y25D02*
Y393726D01*
X393726D01*
Y25D02*
Y393726D01*
X25Y25D02*
X393726D01*
X25D02*
Y393726D01*
X393726D01*
Y25D02*
Y393726D01*
X25Y25D02*
X393726D01*
M02*
