M48
;Layer_Color=9474304
;FILE_FORMAT=2:4
INCH,TZ
;TYPE=PLATED
T1F00S00C0.0079
T2F00S00C0.0280
T3F00S00C0.0295
T4F00S00C0.0300
T5F00S00C0.0394
T6F00S00C0.0551
T7F00S00C0.0630
T8F00S00C0.0866
T9F00S00C0.0937
T10F00S00C0.0945
;TYPE=NON_PLATED
T11F00S00C0.0571
T12F00S00C0.0945
%
T01
X1300Y4250
X1750
X2450Y3400
X6150Y5950
X6300Y7700
X7264Y8459
X8400Y8450
Y8000
X9050Y7950
X8950Y8900
X8050
X7850Y9100
X6200Y9441
X9900Y9000
X9850Y10500
X9500Y10600
X9473Y10914
X10750Y10900
X10400Y13000
X9300Y12950
X9450Y13250
X8350Y13950
X7800
X7250
X6650
X6000
X5500
X3950Y12550
X4200Y12300
X3650Y12200
X3300Y12550
X8750Y15300
X9300Y15250
X9400Y15550
X10550Y15350
X13750Y15150
X13300Y13150
X12750Y13050
X11110Y6016
X10900Y5769
X9400Y6350
X8950Y6450
Y5250
X9400Y3950
X8963Y1600
X10746Y1000
X11050Y1900
X12750Y2250
X13154Y1050
X14450Y1100
X14700
X14950
Y850
X14700
X14450
X15350Y1025
X13750Y3800
X13350
Y4400
X13050
X16150Y2300
X16450Y2250
X17950Y2400
X20450
Y2600
X20700
Y2400
X21046Y2424
X21526Y2339
X22250Y2350
Y2600
X22600
Y2350
X23050
Y2600
X23500Y2150
X25750Y2400
X26100
X26450
X26800Y1350
X29700Y5100
X30800Y10300
X30050Y12400
X29300
X28900Y12450
Y14600
X30400Y14950
X23000Y14850
X21300Y15000
X20900Y14350
X20785Y14065
X20450Y14400
X20250Y14650
X19350Y14550
X19379Y14300
X19650Y14000
X20050Y12400
Y11700
X20000Y11000
X20800
Y11700
Y12400
X21714Y13886
X23750Y12600
X24050Y12300
X24350Y11950
X24300Y10450
X24650Y9650
Y9350
X23600Y9400
X23300Y9450
X22950Y9500
X24000Y8450
X23350Y5300
X23600Y4900
X23050Y4700
X22950Y5050
X22600Y4850
X22750Y5400
X20900Y5800
X20400
X19443Y7166
X19200Y7150
X18800Y7000
X18750Y6579
X18350Y7569
X18200Y9900
X18250Y10789
X17011Y10911
X16700Y10750
X17000Y9750
X16700Y9200
X16650Y8800
X16150Y8550
X15900
X19685Y9285
X20550Y9300
X20900
X21750Y10400
X18250Y12250
X17050Y13350
X17743Y14440
X17700Y15000
X18300
X27900Y9750
X27550Y9250
X15750Y1090
X31900Y6050
X31750Y8050
X31450Y8200
X31500Y10300
X31800Y10150
X31650Y12250
X31400Y12400
X31700Y14250
X35150Y15200
X36150
X36200Y13200
X37200Y13150
Y14200
Y12050
X37150Y10500
Y9550
Y8650
Y7600
X36300Y7400
Y9200
X36250Y5050
X36650
Y4400
X36250
X35850
X35800Y5000
X35600Y16500
Y16800
X36100
Y16500
X35050
Y16800
X34550Y16500
X31700Y16400
Y18500
X32250Y19100
Y19300
X31700Y20700
Y23000
X31250Y23300
X32100Y24750
X35200Y19500
Y19150
X31150Y19050
X29850Y16550
X27600Y19850
Y20200
X27500Y20900
Y21150
X27900
Y20900
X28650Y23050
X29200Y23100
X29750
X30500Y23050
X29850Y27250
X29400
X25600Y27700
X25050
X24200Y28200
X24213Y29353
X24550Y29400
Y29900
Y30250
X24300Y30400
Y30050
Y29700
X22950Y29200
X22550Y28600
X22450Y28350
X22350Y28050
X21950Y28350
X21900Y28800
X21700Y28100
X21200
X20800
X20400
X20600Y28350
X21000
X21400
Y27100
X21750Y27050
X21600Y25800
X21350Y25550
X21300Y24600
X20900Y24200
X20000Y24250
X19700Y23900
X19250Y24150
X18491Y24750
X18300Y24950
X18150Y25650
X19200Y25850
X19300Y26900
X19050Y27050
X18750
X18450
X18150
X18100Y27550
X18450Y27800
X16700Y28250
X16300Y28200
X16250Y27900
X16400Y27600
X15814Y29950
X18000Y29800
Y30200
X19300Y29300
X19600Y29100
X19850Y28750
X22650Y30550
X22450Y30950
X25500Y31050
X25750
X23800Y22759
X23700Y22000
X23900Y21800
X23400Y21100
X22500Y20550
X21750Y21250
X21350Y21350
X20950
X20500
X20000Y22050
X21050Y22100
Y22550
X20950Y22950
X19200Y20850
X18800Y20300
X18950Y20050
X18800Y19800
X18900Y19550
X18800Y19300
X18900Y19000
X19662Y18400
X20100Y17500
X17800Y18000
X17050Y17800
Y16950
X17200Y16650
X17000Y16400
X17250Y16150
X17050Y15900
X18165Y20622
X14400Y20000
X14100Y19750
X13250Y20250
X13000Y20000
X12687Y19897
X10550Y19800
X9525Y19875
X9250Y19736
X8950Y19850
X8750Y19550
X8492Y20442
X9300Y21700
X9409Y22000
X10550Y22050
X9250Y23350
X8750Y23750
Y24050
X8250
Y23750
X7800
Y24050
X7850Y24900
X8750Y25250
Y25600
X9500Y26650
Y24550
X9800
X5750Y24700
Y24350
X5050Y23300
Y23000
X4700
Y23300
X4300
Y23000
X4200Y21150
X5200Y20900
X4150Y19900
X6600Y21750
X7050
Y22200
Y22600
X6600
Y22200
X6200Y22450
X6069Y22650
X5900Y26600
X6600
X7250
X4000Y26400
X3750Y26200
X3450Y25950
Y25500
X5350Y29050
X6650Y17350
X8750Y17400
X8700Y16750
Y16050
Y18150
X9350Y17900
X9409Y17500
X10550Y17650
X12950
X13850Y17491
X14350Y17850
X14900Y36900
X15150Y36750
X15400Y36900
X15500Y36500
X13650Y38200
X11200Y34400
X5250Y33850
X5150Y33050
X17300
X17650Y33150
X17700Y32400
X18250Y32000
X18350Y33500
X21850
X22300
X21800Y31950
X16600Y31450
X16150Y31800
X16350Y36500
X15950
X16150Y36900
X15750
X16650
X17050
X17500Y36850
X18000
X17750Y36500
X17250
X16850
X18000Y38200
X20100Y38150
X22100
X24150
X24100Y36900
X23900Y36700
X23500
X23700Y36900
X24350Y36700
X24600Y36900
X15650Y38200
T02
X31150Y15400
Y16100
X27950Y16650
X27350
T03
X11250Y5050
X12750
X14250
X14347Y7371
X12847
X11347
X11300Y9800
X12800
X14300
X14397Y11971
X12897
X11397
X11297Y14271
X12797
X14297
X15797
X15897Y11971
X15800Y9800
X15847Y7371
X15750Y5050
X25197Y7109
X26697
X28197
X29697
X29800Y9200
X28300
X26800
X25300
Y11300
X26800
X28300
X29800
X29897Y13409
X28397
X26897
X25397
X25297Y15509
X26797
X28297
X29797
X29897Y17609
X28397
X26897
X25397
X25297Y19809
X26797
X28297
X29797
X29947Y22009
X28447
X26947
X25447
X25347Y24209
X26847
X28347
X29847
X15747Y23309
X15847Y25509
X15897Y21021
X15797Y18771
X15847Y16571
X14347
X12847
X11347
X11297Y18771
X12797
X14297
X14397Y21021
X12897
X11397
X11247Y23309
X12747
X14247
X14347Y25509
X12847
X11347
X10947Y28259
X11947
X12947
X8947
X7947
X6947
X6997Y32059
X7997
X8997
X10997
X11997
X12997
T04
X5135Y4117
X6135
X7135
Y5117
X6135
X5135
X27300Y4400
X28300
X29300
X30300
X31300
X32300
X8866Y35037
X7866
X6866
X5866
X4866
X3866
X31560Y35150
Y34150
X32560
Y35150
X33560
Y34150
T05
X3613Y8366
X4401
Y9350
X3613
T06
X36200Y8231
Y10200
Y12169
Y14137
X36287Y22750
Y24718
Y26687
Y28656
Y30624
X2800Y22200
Y20200
Y18200
Y16200
X36287Y32593
T07
X1250Y27256
X2250Y28256
X1250Y29256
X3250
Y27256
Y31250
X2250Y32250
X1250Y33250
X3250
X1250Y31250
T08
X1484Y1412
X37901Y1609
X1563Y37908
X37862
T09
X2546Y6488
Y11228
T10
X1816Y14200
X37184Y6263
Y16106
X1816Y24200
X37272Y34561
T11
X14378Y2711
X25007
X14378Y35270
X25007
T12
X37272Y20782
M30
