G04*
G04 #@! TF.GenerationSoftware,Altium Limited,Altium Designer,20.0.13 (296)*
G04*
G04 Layer_Physical_Order=1*
G04 Layer_Color=255*
%FSLAX25Y25*%
%MOIN*%
G70*
G01*
G75*
%ADD16C,0.01000*%
%ADD22R,0.01968X0.02362*%
%ADD33R,0.02362X0.01968*%
G04:AMPARAMS|DCode=38|XSize=47.24mil|YSize=43.31mil|CornerRadius=0mil|HoleSize=0mil|Usage=FLASHONLY|Rotation=45.000|XOffset=0mil|YOffset=0mil|HoleType=Round|Shape=Rectangle|*
%AMROTATEDRECTD38*
4,1,4,-0.00139,-0.03202,-0.03202,-0.00139,0.00139,0.03202,0.03202,0.00139,-0.00139,-0.03202,0.0*
%
%ADD38ROTATEDRECTD38*%

G04:AMPARAMS|DCode=46|XSize=47.24mil|YSize=43.31mil|CornerRadius=0mil|HoleSize=0mil|Usage=FLASHONLY|Rotation=315.000|XOffset=0mil|YOffset=0mil|HoleType=Round|Shape=Rectangle|*
%AMROTATEDRECTD46*
4,1,4,-0.03202,0.00139,-0.00139,0.03202,0.03202,-0.00139,0.00139,-0.03202,-0.03202,0.00139,0.0*
%
%ADD46ROTATEDRECTD46*%

%ADD69R,0.02835X0.02835*%
%ADD70R,0.09646X0.14764*%
%ADD71O,0.06299X0.01772*%
%ADD72R,0.09252X0.03937*%
%ADD73R,0.09252X0.12992*%
%ADD74R,0.02559X0.02756*%
%ADD75O,0.06496X0.01181*%
%ADD76O,0.01181X0.06496*%
%ADD77R,0.02756X0.02559*%
%ADD78O,0.06693X0.02362*%
%ADD79O,0.02362X0.06693*%
%ADD80R,0.01181X0.05906*%
%ADD81O,0.06496X0.02559*%
%ADD82R,0.04724X0.02559*%
%ADD83C,0.03937*%
%ADD84R,0.02835X0.02992*%
%ADD85R,0.02992X0.02835*%
%ADD86R,0.05118X0.04134*%
%ADD87R,0.04528X0.04331*%
%ADD88R,0.05906X0.12598*%
%ADD89R,0.05236X0.06181*%
%ADD90R,0.21850X0.09449*%
%ADD91O,0.02953X0.04134*%
%ADD92R,0.11024X0.04134*%
%ADD93R,0.25984X0.22835*%
%ADD94R,0.12795X0.11221*%
%ADD95R,0.06890X0.11024*%
%ADD96R,0.05906X0.15748*%
%ADD97R,0.34055X0.35039*%
%ADD98R,0.07087X0.11417*%
%ADD99R,0.04134X0.11024*%
%ADD100R,0.22835X0.25984*%
%ADD101R,0.11221X0.12795*%
%ADD102R,0.06299X0.11024*%
%ADD103R,0.05906X0.05709*%
%ADD104R,0.03937X0.03937*%
%ADD105C,0.00400*%
%ADD106C,0.02000*%
%ADD107C,0.00810*%
%ADD108C,0.01155*%
%ADD109C,0.06378*%
%ADD110C,0.11417*%
%ADD111C,0.05906*%
%ADD112C,0.09449*%
%ADD113C,0.04528*%
%ADD114R,0.04528X0.04528*%
%ADD115C,0.08268*%
%ADD116C,0.05709*%
%ADD117C,0.19685*%
%ADD118C,0.01772*%
%ADD119C,0.05000*%
G36*
X298000Y340000D02*
X305500Y332500D01*
X345000Y332500D01*
X347725Y329775D01*
X347533Y329313D01*
X337200D01*
Y324389D01*
X348325D01*
Y328154D01*
X348825Y328404D01*
X349000Y328272D01*
Y310000D01*
X345500Y306500D01*
X322500D01*
X319000Y310000D01*
X296500D01*
X294000Y312500D01*
Y325000D01*
X289500Y329500D01*
X265500D01*
X260500Y324500D01*
Y299500D01*
X259577D01*
Y300784D01*
X253665D01*
Y300984D01*
X253465D01*
Y303451D01*
X247754D01*
X247500Y303846D01*
Y307639D01*
X247649Y308000D01*
Y316092D01*
X247754Y316549D01*
X248149Y316549D01*
X253465D01*
Y319016D01*
Y321483D01*
X248149D01*
X247754Y321483D01*
X247649Y321940D01*
Y328000D01*
X247500Y328361D01*
Y336500D01*
X251000Y340000D01*
X298000Y340000D01*
D02*
G37*
G36*
X371750Y330750D02*
X374000Y328500D01*
X374000Y303500D01*
X370000Y299500D01*
X355000D01*
X348825Y293325D01*
X348325Y293532D01*
Y297611D01*
X337000D01*
X325675D01*
Y293000D01*
X324000D01*
Y303000D01*
X326500Y305500D01*
X346500D01*
X350000Y309000D01*
Y329000D01*
X353000Y332000D01*
X370500D01*
X371750Y330750D01*
D02*
G37*
G36*
X292500Y324500D02*
Y312000D01*
X295500Y309000D01*
X317500D01*
X323000Y303500D01*
Y293000D01*
X321000Y291000D01*
Y283000D01*
X315500Y277500D01*
X300500D01*
X297000Y281000D01*
Y292000D01*
X294500Y294500D01*
X265000D01*
X262500Y294500D01*
X259500Y291500D01*
Y290483D01*
X253865D01*
Y288016D01*
X253665D01*
D01*
X253865D01*
Y285549D01*
X259500D01*
Y272451D01*
X253865D01*
Y269984D01*
Y267517D01*
X259500D01*
Y265500D01*
X257000Y263000D01*
X249500D01*
X244500Y268000D01*
Y291000D01*
X251500Y298000D01*
X261000Y298000D01*
Y323500D01*
X266000Y328500D01*
X288500D01*
X292500Y324500D01*
D02*
G37*
G36*
X295500Y291000D02*
Y281000D01*
X300000Y276500D01*
X316500D01*
X322000Y282500D01*
Y289000D01*
X324500Y291500D01*
X350500D01*
X353000Y289000D01*
X353000Y269000D01*
X351500Y267500D01*
X319500D01*
Y255000D01*
X317000Y252500D01*
X301000D01*
X298000Y255500D01*
Y260500D01*
X295500Y263000D01*
X264000D01*
X260500Y266500D01*
Y291000D01*
X263000Y293500D01*
X293000D01*
X295500Y291000D01*
D02*
G37*
G36*
X79834Y266368D02*
Y258752D01*
Y256680D01*
X78974D01*
Y253321D01*
X82530D01*
Y253320D01*
X82714D01*
Y253321D01*
X84500D01*
Y247316D01*
X84180Y247131D01*
X83679Y247369D01*
Y248670D01*
X82000D01*
X80321D01*
Y247500D01*
X79859Y247000D01*
X77000Y247000D01*
X75000Y245000D01*
X65000D01*
X63500Y246500D01*
Y249500D01*
X62500Y250500D01*
X36500D01*
X36000Y251000D01*
Y259000D01*
X37609Y260609D01*
X38041Y260695D01*
X38498Y261000D01*
X52500D01*
X54000Y262500D01*
Y267000D01*
X55082Y268082D01*
X78120D01*
X79834Y266368D01*
D02*
G37*
G36*
X62500Y249500D02*
Y242000D01*
X61500Y241000D01*
X37500D01*
Y249500D01*
X38000Y250000D01*
X62000D01*
X62500Y249500D01*
D02*
G37*
G36*
X62000Y228000D02*
X60134D01*
X59972Y228198D01*
X56244D01*
X52517D01*
X52354Y228000D01*
X29000D01*
Y231000D01*
X38000Y240000D01*
X62000D01*
Y228000D01*
D02*
G37*
G36*
X91000Y236500D02*
X90000Y235500D01*
X87500D01*
X86000Y234000D01*
Y227298D01*
X85702Y227000D01*
X83646D01*
X83504Y227341D01*
X83470Y227500D01*
X83735Y227896D01*
X83795Y228198D01*
X80260D01*
X76725D01*
X76785Y227896D01*
X77049Y227500D01*
X77015Y227341D01*
X76873Y227000D01*
X76000D01*
Y230000D01*
X75500D01*
X73000Y232500D01*
Y239500D01*
X76500Y243000D01*
X91000D01*
X91000Y236500D01*
D02*
G37*
G36*
X359500Y258000D02*
X369000D01*
X373000Y254000D01*
Y226500D01*
X366083Y219583D01*
X365947Y219500D01*
X329000Y219500D01*
X324000Y224500D01*
X324000Y266000D01*
X351500Y266000D01*
X359500Y258000D01*
D02*
G37*
G36*
X377500Y168000D02*
Y163621D01*
X377000Y163521D01*
X376829Y163934D01*
X375914Y165127D01*
X374722Y166042D01*
X373333Y166617D01*
X371843Y166813D01*
X370352Y166617D01*
X368964Y166042D01*
X367771Y165127D01*
X366856Y163934D01*
X366281Y162545D01*
X366085Y161055D01*
X366281Y159565D01*
X366343Y159416D01*
X366065Y159000D01*
X323000D01*
Y138000D01*
X327500Y133500D01*
X349000Y133500D01*
X350500Y132000D01*
Y117500D01*
Y116500D01*
X336000D01*
Y99000D01*
X336500Y98500D01*
X350500D01*
Y69000D01*
X323500D01*
X319500Y73000D01*
Y167000D01*
X324500Y172000D01*
X373500D01*
X377500Y168000D01*
D02*
G37*
G36*
X246851Y153149D02*
Y148500D01*
X247000Y148139D01*
Y142500D01*
X244500Y140000D01*
X217926D01*
X217685Y140161D01*
X217144Y140269D01*
X216603Y140161D01*
X216362Y140000D01*
X215500D01*
X214804Y138608D01*
X214317Y138723D01*
Y139300D01*
X210683D01*
Y137604D01*
X211681D01*
Y137000D01*
X200649D01*
Y138321D01*
X202462D01*
X202778Y138321D01*
X203278Y138321D01*
X204540D01*
Y140000D01*
Y141680D01*
X203278D01*
X202962Y141680D01*
X202462Y141680D01*
X201649D01*
Y144731D01*
X202087Y145169D01*
X202500Y145087D01*
X203041Y145195D01*
X203499Y145501D01*
X203805Y145959D01*
X203913Y146500D01*
X203805Y147041D01*
X203499Y147499D01*
X203041Y147805D01*
X202500Y147913D01*
X201959Y147805D01*
X201501Y147499D01*
X201195Y147041D01*
X201087Y146500D01*
X201169Y146088D01*
X200541Y145459D01*
X200351Y145000D01*
Y141680D01*
X199222D01*
Y138321D01*
X199351D01*
Y137000D01*
X197325D01*
Y138884D01*
X197499Y139001D01*
X197805Y139459D01*
X197913Y140000D01*
X197805Y140541D01*
X197499Y140999D01*
X197041Y141305D01*
X196500Y141413D01*
X195959Y141305D01*
X195501Y140999D01*
X195195Y140541D01*
X195087Y140000D01*
X195195Y139459D01*
X195501Y139001D01*
X195959Y138695D01*
X196026Y138681D01*
Y137000D01*
X174000D01*
X171500Y139500D01*
Y150500D01*
X173000Y152000D01*
X213020D01*
X213057Y151895D01*
X213052Y151850D01*
X212719Y151357D01*
X212459Y151305D01*
X212001Y150999D01*
X211695Y150541D01*
X211587Y150000D01*
X211695Y149459D01*
X212001Y149001D01*
X212459Y148695D01*
X213000Y148587D01*
X213541Y148695D01*
X213999Y149001D01*
X214305Y149459D01*
X214317Y149520D01*
X215000Y150202D01*
Y150202D01*
Y150202D01*
X216202D01*
X221000Y155000D01*
X235210D01*
X235362Y154500D01*
X235317Y154470D01*
X235033Y154045D01*
X234973Y153743D01*
X238508D01*
X242043D01*
X241983Y154045D01*
X241699Y154470D01*
X241654Y154500D01*
X241806Y155000D01*
X245000D01*
X246851Y153149D01*
D02*
G37*
G36*
X90500Y147500D02*
X75500D01*
Y188000D01*
X90500D01*
Y147500D01*
D02*
G37*
G36*
X53053Y227471D02*
X53131Y227419D01*
Y226817D01*
X53053Y226766D01*
X52769Y226340D01*
X52669Y225839D01*
X52769Y225337D01*
X53053Y224912D01*
X53131Y224860D01*
Y224258D01*
X53053Y224207D01*
X52769Y223781D01*
X52669Y223280D01*
X52769Y222778D01*
X53053Y222353D01*
X53131Y222301D01*
Y221699D01*
X53053Y221648D01*
X52769Y221222D01*
X52709Y220920D01*
X56244D01*
X59779D01*
X59719Y221222D01*
X59435Y221648D01*
X59589Y222124D01*
X59832Y222362D01*
X60014D01*
X61082Y221294D01*
Y209000D01*
X61152Y208649D01*
X61351Y208351D01*
X63082Y206620D01*
Y184312D01*
X63152Y183961D01*
X63351Y183663D01*
X63500Y183514D01*
Y182000D01*
X65014D01*
X65702Y181313D01*
X65702Y181313D01*
X69620Y177394D01*
Y175561D01*
X75067D01*
Y171439D01*
X72582D01*
Y169760D01*
Y168080D01*
X75067D01*
Y147500D01*
X55000D01*
Y148834D01*
X57247D01*
X57367Y148883D01*
X59800D01*
Y156957D01*
X56647D01*
Y150133D01*
X49483D01*
X49024Y149943D01*
X46582Y147500D01*
X39500D01*
Y184500D01*
X33500Y190500D01*
X24500D01*
X24000Y191000D01*
X21500Y194000D01*
Y223582D01*
X25418Y227500D01*
X53034D01*
X53053Y227471D01*
D02*
G37*
G36*
X189000Y126500D02*
Y90487D01*
X188704Y90349D01*
X188500Y90302D01*
X188019Y90623D01*
X187601Y90706D01*
Y86968D01*
X187201D01*
Y90706D01*
X186785Y90623D01*
X186262Y90274D01*
X186127Y90073D01*
X185526D01*
X185392Y90274D01*
X184869Y90623D01*
X184252Y90746D01*
X183635Y90623D01*
X183112Y90274D01*
X182763Y89751D01*
X182640Y89134D01*
Y84803D01*
X182763Y84186D01*
X183112Y83663D01*
X183635Y83314D01*
X184252Y83191D01*
X184869Y83314D01*
X185392Y83663D01*
X185526Y83864D01*
X186127D01*
X186262Y83663D01*
X186484Y83515D01*
Y81896D01*
X184683D01*
Y80200D01*
X186500D01*
Y79800D01*
X184683D01*
Y78104D01*
X184226Y78000D01*
X181000D01*
X180000Y79000D01*
Y88500D01*
X176360Y92140D01*
X176567Y92640D01*
X176769D01*
Y94252D01*
X176969D01*
Y94452D01*
X180706D01*
X180623Y94869D01*
X180274Y95392D01*
X180073Y95526D01*
Y96124D01*
X180083Y96134D01*
X180274Y96262D01*
X180405Y96459D01*
X180427Y96480D01*
X181508D01*
X181859Y96550D01*
X182156Y96749D01*
X182649Y97241D01*
X182848Y97539D01*
X182918Y97890D01*
Y97946D01*
X182999Y98001D01*
X183305Y98459D01*
X183413Y99000D01*
X183305Y99541D01*
X182999Y99999D01*
X182541Y100305D01*
X182000Y100413D01*
X181459Y100305D01*
X181168Y100111D01*
X180800Y100351D01*
X176969D01*
Y100751D01*
X180706D01*
X180623Y101168D01*
X180274Y101691D01*
X180073Y101825D01*
Y102427D01*
X180274Y102561D01*
X180623Y103084D01*
X180746Y103701D01*
X180694Y103963D01*
X183001Y106270D01*
X183200Y106568D01*
X183227Y106705D01*
X183499Y106887D01*
X183805Y107345D01*
X183913Y107886D01*
X183805Y108426D01*
X183499Y108885D01*
X183041Y109191D01*
X182500Y109299D01*
X181959Y109191D01*
X181501Y108885D01*
X181195Y108426D01*
X181087Y107886D01*
X181140Y107620D01*
X181101Y107583D01*
X181037Y107568D01*
X180478Y107684D01*
X180274Y107990D01*
X180073Y108124D01*
Y108726D01*
X180274Y108860D01*
X180623Y109383D01*
X180746Y110000D01*
X180623Y110617D01*
X180274Y111140D01*
X180073Y111274D01*
Y111875D01*
X180274Y112010D01*
X180623Y112533D01*
X180746Y113150D01*
X180623Y113767D01*
X180274Y114289D01*
X180073Y114424D01*
Y115025D01*
X180274Y115159D01*
X180623Y115682D01*
X180746Y116299D01*
X180623Y116916D01*
X180274Y117439D01*
X180073Y117573D01*
Y118175D01*
X180274Y118309D01*
X180623Y118832D01*
X180746Y119449D01*
X180623Y120066D01*
X180274Y120589D01*
X180073Y120723D01*
Y121263D01*
X180264Y121452D01*
X180274Y121458D01*
X180280Y121467D01*
X180446Y121632D01*
X181414D01*
X181501Y121501D01*
X181959Y121195D01*
X182500Y121087D01*
X183041Y121195D01*
X183499Y121501D01*
X183805Y121959D01*
X183913Y122500D01*
X183805Y123041D01*
X183499Y123499D01*
X183041Y123805D01*
X182500Y123913D01*
X181959Y123805D01*
X181501Y123499D01*
X181479Y123467D01*
X180455D01*
X180274Y123738D01*
X180073Y123873D01*
Y124474D01*
X180274Y124608D01*
X180623Y125131D01*
X180706Y125548D01*
X176969D01*
Y125748D01*
X176769D01*
Y127360D01*
X174803D01*
X174186Y127237D01*
X173663Y126888D01*
X173515Y126666D01*
X172317D01*
Y128467D01*
X172804Y128500D01*
X187000D01*
X189000Y126500D01*
D02*
G37*
G36*
X367771Y156984D02*
X368964Y156069D01*
X370352Y155493D01*
X371843Y155297D01*
X373333Y155493D01*
X374722Y156069D01*
X375406Y156594D01*
X377000Y155000D01*
Y117000D01*
Y116500D01*
X375000Y114000D01*
X354000D01*
X352500Y115500D01*
Y133000D01*
X350500Y135000D01*
X328500D01*
X324500Y139000D01*
Y158000D01*
X366991D01*
X367771Y156984D01*
D02*
G37*
G36*
X168683Y128467D02*
Y126771D01*
X170500D01*
Y126571D01*
X170700D01*
Y124675D01*
X172317D01*
Y124830D01*
X173515D01*
X173663Y124608D01*
X173864Y124474D01*
Y123873D01*
X173663Y123738D01*
X173314Y123215D01*
X173191Y122598D01*
X173314Y121982D01*
X173663Y121458D01*
X173864Y121324D01*
Y120723D01*
X173663Y120589D01*
X173314Y120066D01*
X173191Y119449D01*
X173314Y118832D01*
X173663Y118309D01*
X173864Y118175D01*
Y117573D01*
X173663Y117439D01*
X173314Y116916D01*
X173191Y116299D01*
X173314Y115682D01*
X173663Y115159D01*
X173864Y115025D01*
Y114424D01*
X173663Y114289D01*
X173314Y113767D01*
X173191Y113150D01*
X173314Y112533D01*
X173663Y112010D01*
X173864Y111875D01*
Y111274D01*
X173663Y111140D01*
X173314Y110617D01*
X173191Y110000D01*
X173314Y109383D01*
X173663Y108860D01*
X173864Y108726D01*
Y108124D01*
X173663Y107990D01*
X173314Y107467D01*
X173191Y106850D01*
X173314Y106234D01*
X173663Y105710D01*
X173864Y105576D01*
Y104975D01*
X173663Y104841D01*
X173314Y104318D01*
X173191Y103701D01*
X173314Y103084D01*
X173663Y102561D01*
X173864Y102427D01*
Y101825D01*
X173663Y101691D01*
X173515Y101469D01*
X172255D01*
X171817Y101893D01*
X171817Y102896D01*
X171817Y103396D01*
Y106754D01*
X170918D01*
Y107983D01*
X171109Y108111D01*
X171415Y108569D01*
X171523Y109110D01*
X171415Y109651D01*
X171109Y110109D01*
X170651Y110415D01*
X170110Y110523D01*
X169569Y110415D01*
X169111Y110109D01*
X168805Y109651D01*
X168697Y109110D01*
X168805Y108569D01*
X169082Y108153D01*
Y107112D01*
X168754Y107007D01*
X168392Y107396D01*
X168413Y107500D01*
X168305Y108041D01*
X167999Y108499D01*
X167649Y108733D01*
Y128500D01*
X168196D01*
X168683Y128467D01*
D02*
G37*
G36*
X91000Y98250D02*
X48500D01*
Y147000D01*
X91000D01*
Y98250D01*
D02*
G37*
G36*
X168183Y105646D02*
Y103396D01*
X168183Y102962D01*
X168183Y102462D01*
Y101200D01*
X170000D01*
Y101000D01*
X170200D01*
Y99104D01*
X171817D01*
Y99484D01*
X172000Y99634D01*
X173515D01*
X173663Y99411D01*
X173864Y99277D01*
Y98676D01*
X173663Y98541D01*
X173314Y98018D01*
X173191Y97402D01*
X173314Y96785D01*
X173663Y96262D01*
X173864Y96127D01*
Y95526D01*
X173663Y95392D01*
X173515Y95170D01*
X171817D01*
Y95896D01*
X170200D01*
Y94000D01*
X170000D01*
Y93800D01*
X168183D01*
Y93478D01*
X167683Y93211D01*
X167541Y93305D01*
X167109Y93391D01*
X166064Y94436D01*
Y101564D01*
X167500Y103000D01*
Y105820D01*
X167683Y105930D01*
X168183Y105646D01*
D02*
G37*
G36*
X178500Y84500D02*
D01*
Y64000D01*
X181000Y61500D01*
X210500D01*
X211904Y60096D01*
Y53447D01*
X212000Y53215D01*
Y51500D01*
X211000Y50500D01*
X167500D01*
X166000Y52000D01*
Y57000D01*
X164000Y59000D01*
Y76500D01*
X161448D01*
X157418Y80530D01*
Y88000D01*
X165087D01*
X165195Y87459D01*
X165501Y87001D01*
X165959Y86695D01*
X166500Y86587D01*
X167041Y86695D01*
X167499Y87001D01*
X167805Y87459D01*
X167913Y88000D01*
X178500D01*
Y84500D01*
D02*
G37*
G36*
X86000Y85500D02*
Y75000D01*
X87500Y73500D01*
Y63000D01*
X85000Y60500D01*
X73000Y60500D01*
X71500Y62000D01*
Y77000D01*
X73183Y78683D01*
X75104D01*
X75538Y78683D01*
Y78683D01*
X75604D01*
Y78683D01*
X77300D01*
Y80500D01*
Y82317D01*
X76000D01*
X76000Y94793D01*
X76500Y95000D01*
X86000Y85500D01*
D02*
G37*
G36*
X211500Y65413D02*
X208500Y62413D01*
X185000D01*
Y73913D01*
X191080D01*
Y73260D01*
X191142Y72946D01*
X191062Y72540D01*
X191001Y72499D01*
X190695Y72041D01*
X190587Y71500D01*
X190695Y70959D01*
X191001Y70501D01*
X191459Y70195D01*
X192000Y70087D01*
X192541Y70195D01*
X192999Y70501D01*
X193105Y70659D01*
X193430D01*
X193889Y70353D01*
X194430Y70245D01*
X194970Y70353D01*
X195429Y70659D01*
X195735Y71117D01*
X195843Y71658D01*
X195735Y72199D01*
X195429Y72657D01*
X194970Y72963D01*
X194430Y73071D01*
X194395Y73099D01*
X194351Y73603D01*
X194723Y73913D01*
X199000D01*
Y76533D01*
X204459D01*
Y76533D01*
X204840D01*
Y76533D01*
X207599D01*
Y79000D01*
X207799D01*
Y79200D01*
X210758D01*
Y80913D01*
X211500D01*
Y65413D01*
D02*
G37*
G36*
X351500Y112000D02*
X374500D01*
X378000Y108500D01*
Y76500D01*
X372500Y71000D01*
X351500D01*
Y99000D01*
X337500D01*
X336500Y100000D01*
Y115500D01*
X351500D01*
Y112000D01*
D02*
G37*
G36*
X37500Y104000D02*
X30000Y96500D01*
Y82000D01*
X34000Y78000D01*
X34000Y60000D01*
X32000Y58000D01*
X27500D01*
X28000Y57500D01*
Y55392D01*
X27762Y54991D01*
X27500Y54991D01*
X24944D01*
Y51500D01*
Y48009D01*
X27500D01*
X27762Y48009D01*
X28000Y47608D01*
Y46933D01*
X9500D01*
Y119500D01*
X10000Y120000D01*
X37500D01*
Y104000D01*
D02*
G37*
G36*
X368812Y67500D02*
X367771Y66701D01*
X366856Y65509D01*
X366281Y64120D01*
X366085Y62630D01*
X366281Y61140D01*
X366856Y59751D01*
X367771Y58558D01*
X368964Y57643D01*
X370352Y57068D01*
X371843Y56872D01*
X372624Y56975D01*
X373000Y56645D01*
Y41000D01*
X369500Y37500D01*
X343000D01*
X339000Y41500D01*
Y51500D01*
X335000Y55500D01*
X329974D01*
Y61130D01*
X327507D01*
Y61330D01*
D01*
Y61130D01*
X325040D01*
Y55500D01*
X323500D01*
Y68000D01*
X368642D01*
X368812Y67500D01*
D02*
G37*
G36*
X140500Y41000D02*
X149000D01*
X153000Y37000D01*
Y34404D01*
X152834D01*
Y31051D01*
X152434D01*
Y34404D01*
X150865D01*
Y31051D01*
X150465D01*
Y34404D01*
X148897D01*
Y31051D01*
X148697D01*
Y30851D01*
X147706D01*
Y28962D01*
X147206Y28862D01*
X147129Y29050D01*
X146513Y29852D01*
X145711Y30467D01*
X144778Y30854D01*
X143776Y30986D01*
X142773Y30854D01*
X141840Y30467D01*
X141038Y29852D01*
X140423Y29050D01*
X140036Y28116D01*
X140021Y28000D01*
X137000D01*
X125500Y39500D01*
Y45000D01*
X127500Y47000D01*
X134500D01*
X140500Y41000D01*
D02*
G37*
G36*
X41181Y87420D02*
X41447Y87242D01*
X41761Y87179D01*
X42443D01*
X42542Y86679D01*
X42317Y86586D01*
X41617Y86049D01*
X41079Y85348D01*
X40742Y84533D01*
X40626Y83657D01*
X40742Y82782D01*
X41079Y81967D01*
X41617Y81266D01*
X42317Y80729D01*
X42581Y80620D01*
Y73992D01*
X42581Y73992D01*
X42689Y73446D01*
X42999Y72983D01*
X45000Y70981D01*
Y28500D01*
X28433D01*
Y36235D01*
X28431Y36240D01*
X28433Y36246D01*
X28367Y36393D01*
X28306Y36541D01*
X28301Y36543D01*
X28298Y36549D01*
X27949Y36880D01*
X27911Y43231D01*
X27939Y43242D01*
X28298Y43583D01*
X28301Y43589D01*
X28306Y43591D01*
X28367Y43739D01*
X28433Y43886D01*
X28431Y43892D01*
X28433Y43897D01*
Y46500D01*
X28343Y46716D01*
X28433Y46933D01*
Y47608D01*
X28389Y47714D01*
X28372Y47829D01*
X28135Y48230D01*
X28090Y48264D01*
X28068Y48316D01*
X27962Y48360D01*
X27879Y48422D01*
X27842Y54547D01*
X27870Y54571D01*
X27962Y54640D01*
X28068Y54684D01*
X28090Y54736D01*
X28135Y54770D01*
X28372Y55171D01*
X28389Y55286D01*
X28433Y55392D01*
Y57500D01*
X28478Y57567D01*
X32000D01*
X32306Y57694D01*
X34306Y59694D01*
X34433Y60000D01*
X34433Y78000D01*
X34306Y78306D01*
X30433Y82179D01*
Y89500D01*
X39101D01*
X41181Y87420D01*
D02*
G37*
G36*
X28000Y43897D02*
X27641Y43556D01*
X27500Y43556D01*
X24823D01*
Y40066D01*
Y36575D01*
X27500D01*
X27641Y36575D01*
X28000Y36235D01*
Y28500D01*
X9500D01*
Y46500D01*
X28000D01*
Y43897D01*
D02*
G37*
G36*
X205983Y27698D02*
X207552D01*
Y31051D01*
X207952D01*
Y27698D01*
X208500D01*
Y23000D01*
X208000Y22500D01*
X203500D01*
X203000Y23000D01*
Y27698D01*
X203615D01*
Y31051D01*
X204015D01*
Y27698D01*
X205584D01*
Y31051D01*
X205983D01*
Y27698D01*
D02*
G37*
G36*
X215826D02*
X217394D01*
Y31051D01*
X217794D01*
Y27698D01*
X219363D01*
Y31051D01*
X219763D01*
Y27698D01*
X220802D01*
X221000Y27500D01*
X231500D01*
X232500Y26500D01*
Y23000D01*
X231927Y22427D01*
X219380D01*
X218559Y23365D01*
Y23859D01*
X218489Y24210D01*
X218290Y24508D01*
X216649Y26149D01*
X216351Y26348D01*
X216000Y26418D01*
X215885D01*
X215161Y27243D01*
X215368Y27698D01*
X215426D01*
Y31051D01*
X215826D01*
Y27698D01*
D02*
G37*
G36*
X147706Y18378D02*
Y16684D01*
X148697D01*
Y16484D01*
X148897D01*
Y13131D01*
X150465D01*
Y16484D01*
X150865D01*
Y13131D01*
X152434D01*
Y16484D01*
X152834D01*
Y13131D01*
X153500D01*
Y12500D01*
X151500Y10500D01*
Y8000D01*
X150500Y7000D01*
X143500D01*
X142000Y8500D01*
Y16000D01*
X143000Y17000D01*
X146000D01*
X147234Y18543D01*
X147706Y18378D01*
D02*
G37*
%LPC*%
G36*
X336800Y329313D02*
X325675D01*
Y324389D01*
X336800D01*
Y329313D01*
D02*
G37*
G36*
X313826Y329624D02*
X307229D01*
Y323814D01*
X313826D01*
Y329624D01*
D02*
G37*
G36*
X306829D02*
X300231D01*
Y323814D01*
X306829D01*
Y329624D01*
D02*
G37*
G36*
X253865Y321483D02*
Y319216D01*
X259577D01*
Y321483D01*
X253865D01*
D02*
G37*
G36*
X348325Y323989D02*
X337200D01*
Y319065D01*
X348325D01*
Y323989D01*
D02*
G37*
G36*
X336800D02*
X325675D01*
Y319065D01*
X336800D01*
Y323989D01*
D02*
G37*
G36*
X313826Y323414D02*
X307229D01*
Y317604D01*
X313826D01*
Y323414D01*
D02*
G37*
G36*
X306829D02*
X300231D01*
Y317604D01*
X306829D01*
Y323414D01*
D02*
G37*
G36*
X259577Y318816D02*
X253865D01*
Y316549D01*
X259577D01*
Y318816D01*
D02*
G37*
G36*
X253865Y303451D02*
Y301184D01*
X259577D01*
Y303451D01*
X253865D01*
D02*
G37*
G36*
X363074Y330472D02*
Y326125D01*
X367421D01*
X367291Y327109D01*
X366834Y328212D01*
X366108Y329159D01*
X365160Y329886D01*
X364058Y330342D01*
X363074Y330472D01*
D02*
G37*
G36*
X362674D02*
X361690Y330342D01*
X360588Y329886D01*
X359640Y329159D01*
X358914Y328212D01*
X358457Y327109D01*
X358327Y326125D01*
X362674D01*
Y330472D01*
D02*
G37*
G36*
Y325725D02*
X358327D01*
X358457Y324742D01*
X358914Y323639D01*
X359640Y322692D01*
X360588Y321965D01*
X361690Y321508D01*
X362674Y321378D01*
Y325725D01*
D02*
G37*
G36*
X367421D02*
X363074D01*
Y321378D01*
X364058Y321508D01*
X365160Y321965D01*
X366108Y322692D01*
X366834Y323639D01*
X367291Y324742D01*
X367421Y325725D01*
D02*
G37*
G36*
X363074Y310787D02*
Y306440D01*
X367421D01*
X367291Y307424D01*
X366834Y308527D01*
X366108Y309474D01*
X365160Y310201D01*
X364058Y310657D01*
X363074Y310787D01*
D02*
G37*
G36*
X362674D02*
X361690Y310657D01*
X360588Y310201D01*
X359640Y309474D01*
X358914Y308527D01*
X358457Y307424D01*
X358327Y306440D01*
X362674D01*
Y310787D01*
D02*
G37*
G36*
Y306040D02*
X358327D01*
X358457Y305057D01*
X358914Y303954D01*
X359640Y303007D01*
X360588Y302280D01*
X361690Y301823D01*
X362674Y301694D01*
Y306040D01*
D02*
G37*
G36*
X367421D02*
X363074D01*
Y301694D01*
X364058Y301823D01*
X365160Y302280D01*
X366108Y303007D01*
X366834Y303954D01*
X367291Y305057D01*
X367421Y306040D01*
D02*
G37*
G36*
X348325Y302935D02*
X337200D01*
Y298011D01*
X348325D01*
Y302935D01*
D02*
G37*
G36*
X336800D02*
X325675D01*
Y298011D01*
X336800D01*
Y302935D01*
D02*
G37*
G36*
X289892Y321817D02*
X276700D01*
Y310200D01*
X289892D01*
Y321817D01*
D02*
G37*
G36*
X276300D02*
X263108D01*
Y310200D01*
X276300D01*
Y321817D01*
D02*
G37*
G36*
X313826Y306396D02*
X307229D01*
Y300586D01*
X313826D01*
Y306396D01*
D02*
G37*
G36*
X306829D02*
X300231D01*
Y300586D01*
X306829D01*
Y306396D01*
D02*
G37*
G36*
X289892Y309800D02*
X276700D01*
Y298183D01*
X289892D01*
Y309800D01*
D02*
G37*
G36*
X276300D02*
X263108D01*
Y298183D01*
X276300D01*
Y309800D01*
D02*
G37*
G36*
X313826Y300186D02*
X307229D01*
Y294376D01*
X313826D01*
Y300186D01*
D02*
G37*
G36*
X306829D02*
X300231D01*
Y294376D01*
X306829D01*
Y300186D01*
D02*
G37*
G36*
X253465Y290483D02*
X247754D01*
Y288216D01*
X253465D01*
Y290483D01*
D02*
G37*
G36*
Y287816D02*
X247754D01*
Y285549D01*
X253465D01*
Y287816D01*
D02*
G37*
G36*
X314738Y290041D02*
X308140D01*
Y284230D01*
X314738D01*
Y290041D01*
D02*
G37*
G36*
X307740D02*
X301142D01*
Y284230D01*
X307740D01*
Y290041D01*
D02*
G37*
G36*
X314738Y283830D02*
X308140D01*
Y278020D01*
X314738D01*
Y283830D01*
D02*
G37*
G36*
X307740D02*
X301142D01*
Y278020D01*
X307740D01*
Y283830D01*
D02*
G37*
G36*
X253465Y272451D02*
X247754D01*
Y270184D01*
X253465D01*
Y272451D01*
D02*
G37*
G36*
Y269784D02*
X247754D01*
Y267517D01*
X253465D01*
Y269784D01*
D02*
G37*
G36*
X347825Y289502D02*
X336700D01*
Y284578D01*
X347825D01*
Y289502D01*
D02*
G37*
G36*
X336300D02*
X325175D01*
Y284578D01*
X336300D01*
Y289502D01*
D02*
G37*
G36*
X347825Y284178D02*
X336700D01*
Y279254D01*
X347825D01*
Y284178D01*
D02*
G37*
G36*
X336300D02*
X325175D01*
Y279254D01*
X336300D01*
Y284178D01*
D02*
G37*
G36*
X289892Y290817D02*
X276700D01*
Y279200D01*
X289892D01*
Y290817D01*
D02*
G37*
G36*
X276300D02*
X263108D01*
Y279200D01*
X276300D01*
Y290817D01*
D02*
G37*
G36*
X289892Y278800D02*
X276700D01*
Y267183D01*
X289892D01*
Y278800D01*
D02*
G37*
G36*
X276300D02*
X263108D01*
Y267183D01*
X276300D01*
Y278800D01*
D02*
G37*
G36*
X314738Y266812D02*
X308140D01*
Y261002D01*
X314738D01*
Y266812D01*
D02*
G37*
G36*
X307740D02*
X301142D01*
Y261002D01*
X307740D01*
Y266812D01*
D02*
G37*
G36*
X314738Y260602D02*
X308140D01*
Y254792D01*
X314738D01*
Y260602D01*
D02*
G37*
G36*
X307740D02*
X301142D01*
Y254792D01*
X307740D01*
Y260602D01*
D02*
G37*
G36*
X75435Y261396D02*
X70609D01*
Y254700D01*
X75435D01*
Y261396D01*
D02*
G37*
G36*
X51617Y256869D02*
X46791D01*
Y254700D01*
X51617D01*
Y256869D01*
D02*
G37*
G36*
X70209Y261396D02*
X65383D01*
Y254700D01*
X70209D01*
Y261396D01*
D02*
G37*
G36*
X46391Y256869D02*
X41565D01*
Y254700D01*
X46391D01*
Y256869D01*
D02*
G37*
G36*
X51617Y254300D02*
X46791D01*
Y252132D01*
X51617D01*
Y254300D01*
D02*
G37*
G36*
X46391D02*
X41565D01*
Y252132D01*
X46391D01*
Y254300D01*
D02*
G37*
G36*
X83679Y250648D02*
X82200D01*
Y249070D01*
X83679D01*
Y250648D01*
D02*
G37*
G36*
X81800D02*
X80321D01*
Y249070D01*
X81800D01*
Y250648D01*
D02*
G37*
G36*
X75435Y254300D02*
X70609D01*
Y247604D01*
X75435D01*
Y254300D01*
D02*
G37*
G36*
X70209D02*
X65383D01*
Y247604D01*
X70209D01*
Y254300D01*
D02*
G37*
G36*
X51617Y247813D02*
X46791D01*
Y245645D01*
X51617D01*
Y247813D01*
D02*
G37*
G36*
X46391D02*
X41565D01*
Y245645D01*
X46391D01*
Y247813D01*
D02*
G37*
G36*
X51617Y245245D02*
X46791D01*
Y243076D01*
X51617D01*
Y245245D01*
D02*
G37*
G36*
X46391D02*
X41565D01*
Y243076D01*
X46391D01*
Y245245D01*
D02*
G37*
G36*
X58508Y234827D02*
X56444D01*
Y233716D01*
X59779D01*
X59719Y234017D01*
X59435Y234443D01*
X59010Y234727D01*
X58508Y234827D01*
D02*
G37*
G36*
X56044D02*
X53980D01*
X53479Y234727D01*
X53053Y234443D01*
X52769Y234017D01*
X52709Y233716D01*
X56044D01*
Y234827D01*
D02*
G37*
G36*
X59779Y233316D02*
X56244D01*
X52709D01*
X52769Y233014D01*
X53053Y232589D01*
X53131Y232537D01*
Y231936D01*
X53053Y231884D01*
X52769Y231458D01*
X52709Y231157D01*
X56244D01*
X59779D01*
X59719Y231458D01*
X59435Y231884D01*
X59357Y231936D01*
Y232537D01*
X59435Y232589D01*
X59719Y233014D01*
X59779Y233316D01*
D02*
G37*
G36*
Y230757D02*
X56244D01*
X52709D01*
X52769Y230455D01*
X53053Y230030D01*
X53131Y229978D01*
Y229377D01*
X53053Y229325D01*
X52769Y228899D01*
X52709Y228598D01*
X56244D01*
X59779D01*
X59719Y228899D01*
X59435Y229325D01*
X59357Y229377D01*
Y229978D01*
X59435Y230030D01*
X59719Y230455D01*
X59779Y230757D01*
D02*
G37*
G36*
X82524Y234827D02*
X80460D01*
Y233716D01*
X83795D01*
X83735Y234017D01*
X83451Y234443D01*
X83025Y234727D01*
X82524Y234827D01*
D02*
G37*
G36*
X80060D02*
X77996D01*
X77494Y234727D01*
X77069Y234443D01*
X76785Y234017D01*
X76725Y233716D01*
X80060D01*
Y234827D01*
D02*
G37*
G36*
X83795Y233316D02*
X80260D01*
X76725D01*
X76785Y233014D01*
X77069Y232589D01*
X77147Y232537D01*
Y231936D01*
X77069Y231884D01*
X76785Y231458D01*
X76725Y231157D01*
X80260D01*
X83795D01*
X83735Y231458D01*
X83451Y231884D01*
X83373Y231936D01*
Y232537D01*
X83451Y232589D01*
X83735Y233014D01*
X83795Y233316D01*
D02*
G37*
G36*
Y230757D02*
X80260D01*
X76725D01*
X76785Y230455D01*
X77069Y230030D01*
X77147Y229978D01*
Y229377D01*
X77069Y229325D01*
X76785Y228899D01*
X76725Y228598D01*
X80260D01*
X83795D01*
X83735Y228899D01*
X83451Y229325D01*
X83373Y229377D01*
Y229978D01*
X83451Y230030D01*
X83735Y230455D01*
X83795Y230757D01*
D02*
G37*
G36*
X347825Y263124D02*
X336700D01*
Y258200D01*
X347825D01*
Y263124D01*
D02*
G37*
G36*
X336300D02*
X325175D01*
Y258200D01*
X336300D01*
Y263124D01*
D02*
G37*
G36*
X347825Y257800D02*
X336700D01*
Y252876D01*
X347825D01*
Y257800D01*
D02*
G37*
G36*
X336300D02*
X325175D01*
Y252876D01*
X336300D01*
Y257800D01*
D02*
G37*
G36*
X363074Y251732D02*
Y247385D01*
X367421D01*
X367291Y248369D01*
X366834Y249471D01*
X366108Y250419D01*
X365160Y251145D01*
X364058Y251602D01*
X363074Y251732D01*
D02*
G37*
G36*
X362674D02*
X361690Y251602D01*
X360588Y251145D01*
X359640Y250419D01*
X358914Y249471D01*
X358457Y248369D01*
X358327Y247385D01*
X362674D01*
Y251732D01*
D02*
G37*
G36*
Y246985D02*
X358327D01*
X358457Y246002D01*
X358914Y244899D01*
X359640Y243952D01*
X360588Y243225D01*
X361690Y242768D01*
X362674Y242638D01*
Y246985D01*
D02*
G37*
G36*
X367421D02*
X363074D01*
Y242638D01*
X364058Y242768D01*
X365160Y243225D01*
X366108Y243952D01*
X366834Y244899D01*
X367291Y246002D01*
X367421Y246985D01*
D02*
G37*
G36*
X363074Y232047D02*
Y227700D01*
X367421D01*
X367291Y228684D01*
X366834Y229786D01*
X366108Y230734D01*
X365160Y231460D01*
X364058Y231917D01*
X363074Y232047D01*
D02*
G37*
G36*
X362674D02*
X361690Y231917D01*
X360588Y231460D01*
X359640Y230734D01*
X358914Y229786D01*
X358457Y228684D01*
X358327Y227700D01*
X362674D01*
Y232047D01*
D02*
G37*
G36*
Y227300D02*
X358327D01*
X358457Y226316D01*
X358914Y225214D01*
X359640Y224266D01*
X360588Y223540D01*
X361690Y223083D01*
X362674Y222953D01*
Y227300D01*
D02*
G37*
G36*
X367421D02*
X363074D01*
Y222953D01*
X364058Y223083D01*
X365160Y223540D01*
X366108Y224266D01*
X366834Y225214D01*
X367291Y226316D01*
X367421Y227300D01*
D02*
G37*
G36*
X343298Y131396D02*
X336700D01*
Y125586D01*
X343298D01*
Y131396D01*
D02*
G37*
G36*
X336300D02*
X329702D01*
Y125586D01*
X336300D01*
Y131396D01*
D02*
G37*
G36*
X343298Y125186D02*
X336700D01*
Y119376D01*
X343298D01*
Y125186D01*
D02*
G37*
G36*
X336300D02*
X329702D01*
Y119376D01*
X336300D01*
Y125186D01*
D02*
G37*
G36*
X334943Y114609D02*
X331200D01*
Y108700D01*
X334943D01*
Y114609D01*
D02*
G37*
G36*
X330800D02*
X327057D01*
Y108700D01*
X330800D01*
Y114609D01*
D02*
G37*
G36*
X334943Y108300D02*
X331200D01*
Y102391D01*
X334943D01*
Y108300D01*
D02*
G37*
G36*
X330800D02*
X327057D01*
Y102391D01*
X330800D01*
Y108300D01*
D02*
G37*
G36*
X348340Y97557D02*
X336723D01*
Y84364D01*
X348340D01*
Y97557D01*
D02*
G37*
G36*
X336323D02*
X324705D01*
Y84364D01*
X336323D01*
Y97557D01*
D02*
G37*
G36*
X348340Y83964D02*
X336723D01*
Y70772D01*
X348340D01*
Y83964D01*
D02*
G37*
G36*
X336323D02*
X324705D01*
Y70772D01*
X336323D01*
Y83964D01*
D02*
G37*
G36*
X242043Y153343D02*
X238508D01*
X234973D01*
X235033Y153042D01*
X235317Y152616D01*
X235742Y152332D01*
X236244Y152232D01*
X236941D01*
Y150671D01*
X236587Y150317D01*
X235962Y150317D01*
X235462Y150317D01*
X232104D01*
Y149418D01*
X231054D01*
X230999Y149499D01*
X230541Y149805D01*
X230000Y149913D01*
X229459Y149805D01*
X229001Y149499D01*
X228695Y149041D01*
X228587Y148500D01*
X228695Y147959D01*
X229001Y147501D01*
X229459Y147195D01*
X230000Y147087D01*
X230541Y147195D01*
X230999Y147501D01*
X231054Y147582D01*
X232104D01*
Y146683D01*
X235462D01*
X235896Y146683D01*
X236396Y146683D01*
X237658D01*
Y148500D01*
X237858D01*
Y148700D01*
X239754D01*
Y150317D01*
X238776D01*
Y152232D01*
X240772D01*
X241273Y152332D01*
X241699Y152616D01*
X241983Y153042D01*
X242043Y153343D01*
D02*
G37*
G36*
X239754Y148300D02*
X238058D01*
Y146683D01*
X239754D01*
Y148300D01*
D02*
G37*
G36*
X214317Y145254D02*
X210683D01*
Y144418D01*
X210054D01*
X209999Y144499D01*
X209541Y144805D01*
X209000Y144913D01*
X208459Y144805D01*
X208001Y144499D01*
X207695Y144041D01*
X207587Y143500D01*
X207695Y142959D01*
X208001Y142501D01*
X208459Y142195D01*
X209000Y142087D01*
X209541Y142195D01*
X209999Y142501D01*
X210492Y142419D01*
X210683Y142229D01*
X210683Y141462D01*
X210683Y140962D01*
Y139700D01*
X214317D01*
Y140962D01*
X214317Y141396D01*
X214317Y141896D01*
Y145254D01*
D02*
G37*
G36*
X177433Y145813D02*
X176892Y145705D01*
X176434Y145399D01*
X176128Y144941D01*
X176020Y144400D01*
X176128Y143859D01*
X176434Y143401D01*
X176892Y143095D01*
X177433Y142987D01*
X177974Y143095D01*
X178432Y143401D01*
X178738Y143859D01*
X178846Y144400D01*
X178738Y144941D01*
X178432Y145399D01*
X177974Y145705D01*
X177433Y145813D01*
D02*
G37*
G36*
X193500Y146913D02*
X192959Y146805D01*
X192501Y146499D01*
X192195Y146041D01*
X192087Y145500D01*
X192195Y144959D01*
X192501Y144501D01*
X192569Y144455D01*
X192787Y143999D01*
X192480Y143541D01*
X192373Y143000D01*
X192480Y142459D01*
X192787Y142001D01*
X193245Y141695D01*
X193786Y141587D01*
X194326Y141695D01*
X194785Y142001D01*
X195091Y142459D01*
X195199Y143000D01*
X195091Y143541D01*
X194785Y143999D01*
X194717Y144045D01*
X194499Y144501D01*
X194805Y144959D01*
X194913Y145500D01*
X194805Y146041D01*
X194499Y146499D01*
X194041Y146805D01*
X193500Y146913D01*
D02*
G37*
G36*
X204940Y141680D02*
Y140200D01*
X206518D01*
Y141680D01*
X204940D01*
D02*
G37*
G36*
X206518Y139800D02*
X204940D01*
Y138321D01*
X206518D01*
Y139800D01*
D02*
G37*
G36*
X85380Y175180D02*
X82818D01*
Y173700D01*
X85380D01*
Y175180D01*
D02*
G37*
G36*
X82418D02*
X79856D01*
Y173700D01*
X82418D01*
Y175180D01*
D02*
G37*
G36*
X85380Y173300D02*
X82818D01*
Y171820D01*
X85380D01*
Y173300D01*
D02*
G37*
G36*
X82418D02*
X79856D01*
Y171820D01*
X82418D01*
Y173300D01*
D02*
G37*
G36*
X83353Y165431D02*
X80200D01*
Y157358D01*
X83353D01*
Y165431D01*
D02*
G37*
G36*
X79800D02*
X76647D01*
Y157358D01*
X79800D01*
Y165431D01*
D02*
G37*
G36*
X83353Y156957D02*
X80200D01*
Y148883D01*
X83353D01*
Y156957D01*
D02*
G37*
G36*
X79800D02*
X76647D01*
Y148883D01*
X79800D01*
Y156957D01*
D02*
G37*
G36*
X51179Y225018D02*
X49700D01*
Y223440D01*
X51179D01*
Y225018D01*
D02*
G37*
G36*
X49300D02*
X47820D01*
Y223440D01*
X49300D01*
Y225018D01*
D02*
G37*
G36*
X28204Y226547D02*
Y222200D01*
X32550D01*
X32421Y223184D01*
X31964Y224287D01*
X31238Y225234D01*
X30290Y225960D01*
X29188Y226417D01*
X28204Y226547D01*
D02*
G37*
G36*
X27804D02*
X26820Y226417D01*
X25717Y225960D01*
X24770Y225234D01*
X24044Y224287D01*
X23587Y223184D01*
X23457Y222200D01*
X27804D01*
Y226547D01*
D02*
G37*
G36*
X32550Y221800D02*
X28204D01*
Y217453D01*
X29188Y217583D01*
X30290Y218040D01*
X31238Y218766D01*
X31964Y219713D01*
X32421Y220816D01*
X32550Y221800D01*
D02*
G37*
G36*
X27804D02*
X23457D01*
X23587Y220816D01*
X24044Y219713D01*
X24770Y218766D01*
X25717Y218040D01*
X26820Y217583D01*
X27804Y217453D01*
Y221800D01*
D02*
G37*
G36*
X51179Y223040D02*
X49500D01*
X47820D01*
Y221778D01*
X47820Y221462D01*
X47820Y220962D01*
Y220272D01*
X47355D01*
X47004Y220203D01*
X46706Y220004D01*
X45111Y218409D01*
X44912Y218111D01*
X44842Y217760D01*
Y217179D01*
X43982D01*
Y213821D01*
X47538D01*
Y213820D01*
X47722D01*
Y213821D01*
X48163D01*
X48370Y213320D01*
X48229Y213179D01*
X47722Y213179D01*
X47222Y213179D01*
X43982D01*
Y212418D01*
X43054D01*
X42999Y212499D01*
X42541Y212805D01*
X42000Y212913D01*
X41459Y212805D01*
X41001Y212499D01*
X40695Y212041D01*
X40587Y211500D01*
X40695Y210959D01*
X41001Y210501D01*
X41459Y210195D01*
X42000Y210087D01*
X42541Y210195D01*
X42999Y210501D01*
X43054Y210582D01*
X43982D01*
Y209821D01*
X47222D01*
X47538Y209821D01*
X48038Y209821D01*
X50326D01*
X50651Y209320D01*
X50587Y209000D01*
X50695Y208459D01*
X51001Y208001D01*
X51459Y207695D01*
X52000Y207587D01*
X52541Y207695D01*
X52999Y208001D01*
X53305Y208459D01*
X53378Y208822D01*
X53418Y209002D01*
X53885Y209192D01*
X53980Y209173D01*
X55326D01*
Y208624D01*
X53620Y206918D01*
X49853D01*
Y209254D01*
X43147D01*
Y202746D01*
X49853D01*
Y205082D01*
X54000D01*
X54351Y205152D01*
X54649Y205351D01*
X56893Y207595D01*
X57092Y207893D01*
X57162Y208244D01*
Y209173D01*
X58508D01*
X59010Y209273D01*
X59435Y209557D01*
X59719Y209982D01*
X59819Y210484D01*
X59719Y210986D01*
X59435Y211411D01*
X59357Y211463D01*
Y212065D01*
X59435Y212116D01*
X59719Y212542D01*
X59819Y213043D01*
X59719Y213545D01*
X59435Y213970D01*
X59357Y214022D01*
Y214623D01*
X59435Y214675D01*
X59719Y215101D01*
X59819Y215602D01*
X59719Y216104D01*
X59435Y216529D01*
X59357Y216581D01*
Y217183D01*
X59435Y217234D01*
X59719Y217660D01*
X59819Y218161D01*
X59719Y218663D01*
X59435Y219088D01*
X59357Y219140D01*
Y219742D01*
X59435Y219793D01*
X59719Y220219D01*
X59779Y220520D01*
X56244D01*
X52709D01*
X52769Y220219D01*
X52982Y219901D01*
X52883Y219518D01*
X52790Y219368D01*
X52527Y219330D01*
X52318Y219539D01*
X52020Y219738D01*
X51669Y219808D01*
X51533D01*
X51179Y220162D01*
X51179Y221278D01*
X51179Y221778D01*
Y223040D01*
D02*
G37*
G36*
X28204Y206547D02*
Y202200D01*
X32550D01*
X32421Y203184D01*
X31964Y204287D01*
X31238Y205234D01*
X30290Y205960D01*
X29188Y206417D01*
X28204Y206547D01*
D02*
G37*
G36*
X27804D02*
X26820Y206417D01*
X25717Y205960D01*
X24770Y205234D01*
X24044Y204287D01*
X23587Y203184D01*
X23457Y202200D01*
X27804D01*
Y206547D01*
D02*
G37*
G36*
X50128Y202298D02*
X49763Y201971D01*
X49628Y201971D01*
X43147D01*
Y199918D01*
X42554D01*
X42499Y199999D01*
X42041Y200305D01*
X41500Y200413D01*
X40959Y200305D01*
X40501Y199999D01*
X40195Y199541D01*
X40087Y199000D01*
X40195Y198459D01*
X40501Y198001D01*
X40959Y197695D01*
X41500Y197587D01*
X42041Y197695D01*
X42499Y198001D01*
X42554Y198082D01*
X43147D01*
Y195462D01*
X49628D01*
X49853Y195462D01*
X50128Y195076D01*
Y188702D01*
X55938D01*
Y195500D01*
Y202298D01*
X50128Y202298D01*
D02*
G37*
G36*
X32550Y201800D02*
X28204D01*
Y197453D01*
X29188Y197583D01*
X30290Y198040D01*
X31238Y198766D01*
X31964Y199714D01*
X32421Y200816D01*
X32550Y201800D01*
D02*
G37*
G36*
X27804D02*
X23457D01*
X23587Y200816D01*
X24044Y199714D01*
X24770Y198766D01*
X25717Y198040D01*
X26820Y197583D01*
X27804Y197453D01*
Y201800D01*
D02*
G37*
G36*
X56338Y202298D02*
Y195700D01*
X62148D01*
Y202298D01*
X56338D01*
D02*
G37*
G36*
X62148Y195300D02*
X56338D01*
Y188702D01*
X62148D01*
Y195300D01*
D02*
G37*
G36*
X52896Y179412D02*
X49547D01*
Y173700D01*
X52896D01*
Y179412D01*
D02*
G37*
G36*
X49147D02*
X45797D01*
Y173700D01*
X49147D01*
Y179412D01*
D02*
G37*
G36*
X72182Y171439D02*
X69620D01*
Y169960D01*
X72182D01*
Y171439D01*
D02*
G37*
G36*
Y169560D02*
X69620D01*
Y168080D01*
X72182D01*
Y169560D01*
D02*
G37*
G36*
X63500Y179412D02*
D01*
X57608D01*
Y167588D01*
X64707D01*
Y172073D01*
X66500D01*
X67046Y172181D01*
X67509Y172491D01*
X67819Y172954D01*
X67927Y173500D01*
X67819Y174046D01*
X67509Y174509D01*
X67046Y174819D01*
X66500Y174927D01*
X64707D01*
Y179412D01*
X63500D01*
D02*
G37*
G36*
X52896Y173300D02*
X49547D01*
Y167588D01*
X52896D01*
Y173300D01*
D02*
G37*
G36*
X49147D02*
X45797D01*
Y167588D01*
X49147D01*
Y173300D01*
D02*
G37*
G36*
X63353Y165431D02*
X60200D01*
Y157358D01*
X63353D01*
Y165431D01*
D02*
G37*
G36*
X59800D02*
X56647D01*
Y157358D01*
X59800D01*
Y165431D01*
D02*
G37*
G36*
X63353Y156957D02*
X60200D01*
Y148883D01*
X63353D01*
Y156957D01*
D02*
G37*
G36*
X179134Y127360D02*
X177169D01*
Y125948D01*
X180706D01*
X180623Y126365D01*
X180274Y126888D01*
X179751Y127237D01*
X179134Y127360D01*
D02*
G37*
G36*
X180706Y94052D02*
X177169D01*
Y92640D01*
X179134D01*
X179751Y92763D01*
X180274Y93112D01*
X180623Y93635D01*
X180706Y94052D01*
D02*
G37*
G36*
X343298Y154624D02*
X336700D01*
Y148814D01*
X343298D01*
Y154624D01*
D02*
G37*
G36*
X336300D02*
X329702D01*
Y148814D01*
X336300D01*
Y154624D01*
D02*
G37*
G36*
X343298Y148414D02*
X336700D01*
Y142604D01*
X343298D01*
Y148414D01*
D02*
G37*
G36*
X336300D02*
X329702D01*
Y142604D01*
X336300D01*
Y148414D01*
D02*
G37*
G36*
X362200Y145917D02*
Y141570D01*
X366547D01*
X366417Y142554D01*
X365960Y143657D01*
X365234Y144604D01*
X364286Y145330D01*
X363184Y145787D01*
X362200Y145917D01*
D02*
G37*
G36*
X361800D02*
X360816Y145787D01*
X359714Y145330D01*
X358766Y144604D01*
X358040Y143657D01*
X357583Y142554D01*
X357453Y141570D01*
X361800D01*
Y145917D01*
D02*
G37*
G36*
X366547Y141170D02*
X362200D01*
Y136823D01*
X363184Y136953D01*
X364286Y137410D01*
X365234Y138136D01*
X365960Y139084D01*
X366417Y140187D01*
X366547Y141170D01*
D02*
G37*
G36*
X361800D02*
X357453D01*
X357583Y140187D01*
X358040Y139084D01*
X358766Y138136D01*
X359714Y137410D01*
X360816Y136953D01*
X361800Y136823D01*
Y141170D01*
D02*
G37*
G36*
X362200Y126232D02*
Y121885D01*
X366547D01*
X366417Y122869D01*
X365960Y123971D01*
X365234Y124919D01*
X364286Y125645D01*
X363184Y126102D01*
X362200Y126232D01*
D02*
G37*
G36*
X361800D02*
X360816Y126102D01*
X359714Y125645D01*
X358766Y124919D01*
X358040Y123971D01*
X357583Y122869D01*
X357453Y121885D01*
X361800D01*
Y126232D01*
D02*
G37*
G36*
X366547Y121485D02*
X362200D01*
Y117138D01*
X363184Y117268D01*
X364286Y117725D01*
X365234Y118451D01*
X365960Y119399D01*
X366417Y120501D01*
X366547Y121485D01*
D02*
G37*
G36*
X361800D02*
X357453D01*
X357583Y120501D01*
X358040Y119399D01*
X358766Y118451D01*
X359714Y117725D01*
X360816Y117268D01*
X361800Y117138D01*
Y121485D01*
D02*
G37*
G36*
X170300Y126371D02*
X168683D01*
Y124675D01*
X170300D01*
Y126371D01*
D02*
G37*
G36*
X87428Y134920D02*
X70200D01*
Y117200D01*
X87428D01*
Y134920D01*
D02*
G37*
G36*
X69800D02*
X52572D01*
Y117200D01*
X69800D01*
Y134920D01*
D02*
G37*
G36*
X87428Y116800D02*
X70200D01*
Y99080D01*
X87428D01*
Y116800D01*
D02*
G37*
G36*
X69800D02*
X52572D01*
Y99080D01*
X69800D01*
Y116800D01*
D02*
G37*
G36*
X169800Y100800D02*
X168183D01*
Y99104D01*
X169800D01*
Y100800D01*
D02*
G37*
G36*
Y95896D02*
X168183D01*
Y94200D01*
X169800D01*
Y95896D01*
D02*
G37*
G36*
X79396Y82317D02*
X77700D01*
Y80700D01*
X79396D01*
Y82317D01*
D02*
G37*
G36*
Y80300D02*
X77700D01*
Y78683D01*
X79396D01*
Y80300D01*
D02*
G37*
G36*
X80888Y75199D02*
X77735D01*
Y68700D01*
X80888D01*
Y75199D01*
D02*
G37*
G36*
X77335D02*
X74183D01*
Y68700D01*
X77335D01*
Y75199D01*
D02*
G37*
G36*
X80888Y68300D02*
X77735D01*
Y61801D01*
X80888D01*
Y68300D01*
D02*
G37*
G36*
X77335D02*
X74183D01*
Y61801D01*
X77335D01*
Y68300D01*
D02*
G37*
G36*
X210758Y78800D02*
X207999D01*
Y76533D01*
X210758D01*
Y78800D01*
D02*
G37*
G36*
X345967Y114609D02*
X342224D01*
Y108700D01*
X345967D01*
Y114609D01*
D02*
G37*
G36*
X341824D02*
X338080D01*
Y108700D01*
X341824D01*
Y114609D01*
D02*
G37*
G36*
X345967Y108300D02*
X342224D01*
Y102391D01*
X345967D01*
Y108300D01*
D02*
G37*
G36*
X341824D02*
X338080D01*
Y102391D01*
X341824D01*
Y108300D01*
D02*
G37*
G36*
X362200Y106547D02*
Y102200D01*
X366547D01*
X366417Y103184D01*
X365960Y104287D01*
X365234Y105234D01*
X364286Y105960D01*
X363184Y106417D01*
X362200Y106547D01*
D02*
G37*
G36*
X361800D02*
X360816Y106417D01*
X359714Y105960D01*
X358766Y105234D01*
X358040Y104287D01*
X357583Y103184D01*
X357453Y102200D01*
X361800D01*
Y106547D01*
D02*
G37*
G36*
X366547Y101800D02*
X362200D01*
Y97453D01*
X363184Y97583D01*
X364286Y98040D01*
X365234Y98766D01*
X365960Y99713D01*
X366417Y100816D01*
X366547Y101800D01*
D02*
G37*
G36*
X361800D02*
X357453D01*
X357583Y100816D01*
X358040Y99713D01*
X358766Y98766D01*
X359714Y98040D01*
X360816Y97583D01*
X361800Y97453D01*
Y101800D01*
D02*
G37*
G36*
X362200Y86862D02*
Y82515D01*
X366547D01*
X366417Y83499D01*
X365960Y84601D01*
X365234Y85549D01*
X364286Y86275D01*
X363184Y86732D01*
X362200Y86862D01*
D02*
G37*
G36*
X361800D02*
X360816Y86732D01*
X359714Y86275D01*
X358766Y85549D01*
X358040Y84601D01*
X357583Y83499D01*
X357453Y82515D01*
X361800D01*
Y86862D01*
D02*
G37*
G36*
X366547Y82115D02*
X362200D01*
Y77768D01*
X363184Y77898D01*
X364286Y78355D01*
X365234Y79081D01*
X365960Y80028D01*
X366417Y81131D01*
X366547Y82115D01*
D02*
G37*
G36*
X361800D02*
X357453D01*
X357583Y81131D01*
X358040Y80028D01*
X358766Y79081D01*
X359714Y78355D01*
X360816Y77898D01*
X361800Y77768D01*
Y82115D01*
D02*
G37*
G36*
X25665Y118398D02*
Y112479D01*
X31583D01*
X31485Y113477D01*
X31136Y114629D01*
X30568Y115690D01*
X29805Y116620D01*
X28875Y117383D01*
X27814Y117950D01*
X26662Y118300D01*
X25665Y118398D01*
D02*
G37*
G36*
X25265D02*
X24267Y118300D01*
X23116Y117950D01*
X22054Y117383D01*
X21124Y116620D01*
X20361Y115690D01*
X19794Y114629D01*
X19444Y113477D01*
X19346Y112479D01*
X25265D01*
Y118398D01*
D02*
G37*
G36*
X31583Y112080D02*
X25665D01*
Y106161D01*
X26662Y106259D01*
X27814Y106608D01*
X28875Y107176D01*
X29805Y107939D01*
X30568Y108869D01*
X31136Y109931D01*
X31485Y111082D01*
X31583Y112080D01*
D02*
G37*
G36*
X25265D02*
X19346D01*
X19444Y111082D01*
X19794Y109931D01*
X20361Y108869D01*
X21124Y107939D01*
X22054Y107176D01*
X23116Y106608D01*
X24267Y106259D01*
X25265Y106161D01*
Y112080D01*
D02*
G37*
G36*
X25665Y70996D02*
Y65078D01*
X31583D01*
X31485Y66075D01*
X31136Y67227D01*
X30568Y68288D01*
X29805Y69218D01*
X28875Y69982D01*
X27814Y70549D01*
X26662Y70898D01*
X25665Y70996D01*
D02*
G37*
G36*
X25265D02*
X24267Y70898D01*
X23116Y70549D01*
X22054Y69982D01*
X21124Y69218D01*
X20361Y68288D01*
X19794Y67227D01*
X19444Y66075D01*
X19346Y65078D01*
X25265D01*
Y70996D01*
D02*
G37*
G36*
X31583Y64678D02*
X25665D01*
Y58759D01*
X26662Y58858D01*
X27814Y59207D01*
X28875Y59774D01*
X29805Y60538D01*
X30568Y61468D01*
X31136Y62529D01*
X31485Y63680D01*
X31583Y64678D01*
D02*
G37*
G36*
X25265D02*
X19346D01*
X19444Y63680D01*
X19794Y62529D01*
X20361Y61468D01*
X21124Y60538D01*
X22054Y59774D01*
X23116Y59207D01*
X24267Y58858D01*
X25265Y58759D01*
Y64678D01*
D02*
G37*
G36*
X24544Y54991D02*
X21726D01*
Y51700D01*
X24544D01*
Y54991D01*
D02*
G37*
G36*
Y51300D02*
X21726D01*
Y48009D01*
X24544D01*
Y51300D01*
D02*
G37*
G36*
X348005Y67242D02*
X345738D01*
Y61530D01*
X348005D01*
Y67242D01*
D02*
G37*
G36*
X329974D02*
X327707D01*
Y61530D01*
X329974D01*
Y67242D01*
D02*
G37*
G36*
X327307D02*
X325040D01*
Y61530D01*
X327307D01*
Y67242D01*
D02*
G37*
G36*
X345338D02*
X343071D01*
Y61530D01*
X345338D01*
Y67242D01*
D02*
G37*
G36*
X348005Y61130D02*
X345738D01*
Y55418D01*
X348005D01*
Y61130D01*
D02*
G37*
G36*
X345338D02*
X343071D01*
Y55418D01*
X345338D01*
Y61130D01*
D02*
G37*
G36*
X148497Y34404D02*
X147706D01*
Y31251D01*
X148497D01*
Y34404D01*
D02*
G37*
G36*
X36334Y87013D02*
Y83858D01*
X39489D01*
X39400Y84533D01*
X39062Y85348D01*
X38525Y86049D01*
X37825Y86586D01*
X37009Y86924D01*
X36334Y87013D01*
D02*
G37*
G36*
X35934D02*
X35259Y86924D01*
X34443Y86586D01*
X33743Y86049D01*
X33205Y85348D01*
X32867Y84533D01*
X32778Y83858D01*
X35934D01*
Y87013D01*
D02*
G37*
G36*
X39489Y83457D02*
X36334D01*
Y80302D01*
X37009Y80391D01*
X37825Y80729D01*
X38525Y81266D01*
X39062Y81967D01*
X39400Y82782D01*
X39489Y83457D01*
D02*
G37*
G36*
X35934D02*
X32778D01*
X32867Y82782D01*
X33205Y81967D01*
X33743Y81266D01*
X34443Y80729D01*
X35259Y80391D01*
X35934Y80302D01*
Y83457D01*
D02*
G37*
G36*
X35518Y54991D02*
X32700D01*
Y51700D01*
X35518D01*
Y54991D01*
D02*
G37*
G36*
X32300D02*
X29482D01*
Y51700D01*
X32300D01*
Y54991D01*
D02*
G37*
G36*
X35518Y51300D02*
X32700D01*
Y48009D01*
X35518D01*
Y51300D01*
D02*
G37*
G36*
X32300D02*
X29482D01*
Y48009D01*
X32300D01*
Y51300D01*
D02*
G37*
G36*
X35397Y43556D02*
X32579D01*
Y40266D01*
X35397D01*
Y43556D01*
D02*
G37*
G36*
X32179D02*
X29361D01*
Y40266D01*
X32179D01*
Y43556D01*
D02*
G37*
G36*
X35397Y39866D02*
X32579D01*
Y36575D01*
X35397D01*
Y39866D01*
D02*
G37*
G36*
X32179D02*
X29361D01*
Y36575D01*
X32179D01*
Y39866D01*
D02*
G37*
G36*
X24423Y43556D02*
X21605D01*
Y40266D01*
X24423D01*
Y43556D01*
D02*
G37*
G36*
Y39866D02*
X21605D01*
Y36575D01*
X24423D01*
Y39866D01*
D02*
G37*
G36*
X15000Y37874D02*
X13868Y37725D01*
X12813Y37288D01*
X11907Y36593D01*
X11212Y35687D01*
X10775Y34632D01*
X10626Y33500D01*
X10775Y32368D01*
X11212Y31313D01*
X11907Y30407D01*
X12813Y29712D01*
X13868Y29275D01*
X15000Y29126D01*
X16132Y29275D01*
X17187Y29712D01*
X18093Y30407D01*
X18788Y31313D01*
X19225Y32368D01*
X19374Y33500D01*
X19225Y34632D01*
X18788Y35687D01*
X18093Y36593D01*
X17187Y37288D01*
X16132Y37725D01*
X15000Y37874D01*
D02*
G37*
G36*
X148497Y16284D02*
X147706D01*
Y13131D01*
X148497D01*
Y16284D01*
D02*
G37*
%LPD*%
D16*
X235836Y108484D02*
X236130Y108778D01*
X233879Y108484D02*
X235836D01*
X230685Y108082D02*
X230946Y108344D01*
X233739D02*
X233879Y108484D01*
X230946Y108344D02*
X233739D01*
X236130Y108778D02*
X238481D01*
X240000Y115492D02*
X240754Y116246D01*
X239083Y114575D02*
X240000Y115492D01*
X235557Y112954D02*
X237912D01*
X218001Y319500D02*
Y324999D01*
X196778Y246185D02*
X196778Y248679D01*
X196778Y245722D02*
Y246185D01*
X182534Y320034D02*
Y324966D01*
X170500Y130571D02*
X170571Y130500D01*
X167396Y91604D02*
X171790D01*
X238620Y108918D02*
X239315D01*
X238481Y108778D02*
X238620Y108918D01*
X236000Y94000D02*
X237508D01*
X215000Y25500D02*
X216000D01*
X213748Y26752D02*
Y30961D01*
Y26752D02*
X215000Y25500D01*
X216000D02*
X217641Y23859D01*
X211689Y25811D02*
X213998Y23502D01*
X215139D02*
X215255Y23386D01*
X213998Y23502D02*
X215139D01*
X217641Y22398D02*
Y23859D01*
X216244Y21000D02*
X217641Y22398D01*
X211689Y25811D02*
Y31051D01*
X213657D02*
X213748Y30961D01*
X150665Y16484D02*
X152634D01*
X148697D02*
X150665D01*
X183500Y334947D02*
X184358Y334088D01*
X219075Y332417D02*
Y333272D01*
X218610Y333736D02*
X219075Y333272D01*
Y332417D02*
X219207Y332285D01*
X219285D01*
X218610Y333736D02*
Y334890D01*
X218500Y335000D02*
X218610Y334890D01*
X180599Y325422D02*
Y325497D01*
X189787Y205595D02*
Y206779D01*
X186371Y79957D02*
X186414Y79914D01*
X178147Y325783D02*
X178348Y325581D01*
X180440D02*
X180516D01*
X178348D02*
X180440D01*
X166460Y299969D02*
X173415D01*
X177500Y175858D02*
X177992Y176350D01*
X177500Y175858D02*
X177992Y175366D01*
Y176350D01*
X52000Y209000D02*
Y212374D01*
X52669Y213043D01*
X56244D01*
X233000Y94500D02*
Y94584D01*
X233858Y95442D01*
Y98000D01*
X148697Y31051D02*
X150665D01*
X152634D01*
X216997Y138708D02*
X217144Y138856D01*
X215748Y137748D02*
X216708Y138708D01*
X216997D01*
X215748Y133031D02*
Y137748D01*
X172000Y100551D02*
X176969D01*
X170252Y94252D02*
X174748D01*
X177000Y324000D02*
Y326929D01*
X173415Y299969D02*
X177969D01*
X180000Y302000D01*
X241874Y290126D02*
X242000Y290000D01*
X242129Y290500D02*
Y293532D01*
X215626Y31051D02*
X217204D01*
X210459Y24239D02*
Y25041D01*
X209720Y25780D02*
X210459Y25041D01*
X217595Y31051D02*
X219563D01*
X311000Y64500D02*
X321500Y54000D01*
X298966Y134088D02*
X311000Y122053D01*
Y64500D02*
Y122053D01*
X238000Y227586D02*
Y235000D01*
X219530Y205478D02*
X224978D01*
X170500Y130571D02*
Y133500D01*
X242000Y282000D02*
Y286142D01*
X232921Y209921D02*
X234000Y211000D01*
X228000Y209921D02*
X232921D01*
X177018Y122549D02*
X182451D01*
X98500Y105000D02*
X100300Y106800D01*
X209720Y25780D02*
Y31051D01*
X237508Y94000D02*
X239500Y95992D01*
X209000Y143500D02*
X212358D01*
X253500Y301150D02*
X253665Y300984D01*
X182352Y106919D02*
Y107738D01*
X182500Y107886D01*
X179034Y103600D02*
X182352Y106919D01*
X177069Y103600D02*
X179034D01*
X181508Y97398D02*
X182000Y97890D01*
X176972Y97398D02*
X181508D01*
X182000Y97890D02*
Y99000D01*
X176969Y97402D02*
X176972Y97398D01*
X183500Y75693D02*
X183648Y75841D01*
X186199D01*
X186500Y76142D01*
X156500Y88500D02*
X162130Y94130D01*
X156500Y80150D02*
Y88500D01*
X162130Y94130D02*
Y99671D01*
X162130Y99671D01*
Y121020D01*
X156500Y80150D02*
X161630Y75020D01*
Y72399D02*
Y75020D01*
X159500Y70270D02*
X161630Y72399D01*
X159500Y60089D02*
X164500Y55089D01*
X159500Y60089D02*
Y70270D01*
X167000Y92000D02*
X167396Y91604D01*
X172186Y90142D02*
Y92000D01*
X170000Y90142D02*
X172186D01*
X171790Y91604D02*
X172186Y92000D01*
X196082Y252460D02*
X196714Y251829D01*
X196082Y252460D02*
X196082Y252460D01*
X170000Y109000D02*
X170110Y109110D01*
X170000Y104858D02*
Y109000D01*
X84492Y255000D02*
X86470D01*
X87470Y256000D01*
X87748Y258752D02*
X92000Y254500D01*
X80752Y258752D02*
X87748D01*
X92000Y235980D02*
Y254500D01*
X100300Y106800D02*
Y217565D01*
X93743Y224122D02*
X100300Y217565D01*
X89913Y220000D02*
X94086D01*
X90280Y224122D02*
X93743D01*
X92000Y233500D02*
X92500D01*
X89500Y231000D02*
X92000Y233500D01*
X87000Y228500D02*
X87321Y228820D01*
Y231300D02*
X92000Y235980D01*
X87000Y227000D02*
Y228500D01*
X87321Y228820D02*
Y231300D01*
X80752Y258752D02*
Y266748D01*
Y255000D02*
Y258752D01*
X47000Y263965D02*
Y267500D01*
X48500Y269000D02*
X78500D01*
X47000Y267500D02*
X48500Y269000D01*
X78500D02*
X80752Y266748D01*
X86033Y251033D02*
X87500Y252500D01*
X86033Y249337D02*
Y251033D01*
Y249337D02*
X86500Y248870D01*
X89500Y224902D02*
X90280Y224122D01*
X89500Y224902D02*
Y225000D01*
X82000Y245130D02*
X86252D01*
X72000Y232000D02*
Y240000D01*
X75000Y225000D02*
Y229000D01*
X72000Y232000D02*
X75000Y229000D01*
X80211Y223329D02*
X80260Y223280D01*
X76671Y223329D02*
X80211D01*
X75000Y225000D02*
X76671Y223329D01*
X72000Y240000D02*
X77130Y245130D01*
X85839Y225839D02*
X87000Y227000D01*
X80260Y225839D02*
X85839D01*
X79252Y245130D02*
X80500D01*
X77130D02*
X79252D01*
X89500Y228740D02*
Y231000D01*
X85161Y218161D02*
X86500Y219500D01*
Y224000D02*
X87500Y225000D01*
X86500Y219500D02*
Y224000D01*
X87500Y225000D02*
X89500D01*
X80260Y218161D02*
X85161D01*
X60394Y223280D02*
X62000Y221674D01*
Y209000D02*
Y221674D01*
X56244Y223280D02*
X60394D01*
X80260Y213043D02*
X88957D01*
X89500Y198500D02*
Y201760D01*
X64000Y184312D02*
Y207000D01*
Y184312D02*
X66351Y181961D01*
X71602Y178020D02*
X72382Y177240D01*
X70292Y178020D02*
X71602D01*
X66351Y181961D02*
X70292Y178020D01*
X62000Y209000D02*
X64000Y207000D01*
X86500Y205500D02*
X89500D01*
X85500Y206500D02*
X86500Y205500D01*
X85500Y206500D02*
Y209000D01*
X80260Y210484D02*
X84016D01*
X85500Y209000D01*
X41500Y199000D02*
X46216D01*
X42000Y211500D02*
X45760D01*
X46500Y206000D02*
X54000D01*
X56244Y208244D02*
Y210484D01*
X54000Y206000D02*
X56244Y208244D01*
X45760Y215500D02*
Y217760D01*
X47355Y219355D02*
X49355D01*
X45760Y217760D02*
X47355Y219355D01*
X52250Y218309D02*
X56097D01*
X51669Y218890D02*
X52250Y218309D01*
X50279Y218890D02*
X51669D01*
X50250Y218920D02*
Y219250D01*
Y218920D02*
X50279Y218890D01*
X49500Y211500D02*
Y215500D01*
X56097Y218309D02*
X56244Y218161D01*
X49602Y215602D02*
X56244D01*
X229547Y292047D02*
X234981D01*
X223929Y331500D02*
Y334071D01*
X223000Y335000D02*
X223929Y334071D01*
X219970Y324870D02*
Y331399D01*
X235029Y290126D02*
X241874D01*
X176500Y331500D02*
X180500D01*
X173000Y327071D02*
Y330500D01*
X184537Y324870D02*
Y331322D01*
X180516Y325581D02*
X180599Y325497D01*
X158142Y299500D02*
X162642D01*
X173415Y298000D02*
X180000D01*
X192411Y268039D02*
X193000Y268629D01*
X157500Y22000D02*
X162476Y26976D01*
X149000Y22000D02*
X157500D01*
X189000Y246016D02*
X189593Y246609D01*
Y248326D02*
X192185Y250918D01*
X189593Y246609D02*
Y248326D01*
X200676Y252447D02*
X200954Y252168D01*
Y252855D02*
Y254546D01*
X200676Y252577D02*
X200954Y252855D01*
X196347Y259153D02*
X200954Y254546D01*
X200676Y252447D02*
Y252577D01*
X191212Y257712D02*
X192000Y258500D01*
X194379Y257879D02*
Y263256D01*
X192046Y255546D02*
X194379Y257879D01*
X192046Y255392D02*
Y255546D01*
X191981Y255327D02*
X192046Y255392D01*
X189641Y257712D02*
X191212D01*
X192046Y253836D02*
Y254517D01*
X191981Y254581D02*
Y255327D01*
Y254581D02*
X192046Y254517D01*
X303500Y63500D02*
Y101500D01*
X300500Y104500D02*
X303500Y101500D01*
X261500Y104500D02*
X300500D01*
X192411Y263256D02*
Y268039D01*
X181500Y256500D02*
X184571D01*
X185071Y257000D01*
X190000Y259974D02*
X190442Y260416D01*
X190000Y258057D02*
Y259974D01*
X194378Y235500D02*
X195780D01*
X196500Y236220D01*
X197000Y238791D02*
Y239000D01*
X196500Y236220D02*
Y238291D01*
X197000Y238791D01*
X196778Y245722D02*
X200000Y242500D01*
X205008Y242000D02*
X209000D01*
X196082Y252460D02*
Y253425D01*
X196714Y248744D02*
X196778Y248679D01*
X196714Y248744D02*
Y251829D01*
X189500Y241500D02*
X192500D01*
X213000Y242071D02*
Y246000D01*
X216622Y235500D02*
Y241693D01*
X200925Y250082D02*
X205000Y246008D01*
X196347Y259153D02*
Y263256D01*
X191508Y208500D02*
X192000D01*
X189787Y206779D02*
X191508Y208500D01*
X189925Y205457D02*
X193038D01*
X189787Y205595D02*
X189925Y205457D01*
X181650Y206221D02*
X184850D01*
X177992Y176350D02*
X178000Y176358D01*
X177992Y175366D02*
X178000Y175358D01*
X177992Y175350D02*
Y175366D01*
Y171457D02*
Y175350D01*
X178000Y176358D02*
Y180000D01*
X158466Y239034D02*
X163000Y234500D01*
X158466Y239034D02*
Y255088D01*
X163000Y174500D02*
Y234500D01*
Y174500D02*
X166500Y171000D01*
X170871Y178000D02*
X172871Y176000D01*
X202008Y171457D02*
Y173907D01*
X201000Y174915D02*
X202008Y173907D01*
X213416Y149916D02*
X214492Y150992D01*
Y153543D01*
X230000Y148500D02*
X234000D01*
X237858D02*
Y152910D01*
X212125Y139875D02*
X212500Y139500D01*
X108000Y138000D02*
X112000Y134000D01*
X104000Y134500D02*
Y147500D01*
X118500Y40000D02*
Y128414D01*
X104000Y147500D02*
X110000Y153500D01*
X117914Y129000D02*
X118500Y128414D01*
X112000Y134000D02*
X118000D01*
X108000Y138000D02*
Y146000D01*
X104000Y134500D02*
X109500Y129000D01*
X117914D01*
X118000Y134000D02*
X124000Y128000D01*
X251966Y56966D02*
Y71088D01*
X171500Y44500D02*
X239500D01*
X251966Y56966D01*
X168382Y31051D02*
Y38882D01*
X170500Y41000D02*
X267500D01*
X168382Y38882D02*
X170500Y41000D01*
X170350Y37414D02*
X170936Y38000D01*
X170350Y31051D02*
Y37414D01*
X170936Y38000D02*
X251500D01*
X166413Y31051D02*
Y39413D01*
X171500Y44500D01*
X251500Y38000D02*
X256000Y33500D01*
X267500Y41000D02*
X271000Y37500D01*
X212598Y133031D02*
Y139402D01*
X239315Y108185D02*
X243000Y104500D01*
X240008Y119500D02*
X243500D01*
X324500Y37500D02*
X328600Y41600D01*
X271000Y37500D02*
X324500D01*
X256000Y33500D02*
X326000D01*
X332000Y39500D01*
X297000Y51000D02*
X303000Y45000D01*
X171323Y125748D02*
X176969D01*
X140500Y18000D02*
X145000D01*
X149000Y22000D01*
X141500D02*
X146000D01*
X149500Y25500D02*
X156500D01*
X146000Y22000D02*
X149500Y25500D01*
X124000Y39500D02*
Y128000D01*
Y39500D02*
X141500Y22000D01*
X255825Y27500D02*
X324500D01*
X248325Y35000D02*
X255825Y27500D01*
X172995Y35000D02*
X248325D01*
X172409Y31142D02*
Y34414D01*
X172995Y35000D01*
X227370Y100551D02*
X229921Y98000D01*
X223031Y100551D02*
X227370D01*
X217900Y103600D02*
X222931D01*
X234722Y104324D02*
X238176D01*
X239500Y103000D01*
Y100008D02*
Y103000D01*
X232042Y104000D02*
X232088Y104046D01*
X230919Y103981D02*
X230938Y104000D01*
X226840Y106522D02*
X229362Y104000D01*
X232088Y104046D02*
X234443D01*
X230154Y104000D02*
X230173Y103981D01*
X230919D01*
X230938Y104000D02*
X232042D01*
X229362D02*
X230154D01*
X223360Y106522D02*
X226840D01*
X237912Y112954D02*
X238170Y113212D01*
X238482D01*
X239083Y113813D01*
Y114575D01*
X230176Y112676D02*
X235278D01*
X227500Y110000D02*
X230176Y112676D01*
X223031Y110000D02*
X227500D01*
X118500Y40000D02*
X140500Y18000D01*
X110500Y193000D02*
X115000D01*
X118500Y196500D02*
Y227053D01*
X115000Y193000D02*
X118500Y196500D01*
X107500Y190000D02*
X110500Y193000D01*
X107500Y184500D02*
X111000Y181000D01*
X107500Y184500D02*
Y190000D01*
X115500Y181000D02*
X120000Y176500D01*
X111000Y181000D02*
X115500D01*
X120000Y156500D02*
Y176500D01*
X124400Y151400D02*
Y180100D01*
X112966Y187710D02*
X116790D01*
X124400Y180100D01*
X110000Y153500D02*
X117000D01*
X120000Y156500D01*
X110000Y148000D02*
X121000D01*
X108000Y146000D02*
X110000Y148000D01*
X153000Y62020D02*
Y147505D01*
Y62020D02*
X161500Y53520D01*
X153000Y147505D02*
X162500Y157005D01*
X166500Y153000D02*
Y171000D01*
X162000Y121150D02*
Y148500D01*
X166500Y153000D01*
X161500Y42000D02*
Y53520D01*
X160508Y41008D02*
X161500Y42000D01*
X160508Y31051D02*
Y41008D01*
X164445Y31051D02*
X164500Y31106D01*
Y55089D01*
X162000Y121150D02*
X162130Y121020D01*
X324500Y27500D02*
X335000Y38000D01*
X321500Y54000D02*
X333500D01*
X315500Y51500D02*
X330000D01*
X303500Y63500D02*
X315500Y51500D01*
X292000Y86000D02*
X298000Y92000D01*
X292000Y63500D02*
Y86000D01*
X295988Y59512D02*
X300000D01*
X292000Y63500D02*
X295988Y59512D01*
X300000D02*
X310237Y49275D01*
X328600Y41600D02*
Y48689D01*
X332000Y39500D02*
Y49500D01*
X335000Y38000D02*
Y52500D01*
X330000Y51500D02*
X332000Y49500D01*
X333500Y54000D02*
X335000Y52500D01*
X298966Y134088D02*
Y134088D01*
X310237Y49275D02*
X328014D01*
X328600Y48689D01*
X172319Y31051D02*
X172409Y31142D01*
X253000Y113000D02*
X261500Y104500D01*
X187402Y80902D02*
Y86968D01*
X200000Y80500D02*
Y86968D01*
X112466Y233088D02*
X118500Y227053D01*
X156500Y25500D02*
X158463Y27463D01*
Y30975D01*
X158539Y31051D01*
X162476Y26976D02*
Y31051D01*
X162500Y157005D02*
Y168520D01*
X160600Y170420D02*
X162500Y168520D01*
X160580Y170420D02*
X160600D01*
X153000Y178000D02*
X160580Y170420D01*
X153000Y178000D02*
Y192000D01*
X158966Y197966D02*
Y210210D01*
X153000Y192000D02*
X158966Y197966D01*
X121000Y148000D02*
X124400Y151400D01*
D22*
X103043Y26000D02*
D03*
X99500D02*
D03*
X187782Y382000D02*
D03*
X184238D02*
D03*
X228282Y381500D02*
D03*
X224738D02*
D03*
X123718Y26000D02*
D03*
X127262D02*
D03*
X143782Y382000D02*
D03*
X140238D02*
D03*
X99957Y9000D02*
D03*
X103500D02*
D03*
X123500Y8500D02*
D03*
X127043D02*
D03*
D33*
X317000Y195043D02*
D03*
Y191500D02*
D03*
Y130543D02*
D03*
Y127000D02*
D03*
X316500Y67790D02*
D03*
Y64247D02*
D03*
X95000Y186282D02*
D03*
Y182738D02*
D03*
X94466Y116869D02*
D03*
Y113326D02*
D03*
X49466Y281588D02*
D03*
Y278044D02*
D03*
X317000Y216920D02*
D03*
Y213377D02*
D03*
X49500Y317543D02*
D03*
Y314000D02*
D03*
X316500Y89043D02*
D03*
Y85500D02*
D03*
X95500Y205282D02*
D03*
Y201738D02*
D03*
X94466Y140631D02*
D03*
Y137088D02*
D03*
X93966Y47369D02*
D03*
Y43826D02*
D03*
X317000Y239000D02*
D03*
Y235457D02*
D03*
Y152543D02*
D03*
Y149000D02*
D03*
X316500Y109782D02*
D03*
Y106238D02*
D03*
X95000Y230931D02*
D03*
Y227387D02*
D03*
X94000Y162782D02*
D03*
Y159238D02*
D03*
X93966Y70869D02*
D03*
Y67326D02*
D03*
X317000Y173043D02*
D03*
Y169500D02*
D03*
X95000Y252282D02*
D03*
Y248738D02*
D03*
X93966Y93369D02*
D03*
Y89826D02*
D03*
D38*
X231245Y108205D02*
D03*
X235977Y112937D02*
D03*
X235142Y104307D02*
D03*
X239875Y109040D02*
D03*
D46*
X196082Y254815D02*
D03*
X200815Y250082D02*
D03*
X192185Y250918D02*
D03*
X196918Y246185D02*
D03*
D69*
X240500Y100008D02*
D03*
Y95992D02*
D03*
Y119508D02*
D03*
Y115492D02*
D03*
X205000Y241992D02*
D03*
Y246008D02*
D03*
X188500Y240992D02*
D03*
Y245008D02*
D03*
D70*
X68252Y222000D02*
D03*
D71*
X80260Y210484D02*
D03*
Y213043D02*
D03*
Y215602D02*
D03*
Y218161D02*
D03*
Y220721D02*
D03*
Y223280D02*
D03*
Y225839D02*
D03*
Y228398D02*
D03*
Y230957D02*
D03*
Y233516D02*
D03*
X56244Y210484D02*
D03*
Y213043D02*
D03*
Y215602D02*
D03*
Y218161D02*
D03*
Y220721D02*
D03*
Y223280D02*
D03*
Y225839D02*
D03*
Y228398D02*
D03*
Y230957D02*
D03*
Y233516D02*
D03*
X202008Y153543D02*
D03*
Y156102D02*
D03*
Y158661D02*
D03*
Y161221D02*
D03*
Y163779D02*
D03*
Y166339D02*
D03*
Y168898D02*
D03*
Y171457D02*
D03*
X177992Y153543D02*
D03*
Y156102D02*
D03*
Y158661D02*
D03*
Y161221D02*
D03*
Y163779D02*
D03*
Y166339D02*
D03*
Y168898D02*
D03*
Y171457D02*
D03*
X214492Y171457D02*
D03*
Y168898D02*
D03*
Y166339D02*
D03*
Y163779D02*
D03*
Y161221D02*
D03*
Y158661D02*
D03*
Y156102D02*
D03*
Y153543D02*
D03*
X238508Y171457D02*
D03*
Y168898D02*
D03*
Y166339D02*
D03*
Y163779D02*
D03*
Y161221D02*
D03*
Y158661D02*
D03*
Y156102D02*
D03*
Y153543D02*
D03*
X219508Y187543D02*
D03*
Y190102D02*
D03*
Y192661D02*
D03*
Y195220D02*
D03*
Y197780D02*
D03*
Y200339D02*
D03*
Y202898D02*
D03*
Y205457D02*
D03*
X195492Y187543D02*
D03*
Y190102D02*
D03*
Y192661D02*
D03*
Y195220D02*
D03*
Y197780D02*
D03*
Y200339D02*
D03*
Y202898D02*
D03*
Y205457D02*
D03*
D72*
X46591Y263555D02*
D03*
Y254500D02*
D03*
Y245445D02*
D03*
D73*
X70410Y254500D02*
D03*
D74*
X95000Y191121D02*
D03*
Y194861D02*
D03*
X317000Y203623D02*
D03*
Y199883D02*
D03*
Y139123D02*
D03*
Y135383D02*
D03*
X316500Y76370D02*
D03*
Y72630D02*
D03*
X94466Y125449D02*
D03*
Y121709D02*
D03*
X49500Y290370D02*
D03*
Y286630D02*
D03*
X317000Y225500D02*
D03*
Y221760D02*
D03*
X49500Y326370D02*
D03*
Y322630D02*
D03*
X316500Y97740D02*
D03*
Y94000D02*
D03*
X95500Y213861D02*
D03*
Y210121D02*
D03*
X94466Y149211D02*
D03*
Y145471D02*
D03*
X93966Y55949D02*
D03*
Y52209D02*
D03*
X317000Y247580D02*
D03*
Y243840D02*
D03*
Y161123D02*
D03*
Y157383D02*
D03*
X316500Y118361D02*
D03*
Y114621D02*
D03*
X95000Y239510D02*
D03*
Y235770D02*
D03*
X94000Y171361D02*
D03*
Y167621D02*
D03*
X93966Y79458D02*
D03*
Y75718D02*
D03*
X317000Y181870D02*
D03*
Y178130D02*
D03*
X95000Y260861D02*
D03*
Y257121D02*
D03*
X93966Y101949D02*
D03*
Y98209D02*
D03*
X190500Y76130D02*
D03*
Y79870D02*
D03*
X194500Y76260D02*
D03*
Y80000D02*
D03*
X229500Y91610D02*
D03*
Y87870D02*
D03*
X82000Y245130D02*
D03*
Y248870D02*
D03*
X86500D02*
D03*
Y245130D02*
D03*
X89500Y225000D02*
D03*
Y228740D02*
D03*
Y205500D02*
D03*
Y201760D02*
D03*
X49500Y219500D02*
D03*
Y223240D02*
D03*
D75*
X173415Y317685D02*
D03*
Y315717D02*
D03*
Y313748D02*
D03*
Y311780D02*
D03*
Y309811D02*
D03*
Y307843D02*
D03*
Y305874D02*
D03*
Y303906D02*
D03*
Y301937D02*
D03*
Y299969D02*
D03*
Y298000D02*
D03*
Y296032D02*
D03*
Y294063D02*
D03*
Y292095D02*
D03*
Y290126D02*
D03*
Y288158D02*
D03*
Y286189D02*
D03*
Y284221D02*
D03*
Y282252D02*
D03*
Y280284D02*
D03*
Y278315D02*
D03*
Y276347D02*
D03*
Y274378D02*
D03*
Y272410D02*
D03*
Y270441D02*
D03*
X235029D02*
D03*
Y272410D02*
D03*
Y274378D02*
D03*
Y276347D02*
D03*
Y278315D02*
D03*
Y280284D02*
D03*
Y282252D02*
D03*
Y284221D02*
D03*
Y286189D02*
D03*
Y288158D02*
D03*
Y290126D02*
D03*
Y292095D02*
D03*
Y294063D02*
D03*
Y296032D02*
D03*
Y298000D02*
D03*
Y299969D02*
D03*
Y301937D02*
D03*
Y303906D02*
D03*
Y305874D02*
D03*
Y307843D02*
D03*
Y309811D02*
D03*
Y311780D02*
D03*
Y313748D02*
D03*
Y315717D02*
D03*
Y317685D02*
D03*
D76*
X180599Y263256D02*
D03*
X182568D02*
D03*
X184537D02*
D03*
X186505D02*
D03*
X188473D02*
D03*
X190442D02*
D03*
X192411D02*
D03*
X194379D02*
D03*
X196347D02*
D03*
X198316D02*
D03*
X200285D02*
D03*
X202253D02*
D03*
X204222D02*
D03*
X206190D02*
D03*
X208159D02*
D03*
X210127D02*
D03*
X212096D02*
D03*
X214064D02*
D03*
X216033D02*
D03*
X218001D02*
D03*
X219970D02*
D03*
X221938D02*
D03*
X223907D02*
D03*
X225875D02*
D03*
X227844D02*
D03*
Y324870D02*
D03*
X225875D02*
D03*
X223907D02*
D03*
X221938D02*
D03*
X219970D02*
D03*
X218001D02*
D03*
X216033D02*
D03*
X214064D02*
D03*
X212096D02*
D03*
X210127D02*
D03*
X208159D02*
D03*
X206190D02*
D03*
X204222D02*
D03*
X202253D02*
D03*
X200285D02*
D03*
X198316D02*
D03*
X196347D02*
D03*
X194379D02*
D03*
X192411D02*
D03*
X190442D02*
D03*
X188473D02*
D03*
X186505D02*
D03*
X184537D02*
D03*
X182568D02*
D03*
X180599D02*
D03*
D77*
X91260Y9000D02*
D03*
X95000D02*
D03*
X114760Y8500D02*
D03*
X118500D02*
D03*
X186000Y252500D02*
D03*
X182260D02*
D03*
X201000Y140000D02*
D03*
X204740D02*
D03*
X230630Y119500D02*
D03*
X234370D02*
D03*
X230630Y124000D02*
D03*
X234370D02*
D03*
X80752Y255000D02*
D03*
X84492D02*
D03*
X115139Y26000D02*
D03*
X118879D02*
D03*
X152370Y382000D02*
D03*
X148630D02*
D03*
X196740D02*
D03*
X193000D02*
D03*
X49500Y215500D02*
D03*
X45760D02*
D03*
X237000Y381500D02*
D03*
X233260D02*
D03*
X91630Y26000D02*
D03*
X95370D02*
D03*
X45760Y211500D02*
D03*
X49500D02*
D03*
D78*
X176969Y94252D02*
D03*
Y97402D02*
D03*
Y100551D02*
D03*
Y103701D02*
D03*
Y106850D02*
D03*
Y110000D02*
D03*
Y113150D02*
D03*
Y116299D02*
D03*
Y119449D02*
D03*
Y122598D02*
D03*
Y125748D02*
D03*
X223031D02*
D03*
Y122598D02*
D03*
Y119449D02*
D03*
Y116299D02*
D03*
Y113150D02*
D03*
Y110000D02*
D03*
Y106850D02*
D03*
Y103701D02*
D03*
Y100551D02*
D03*
Y97402D02*
D03*
Y94252D02*
D03*
D79*
X184252Y133031D02*
D03*
X187402D02*
D03*
X190551D02*
D03*
X193701D02*
D03*
X196850D02*
D03*
X200000D02*
D03*
X203150D02*
D03*
X206299D02*
D03*
X209449D02*
D03*
X212598D02*
D03*
X215748D02*
D03*
Y86968D02*
D03*
X212598D02*
D03*
X209449D02*
D03*
X206299D02*
D03*
X203150D02*
D03*
X200000D02*
D03*
X196850D02*
D03*
X193701D02*
D03*
X190551D02*
D03*
X187402D02*
D03*
X184252D02*
D03*
D80*
X148697Y356642D02*
D03*
Y342075D02*
D03*
X150665Y356642D02*
D03*
Y342075D02*
D03*
X152634Y356642D02*
D03*
Y342075D02*
D03*
X154602Y356642D02*
D03*
Y342075D02*
D03*
X156571Y356642D02*
D03*
Y342075D02*
D03*
X158539Y356642D02*
D03*
Y342075D02*
D03*
X160508Y356642D02*
D03*
Y342075D02*
D03*
X162476Y356642D02*
D03*
Y342075D02*
D03*
X164445Y356642D02*
D03*
Y342075D02*
D03*
X166413Y356642D02*
D03*
Y342075D02*
D03*
X168382Y356642D02*
D03*
Y342075D02*
D03*
X170350Y356642D02*
D03*
Y342075D02*
D03*
X172319Y356642D02*
D03*
Y342075D02*
D03*
X174287Y356642D02*
D03*
Y342075D02*
D03*
X176256Y356642D02*
D03*
Y342075D02*
D03*
X178224Y356642D02*
D03*
Y342075D02*
D03*
X180193Y356642D02*
D03*
Y342075D02*
D03*
X182161Y356642D02*
D03*
Y342075D02*
D03*
X184130Y356642D02*
D03*
Y342075D02*
D03*
X186098Y356642D02*
D03*
Y342075D02*
D03*
X188067Y356642D02*
D03*
Y342075D02*
D03*
X190035Y356642D02*
D03*
Y342075D02*
D03*
X192004Y356642D02*
D03*
Y342075D02*
D03*
X193972Y356642D02*
D03*
Y342075D02*
D03*
X195941Y356642D02*
D03*
Y342075D02*
D03*
X197909Y356642D02*
D03*
Y342075D02*
D03*
X199878Y356642D02*
D03*
Y342075D02*
D03*
X201847Y356642D02*
D03*
Y342075D02*
D03*
X203815Y356642D02*
D03*
Y342075D02*
D03*
X205784Y356642D02*
D03*
Y342075D02*
D03*
X207752Y356642D02*
D03*
Y342075D02*
D03*
X209720Y356642D02*
D03*
Y342075D02*
D03*
X211689Y356642D02*
D03*
Y342075D02*
D03*
X213657Y356642D02*
D03*
Y342075D02*
D03*
X215626Y356642D02*
D03*
Y342075D02*
D03*
X217595Y356642D02*
D03*
Y342075D02*
D03*
X219563Y356642D02*
D03*
Y342075D02*
D03*
X221532Y356642D02*
D03*
Y342075D02*
D03*
X223500Y356642D02*
D03*
Y342075D02*
D03*
X225468Y356642D02*
D03*
Y342075D02*
D03*
X227437Y356642D02*
D03*
Y342075D02*
D03*
X229405Y356642D02*
D03*
Y342075D02*
D03*
X231374Y356642D02*
D03*
Y342075D02*
D03*
X233343Y356642D02*
D03*
Y342075D02*
D03*
X235311Y356642D02*
D03*
Y342075D02*
D03*
X237280Y356642D02*
D03*
Y342075D02*
D03*
X239248Y356642D02*
D03*
Y342075D02*
D03*
X241216Y356642D02*
D03*
Y342075D02*
D03*
X243185Y356642D02*
D03*
Y342075D02*
D03*
X245153Y356642D02*
D03*
Y342075D02*
D03*
X148697Y31051D02*
D03*
Y16484D02*
D03*
X150665Y31051D02*
D03*
Y16484D02*
D03*
X152634Y31051D02*
D03*
Y16484D02*
D03*
X154602Y31051D02*
D03*
Y16484D02*
D03*
X156571Y31051D02*
D03*
Y16484D02*
D03*
X158539Y31051D02*
D03*
Y16484D02*
D03*
X160508Y31051D02*
D03*
Y16484D02*
D03*
X162476Y31051D02*
D03*
Y16484D02*
D03*
X164445Y31051D02*
D03*
Y16484D02*
D03*
X166413Y31051D02*
D03*
Y16484D02*
D03*
X168382Y31051D02*
D03*
Y16484D02*
D03*
X170350Y31051D02*
D03*
Y16484D02*
D03*
X172319Y31051D02*
D03*
Y16484D02*
D03*
X174287Y31051D02*
D03*
Y16484D02*
D03*
X176256Y31051D02*
D03*
Y16484D02*
D03*
X178224Y31051D02*
D03*
Y16484D02*
D03*
X180193Y31051D02*
D03*
Y16484D02*
D03*
X182161Y31051D02*
D03*
Y16484D02*
D03*
X184130Y31051D02*
D03*
Y16484D02*
D03*
X186098Y31051D02*
D03*
Y16484D02*
D03*
X188067Y31051D02*
D03*
Y16484D02*
D03*
X190035Y31051D02*
D03*
Y16484D02*
D03*
X192004Y31051D02*
D03*
Y16484D02*
D03*
X193972Y31051D02*
D03*
Y16484D02*
D03*
X195941Y31051D02*
D03*
Y16484D02*
D03*
X197909Y31051D02*
D03*
Y16484D02*
D03*
X199878Y31051D02*
D03*
Y16484D02*
D03*
X201847Y31051D02*
D03*
Y16484D02*
D03*
X203815Y31051D02*
D03*
Y16484D02*
D03*
X205784Y31051D02*
D03*
Y16484D02*
D03*
X207752Y31051D02*
D03*
Y16484D02*
D03*
X209720Y31051D02*
D03*
Y16484D02*
D03*
X211689Y31051D02*
D03*
Y16484D02*
D03*
X213657Y31051D02*
D03*
Y16484D02*
D03*
X215626Y31051D02*
D03*
Y16484D02*
D03*
X217595Y31051D02*
D03*
Y16484D02*
D03*
X219563Y31051D02*
D03*
Y16484D02*
D03*
X221532Y31051D02*
D03*
Y16484D02*
D03*
X223500Y31051D02*
D03*
Y16484D02*
D03*
X225468Y31051D02*
D03*
Y16484D02*
D03*
X227437Y31051D02*
D03*
Y16484D02*
D03*
X229405Y31051D02*
D03*
Y16484D02*
D03*
X231374Y31051D02*
D03*
Y16484D02*
D03*
X233343Y31051D02*
D03*
Y16484D02*
D03*
X235311Y31051D02*
D03*
Y16484D02*
D03*
X237280Y31051D02*
D03*
Y16484D02*
D03*
X239248Y31051D02*
D03*
Y16484D02*
D03*
X241216Y31051D02*
D03*
Y16484D02*
D03*
X243185Y31051D02*
D03*
Y16484D02*
D03*
X245153Y31051D02*
D03*
Y16484D02*
D03*
D81*
X194378Y235500D02*
D03*
Y230500D02*
D03*
Y225500D02*
D03*
Y220500D02*
D03*
X216622Y235500D02*
D03*
Y230500D02*
D03*
Y225500D02*
D03*
Y220500D02*
D03*
D82*
X72382Y177240D02*
D03*
Y169760D02*
D03*
X82618Y173500D02*
D03*
D83*
X379000Y35500D02*
D03*
X15000Y33500D02*
D03*
X15500Y360500D02*
D03*
D84*
X170000Y104858D02*
D03*
Y101000D02*
D03*
X212500Y143358D02*
D03*
Y139500D02*
D03*
X170500Y130429D02*
D03*
Y126571D02*
D03*
X170000Y90142D02*
D03*
Y94000D02*
D03*
X186500Y76142D02*
D03*
Y80000D02*
D03*
X242000Y286142D02*
D03*
Y290000D02*
D03*
D85*
X233858Y98000D02*
D03*
X230000D02*
D03*
X234000Y148500D02*
D03*
X237858D02*
D03*
X223929Y331500D02*
D03*
X220071D02*
D03*
X180500D02*
D03*
X184358D02*
D03*
X173071Y327000D02*
D03*
X176929D02*
D03*
X162642Y299500D02*
D03*
X166500D02*
D03*
X185071Y257000D02*
D03*
X188929D02*
D03*
X185071Y206000D02*
D03*
X188929D02*
D03*
X174071Y176000D02*
D03*
X177929D02*
D03*
X73642Y80500D02*
D03*
X77500D02*
D03*
X213071Y242000D02*
D03*
X216929D02*
D03*
D86*
X201500Y79000D02*
D03*
X207799D02*
D03*
D87*
X57000Y81000D02*
D03*
X63496D02*
D03*
X57004Y89500D02*
D03*
X63500D02*
D03*
D88*
X61000Y68500D02*
D03*
X77535D02*
D03*
D89*
X32379Y40066D02*
D03*
X24623D02*
D03*
X24744Y51500D02*
D03*
X32500D02*
D03*
D90*
X336500Y258000D02*
D03*
Y284378D02*
D03*
X337000Y297811D02*
D03*
Y324189D02*
D03*
D91*
X228000Y209921D02*
D03*
Y225079D02*
D03*
D92*
X253665Y288016D02*
D03*
Y269984D02*
D03*
Y319016D02*
D03*
Y300984D02*
D03*
D93*
X276500Y279000D02*
D03*
Y310000D02*
D03*
D94*
X307940Y260802D02*
D03*
Y284031D02*
D03*
X307029Y300386D02*
D03*
Y323614D02*
D03*
X336500Y148614D02*
D03*
Y125386D02*
D03*
D95*
X238000Y235000D02*
D03*
X226780D02*
D03*
D96*
X80000Y157158D02*
D03*
X60000D02*
D03*
D97*
X70000Y117000D02*
D03*
D98*
X342024Y108500D02*
D03*
X331000D02*
D03*
D99*
X327507Y61330D02*
D03*
X345538D02*
D03*
D100*
X336523Y84164D02*
D03*
D101*
X56138Y195500D02*
D03*
X79366D02*
D03*
D102*
X61158Y173500D02*
D03*
X49347D02*
D03*
D103*
X46500Y198716D02*
D03*
Y206000D02*
D03*
D104*
X89500Y212500D02*
D03*
Y219587D02*
D03*
D105*
X189000Y242000D02*
X189500Y241500D01*
X215626Y31051D02*
X215756Y30921D01*
X60483Y226500D02*
X60689D01*
X59821Y225839D02*
X60483Y226500D01*
X49483Y149484D02*
X57247D01*
X45000Y145000D02*
X49483Y149484D01*
X45000Y100000D02*
Y145000D01*
X57247Y149484D02*
X60000Y152236D01*
X94466Y140631D02*
Y145471D01*
X184358Y331500D02*
Y334088D01*
X183500Y334947D02*
Y335000D01*
X186000Y334500D02*
Y341976D01*
Y334500D02*
X187000Y333500D01*
Y329500D02*
Y333500D01*
X186505Y329005D02*
X187000Y329500D01*
X186505Y324870D02*
Y329005D01*
X219285Y332285D02*
X220071Y331500D01*
X180440Y325581D02*
X180599Y325422D01*
X180239Y325783D02*
X180440Y325581D01*
X229500Y89130D02*
X230130Y88500D01*
X177000Y326929D02*
X178147Y325783D01*
X176929Y327000D02*
X177000Y326929D01*
X93361Y217000D02*
X96000Y214361D01*
X226500Y60000D02*
Y90500D01*
X227654Y91654D02*
X229456D01*
X226500Y90500D02*
X227654Y91654D01*
X226500Y60000D02*
X233500Y53000D01*
X229456Y91654D02*
X229500Y91610D01*
X230060Y95560D02*
Y97940D01*
X229500Y95000D02*
X230060Y95560D01*
X230000Y98000D02*
X230060Y97940D01*
X227355Y94403D02*
X228843Y92914D01*
X227355Y94403D02*
Y95645D01*
X225598Y97402D02*
X227355Y95645D01*
X223031Y97402D02*
X225598D01*
X232870Y84500D02*
X240000D01*
X229500Y87870D02*
X232870Y84500D01*
X229500Y87870D02*
X230130Y88500D01*
X174748Y94252D02*
X176969D01*
X170000Y101000D02*
X171000Y102000D01*
X170000Y101000D02*
X170449Y100551D01*
X172000D01*
X244383Y295117D02*
X245500Y294000D01*
X240669Y295117D02*
X244383D01*
X239583Y294032D02*
X240669Y295117D01*
X242016Y296016D02*
X243000Y297000D01*
X235045Y296016D02*
X242016D01*
X242484Y299984D02*
X243000Y300500D01*
X235044Y299984D02*
X242484D01*
X245086Y302086D02*
X245500Y302500D01*
X235177Y302086D02*
X245086D01*
X235029Y301937D02*
X235177Y302086D01*
X245086Y298586D02*
X245500Y299000D01*
X242343Y298586D02*
X245086D01*
X241757Y298000D02*
X242343Y298586D01*
X235029Y298000D02*
X241757D01*
X235060Y294032D02*
X239583D01*
X217204Y31051D02*
X217394Y30861D01*
Y30851D02*
Y30861D01*
Y30851D02*
X217595Y31051D01*
X194378Y220500D02*
X200000D01*
X317000Y139123D02*
Y142500D01*
X316500Y79500D02*
X317500Y80500D01*
X316500Y76370D02*
Y79500D01*
Y84000D02*
Y85500D01*
X314500Y82000D02*
X316500Y84000D01*
Y100000D02*
X318000Y101500D01*
X316500Y97740D02*
Y100000D01*
Y104500D02*
Y106238D01*
X315000Y103000D02*
X316500Y104500D01*
Y89043D02*
Y94000D01*
Y118361D02*
Y122500D01*
Y109782D02*
Y114621D01*
X317000Y152543D02*
Y157383D01*
Y130543D02*
Y135383D01*
X307000Y103000D02*
X308000D01*
X302000Y108000D02*
X307000Y103000D01*
X268500Y112500D02*
Y113000D01*
X273000Y108000D02*
X302000D01*
X268500Y112500D02*
X273000Y108000D01*
X268000Y113000D02*
X268500D01*
X316803Y127000D02*
X317000D01*
X314000Y124197D02*
X316803Y127000D01*
X314000Y124000D02*
Y124197D01*
X295000Y118500D02*
X300500Y124000D01*
X287000Y118500D02*
X295000D01*
X283966Y121534D02*
X287000Y118500D01*
X283966Y121534D02*
Y134088D01*
X261976Y21476D02*
X264500Y24000D01*
X246762Y21476D02*
X261976D01*
X241216Y27021D02*
X246762Y21476D01*
X259276Y22276D02*
X261000Y24000D01*
X247093Y22276D02*
X259276D01*
X256576Y23076D02*
X257500Y24000D01*
X247424Y23076D02*
X256576D01*
X243185Y26184D02*
X247093Y22276D01*
X241216Y27021D02*
Y31051D01*
X243185Y26184D02*
Y31051D01*
X224672Y283500D02*
X225920Y282252D01*
X224500Y283500D02*
X224672D01*
X227279Y284221D02*
X235029D01*
X225500Y286000D02*
X227279Y284221D01*
X225920Y282252D02*
X235029D01*
X223500Y280500D02*
X234812D01*
X224978Y205478D02*
X225000Y205500D01*
X317000Y195043D02*
Y199883D01*
X297500Y225500D02*
Y231000D01*
X292000Y224899D02*
Y231000D01*
X291000Y223899D02*
X292000Y224899D01*
X295000Y223000D02*
X297500Y225500D01*
X315736Y212193D02*
X317000D01*
X305000Y222929D02*
X315736Y212193D01*
X305000Y222929D02*
Y230500D01*
X317000Y212193D02*
Y213377D01*
X167000Y107500D02*
Y147500D01*
X125100Y128100D02*
X127500Y130500D01*
X276000Y216000D02*
X278000Y218000D01*
X257500Y206500D02*
X267000Y216000D01*
X276000D01*
X262000Y206500D02*
X269500Y214000D01*
X278378D02*
X284466Y220088D01*
X269500Y214000D02*
X278378D01*
X284466Y220088D02*
Y220088D01*
X235029Y296032D02*
X235045Y296016D01*
X182451Y122549D02*
X182500Y122500D01*
X114661Y8000D02*
X114760D01*
X110500Y12161D02*
X114661Y8000D01*
X219500Y64757D02*
X235257Y49000D01*
X236000D01*
X228757Y50500D02*
X229500D01*
X216500Y62757D02*
X228757Y50500D01*
X298500Y165500D02*
Y167500D01*
X268131Y160000D02*
X281000D01*
X284334Y163334D02*
Y175719D01*
X281000Y160000D02*
X284334Y163334D01*
X240401Y163779D02*
X241193Y162987D01*
Y162900D02*
Y162987D01*
X242293Y161800D02*
X246169D01*
X238508Y163779D02*
X240401D01*
X247169Y162800D02*
X265331D01*
X241193Y162900D02*
X242293Y161800D01*
X246169D02*
X247169Y162800D01*
X265331D02*
X268131Y160000D01*
X246500Y161000D02*
X247500Y162000D01*
X265000D01*
X267966Y159034D01*
X238728Y161000D02*
X246500D01*
X304000Y149500D02*
X316500D01*
X317000Y149000D01*
X108500Y32500D02*
Y51500D01*
X115500Y58500D02*
Y63500D01*
X108500Y51500D02*
X115500Y58500D01*
X104500Y64000D02*
X111500D01*
X113500Y58500D02*
Y62000D01*
X111500Y64000D02*
X113500Y62000D01*
X106000Y51000D02*
X113500Y58500D01*
X106000Y34500D02*
Y51000D01*
X98000Y242511D02*
Y245500D01*
X95000Y239510D02*
X98000Y242511D01*
X260000Y219000D02*
Y231503D01*
X243000Y207500D02*
X249802Y214302D01*
X250602Y240901D02*
X260000Y231503D01*
X228000Y253500D02*
X244897D01*
X245766Y251500D02*
X249802Y247464D01*
Y214302D02*
Y247464D01*
X250602Y240901D02*
Y247795D01*
X244897Y253500D02*
X250602Y247795D01*
X238000Y258500D02*
X252500D01*
X265500Y218000D02*
Y245500D01*
X235029Y261471D02*
Y270441D01*
X252500Y258500D02*
X265500Y245500D01*
X251500Y256000D02*
X263000Y244500D01*
X235029Y261471D02*
X238000Y258500D01*
X263000Y219000D02*
Y244500D01*
X317000Y247580D02*
X317080Y247500D01*
X321000D01*
X317000Y239000D02*
Y243840D01*
X314957Y235457D02*
X317000D01*
X312500Y233000D02*
X314957Y235457D01*
X317000Y225500D02*
Y230000D01*
Y216920D02*
Y221760D01*
Y181870D02*
Y185000D01*
Y203623D02*
Y207000D01*
Y161123D02*
Y164000D01*
Y173043D02*
Y178130D01*
X316216Y190716D02*
X317000Y191500D01*
X311716Y190716D02*
X316216D01*
X311500Y190500D02*
X311716Y190716D01*
X300500Y169500D02*
X317000D01*
X298500Y167500D02*
X300500Y169500D01*
X295000Y141000D02*
Y223000D01*
X165414Y90966D02*
Y148414D01*
X169000Y152000D01*
X165414Y90966D02*
X166500Y89880D01*
Y88000D02*
Y89880D01*
X196082Y253425D02*
X196082Y252460D01*
Y252036D02*
Y252460D01*
X167000Y147500D02*
X170500Y151000D01*
X104000Y75000D02*
X115500Y63500D01*
X87470Y256000D02*
X87500D01*
X34500Y237500D02*
Y255000D01*
X20000Y223000D02*
X34500Y237500D01*
X95500Y199000D02*
Y201738D01*
X95250Y198750D02*
X95500Y199000D01*
X94466Y125449D02*
Y128034D01*
X93000Y129500D02*
X94466Y128034D01*
X93000Y152167D02*
Y152500D01*
X94213Y149464D02*
Y150954D01*
Y149464D02*
X94466Y149211D01*
X93000Y152167D02*
X94213Y150954D01*
X93500Y179000D02*
Y181238D01*
X95000Y182738D01*
X93000Y217000D02*
X93361D01*
X95500Y213861D02*
X96000Y214361D01*
X92500Y197361D02*
X95000Y194861D01*
X94000Y171361D02*
X94086Y171447D01*
Y175000D01*
X46591Y263555D02*
X47000Y263965D01*
X176969Y103701D02*
X177069Y103600D01*
X104000Y75000D02*
Y130000D01*
X216500Y62757D02*
Y80000D01*
X212974Y83526D02*
X216500Y80000D01*
X81870Y249000D02*
X82000Y248870D01*
X80260Y230957D02*
Y233516D01*
Y228398D02*
Y230957D01*
X56244D02*
Y233516D01*
Y228398D02*
Y230957D01*
X118500Y8500D02*
X123500D01*
X55000Y132000D02*
X70000Y117000D01*
X45000Y100000D02*
X49000Y96000D01*
X61323D01*
X78500D02*
X87500Y87000D01*
X61323Y96000D02*
X61337Y96014D01*
X62749D01*
X62763Y96000D02*
X78500D01*
X62749Y96014D02*
X62763Y96000D01*
X60000Y152236D02*
Y157158D01*
X87500Y75500D02*
Y87000D01*
Y75500D02*
X89500Y73500D01*
X94500Y84000D02*
X97500D01*
X89500Y89000D02*
X94500Y84000D01*
X89500Y64500D02*
Y73500D01*
X61500Y58000D02*
Y59500D01*
Y58000D02*
X63500Y56000D01*
X81000D01*
X84000Y23500D02*
Y53000D01*
X81000Y56000D02*
X84000Y53000D01*
X86500Y21000D02*
X101500D01*
X84000Y23500D02*
X86500Y21000D01*
X103043Y22543D02*
Y26000D01*
X101500Y21000D02*
X103043Y22543D01*
X91630Y30130D02*
X93000Y31500D01*
X91630Y26000D02*
Y30130D01*
X93000Y31500D02*
X103000D01*
X89630Y10531D02*
Y16000D01*
X103000Y31500D02*
X106000Y34500D01*
X103000Y65500D02*
X104500Y64000D01*
X103000Y65500D02*
Y78500D01*
X97500Y84000D02*
X103000Y78500D01*
X94000Y63500D02*
Y67292D01*
X93966Y67326D02*
X94000Y67292D01*
X83833Y205500D02*
X84917Y204416D01*
X76500Y205500D02*
X83833D01*
X75000Y207000D02*
Y219500D01*
Y207000D02*
X76500Y205500D01*
X76221Y220721D02*
X80260D01*
X75000Y219500D02*
X76221Y220721D01*
X49500Y326370D02*
Y328500D01*
X51500Y330500D01*
X49500Y290370D02*
X49630Y290500D01*
X53500D01*
X95000Y252282D02*
Y257121D01*
Y260861D02*
Y266500D01*
X93966Y101949D02*
Y104966D01*
X95000Y106000D01*
X93923Y79500D02*
X93966Y79458D01*
X90500Y79500D02*
X93923D01*
X89500Y52500D02*
Y55000D01*
X90449Y55949D01*
X93966D01*
X89500Y219587D02*
X89913Y220000D01*
X88957Y213043D02*
X89500Y212500D01*
X66351Y181961D02*
Y181961D01*
X71299Y177240D02*
X72382D01*
X41500Y199000D02*
X41500Y199000D01*
X46216D02*
X46500Y198716D01*
X49355Y219355D02*
X49500Y219500D01*
X50000D01*
X50250Y219250D01*
X49500Y215500D02*
X49602Y215602D01*
X73642Y83358D02*
Y83582D01*
X72638Y84586D02*
X72916Y84308D01*
X63496Y81000D02*
X64496Y80000D01*
X60500Y69000D02*
X61000Y68500D01*
X24744Y51500D02*
X25465Y52220D01*
X24500Y39943D02*
X24623Y40066D01*
X32379Y51379D02*
X32500Y51500D01*
X245153Y356642D02*
Y363154D01*
X243185Y356642D02*
X243342Y356799D01*
Y366843D01*
X243500Y367000D01*
X241000Y365500D02*
Y369000D01*
X239124Y356766D02*
Y366876D01*
X239000Y367000D02*
X239124Y366876D01*
X241216Y356642D02*
Y365283D01*
X241000Y365500D02*
X241216Y365283D01*
X239124Y356766D02*
X239248Y356642D01*
X237000Y365000D02*
Y369000D01*
X237280Y356642D02*
Y364721D01*
X237000Y365000D02*
X237280Y364721D01*
X235156Y356797D02*
X235311Y356642D01*
X235156Y356797D02*
Y366845D01*
X235000Y367000D02*
X235156Y366845D01*
X237000Y381500D02*
X241500D01*
X221000D02*
X224738D01*
X228282D02*
X233260D01*
X180000Y382000D02*
X184238D01*
X136500D02*
X140238D01*
X196740D02*
X197240Y381500D01*
X201000D01*
X187782Y382000D02*
X193000D01*
X143782D02*
X148630D01*
X152370D02*
X156500D01*
X180000Y364000D02*
Y368500D01*
X176256Y356642D02*
Y360256D01*
X180000Y364000D01*
X174287Y356642D02*
Y361787D01*
X177500Y365000D01*
X175000Y364000D02*
Y368500D01*
X172319Y361319D02*
X175000Y364000D01*
X172319Y356642D02*
Y361319D01*
X170350Y356642D02*
X170500Y356791D01*
Y361500D01*
X172500Y363500D02*
Y365000D01*
X170500Y361500D02*
X172500Y363500D01*
X170500D02*
Y369000D01*
X168382Y361382D02*
X170500Y363500D01*
X168382Y356642D02*
Y361382D01*
X167000Y363500D02*
X168500Y365000D01*
X167000Y362000D02*
Y363500D01*
X166413Y356642D02*
Y361413D01*
X167000Y362000D01*
X164445Y356642D02*
X164500Y356697D01*
Y361500D01*
X165500Y362500D01*
Y365500D01*
X166500Y366500D02*
Y369000D01*
X165500Y365500D02*
X166500Y366500D01*
X68500Y350209D02*
X68657Y350366D01*
X68500Y343500D02*
Y350209D01*
X72000Y340000D02*
X102000D01*
X68500Y343500D02*
X72000Y340000D01*
X48658Y342342D02*
X52500Y338500D01*
X106000Y344000D02*
X112000D01*
X102000Y340000D02*
X106000Y344000D01*
X161500Y318000D02*
X163000Y316500D01*
X167500D01*
X160500Y322500D02*
Y342067D01*
Y322500D02*
X165315Y317685D01*
X173415D01*
X168283Y315717D02*
X173415D01*
X167500Y316500D02*
X168283Y315717D01*
X166000Y314500D02*
X167500D01*
X168252Y313748D02*
X173415D01*
X167500Y314500D02*
X168252Y313748D01*
X216033Y263256D02*
Y269033D01*
X217500Y270500D01*
X198500Y287000D02*
Y287500D01*
Y287000D02*
X202127Y283373D01*
Y263383D02*
Y283373D01*
Y263383D02*
X202253Y263256D01*
X196000Y285000D02*
Y291000D01*
Y285000D02*
X200142Y280858D01*
X193000Y285500D02*
X198316Y280184D01*
X193000Y285500D02*
Y293000D01*
X214032Y263288D02*
X214064Y263256D01*
X214032Y263288D02*
Y270968D01*
X214000Y271000D02*
X214032Y270968D01*
X212000Y281000D02*
X212048Y280952D01*
Y263304D02*
Y280952D01*
Y263304D02*
X212096Y263256D01*
X208079Y263335D02*
X208159Y263256D01*
X210064Y263320D02*
Y283436D01*
X208079Y263335D02*
Y280921D01*
X210000Y283500D02*
X210064Y283436D01*
X208000Y281000D02*
X208079Y280921D01*
X210064Y263320D02*
X210127Y263256D01*
X163500Y362000D02*
Y365000D01*
X162476Y356642D02*
Y360976D01*
X163500Y362000D01*
X161500Y362500D02*
Y369000D01*
X160508Y356642D02*
Y361508D01*
X161500Y362500D01*
X159500Y361500D02*
Y365000D01*
X158539Y356642D02*
Y360539D01*
X159500Y361500D01*
X157500Y362500D02*
Y369000D01*
X156571Y361571D02*
X157500Y362500D01*
X156571Y356642D02*
Y361571D01*
X154801Y364801D02*
X155000Y365000D01*
X154602Y356642D02*
X154801Y356840D01*
Y364801D01*
X154000Y367000D02*
Y369000D01*
X152634Y356642D02*
Y365634D01*
X154000Y367000D01*
X150665Y356642D02*
Y366294D01*
X151500Y367129D01*
Y367500D01*
X148697Y356642D02*
X148848Y356793D01*
Y368848D01*
X149000Y369000D01*
X223500Y302500D02*
X226500Y305500D01*
X223500Y291000D02*
X224500Y290000D01*
X223500Y291000D02*
Y302500D01*
X224500Y290000D02*
X227000D01*
X228842Y288158D02*
X235029D01*
X227000Y290000D02*
X228842Y288158D01*
X221500Y306500D02*
X224500Y309500D01*
X221500Y289500D02*
X223000Y288000D01*
X221500Y289500D02*
Y306500D01*
X223000Y288000D02*
X226500D01*
X228311Y286189D02*
X235029D01*
X226500Y288000D02*
X228311Y286189D01*
X219000Y288000D02*
X221500Y285500D01*
Y279000D02*
Y285500D01*
Y279000D02*
X222185Y278315D01*
X235029D01*
X234812Y280500D02*
X235029Y280284D01*
X219500Y277500D02*
Y283500D01*
Y277500D02*
X220653Y276347D01*
X235029D01*
X217000Y275500D02*
Y281000D01*
X218000Y274500D02*
X234907D01*
X217000Y275500D02*
X218000Y274500D01*
X234907D02*
X235029Y274378D01*
X204000Y281000D02*
X204111Y280889D01*
Y263367D02*
Y280889D01*
X206095Y263351D02*
Y283405D01*
X214000Y283500D02*
X215000Y282500D01*
X206095Y263351D02*
X206190Y263256D01*
X206000Y283500D02*
X206095Y283405D01*
X215000Y274000D02*
Y282500D01*
Y274000D02*
X216590Y272410D01*
X235029D01*
X204111Y263367D02*
X204222Y263256D01*
X200142Y263398D02*
X200285Y263256D01*
X200142Y263398D02*
Y280858D01*
X198316Y263256D02*
Y280184D01*
X235029Y298000D02*
X235029Y298000D01*
X246000Y364000D02*
Y369000D01*
X245153Y363154D02*
X246000Y364000D01*
X235029Y303906D02*
X235076Y303953D01*
X242953D01*
X243000Y304000D01*
X235029Y299969D02*
X235044Y299984D01*
X235029Y294063D02*
X235060Y294032D01*
X234981Y292047D02*
X235029Y292095D01*
X229500Y292000D02*
X229547Y292047D01*
X245000Y341921D02*
X245153Y342075D01*
X245000Y330000D02*
Y341921D01*
X229500Y328500D02*
X230000Y328000D01*
X229500Y328500D02*
Y341980D01*
X243000Y341890D02*
X243185Y342075D01*
X243000Y328500D02*
Y341890D01*
Y328500D02*
X245500Y326000D01*
X241000Y341858D02*
X241216Y342075D01*
X241000Y327500D02*
Y341858D01*
X239248Y342075D02*
X239500Y341823D01*
Y325500D02*
Y341823D01*
X237280Y342075D02*
X237500Y341854D01*
Y323500D02*
Y341854D01*
X235311Y342075D02*
X235500Y341886D01*
Y322500D02*
Y341886D01*
X233343Y342075D02*
X233500Y341917D01*
Y318046D02*
Y341917D01*
X231374Y342075D02*
X231500Y341949D01*
Y320500D02*
Y341949D01*
X229405Y342075D02*
X229500Y341980D01*
X227437Y336063D02*
Y342075D01*
Y336063D02*
X227844Y335656D01*
X225468Y342075D02*
X225500Y342043D01*
X244874Y305874D02*
X247000Y308000D01*
X245000Y330000D02*
X247000Y328000D01*
Y308000D02*
Y328000D01*
X241000Y315500D02*
Y321500D01*
X239248Y313748D02*
X241000Y315500D01*
X240000Y322500D02*
X241000Y321500D01*
X238518Y315768D02*
X239500Y316750D01*
X238500Y321000D02*
X239500Y320000D01*
Y316750D02*
Y320000D01*
X235029Y315717D02*
X235080Y315768D01*
X238518D01*
X242500Y314000D02*
Y322500D01*
X240280Y311780D02*
X242500Y314000D01*
X239500Y325500D02*
X242500Y322500D01*
X241311Y309811D02*
X244000Y312500D01*
X241000Y327500D02*
X244000Y324500D01*
Y312500D02*
Y324500D01*
X244343Y307843D02*
X245500Y309000D01*
Y326000D01*
X235029Y305874D02*
X244874D01*
X235029Y307843D02*
X244343D01*
X235029Y309811D02*
X241311D01*
X235029Y311780D02*
X240280D01*
X237500Y323500D02*
X238500Y322500D01*
X240000D01*
X235029Y313748D02*
X239248D01*
X235500Y322500D02*
X237000Y321000D01*
X238500D01*
X233861Y317685D02*
X235029D01*
X233500Y318046D02*
X233861Y317685D01*
X224000Y319000D02*
X230000D01*
X231500Y320500D01*
X221938Y321062D02*
X224000Y319000D01*
X221938Y321062D02*
Y324870D01*
X224621Y320379D02*
X228879D01*
X230000Y321500D02*
Y328000D01*
X228879Y320379D02*
X230000Y321500D01*
X223907Y321093D02*
X224621Y320379D01*
X223907Y321093D02*
Y324870D01*
X227844D02*
Y335656D01*
X225500Y336000D02*
Y342043D01*
X226500Y328364D02*
Y335000D01*
X225500Y336000D02*
X226500Y335000D01*
X225875Y324870D02*
Y327739D01*
X226500Y328364D01*
X219970Y331399D02*
X220071Y331500D01*
X218001Y324999D02*
X218001Y324999D01*
X218000Y325000D02*
X218001Y324999D01*
X218000Y319500D02*
X218001Y319500D01*
X218001Y324870D02*
Y324999D01*
X335597Y341500D02*
X335799D01*
X215500Y341949D02*
X215626Y342075D01*
X215500Y333000D02*
Y341949D01*
X216033Y324870D02*
Y332467D01*
X215500Y333000D02*
X216033Y332467D01*
X213500Y341917D02*
X213657Y342075D01*
X213500Y337000D02*
Y341917D01*
X214064Y324870D02*
Y336436D01*
X213500Y337000D02*
X214064Y336436D01*
X212000Y324966D02*
X212096Y324870D01*
X212000Y324966D02*
Y335500D01*
X211689Y335811D02*
Y342075D01*
Y335811D02*
X212000Y335500D01*
X209500Y341854D02*
X209720Y342075D01*
X209500Y335000D02*
Y341854D01*
X210127Y324870D02*
Y334373D01*
X209500Y335000D02*
X210127Y334373D01*
X208159Y324870D02*
Y333341D01*
X207752Y333748D02*
Y342075D01*
Y333748D02*
X208159Y333341D01*
X205500Y341791D02*
X205784Y342075D01*
X205500Y333000D02*
Y341791D01*
X206190Y324870D02*
Y332310D01*
X205500Y333000D02*
X206190Y332310D01*
X204222Y324870D02*
Y331779D01*
X203815Y332185D02*
X204222Y331779D01*
X203815Y332185D02*
Y342075D01*
X201847Y336653D02*
Y342075D01*
X202253Y324870D02*
Y336247D01*
X201847Y336653D02*
X202253Y336247D01*
X199878Y335622D02*
Y342075D01*
X200285Y324870D02*
Y335215D01*
X199878Y335622D02*
X200285Y335215D01*
X198316Y324870D02*
Y333850D01*
X198000Y334166D02*
Y341984D01*
Y334166D02*
X198316Y333850D01*
X197909Y342075D02*
X198000Y341984D01*
X195941Y333059D02*
Y342075D01*
Y333059D02*
X196347Y332652D01*
Y324870D02*
Y332652D01*
X193972Y331528D02*
Y342075D01*
Y331528D02*
X194379Y331121D01*
Y324870D02*
Y331121D01*
X192411Y324870D02*
X192500Y324960D01*
Y330000D01*
X192004Y330496D02*
X192500Y330000D01*
X192004Y330496D02*
Y342075D01*
X190000Y342039D02*
X190035Y342075D01*
X190000Y336500D02*
Y342039D01*
X190442Y324870D02*
Y336058D01*
X190000Y336500D02*
X190442Y336058D01*
X188473Y324870D02*
X188500Y324897D01*
Y335000D01*
X188067Y335433D02*
Y342075D01*
Y335433D02*
X188500Y335000D01*
X186000Y341976D02*
X186098Y342075D01*
X160500Y342067D02*
X160508Y342075D01*
X158500Y342035D02*
X158539Y342075D01*
X158500Y317500D02*
Y342035D01*
X163500Y312500D02*
X168500D01*
X158500Y317500D02*
X163500Y312500D01*
X169220Y311780D02*
X173415D01*
X168500Y312500D02*
X169220Y311780D01*
X156500Y342004D02*
X156571Y342075D01*
X156500Y317000D02*
Y342004D01*
X163000Y310500D02*
X168500D01*
X156500Y317000D02*
X163000Y310500D01*
X169189Y309811D02*
X173415D01*
X168500Y310500D02*
X169189Y309811D01*
X154602Y316398D02*
Y342075D01*
Y316398D02*
X162500Y308500D01*
X148697Y312803D02*
X158500Y303000D01*
X150500Y341910D02*
X150665Y342075D01*
X152500Y315500D02*
X161000Y307000D01*
X148697Y312803D02*
Y342075D01*
X152500Y315500D02*
Y341941D01*
X150500Y314000D02*
Y341910D01*
X152500Y341941D02*
X152634Y342075D01*
X150500Y314000D02*
X159500Y305000D01*
X162500Y308500D02*
X168500D01*
X169157Y307843D02*
X173415D01*
X168500Y308500D02*
X169157Y307843D01*
X161000Y307000D02*
X168000D01*
X169126Y305874D02*
X173415D01*
X168000Y307000D02*
X169126Y305874D01*
X159500Y305000D02*
X168000D01*
X169094Y303906D02*
X173415D01*
X168000Y305000D02*
X169094Y303906D01*
X167500Y303000D02*
X168563Y301937D01*
X158500Y303000D02*
X167500D01*
X168563Y301937D02*
X173415D01*
X182534Y324966D02*
X182568Y324932D01*
X182500Y325000D02*
X182534Y324966D01*
X182500Y320000D02*
X182534Y320034D01*
X182568Y324870D02*
Y324932D01*
X173000Y327071D02*
X173071Y327000D01*
X184358Y331500D02*
X184537Y331322D01*
X180599Y324870D02*
Y325422D01*
X114000Y280500D02*
Y297968D01*
Y280500D02*
X124500Y270000D01*
X109966Y302003D02*
X114000Y297968D01*
X109466Y277534D02*
Y282588D01*
X120200Y245669D02*
Y266800D01*
X109466Y277534D02*
X120200Y266800D01*
Y245669D02*
X131000Y234869D01*
Y230000D02*
Y234869D01*
X122500Y221500D02*
X131000Y230000D01*
X124000Y220500D02*
X132500Y229000D01*
X124500Y247500D02*
X132500Y239500D01*
Y229000D02*
Y239500D01*
X124500Y247500D02*
Y270000D01*
X173415Y298000D02*
X173415Y298000D01*
X180000D02*
X180000Y298000D01*
X166500Y299500D02*
X166531Y299469D01*
X193000Y268629D02*
Y269000D01*
X173415Y278315D02*
X173564Y278166D01*
X184334D01*
X184500Y278000D01*
X173415Y276347D02*
X179782D01*
X180629Y275500D01*
X181000D01*
X29000Y264000D02*
X40000D01*
X48658Y342342D02*
Y350366D01*
X31500Y256500D02*
X34500Y259500D01*
X16500Y223500D02*
X31500Y238500D01*
Y256500D01*
X25500Y236000D02*
Y255000D01*
X32500Y262000D02*
X37500D01*
X25500Y255000D02*
X32500Y262000D01*
X11000Y246000D02*
X29000Y264000D01*
X11000Y135000D02*
Y246000D01*
X16500Y159500D02*
X39500Y136500D01*
Y125500D02*
Y136500D01*
X13500Y157500D02*
X36500Y134500D01*
Y122000D02*
Y134500D01*
X11000Y135000D02*
X20500Y125500D01*
X33000D01*
X42000Y123000D02*
Y138500D01*
X20000Y160500D02*
Y223000D01*
Y160500D02*
X42000Y138500D01*
X110500Y12161D02*
Y19000D01*
X128847Y10500D02*
X131543D01*
X127043Y8697D02*
X128847Y10500D01*
X104684Y10381D02*
X107076D01*
X107457Y10000D01*
X103500Y9197D02*
X104684Y10381D01*
X89630Y10531D02*
X91161Y9000D01*
X127043Y8500D02*
Y8697D01*
X160898Y19398D02*
X164000Y22500D01*
X164500D01*
X158803Y20303D02*
X161500Y23000D01*
X160508Y16484D02*
X160898Y16875D01*
Y19398D01*
X158803Y16748D02*
Y20303D01*
X158539Y16484D02*
X158803Y16748D01*
X156571Y11828D02*
X157500Y10899D01*
X156571Y11828D02*
Y16484D01*
X153500Y10250D02*
Y11000D01*
X154602Y12102D01*
Y16484D01*
X266000Y11500D02*
X268000Y13500D01*
X247000Y11500D02*
X266000D01*
X245334Y13166D02*
X247000Y11500D01*
X245334Y13166D02*
Y16304D01*
X164716Y280284D02*
X173415D01*
X163000Y282000D02*
X164716Y280284D01*
X162500Y279000D02*
X167000D01*
X167685Y278315D02*
X173415D01*
X167000Y279000D02*
X167685Y278315D01*
X13500Y157500D02*
Y224000D01*
X25500Y236000D01*
X16500Y159500D02*
Y223500D01*
X173265Y276197D02*
X173415Y276347D01*
X164197Y276197D02*
X173265D01*
X164000Y276000D02*
X164197Y276197D01*
X173291Y282376D02*
X173415Y282252D01*
X167124Y282376D02*
X173291D01*
X167000Y282500D02*
X167124Y282376D01*
X94208Y90000D02*
X99000D01*
X94000Y89792D02*
X94208Y90000D01*
X93966Y89826D02*
X94000Y89792D01*
X245153Y25346D02*
X247424Y23076D01*
X245153Y25346D02*
Y31051D01*
Y16484D02*
X245334Y16304D01*
X146500Y265500D02*
Y290000D01*
X152532Y296032D02*
X173415D01*
X146500Y290000D02*
X152532Y296032D01*
X148500Y266000D02*
Y288500D01*
X154063Y294063D02*
X173415D01*
X148500Y288500D02*
X154063Y294063D01*
X151000Y266500D02*
Y287500D01*
X155595Y292095D02*
X173415D01*
X151000Y287500D02*
X155595Y292095D01*
X153000Y268000D02*
Y286000D01*
X157126Y290126D02*
X173415D01*
X153000Y286000D02*
X157126Y290126D01*
X155000Y268500D02*
Y284500D01*
X158658Y288158D02*
X173415D01*
X155000Y284500D02*
X158658Y288158D01*
X157000Y270500D02*
Y283000D01*
X160189Y286189D02*
X173415D01*
X157000Y283000D02*
X160189Y286189D01*
X159500Y272000D02*
Y282000D01*
X161721Y284221D02*
X173415D01*
X159500Y282000D02*
X161721Y284221D01*
X160500Y271000D02*
X164500D01*
X159500Y272000D02*
X160500Y271000D01*
X189593Y246609D02*
X190217Y247233D01*
X189000Y246016D02*
X189593Y246609D01*
X200815Y250082D02*
Y252029D01*
X200954Y252168D01*
X167878Y274378D02*
X173415D01*
X167000Y273500D02*
X167878Y274378D01*
X167000Y271000D02*
Y273500D01*
X173415Y268585D02*
Y270441D01*
X176500Y249000D02*
Y265500D01*
X173415Y268585D02*
X176500Y265500D01*
X177090Y272410D02*
X178000Y271500D01*
X173415Y272410D02*
X177090D01*
X178000Y249500D02*
Y271500D01*
X180599Y260599D02*
Y263256D01*
X179500Y259499D02*
X180599Y260599D01*
X182568Y263256D02*
Y269432D01*
X181500Y270500D02*
X182568Y269432D01*
X184518Y263274D02*
X184537Y263256D01*
X184518Y263274D02*
Y270482D01*
X184500Y270500D02*
X184518Y270482D01*
X186505Y263256D02*
Y269394D01*
X187500Y270389D01*
Y270500D01*
X214064Y256435D02*
Y263256D01*
X213500Y255871D02*
X214064Y256435D01*
X213500Y255500D02*
Y255871D01*
X216016Y263240D02*
X216033Y263256D01*
X216016Y258016D02*
Y263240D01*
X216000Y258000D02*
X216016Y258016D01*
X198378Y229500D02*
X209500D01*
X194378Y225500D02*
X198378Y229500D01*
X275500Y92500D02*
Y96000D01*
Y51500D02*
Y92500D01*
X293000Y124000D02*
Y139000D01*
X295000Y141000D01*
X291000Y149500D02*
Y223899D01*
Y149500D02*
X292000Y148500D01*
X286500Y230500D02*
X289000Y228000D01*
Y146000D02*
Y228000D01*
Y124500D02*
Y140500D01*
X292000Y143500D02*
Y148500D01*
X289000Y140500D02*
X292000Y143500D01*
X230630Y119500D02*
X230645Y119515D01*
X230500Y119370D02*
X230630Y119500D01*
X211371Y220500D02*
X216622D01*
X210871Y221000D02*
X211371Y220500D01*
X210500Y221000D02*
X210871D01*
X210500Y225500D02*
X216622D01*
X186000Y248586D02*
Y252500D01*
X184914Y247500D02*
X186000Y248586D01*
X188473Y263256D02*
Y268474D01*
X190500Y270500D01*
X182260Y250240D02*
Y252500D01*
Y250240D02*
X183000Y249500D01*
X190442Y260416D02*
Y263256D01*
X188929Y257000D02*
X189641Y257712D01*
X189943Y258000D02*
X190000Y258057D01*
X188929Y257000D02*
Y257000D01*
Y257000D02*
X189641Y257712D01*
X179500Y250272D02*
X184500Y245272D01*
Y218500D02*
Y245272D01*
X179500Y250272D02*
Y259499D01*
X205000Y241992D02*
X205008Y242000D01*
X196082Y253425D02*
Y254815D01*
X213000Y242071D02*
X213071Y242000D01*
X226780Y235000D02*
X228000Y233780D01*
X226279Y235500D02*
X226780Y235000D01*
X216622Y241693D02*
X216929Y242000D01*
X201000Y140000D02*
Y145000D01*
X202500Y146500D01*
X212000Y212000D02*
X213500Y213500D01*
X212000Y204000D02*
Y212000D01*
X213102Y202898D02*
X219508D01*
X212000Y204000D02*
X213102Y202898D01*
X209500Y201500D02*
Y213500D01*
X210661Y200339D02*
X219508D01*
X209500Y201500D02*
X210661Y200339D01*
X207500Y199000D02*
Y211000D01*
X208720Y197780D02*
X219508D01*
X207500Y199000D02*
X208720Y197780D01*
X205000Y213500D02*
X207500Y211000D01*
X200815Y250082D02*
X200925D01*
X192046Y251057D02*
X192185Y250918D01*
X192046Y251057D02*
Y253836D01*
X178000Y249500D02*
X183000Y244500D01*
X184500Y218500D02*
X187000Y216000D01*
X183000Y217000D02*
X185500Y214500D01*
X183000Y217000D02*
Y244500D01*
X176500Y249000D02*
X181000Y244500D01*
Y215000D02*
Y244500D01*
X175000Y248000D02*
X179000Y244000D01*
Y213000D02*
Y244000D01*
X175000Y248000D02*
Y263000D01*
X187000Y216000D02*
X199000D01*
X205500Y209500D01*
Y197000D02*
Y209500D01*
X203500Y195500D02*
Y209000D01*
X198000Y214500D02*
X203500Y209000D01*
Y195500D02*
X206339Y192661D01*
X207279Y195220D02*
X219508D01*
X205500Y197000D02*
X207279Y195220D01*
X206339Y192661D02*
X219508D01*
X202000Y193500D02*
X205398Y190102D01*
X219508D01*
X202000Y193500D02*
Y208000D01*
X200500Y191000D02*
X203957Y187543D01*
X219508D01*
X200500Y191000D02*
Y207000D01*
X185500Y214500D02*
X198000D01*
X181000Y215000D02*
X183500Y212500D01*
X179000Y213000D02*
X181500Y210500D01*
X183500Y212500D02*
X197500D01*
X202000Y208000D01*
X170000Y245000D02*
X173000Y242000D01*
X170000Y245000D02*
Y260500D01*
X163000Y267500D02*
X170000Y260500D01*
X167000Y271000D02*
X175000Y263000D01*
X173500Y247000D02*
X177000Y243500D01*
X173500Y247000D02*
Y262000D01*
X164500Y271000D02*
X173500Y262000D01*
X163500Y269500D02*
X172000Y261000D01*
Y246000D02*
X175000Y243000D01*
X172000Y246000D02*
Y261000D01*
X175000Y193500D02*
Y243000D01*
X177000Y195000D02*
X177500Y194500D01*
X175000Y193500D02*
X176500Y192000D01*
X177000Y195000D02*
Y243500D01*
X197000Y210500D02*
X200500Y207000D01*
X181500Y210500D02*
X197000D01*
X184850Y206221D02*
X185071Y206000D01*
X193038Y205457D02*
X195492D01*
X178000Y175358D02*
X178142Y175500D01*
X177992Y175350D02*
X178000Y175358D01*
X158000Y269500D02*
X163500D01*
X157000Y270500D02*
X158000Y269500D01*
X156000Y267500D02*
X163000D01*
X168500Y243000D02*
Y259500D01*
X155500Y265500D02*
X162500D01*
X168500Y259500D01*
X155000Y268500D02*
X156000Y267500D01*
X153000Y268000D02*
X155500Y265500D01*
X161500Y263500D02*
X167000Y258000D01*
X151000Y266500D02*
X154000Y263500D01*
X161500D01*
X167000Y241500D02*
Y258000D01*
X153000Y261500D02*
X160500D01*
X165000Y257000D01*
X148500Y266000D02*
X153000Y261500D01*
X165000Y240500D02*
Y257000D01*
X160000Y259500D02*
X163000Y256500D01*
X152500Y259500D02*
X160000D01*
X146500Y265500D02*
X152500Y259500D01*
X163000Y240000D02*
Y256500D01*
X170500Y184500D02*
X179000D01*
X167500Y187500D02*
Y238000D01*
Y187500D02*
X170500Y184500D01*
X180000Y186000D02*
X186500Y179500D01*
X172000Y186000D02*
X180000D01*
X169500Y188500D02*
X172000Y186000D01*
X169500Y188500D02*
Y239000D01*
X171500Y190000D02*
Y240000D01*
X173500Y188000D02*
X180500D01*
X171500Y190000D02*
X173500Y188000D01*
X173000Y192000D02*
Y242000D01*
X175000Y190000D02*
X181000D01*
X173000Y192000D02*
X175000Y190000D01*
X186500Y160000D02*
Y179500D01*
X188500Y162000D02*
Y180000D01*
X180500Y188000D02*
X188500Y180000D01*
X190500Y165000D02*
Y180500D01*
X181000Y190000D02*
X190500Y180500D01*
X183000Y157000D02*
Y178000D01*
X168500Y182500D02*
X178500D01*
X183000Y178000D01*
X184500Y158000D02*
Y179000D01*
X179000Y184500D02*
X184500Y179000D01*
X176500Y192000D02*
X181500D01*
X192500Y168000D02*
Y181000D01*
X181500Y192000D02*
X192500Y181000D01*
Y168000D02*
X194161Y166339D01*
X177500Y194500D02*
X181500D01*
X194500Y170000D02*
Y181500D01*
X181500Y194500D02*
X194500Y181500D01*
X195602Y168898D02*
X202008D01*
X194500Y170000D02*
X195602Y168898D01*
X194326Y186292D02*
X196618Y184000D01*
X194960Y187543D02*
X195492D01*
X194326Y186910D02*
X194960Y187543D01*
X194326Y186292D02*
Y186910D01*
X194161Y166339D02*
X202008D01*
X191720Y163779D02*
X202008D01*
X190500Y165000D02*
X191720Y163779D01*
X167000Y241500D02*
X169500Y239000D01*
X168500Y243000D02*
X171500Y240000D01*
X189279Y161221D02*
X202008D01*
X188500Y162000D02*
X189279Y161221D01*
X187839Y158661D02*
X202008D01*
X186500Y160000D02*
X187839Y158661D01*
X163000Y240000D02*
X166000Y237000D01*
X165000Y240500D02*
X167500Y238000D01*
X166000Y185000D02*
X168500Y182500D01*
X166000Y185000D02*
Y237000D01*
X186398Y156102D02*
X202008D01*
X184500Y158000D02*
X186398Y156102D01*
X183000Y157000D02*
X186457Y153543D01*
X172871Y176000D02*
X174071D01*
X170500Y178000D02*
X170871D01*
X186457Y153543D02*
X202008D01*
X227844Y257656D02*
Y263256D01*
Y257656D02*
X229500Y256000D01*
X251500D01*
X225875Y255625D02*
X228000Y253500D01*
X225875Y255625D02*
Y263256D01*
X222000Y251500D02*
Y263194D01*
Y251500D02*
X224500Y249000D01*
X221938Y263256D02*
X222000Y263194D01*
X224500Y249000D02*
X245000D01*
X248000Y246000D01*
X223907Y253093D02*
Y263256D01*
Y253093D02*
X225500Y251500D01*
X245766D01*
X248000Y216500D02*
Y246000D01*
X219970Y249030D02*
Y263256D01*
Y249030D02*
X222000Y247000D01*
X243000D01*
X246000Y244000D01*
Y217500D02*
Y244000D01*
X218001Y247499D02*
Y263256D01*
Y247499D02*
X220500Y245000D01*
X242000D02*
X244000Y243000D01*
X220500Y245000D02*
X242000D01*
X244000Y219000D02*
Y243000D01*
X239500Y211000D02*
X246000Y217500D01*
X237500Y196500D02*
Y212500D01*
X244000Y219000D01*
X234000Y187000D02*
Y193000D01*
X237500Y196500D01*
X233000Y186000D02*
X234000Y187000D01*
X223500Y180500D02*
X229000Y186000D01*
X233000D01*
X223500Y173000D02*
Y180500D01*
X214492Y171457D02*
X221957D01*
X223500Y173000D01*
X235500Y185000D02*
Y191500D01*
X239500Y195500D01*
Y211000D01*
X237500Y183500D02*
Y191000D01*
X241500Y210000D02*
X248000Y216500D01*
X237500Y191000D02*
X241500Y195000D01*
Y210000D01*
X245500Y192500D02*
Y204500D01*
X260000Y219000D01*
X247500Y191500D02*
Y203500D01*
X263000Y219000D01*
X249500Y190500D02*
Y202000D01*
X265500Y218000D01*
X239500Y182500D02*
Y190500D01*
X243000Y194000D01*
Y207500D01*
X241500Y188500D02*
X245500Y192500D01*
X244000Y188000D02*
X247500Y191500D01*
X241500Y180000D02*
Y188500D01*
X240500Y179000D02*
X241500Y180000D01*
X244000Y179000D02*
Y188000D01*
X242000Y177000D02*
X244000Y179000D01*
X243500Y175500D02*
X246000Y178000D01*
Y187000D02*
X249500Y190500D01*
X246000Y178000D02*
Y187000D01*
X257500Y189000D02*
Y206500D01*
X248500Y176500D02*
Y184500D01*
X243457Y171457D02*
X248500Y176500D01*
Y184500D02*
X251000Y187000D01*
X236500Y182500D02*
X237500Y183500D01*
X238000Y181000D02*
X239500Y182500D01*
X234500Y184000D02*
X235500Y185000D01*
X230500Y184000D02*
X234500D01*
X225500Y170000D02*
Y179000D01*
X230500Y184000D01*
X224398Y168898D02*
X225500Y170000D01*
X214492Y168898D02*
X224398D01*
X227000Y177500D02*
X232000Y182500D01*
X236500D01*
X227000Y167000D02*
Y177500D01*
X214492Y166339D02*
X226339D01*
X227000Y167000D01*
X233500Y181000D02*
X238000D01*
X229000Y176500D02*
X233500Y181000D01*
X229000Y165000D02*
Y176500D01*
X214492Y163779D02*
X227780D01*
X229000Y165000D01*
X234500Y179000D02*
X240500D01*
X231000Y162500D02*
Y175500D01*
X234500Y179000D01*
X229720Y161221D02*
X231000Y162500D01*
X214492Y161221D02*
X229720D01*
X235500Y177000D02*
X242000D01*
X232500Y159500D02*
Y174000D01*
X235500Y177000D01*
X234000Y158000D02*
Y172500D01*
X237000Y175500D01*
X232102Y156102D02*
X234000Y158000D01*
X237000Y175500D02*
X243500D01*
X231661Y158661D02*
X232500Y159500D01*
X214492Y158661D02*
X231661D01*
X214492Y156102D02*
X232102D01*
X268466Y242088D02*
X272912D01*
X278000Y237000D01*
Y218000D02*
Y237000D01*
X262000Y173000D02*
Y206500D01*
X255500Y187000D02*
X257500Y189000D01*
X251000Y187000D02*
X255500D01*
X238508Y171457D02*
X243457D01*
X257898Y168898D02*
X262000Y173000D01*
X238508Y168898D02*
X257898D01*
X238508Y166339D02*
X260339D01*
X265000Y171000D02*
Y195122D01*
X260339Y166339D02*
X265000Y171000D01*
Y195122D02*
X267966Y198088D01*
X283966Y176088D02*
X284334Y175719D01*
X238508Y161221D02*
X238728Y161000D01*
X267966Y155088D02*
Y159034D01*
X247661Y158661D02*
X248500Y159500D01*
X238508Y158661D02*
X247661D01*
X248500Y159500D02*
X256500D01*
X260500Y149000D02*
Y155500D01*
X256500Y159500D02*
X260500Y155500D01*
Y149000D02*
X266500Y143000D01*
X275053D01*
X283966Y134088D01*
X201000Y174915D02*
Y175000D01*
X219508Y205457D02*
X219530Y205478D01*
X213084Y149916D02*
X213416D01*
X213000Y150000D02*
X213084Y149916D01*
X237858Y152910D02*
X238492Y153543D01*
X238508D01*
Y156102D02*
X238610Y156000D01*
X245000D01*
X247500Y153500D01*
Y148500D02*
Y153500D01*
X249000Y147000D02*
X255000D01*
X247500Y148500D02*
X249000Y147000D01*
X260000Y121000D02*
Y142000D01*
X255000Y147000D02*
X260000Y142000D01*
Y121000D02*
X268000Y113000D01*
X186414Y79914D02*
X186500Y80000D01*
X204500Y140240D02*
X204740Y140000D01*
X196675Y133207D02*
X196850Y133031D01*
X196675Y133207D02*
Y139825D01*
X196500Y140000D02*
X196675Y139825D01*
X108500Y32500D02*
X110000Y31000D01*
X115040Y26000D02*
X115139D01*
X110040Y31000D02*
X115040Y26000D01*
X110000Y31000D02*
X110040D01*
X200000Y133031D02*
Y139000D01*
X201000Y140000D01*
X91161Y9000D02*
X91260D01*
X206299Y83201D02*
X207833Y81667D01*
X206299Y83201D02*
Y86968D01*
X207833Y81667D02*
X212319D01*
X212553Y81433D01*
Y53447D02*
Y81433D01*
X212650Y82467D02*
X214000Y81117D01*
X209449Y83022D02*
X210004Y82467D01*
X212650D01*
X209449Y83022D02*
Y86968D01*
X214000Y63500D02*
Y81117D01*
X212974Y83526D02*
Y86593D01*
X212598Y86968D02*
X212974Y86593D01*
X215748Y82310D02*
Y86968D01*
Y82310D02*
X218500Y79559D01*
Y64000D02*
Y79559D01*
Y64000D02*
X227500Y55000D01*
X217500Y48500D02*
X226000D01*
X212553Y53447D02*
X217500Y48500D01*
X214000Y63500D02*
X230500Y47000D01*
X227500Y54000D02*
Y55000D01*
X212500Y96500D02*
X219500Y89500D01*
Y64757D02*
Y89500D01*
X212500Y96500D02*
Y121000D01*
X217248Y125748D02*
X223031D01*
X212500Y121000D02*
X217248Y125748D01*
X94870Y8500D02*
X100000D01*
X103500Y9000D02*
Y9197D01*
X127262Y26000D02*
X127500Y25762D01*
Y22500D02*
Y25762D01*
X118879Y26000D02*
X123718D01*
X95370D02*
X99500D01*
X170500Y151000D02*
Y152500D01*
X171543Y153543D02*
X177992D01*
X170500Y152500D02*
X171543Y153543D01*
X316500Y67790D02*
Y72630D01*
Y64247D02*
X316747Y64000D01*
X318500D01*
X319000Y60500D02*
Y63500D01*
X318500Y64000D02*
X319000Y63500D01*
X318899Y60500D02*
X319000D01*
X169000Y152000D02*
Y154500D01*
X170602Y156102D02*
X177992D01*
X169000Y154500D02*
X170602Y156102D01*
X170500Y130429D02*
X170571Y130500D01*
X176969Y122598D02*
X177018Y122549D01*
X212358Y143500D02*
X212500Y143358D01*
Y139500D02*
X212598Y139402D01*
X247500Y109500D02*
Y125000D01*
X244000Y128500D02*
X247500Y125000D01*
Y109500D02*
X250200Y106800D01*
X231624Y128500D02*
X244000D01*
X228566Y125442D02*
X231624Y128500D01*
X226978Y124985D02*
X231993Y130000D01*
X244500D02*
X249000Y125500D01*
X231993Y130000D02*
X244500D01*
X237500Y125000D02*
Y126000D01*
X236500Y124000D02*
X237500Y125000D01*
X239086Y124586D02*
X243414D01*
X236500Y122000D02*
X239086Y124586D01*
X231500Y122000D02*
X236500D01*
X245086Y107914D02*
Y122914D01*
X243414Y124586D02*
X245086Y122914D01*
X237341Y120532D02*
X239809Y123000D01*
X240500D01*
X242814Y127586D02*
X246500Y123900D01*
X233586Y127586D02*
X242814D01*
X231645Y125645D02*
X233586Y127586D01*
X234370Y124000D02*
X236500D01*
X226978Y124380D02*
Y124985D01*
X237341Y120493D02*
Y120532D01*
X234370Y119500D02*
X236348D01*
X237341Y120493D01*
X230645Y121145D02*
X231500Y122000D01*
X239315Y108185D02*
Y108918D01*
X240000Y119508D02*
X240008Y119500D01*
X245086Y107914D02*
X248000Y105000D01*
X248673Y104327D02*
X251173D01*
X257500Y98000D01*
X273500D01*
X248000Y105000D02*
X248000D01*
X248673Y104327D01*
X230630Y124000D02*
X231645Y125015D01*
Y125645D01*
X228566Y123169D02*
Y125442D01*
X230532Y124000D02*
X230630D01*
X230645Y119515D02*
Y121145D01*
X249000Y106000D02*
X252500D01*
X246500Y108500D02*
X249000Y106000D01*
X246500Y108500D02*
Y123900D01*
X273000Y44000D02*
X274500D01*
X279000Y39500D01*
X286500D01*
X288000Y41000D01*
X279000Y58500D02*
X288000Y49500D01*
Y41000D02*
Y49500D01*
X279000Y58500D02*
Y97500D01*
X277500Y99000D02*
X279000Y97500D01*
X259500Y99000D02*
X277500D01*
X273500Y98000D02*
X275500Y96000D01*
X252500Y106000D02*
X259500Y99000D01*
X249000Y110000D02*
X251400Y107600D01*
X250200Y106800D02*
X253200D01*
X253900Y107600D02*
X260000Y101500D01*
X251400Y107600D02*
X253900D01*
X253200Y106800D02*
X259500Y100500D01*
X249000Y110000D02*
Y125500D01*
X275500Y51500D02*
X283000Y44000D01*
X259500Y100500D02*
X282500D01*
X283500Y101500D02*
X287500Y97500D01*
X260000Y101500D02*
X283500D01*
X303000Y44000D02*
Y45000D01*
X293000Y44000D02*
Y52500D01*
X286000Y59500D02*
X293000Y52500D01*
X286000Y59500D02*
Y97000D01*
X287500Y60000D02*
X292000Y55500D01*
X287500Y60000D02*
Y97500D01*
X292000Y55500D02*
X298500D01*
X282500Y100500D02*
X286000Y97000D01*
X223031Y122598D02*
X225197D01*
X226978Y124380D01*
X224846Y119449D02*
X228566Y123169D01*
X223031Y119449D02*
X224846D01*
X228000Y121370D02*
X229452Y122822D01*
X228000Y117000D02*
Y121370D01*
X223031Y116299D02*
X227299D01*
X228000Y117000D01*
X229452Y122921D02*
X230532Y124000D01*
X229452Y122822D02*
Y122921D01*
X298500Y55500D02*
X309211Y44789D01*
X312211D02*
X313000Y44000D01*
X309211Y44789D02*
X312211D01*
X230500Y115500D02*
Y119370D01*
X223031Y113150D02*
X228150D01*
X230500Y115500D01*
X170500Y126571D02*
X171323Y125748D01*
X170000Y94000D02*
X170252Y94252D01*
X229921Y98000D02*
X230000D01*
X217500Y104000D02*
X217900Y103600D01*
X222931D02*
X223031Y103701D01*
X234582Y104185D02*
X234722Y104324D01*
X234443Y104046D02*
X234582Y104185D01*
X236536Y108918D02*
X238620D01*
X223031Y106850D02*
X223360Y106522D01*
X235278Y112676D02*
X235557Y112954D01*
X186500Y80000D02*
X187402Y80902D01*
X200000Y80500D02*
X201500Y79000D01*
X93966Y47369D02*
Y52209D01*
Y43826D02*
X94000Y43792D01*
Y39500D02*
Y43792D01*
X177823Y158831D02*
X177992Y158661D01*
X170669Y158831D02*
X177823D01*
X170500Y159000D02*
X170669Y158831D01*
X125100Y53075D02*
Y128100D01*
X139086Y139914D02*
X143966Y135034D01*
X139086Y139914D02*
Y156936D01*
X137500Y140369D02*
Y151500D01*
X138500Y157521D02*
X139086Y156936D01*
X133000Y103000D02*
Y131500D01*
X140136Y101636D02*
X140500Y102000D01*
Y123500D02*
X142500Y125500D01*
X140500Y102000D02*
Y123500D01*
X143966Y119710D02*
Y135034D01*
X142500Y125500D02*
Y135369D01*
X137500Y140369D02*
X142500Y135369D01*
X128000Y98000D02*
X133000Y103000D01*
X125100Y53075D02*
X127466Y50710D01*
X93966Y93369D02*
Y98209D01*
Y70869D02*
Y75718D01*
X177852Y161360D02*
X177992Y161221D01*
X172640Y161360D02*
X177852D01*
X172500Y161500D02*
X172640Y161360D01*
X138500Y157521D02*
Y174914D01*
X140136Y88113D02*
Y101636D01*
X140175Y77000D02*
Y88073D01*
X140136Y88113D02*
X140175Y88073D01*
Y77000D02*
X143466Y73710D01*
X177882Y163890D02*
X177992Y163779D01*
X170110Y163890D02*
X177882D01*
X170000Y164000D02*
X170110Y163890D01*
X94466Y109406D02*
X94733Y109138D01*
X94466Y109406D02*
Y113326D01*
X177911Y166419D02*
X177992Y166339D01*
X172081Y166419D02*
X177911D01*
X172000Y166500D02*
X172081Y166419D01*
X127966Y142710D02*
Y154179D01*
X125602Y156543D02*
X127966Y154179D01*
X125602Y156543D02*
Y172602D01*
X129500Y176500D01*
X143466Y165710D02*
X143483Y165727D01*
Y178483D01*
X143500Y178500D01*
X94466Y116869D02*
Y121709D01*
X94000Y162782D02*
Y167621D01*
Y155500D02*
Y159238D01*
X94466Y137088D02*
X94500Y137053D01*
Y132500D02*
Y137053D01*
X171474Y168898D02*
X177992D01*
X170871Y169500D02*
X171474Y168898D01*
X170500Y169500D02*
X170871D01*
X95000Y186282D02*
Y191121D01*
X49500Y317543D02*
Y322630D01*
X103378Y314000D02*
X109966Y320588D01*
X49500Y314000D02*
X103378D01*
X49466Y281588D02*
Y286596D01*
X49500Y286630D01*
X195441Y202949D02*
X195492Y202898D01*
X188051Y202949D02*
X195441D01*
X188000Y203000D02*
X188051Y202949D01*
X131000Y202500D02*
X132500D01*
X124000Y209500D02*
Y220500D01*
Y209500D02*
X131000Y202500D01*
X130000Y200000D02*
Y202000D01*
X122500Y209500D02*
Y221500D01*
Y209500D02*
X130000Y202000D01*
X121000Y209346D02*
X127000Y203346D01*
X121000Y223000D02*
X127466Y229466D01*
X121000Y209346D02*
Y223000D01*
X127000Y199096D02*
Y203346D01*
X127466Y229466D02*
Y233088D01*
X126873Y198969D02*
X127000Y199096D01*
X109966Y302003D02*
Y320588D01*
X49466Y275534D02*
Y278044D01*
Y275534D02*
X51500Y273500D01*
X97000D01*
X100500Y277000D02*
Y281500D01*
X97000Y273500D02*
X100500Y277000D01*
X101588Y282588D02*
X109466D01*
X100500Y281500D02*
X101588Y282588D01*
X195411Y200419D02*
X195492Y200339D01*
X189581Y200419D02*
X195411D01*
X189500Y200500D02*
X189581Y200419D01*
X144000Y200000D02*
Y203000D01*
X141000Y197500D02*
Y209500D01*
X141102Y209602D01*
X195441Y190051D02*
X195492Y190102D01*
X189051Y190051D02*
X195441D01*
X189000Y190000D02*
X189051Y190051D01*
X95500Y205282D02*
Y210121D01*
X95000Y245500D02*
Y248738D01*
X195382Y197890D02*
X195492Y197780D01*
X188110Y197890D02*
X195382D01*
X188000Y198000D02*
X188110Y197890D01*
X195352Y195360D02*
X195492Y195220D01*
X189140Y195360D02*
X195352D01*
X189000Y195500D02*
X189140Y195360D01*
X195323Y192831D02*
X195492Y192661D01*
X188169Y192831D02*
X195323D01*
X188000Y193000D02*
X188169Y192831D01*
X95000Y230931D02*
Y235770D01*
Y227387D02*
X104887D01*
X106500Y229000D01*
Y234000D01*
X110500Y238000D02*
X115500D01*
X106500Y234000D02*
X110500Y238000D01*
X120412Y233088D02*
X127466D01*
X115500Y238000D02*
X120412Y233088D01*
X143358Y209602D02*
X143966Y210210D01*
X141102Y209602D02*
X143358D01*
X144000Y203000D02*
X148000Y207000D01*
Y213500D01*
X139000Y222500D02*
X148000Y213500D01*
X139000Y222500D02*
Y250622D01*
X143466Y255088D01*
D106*
X196850Y86968D02*
Y92850D01*
X198000Y21000D02*
X216244D01*
X234500D01*
X60689Y225672D02*
Y226500D01*
Y225672D02*
X61861Y224500D01*
X62000D01*
X234500Y21000D02*
X235000Y21500D01*
X179500Y24000D02*
X195000D01*
X198000Y21000D01*
X205500Y93000D02*
X209000D01*
X205172D02*
X205500D01*
X203184Y91012D02*
X205172Y93000D01*
X203150Y86968D02*
X203184Y87003D01*
Y91012D01*
X63000Y77000D02*
Y78504D01*
X64496Y80000D01*
X62236Y90665D02*
X63402Y89500D01*
X62236Y90665D02*
Y94178D01*
X62000Y94414D02*
X62236Y94178D01*
X63402Y89500D02*
X63500D01*
X56244Y225839D02*
X59821D01*
X79366Y195500D02*
X87500D01*
X61158Y173500D02*
X66500D01*
X72916Y84308D02*
X73642Y83582D01*
Y80500D02*
Y83358D01*
X49000Y69000D02*
X60500D01*
X44008Y73992D02*
Y83657D01*
Y73992D02*
X49000Y69000D01*
X23968Y40721D02*
X24623Y40066D01*
X228000Y225079D02*
Y233780D01*
X216622Y235500D02*
X226279D01*
D107*
X190551Y84691D02*
Y86968D01*
Y84691D02*
X191690Y83552D01*
Y81159D02*
Y83552D01*
X190500Y79969D02*
X191690Y81159D01*
X190500Y79870D02*
Y79969D01*
X194500Y80000D02*
Y80098D01*
X193625Y80973D02*
X194500Y80098D01*
X193527Y80973D02*
X193625D01*
X193000Y81500D02*
X193527Y80973D01*
X193000Y81500D02*
Y83682D01*
X193701Y84383D01*
Y86968D01*
X108742Y57686D02*
X109002D01*
X110840Y60160D02*
X111100D01*
X108237Y58190D02*
X108742Y57686D01*
X110180Y59500D02*
X110840Y60160D01*
X67014Y62133D02*
X70957Y58190D01*
X71500Y59500D02*
X110180D01*
X70957Y58190D02*
X108237D01*
X68324Y62676D02*
X71500Y59500D01*
X68324Y62676D02*
Y83592D01*
X67014Y62133D02*
Y83049D01*
X57000Y81000D02*
X57098D01*
X56902D02*
X57000D01*
X60694Y85904D02*
X66012D01*
X60693Y84594D02*
X65469D01*
X66012Y85904D02*
X68324Y83592D01*
X65469Y84594D02*
X67014Y83049D01*
X41761Y88000D02*
X52000D01*
X55141Y82760D02*
Y84859D01*
Y82760D02*
X56902Y81000D01*
X42304Y89310D02*
X52543D01*
X55304Y87853D02*
X55951Y88500D01*
X54000Y87853D02*
X55304D01*
X52543Y89310D02*
X54000Y87853D01*
X52000Y88000D02*
X55141Y84859D01*
X40726Y90888D02*
X42304Y89310D01*
X39416Y90345D02*
X41761Y88000D01*
X37475Y93500D02*
X39416Y91559D01*
X40726Y90888D02*
Y91559D01*
X42667Y93500D01*
X36134D02*
X37475D01*
X39416Y90345D02*
Y91559D01*
X42667Y93500D02*
X44008D01*
X58863Y87736D02*
X60694Y85904D01*
X57098Y81000D02*
X60693Y84594D01*
X58863Y87736D02*
Y87740D01*
X57102Y89500D02*
X58863Y87740D01*
X57004Y89500D02*
X57102D01*
X193791Y72241D02*
Y72242D01*
X192000Y71500D02*
X192155Y71655D01*
X193791Y72241D02*
X194374Y71658D01*
X194430D01*
X192155Y71655D02*
Y73006D01*
X193211Y73803D02*
Y74872D01*
X193465Y72568D02*
X193791Y72242D01*
X191901Y73260D02*
Y74682D01*
X193211Y73803D02*
X193465Y73549D01*
Y72568D02*
Y73549D01*
X191901Y73260D02*
X192155Y73006D01*
X193211Y74872D02*
X194500Y76161D01*
X191375Y75157D02*
X191426D01*
X194500Y76161D02*
Y76260D01*
X191426Y75157D02*
X191901Y74682D01*
X190500Y76032D02*
X191375Y75157D01*
X190500Y76032D02*
Y76130D01*
D108*
X138412Y320588D02*
X140000Y319000D01*
Y265000D02*
X151000Y254000D01*
X129966Y320588D02*
X138412D01*
X140000Y265000D02*
Y319000D01*
X114500Y137500D02*
X133500D01*
X112966Y139034D02*
X114500Y137500D01*
X112966Y139034D02*
Y142710D01*
X133500Y137500D02*
X135000Y139000D01*
X137322Y136678D01*
X135000Y139000D02*
Y265000D01*
X137322Y47177D02*
Y136678D01*
X129466Y270534D02*
X135000Y265000D01*
X148000Y50500D02*
Y169500D01*
Y50500D02*
X156571Y41929D01*
X137322Y47177D02*
X141979Y42521D01*
X149479D01*
X156571Y31051D02*
Y41929D01*
X151000Y204000D02*
Y254000D01*
X148000Y201000D02*
X151000Y204000D01*
X148000Y169500D02*
X151790Y165710D01*
X148000Y169500D02*
Y201000D01*
X151790Y165710D02*
X158466D01*
X129466Y270534D02*
Y282588D01*
X154602Y31051D02*
Y37398D01*
X149479Y42521D02*
X154602Y37398D01*
X69466Y282588D02*
Y294534D01*
X46000Y299000D02*
X65000D01*
X69466Y294534D01*
X42000Y295000D02*
X46000Y299000D01*
X42000Y285000D02*
Y295000D01*
X22500Y282564D02*
X39564D01*
X42000Y285000D01*
X69966Y320588D02*
Y329534D01*
X45000Y333000D02*
X66500D01*
X69966Y329534D01*
X42500Y326500D02*
Y330500D01*
X45000Y333000D01*
X22500Y322500D02*
X38500D01*
X42500Y326500D01*
D109*
X323000Y44000D02*
D03*
X313000D02*
D03*
X303000D02*
D03*
X293000D02*
D03*
X283000D02*
D03*
X273000D02*
D03*
X38658Y350366D02*
D03*
X48658D02*
D03*
X58657D02*
D03*
X68657D02*
D03*
X78658D02*
D03*
X88657D02*
D03*
X71351Y51165D02*
D03*
Y41165D02*
D03*
X61351Y51165D02*
D03*
Y41165D02*
D03*
X51351Y51165D02*
D03*
Y41165D02*
D03*
X315597Y341500D02*
D03*
Y351500D02*
D03*
X325597Y341500D02*
D03*
Y351500D02*
D03*
X335597Y341500D02*
D03*
Y351500D02*
D03*
D110*
X25465Y112279D02*
D03*
Y64878D02*
D03*
D111*
X36134Y83657D02*
D03*
X44008Y93500D02*
D03*
X36134D02*
D03*
X44008Y83657D02*
D03*
D112*
X22500Y322500D02*
D03*
X12500Y332500D02*
D03*
X32500D02*
D03*
Y312500D02*
D03*
X12500D02*
D03*
X22500Y282564D02*
D03*
X12500Y292564D02*
D03*
X32500D02*
D03*
Y272564D02*
D03*
X12500D02*
D03*
D113*
X129966Y320588D02*
D03*
X119966D02*
D03*
X109966D02*
D03*
X89966D02*
D03*
X79966D02*
D03*
X129466Y282588D02*
D03*
X119466D02*
D03*
X109466D02*
D03*
X89466D02*
D03*
X79466D02*
D03*
X283466Y242088D02*
D03*
X268466D02*
D03*
X253466D02*
D03*
X269466Y220088D02*
D03*
X284466D02*
D03*
X299466D02*
D03*
X282966Y198088D02*
D03*
X267966D02*
D03*
X252966D02*
D03*
X268966Y176088D02*
D03*
X283966D02*
D03*
X298966D02*
D03*
X282966Y155088D02*
D03*
X267966D02*
D03*
X252966D02*
D03*
X268966Y134088D02*
D03*
X283966D02*
D03*
X298966D02*
D03*
X283000Y113000D02*
D03*
X268000D02*
D03*
X253000D02*
D03*
X268000Y92000D02*
D03*
X283000D02*
D03*
X298000D02*
D03*
X281966Y71088D02*
D03*
X266966D02*
D03*
X251966D02*
D03*
X128466Y255088D02*
D03*
X143466D02*
D03*
X158466D02*
D03*
X142466Y233088D02*
D03*
X127466D02*
D03*
X112466D02*
D03*
X128966Y210210D02*
D03*
X143966D02*
D03*
X158966D02*
D03*
X142966Y187710D02*
D03*
X127966D02*
D03*
X112966D02*
D03*
X128466Y165710D02*
D03*
X143466D02*
D03*
X158466D02*
D03*
X142966Y142710D02*
D03*
X127966D02*
D03*
X112966D02*
D03*
X128966Y119710D02*
D03*
X143966D02*
D03*
X158966D02*
D03*
X143000Y98000D02*
D03*
X128000D02*
D03*
X113000D02*
D03*
X128466Y73710D02*
D03*
X143466D02*
D03*
X158466D02*
D03*
X142500Y50500D02*
D03*
X127500D02*
D03*
X112500D02*
D03*
D114*
X69966Y320588D02*
D03*
X69466Y282588D02*
D03*
X298466Y242088D02*
D03*
X254466Y220088D02*
D03*
X297966Y198088D02*
D03*
X253966Y176088D02*
D03*
X297966Y155088D02*
D03*
X253966Y134088D02*
D03*
X298000Y113000D02*
D03*
X253000Y92000D02*
D03*
X296966Y71088D02*
D03*
X113466Y255088D02*
D03*
X157466Y233088D02*
D03*
X113966Y210210D02*
D03*
X157966Y187710D02*
D03*
X113466Y165710D02*
D03*
X157966Y142710D02*
D03*
X113966Y119710D02*
D03*
X158000Y98000D02*
D03*
X113466Y73710D02*
D03*
X157500Y50500D02*
D03*
D115*
X362874Y227500D02*
D03*
Y247185D02*
D03*
Y266870D02*
D03*
Y286555D02*
D03*
Y306240D02*
D03*
Y325925D02*
D03*
X362000Y141370D02*
D03*
Y121685D02*
D03*
Y102000D02*
D03*
Y82315D02*
D03*
X28004Y162000D02*
D03*
Y182000D02*
D03*
Y202000D02*
D03*
Y222000D02*
D03*
D116*
X250075Y352705D02*
D03*
X143776D02*
D03*
X250075Y27114D02*
D03*
X143776D02*
D03*
D117*
X379012Y16091D02*
D03*
X14839Y14122D02*
D03*
X378618Y379083D02*
D03*
X15626D02*
D03*
D118*
X196850Y92850D02*
D03*
X236000Y94000D02*
D03*
X78000Y237500D02*
D03*
X87500D02*
D03*
X70500Y226000D02*
D03*
X82500Y237500D02*
D03*
X70500Y222000D02*
D03*
Y217500D02*
D03*
X66000Y226000D02*
D03*
Y222000D02*
D03*
Y217500D02*
D03*
X60689Y226500D02*
D03*
X215255Y23386D02*
D03*
X78000Y139500D02*
D03*
X83500D02*
D03*
X204500Y26000D02*
D03*
X207000D02*
D03*
Y24000D02*
D03*
X183500Y335000D02*
D03*
X218500D02*
D03*
X52000Y209000D02*
D03*
X229500Y95000D02*
D03*
X233000Y94500D02*
D03*
X246500Y93500D02*
D03*
Y96500D02*
D03*
X137500Y38000D02*
D03*
X133500D02*
D03*
Y44000D02*
D03*
X130500D02*
D03*
X149500Y11000D02*
D03*
X147000D02*
D03*
Y8500D02*
D03*
X149500D02*
D03*
X144500Y11000D02*
D03*
Y8500D02*
D03*
X256000Y277000D02*
D03*
X250500D02*
D03*
X240000Y84500D02*
D03*
X217144Y138856D02*
D03*
X177000Y150000D02*
D03*
X183000D02*
D03*
X207851Y140649D02*
D03*
X204500Y144000D02*
D03*
X170000Y97500D02*
D03*
X177000Y324000D02*
D03*
X180000Y302000D02*
D03*
X245500Y299000D02*
D03*
Y302500D02*
D03*
X243000Y300500D02*
D03*
Y297000D02*
D03*
X242129Y293532D02*
D03*
X222500Y26000D02*
D03*
Y23500D02*
D03*
X226000Y26000D02*
D03*
X230500D02*
D03*
X226000Y23500D02*
D03*
X230500D02*
D03*
X210459Y24239D02*
D03*
X235000Y21500D02*
D03*
X200000Y220500D02*
D03*
X317000Y142500D02*
D03*
X317500Y80500D02*
D03*
X314500Y82000D02*
D03*
X318000Y101500D02*
D03*
X315000Y103000D02*
D03*
X316500Y122500D02*
D03*
X308000Y103000D02*
D03*
X314000Y124000D02*
D03*
X300500D02*
D03*
X352000Y191500D02*
D03*
Y195000D02*
D03*
X264500Y24000D02*
D03*
X261000D02*
D03*
X257500D02*
D03*
X179500D02*
D03*
X275000Y211500D02*
D03*
X279000D02*
D03*
X275000Y209000D02*
D03*
X279000D02*
D03*
X238000Y227586D02*
D03*
X286500Y230500D02*
D03*
X255000Y310500D02*
D03*
X257500D02*
D03*
X224500Y283500D02*
D03*
X225500Y286000D02*
D03*
X223500Y280500D02*
D03*
X217500Y212500D02*
D03*
X225000Y205500D02*
D03*
X177433Y144400D02*
D03*
X322500Y193000D02*
D03*
Y191000D02*
D03*
X356000Y168000D02*
D03*
X276000Y198500D02*
D03*
X297500Y231000D02*
D03*
X292000D02*
D03*
X305000Y230500D02*
D03*
X276000Y202000D02*
D03*
X193786Y143000D02*
D03*
X170500Y133500D02*
D03*
X167000Y107500D02*
D03*
X127500Y130500D02*
D03*
X239000Y218000D02*
D03*
X294000Y272500D02*
D03*
X298500D02*
D03*
X242000Y282000D02*
D03*
X237000Y220000D02*
D03*
X234000Y211000D02*
D03*
X193500Y145500D02*
D03*
X182500Y122500D02*
D03*
X98500Y105000D02*
D03*
X236000Y49000D02*
D03*
X229500Y50500D02*
D03*
X230500Y47000D02*
D03*
X233500Y53000D02*
D03*
X298500Y165500D02*
D03*
X304000Y149500D02*
D03*
X209000Y143500D02*
D03*
X204500Y24000D02*
D03*
X98000Y245500D02*
D03*
X78500Y91000D02*
D03*
X80500Y89000D02*
D03*
X84000Y84500D02*
D03*
Y80000D02*
D03*
X366500Y50500D02*
D03*
X362500D02*
D03*
X358000Y50000D02*
D03*
X366500Y44000D02*
D03*
X362500D02*
D03*
X358500D02*
D03*
X321000Y247500D02*
D03*
X312500Y233000D02*
D03*
X317000Y230000D02*
D03*
Y185000D02*
D03*
Y207000D02*
D03*
Y164000D02*
D03*
X311500Y190500D02*
D03*
X208000Y110000D02*
D03*
X200000D02*
D03*
X208000Y117000D02*
D03*
X200500D02*
D03*
X208000Y124000D02*
D03*
X200500D02*
D03*
X361000Y168000D02*
D03*
X350500D02*
D03*
X345500Y165000D02*
D03*
X350500D02*
D03*
X356000D02*
D03*
X361000D02*
D03*
X182500Y107886D02*
D03*
X182000Y99000D02*
D03*
X183500Y75693D02*
D03*
X362000Y132000D02*
D03*
X372000Y142000D02*
D03*
Y131500D02*
D03*
Y120500D02*
D03*
X361500Y152000D02*
D03*
X351500D02*
D03*
X363000Y74000D02*
D03*
X371500Y76000D02*
D03*
X363000Y92000D02*
D03*
X371500Y105000D02*
D03*
Y95500D02*
D03*
Y86500D02*
D03*
X161500Y85500D02*
D03*
X159000D02*
D03*
X167000Y92000D02*
D03*
X170110Y109110D02*
D03*
X166500Y88000D02*
D03*
X209000Y93000D02*
D03*
X205500D02*
D03*
X109002Y57686D02*
D03*
X111100Y60160D02*
D03*
X187500Y65791D02*
D03*
X72500Y266000D02*
D03*
X66000D02*
D03*
X59000D02*
D03*
X87500Y256000D02*
D03*
X34500Y255000D02*
D03*
X107500Y109000D02*
D03*
X105500Y220500D02*
D03*
Y198000D02*
D03*
Y176500D02*
D03*
Y153500D02*
D03*
X95250Y198750D02*
D03*
X93000Y129500D02*
D03*
Y152500D02*
D03*
X93500Y179000D02*
D03*
X93000Y217000D02*
D03*
X94086Y220000D02*
D03*
X92500Y197361D02*
D03*
X94086Y175000D02*
D03*
X92500Y233500D02*
D03*
X57500Y243500D02*
D03*
Y247000D02*
D03*
X87500Y252500D02*
D03*
X104000Y130000D02*
D03*
X204000Y58000D02*
D03*
X209000D02*
D03*
X188000Y70000D02*
D03*
X89500Y89000D02*
D03*
X63000Y77000D02*
D03*
X78500Y249000D02*
D03*
X78000Y240500D02*
D03*
X82500D02*
D03*
X87500D02*
D03*
X50500Y230000D02*
D03*
X47000D02*
D03*
X43000D02*
D03*
Y233000D02*
D03*
X47000D02*
D03*
X50500D02*
D03*
X87000Y181500D02*
D03*
Y167500D02*
D03*
Y160500D02*
D03*
X87500Y153000D02*
D03*
X60000Y139500D02*
D03*
X66500D02*
D03*
X72500D02*
D03*
X55000D02*
D03*
X62000Y94414D02*
D03*
X89500Y64500D02*
D03*
X61500Y59500D02*
D03*
X89630Y16000D02*
D03*
X94000Y63500D02*
D03*
X84917Y204416D02*
D03*
X51500Y330500D02*
D03*
X53500Y290500D02*
D03*
X95000Y266500D02*
D03*
Y106000D02*
D03*
X90500Y79500D02*
D03*
X89500Y52500D02*
D03*
X62000Y224500D02*
D03*
X87500Y174000D02*
D03*
X89500Y198500D02*
D03*
X87500Y195500D02*
D03*
X66500Y173500D02*
D03*
X41500Y199000D02*
D03*
X42000Y211500D02*
D03*
X72638Y84586D02*
D03*
X13000Y42500D02*
D03*
X24500Y34000D02*
D03*
X17500Y42500D02*
D03*
X239000Y367000D02*
D03*
X241500Y381500D02*
D03*
X221000D02*
D03*
X180000Y382000D02*
D03*
X136500D02*
D03*
X52500Y338500D02*
D03*
X112000Y344000D02*
D03*
X161500Y318000D02*
D03*
X166000Y314500D02*
D03*
X217500Y270500D02*
D03*
X198500Y287500D02*
D03*
X196000Y291000D02*
D03*
X193000Y293000D02*
D03*
X214000Y271000D02*
D03*
X155000Y365000D02*
D03*
X201000Y381500D02*
D03*
X156500Y382000D02*
D03*
X226500Y305500D02*
D03*
X224500Y309500D02*
D03*
X180000Y368500D02*
D03*
X177500Y365000D02*
D03*
X175000Y368500D02*
D03*
X172500Y365000D02*
D03*
X170500Y369000D02*
D03*
X166500D02*
D03*
X168500Y365000D02*
D03*
X219000Y288000D02*
D03*
X219500Y283500D02*
D03*
X217000Y281000D02*
D03*
X214000Y283500D02*
D03*
X212000Y281000D02*
D03*
X204000D02*
D03*
X208000D02*
D03*
X163500Y365000D02*
D03*
X161500Y369000D02*
D03*
X154000D02*
D03*
X159500Y365000D02*
D03*
X151500Y367500D02*
D03*
X157500Y369000D02*
D03*
X206000Y283500D02*
D03*
X149000Y369000D02*
D03*
X210000Y283500D02*
D03*
X235000Y367000D02*
D03*
X237000Y369000D02*
D03*
X241000D02*
D03*
X243500Y367000D02*
D03*
X246000Y369000D02*
D03*
X243000Y304000D02*
D03*
X245500Y294000D02*
D03*
X229500Y292000D02*
D03*
X223000Y335000D02*
D03*
X218000Y319500D02*
D03*
X176500Y331500D02*
D03*
X182500Y320000D02*
D03*
X173000Y330500D02*
D03*
X158142Y299500D02*
D03*
X180000Y298000D02*
D03*
X193000Y269000D02*
D03*
X184500Y278000D02*
D03*
X181000Y275500D02*
D03*
X40000Y264000D02*
D03*
X34500Y259500D02*
D03*
X37500Y262000D02*
D03*
X39500Y125500D02*
D03*
X36500Y122000D02*
D03*
X33000Y125500D02*
D03*
X42000Y123000D02*
D03*
X110500Y19000D02*
D03*
X131543Y10500D02*
D03*
X107457Y10000D02*
D03*
X164500Y22500D02*
D03*
X161500Y23000D02*
D03*
X157500Y10899D02*
D03*
X153500Y10250D02*
D03*
X268000Y13500D02*
D03*
X163000Y282000D02*
D03*
X162500Y279000D02*
D03*
X164000Y276000D02*
D03*
X167000Y282500D02*
D03*
X194430Y71658D02*
D03*
X192000Y71500D02*
D03*
X99000Y90000D02*
D03*
X192000Y258500D02*
D03*
X213500Y255500D02*
D03*
X216000Y258000D02*
D03*
X209500Y229500D02*
D03*
X275500Y92500D02*
D03*
X279000Y97500D02*
D03*
X293000Y124000D02*
D03*
X289000Y124500D02*
D03*
X210500Y221000D02*
D03*
Y225500D02*
D03*
X184914Y247500D02*
D03*
X190500Y270500D02*
D03*
X181500Y256500D02*
D03*
X183000Y249500D02*
D03*
X197000Y239000D02*
D03*
X200000Y242500D02*
D03*
X209000Y242000D02*
D03*
X192500Y241500D02*
D03*
X213000Y246000D02*
D03*
X289000Y146000D02*
D03*
X202500Y146500D02*
D03*
X187500Y270500D02*
D03*
X213500Y213500D02*
D03*
X181500Y270500D02*
D03*
X184500D02*
D03*
X209500Y213500D02*
D03*
X205000D02*
D03*
X192000Y208500D02*
D03*
X181650Y206221D02*
D03*
X178000Y180000D02*
D03*
X196618Y184000D02*
D03*
X201000Y175000D02*
D03*
X213000Y150000D02*
D03*
X230000Y148500D02*
D03*
X196500Y140000D02*
D03*
X226000Y48500D02*
D03*
X227500Y54000D02*
D03*
X127500Y22500D02*
D03*
X170500Y178000D02*
D03*
X319000Y60500D02*
D03*
X237500Y126000D02*
D03*
X240500Y123000D02*
D03*
X243000Y104500D02*
D03*
X243500Y119500D02*
D03*
X297000Y51000D02*
D03*
X217500Y104000D02*
D03*
X94000Y39500D02*
D03*
X170500Y159000D02*
D03*
X137500Y151500D02*
D03*
X133000Y131500D02*
D03*
X172500Y161500D02*
D03*
X170000Y164000D02*
D03*
X188000Y203000D02*
D03*
X94733Y109138D02*
D03*
X172000Y166500D02*
D03*
X138500Y174914D02*
D03*
X129500Y176500D02*
D03*
X143500Y178500D02*
D03*
X94000Y155500D02*
D03*
X94500Y132500D02*
D03*
X170500Y169500D02*
D03*
X132500Y202500D02*
D03*
X126873Y198969D02*
D03*
X189500Y200500D02*
D03*
X144000Y200000D02*
D03*
X141000Y197500D02*
D03*
X130000Y200000D02*
D03*
X189000Y190000D02*
D03*
X95000Y245500D02*
D03*
X188000Y198000D02*
D03*
Y193000D02*
D03*
X189000Y195500D02*
D03*
D119*
X311500Y161000D02*
D03*
Y154000D02*
D03*
X273500Y166500D02*
D03*
X279500D02*
D03*
M02*
