G04*
G04 #@! TF.GenerationSoftware,Altium Limited,Altium Designer,20.0.13 (296)*
G04*
G04 Layer_Physical_Order=4*
G04 Layer_Color=16711680*
%FSLAX25Y25*%
%MOIN*%
G70*
G01*
G75*
%ADD16C,0.01000*%
%ADD105C,0.00400*%
%ADD107C,0.00810*%
%ADD109C,0.06378*%
%ADD110C,0.11417*%
%ADD111C,0.05906*%
%ADD112C,0.09449*%
%ADD113C,0.04528*%
%ADD114R,0.04528X0.04528*%
%ADD115C,0.08268*%
%ADD116C,0.05709*%
%ADD117C,0.19685*%
%ADD118C,0.01772*%
%ADD119C,0.05000*%
%ADD120C,0.04000*%
G36*
X324000Y248500D02*
Y230000D01*
X323000Y229000D01*
X315000D01*
X314000Y230000D01*
Y249000D01*
X315000Y250000D01*
X322500D01*
X324000Y248500D01*
D02*
G37*
G36*
X282500Y223500D02*
Y221902D01*
X282139Y221431D01*
X281870Y220783D01*
X281779Y220088D01*
X281870Y219392D01*
X282139Y218744D01*
X282500Y218273D01*
Y209500D01*
X280500Y207500D01*
X264500D01*
X263000Y209000D01*
Y223500D01*
X264500Y225000D01*
X281000D01*
X282500Y223500D01*
D02*
G37*
G36*
X348500Y222500D02*
X348500Y186000D01*
X376500D01*
X379500Y183000D01*
Y130500D01*
X376500Y127500D01*
X281000D01*
X276000Y122500D01*
Y106500D01*
X269000Y99500D01*
X196000D01*
Y100000D01*
X194000Y102000D01*
X194091Y101817D01*
X194000Y101726D01*
Y128000D01*
X196000Y130000D01*
X236000D01*
X248500Y142500D01*
X307000Y142500D01*
X316000Y151500D01*
Y162400D01*
X316437Y162680D01*
X316500Y162687D01*
X317000Y162587D01*
X317541Y162695D01*
X317999Y163001D01*
X318305Y163459D01*
X318413Y164000D01*
X318305Y164541D01*
X317999Y164999D01*
X317541Y165305D01*
X317000Y165413D01*
X316500Y165313D01*
X316437Y165320D01*
X316000Y165600D01*
X316000Y167000D01*
X291500D01*
X289000Y169500D01*
Y177000D01*
X286500Y179500D01*
X266500D01*
X264500Y177500D01*
Y148500D01*
X261000Y145000D01*
X244500D01*
X243000Y146500D01*
Y183000D01*
Y203000D01*
X246000Y206000D01*
X261000D01*
X263500Y203500D01*
Y195000D01*
X266000Y192500D01*
X305000D01*
X308500Y189000D01*
X317500D01*
X320500Y186000D01*
X324000D01*
X325000Y187000D01*
Y198500D01*
X317954Y205546D01*
X317999Y206001D01*
X318305Y206459D01*
X318413Y207000D01*
X318305Y207541D01*
X317999Y207999D01*
X317541Y208305D01*
X317000Y208413D01*
X316459Y208305D01*
X316001Y207999D01*
X315546Y207954D01*
X313500Y210000D01*
X293500D01*
X290000Y213500D01*
Y220000D01*
X298000Y228000D01*
X343000D01*
X348500Y222500D01*
D02*
G37*
G36*
X287000Y164000D02*
X300500D01*
X303067Y166567D01*
X315500D01*
Y151612D01*
X313388Y149500D01*
X308500D01*
X307000Y151000D01*
X290000D01*
X289000Y152000D01*
X289000Y154000D01*
X284000Y159000D01*
X266000D01*
X265000Y160000D01*
Y170000D01*
X267000Y172000D01*
X279000D01*
X287000Y164000D01*
D02*
G37*
G36*
X216000Y143000D02*
X240000D01*
X241907Y141093D01*
X239567Y136796D01*
D01*
X237227Y132500D01*
X196500Y132500D01*
X192500Y128500D01*
Y113000D01*
X190500Y111000D01*
X167500D01*
X163000Y106500D01*
X150000D01*
X147500Y109000D01*
Y131500D01*
X154360Y138851D01*
X195629D01*
X195689Y138875D01*
X195959Y138695D01*
X196500Y138587D01*
X197041Y138695D01*
X197499Y139001D01*
X197805Y139459D01*
X197913Y140000D01*
X197945Y140040D01*
X198500Y140053D01*
Y144000D01*
X200000Y145500D01*
X201502D01*
X201959Y145195D01*
X202500Y145087D01*
X203041Y145195D01*
X203498Y145500D01*
X213500D01*
X216000Y143000D01*
D02*
G37*
G36*
X249000Y98500D02*
Y93000D01*
X247500Y91500D01*
X234735D01*
X234374Y91649D01*
X228351D01*
X227500Y92500D01*
Y99000D01*
X248500D01*
X249000Y98500D01*
D02*
G37*
%LPC*%
G36*
X269666Y222748D02*
Y220288D01*
X272126D01*
X272061Y220783D01*
X271793Y221431D01*
X271366Y221988D01*
X270809Y222415D01*
X270161Y222683D01*
X269666Y222748D01*
D02*
G37*
G36*
X269266D02*
X268770Y222683D01*
X268122Y222415D01*
X267566Y221988D01*
X267139Y221431D01*
X266870Y220783D01*
X266805Y220288D01*
X269266D01*
Y222748D01*
D02*
G37*
G36*
X272126Y219888D02*
X269666D01*
Y217427D01*
X270161Y217492D01*
X270809Y217761D01*
X271366Y218188D01*
X271793Y218744D01*
X272061Y219392D01*
X272126Y219888D01*
D02*
G37*
G36*
X269266D02*
X266805D01*
X266870Y219392D01*
X267139Y218744D01*
X267566Y218188D01*
X268122Y217761D01*
X268770Y217492D01*
X269266Y217427D01*
Y219888D01*
D02*
G37*
G36*
X299666Y222748D02*
Y220288D01*
X302126D01*
X302061Y220783D01*
X301793Y221431D01*
X301366Y221988D01*
X300809Y222415D01*
X300161Y222683D01*
X299666Y222748D01*
D02*
G37*
G36*
X299266D02*
X298770Y222683D01*
X298122Y222415D01*
X297566Y221988D01*
X297139Y221431D01*
X296870Y220783D01*
X296805Y220288D01*
X299266D01*
Y222748D01*
D02*
G37*
G36*
X302126Y219888D02*
X299666D01*
Y217427D01*
X300161Y217492D01*
X300809Y217761D01*
X301366Y218188D01*
X301793Y218744D01*
X302061Y219392D01*
X302126Y219888D01*
D02*
G37*
G36*
X299266D02*
X296805D01*
X296870Y219392D01*
X297139Y218744D01*
X297566Y218188D01*
X298122Y217761D01*
X298770Y217492D01*
X299266Y217427D01*
Y219888D01*
D02*
G37*
G36*
X253166Y200748D02*
Y198288D01*
X255626D01*
X255561Y198783D01*
X255293Y199431D01*
X254866Y199988D01*
X254309Y200415D01*
X253661Y200683D01*
X253166Y200748D01*
D02*
G37*
G36*
X252766D02*
X252270Y200683D01*
X251622Y200415D01*
X251066Y199988D01*
X250639Y199431D01*
X250370Y198783D01*
X250305Y198288D01*
X252766D01*
Y200748D01*
D02*
G37*
G36*
X255626Y197888D02*
X253166D01*
Y195427D01*
X253661Y195492D01*
X254309Y195761D01*
X254866Y196188D01*
X255293Y196744D01*
X255561Y197392D01*
X255626Y197888D01*
D02*
G37*
G36*
X252766D02*
X250305D01*
X250370Y197392D01*
X250639Y196744D01*
X251066Y196188D01*
X251622Y195761D01*
X252270Y195492D01*
X252766Y195427D01*
Y197888D01*
D02*
G37*
G36*
X317000Y186413D02*
X316459Y186305D01*
X316001Y185999D01*
X315695Y185541D01*
X315587Y185000D01*
X315695Y184459D01*
X316001Y184001D01*
X316459Y183695D01*
X317000Y183587D01*
X317541Y183695D01*
X317999Y184001D01*
X318305Y184459D01*
X318413Y185000D01*
X318305Y185541D01*
X317999Y185999D01*
X317541Y186305D01*
X317000Y186413D01*
D02*
G37*
G36*
X299166Y178748D02*
Y176288D01*
X301626D01*
X301561Y176783D01*
X301293Y177431D01*
X300866Y177988D01*
X300309Y178415D01*
X299661Y178683D01*
X299166Y178748D01*
D02*
G37*
G36*
X298766D02*
X298270Y178683D01*
X297622Y178415D01*
X297066Y177988D01*
X296639Y177431D01*
X296370Y176783D01*
X296305Y176288D01*
X298766D01*
Y178748D01*
D02*
G37*
G36*
X301626Y175888D02*
X299166D01*
Y173427D01*
X299661Y173492D01*
X300309Y173761D01*
X300866Y174188D01*
X301293Y174744D01*
X301561Y175392D01*
X301626Y175888D01*
D02*
G37*
G36*
X298766D02*
X296305D01*
X296370Y175392D01*
X296639Y174744D01*
X297066Y174188D01*
X297622Y173761D01*
X298270Y173492D01*
X298766Y173427D01*
Y175888D01*
D02*
G37*
G36*
X256630Y178752D02*
X251302D01*
Y173424D01*
X256630D01*
Y178752D01*
D02*
G37*
G36*
X371843Y166813D02*
X370352Y166617D01*
X368964Y166042D01*
X367771Y165127D01*
X366856Y163934D01*
X366281Y162545D01*
X366085Y161055D01*
X366281Y159565D01*
X366856Y158176D01*
X367771Y156984D01*
X368964Y156069D01*
X370352Y155493D01*
X371843Y155297D01*
X373333Y155493D01*
X374722Y156069D01*
X375914Y156984D01*
X376829Y158176D01*
X377404Y159565D01*
X377600Y161055D01*
X377404Y162545D01*
X376829Y163934D01*
X375914Y165127D01*
X374722Y166042D01*
X373333Y166617D01*
X371843Y166813D01*
D02*
G37*
G36*
X253166Y157748D02*
Y155288D01*
X255626D01*
X255561Y155783D01*
X255293Y156431D01*
X254866Y156988D01*
X254309Y157415D01*
X253661Y157683D01*
X253166Y157748D01*
D02*
G37*
G36*
X252766D02*
X252270Y157683D01*
X251622Y157415D01*
X251066Y156988D01*
X250639Y156431D01*
X250370Y155783D01*
X250305Y155288D01*
X252766D01*
Y157748D01*
D02*
G37*
G36*
X255626Y154888D02*
X253166D01*
Y152427D01*
X253661Y152492D01*
X254309Y152761D01*
X254866Y153188D01*
X255293Y153744D01*
X255561Y154392D01*
X255626Y154888D01*
D02*
G37*
G36*
X252766D02*
X250305D01*
X250370Y154392D01*
X250639Y153744D01*
X251066Y153188D01*
X251622Y152761D01*
X252270Y152492D01*
X252766Y152427D01*
Y154888D01*
D02*
G37*
G36*
X361500Y153413D02*
X360959Y153305D01*
X360501Y152999D01*
X360195Y152541D01*
X360087Y152000D01*
X360195Y151459D01*
X360501Y151001D01*
X360959Y150695D01*
X361500Y150587D01*
X362041Y150695D01*
X362499Y151001D01*
X362805Y151459D01*
X362913Y152000D01*
X362805Y152541D01*
X362499Y152999D01*
X362041Y153305D01*
X361500Y153413D01*
D02*
G37*
G36*
X351500D02*
X350959Y153305D01*
X350501Y152999D01*
X350195Y152541D01*
X350087Y152000D01*
X350195Y151459D01*
X350501Y151001D01*
X350959Y150695D01*
X351500Y150587D01*
X352041Y150695D01*
X352499Y151001D01*
X352805Y151459D01*
X352913Y152000D01*
X352805Y152541D01*
X352499Y152999D01*
X352041Y153305D01*
X351500Y153413D01*
D02*
G37*
G36*
X317000Y143913D02*
X316459Y143805D01*
X316001Y143499D01*
X315695Y143041D01*
X315587Y142500D01*
X315695Y141959D01*
X316001Y141501D01*
X316459Y141195D01*
X317000Y141087D01*
X317541Y141195D01*
X317999Y141501D01*
X318305Y141959D01*
X318413Y142500D01*
X318305Y143041D01*
X317999Y143499D01*
X317541Y143805D01*
X317000Y143913D01*
D02*
G37*
G36*
X372000Y143413D02*
X371459Y143305D01*
X371001Y142999D01*
X370695Y142541D01*
X370587Y142000D01*
X370695Y141459D01*
X371001Y141001D01*
X371459Y140695D01*
X372000Y140587D01*
X372541Y140695D01*
X372999Y141001D01*
X373305Y141459D01*
X373413Y142000D01*
X373305Y142541D01*
X372999Y142999D01*
X372541Y143305D01*
X372000Y143413D01*
D02*
G37*
G36*
X362000Y145943D02*
X360816Y145787D01*
X359714Y145330D01*
X358766Y144604D01*
X358040Y143657D01*
X357583Y142554D01*
X357427Y141370D01*
X357583Y140187D01*
X358040Y139084D01*
X358766Y138136D01*
X359714Y137410D01*
X360816Y136953D01*
X362000Y136797D01*
X363184Y136953D01*
X364286Y137410D01*
X365234Y138136D01*
X365960Y139084D01*
X366417Y140187D01*
X366573Y141370D01*
X366417Y142554D01*
X365960Y143657D01*
X365234Y144604D01*
X364286Y145330D01*
X363184Y145787D01*
X362000Y145943D01*
D02*
G37*
G36*
X256630Y136752D02*
X251302D01*
Y131424D01*
X256630D01*
Y136752D01*
D02*
G37*
G36*
X298966Y136775D02*
X298270Y136683D01*
X297622Y136415D01*
X297066Y135988D01*
X296639Y135431D01*
X296370Y134783D01*
X296279Y134088D01*
X296370Y133392D01*
X296639Y132744D01*
X297066Y132188D01*
X297622Y131761D01*
X298270Y131492D01*
X298966Y131401D01*
X299661Y131492D01*
X300309Y131761D01*
X300866Y132188D01*
X301293Y132744D01*
X301561Y133392D01*
X301653Y134088D01*
X301561Y134783D01*
X301293Y135431D01*
X300866Y135988D01*
X300309Y136415D01*
X299661Y136683D01*
X298966Y136775D01*
D02*
G37*
G36*
X283966D02*
X283270Y136683D01*
X282622Y136415D01*
X282066Y135988D01*
X281639Y135431D01*
X281370Y134783D01*
X281279Y134088D01*
X281370Y133392D01*
X281639Y132744D01*
X282066Y132188D01*
X282622Y131761D01*
X283270Y131492D01*
X283966Y131401D01*
X284661Y131492D01*
X285309Y131761D01*
X285866Y132188D01*
X286293Y132744D01*
X286561Y133392D01*
X286653Y134088D01*
X286561Y134783D01*
X286293Y135431D01*
X285866Y135988D01*
X285309Y136415D01*
X284661Y136683D01*
X283966Y136775D01*
D02*
G37*
G36*
X268966D02*
X268270Y136683D01*
X267622Y136415D01*
X267066Y135988D01*
X266639Y135431D01*
X266370Y134783D01*
X266279Y134088D01*
X266370Y133392D01*
X266639Y132744D01*
X267066Y132188D01*
X267622Y131761D01*
X268270Y131492D01*
X268966Y131401D01*
X269661Y131492D01*
X270309Y131761D01*
X270866Y132188D01*
X271293Y132744D01*
X271561Y133392D01*
X271653Y134088D01*
X271561Y134783D01*
X271293Y135431D01*
X270866Y135988D01*
X270309Y136415D01*
X269661Y136683D01*
X268966Y136775D01*
D02*
G37*
G36*
X362000Y133413D02*
X361459Y133305D01*
X361001Y132999D01*
X360695Y132541D01*
X360587Y132000D01*
X360695Y131459D01*
X361001Y131001D01*
X361459Y130695D01*
X362000Y130587D01*
X362541Y130695D01*
X362999Y131001D01*
X363305Y131459D01*
X363413Y132000D01*
X363305Y132541D01*
X362999Y132999D01*
X362541Y133305D01*
X362000Y133413D01*
D02*
G37*
G36*
X372000Y132913D02*
X371459Y132805D01*
X371001Y132499D01*
X370695Y132041D01*
X370587Y131500D01*
X370695Y130959D01*
X371001Y130501D01*
X371459Y130195D01*
X372000Y130087D01*
X372541Y130195D01*
X372999Y130501D01*
X373305Y130959D01*
X373413Y131500D01*
X373305Y132041D01*
X372999Y132499D01*
X372541Y132805D01*
X372000Y132913D01*
D02*
G37*
G36*
X237500Y127413D02*
X236959Y127305D01*
X236501Y126999D01*
X236195Y126541D01*
X236087Y126000D01*
X236195Y125459D01*
X236501Y125001D01*
X236959Y124695D01*
X237500Y124587D01*
X238041Y124695D01*
X238499Y125001D01*
X238805Y125459D01*
X238913Y126000D01*
X238805Y126541D01*
X238499Y126999D01*
X238041Y127305D01*
X237500Y127413D01*
D02*
G37*
G36*
X240500Y124413D02*
X239959Y124305D01*
X239501Y123999D01*
X239195Y123541D01*
X239087Y123000D01*
X239195Y122459D01*
X239501Y122001D01*
X239959Y121695D01*
X240500Y121587D01*
X241041Y121695D01*
X241499Y122001D01*
X241805Y122459D01*
X241913Y123000D01*
X241805Y123541D01*
X241499Y123999D01*
X241041Y124305D01*
X240500Y124413D01*
D02*
G37*
G36*
X243500Y120913D02*
X242959Y120805D01*
X242501Y120499D01*
X242195Y120041D01*
X242087Y119500D01*
X242195Y118959D01*
X242501Y118501D01*
X242959Y118195D01*
X243500Y118087D01*
X244041Y118195D01*
X244499Y118501D01*
X244805Y118959D01*
X244913Y119500D01*
X244805Y120041D01*
X244499Y120499D01*
X244041Y120805D01*
X243500Y120913D01*
D02*
G37*
G36*
X268000Y115687D02*
X267305Y115595D01*
X266656Y115327D01*
X266100Y114900D01*
X265673Y114344D01*
X265405Y113695D01*
X265313Y113000D01*
X265405Y112305D01*
X265673Y111656D01*
X266100Y111100D01*
X266656Y110673D01*
X267305Y110405D01*
X268000Y110313D01*
X268695Y110405D01*
X269343Y110673D01*
X269900Y111100D01*
X270327Y111656D01*
X270595Y112305D01*
X270687Y113000D01*
X270595Y113695D01*
X270327Y114344D01*
X269900Y114900D01*
X269343Y115327D01*
X268695Y115595D01*
X268000Y115687D01*
D02*
G37*
G36*
X253000D02*
X252305Y115595D01*
X251657Y115327D01*
X251100Y114900D01*
X250673Y114344D01*
X250405Y113695D01*
X250313Y113000D01*
X250405Y112305D01*
X250673Y111656D01*
X251100Y111100D01*
X251657Y110673D01*
X252305Y110405D01*
X253000Y110313D01*
X253695Y110405D01*
X254344Y110673D01*
X254900Y111100D01*
X255327Y111656D01*
X255595Y112305D01*
X255687Y113000D01*
X255595Y113695D01*
X255327Y114344D01*
X254900Y114900D01*
X254344Y115327D01*
X253695Y115595D01*
X253000Y115687D01*
D02*
G37*
G36*
X243000Y105913D02*
X242459Y105805D01*
X242001Y105499D01*
X241695Y105041D01*
X241587Y104500D01*
X241695Y103959D01*
X242001Y103501D01*
X242459Y103195D01*
X243000Y103087D01*
X243541Y103195D01*
X243999Y103501D01*
X244305Y103959D01*
X244413Y104500D01*
X244305Y105041D01*
X243999Y105499D01*
X243541Y105805D01*
X243000Y105913D01*
D02*
G37*
G36*
X217500Y105413D02*
X216959Y105305D01*
X216501Y104999D01*
X216195Y104541D01*
X216087Y104000D01*
X216195Y103459D01*
X216501Y103001D01*
X216959Y102695D01*
X217500Y102587D01*
X218041Y102695D01*
X218499Y103001D01*
X218805Y103459D01*
X218913Y104000D01*
X218805Y104541D01*
X218499Y104999D01*
X218041Y105305D01*
X217500Y105413D01*
D02*
G37*
G36*
X279500Y167149D02*
X279041Y166959D01*
X278851Y166500D01*
Y165500D01*
X279041Y165041D01*
X279500Y164851D01*
X280500D01*
X280959Y165041D01*
X281149Y165500D01*
X280959Y165959D01*
X280500Y166149D01*
X280149D01*
Y166500D01*
X279959Y166959D01*
X279500Y167149D01*
D02*
G37*
G36*
X300630Y157752D02*
X295302D01*
Y152424D01*
X300630D01*
Y157752D01*
D02*
G37*
G36*
X209000Y144913D02*
X208459Y144805D01*
X208001Y144499D01*
X207695Y144041D01*
X207587Y143500D01*
X207695Y142959D01*
X208001Y142501D01*
X208459Y142195D01*
X209000Y142087D01*
X209541Y142195D01*
X209999Y142501D01*
X210305Y142959D01*
X210413Y143500D01*
X210305Y144041D01*
X209999Y144499D01*
X209541Y144805D01*
X209000Y144913D01*
D02*
G37*
G36*
X217144Y140269D02*
X216603Y140161D01*
X216145Y139855D01*
X215839Y139397D01*
X215731Y138856D01*
X215839Y138315D01*
X216145Y137857D01*
X216603Y137550D01*
X217144Y137443D01*
X217685Y137550D01*
X218143Y137857D01*
X218449Y138315D01*
X218557Y138856D01*
X218449Y139397D01*
X218143Y139855D01*
X217899Y140018D01*
X217685Y140161D01*
X217144Y140269D01*
D02*
G37*
G36*
X170500Y134913D02*
X169959Y134805D01*
X169501Y134499D01*
X169195Y134041D01*
X169087Y133500D01*
X169195Y132959D01*
X169501Y132501D01*
X169959Y132195D01*
X170500Y132087D01*
X171041Y132195D01*
X171499Y132501D01*
X171805Y132959D01*
X171913Y133500D01*
X171805Y134041D01*
X171499Y134499D01*
X171041Y134805D01*
X170500Y134913D01*
D02*
G37*
G36*
X182500Y123913D02*
X181959Y123805D01*
X181501Y123499D01*
X181195Y123041D01*
X181087Y122500D01*
X181195Y121959D01*
X181501Y121501D01*
X181959Y121195D01*
X182500Y121087D01*
X183041Y121195D01*
X183499Y121501D01*
X183805Y121959D01*
X183913Y122500D01*
X183805Y123041D01*
X183499Y123499D01*
X183041Y123805D01*
X182500Y123913D01*
D02*
G37*
G36*
X158966Y122397D02*
X158270Y122305D01*
X157622Y122037D01*
X157066Y121610D01*
X156639Y121053D01*
X156370Y120405D01*
X156279Y119710D01*
X156370Y119014D01*
X156639Y118366D01*
X157066Y117810D01*
X157622Y117383D01*
X158270Y117114D01*
X158966Y117023D01*
X159661Y117114D01*
X160309Y117383D01*
X160866Y117810D01*
X161293Y118366D01*
X161561Y119014D01*
X161653Y119710D01*
X161561Y120405D01*
X161293Y121053D01*
X160866Y121610D01*
X160309Y122037D01*
X159661Y122305D01*
X158966Y122397D01*
D02*
G37*
G36*
X233000Y95913D02*
X232459Y95805D01*
X232001Y95499D01*
X231695Y95041D01*
X231587Y94500D01*
X231695Y93959D01*
X232001Y93501D01*
X232459Y93195D01*
X233000Y93087D01*
X233541Y93195D01*
X233999Y93501D01*
X234136Y93705D01*
X234667Y93600D01*
X234695Y93459D01*
X235001Y93001D01*
X235459Y92695D01*
X236000Y92587D01*
X236541Y92695D01*
X236999Y93001D01*
X237305Y93459D01*
X237413Y94000D01*
X237305Y94541D01*
X236999Y94999D01*
X236541Y95305D01*
X236000Y95413D01*
X235459Y95305D01*
X235001Y94999D01*
X234864Y94794D01*
X234333Y94900D01*
X234305Y95041D01*
X233999Y95499D01*
X233541Y95805D01*
X233000Y95913D01*
D02*
G37*
%LPD*%
D16*
X98500Y105000D02*
X98593Y105093D01*
X182500Y106000D02*
Y107886D01*
X181593Y105093D02*
X182500Y106000D01*
X98593Y105093D02*
X181593D01*
D105*
X191906Y91000D02*
X234374D01*
X237374Y88000D01*
X190800Y92106D02*
X191906Y91000D01*
X190800Y92106D02*
Y96281D01*
X191672Y97153D01*
Y102828D01*
X85086Y141657D02*
Y204247D01*
Y141657D02*
X85734Y141008D01*
Y92766D02*
Y141008D01*
Y92766D02*
X89500Y89000D01*
X186772Y337228D02*
X193000Y331000D01*
X151272Y337228D02*
X186772D01*
X149000Y339500D02*
X151272Y337228D01*
X216000Y321500D02*
X216114Y321614D01*
Y345886D01*
X202000Y360000D02*
X216114Y345886D01*
X216914Y324086D02*
Y348586D01*
X203000Y362500D02*
X216914Y348586D01*
Y324086D02*
X220000Y321000D01*
X237374Y88000D02*
X283000D01*
X235086Y82914D02*
X255139D01*
X229183Y88818D02*
X235086Y82914D01*
X255139D02*
X266966Y71088D01*
X167317Y88818D02*
X229183D01*
X166500Y88000D02*
X167317Y88818D01*
X139000Y125000D02*
X153500Y139500D01*
X195629D02*
X196129Y140000D01*
X196500D01*
X153500Y139500D02*
X195629D01*
X109000Y125000D02*
X139000D01*
X250500Y301757D02*
Y325000D01*
X245743Y297000D02*
X250500Y301757D01*
X243000Y297000D02*
X245743D01*
X249000Y302500D02*
Y326500D01*
X245500Y299000D02*
X249000Y302500D01*
X247500Y302257D02*
Y328000D01*
X245829Y300586D02*
X247500Y302257D01*
X243086Y300586D02*
X245829D01*
X243000Y300500D02*
X243086Y300586D01*
X245500Y302500D02*
Y339000D01*
X288000Y82000D02*
X314500D01*
X283000Y87000D02*
X288000Y82000D01*
X283000Y87000D02*
Y88000D01*
X308000Y103000D02*
X315000D01*
X283000Y88000D02*
Y92000D01*
X300500Y124000D02*
X314000D01*
X247000Y35000D02*
X253500D01*
X264500Y24000D01*
X256500Y26500D02*
X258500D01*
X261000Y24000D01*
X253978D02*
X257500D01*
X253053Y23076D02*
X253978Y24000D01*
X245924Y23076D02*
X253053D01*
X279500Y165500D02*
X280500D01*
X209500Y229500D02*
X211000Y231000D01*
X285629D01*
X286129Y230500D01*
X286500D01*
X210500Y225500D02*
X214172Y229172D01*
X251914D01*
X291000Y226000D02*
X296000Y231000D01*
X210500Y221000D02*
X215500Y226000D01*
X291000D01*
X289914Y228914D02*
X292000Y231000D01*
X251914Y229172D02*
X252172Y228914D01*
X289914D01*
X208000Y225500D02*
X210500D01*
X223000Y285000D02*
X224500Y283500D01*
X225500Y286000D02*
Y298500D01*
X223000Y285000D02*
Y298000D01*
X221500Y282500D02*
X223500Y280500D01*
X296000Y231000D02*
X297500D01*
X287095Y219595D02*
X296500Y229000D01*
X284958Y219595D02*
X287095D01*
X284466Y220088D02*
X284958Y219595D01*
X296500Y229000D02*
X303500D01*
X305000Y230500D01*
X271000Y233000D02*
X312500D01*
X268466Y235534D02*
X271000Y233000D01*
X268466Y235534D02*
Y242088D01*
X167000Y107500D02*
X175447D01*
X127500Y130500D02*
X129500Y128500D01*
X134000D01*
X85000Y54500D02*
X129200D01*
X141286Y42414D01*
X203000Y268500D02*
X326500D01*
X201000Y270500D02*
X203000Y268500D01*
X326500D02*
X342000Y284000D01*
X201000Y270500D02*
Y272500D01*
X193500Y280000D02*
X201000Y272500D01*
X51351Y41851D02*
X56000Y46500D01*
X63000D02*
X66000Y49500D01*
X56000Y46500D02*
X63000D01*
X66000Y53500D02*
X67800Y55300D01*
X66000Y49500D02*
Y53500D01*
X67800Y55300D02*
X220574D01*
X228643Y56100D02*
X229651Y55092D01*
Y50651D02*
Y55092D01*
X229500Y50500D02*
X229651Y50651D01*
X234414Y46540D02*
Y50914D01*
X236000Y52500D01*
Y54000D01*
X226000Y40000D02*
X233000Y47000D01*
X233500Y52629D02*
Y53000D01*
X233000Y52129D02*
X233500Y52629D01*
X233000Y47000D02*
Y52129D01*
X128500Y40000D02*
X226000D01*
X223874Y36000D02*
X234414Y46540D01*
X133500Y36000D02*
X223874D01*
X233250Y55500D02*
X234500D01*
X231500Y50257D02*
Y53750D01*
X233250Y55500D01*
X234500D02*
X236000Y54000D01*
X229743Y48500D02*
X231500Y50257D01*
X236000Y40000D02*
Y49000D01*
X227500Y31500D02*
X236000Y40000D01*
X226000Y48500D02*
X229743D01*
X228000Y47000D02*
X230500D01*
X287000Y165500D02*
X298500D01*
X279500D02*
Y166500D01*
X288500Y149500D02*
X304000D01*
X285000Y146000D02*
X288500Y149500D01*
X270500Y146000D02*
X285000D01*
X267966Y148534D02*
X270500Y146000D01*
X267966Y148534D02*
Y155088D01*
X175447Y107500D02*
X177947Y110000D01*
X96586Y247086D02*
X135464D01*
X95000Y245500D02*
X96586Y247086D01*
X135464D02*
X143466Y255088D01*
X308000Y194000D02*
X311500Y190500D01*
X267966Y194534D02*
X268500Y194000D01*
X308000D01*
X267966Y194534D02*
Y198088D01*
X283966Y168534D02*
Y176088D01*
Y168534D02*
X287000Y165500D01*
X177947Y110000D02*
X184500D01*
X191672Y102828D01*
X196193Y73307D02*
X197500Y72000D01*
X196524Y74107D02*
X199500Y71131D01*
X164693Y73307D02*
X196193D01*
X160500Y77500D02*
X164693Y73307D01*
X168762Y74107D02*
X196524D01*
X162369Y80500D02*
X168762Y74107D01*
X162157Y87086D02*
X170914Y78328D01*
X65914Y87086D02*
X162157D01*
X170914Y78328D02*
X190336D01*
X161500Y82500D02*
X166721Y77279D01*
X55000Y82500D02*
X161500D01*
X50500Y87000D02*
X55000Y82500D01*
X42000Y111000D02*
X65914Y87086D01*
X100414Y77914D02*
X103000Y80500D01*
X162369D01*
X65100Y56100D02*
X228643D01*
X77000Y46500D02*
X85000Y54500D01*
X220574Y55300D02*
X221874Y54000D01*
X61351Y52351D02*
X65100Y56100D01*
X221874Y54000D02*
X227500D01*
X34500Y255000D02*
X34500D01*
X37452Y257952D02*
X157279D01*
X34500Y255000D02*
X37452Y257952D01*
X107399Y109000D02*
X107500D01*
X106399Y108000D02*
X107399Y109000D01*
X97000Y108000D02*
X106399D01*
X95000Y106000D02*
X97000Y108000D01*
X94733Y109138D02*
X98094Y112500D01*
X140241D02*
X143966Y116225D01*
X98094Y112500D02*
X140241D01*
X102000Y217000D02*
X105500Y220500D01*
X93000Y217000D02*
X102000D01*
X104664Y197164D02*
X105500Y198000D01*
X92697Y197164D02*
X104664D01*
X92500Y197361D02*
X92697Y197164D01*
X104000Y175000D02*
X105500Y176500D01*
X94086Y175000D02*
X104000D01*
X93000Y152500D02*
X104399D01*
X105399Y153500D01*
X105500D01*
X95250Y198750D02*
X96500Y200000D01*
X122000D02*
X125086Y196914D01*
X96500Y200000D02*
X122000D01*
X127966Y184225D02*
Y187710D01*
X122740Y179000D02*
X127966Y184225D01*
X93500Y179000D02*
X122740D01*
X104000Y130000D02*
X109000Y125000D01*
X166721Y77279D02*
X194484D01*
X202000Y69763D01*
X190336Y78328D02*
X191507Y79500D01*
X202000Y66500D02*
Y69763D01*
X199500Y64000D02*
Y71131D01*
X238500Y62000D02*
X243000Y57500D01*
X199500Y64000D02*
X201500Y62000D01*
X238500D01*
X238000Y60000D02*
X241000Y57000D01*
X197500Y62000D02*
X199500Y60000D01*
X238000D01*
X36181Y78586D02*
X63657D01*
X30500Y84267D02*
X36181Y78586D01*
X30500Y84267D02*
Y97500D01*
X64328Y77914D02*
X100414D01*
X63657Y78586D02*
X64328Y77914D01*
X84917Y204416D02*
X85086Y204247D01*
X81000Y59500D02*
X86000Y64500D01*
X89500D01*
X61500Y59500D02*
X81000D01*
X89500Y15500D02*
X126500D01*
X94000Y63500D02*
X105625D01*
X239000Y346500D02*
Y367000D01*
X48500Y334500D02*
X52500Y338500D01*
X97500Y359500D02*
X103500Y353500D01*
Y344000D02*
Y353500D01*
Y344000D02*
X106500Y341000D01*
X112000Y344000D02*
X140000D01*
X150500Y325000D02*
Y333500D01*
X140000Y344000D02*
X150500Y333500D01*
Y325000D02*
X157500Y318000D01*
X161500D01*
X156500Y314500D02*
X166000D01*
X147500Y323500D02*
X156500Y314500D01*
X138000Y341000D02*
X147500Y331500D01*
Y323500D02*
Y331500D01*
X153000Y312000D02*
X180500D01*
X144500Y320500D02*
X153000Y312000D01*
X144500Y320500D02*
Y329500D01*
X106500Y341000D02*
X138000D01*
X93500Y335500D02*
X138500D01*
X144500Y329500D01*
X89000Y340000D02*
X93500Y335500D01*
X52500Y359500D02*
X97500D01*
X48658Y350366D02*
Y355658D01*
X52500Y359500D01*
X204500Y271000D02*
X214000D01*
X203000Y272500D02*
Y273500D01*
Y272500D02*
X204500Y271000D01*
X206500Y273500D02*
X215500D01*
X217349Y270651D02*
X217500Y270500D01*
X217349Y270651D02*
Y271651D01*
X215500Y273500D02*
X217349Y271651D01*
X88657Y350366D02*
X89000Y350024D01*
Y340000D02*
Y350024D01*
X68657Y344158D02*
Y350366D01*
X50500Y341500D02*
X66000D01*
X78000Y349709D02*
X78658Y350366D01*
X78000Y335500D02*
X80500Y333000D01*
X66000Y341500D02*
X68657Y344158D01*
X78000Y335500D02*
Y349709D01*
X80500Y333000D02*
X137500D01*
X142000Y328500D01*
Y319500D02*
Y328500D01*
Y319500D02*
X152000Y309500D01*
X179000D01*
X189000Y291000D02*
Y303500D01*
X180500Y312000D02*
X189000Y303500D01*
Y291000D02*
X206500Y273500D01*
X186500Y289000D02*
X194000Y281500D01*
X179000Y309500D02*
X186500Y302000D01*
Y289000D02*
Y302000D01*
X198500Y287500D02*
Y333000D01*
X190500Y341000D02*
X198500Y333000D01*
X196000Y291000D02*
Y331500D01*
X193000Y293000D02*
Y331000D01*
X188500Y339000D02*
X196000Y331500D01*
X26434Y257434D02*
X46000Y277000D01*
Y337000D02*
X50500Y341500D01*
X46000Y277000D02*
Y337000D01*
X195000Y281500D02*
X203000Y273500D01*
X194000Y281500D02*
X195000D01*
X155000Y345000D02*
Y365000D01*
X201000Y379000D02*
X203000Y377000D01*
X201000Y379000D02*
Y381500D01*
X203000Y377000D02*
X205500D01*
X230000Y316500D02*
Y352500D01*
X205500Y377000D02*
X230000Y352500D01*
X226500Y305500D02*
Y313000D01*
X230000Y316500D01*
X156500Y376000D02*
X158500Y374000D01*
X156500Y376000D02*
Y382000D01*
X158500Y374000D02*
X204500D01*
X228000Y318000D02*
Y350500D01*
X204500Y374000D02*
X228000Y350500D01*
X224500Y309500D02*
Y314500D01*
X228000Y318000D01*
X182500Y368500D02*
X183500Y367500D01*
X180000Y368500D02*
X182500D01*
X183500Y367500D02*
X205500D01*
X225500Y318500D02*
Y347500D01*
X205500Y367500D02*
X225500Y347500D01*
X222500Y315500D02*
X225500Y318500D01*
X222500Y301500D02*
Y315500D01*
X221000Y300000D02*
Y317000D01*
X222000Y318000D02*
Y321500D01*
X221000Y317000D02*
X222000Y318000D01*
X220500Y323000D02*
X222000Y321500D01*
X222500Y301500D02*
X225500Y298500D01*
X177500Y365000D02*
X204000D01*
X220500Y348500D01*
Y323000D02*
Y348500D01*
X221000Y300000D02*
X223000Y298000D01*
X221000Y289500D02*
X221500Y289000D01*
Y282500D02*
Y289000D01*
X175000Y363500D02*
X176000Y362500D01*
X175000Y363500D02*
Y368500D01*
X176000Y362500D02*
X203000D01*
X220000Y318000D02*
Y321000D01*
X219000Y299000D02*
Y317000D01*
X220000Y318000D01*
X221000Y289500D02*
Y297000D01*
X219000Y299000D02*
X221000Y297000D01*
X217000Y298000D02*
X219000Y296000D01*
Y288000D02*
Y296000D01*
X172500Y361000D02*
Y365000D01*
X173500Y360000D02*
X202000D01*
X172500Y361000D02*
X173500Y360000D01*
X170500Y359000D02*
X171500Y358000D01*
X169000Y356500D02*
X199500D01*
X201000Y358000D02*
X214500Y344500D01*
X199500Y356500D02*
X212500Y343500D01*
X171500Y358000D02*
X201000D01*
X168500Y357000D02*
X169000Y356500D01*
X170500Y359000D02*
Y369000D01*
X199000Y354000D02*
X211000Y342000D01*
X168000Y354000D02*
X199000D01*
X166500Y355500D02*
X168000Y354000D01*
X166500Y355500D02*
Y369000D01*
X168500Y357000D02*
Y365000D01*
X216000Y317500D02*
Y321500D01*
X217000Y298000D02*
Y316500D01*
X216000Y317500D02*
X217000Y316500D01*
X214500Y297000D02*
Y344500D01*
Y297000D02*
X217000Y294500D01*
Y286000D02*
Y294500D01*
X212500Y296000D02*
X215500Y293000D01*
Y285500D02*
Y293000D01*
Y285500D02*
X217000Y284000D01*
Y286000D02*
X219500Y283500D01*
X212500Y296000D02*
Y343500D01*
X217000Y281000D02*
Y284000D01*
X211000Y295000D02*
Y342000D01*
Y295000D02*
X214000Y292000D01*
Y283500D02*
Y292000D01*
X208000Y281000D02*
Y289000D01*
X204000Y281000D02*
Y286000D01*
X163500Y354000D02*
Y365000D01*
X165000Y352500D02*
X197000D01*
X163500Y354000D02*
X165000Y352500D01*
X197000D02*
X209500Y340000D01*
Y294000D02*
Y340000D01*
Y294000D02*
X212000Y291500D01*
Y281000D02*
Y291500D01*
X161500Y352000D02*
Y369000D01*
X151500Y367129D02*
Y367500D01*
X155000Y345000D02*
X157000Y343000D01*
X151000Y366629D02*
X151500Y367129D01*
X161500Y352000D02*
X163500Y350000D01*
X196000D01*
X207500Y293000D02*
Y338500D01*
X196000Y350000D02*
X207500Y338500D01*
X205500Y291500D02*
Y336500D01*
X194500Y347500D02*
X205500Y336500D01*
X203500Y290000D02*
X206000Y287500D01*
X201000Y289000D02*
Y334500D01*
X193500Y345500D02*
X203500Y335500D01*
X192500Y343000D02*
X201000Y334500D01*
Y289000D02*
X204000Y286000D01*
X203500Y290000D02*
Y335500D01*
X205500Y291500D02*
X208000Y289000D01*
X210000Y283500D02*
Y290500D01*
X207500Y293000D02*
X210000Y290500D01*
X159500Y349500D02*
Y365000D01*
X157500Y347500D02*
Y369000D01*
X154000Y367000D02*
Y369000D01*
X157500Y347500D02*
X159500Y345500D01*
Y349500D02*
X161500Y347500D01*
X194500D01*
X153000Y343000D02*
Y366000D01*
Y343000D02*
X155000Y341000D01*
X153000Y366000D02*
X154000Y367000D01*
X159500Y345500D02*
X193500D01*
X206000Y283500D02*
Y287500D01*
X157000Y343000D02*
X192500D01*
X155000Y341000D02*
X190500D01*
X149000Y339500D02*
Y369000D01*
X151000Y342000D02*
X154000Y339000D01*
X151000Y342000D02*
Y366629D01*
X154000Y339000D02*
X188500D01*
X235000Y343500D02*
Y367000D01*
X243000Y304000D02*
Y335500D01*
X235000Y343500D02*
X243000Y335500D01*
X237000Y345000D02*
Y369000D01*
X241000Y341000D02*
X243500D01*
X237000Y345000D02*
X241000Y341000D01*
X242500Y343000D02*
X247000D01*
X239000Y346500D02*
X242500Y343000D01*
X243500Y341000D02*
X245500Y339000D01*
X248500Y329000D02*
Y341500D01*
X247000Y343000D02*
X248500Y341500D01*
X247500Y328000D02*
X248500Y329000D01*
X244000Y345000D02*
X248500D01*
X250000Y327500D02*
Y343500D01*
X248500Y345000D02*
X250000Y343500D01*
X241000Y348000D02*
Y369000D01*
Y348000D02*
X244000Y345000D01*
X249000Y326500D02*
X250000Y327500D01*
X243500Y349000D02*
Y367000D01*
X245500Y347000D02*
X250000D01*
X243500Y349000D02*
X245500Y347000D01*
X252000Y326500D02*
Y345000D01*
X250000Y347000D02*
X252000Y345000D01*
X254113Y326245D02*
Y365887D01*
X251000Y369000D02*
X254113Y365887D01*
X252500Y324632D02*
X254113Y326245D01*
X250500Y325000D02*
X252000Y326500D01*
X246000Y369000D02*
X251000D01*
X252500Y296500D02*
Y324632D01*
X245500Y294000D02*
X250000D01*
X252500Y296500D01*
X320500Y346403D02*
X325597Y351500D01*
X320500Y334000D02*
Y346403D01*
Y334000D02*
X324000Y330500D01*
X337500D01*
X342000Y284000D02*
Y326000D01*
X337500Y330500D02*
X342000Y326000D01*
X328000Y265500D02*
X345000Y282500D01*
X340000Y333500D02*
X345000Y328500D01*
Y282500D02*
Y328500D01*
X348000Y281500D02*
Y348500D01*
X329500Y263000D02*
X348000Y281500D01*
X345000Y351500D02*
X348000Y348500D01*
X173500Y280000D02*
X193500D01*
X171500Y282000D02*
X173500Y280000D01*
X171500Y282000D02*
Y284500D01*
X170500Y285500D02*
X171500Y284500D01*
X163000Y284000D02*
X164500Y285500D01*
X170500D01*
X163000Y282000D02*
Y284000D01*
X315597Y351500D02*
X316000Y351903D01*
Y356000D01*
X318500Y358500D01*
X343500D02*
X351000Y351000D01*
X318500Y358500D02*
X343500D01*
X351000Y280500D02*
Y351000D01*
X331500Y261000D02*
X351000Y280500D01*
X197500Y261000D02*
X331500D01*
X195434Y263066D02*
Y269934D01*
Y263066D02*
X197500Y261000D01*
X191511Y271511D02*
X193858D01*
X195434Y269934D01*
X190500Y270500D02*
X191511Y271511D01*
X178500Y271500D02*
X180000Y273000D01*
X189000D01*
X190349Y271651D01*
X181000Y275500D02*
X192000D01*
X197000Y264500D02*
Y270500D01*
X192000Y275500D02*
X197000Y270500D01*
X184500Y278000D02*
X192000D01*
X199000Y267500D02*
Y271000D01*
X192000Y278000D02*
X199000Y271000D01*
Y267500D02*
X201000Y265500D01*
X325597Y334403D02*
Y341500D01*
Y334403D02*
X326500Y333500D01*
X340000D01*
X335597Y351500D02*
X345000D01*
X198500Y263000D02*
X329500D01*
X201000Y265500D02*
X328000D01*
X197000Y264500D02*
X198500Y263000D01*
X17500Y155000D02*
Y228000D01*
X26434Y236934D02*
Y257434D01*
X17500Y228000D02*
X26434Y236934D01*
X21500Y159631D02*
Y226500D01*
X29000Y234000D02*
Y257500D01*
X21500Y226500D02*
X29000Y234000D01*
X17500Y155000D02*
X24500Y148000D01*
Y126000D02*
Y148000D01*
X12000Y113500D02*
X24500Y126000D01*
X29000Y257500D02*
X37500Y266000D01*
X40000D01*
X43500Y269500D01*
X40000Y264000D02*
X142500D01*
X43500Y269500D02*
Y269500D01*
X48500Y274500D02*
Y334500D01*
X43500Y269500D02*
X48500Y274500D01*
X164000Y267000D02*
Y276000D01*
X37500Y262000D02*
X145500D01*
X34500Y259500D02*
X156500D01*
X142500Y264000D02*
X160500Y282000D01*
X145500Y262000D02*
X162500Y279000D01*
X156500Y259500D02*
X164000Y267000D01*
X166000Y266672D02*
Y281399D01*
X157279Y257952D02*
X166000Y266672D01*
X28000Y126500D02*
Y153131D01*
X21500Y159631D02*
X28000Y153131D01*
X15500Y51000D02*
Y114000D01*
X28000Y126500D01*
X12000Y49000D02*
Y113500D01*
Y49000D02*
X15000Y46000D01*
X30500Y49000D02*
Y49266D01*
X30266Y49500D02*
X30500Y49266D01*
X17000Y49500D02*
X30266D01*
X15500Y51000D02*
X17000Y49500D01*
X30500Y49000D02*
X34000Y45500D01*
Y37000D02*
Y45500D01*
X31000Y35000D02*
X35000Y31000D01*
X28000Y46000D02*
X31000Y43000D01*
Y35000D02*
Y43000D01*
X34000Y37000D02*
X37000Y34000D01*
X72500D01*
X73166Y34334D02*
X81500Y26000D01*
X72834Y34334D02*
X73166D01*
X72500Y34000D02*
X72834Y34334D01*
X81500Y15000D02*
Y26000D01*
X50500Y87000D02*
Y98000D01*
X26000Y79000D02*
Y99500D01*
X33000Y106500D01*
X32500Y72500D02*
X104500D01*
X26000Y79000D02*
X32500Y72500D01*
X39500Y109000D02*
Y125500D01*
Y109000D02*
X50500Y98000D01*
X36500Y103500D02*
Y122000D01*
X30500Y97500D02*
X36500Y103500D01*
X33000Y106500D02*
Y125500D01*
X104500Y72500D02*
X109500Y77500D01*
X160500D01*
X42000Y111000D02*
Y123000D01*
X15000Y46000D02*
X28000D01*
X35000Y31000D02*
X73000D01*
X79500Y24500D01*
Y11500D02*
Y24500D01*
Y11500D02*
X81000Y10000D01*
X90000D02*
X92000Y12000D01*
X81000Y10000D02*
X90000D01*
X92000Y12000D02*
X128500D01*
X81500Y15000D02*
X84000Y12500D01*
X90000D01*
X91500Y14000D01*
X128500Y12000D02*
X136500Y20000D01*
X162000D02*
X164500Y22500D01*
X136500Y20000D02*
X162000D01*
X91500Y14000D02*
X128000D01*
X135500Y21500D01*
X144500D01*
X146000Y23000D02*
X161500D01*
X144500Y21500D02*
X146000Y23000D01*
X110500Y19000D02*
X127000D01*
X130500Y22500D02*
Y33000D01*
X127000Y19000D02*
X130500Y22500D01*
X126500Y15500D02*
X134000Y23000D01*
Y28500D01*
X157500Y10899D02*
X267642D01*
X154437Y9313D02*
X267187D01*
X267642Y10899D02*
X273000Y16257D01*
X153500Y10250D02*
X154437Y9313D01*
X267187D02*
X283000Y25126D01*
Y44000D01*
X273000Y16257D02*
Y44000D01*
X268000Y13500D02*
Y27000D01*
X160500Y282000D02*
X163000D01*
X166000Y281399D02*
X167000Y282399D01*
X191507Y79500D02*
X199500D01*
X204000Y67500D02*
Y75000D01*
X199500Y79500D02*
X204000Y75000D01*
X202000Y66500D02*
X204500Y64000D01*
X204000Y67500D02*
X205500Y66000D01*
X242500D02*
X247000Y61500D01*
X205500Y66000D02*
X242500D01*
X247000Y38000D02*
Y61500D01*
X248000Y37000D02*
X255000D01*
X247000Y38000D02*
X248000Y37000D01*
X255000D02*
X260500Y31500D01*
X263500D01*
X241000Y64000D02*
X245000Y60000D01*
Y37000D02*
Y60000D01*
Y37000D02*
X247000Y35000D01*
X254500Y28500D02*
Y30500D01*
Y28500D02*
X256500Y26500D01*
X263500Y31500D02*
X268000Y27000D01*
X204500Y64000D02*
X241000D01*
X197500Y62000D02*
Y72000D01*
X128000Y94515D02*
Y98000D01*
X123485Y90000D02*
X128000Y94515D01*
X99000Y90000D02*
X123485D01*
X243000Y34000D02*
X245000Y32000D01*
X243000Y34000D02*
Y57500D01*
X245000Y32000D02*
X253000D01*
X254500Y30500D01*
X241000Y28000D02*
Y57000D01*
Y28000D02*
X245924Y23076D01*
X190414Y236954D02*
Y267586D01*
X187500Y270500D02*
X190414Y267586D01*
Y236954D02*
X209369Y218000D01*
X211000D01*
X211500Y255500D02*
X213500D01*
X204000Y248000D02*
X211500Y255500D01*
X204000Y224500D02*
Y248000D01*
X207500Y221000D02*
X210500D01*
X204000Y224500D02*
X207500Y221000D01*
X206500Y244500D02*
X216000Y254000D01*
Y258000D01*
X206500Y227000D02*
Y244500D01*
Y227000D02*
X208000Y225500D01*
X280000Y94500D02*
X292000Y106500D01*
Y122812D02*
X293000Y123812D01*
X292000Y106500D02*
Y122812D01*
X293000Y123812D02*
Y124000D01*
X277500Y94500D02*
X280000D01*
X275500Y92500D02*
X277500Y94500D01*
X289000Y107500D02*
Y124500D01*
X279000Y97500D02*
X289000Y107500D01*
X178500Y249000D02*
Y271500D01*
X190349Y270651D02*
X190500Y270500D01*
X190349Y270651D02*
Y271651D01*
X180000Y247500D02*
X184914D01*
X178500Y249000D02*
X180000Y247500D01*
X187000Y217500D02*
Y265000D01*
X181500Y270500D02*
X187000Y265000D01*
Y217500D02*
X191000Y213500D01*
X188500Y219000D02*
X191500Y216000D01*
X207266D02*
X209500Y213766D01*
X191500Y216000D02*
X207266D01*
X191000Y213500D02*
X205000D01*
X188500Y219000D02*
Y266500D01*
X184500Y270500D02*
X188500Y266500D01*
X287000Y144000D02*
X289000Y146000D01*
X216500Y144000D02*
X287000D01*
X202500Y146500D02*
X214000D01*
X216500Y144000D01*
X211000Y218000D02*
X213500Y215500D01*
Y213500D02*
Y215500D01*
X209500Y213500D02*
Y213766D01*
X149000Y184000D02*
X196618D01*
X143500Y178500D02*
X149000Y184000D01*
X137000Y31500D02*
X227500D01*
X134000Y28500D02*
X137000Y31500D01*
X223414Y42414D02*
X228000Y47000D01*
X141286Y42414D02*
X223414D01*
X130500Y33000D02*
X133500Y36000D01*
X125500Y37000D02*
X128500Y40000D01*
X127466Y42966D02*
Y50710D01*
X124000Y39500D02*
X127466Y42966D01*
X271500Y60500D02*
X319000D01*
X266966Y65034D02*
X271500Y60500D01*
X266966Y65034D02*
Y71088D01*
X71351Y41165D02*
X84835D01*
X89000Y37000D01*
X125500D01*
X61665Y41165D02*
X67000Y46500D01*
X77000D01*
X61351Y41165D02*
X61665D01*
X61351Y51165D02*
Y52351D01*
X94000Y39500D02*
X124000D01*
X51351Y41165D02*
Y41851D01*
X143466Y71000D02*
Y73710D01*
X110125Y68000D02*
X140466D01*
X143466Y71000D01*
X105625Y63500D02*
X110125Y68000D01*
X153500Y159000D02*
X170500D01*
X138500Y150000D02*
X144500D01*
X153500Y159000D01*
X136500Y148000D02*
X138500Y150000D01*
X136500Y131000D02*
Y148000D01*
X134000Y128500D02*
X136500Y131000D01*
X137500Y151500D02*
X142500D01*
X133000Y131500D02*
Y151500D01*
X166000Y161500D02*
X172500D01*
X164500Y160000D02*
X166000Y161500D01*
X142500Y151500D02*
X151000Y160000D01*
X164500D01*
X135000Y153500D02*
X142000D01*
X149500Y161000D01*
X133000Y151500D02*
X135000Y153500D01*
X149500Y161000D02*
X163000D01*
X166000Y164000D01*
X170000D01*
X139000Y203000D02*
X188000D01*
X143966Y116225D02*
Y119710D01*
X169000Y166500D02*
X172000D01*
X167500Y168000D02*
Y173000D01*
Y168000D02*
X169000Y166500D01*
X138500Y174914D02*
X165586D01*
X167500Y173000D01*
X129500Y176500D02*
X168500D01*
X170500Y174500D01*
Y169500D02*
Y174500D01*
X141000Y155500D02*
X143834Y158334D01*
X143466Y165710D02*
X143834Y165341D01*
Y158334D02*
Y165341D01*
X94000Y155500D02*
X141000D01*
X127966Y135466D02*
Y142710D01*
X94500Y132500D02*
X125000D01*
X127966Y135466D01*
X132500Y202500D02*
X138500D01*
X139000Y203000D01*
X130000Y200000D02*
X137500D01*
X139500Y202000D01*
X127586Y198414D02*
X138914D01*
X140000Y199500D01*
X127031Y198969D02*
X127586Y198414D01*
X126873Y198969D02*
X127031D01*
X147500Y200500D02*
X189500D01*
X146000Y202000D02*
X147500Y200500D01*
X139500Y202000D02*
X146000D01*
X144371Y200000D02*
X144871Y199500D01*
X161500D01*
X140000D02*
X141500D01*
X125086Y196914D02*
X140414D01*
X141000Y197500D01*
X160000Y197000D02*
X164000Y193000D01*
X141871Y197000D02*
X160000D01*
X141000Y197500D02*
X141371D01*
X141871Y197000D01*
X160700Y198300D02*
X163500Y195500D01*
X142700Y198300D02*
X160700D01*
X141500Y199500D02*
X142700Y198300D01*
X164000Y190000D02*
X189000D01*
X133000Y193000D02*
X161000D01*
X164000Y190000D01*
X127966Y187710D02*
Y187966D01*
X133000Y193000D01*
X164000D02*
X188000D01*
X163500Y195500D02*
X189000D01*
X161500Y199500D02*
X163000Y198000D01*
X188000D01*
D107*
X109002Y57686D02*
X109017Y57671D01*
X111925Y58515D02*
X185162D01*
X111450Y58990D02*
X111925Y58515D01*
X111450Y58990D02*
Y59810D01*
X110750Y60510D02*
X111450Y59810D01*
X109017Y57671D02*
X110916D01*
X111382Y57205D02*
X185705D01*
X185162Y58515D02*
X192481Y65833D01*
X110916Y57671D02*
X111382Y57205D01*
X185705D02*
X193791Y65291D01*
X192184Y70617D02*
Y71316D01*
X193791Y65291D02*
Y70320D01*
X192184Y70617D02*
X192481Y70320D01*
X194088Y71316D02*
X194430Y71658D01*
X193791Y70320D02*
X194088Y70617D01*
X192000Y71500D02*
X192184Y71316D01*
X194088Y70617D02*
Y71316D01*
X192481Y65833D02*
Y70320D01*
D109*
X323000Y44000D02*
D03*
X313000D02*
D03*
X303000D02*
D03*
X293000D02*
D03*
X283000D02*
D03*
X273000D02*
D03*
X38658Y350366D02*
D03*
X48658D02*
D03*
X58657D02*
D03*
X68657D02*
D03*
X78658D02*
D03*
X88657D02*
D03*
X71351Y51165D02*
D03*
Y41165D02*
D03*
X61351Y51165D02*
D03*
Y41165D02*
D03*
X51351Y51165D02*
D03*
Y41165D02*
D03*
X315597Y341500D02*
D03*
Y351500D02*
D03*
X325597Y341500D02*
D03*
Y351500D02*
D03*
X335597Y341500D02*
D03*
Y351500D02*
D03*
D110*
X25465Y112279D02*
D03*
Y64878D02*
D03*
D111*
X36134Y83657D02*
D03*
X44008Y93500D02*
D03*
X36134D02*
D03*
X44008Y83657D02*
D03*
D112*
X22500Y322500D02*
D03*
X12500Y332500D02*
D03*
X32500D02*
D03*
Y312500D02*
D03*
X12500D02*
D03*
X22500Y282564D02*
D03*
X12500Y292564D02*
D03*
X32500D02*
D03*
Y272564D02*
D03*
X12500D02*
D03*
D113*
X129966Y320588D02*
D03*
X119966D02*
D03*
X109966D02*
D03*
X89966D02*
D03*
X79966D02*
D03*
X129466Y282588D02*
D03*
X119466D02*
D03*
X109466D02*
D03*
X89466D02*
D03*
X79466D02*
D03*
X283466Y242088D02*
D03*
X268466D02*
D03*
X253466D02*
D03*
X269466Y220088D02*
D03*
X284466D02*
D03*
X299466D02*
D03*
X282966Y198088D02*
D03*
X267966D02*
D03*
X252966D02*
D03*
X268966Y176088D02*
D03*
X283966D02*
D03*
X298966D02*
D03*
X282966Y155088D02*
D03*
X267966D02*
D03*
X252966D02*
D03*
X268966Y134088D02*
D03*
X283966D02*
D03*
X298966D02*
D03*
X283000Y113000D02*
D03*
X268000D02*
D03*
X253000D02*
D03*
X268000Y92000D02*
D03*
X283000D02*
D03*
X298000D02*
D03*
X281966Y71088D02*
D03*
X266966D02*
D03*
X251966D02*
D03*
X128466Y255088D02*
D03*
X143466D02*
D03*
X158466D02*
D03*
X142466Y233088D02*
D03*
X127466D02*
D03*
X112466D02*
D03*
X128966Y210210D02*
D03*
X143966D02*
D03*
X158966D02*
D03*
X142966Y187710D02*
D03*
X127966D02*
D03*
X112966D02*
D03*
X128466Y165710D02*
D03*
X143466D02*
D03*
X158466D02*
D03*
X142966Y142710D02*
D03*
X127966D02*
D03*
X112966D02*
D03*
X128966Y119710D02*
D03*
X143966D02*
D03*
X158966D02*
D03*
X143000Y98000D02*
D03*
X128000D02*
D03*
X113000D02*
D03*
X128466Y73710D02*
D03*
X143466D02*
D03*
X158466D02*
D03*
X142500Y50500D02*
D03*
X127500D02*
D03*
X112500D02*
D03*
D114*
X69966Y320588D02*
D03*
X69466Y282588D02*
D03*
X298466Y242088D02*
D03*
X254466Y220088D02*
D03*
X297966Y198088D02*
D03*
X253966Y176088D02*
D03*
X297966Y155088D02*
D03*
X253966Y134088D02*
D03*
X298000Y113000D02*
D03*
X253000Y92000D02*
D03*
X296966Y71088D02*
D03*
X113466Y255088D02*
D03*
X157466Y233088D02*
D03*
X113966Y210210D02*
D03*
X157966Y187710D02*
D03*
X113466Y165710D02*
D03*
X157966Y142710D02*
D03*
X113966Y119710D02*
D03*
X158000Y98000D02*
D03*
X113466Y73710D02*
D03*
X157500Y50500D02*
D03*
D115*
X362874Y227500D02*
D03*
Y247185D02*
D03*
Y266870D02*
D03*
Y286555D02*
D03*
Y306240D02*
D03*
Y325925D02*
D03*
X362000Y141370D02*
D03*
Y121685D02*
D03*
Y102000D02*
D03*
Y82315D02*
D03*
X28004Y162000D02*
D03*
Y182000D02*
D03*
Y202000D02*
D03*
Y222000D02*
D03*
D116*
X250075Y352705D02*
D03*
X143776D02*
D03*
X250075Y27114D02*
D03*
X143776D02*
D03*
D117*
X379012Y16091D02*
D03*
X14839Y14122D02*
D03*
X378618Y379083D02*
D03*
X15626D02*
D03*
D118*
X196850Y92850D02*
D03*
X236000Y94000D02*
D03*
X78000Y237500D02*
D03*
X87500D02*
D03*
X70500Y226000D02*
D03*
X82500Y237500D02*
D03*
X70500Y222000D02*
D03*
Y217500D02*
D03*
X66000Y226000D02*
D03*
Y222000D02*
D03*
Y217500D02*
D03*
X60689Y226500D02*
D03*
X215255Y23386D02*
D03*
X78000Y139500D02*
D03*
X83500D02*
D03*
X204500Y26000D02*
D03*
X207000D02*
D03*
Y24000D02*
D03*
X183500Y335000D02*
D03*
X218500D02*
D03*
X52000Y209000D02*
D03*
X229500Y95000D02*
D03*
X233000Y94500D02*
D03*
X246500Y93500D02*
D03*
Y96500D02*
D03*
X137500Y38000D02*
D03*
X133500D02*
D03*
Y44000D02*
D03*
X130500D02*
D03*
X149500Y11000D02*
D03*
X147000D02*
D03*
Y8500D02*
D03*
X149500D02*
D03*
X144500Y11000D02*
D03*
Y8500D02*
D03*
X256000Y277000D02*
D03*
X250500D02*
D03*
X240000Y84500D02*
D03*
X217144Y138856D02*
D03*
X177000Y150000D02*
D03*
X183000D02*
D03*
X207851Y140649D02*
D03*
X204500Y144000D02*
D03*
X170000Y97500D02*
D03*
X177000Y324000D02*
D03*
X180000Y302000D02*
D03*
X245500Y299000D02*
D03*
Y302500D02*
D03*
X243000Y300500D02*
D03*
Y297000D02*
D03*
X242129Y293532D02*
D03*
X222500Y26000D02*
D03*
Y23500D02*
D03*
X226000Y26000D02*
D03*
X230500D02*
D03*
X226000Y23500D02*
D03*
X230500D02*
D03*
X210459Y24239D02*
D03*
X235000Y21500D02*
D03*
X200000Y220500D02*
D03*
X317000Y142500D02*
D03*
X317500Y80500D02*
D03*
X314500Y82000D02*
D03*
X318000Y101500D02*
D03*
X315000Y103000D02*
D03*
X316500Y122500D02*
D03*
X308000Y103000D02*
D03*
X314000Y124000D02*
D03*
X300500D02*
D03*
X352000Y191500D02*
D03*
Y195000D02*
D03*
X264500Y24000D02*
D03*
X261000D02*
D03*
X257500D02*
D03*
X179500D02*
D03*
X275000Y211500D02*
D03*
X279000D02*
D03*
X275000Y209000D02*
D03*
X279000D02*
D03*
X238000Y227586D02*
D03*
X286500Y230500D02*
D03*
X255000Y310500D02*
D03*
X257500D02*
D03*
X224500Y283500D02*
D03*
X225500Y286000D02*
D03*
X223500Y280500D02*
D03*
X217500Y212500D02*
D03*
X225000Y205500D02*
D03*
X177433Y144400D02*
D03*
X322500Y193000D02*
D03*
Y191000D02*
D03*
X356000Y168000D02*
D03*
X276000Y198500D02*
D03*
X297500Y231000D02*
D03*
X292000D02*
D03*
X305000Y230500D02*
D03*
X276000Y202000D02*
D03*
X193786Y143000D02*
D03*
X170500Y133500D02*
D03*
X167000Y107500D02*
D03*
X127500Y130500D02*
D03*
X239000Y218000D02*
D03*
X294000Y272500D02*
D03*
X298500D02*
D03*
X242000Y282000D02*
D03*
X237000Y220000D02*
D03*
X234000Y211000D02*
D03*
X193500Y145500D02*
D03*
X182500Y122500D02*
D03*
X98500Y105000D02*
D03*
X236000Y49000D02*
D03*
X229500Y50500D02*
D03*
X230500Y47000D02*
D03*
X233500Y53000D02*
D03*
X298500Y165500D02*
D03*
X304000Y149500D02*
D03*
X209000Y143500D02*
D03*
X204500Y24000D02*
D03*
X98000Y245500D02*
D03*
X78500Y91000D02*
D03*
X80500Y89000D02*
D03*
X84000Y84500D02*
D03*
Y80000D02*
D03*
X366500Y50500D02*
D03*
X362500D02*
D03*
X358000Y50000D02*
D03*
X366500Y44000D02*
D03*
X362500D02*
D03*
X358500D02*
D03*
X321000Y247500D02*
D03*
X312500Y233000D02*
D03*
X317000Y230000D02*
D03*
Y185000D02*
D03*
Y207000D02*
D03*
Y164000D02*
D03*
X311500Y190500D02*
D03*
X208000Y110000D02*
D03*
X200000D02*
D03*
X208000Y117000D02*
D03*
X200500D02*
D03*
X208000Y124000D02*
D03*
X200500D02*
D03*
X361000Y168000D02*
D03*
X350500D02*
D03*
X345500Y165000D02*
D03*
X350500D02*
D03*
X356000D02*
D03*
X361000D02*
D03*
X182500Y107886D02*
D03*
X182000Y99000D02*
D03*
X183500Y75693D02*
D03*
X362000Y132000D02*
D03*
X372000Y142000D02*
D03*
Y131500D02*
D03*
Y120500D02*
D03*
X361500Y152000D02*
D03*
X351500D02*
D03*
X363000Y74000D02*
D03*
X371500Y76000D02*
D03*
X363000Y92000D02*
D03*
X371500Y105000D02*
D03*
Y95500D02*
D03*
Y86500D02*
D03*
X161500Y85500D02*
D03*
X159000D02*
D03*
X167000Y92000D02*
D03*
X170110Y109110D02*
D03*
X166500Y88000D02*
D03*
X209000Y93000D02*
D03*
X205500D02*
D03*
X109002Y57686D02*
D03*
X111100Y60160D02*
D03*
X187500Y65791D02*
D03*
X72500Y266000D02*
D03*
X66000D02*
D03*
X59000D02*
D03*
X87500Y256000D02*
D03*
X34500Y255000D02*
D03*
X107500Y109000D02*
D03*
X105500Y220500D02*
D03*
Y198000D02*
D03*
Y176500D02*
D03*
Y153500D02*
D03*
X95250Y198750D02*
D03*
X93000Y129500D02*
D03*
Y152500D02*
D03*
X93500Y179000D02*
D03*
X93000Y217000D02*
D03*
X94086Y220000D02*
D03*
X92500Y197361D02*
D03*
X94086Y175000D02*
D03*
X92500Y233500D02*
D03*
X57500Y243500D02*
D03*
Y247000D02*
D03*
X87500Y252500D02*
D03*
X104000Y130000D02*
D03*
X204000Y58000D02*
D03*
X209000D02*
D03*
X188000Y70000D02*
D03*
X89500Y89000D02*
D03*
X63000Y77000D02*
D03*
X78500Y249000D02*
D03*
X78000Y240500D02*
D03*
X82500D02*
D03*
X87500D02*
D03*
X50500Y230000D02*
D03*
X47000D02*
D03*
X43000D02*
D03*
Y233000D02*
D03*
X47000D02*
D03*
X50500D02*
D03*
X87000Y181500D02*
D03*
Y167500D02*
D03*
Y160500D02*
D03*
X87500Y153000D02*
D03*
X60000Y139500D02*
D03*
X66500D02*
D03*
X72500D02*
D03*
X55000D02*
D03*
X62000Y94414D02*
D03*
X89500Y64500D02*
D03*
X61500Y59500D02*
D03*
X89630Y16000D02*
D03*
X94000Y63500D02*
D03*
X84917Y204416D02*
D03*
X51500Y330500D02*
D03*
X53500Y290500D02*
D03*
X95000Y266500D02*
D03*
Y106000D02*
D03*
X90500Y79500D02*
D03*
X89500Y52500D02*
D03*
X62000Y224500D02*
D03*
X87500Y174000D02*
D03*
X89500Y198500D02*
D03*
X87500Y195500D02*
D03*
X66500Y173500D02*
D03*
X41500Y199000D02*
D03*
X42000Y211500D02*
D03*
X72638Y84586D02*
D03*
X13000Y42500D02*
D03*
X24500Y34000D02*
D03*
X17500Y42500D02*
D03*
X239000Y367000D02*
D03*
X241500Y381500D02*
D03*
X221000D02*
D03*
X180000Y382000D02*
D03*
X136500D02*
D03*
X52500Y338500D02*
D03*
X112000Y344000D02*
D03*
X161500Y318000D02*
D03*
X166000Y314500D02*
D03*
X217500Y270500D02*
D03*
X198500Y287500D02*
D03*
X196000Y291000D02*
D03*
X193000Y293000D02*
D03*
X214000Y271000D02*
D03*
X155000Y365000D02*
D03*
X201000Y381500D02*
D03*
X156500Y382000D02*
D03*
X226500Y305500D02*
D03*
X224500Y309500D02*
D03*
X180000Y368500D02*
D03*
X177500Y365000D02*
D03*
X175000Y368500D02*
D03*
X172500Y365000D02*
D03*
X170500Y369000D02*
D03*
X166500D02*
D03*
X168500Y365000D02*
D03*
X219000Y288000D02*
D03*
X219500Y283500D02*
D03*
X217000Y281000D02*
D03*
X214000Y283500D02*
D03*
X212000Y281000D02*
D03*
X204000D02*
D03*
X208000D02*
D03*
X163500Y365000D02*
D03*
X161500Y369000D02*
D03*
X154000D02*
D03*
X159500Y365000D02*
D03*
X151500Y367500D02*
D03*
X157500Y369000D02*
D03*
X206000Y283500D02*
D03*
X149000Y369000D02*
D03*
X210000Y283500D02*
D03*
X235000Y367000D02*
D03*
X237000Y369000D02*
D03*
X241000D02*
D03*
X243500Y367000D02*
D03*
X246000Y369000D02*
D03*
X243000Y304000D02*
D03*
X245500Y294000D02*
D03*
X229500Y292000D02*
D03*
X223000Y335000D02*
D03*
X218000Y319500D02*
D03*
X176500Y331500D02*
D03*
X182500Y320000D02*
D03*
X173000Y330500D02*
D03*
X158142Y299500D02*
D03*
X180000Y298000D02*
D03*
X193000Y269000D02*
D03*
X184500Y278000D02*
D03*
X181000Y275500D02*
D03*
X40000Y264000D02*
D03*
X34500Y259500D02*
D03*
X37500Y262000D02*
D03*
X39500Y125500D02*
D03*
X36500Y122000D02*
D03*
X33000Y125500D02*
D03*
X42000Y123000D02*
D03*
X110500Y19000D02*
D03*
X131543Y10500D02*
D03*
X107457Y10000D02*
D03*
X164500Y22500D02*
D03*
X161500Y23000D02*
D03*
X157500Y10899D02*
D03*
X153500Y10250D02*
D03*
X268000Y13500D02*
D03*
X163000Y282000D02*
D03*
X162500Y279000D02*
D03*
X164000Y276000D02*
D03*
X167000Y282500D02*
D03*
X194430Y71658D02*
D03*
X192000Y71500D02*
D03*
X99000Y90000D02*
D03*
X192000Y258500D02*
D03*
X213500Y255500D02*
D03*
X216000Y258000D02*
D03*
X209500Y229500D02*
D03*
X275500Y92500D02*
D03*
X279000Y97500D02*
D03*
X293000Y124000D02*
D03*
X289000Y124500D02*
D03*
X210500Y221000D02*
D03*
Y225500D02*
D03*
X184914Y247500D02*
D03*
X190500Y270500D02*
D03*
X181500Y256500D02*
D03*
X183000Y249500D02*
D03*
X197000Y239000D02*
D03*
X200000Y242500D02*
D03*
X209000Y242000D02*
D03*
X192500Y241500D02*
D03*
X213000Y246000D02*
D03*
X289000Y146000D02*
D03*
X202500Y146500D02*
D03*
X187500Y270500D02*
D03*
X213500Y213500D02*
D03*
X181500Y270500D02*
D03*
X184500D02*
D03*
X209500Y213500D02*
D03*
X205000D02*
D03*
X192000Y208500D02*
D03*
X181650Y206221D02*
D03*
X178000Y180000D02*
D03*
X196618Y184000D02*
D03*
X201000Y175000D02*
D03*
X213000Y150000D02*
D03*
X230000Y148500D02*
D03*
X196500Y140000D02*
D03*
X226000Y48500D02*
D03*
X227500Y54000D02*
D03*
X127500Y22500D02*
D03*
X170500Y178000D02*
D03*
X319000Y60500D02*
D03*
X237500Y126000D02*
D03*
X240500Y123000D02*
D03*
X243000Y104500D02*
D03*
X243500Y119500D02*
D03*
X297000Y51000D02*
D03*
X217500Y104000D02*
D03*
X94000Y39500D02*
D03*
X170500Y159000D02*
D03*
X137500Y151500D02*
D03*
X133000Y131500D02*
D03*
X172500Y161500D02*
D03*
X170000Y164000D02*
D03*
X188000Y203000D02*
D03*
X94733Y109138D02*
D03*
X172000Y166500D02*
D03*
X138500Y174914D02*
D03*
X129500Y176500D02*
D03*
X143500Y178500D02*
D03*
X94000Y155500D02*
D03*
X94500Y132500D02*
D03*
X170500Y169500D02*
D03*
X132500Y202500D02*
D03*
X126873Y198969D02*
D03*
X189500Y200500D02*
D03*
X144000Y200000D02*
D03*
X141000Y197500D02*
D03*
X130000Y200000D02*
D03*
X189000Y190000D02*
D03*
X95000Y245500D02*
D03*
X188000Y198000D02*
D03*
Y193000D02*
D03*
X189000Y195500D02*
D03*
D119*
X311500Y161000D02*
D03*
Y154000D02*
D03*
X273500Y166500D02*
D03*
X279500D02*
D03*
D120*
X362874Y266870D02*
Y286555D01*
Y266126D02*
Y266870D01*
Y266126D02*
X371000Y258000D01*
X365500Y236500D02*
X371000Y242000D01*
Y258000D01*
X352000Y195000D02*
Y228500D01*
X360000Y236500D02*
X365500D01*
X352000Y228500D02*
X360000Y236500D01*
X352000Y191500D02*
Y195000D01*
X217500Y212500D02*
X225000D01*
X230500Y207000D01*
X210000Y160500D02*
X228157D01*
X230500Y162843D01*
Y207000D01*
X205000Y155500D02*
X210000Y160500D01*
X196000Y155500D02*
X205000D01*
X184900Y144400D02*
X196000Y155500D01*
X177433Y144400D02*
X184900D01*
X322500Y193000D02*
Y195000D01*
Y191000D02*
Y193000D01*
X276752Y202752D02*
X314748D01*
X322500Y195000D01*
X276000Y202000D02*
X276752Y202752D01*
X276000Y198500D02*
Y202000D01*
Y197500D02*
Y198500D01*
X193500Y143286D02*
X193786Y143000D01*
X193500Y143286D02*
Y145500D01*
X239000Y218000D02*
X240500Y216500D01*
X237000Y220000D02*
X239000Y218000D01*
X240500Y158500D02*
Y216500D01*
X236500Y154500D02*
X240500Y158500D01*
X211500Y154500D02*
X236500D01*
X207500Y150500D02*
X211500Y154500D01*
X198500Y150500D02*
X207500D01*
X193500Y145500D02*
X198500Y150500D01*
M02*
