M48
;Layer_Color=9474304
;FILE_FORMAT=2:4
INCH,TZ
;TYPE=PLATED
T1F00S00C0.0079
T2F00S00C0.0295
T3F00S00C0.0300
T4F00S00C0.0551
T5F00S00C0.0866
T6F00S00C0.0945
;TYPE=NON_PLATED
T7F00S00C0.0571
%
T01
X1505Y6755
X1800Y6650
X1750Y8700
X1450Y8750
Y10750
X1800Y10800
X1650Y12800
X5100Y13250
X5000Y15050
X4600Y14850
X8900Y12600
X9150Y11050
X8750Y10850
Y8850
X9200Y8950
X9150Y7050
X8750Y6750
X9150Y5100
X5800Y4600
X5750Y2600
X12900Y1100
X13350Y950
X14950Y900
X15200
X15460Y960
X15100Y1150
X15200Y2450
Y2650
X14950
Y2450
Y3650
Y3850
X15200
Y3650
X15460Y3790
X12900Y15600
X17450Y12350
X17700Y11150
X18493Y11543
X19750Y11900
X20950
X21250Y12850
Y13400
Y13900
X21550Y13650
Y14150
Y13100
Y12600
X21150Y10700
X17400Y10200
X17100Y10450
Y9900
X17400Y9650
X17150Y9400
X17400Y9150
X17200Y8900
X17246Y3968
X17429Y3771
X17822Y3772
X17626Y3974
X18019Y3981
X18216Y3784
X18610Y3790
X18413Y3987
X18807Y3993
X18750Y4291
X19100
X19200Y4000
X19594Y3994
X19397Y3797
X19004Y3796
X19791Y3791
X19988Y3988
X20185Y3785
X20450Y3850
X20700
X20972Y3778
X21169Y3969
X21366Y3784
X21650Y3650
X21900
X21750Y3850
X22150Y3750
X22547Y3747
X22744Y3944
X22941Y3741
X23250Y3750
X23550
X23800
X24350Y3800
X25150Y4250
X23450
X22350Y3950
X21900Y2650
X21650
X21750Y2450
X20700
X20450
X20600Y2650
X19750Y2450
X18450
X17000
X15750
X15657Y1157
Y3993
X15854Y3796
X16248Y3798
X16444Y3994
X16051Y3999
X16838Y3988
X16641Y3791
X17035Y3785
X17850Y4291
X18300
X20550Y3650
X23250Y2500
X23550
X23800
X24515Y965
X24500Y6950
X24800
X25100
X25400
X24200
X23900
X30400Y6900
X30350Y8900
X30550Y10900
X29750Y13100
X28250Y14650
X27850
X25204Y15554
X37350Y14950
X37950Y15300
X37700Y13100
X38000Y12600
Y10650
X37650Y10950
Y8950
X38000Y8800
X37900Y6750
X37550Y6900
X37700Y4800
X34424Y4374
X34474Y2474
X37600Y16950
X37950Y17350
Y18650
X37650Y18950
Y20950
X37950Y21350
X38000Y22600
X37600Y23050
X37550Y25100
X37950Y25550
Y26850
X37550Y27200
Y29150
X37950Y28750
X37900Y30750
X37550Y31150
X29350Y30500
Y29950
Y29500
X28950Y29700
X28900Y29200
X28750Y28550
X28000Y28100
X28100Y25900
X27600
X27100
X27350Y25550
X27850Y25600
X28350
X26800Y26400
X26650Y24550
X26350Y24650
X26150Y24400
X26700Y24200
X27751Y23401
X27792Y23042
X27750Y22600
X27050Y21700
X26500Y22050
X26250Y21300
X26000Y21450
X24933Y21691
X24550Y21850
X24300Y22050
X24725Y22275
X24731Y22669
X24603Y24047
X24609Y24441
X24616Y24834
X24219Y25031
X24200Y24650
Y24250
X24150Y26050
X23800Y26044
X23975Y26325
X24350Y26350
X24762Y26362
X24550Y26050
X22600Y26300
X22500Y27800
X22800Y28400
X26050Y28600
X29000Y30250
Y30750
X29150Y17300
X29400Y17100
Y16550
Y16100
X29100Y16350
Y16800
Y15800
X25750Y20250
X25400
X25050
X24172Y21478
X23800Y21750
X23500Y22000
X22000Y21450
X21550Y19950
X21900Y19250
X20200Y19750
X20431Y20018
X20000Y22000
X18700Y21150
X17900Y21450
Y21900
X18576Y25076
X18200Y25800
X19978Y25228
X15700Y25850
X16591Y17400
X13900Y18250
X13115Y17835
X12900Y17150
X12700Y16850
X12950Y16550
Y16100
X12700Y16300
X12750Y15850
X12900Y23700
X12850Y24200
Y24750
Y25250
X12550Y25000
Y24500
Y23950
X13150Y25900
X13950Y26300
X8950Y27550
X9550Y29350
X10400Y29709
X1850Y29500
X1450Y29600
X1600Y27600
X3300Y27300
X4226Y27124
X4650Y25500
X4213Y25037
X4850Y23550
X4600Y23300
X4800Y21450
X4600Y21200
Y19400
Y19050
Y17200
Y16900
X4150Y33300
X1500Y31450
X8950Y31700
X14900Y33450
X15250
X13250Y38100
X18600Y38050
X22450
X24550
X23550Y33350
X23100
X22650
X22400Y33600
X22900
X23300
X26500Y33500
X29550Y33050
X30100
X29800Y32700
X29250Y32150
X30650Y34300
X17150Y32650
X16900Y32500
X16600Y32200
X16350Y32550
X16050Y33450
X15650
X31400Y33250
Y33800
X31750Y34300
X37915Y32700
T02
X7200Y1850
X8700
X10200
X11700
Y3800
X10200
X8700
X7200
X7900Y5710
X6400
X4900
X3400
Y7800
X4900
X6400
X7900
Y9860
X6400
X4900
X3400
Y11850
X4900
X6400
X7900
X7950Y13900
X9450
X10950
Y12000
X12450
X13950
X15450
X15350Y10000
X13850
X12350
X10850
X10900Y8000
X12400
X13900
X15400
Y6000
X13900
X12400
X10900
X6450Y13900
X23600Y11950
X25100
X26600
X28100
Y9950
X26600
X25100
X23600
Y7950
X25100
X26600
X28100
Y5950
X26600
X25100
X23600
X27700Y3850
X29200
X30700
Y1900
X29200
X27700
X32200
Y3850
X32850Y5900
X31350
Y7950
X32850
X34350
X35850
Y9950
X34350
X32850
X31350
Y11950
X32850
X34350
X35850
Y14000
X34350
X32850
X31350
X34350Y5900
X35850
X35900Y16000
X34400
X32900
X31400
X31350Y18000
X32850
X34350
X35850
Y20000
X34350
X32850
X31350
Y22000
X32850
X34350
X35850
Y24050
X34350
X32850
X31350
Y26100
X32850
X34350
X35850
Y28150
X34350
X32850
X31350
Y30100
X32850
X34350
X35850
X15300Y30600
X13800
X12300
X10800
Y28500
X12300
X13800
X15300
X10950Y26550
X9450
X7950
X6450
Y24500
X7950
X9450
X10950
Y22350
X9450
X7950
X6450
Y20250
X7950
X9450
X10950
Y18100
X9450
X7950
X6450
Y15950
X7950
X9450
X10950
X7650Y28600
X6150
X4650
X3150
Y30450
X4650
X6150
X7650
X7950Y32800
X9450
X10950
X6450
X31300Y32096
X32800
X34300
X35800
T03
X3866Y35037
X4866
X5866
X6866
X7866
X8866
X33499Y35017
Y34017
X34499
Y35017
X35499
Y34017
T04
X2800Y16244
Y18213
Y20182
Y22150
T05
X1484Y1412
X37901Y1609
X1563Y37908
X37862
T06
X1816Y14276
Y24118
T07
X14378Y2042
Y2711
X25007
Y2042
X14378Y35270
X25007
M30
