G04*
G04 #@! TF.GenerationSoftware,Altium Limited,Altium Designer,20.0.13 (296)*
G04*
G04 Layer_Color=8388736*
%FSLAX25Y25*%
%MOIN*%
G70*
G01*
G75*
%ADD16R,0.01772X0.06496*%
%ADD17O,0.06890X0.02362*%
%ADD18R,0.03425X0.03583*%
%ADD19R,0.03150X0.03347*%
%ADD20R,0.02362X0.01968*%
%ADD21O,0.07087X0.01772*%
%ADD22O,0.01772X0.07087*%
%ADD23C,0.07874*%
%ADD24R,0.03583X0.03425*%
G04:AMPARAMS|DCode=25|XSize=47.24mil|YSize=43.31mil|CornerRadius=0mil|HoleSize=0mil|Usage=FLASHONLY|Rotation=45.000|XOffset=0mil|YOffset=0mil|HoleType=Round|Shape=Rectangle|*
%AMROTATEDRECTD25*
4,1,4,-0.00139,-0.03202,-0.03202,-0.00139,0.00139,0.03202,0.03202,0.00139,-0.00139,-0.03202,0.0*
%
%ADD25ROTATEDRECTD25*%

%ADD26R,0.03425X0.03425*%
%ADD27R,0.01968X0.02362*%
%ADD28R,0.03347X0.03150*%
%ADD29C,0.06969*%
%ADD30C,0.06299*%
%ADD31C,0.08858*%
%ADD32C,0.00591*%
%ADD33R,0.05119X0.05119*%
%ADD34C,0.05119*%
%ADD35C,0.20276*%
%ADD36C,0.02362*%
D16*
X245153Y342075D02*
D03*
Y356642D02*
D03*
X243185Y342075D02*
D03*
Y356642D02*
D03*
X241216Y342075D02*
D03*
Y356642D02*
D03*
X239248Y342075D02*
D03*
Y356642D02*
D03*
X237280Y342075D02*
D03*
Y356642D02*
D03*
X235311Y342075D02*
D03*
Y356642D02*
D03*
X233343Y342075D02*
D03*
Y356642D02*
D03*
X231374Y342075D02*
D03*
Y356642D02*
D03*
X229405Y342075D02*
D03*
Y356642D02*
D03*
X227437Y342075D02*
D03*
Y356642D02*
D03*
X225468Y342075D02*
D03*
Y356642D02*
D03*
X223500Y342075D02*
D03*
Y356642D02*
D03*
X221532Y342075D02*
D03*
Y356642D02*
D03*
X219563Y342075D02*
D03*
Y356642D02*
D03*
X217595Y342075D02*
D03*
Y356642D02*
D03*
X215626Y342075D02*
D03*
Y356642D02*
D03*
X213657Y342075D02*
D03*
Y356642D02*
D03*
X211689Y342075D02*
D03*
Y356642D02*
D03*
X209720Y342075D02*
D03*
Y356642D02*
D03*
X207752Y342075D02*
D03*
Y356642D02*
D03*
X205784Y342075D02*
D03*
Y356642D02*
D03*
X203815Y342075D02*
D03*
Y356642D02*
D03*
X201847Y342075D02*
D03*
Y356642D02*
D03*
X199878Y342075D02*
D03*
Y356642D02*
D03*
X197909Y342075D02*
D03*
Y356642D02*
D03*
X195941Y342075D02*
D03*
Y356642D02*
D03*
X193972Y342075D02*
D03*
Y356642D02*
D03*
X192004Y342075D02*
D03*
Y356642D02*
D03*
X190035Y342075D02*
D03*
Y356642D02*
D03*
X188067Y342075D02*
D03*
Y356642D02*
D03*
X186098Y342075D02*
D03*
Y356642D02*
D03*
X184130Y342075D02*
D03*
Y356642D02*
D03*
X182161Y342075D02*
D03*
Y356642D02*
D03*
X180193Y342075D02*
D03*
Y356642D02*
D03*
X178224Y342075D02*
D03*
Y356642D02*
D03*
X176256Y342075D02*
D03*
Y356642D02*
D03*
X174287Y342075D02*
D03*
Y356642D02*
D03*
X172319Y342075D02*
D03*
Y356642D02*
D03*
X170350Y342075D02*
D03*
Y356642D02*
D03*
X168382Y342075D02*
D03*
Y356642D02*
D03*
X166413Y342075D02*
D03*
Y356642D02*
D03*
X164445Y342075D02*
D03*
Y356642D02*
D03*
X162476Y342075D02*
D03*
Y356642D02*
D03*
X160508Y342075D02*
D03*
Y356642D02*
D03*
X158539Y342075D02*
D03*
Y356642D02*
D03*
X156571Y342075D02*
D03*
Y356642D02*
D03*
X154602Y342075D02*
D03*
Y356642D02*
D03*
X152634Y342075D02*
D03*
Y356642D02*
D03*
X150665Y342075D02*
D03*
Y356642D02*
D03*
X148697Y342075D02*
D03*
Y356642D02*
D03*
X245153Y16484D02*
D03*
Y31051D02*
D03*
X243185Y16484D02*
D03*
Y31051D02*
D03*
X241216Y16484D02*
D03*
Y31051D02*
D03*
X239248Y16484D02*
D03*
Y31051D02*
D03*
X237280Y16484D02*
D03*
Y31051D02*
D03*
X235311Y16484D02*
D03*
Y31051D02*
D03*
X233343Y16484D02*
D03*
Y31051D02*
D03*
X231374Y16484D02*
D03*
Y31051D02*
D03*
X229405Y16484D02*
D03*
Y31051D02*
D03*
X227437Y16484D02*
D03*
Y31051D02*
D03*
X225468Y16484D02*
D03*
Y31051D02*
D03*
X223500Y16484D02*
D03*
Y31051D02*
D03*
X221532Y16484D02*
D03*
Y31051D02*
D03*
X219563Y16484D02*
D03*
Y31051D02*
D03*
X217595Y16484D02*
D03*
Y31051D02*
D03*
X215626Y16484D02*
D03*
Y31051D02*
D03*
X213657Y16484D02*
D03*
Y31051D02*
D03*
X211689Y16484D02*
D03*
Y31051D02*
D03*
X209720Y16484D02*
D03*
Y31051D02*
D03*
X207752Y16484D02*
D03*
Y31051D02*
D03*
X205784Y16484D02*
D03*
Y31051D02*
D03*
X203815Y16484D02*
D03*
Y31051D02*
D03*
X201847Y16484D02*
D03*
Y31051D02*
D03*
X199878Y16484D02*
D03*
Y31051D02*
D03*
X197909Y16484D02*
D03*
Y31051D02*
D03*
X195941Y16484D02*
D03*
Y31051D02*
D03*
X193972Y16484D02*
D03*
Y31051D02*
D03*
X192004Y16484D02*
D03*
Y31051D02*
D03*
X190035Y16484D02*
D03*
Y31051D02*
D03*
X188067Y16484D02*
D03*
Y31051D02*
D03*
X186098Y16484D02*
D03*
Y31051D02*
D03*
X184130Y16484D02*
D03*
Y31051D02*
D03*
X182161Y16484D02*
D03*
Y31051D02*
D03*
X180193Y16484D02*
D03*
Y31051D02*
D03*
X178224Y16484D02*
D03*
Y31051D02*
D03*
X176256Y16484D02*
D03*
Y31051D02*
D03*
X174287Y16484D02*
D03*
Y31051D02*
D03*
X172319Y16484D02*
D03*
Y31051D02*
D03*
X170350Y16484D02*
D03*
Y31051D02*
D03*
X168382Y16484D02*
D03*
Y31051D02*
D03*
X166413Y16484D02*
D03*
Y31051D02*
D03*
X164445Y16484D02*
D03*
Y31051D02*
D03*
X162476Y16484D02*
D03*
Y31051D02*
D03*
X160508Y16484D02*
D03*
Y31051D02*
D03*
X158539Y16484D02*
D03*
Y31051D02*
D03*
X156571Y16484D02*
D03*
Y31051D02*
D03*
X154602Y16484D02*
D03*
Y31051D02*
D03*
X152634Y16484D02*
D03*
Y31051D02*
D03*
X150665Y16484D02*
D03*
Y31051D02*
D03*
X148697Y16484D02*
D03*
Y31051D02*
D03*
D17*
X135492Y254957D02*
D03*
Y252398D02*
D03*
Y249839D02*
D03*
Y247280D02*
D03*
Y244721D02*
D03*
Y242161D02*
D03*
Y239602D02*
D03*
Y237043D02*
D03*
X159508Y254957D02*
D03*
Y252398D02*
D03*
Y249839D02*
D03*
Y247280D02*
D03*
Y244721D02*
D03*
Y242161D02*
D03*
Y239602D02*
D03*
Y237043D02*
D03*
X282508Y289543D02*
D03*
Y292102D02*
D03*
Y294661D02*
D03*
Y297220D02*
D03*
Y299780D02*
D03*
Y302339D02*
D03*
Y304898D02*
D03*
Y307457D02*
D03*
X258492Y289543D02*
D03*
Y292102D02*
D03*
Y294661D02*
D03*
Y297220D02*
D03*
Y299780D02*
D03*
Y302339D02*
D03*
Y304898D02*
D03*
Y307457D02*
D03*
X134992Y173957D02*
D03*
Y171398D02*
D03*
Y168839D02*
D03*
Y166279D02*
D03*
Y163721D02*
D03*
Y161161D02*
D03*
Y158602D02*
D03*
Y156043D02*
D03*
X159008Y173957D02*
D03*
Y171398D02*
D03*
Y168839D02*
D03*
Y166279D02*
D03*
Y163721D02*
D03*
Y161161D02*
D03*
Y158602D02*
D03*
Y156043D02*
D03*
X282508Y155543D02*
D03*
Y158102D02*
D03*
Y160661D02*
D03*
Y163221D02*
D03*
Y165779D02*
D03*
Y168339D02*
D03*
Y170898D02*
D03*
Y173457D02*
D03*
X258492Y155543D02*
D03*
Y158102D02*
D03*
Y160661D02*
D03*
Y163221D02*
D03*
Y165779D02*
D03*
Y168339D02*
D03*
Y170898D02*
D03*
Y173457D02*
D03*
X180992Y106957D02*
D03*
Y104398D02*
D03*
Y101839D02*
D03*
Y99279D02*
D03*
Y96720D02*
D03*
Y94161D02*
D03*
Y91602D02*
D03*
Y89043D02*
D03*
X205008Y106957D02*
D03*
Y104398D02*
D03*
Y101839D02*
D03*
Y99279D02*
D03*
Y96720D02*
D03*
Y94161D02*
D03*
Y91602D02*
D03*
Y89043D02*
D03*
X205508Y123543D02*
D03*
Y126102D02*
D03*
Y128661D02*
D03*
Y131220D02*
D03*
Y133780D02*
D03*
Y136339D02*
D03*
Y138898D02*
D03*
Y141457D02*
D03*
X181492Y123543D02*
D03*
Y126102D02*
D03*
Y128661D02*
D03*
Y131220D02*
D03*
Y133780D02*
D03*
Y136339D02*
D03*
Y138898D02*
D03*
Y141457D02*
D03*
D18*
X261000Y221858D02*
D03*
Y218000D02*
D03*
X219000Y196642D02*
D03*
Y200500D02*
D03*
X228000Y279858D02*
D03*
Y276000D02*
D03*
D19*
X92000Y104240D02*
D03*
Y100500D02*
D03*
X376500Y85370D02*
D03*
Y81630D02*
D03*
X376000Y287327D02*
D03*
Y283587D02*
D03*
X376500Y225740D02*
D03*
Y222000D02*
D03*
X377000Y146870D02*
D03*
Y143130D02*
D03*
X300000Y85370D02*
D03*
Y81630D02*
D03*
X92000Y125740D02*
D03*
Y122000D02*
D03*
X376500Y105000D02*
D03*
Y101260D02*
D03*
X375500Y307327D02*
D03*
Y303587D02*
D03*
X376500Y246740D02*
D03*
Y243000D02*
D03*
X376000Y165370D02*
D03*
Y161630D02*
D03*
X300000Y105370D02*
D03*
Y101630D02*
D03*
X340000Y24740D02*
D03*
Y21000D02*
D03*
X376500Y125870D02*
D03*
Y122130D02*
D03*
X375500Y326827D02*
D03*
Y323087D02*
D03*
Y267827D02*
D03*
Y264087D02*
D03*
X376000Y185240D02*
D03*
Y181500D02*
D03*
X300000Y125240D02*
D03*
Y121500D02*
D03*
X340000Y43740D02*
D03*
Y40000D02*
D03*
X376500Y64240D02*
D03*
Y60500D02*
D03*
Y206000D02*
D03*
Y202260D02*
D03*
X300000Y65870D02*
D03*
Y62130D02*
D03*
X14000Y310500D02*
D03*
Y306760D02*
D03*
X89500Y291740D02*
D03*
Y288000D02*
D03*
X46000Y228740D02*
D03*
Y225000D02*
D03*
Y164870D02*
D03*
Y161130D02*
D03*
X15500Y102969D02*
D03*
Y99228D02*
D03*
X53500Y23870D02*
D03*
Y20130D02*
D03*
X91500Y66240D02*
D03*
Y62500D02*
D03*
X89500Y310870D02*
D03*
Y307130D02*
D03*
X46000Y250370D02*
D03*
Y246630D02*
D03*
Y186370D02*
D03*
Y182630D02*
D03*
X16500Y123969D02*
D03*
Y120228D02*
D03*
X54000Y44000D02*
D03*
Y40260D02*
D03*
X91500Y86283D02*
D03*
Y82543D02*
D03*
X46500Y333240D02*
D03*
Y329500D02*
D03*
Y271240D02*
D03*
Y267500D02*
D03*
X46000Y208240D02*
D03*
Y204500D02*
D03*
Y144370D02*
D03*
Y140630D02*
D03*
X15500Y62969D02*
D03*
Y59228D02*
D03*
X14000Y292132D02*
D03*
Y288392D02*
D03*
X15500Y83099D02*
D03*
Y79358D02*
D03*
X267000Y216740D02*
D03*
Y213000D02*
D03*
D20*
X91500Y78043D02*
D03*
Y74500D02*
D03*
X46000Y136282D02*
D03*
Y132738D02*
D03*
X376500Y76782D02*
D03*
Y73238D02*
D03*
X376000Y279000D02*
D03*
Y275457D02*
D03*
X376500Y217152D02*
D03*
Y213608D02*
D03*
X377000Y138282D02*
D03*
Y134738D02*
D03*
X300000Y76782D02*
D03*
Y73238D02*
D03*
X92000Y117282D02*
D03*
Y113738D02*
D03*
X376500Y96543D02*
D03*
Y93000D02*
D03*
X375500Y299000D02*
D03*
Y295457D02*
D03*
X376500Y238043D02*
D03*
Y234500D02*
D03*
X376000Y156500D02*
D03*
Y152957D02*
D03*
X300000Y96782D02*
D03*
Y93238D02*
D03*
X340000Y16282D02*
D03*
Y12738D02*
D03*
X376500Y117543D02*
D03*
Y114000D02*
D03*
X375500Y318500D02*
D03*
Y314957D02*
D03*
Y259000D02*
D03*
Y255457D02*
D03*
X300000Y116782D02*
D03*
Y113238D02*
D03*
X340000Y35282D02*
D03*
Y31738D02*
D03*
X376000Y177043D02*
D03*
Y173500D02*
D03*
X376500Y55782D02*
D03*
Y52238D02*
D03*
Y197543D02*
D03*
Y194000D02*
D03*
X300000Y57543D02*
D03*
Y54000D02*
D03*
X14000Y302500D02*
D03*
Y298957D02*
D03*
X89500Y283543D02*
D03*
Y280000D02*
D03*
X46000Y220782D02*
D03*
Y217238D02*
D03*
Y156543D02*
D03*
Y153000D02*
D03*
X15500Y94880D02*
D03*
Y91337D02*
D03*
X53500Y15782D02*
D03*
Y12238D02*
D03*
X91500Y58043D02*
D03*
Y54500D02*
D03*
X89500Y302543D02*
D03*
Y299000D02*
D03*
X46000Y242282D02*
D03*
Y238738D02*
D03*
Y178282D02*
D03*
Y174738D02*
D03*
X16500Y115880D02*
D03*
Y112337D02*
D03*
X54000Y35543D02*
D03*
Y32000D02*
D03*
X46500Y325043D02*
D03*
Y321500D02*
D03*
Y263043D02*
D03*
Y259500D02*
D03*
X15500Y54642D02*
D03*
Y51099D02*
D03*
X46000Y200282D02*
D03*
Y196738D02*
D03*
X14000Y284043D02*
D03*
Y280500D02*
D03*
X92000Y96043D02*
D03*
Y92500D02*
D03*
X15500Y74880D02*
D03*
Y71337D02*
D03*
D21*
X193193Y214878D02*
D03*
Y216846D02*
D03*
Y218815D02*
D03*
Y220783D02*
D03*
Y222752D02*
D03*
Y224721D02*
D03*
Y226689D02*
D03*
Y228658D02*
D03*
Y230626D02*
D03*
Y232594D02*
D03*
Y234563D02*
D03*
Y236531D02*
D03*
Y238500D02*
D03*
Y240469D02*
D03*
Y242437D02*
D03*
Y244406D02*
D03*
Y246374D02*
D03*
Y248342D02*
D03*
Y250311D02*
D03*
Y252279D02*
D03*
Y254248D02*
D03*
Y256217D02*
D03*
Y258185D02*
D03*
Y260154D02*
D03*
Y262122D02*
D03*
X254807D02*
D03*
Y260154D02*
D03*
Y258185D02*
D03*
Y256217D02*
D03*
Y254248D02*
D03*
Y252279D02*
D03*
Y250311D02*
D03*
Y248342D02*
D03*
Y246374D02*
D03*
Y244406D02*
D03*
Y242437D02*
D03*
Y240469D02*
D03*
Y238500D02*
D03*
Y236531D02*
D03*
Y234563D02*
D03*
Y232594D02*
D03*
Y230626D02*
D03*
Y228658D02*
D03*
Y226689D02*
D03*
Y224721D02*
D03*
Y222752D02*
D03*
Y220783D02*
D03*
Y218815D02*
D03*
Y216846D02*
D03*
Y214878D02*
D03*
D22*
X200378Y269307D02*
D03*
X202346D02*
D03*
X204315D02*
D03*
X206283D02*
D03*
X208252D02*
D03*
X210221D02*
D03*
X212189D02*
D03*
X214158D02*
D03*
X216126D02*
D03*
X218094D02*
D03*
X220063D02*
D03*
X222031D02*
D03*
X224000D02*
D03*
X225969D02*
D03*
X227937D02*
D03*
X229906D02*
D03*
X231874D02*
D03*
X233842D02*
D03*
X235811D02*
D03*
X237779D02*
D03*
X239748D02*
D03*
X241717D02*
D03*
X243685D02*
D03*
X245654D02*
D03*
X247622D02*
D03*
Y207693D02*
D03*
X245654D02*
D03*
X243685D02*
D03*
X241717D02*
D03*
X239748D02*
D03*
X237779D02*
D03*
X235811D02*
D03*
X233842D02*
D03*
X231874D02*
D03*
X229906D02*
D03*
X227937D02*
D03*
X225969D02*
D03*
X224000D02*
D03*
X222031D02*
D03*
X220063D02*
D03*
X218094D02*
D03*
X216126D02*
D03*
X214158D02*
D03*
X212189D02*
D03*
X210221D02*
D03*
X208252D02*
D03*
X206283D02*
D03*
X204315D02*
D03*
X202346D02*
D03*
X200378D02*
D03*
D23*
X14839Y33413D02*
D03*
X379012Y35366D02*
D03*
X15626Y360579D02*
D03*
D24*
X183071Y218500D02*
D03*
X186929D02*
D03*
X183071Y254000D02*
D03*
X186929D02*
D03*
X183142Y214500D02*
D03*
X187000D02*
D03*
X278571Y285000D02*
D03*
X282429D02*
D03*
X139000Y178500D02*
D03*
X135142D02*
D03*
X278571Y150500D02*
D03*
X282429D02*
D03*
X184929Y111500D02*
D03*
X181071D02*
D03*
X139358Y259000D02*
D03*
X135500D02*
D03*
X201571Y119000D02*
D03*
X205429D02*
D03*
D25*
X263185Y229582D02*
D03*
X267918Y234315D02*
D03*
X267082Y225685D02*
D03*
X271815Y230418D02*
D03*
D26*
X277508Y237500D02*
D03*
X273492D02*
D03*
X277508Y222000D02*
D03*
X273492D02*
D03*
D27*
X140043Y381000D02*
D03*
X136500D02*
D03*
X193500Y380500D02*
D03*
X189957D02*
D03*
X232500D02*
D03*
X228957D02*
D03*
D28*
X150370Y381000D02*
D03*
X146630D02*
D03*
X202500Y380500D02*
D03*
X198760D02*
D03*
X240740D02*
D03*
X237000D02*
D03*
D29*
X38658Y350366D02*
D03*
X48658D02*
D03*
X58657D02*
D03*
X68657D02*
D03*
X78658D02*
D03*
X88657D02*
D03*
X334992Y340169D02*
D03*
Y350169D02*
D03*
X344992Y340169D02*
D03*
Y350169D02*
D03*
X354992Y340169D02*
D03*
Y350169D02*
D03*
D30*
X143776Y352705D02*
D03*
X250075D02*
D03*
X143776Y27114D02*
D03*
X250075D02*
D03*
Y20421D02*
D03*
X143776D02*
D03*
D31*
X28004Y221500D02*
D03*
Y201815D02*
D03*
Y182130D02*
D03*
Y162445D02*
D03*
D32*
X18161Y241185D02*
D03*
Y142760D02*
D03*
D33*
X236000Y119500D02*
D03*
Y99500D02*
D03*
Y79500D02*
D03*
Y59500D02*
D03*
X313000Y320957D02*
D03*
X313500Y301000D02*
D03*
Y281500D02*
D03*
Y261000D02*
D03*
Y240500D02*
D03*
Y220000D02*
D03*
Y200000D02*
D03*
Y180000D02*
D03*
X314000Y160000D02*
D03*
X313500Y140000D02*
D03*
Y119500D02*
D03*
Y99500D02*
D03*
Y79500D02*
D03*
Y59000D02*
D03*
X277000Y38500D02*
D03*
Y19000D02*
D03*
X154500Y120000D02*
D03*
X153500Y100000D02*
D03*
X154000Y80000D02*
D03*
Y60000D02*
D03*
X76500Y304500D02*
D03*
Y286000D02*
D03*
X109500Y328000D02*
D03*
X153000Y306000D02*
D03*
Y285000D02*
D03*
X109500Y265500D02*
D03*
Y245000D02*
D03*
Y223500D02*
D03*
Y202500D02*
D03*
Y181000D02*
D03*
Y159500D02*
D03*
Y139000D02*
D03*
X79000Y118500D02*
D03*
Y98598D02*
D03*
Y78000D02*
D03*
Y57099D02*
D03*
X117000Y38000D02*
D03*
Y18500D02*
D03*
D34*
X251000Y119500D02*
D03*
X266000D02*
D03*
X281000D02*
D03*
X251000Y99500D02*
D03*
X266000D02*
D03*
X281000D02*
D03*
X251000Y79500D02*
D03*
X266000D02*
D03*
X281000D02*
D03*
X251000Y59500D02*
D03*
X266000D02*
D03*
X281000D02*
D03*
X328000Y320957D02*
D03*
X343000D02*
D03*
X358000D02*
D03*
X328500Y301000D02*
D03*
X343500D02*
D03*
X358500D02*
D03*
X328500Y281500D02*
D03*
X343500D02*
D03*
X358500D02*
D03*
X328500Y261000D02*
D03*
X343500D02*
D03*
X358500D02*
D03*
X328500Y240500D02*
D03*
X343500D02*
D03*
X358500D02*
D03*
X328500Y220000D02*
D03*
X343500D02*
D03*
X358500D02*
D03*
X328500Y200000D02*
D03*
X343500D02*
D03*
X358500D02*
D03*
X328500Y180000D02*
D03*
X343500D02*
D03*
X358500D02*
D03*
X329000Y160000D02*
D03*
X344000D02*
D03*
X359000D02*
D03*
X328500Y140000D02*
D03*
X343500D02*
D03*
X358500D02*
D03*
X328500Y119500D02*
D03*
X343500D02*
D03*
X358500D02*
D03*
X328500Y99500D02*
D03*
X343500D02*
D03*
X358500D02*
D03*
X328500Y79500D02*
D03*
X343500D02*
D03*
X358500D02*
D03*
X328500Y59000D02*
D03*
X343500D02*
D03*
X358500D02*
D03*
X292000Y38500D02*
D03*
X307000D02*
D03*
X322000D02*
D03*
X292000Y19000D02*
D03*
X307000D02*
D03*
X322000D02*
D03*
X139500Y120000D02*
D03*
X124500D02*
D03*
X109500D02*
D03*
X138500Y100000D02*
D03*
X123500D02*
D03*
X108500D02*
D03*
X139000Y80000D02*
D03*
X124000D02*
D03*
X109000D02*
D03*
X139000Y60000D02*
D03*
X124000D02*
D03*
X109000D02*
D03*
X61500Y304500D02*
D03*
X46500D02*
D03*
X31500D02*
D03*
X61500Y286000D02*
D03*
X46500D02*
D03*
X31500D02*
D03*
X94500Y328000D02*
D03*
X79500D02*
D03*
X64500D02*
D03*
X138000Y306000D02*
D03*
X123000D02*
D03*
X108000D02*
D03*
X138000Y285000D02*
D03*
X123000D02*
D03*
X108000D02*
D03*
X94500Y265500D02*
D03*
X79500D02*
D03*
X64500D02*
D03*
X94500Y245000D02*
D03*
X79500D02*
D03*
X64500D02*
D03*
X94500Y223500D02*
D03*
X79500D02*
D03*
X64500D02*
D03*
X94500Y202500D02*
D03*
X79500D02*
D03*
X64500D02*
D03*
X94500Y181000D02*
D03*
X79500D02*
D03*
X64500D02*
D03*
X94500Y159500D02*
D03*
X79500D02*
D03*
X64500D02*
D03*
X94500Y139000D02*
D03*
X79500D02*
D03*
X64500D02*
D03*
X64000Y118500D02*
D03*
X49000D02*
D03*
X34000D02*
D03*
X64000Y98598D02*
D03*
X49000D02*
D03*
X34000D02*
D03*
X64000Y78000D02*
D03*
X49000D02*
D03*
X34000D02*
D03*
X64000Y57099D02*
D03*
X49000D02*
D03*
X34000D02*
D03*
X102000Y38000D02*
D03*
X87000D02*
D03*
X72000D02*
D03*
X102000Y18500D02*
D03*
X87000D02*
D03*
X72000D02*
D03*
D35*
X15626Y379083D02*
D03*
X379012Y16091D02*
D03*
X14839Y14122D02*
D03*
X378618Y379083D02*
D03*
D36*
X305500Y109000D02*
D03*
X89000Y126000D02*
D03*
X187000Y211500D02*
D03*
X225000Y278000D02*
D03*
X185757Y250757D02*
D03*
X380000Y126000D02*
D03*
X379500Y153000D02*
D03*
X303500Y89000D02*
D03*
X224500Y380500D02*
D03*
X245500D02*
D03*
X132500Y381000D02*
D03*
X186000Y380500D02*
D03*
X260000Y214500D02*
D03*
X157000Y258500D02*
D03*
X139500Y263000D02*
D03*
X131500Y259000D02*
D03*
X278500Y146500D02*
D03*
X282500D02*
D03*
X252043Y155543D02*
D03*
X131150Y178350D02*
D03*
X139000Y182500D02*
D03*
X165913Y174000D02*
D03*
X220000Y214500D02*
D03*
X174500Y123500D02*
D03*
X197500Y119000D02*
D03*
X209500D02*
D03*
X177000Y111500D02*
D03*
X184929Y115429D02*
D03*
X211500Y107000D02*
D03*
X166000Y322000D02*
D03*
X163500Y325500D02*
D03*
X169000Y325000D02*
D03*
X171500Y326500D02*
D03*
X242189Y250311D02*
D03*
X246158Y248342D02*
D03*
X199779Y252279D02*
D03*
X182000Y258000D02*
D03*
X226000Y263000D02*
D03*
X224000Y336000D02*
D03*
X238000Y260441D02*
D03*
X235500Y333500D02*
D03*
X226500D02*
D03*
X239748Y263252D02*
D03*
X229000Y336000D02*
D03*
X241500Y260500D02*
D03*
X228000Y284000D02*
D03*
X231000Y333500D02*
D03*
X233000Y336000D02*
D03*
X243500Y263500D02*
D03*
X245500Y260500D02*
D03*
X247622Y263622D02*
D03*
X260500Y286000D02*
D03*
X280000Y281000D02*
D03*
X287500Y285500D02*
D03*
X265000Y335000D02*
D03*
X242000Y246500D02*
D03*
X268000Y264000D02*
D03*
X246094Y244406D02*
D03*
X271000Y259000D02*
D03*
X242000Y242500D02*
D03*
X273500Y255500D02*
D03*
X276000Y259000D02*
D03*
X246031Y240469D02*
D03*
X261500Y244000D02*
D03*
X278500Y256000D02*
D03*
X263500Y246500D02*
D03*
X281000Y259000D02*
D03*
X283500Y256000D02*
D03*
X266500Y245500D02*
D03*
X267000Y242000D02*
D03*
X179000Y219000D02*
D03*
Y214500D02*
D03*
X200000Y220000D02*
D03*
X129000Y11000D02*
D03*
X202000Y197500D02*
D03*
X133500Y9500D02*
D03*
X204315Y200185D02*
D03*
X152000Y9000D02*
D03*
X149500D02*
D03*
X156571Y11571D02*
D03*
X154602Y9602D02*
D03*
X187500Y42914D02*
D03*
X183000D02*
D03*
X178500D02*
D03*
X191000D02*
D03*
X248000Y69500D02*
D03*
X251000D02*
D03*
X254000D02*
D03*
X215500Y199500D02*
D03*
X219000Y192500D02*
D03*
X295500Y330500D02*
D03*
X301000D02*
D03*
X235000Y220000D02*
D03*
X292500Y321500D02*
D03*
X298000Y327000D02*
D03*
X238000Y217500D02*
D03*
X241717Y214784D02*
D03*
X247311Y226689D02*
D03*
X262500Y213000D02*
D03*
X270500Y217000D02*
D03*
X247248Y222752D02*
D03*
X249328Y216914D02*
D03*
X265000Y220500D02*
D03*
X277508Y234008D02*
D03*
X277500Y226000D02*
D03*
X277918Y230418D02*
D03*
X257500Y202500D02*
D03*
X245500Y218500D02*
D03*
X243000Y220500D02*
D03*
X254000Y202500D02*
D03*
X250500D02*
D03*
X234500Y42500D02*
D03*
X243500Y38000D02*
D03*
X245000Y69500D02*
D03*
X251500Y42500D02*
D03*
X242000Y69500D02*
D03*
X239000D02*
D03*
X245153Y9653D02*
D03*
X215500Y136500D02*
D03*
Y141500D02*
D03*
X212500Y134000D02*
D03*
Y139000D02*
D03*
X291000Y158000D02*
D03*
X297500Y131000D02*
D03*
X294000Y161000D02*
D03*
X291000Y163500D02*
D03*
X294000Y165500D02*
D03*
X291000Y168000D02*
D03*
X294000Y171000D02*
D03*
X291500Y173000D02*
D03*
X289000Y292000D02*
D03*
X293500Y295000D02*
D03*
X289500Y297000D02*
D03*
X293500Y299500D02*
D03*
X290000Y302500D02*
D03*
X293500Y305000D02*
D03*
X290000Y307500D02*
D03*
X375500Y69000D02*
D03*
X41500Y333000D02*
D03*
X306500Y343000D02*
D03*
X317500D02*
D03*
X152500Y334500D02*
D03*
X314000Y338000D02*
D03*
X156500Y334500D02*
D03*
X314000Y332500D02*
D03*
X375500Y311500D02*
D03*
X160500Y334500D02*
D03*
X149000D02*
D03*
X379154Y327000D02*
D03*
X379000Y307500D02*
D03*
X375500Y291500D02*
D03*
X379500Y287500D02*
D03*
X375500Y272000D02*
D03*
X379500Y268500D02*
D03*
Y255500D02*
D03*
X375500Y251000D02*
D03*
X376000Y230500D02*
D03*
X380000Y226000D02*
D03*
X379500Y213500D02*
D03*
X376500Y209500D02*
D03*
X379500Y186500D02*
D03*
X376500Y189500D02*
D03*
X379500Y173500D02*
D03*
X376000Y169500D02*
D03*
X373500Y149500D02*
D03*
X377000Y131000D02*
D03*
X376500Y109500D02*
D03*
X380000Y106500D02*
D03*
X376500Y89500D02*
D03*
X380000Y88000D02*
D03*
X379000Y67500D02*
D03*
X377000Y48000D02*
D03*
X304000Y69000D02*
D03*
X215500Y131000D02*
D03*
X212500Y128500D02*
D03*
X215500Y126000D02*
D03*
X344240Y43740D02*
D03*
X344740Y24740D02*
D03*
X128500Y252500D02*
D03*
X89500Y317000D02*
D03*
X104000Y297086D02*
D03*
X125500Y250000D02*
D03*
X95500Y293500D02*
D03*
X128500Y247500D02*
D03*
X125500Y245000D02*
D03*
X33000Y273000D02*
D03*
X15000Y314500D02*
D03*
X18500Y295000D02*
D03*
X14500Y296000D02*
D03*
X89500Y275500D02*
D03*
X42260Y271240D02*
D03*
X16000Y276000D02*
D03*
X128500Y242000D02*
D03*
X46500Y255000D02*
D03*
X42130Y250370D02*
D03*
X48500Y235500D02*
D03*
X125500Y239500D02*
D03*
X46000Y233000D02*
D03*
X129000Y237000D02*
D03*
X48000Y214500D02*
D03*
X46000Y212000D02*
D03*
Y194000D02*
D03*
X129000Y171500D02*
D03*
X46000Y190500D02*
D03*
X127000Y168500D02*
D03*
X46000Y172000D02*
D03*
Y169000D02*
D03*
X129500Y165500D02*
D03*
X50000Y150500D02*
D03*
X127000Y163000D02*
D03*
X129500Y161000D02*
D03*
X46000Y148500D02*
D03*
X51000Y132500D02*
D03*
X129000Y156000D02*
D03*
X127500Y158500D02*
D03*
X16500Y128000D02*
D03*
X14500Y107500D02*
D03*
X18000Y108000D02*
D03*
X14500Y87500D02*
D03*
X17500Y87000D02*
D03*
X18000Y66500D02*
D03*
X15055Y67555D02*
D03*
X171000Y104500D02*
D03*
X91500Y110500D02*
D03*
X87500Y108500D02*
D03*
X58000Y46000D02*
D03*
X57500Y26000D02*
D03*
X174000Y102000D02*
D03*
X171000Y99000D02*
D03*
X92000Y89500D02*
D03*
X87500Y88500D02*
D03*
X91500Y70500D02*
D03*
X174000Y96500D02*
D03*
X87500Y67500D02*
D03*
X91500Y51000D02*
D03*
X171500Y94000D02*
D03*
X174000Y91500D02*
D03*
X172000Y89000D02*
D03*
X172457Y39681D02*
D03*
X168382Y39882D02*
D03*
X164445Y39945D02*
D03*
X156571Y39929D02*
D03*
X197500Y24500D02*
D03*
X184500D02*
D03*
X170000D02*
D03*
X157500D02*
D03*
X151000Y11500D02*
D03*
X238000Y25000D02*
D03*
X235500D02*
D03*
X232500D02*
D03*
X238000Y37500D02*
D03*
X235500D02*
D03*
X232500D02*
D03*
X217500Y24500D02*
D03*
X219000Y26500D02*
D03*
X216500D02*
D03*
X219000Y36500D02*
D03*
X216500D02*
D03*
X217500Y38500D02*
D03*
X206000Y26500D02*
D03*
X207000Y24500D02*
D03*
X204500D02*
D03*
X205500Y36500D02*
D03*
X207000Y38500D02*
D03*
X204500D02*
D03*
X149500Y26500D02*
D03*
X152000D02*
D03*
X149500Y24500D02*
D03*
X152000D02*
D03*
Y36500D02*
D03*
X149500D02*
D03*
X152000Y38500D02*
D03*
X149500D02*
D03*
X229405Y37405D02*
D03*
X227437Y39437D02*
D03*
X225468Y37468D02*
D03*
X223500Y39500D02*
D03*
X221500Y37500D02*
D03*
X213657Y37843D02*
D03*
X211689Y39689D02*
D03*
X209720Y37780D02*
D03*
X201847Y37846D02*
D03*
X199878Y39878D02*
D03*
X197909Y37909D02*
D03*
X195941Y39941D02*
D03*
X193972Y37972D02*
D03*
X192004Y39996D02*
D03*
X190035Y37965D02*
D03*
X188067Y39933D02*
D03*
X186098Y37902D02*
D03*
X184130Y39870D02*
D03*
X182161Y37839D02*
D03*
X180193Y39807D02*
D03*
X178224Y37724D02*
D03*
X176256Y39744D02*
D03*
X174287Y37713D02*
D03*
X170350Y37850D02*
D03*
X166413Y37913D02*
D03*
X162476Y37976D02*
D03*
X160508Y39992D02*
D03*
X158539Y37961D02*
D03*
X154602Y37898D02*
D03*
M02*
