G04*
G04 #@! TF.GenerationSoftware,Altium Limited,Altium Designer,20.0.13 (296)*
G04*
G04 Layer_Physical_Order=1*
G04 Layer_Color=255*
%FSLAX25Y25*%
%MOIN*%
G70*
G01*
G75*
%ADD15C,0.01000*%
%ADD20R,0.02362X0.01968*%
G04:AMPARAMS|DCode=25|XSize=47.24mil|YSize=43.31mil|CornerRadius=0mil|HoleSize=0mil|Usage=FLASHONLY|Rotation=45.000|XOffset=0mil|YOffset=0mil|HoleType=Round|Shape=Rectangle|*
%AMROTATEDRECTD25*
4,1,4,-0.00139,-0.03202,-0.03202,-0.00139,0.00139,0.03202,0.03202,0.00139,-0.00139,-0.03202,0.0*
%
%ADD25ROTATEDRECTD25*%

%ADD27R,0.01968X0.02362*%
%ADD37R,0.01181X0.05906*%
%ADD38O,0.06299X0.01772*%
%ADD39R,0.02835X0.02992*%
%ADD40R,0.02559X0.02756*%
%ADD41O,0.06496X0.01181*%
%ADD42O,0.01181X0.06496*%
%ADD43C,0.03937*%
%ADD44R,0.02992X0.02835*%
%ADD45R,0.02835X0.02835*%
%ADD46R,0.02756X0.02559*%
%ADD47C,0.00400*%
%ADD48C,0.01155*%
%ADD49C,0.06378*%
%ADD50C,0.05709*%
%ADD51C,0.08268*%
%ADD52R,0.04528X0.04528*%
%ADD53C,0.04528*%
%ADD54C,0.19685*%
%ADD55C,0.01772*%
G36*
X148897Y13131D02*
X150465D01*
Y16484D01*
X150865D01*
Y13131D01*
X152434D01*
Y16484D01*
X152834D01*
Y13131D01*
X153500D01*
Y10447D01*
X153297Y10143D01*
X153189Y9602D01*
X153297Y9062D01*
X153500Y8758D01*
Y7149D01*
X148000D01*
Y13131D01*
X148497D01*
Y16484D01*
X148897D01*
Y13131D01*
D02*
G37*
G36*
X153500Y39590D02*
Y38742D01*
X153297Y38438D01*
X153189Y37898D01*
X153297Y37357D01*
X153500Y37053D01*
Y34404D01*
X152834D01*
Y31051D01*
Y27698D01*
X153500D01*
X153500Y23000D01*
X148000D01*
X148000Y27698D01*
X148497D01*
Y31051D01*
Y34404D01*
X148000D01*
X148000Y40000D01*
X153091D01*
X153500Y39590D01*
D02*
G37*
G36*
X208500Y38447D02*
X208415Y38320D01*
X208308Y37780D01*
X208415Y37239D01*
X208500Y37112D01*
Y34404D01*
X207952D01*
Y31051D01*
Y27698D01*
X208500D01*
Y23000D01*
X203000D01*
Y27698D01*
X203615D01*
Y31051D01*
Y34404D01*
X203000D01*
Y37078D01*
X203152Y37306D01*
X203259Y37846D01*
X203152Y38387D01*
X203000Y38614D01*
Y40000D01*
X208500D01*
Y38447D01*
D02*
G37*
G36*
X220500Y38498D02*
X220195Y38041D01*
X220087Y37500D01*
X220195Y36959D01*
X220500Y36502D01*
Y34404D01*
X219763D01*
Y31051D01*
Y27698D01*
X220500D01*
Y23000D01*
X215000D01*
Y24803D01*
X215070Y25157D01*
X215000Y25512D01*
Y27698D01*
X215426D01*
Y31051D01*
Y34404D01*
X215000D01*
Y37488D01*
X215070Y37843D01*
X215000Y38197D01*
Y40000D01*
X220500D01*
Y38498D01*
D02*
G37*
G36*
X240000Y34404D02*
X239448D01*
Y31051D01*
Y27698D01*
X240000D01*
Y23000D01*
X230500D01*
Y27698D01*
X231174D01*
Y31051D01*
Y34404D01*
X230500D01*
Y36549D01*
X230711Y36865D01*
X230819Y37405D01*
X230711Y37946D01*
X230500Y38262D01*
Y40500D01*
X240000D01*
Y34404D01*
D02*
G37*
%LPC*%
G36*
X152434D02*
X150865D01*
Y31051D01*
Y27698D01*
X152434D01*
Y31051D01*
Y34404D01*
D02*
G37*
G36*
X150465D02*
X148897D01*
Y31051D01*
Y27698D01*
X150465D01*
Y31051D01*
Y34404D01*
D02*
G37*
G36*
X207552D02*
X205983D01*
Y31051D01*
Y27698D01*
X207552D01*
Y31051D01*
Y34404D01*
D02*
G37*
G36*
X205584D02*
X204015D01*
Y31051D01*
Y27698D01*
X205584D01*
Y31051D01*
Y34404D01*
D02*
G37*
G36*
X219363D02*
X217794D01*
Y31051D01*
Y27698D01*
X219363D01*
Y31051D01*
Y34404D01*
D02*
G37*
G36*
X217394D02*
X215826D01*
Y31051D01*
Y27698D01*
X217394D01*
Y31051D01*
Y34404D01*
D02*
G37*
G36*
X239048D02*
X237479D01*
Y31051D01*
Y27698D01*
X239048D01*
Y31051D01*
Y34404D01*
D02*
G37*
G36*
X237080D02*
X235511D01*
Y31051D01*
Y27698D01*
X237080D01*
Y31051D01*
Y34404D01*
D02*
G37*
G36*
X235111D02*
X233542D01*
Y31051D01*
Y27698D01*
X235111D01*
Y31051D01*
Y34404D01*
D02*
G37*
G36*
X233142D02*
X231574D01*
Y31051D01*
Y27698D01*
X233142D01*
Y31051D01*
Y34404D01*
D02*
G37*
%LPD*%
D15*
X187000Y214500D02*
Y218429D01*
Y211500D02*
Y214500D01*
X228000Y276000D02*
Y276079D01*
X227083Y276996D02*
X228000Y276079D01*
X226004Y276996D02*
X227083D01*
X225000Y278000D02*
X226004Y276996D01*
X185514Y250514D02*
X185757Y250757D01*
X282508Y150008D02*
Y155543D01*
X185467Y252396D02*
X187000Y253929D01*
X185467Y250514D02*
Y252396D01*
X134917Y178425D02*
X134992Y178350D01*
X185467Y250514D02*
X185514D01*
X160504Y334504D02*
Y342071D01*
X156535Y334535D02*
Y342039D01*
X152567Y334567D02*
Y342008D01*
X148848Y334652D02*
Y341923D01*
X260000Y214500D02*
X261000Y215500D01*
Y218000D01*
X157000Y258500D02*
X158500Y257000D01*
X158856Y254957D02*
X159508D01*
X158500Y255313D02*
X158856Y254957D01*
X158500Y255313D02*
Y257000D01*
X139500Y259142D02*
Y263000D01*
X131500Y259000D02*
X135500D01*
X135492Y254957D02*
Y258992D01*
X278500Y146500D02*
Y150429D01*
X282500Y146500D02*
Y150429D01*
X282429Y150500D02*
X282500Y150429D01*
X252043Y155543D02*
X258492D01*
X131150Y178350D02*
X131224Y178425D01*
X134917D01*
X139000Y178500D02*
Y182500D01*
X134992Y173957D02*
Y178350D01*
X159008Y173957D02*
X165870D01*
X220031Y207787D02*
Y214469D01*
X174543Y123543D02*
X181492D01*
X197500Y119000D02*
X201571D01*
X205429D02*
X209500D01*
X205508Y119079D02*
Y123543D01*
X177000Y111500D02*
X181071D01*
X184929D02*
Y115429D01*
X180992Y106957D02*
Y111421D01*
X205008Y106957D02*
X211457D01*
X193193Y252279D02*
X199779D01*
X182500Y254492D02*
X182992Y254000D01*
X182500Y254492D02*
Y257291D01*
X182000Y257791D02*
X182500Y257291D01*
X182000Y257791D02*
Y258000D01*
X182992Y254000D02*
X183071D01*
X187177Y254248D02*
X193193D01*
X225969Y263032D02*
Y269307D01*
X228000Y279858D02*
Y284000D01*
X227937Y269307D02*
Y275937D01*
X258500Y288000D02*
X260500Y286000D01*
X258500Y288000D02*
Y288910D01*
X278571Y282429D02*
X280000Y281000D01*
X278571Y282429D02*
Y285000D01*
X282929Y285500D02*
X287500D01*
X282508Y285079D02*
Y289543D01*
X186929Y218500D02*
X187244Y218815D01*
X193193D01*
X179000Y219000D02*
X183142D01*
X179000Y214500D02*
X183142D01*
X200000Y218500D02*
Y220000D01*
X198346Y216846D02*
X200000Y218500D01*
X193193Y216846D02*
X198346D01*
X187378Y214878D02*
X193193D01*
X215500Y199500D02*
X218000D01*
X219000Y200500D01*
Y192500D02*
Y196642D01*
X218094Y203405D02*
Y207693D01*
Y203405D02*
X219000Y202500D01*
Y200500D02*
Y202500D01*
X247311Y226689D02*
X254807D01*
Y224721D02*
X260279D01*
X261000Y224000D01*
Y221858D02*
Y224000D01*
X263642Y221858D02*
X265000Y220500D01*
X261000Y221858D02*
X263642D01*
X370000Y307500D02*
Y328000D01*
X365000Y333000D02*
X370000Y328000D01*
X324500Y333000D02*
X365000D01*
X317500Y340000D02*
X324500Y333000D01*
X321500Y330500D02*
X362500D01*
X366000Y309000D02*
Y327000D01*
X362500Y330500D02*
X366000Y327000D01*
X314000Y338000D02*
X321500Y330500D01*
X314000Y332500D02*
X318500Y328000D01*
X359500D01*
X362500Y325000D01*
X306500Y332500D02*
X313500Y325500D01*
X355500D01*
X357360Y321597D02*
X358000Y320957D01*
X357360Y321597D02*
Y323640D01*
X355500Y325500D02*
X357360Y323640D01*
X306500Y332500D02*
Y343000D01*
X317500Y340000D02*
Y343000D01*
X366500Y304000D02*
X370000Y307500D01*
X361500Y304000D02*
X366500D01*
X358500Y301000D02*
X361500Y304000D01*
X367500Y255000D02*
Y292000D01*
X359000Y300500D02*
X367500Y292000D01*
X364000Y307000D02*
X366000Y309000D01*
X360500Y311000D02*
X362500Y313000D01*
Y325000D01*
X349000Y291000D02*
Y307000D01*
Y291000D02*
X358500Y281500D01*
X353000Y297500D02*
X363500Y287000D01*
X353000Y297500D02*
Y304500D01*
X363500Y266500D02*
Y287000D01*
X358500Y261500D02*
X363500Y266500D01*
X355500Y307000D02*
X364000D01*
X353000Y304500D02*
X355500Y307000D01*
X349000D02*
X353000Y311000D01*
X360500D01*
X358500Y246000D02*
X367500Y255000D01*
X70500Y234500D02*
X73500Y237500D01*
Y276000D01*
X68000Y281500D02*
X73500Y276000D01*
X64500Y265500D02*
X68000D01*
X70000Y263500D01*
Y242500D02*
Y263500D01*
X62000Y234500D02*
X70500D01*
X67000Y239500D02*
X70000Y242500D01*
X20500Y61000D02*
Y126000D01*
Y61000D02*
X24401Y57099D01*
X20500Y126000D02*
X24000Y129500D01*
X59000D01*
X24401Y57099D02*
X34000D01*
X358864Y200364D02*
X362364D01*
X364500Y202500D02*
Y225500D01*
X362364Y200364D02*
X364500Y202500D01*
X313500Y281500D02*
X320000Y288000D01*
Y309609D01*
X326391Y316000D02*
X353043D01*
X320000Y309609D02*
X326391Y316000D01*
X313500Y281500D02*
X320500Y274500D01*
Y232500D02*
Y274500D01*
Y232500D02*
X325500Y227500D01*
X358500Y240500D02*
Y246000D01*
X353043Y316000D02*
X358000Y320957D01*
X345500Y227500D02*
X353000Y220000D01*
X325500Y227500D02*
X345500D01*
X353000Y220000D02*
X358500D01*
X349500Y272500D02*
X358500Y281500D01*
X349500Y230000D02*
Y272500D01*
X352000Y227500D02*
X362500D01*
X349500Y230000D02*
X352000Y227500D01*
X362500D02*
X364500Y225500D01*
X353500Y256000D02*
X358500Y261000D01*
X353500Y236500D02*
Y256000D01*
X356500Y233500D02*
X365500D01*
X353500Y236500D02*
X356500Y233500D01*
X369000Y184500D02*
Y230000D01*
X365500Y233500D02*
X369000Y230000D01*
X358500Y180000D02*
X364500D01*
X369000Y184500D01*
X358500Y240500D02*
X369500D01*
X372500Y164500D02*
Y237500D01*
X369500Y240500D02*
X372500Y237500D01*
X368000Y160000D02*
X372500Y164500D01*
X359000Y160000D02*
X368000D01*
X353500Y195000D02*
X358500Y200000D01*
X343500Y195000D02*
X353500D01*
X339000Y130000D02*
Y190500D01*
X343500Y195000D01*
X343000Y126000D02*
X354500D01*
X339000Y130000D02*
X343000Y126000D01*
X354500D02*
X358136Y122364D01*
Y119864D02*
Y122364D01*
X358500Y171000D02*
Y180000D01*
X350500Y163000D02*
X358500Y171000D01*
X350500Y135500D02*
Y163000D01*
Y135500D02*
X354500Y131500D01*
X363000D01*
X366000Y128500D01*
Y107000D02*
Y128500D01*
X358500Y99500D02*
X366000Y107000D01*
X354000Y137500D02*
Y155000D01*
Y137500D02*
X356500Y135000D01*
X354000Y155000D02*
X359000Y160000D01*
X356500Y135000D02*
X366500D01*
X369500Y132000D01*
Y83500D02*
Y132000D01*
X365500Y79500D02*
X369500Y83500D01*
X358500Y79500D02*
X365500D01*
X368500Y59000D02*
X372500Y63000D01*
Y136500D01*
X369000Y140000D02*
X372500Y136500D01*
X358500Y59000D02*
X368500D01*
X358500Y140000D02*
X369000D01*
X353000Y114000D02*
X358500Y119500D01*
X324000Y114000D02*
X353000D01*
X319500Y42000D02*
Y109500D01*
X324000Y114000D01*
X319500Y42000D02*
X322000Y39500D01*
X324500Y46500D02*
Y92000D01*
X327000Y94500D02*
X354500D01*
X324500Y92000D02*
X327000Y94500D01*
X326500Y23500D02*
Y44500D01*
X324500Y46500D02*
X326500Y44500D01*
X322000Y19000D02*
X326500Y23500D01*
X354500Y94500D02*
X358500Y98500D01*
X114500Y283000D02*
Y299500D01*
X104000Y235000D02*
Y272500D01*
X114500Y283000D01*
X108000Y306000D02*
X114500Y299500D01*
X69500Y231000D02*
X100000D01*
X104000Y235000D01*
X64864Y226364D02*
X69500Y231000D01*
X64864Y223864D02*
Y226364D01*
X22500Y305000D02*
X26500Y309000D01*
X22500Y281000D02*
Y305000D01*
X64500Y312500D02*
Y328000D01*
X26500Y309000D02*
X61000D01*
X64500Y312500D01*
X22500Y281000D02*
X27500Y276000D01*
X54500D01*
X57500Y264000D02*
Y273000D01*
X54500Y276000D02*
X57500Y273000D01*
X64500Y245000D02*
Y257000D01*
X57500Y264000D02*
X64500Y257000D01*
X51000Y242000D02*
X54000Y245000D01*
X64500D01*
X31500Y285250D02*
Y286000D01*
X35250Y281500D02*
X68000D01*
X31500Y285250D02*
X35250Y281500D01*
X58500Y205000D02*
X61000Y202500D01*
X58500Y205000D02*
Y231000D01*
X61000Y202500D02*
X64500D01*
X59000Y239500D02*
X67000D01*
X30500Y278500D02*
X61500D01*
X27000Y282000D02*
Y300000D01*
Y282000D02*
X30500Y278500D01*
X27000Y300000D02*
X31500Y304500D01*
X64500Y265500D02*
Y275500D01*
X61500Y278500D02*
X64500Y275500D01*
X58500Y231000D02*
X62000Y234500D01*
X54500Y235000D02*
X59000Y239500D01*
X54500Y186000D02*
Y235000D01*
X59500Y181000D02*
X64500D01*
X54500Y186000D02*
X59500Y181000D01*
X51000Y162000D02*
Y242000D01*
Y162000D02*
X53500Y159500D01*
X64500D01*
Y195000D02*
X67000Y192500D01*
X64500Y195000D02*
Y202500D01*
X31000Y125000D02*
X68000D01*
X26000Y120000D02*
X31000Y125000D01*
X68000D02*
X74000Y131000D01*
X23000Y123500D02*
X27000Y127500D01*
X63500D02*
X69500Y133500D01*
X27000Y127500D02*
X63500D01*
X74000Y131000D02*
Y165000D01*
X85500Y135000D02*
Y189000D01*
X73000Y122500D02*
X85500Y135000D01*
X59000Y129500D02*
X64500Y135000D01*
Y139000D01*
X39000Y122500D02*
X73000D01*
X23000Y80500D02*
Y123500D01*
X26000Y104000D02*
Y120000D01*
Y104000D02*
X31136Y98864D01*
X64500Y174500D02*
Y181000D01*
X67000Y192500D02*
X82000D01*
X85500Y189000D01*
X35000Y118500D02*
X39000Y122500D01*
X64500Y174500D02*
X74000Y165000D01*
X31136Y98864D02*
X33735D01*
X64500Y159500D02*
X69500Y154500D01*
Y133500D02*
Y154500D01*
X23000Y80500D02*
X25500Y78000D01*
X34000D01*
Y118500D02*
X39500Y113000D01*
X71500D01*
X73500Y111000D01*
Y44500D02*
Y111000D01*
X72000Y38000D02*
Y43000D01*
X73500Y44500D01*
X66500Y94000D02*
X69000Y91500D01*
X67000Y44500D02*
X69000Y46500D01*
Y91500D01*
X67000Y21000D02*
Y44500D01*
X38598Y94000D02*
X66500D01*
X34000Y98598D02*
X38598Y94000D01*
X69089Y18912D02*
X71588D01*
X71636Y18864D01*
X67000Y21000D02*
X69089Y18912D01*
D20*
X91500Y78043D02*
D03*
Y74500D02*
D03*
X46000Y136282D02*
D03*
Y132738D02*
D03*
X376500Y76782D02*
D03*
Y73238D02*
D03*
X376000Y279000D02*
D03*
Y275457D02*
D03*
X376500Y217152D02*
D03*
Y213608D02*
D03*
X377000Y138282D02*
D03*
Y134738D02*
D03*
X300000Y76782D02*
D03*
Y73238D02*
D03*
X92000Y117282D02*
D03*
Y113738D02*
D03*
X376500Y96543D02*
D03*
Y93000D02*
D03*
X375500Y299000D02*
D03*
Y295457D02*
D03*
X376500Y238043D02*
D03*
Y234500D02*
D03*
X376000Y156500D02*
D03*
Y152957D02*
D03*
X300000Y96782D02*
D03*
Y93238D02*
D03*
X340000Y16282D02*
D03*
Y12738D02*
D03*
X376500Y117543D02*
D03*
Y114000D02*
D03*
X375500Y318500D02*
D03*
Y314957D02*
D03*
Y259000D02*
D03*
Y255457D02*
D03*
X300000Y116782D02*
D03*
Y113238D02*
D03*
X340000Y35282D02*
D03*
Y31738D02*
D03*
X376000Y177043D02*
D03*
Y173500D02*
D03*
X376500Y55782D02*
D03*
Y52238D02*
D03*
Y197543D02*
D03*
Y194000D02*
D03*
X300000Y57543D02*
D03*
Y54000D02*
D03*
X14000Y302500D02*
D03*
Y298957D02*
D03*
X89500Y283543D02*
D03*
Y280000D02*
D03*
X46000Y220782D02*
D03*
Y217238D02*
D03*
Y156543D02*
D03*
Y153000D02*
D03*
X15500Y94880D02*
D03*
Y91337D02*
D03*
X53500Y15782D02*
D03*
Y12238D02*
D03*
X91500Y58043D02*
D03*
Y54500D02*
D03*
X89500Y302543D02*
D03*
Y299000D02*
D03*
X46000Y242282D02*
D03*
Y238738D02*
D03*
Y178282D02*
D03*
Y174738D02*
D03*
X16500Y115880D02*
D03*
Y112337D02*
D03*
X54000Y35543D02*
D03*
Y32000D02*
D03*
X46500Y325043D02*
D03*
Y321500D02*
D03*
Y263043D02*
D03*
Y259500D02*
D03*
X15500Y54642D02*
D03*
Y51099D02*
D03*
X46000Y200282D02*
D03*
Y196738D02*
D03*
X14000Y284043D02*
D03*
Y280500D02*
D03*
X92000Y96043D02*
D03*
Y92500D02*
D03*
X15500Y74880D02*
D03*
Y71337D02*
D03*
D25*
X263185Y229582D02*
D03*
X267918Y234315D02*
D03*
X267082Y225685D02*
D03*
X271815Y230418D02*
D03*
D27*
X140043Y381000D02*
D03*
X136500D02*
D03*
X193500Y380500D02*
D03*
X189957D02*
D03*
X232500D02*
D03*
X228957D02*
D03*
D37*
X245153Y342075D02*
D03*
Y356642D02*
D03*
X243185Y342075D02*
D03*
Y356642D02*
D03*
X241216Y342075D02*
D03*
Y356642D02*
D03*
X239248Y342075D02*
D03*
Y356642D02*
D03*
X237280Y342075D02*
D03*
Y356642D02*
D03*
X235311Y342075D02*
D03*
Y356642D02*
D03*
X233343Y342075D02*
D03*
Y356642D02*
D03*
X231374Y342075D02*
D03*
Y356642D02*
D03*
X229405Y342075D02*
D03*
Y356642D02*
D03*
X227437Y342075D02*
D03*
Y356642D02*
D03*
X225468Y342075D02*
D03*
Y356642D02*
D03*
X223500Y342075D02*
D03*
Y356642D02*
D03*
X221532Y342075D02*
D03*
Y356642D02*
D03*
X219563Y342075D02*
D03*
Y356642D02*
D03*
X217595Y342075D02*
D03*
Y356642D02*
D03*
X215626Y342075D02*
D03*
Y356642D02*
D03*
X213657Y342075D02*
D03*
Y356642D02*
D03*
X211689Y342075D02*
D03*
Y356642D02*
D03*
X209720Y342075D02*
D03*
Y356642D02*
D03*
X207752Y342075D02*
D03*
Y356642D02*
D03*
X205784Y342075D02*
D03*
Y356642D02*
D03*
X203815Y342075D02*
D03*
Y356642D02*
D03*
X201847Y342075D02*
D03*
Y356642D02*
D03*
X199878Y342075D02*
D03*
Y356642D02*
D03*
X197909Y342075D02*
D03*
Y356642D02*
D03*
X195941Y342075D02*
D03*
Y356642D02*
D03*
X193972Y342075D02*
D03*
Y356642D02*
D03*
X192004Y342075D02*
D03*
Y356642D02*
D03*
X190035Y342075D02*
D03*
Y356642D02*
D03*
X188067Y342075D02*
D03*
Y356642D02*
D03*
X186098Y342075D02*
D03*
Y356642D02*
D03*
X184130Y342075D02*
D03*
Y356642D02*
D03*
X182161Y342075D02*
D03*
Y356642D02*
D03*
X180193Y342075D02*
D03*
Y356642D02*
D03*
X178224Y342075D02*
D03*
Y356642D02*
D03*
X176256Y342075D02*
D03*
Y356642D02*
D03*
X174287Y342075D02*
D03*
Y356642D02*
D03*
X172319Y342075D02*
D03*
Y356642D02*
D03*
X170350Y342075D02*
D03*
Y356642D02*
D03*
X168382Y342075D02*
D03*
Y356642D02*
D03*
X166413Y342075D02*
D03*
Y356642D02*
D03*
X164445Y342075D02*
D03*
Y356642D02*
D03*
X162476Y342075D02*
D03*
Y356642D02*
D03*
X160508Y342075D02*
D03*
Y356642D02*
D03*
X158539Y342075D02*
D03*
Y356642D02*
D03*
X156571Y342075D02*
D03*
Y356642D02*
D03*
X154602Y342075D02*
D03*
Y356642D02*
D03*
X152634Y342075D02*
D03*
Y356642D02*
D03*
X150665Y342075D02*
D03*
Y356642D02*
D03*
X148697Y342075D02*
D03*
Y356642D02*
D03*
X245153Y16484D02*
D03*
Y31051D02*
D03*
X243185Y16484D02*
D03*
Y31051D02*
D03*
X241216Y16484D02*
D03*
Y31051D02*
D03*
X239248Y16484D02*
D03*
Y31051D02*
D03*
X237280Y16484D02*
D03*
Y31051D02*
D03*
X235311Y16484D02*
D03*
Y31051D02*
D03*
X233343Y16484D02*
D03*
Y31051D02*
D03*
X231374Y16484D02*
D03*
Y31051D02*
D03*
X229405Y16484D02*
D03*
Y31051D02*
D03*
X227437Y16484D02*
D03*
Y31051D02*
D03*
X225468Y16484D02*
D03*
Y31051D02*
D03*
X223500Y16484D02*
D03*
Y31051D02*
D03*
X221532Y16484D02*
D03*
Y31051D02*
D03*
X219563Y16484D02*
D03*
Y31051D02*
D03*
X217595Y16484D02*
D03*
Y31051D02*
D03*
X215626Y16484D02*
D03*
Y31051D02*
D03*
X213657Y16484D02*
D03*
Y31051D02*
D03*
X211689Y16484D02*
D03*
Y31051D02*
D03*
X209720Y16484D02*
D03*
Y31051D02*
D03*
X207752Y16484D02*
D03*
Y31051D02*
D03*
X205784Y16484D02*
D03*
Y31051D02*
D03*
X203815Y16484D02*
D03*
Y31051D02*
D03*
X201847Y16484D02*
D03*
Y31051D02*
D03*
X199878Y16484D02*
D03*
Y31051D02*
D03*
X197909Y16484D02*
D03*
Y31051D02*
D03*
X195941Y16484D02*
D03*
Y31051D02*
D03*
X193972Y16484D02*
D03*
Y31051D02*
D03*
X192004Y16484D02*
D03*
Y31051D02*
D03*
X190035Y16484D02*
D03*
Y31051D02*
D03*
X188067Y16484D02*
D03*
Y31051D02*
D03*
X186098Y16484D02*
D03*
Y31051D02*
D03*
X184130Y16484D02*
D03*
Y31051D02*
D03*
X182161Y16484D02*
D03*
Y31051D02*
D03*
X180193Y16484D02*
D03*
Y31051D02*
D03*
X178224Y16484D02*
D03*
Y31051D02*
D03*
X176256Y16484D02*
D03*
Y31051D02*
D03*
X174287Y16484D02*
D03*
Y31051D02*
D03*
X172319Y16484D02*
D03*
Y31051D02*
D03*
X170350Y16484D02*
D03*
Y31051D02*
D03*
X168382Y16484D02*
D03*
Y31051D02*
D03*
X166413Y16484D02*
D03*
Y31051D02*
D03*
X164445Y16484D02*
D03*
Y31051D02*
D03*
X162476Y16484D02*
D03*
Y31051D02*
D03*
X160508Y16484D02*
D03*
Y31051D02*
D03*
X158539Y16484D02*
D03*
Y31051D02*
D03*
X156571Y16484D02*
D03*
Y31051D02*
D03*
X154602Y16484D02*
D03*
Y31051D02*
D03*
X152634Y16484D02*
D03*
Y31051D02*
D03*
X150665Y16484D02*
D03*
Y31051D02*
D03*
X148697Y16484D02*
D03*
Y31051D02*
D03*
D38*
X135492Y254957D02*
D03*
Y252398D02*
D03*
Y249839D02*
D03*
Y247280D02*
D03*
Y244721D02*
D03*
Y242161D02*
D03*
Y239602D02*
D03*
Y237043D02*
D03*
X159508Y254957D02*
D03*
Y252398D02*
D03*
Y249839D02*
D03*
Y247280D02*
D03*
Y244721D02*
D03*
Y242161D02*
D03*
Y239602D02*
D03*
Y237043D02*
D03*
X282508Y289543D02*
D03*
Y292102D02*
D03*
Y294661D02*
D03*
Y297220D02*
D03*
Y299780D02*
D03*
Y302339D02*
D03*
Y304898D02*
D03*
Y307457D02*
D03*
X258492Y289543D02*
D03*
Y292102D02*
D03*
Y294661D02*
D03*
Y297220D02*
D03*
Y299780D02*
D03*
Y302339D02*
D03*
Y304898D02*
D03*
Y307457D02*
D03*
X134992Y173957D02*
D03*
Y171398D02*
D03*
Y168839D02*
D03*
Y166279D02*
D03*
Y163721D02*
D03*
Y161161D02*
D03*
Y158602D02*
D03*
Y156043D02*
D03*
X159008Y173957D02*
D03*
Y171398D02*
D03*
Y168839D02*
D03*
Y166279D02*
D03*
Y163721D02*
D03*
Y161161D02*
D03*
Y158602D02*
D03*
Y156043D02*
D03*
X282508Y155543D02*
D03*
Y158102D02*
D03*
Y160661D02*
D03*
Y163221D02*
D03*
Y165779D02*
D03*
Y168339D02*
D03*
Y170898D02*
D03*
Y173457D02*
D03*
X258492Y155543D02*
D03*
Y158102D02*
D03*
Y160661D02*
D03*
Y163221D02*
D03*
Y165779D02*
D03*
Y168339D02*
D03*
Y170898D02*
D03*
Y173457D02*
D03*
X180992Y106957D02*
D03*
Y104398D02*
D03*
Y101839D02*
D03*
Y99279D02*
D03*
Y96720D02*
D03*
Y94161D02*
D03*
Y91602D02*
D03*
Y89043D02*
D03*
X205008Y106957D02*
D03*
Y104398D02*
D03*
Y101839D02*
D03*
Y99279D02*
D03*
Y96720D02*
D03*
Y94161D02*
D03*
Y91602D02*
D03*
Y89043D02*
D03*
X205508Y123543D02*
D03*
Y126102D02*
D03*
Y128661D02*
D03*
Y131220D02*
D03*
Y133780D02*
D03*
Y136339D02*
D03*
Y138898D02*
D03*
Y141457D02*
D03*
X181492Y123543D02*
D03*
Y126102D02*
D03*
Y128661D02*
D03*
Y131220D02*
D03*
Y133780D02*
D03*
Y136339D02*
D03*
Y138898D02*
D03*
Y141457D02*
D03*
D39*
X261000Y221858D02*
D03*
Y218000D02*
D03*
X219000Y196642D02*
D03*
Y200500D02*
D03*
X228000Y279858D02*
D03*
Y276000D02*
D03*
D40*
X92000Y104240D02*
D03*
Y100500D02*
D03*
X376500Y85370D02*
D03*
Y81630D02*
D03*
X376000Y287327D02*
D03*
Y283587D02*
D03*
X376500Y225740D02*
D03*
Y222000D02*
D03*
X377000Y146870D02*
D03*
Y143130D02*
D03*
X300000Y85370D02*
D03*
Y81630D02*
D03*
X92000Y125740D02*
D03*
Y122000D02*
D03*
X376500Y105000D02*
D03*
Y101260D02*
D03*
X375500Y307327D02*
D03*
Y303587D02*
D03*
X376500Y246740D02*
D03*
Y243000D02*
D03*
X376000Y165370D02*
D03*
Y161630D02*
D03*
X300000Y105370D02*
D03*
Y101630D02*
D03*
X340000Y24740D02*
D03*
Y21000D02*
D03*
X376500Y125870D02*
D03*
Y122130D02*
D03*
X375500Y326827D02*
D03*
Y323087D02*
D03*
Y267827D02*
D03*
Y264087D02*
D03*
X376000Y185240D02*
D03*
Y181500D02*
D03*
X300000Y125240D02*
D03*
Y121500D02*
D03*
X340000Y43740D02*
D03*
Y40000D02*
D03*
X376500Y64240D02*
D03*
Y60500D02*
D03*
Y206000D02*
D03*
Y202260D02*
D03*
X300000Y65870D02*
D03*
Y62130D02*
D03*
X14000Y310500D02*
D03*
Y306760D02*
D03*
X89500Y291740D02*
D03*
Y288000D02*
D03*
X46000Y228740D02*
D03*
Y225000D02*
D03*
Y164870D02*
D03*
Y161130D02*
D03*
X15500Y102969D02*
D03*
Y99228D02*
D03*
X53500Y23870D02*
D03*
Y20130D02*
D03*
X91500Y66240D02*
D03*
Y62500D02*
D03*
X89500Y310870D02*
D03*
Y307130D02*
D03*
X46000Y250370D02*
D03*
Y246630D02*
D03*
Y186370D02*
D03*
Y182630D02*
D03*
X16500Y123969D02*
D03*
Y120228D02*
D03*
X54000Y44000D02*
D03*
Y40260D02*
D03*
X91500Y86283D02*
D03*
Y82543D02*
D03*
X46500Y333240D02*
D03*
Y329500D02*
D03*
Y271240D02*
D03*
Y267500D02*
D03*
X46000Y208240D02*
D03*
Y204500D02*
D03*
Y144370D02*
D03*
Y140630D02*
D03*
X15500Y62969D02*
D03*
Y59228D02*
D03*
X14000Y292132D02*
D03*
Y288392D02*
D03*
X15500Y83099D02*
D03*
Y79358D02*
D03*
X267000Y216740D02*
D03*
Y213000D02*
D03*
D41*
X193193Y214878D02*
D03*
Y216846D02*
D03*
Y218815D02*
D03*
Y220783D02*
D03*
Y222752D02*
D03*
Y224721D02*
D03*
Y226689D02*
D03*
Y228658D02*
D03*
Y230626D02*
D03*
Y232594D02*
D03*
Y234563D02*
D03*
Y236531D02*
D03*
Y238500D02*
D03*
Y240469D02*
D03*
Y242437D02*
D03*
Y244406D02*
D03*
Y246374D02*
D03*
Y248342D02*
D03*
Y250311D02*
D03*
Y252279D02*
D03*
Y254248D02*
D03*
Y256217D02*
D03*
Y258185D02*
D03*
Y260154D02*
D03*
Y262122D02*
D03*
X254807D02*
D03*
Y260154D02*
D03*
Y258185D02*
D03*
Y256217D02*
D03*
Y254248D02*
D03*
Y252279D02*
D03*
Y250311D02*
D03*
Y248342D02*
D03*
Y246374D02*
D03*
Y244406D02*
D03*
Y242437D02*
D03*
Y240469D02*
D03*
Y238500D02*
D03*
Y236531D02*
D03*
Y234563D02*
D03*
Y232594D02*
D03*
Y230626D02*
D03*
Y228658D02*
D03*
Y226689D02*
D03*
Y224721D02*
D03*
Y222752D02*
D03*
Y220783D02*
D03*
Y218815D02*
D03*
Y216846D02*
D03*
Y214878D02*
D03*
D42*
X200378Y269307D02*
D03*
X202346D02*
D03*
X204315D02*
D03*
X206283D02*
D03*
X208252D02*
D03*
X210221D02*
D03*
X212189D02*
D03*
X214158D02*
D03*
X216126D02*
D03*
X218094D02*
D03*
X220063D02*
D03*
X222031D02*
D03*
X224000D02*
D03*
X225969D02*
D03*
X227937D02*
D03*
X229906D02*
D03*
X231874D02*
D03*
X233842D02*
D03*
X235811D02*
D03*
X237779D02*
D03*
X239748D02*
D03*
X241717D02*
D03*
X243685D02*
D03*
X245654D02*
D03*
X247622D02*
D03*
Y207693D02*
D03*
X245654D02*
D03*
X243685D02*
D03*
X241717D02*
D03*
X239748D02*
D03*
X237779D02*
D03*
X235811D02*
D03*
X233842D02*
D03*
X231874D02*
D03*
X229906D02*
D03*
X227937D02*
D03*
X225969D02*
D03*
X224000D02*
D03*
X222031D02*
D03*
X220063D02*
D03*
X218094D02*
D03*
X216126D02*
D03*
X214158D02*
D03*
X212189D02*
D03*
X210221D02*
D03*
X208252D02*
D03*
X206283D02*
D03*
X204315D02*
D03*
X202346D02*
D03*
X200378D02*
D03*
D43*
X14839Y33413D02*
D03*
X379012Y35366D02*
D03*
X15626Y360579D02*
D03*
D44*
X183071Y218500D02*
D03*
X186929D02*
D03*
X183071Y254000D02*
D03*
X186929D02*
D03*
X183142Y214500D02*
D03*
X187000D02*
D03*
X278571Y285000D02*
D03*
X282429D02*
D03*
X139000Y178500D02*
D03*
X135142D02*
D03*
X278571Y150500D02*
D03*
X282429D02*
D03*
X184929Y111500D02*
D03*
X181071D02*
D03*
X139358Y259000D02*
D03*
X135500D02*
D03*
X201571Y119000D02*
D03*
X205429D02*
D03*
D45*
X277508Y237500D02*
D03*
X273492D02*
D03*
X277508Y222000D02*
D03*
X273492D02*
D03*
D46*
X150370Y381000D02*
D03*
X146630D02*
D03*
X202500Y380500D02*
D03*
X198760D02*
D03*
X240740D02*
D03*
X237000D02*
D03*
D47*
X301000Y109000D02*
X305500D01*
X300000Y108000D02*
X301000Y109000D01*
X89000Y126000D02*
X91740D01*
X92000Y125740D01*
Y117282D02*
Y122000D01*
X46500Y321500D02*
X56500D01*
X186929Y218500D02*
X187000Y218429D01*
X223414Y276586D02*
X224000Y276000D01*
Y269307D02*
Y276000D01*
X223414Y276586D02*
Y283914D01*
X189645Y248342D02*
X193193D01*
X181500Y248000D02*
X189303D01*
X189645Y248342D01*
X176000Y253500D02*
X181500Y248000D01*
X184138Y249171D02*
X187671D01*
X178000Y255309D02*
X184138Y249171D01*
X178000Y255309D02*
Y294500D01*
X187671Y249171D02*
X188811Y250311D01*
X282508Y285079D02*
X282929Y285500D01*
X282429Y285000D02*
X282508Y285079D01*
X176000Y253500D02*
Y295500D01*
X186929Y254000D02*
X187000Y253929D01*
X188811Y250311D02*
X193193D01*
X223414Y283914D02*
X227500Y288000D01*
X379870Y125870D02*
X380000Y126000D01*
X376500Y125870D02*
X379870D01*
X376500Y117543D02*
Y122130D01*
Y109500D02*
Y114000D01*
Y89500D02*
Y93000D01*
Y70101D02*
Y73238D01*
X375500Y69000D02*
Y69101D01*
X376500Y70101D01*
Y52238D02*
X377000Y51738D01*
Y48000D02*
Y51738D01*
X376043Y153000D02*
X379500D01*
X300000Y113238D02*
Y113500D01*
Y110500D02*
Y113238D01*
X266000Y98500D02*
X266500Y99000D01*
X300000Y93238D02*
Y93500D01*
Y90500D02*
Y93238D01*
X298500Y89000D02*
X300000Y90500D01*
X303500Y88968D02*
Y89000D01*
X300000Y85370D02*
Y85469D01*
X303500Y88968D01*
X300000Y76782D02*
Y81630D01*
Y70500D02*
Y73238D01*
X298500Y69000D02*
X300000Y70500D01*
X268000Y69000D02*
X298500D01*
X300000Y53000D02*
Y54000D01*
X269500Y52000D02*
X299000D01*
X300000Y53000D01*
X160504Y342071D02*
X160508Y342075D01*
X160500Y334500D02*
X160504Y334504D01*
X156535Y342039D02*
X156571Y342075D01*
X156500Y334500D02*
X156535Y334535D01*
X152567Y342008D02*
X152634Y342075D01*
X152500Y334500D02*
X152567Y334567D01*
X148697Y342075D02*
X148848Y341923D01*
Y334652D02*
X149000Y334500D01*
X176000Y295500D02*
X180000Y299500D01*
Y341882D02*
X180193Y342075D01*
X180000Y299500D02*
Y341882D01*
X182000Y298500D02*
Y342075D01*
X178000Y294500D02*
X182000Y298500D01*
X184000Y259000D02*
Y342075D01*
Y259000D02*
X186500Y256500D01*
X186000Y259500D02*
Y342075D01*
Y259500D02*
X187315Y258185D01*
X188000Y260500D02*
Y342075D01*
Y260500D02*
X188347Y260154D01*
X190000Y297500D02*
Y342075D01*
Y297500D02*
X193193Y294307D01*
X192000Y300000D02*
Y342075D01*
Y300000D02*
X200378Y291622D01*
X194000Y301500D02*
Y342075D01*
Y301500D02*
X202346Y293154D01*
X196000Y304000D02*
Y342075D01*
Y304000D02*
X204315Y295685D01*
X198000Y306000D02*
Y342075D01*
Y306000D02*
X206283Y297716D01*
X200000Y308000D02*
Y342075D01*
Y308000D02*
X208252Y299748D01*
X208000Y314000D02*
X212500Y309500D01*
X207752Y342075D02*
X208000Y341827D01*
Y314000D02*
Y341827D01*
X206000Y312000D02*
X210500Y307500D01*
X205784Y342075D02*
X206000Y341858D01*
Y312000D02*
Y341858D01*
X204000Y310500D02*
X209000Y305500D01*
X203815Y342075D02*
X204000Y341890D01*
Y310500D02*
Y341890D01*
X201847Y309154D02*
Y342075D01*
Y309154D02*
X210221Y300780D01*
X209500Y317500D02*
Y342075D01*
Y317500D02*
X215500Y311500D01*
X211500Y320000D02*
Y342075D01*
Y320000D02*
X217500Y314000D01*
X213500Y322000D02*
Y342075D01*
Y322000D02*
X219000Y316500D01*
X215500Y324500D02*
Y342075D01*
Y324500D02*
X221000Y319000D01*
X217500Y327000D02*
Y342075D01*
Y327000D02*
X222000Y322500D01*
X219563Y338063D02*
Y342075D01*
X219000Y337500D02*
X219563Y338063D01*
X219000Y330000D02*
X224000Y325000D01*
X219000Y330000D02*
Y337500D01*
X221532Y338531D02*
Y342075D01*
X220500Y337500D02*
X221532Y338531D01*
X220500Y332500D02*
X225500Y327500D01*
X220500Y332500D02*
Y337500D01*
X223500Y338500D02*
Y342075D01*
X222000Y337000D02*
X223500Y338500D01*
X225468Y337469D02*
Y342075D01*
X224000Y336000D02*
X225468Y337469D01*
X227437Y337937D02*
Y342075D01*
X226500Y337000D02*
X227437Y337937D01*
X226500Y333500D02*
Y337000D01*
X229203Y341872D02*
X229405Y342075D01*
X229203Y336203D02*
Y341872D01*
X229000Y336000D02*
X229203Y336203D01*
X231187Y341888D02*
X231374Y342075D01*
X231187Y333687D02*
Y341888D01*
X231000Y333500D02*
X231187Y333687D01*
X233171Y341903D02*
X233343Y342075D01*
X233171Y336171D02*
Y341903D01*
X233000Y336000D02*
X233171Y336171D01*
X235311Y342075D02*
X235405Y341980D01*
Y333594D02*
Y341980D01*
Y333594D02*
X235500Y333500D01*
X237500Y280000D02*
Y341500D01*
X239500Y281500D02*
X244000Y277000D01*
X239500Y281500D02*
Y342000D01*
X241500Y283000D02*
X245500Y279000D01*
X241500Y283000D02*
Y342000D01*
X243000D02*
X243500Y341500D01*
X245000Y336000D02*
Y342000D01*
X224500Y380500D02*
X228957D01*
X232500D02*
X237000D01*
X240740D02*
X245500D01*
X132500Y381000D02*
X136500D01*
X140043D02*
X146630D01*
X186000Y380500D02*
X189957D01*
X193500D02*
X198760D01*
X150000D02*
X159500D01*
X202500Y380000D02*
X215000D01*
X282508Y307457D02*
X282529Y307478D01*
X289978D01*
X290000Y307500D01*
X282508Y304898D02*
X282559Y304949D01*
X293449D01*
X293500Y305000D01*
X282508Y302339D02*
X282589Y302419D01*
X289919D01*
X290000Y302500D01*
X282508Y299780D02*
X282648Y299640D01*
X293360D01*
X293500Y299500D01*
X282508Y297220D02*
X282618Y297110D01*
X289390D01*
X289500Y297000D01*
X282508Y294661D02*
X282677Y294831D01*
X293331D01*
X293500Y295000D01*
X282508Y292102D02*
X282559Y292051D01*
X288949D01*
X289000Y292000D01*
X270500Y307500D02*
X277000Y301000D01*
X258492Y307500D02*
X270500D01*
X277000Y290000D02*
Y301000D01*
X258492Y305000D02*
X270000D01*
X258492Y302500D02*
X269000D01*
X258492Y300000D02*
X268500D01*
X258492Y297000D02*
X267000D01*
X258492Y294661D02*
X258653Y294500D01*
X265000D01*
X258492Y292102D02*
X262898D01*
X135441Y252449D02*
X135492Y252398D01*
X128551Y252449D02*
X135441D01*
X128500Y252500D02*
X128551Y252449D01*
X135411Y249919D02*
X135492Y249839D01*
X125581Y249919D02*
X135411D01*
X125500Y250000D02*
X125581Y249919D01*
X135382Y247390D02*
X135492Y247280D01*
X128610Y247390D02*
X135382D01*
X128500Y247500D02*
X128610Y247390D01*
X135352Y244860D02*
X135492Y244721D01*
X125640Y244860D02*
X135352D01*
X125500Y245000D02*
X125640Y244860D01*
X135411Y242081D02*
X135492Y242161D01*
X128581Y242081D02*
X135411D01*
X128500Y242000D02*
X128581Y242081D01*
X135441Y239551D02*
X135492Y239602D01*
X125551Y239551D02*
X135441D01*
X125500Y239500D02*
X125551Y239551D01*
X135470Y237022D02*
X135492Y237043D01*
X129022Y237022D02*
X135470D01*
X129000Y237000D02*
X129022Y237022D01*
X157000Y255590D02*
X157634Y254957D01*
X157000Y255590D02*
X157222D01*
X157634Y254957D02*
X159508D01*
X139358Y259000D02*
X139500Y259142D01*
X135492Y258992D02*
X135500Y259000D01*
X159508Y252000D02*
X174000D01*
X159508Y249500D02*
X173000D01*
X159508Y247000D02*
X172500D01*
X159508Y244500D02*
X171500D01*
X159508Y242000D02*
X170000D01*
X159508Y239500D02*
X169000D01*
X159508Y237000D02*
X168000D01*
X282508Y173457D02*
X290672D01*
X291129Y173000D01*
X291500D01*
X282508Y170898D02*
X282559Y170949D01*
X293949D01*
X294000Y171000D01*
X282508Y168339D02*
X282677Y168169D01*
X290831D01*
X291000Y168000D01*
X282508Y165779D02*
X282648Y165640D01*
X293860D01*
X294000Y165500D01*
X282508Y163221D02*
X282648Y163360D01*
X290860D01*
X291000Y163500D01*
X282508Y160661D02*
X282677Y160831D01*
X293831D01*
X294000Y161000D01*
X282508Y158102D02*
X282559Y158051D01*
X290949D01*
X291000Y158000D01*
X278500Y150429D02*
X278571Y150500D01*
X282429D02*
X282437Y150508D01*
X257000Y174949D02*
X258492Y173457D01*
X256102Y170898D02*
X258492D01*
X254000Y173000D02*
X256102Y170898D01*
X253161Y168339D02*
X258492D01*
X252221Y165779D02*
X258492D01*
X250500Y163000D02*
X259500D01*
X248000Y158000D02*
X258492D01*
X249500Y160500D02*
X258492D01*
X134941Y171449D02*
X134992Y171398D01*
X129051Y171449D02*
X134941D01*
X129000Y171500D02*
X129051Y171449D01*
X134823Y168669D02*
X134992Y168839D01*
X127169Y168669D02*
X134823D01*
X127000Y168500D02*
X127169Y168669D01*
X130651Y166279D02*
X134992D01*
X129871Y165500D02*
X130651Y166279D01*
X129500Y165500D02*
X129871D01*
X130220Y163721D02*
X134992D01*
X129500Y163000D02*
X130220Y163721D01*
X127000Y163000D02*
X129500D01*
X134911Y161081D02*
X134992Y161161D01*
X129581Y161081D02*
X134911D01*
X129500Y161000D02*
X129581Y161081D01*
X134941Y158551D02*
X134992Y158602D01*
X127551Y158551D02*
X134941D01*
X127500Y158500D02*
X127551Y158551D01*
X134970Y156022D02*
X134992Y156043D01*
X129022Y156022D02*
X134970D01*
X129000Y156000D02*
X129022Y156022D01*
X165870Y173957D02*
X165913Y174000D01*
X159008Y171000D02*
X176000D01*
X159008Y168500D02*
X178000D01*
X159008Y166000D02*
X180500D01*
X159008Y163500D02*
X182500D01*
X159008Y161000D02*
X184500D01*
X159008Y158500D02*
X186000D01*
X159008Y156000D02*
X187500D01*
X205508Y126102D02*
X205559Y126051D01*
X215449D01*
X215500Y126000D01*
X205508Y128661D02*
X205589Y128581D01*
X212419D01*
X212500Y128500D01*
X205508Y131220D02*
X205618Y131110D01*
X215390D01*
X215500Y131000D01*
X205508Y133780D02*
X205618Y133890D01*
X212390D01*
X212500Y134000D01*
X205508Y136339D02*
X205589Y136419D01*
X215419D01*
X215500Y136500D01*
X205508Y138898D02*
X205559Y138949D01*
X212449D01*
X212500Y139000D01*
X205508Y141457D02*
X205529Y141478D01*
X215478D01*
X215500Y141500D01*
X182000Y126000D02*
X193000D01*
X220000Y207756D02*
X220031Y207787D01*
X220000Y214500D02*
X220031Y214469D01*
X220000Y207756D02*
X220063Y207693D01*
X174500Y123500D02*
X174543Y123543D01*
X205429Y119000D02*
X205508Y119079D01*
X180941Y104449D02*
X180992Y104398D01*
X171051Y104449D02*
X180941D01*
X171000Y104500D02*
X171051Y104449D01*
X180911Y101919D02*
X180992Y101839D01*
X174081Y101919D02*
X180911D01*
X174000Y102000D02*
X174081Y101919D01*
X180852Y99140D02*
X180992Y99279D01*
X171140Y99140D02*
X180852D01*
X171000Y99000D02*
X171140Y99140D01*
X180882Y96610D02*
X180992Y96720D01*
X174110Y96610D02*
X180882D01*
X174000Y96500D02*
X174110Y96610D01*
X180911Y94081D02*
X180992Y94161D01*
X171581Y94081D02*
X180911D01*
X171500Y94000D02*
X171581Y94081D01*
X180992Y111421D02*
X181071Y111500D01*
X211457Y106957D02*
X211500Y107000D01*
X205008Y104500D02*
X219000D01*
X220000Y105500D02*
Y158500D01*
X219000Y104500D02*
X220000Y105500D01*
X220076Y101576D02*
X222000Y103500D01*
X205008Y101839D02*
X205270Y101576D01*
X220076D01*
X205008Y99000D02*
X222000D01*
X205008Y96500D02*
X223000D01*
X205008Y94000D02*
X224000D01*
X205008Y91500D02*
X225000D01*
X230000Y96500D01*
X205008Y89043D02*
X205051Y89000D01*
X226000D02*
X232000Y95000D01*
X205051Y89000D02*
X226000D01*
X48658Y343342D02*
Y350366D01*
Y343342D02*
X54500Y337500D01*
X116500D01*
X78524Y340500D02*
X119500D01*
X134500Y325500D01*
X68657Y350366D02*
X78524Y340500D01*
X116500Y337500D02*
X132000Y322000D01*
X166000D01*
X78923Y346577D02*
X80500Y345000D01*
X120500D02*
X137000Y328500D01*
X80500Y345000D02*
X120500D01*
X134500Y325500D02*
X163500D01*
X165500Y328500D02*
X169000Y325000D01*
X137000Y328500D02*
X165500D01*
X78658Y350366D02*
X78923Y350101D01*
Y346577D02*
Y350101D01*
X88657Y350366D02*
X121634D01*
X140500Y331500D01*
X169000D01*
X171500Y329000D01*
Y326500D02*
Y329000D01*
X242189Y250311D02*
X254807D01*
X246158Y248342D02*
X254807D01*
X186500Y256500D02*
X189000D01*
X189284Y256217D01*
X193193D01*
X181775Y255217D02*
X182500Y254492D01*
X186929Y254000D02*
X187177Y254248D01*
X187315Y258185D02*
X193193D01*
X188347Y260154D02*
X193193D01*
Y262122D02*
Y294307D01*
X200378Y269307D02*
Y291622D01*
X202346Y269307D02*
Y293154D01*
X204315Y269307D02*
Y295685D01*
X206283Y269307D02*
Y297716D01*
X208252Y269307D02*
Y299748D01*
X210221Y269307D02*
Y300780D01*
X209000Y305500D02*
X211000D01*
X212189Y304311D01*
Y269307D02*
Y304311D01*
X210500Y307500D02*
X212500D01*
X214158Y269307D02*
Y305842D01*
X212500Y307500D02*
X214158Y305842D01*
X212500Y309500D02*
X215500D01*
X217000Y308000D01*
Y291000D02*
Y308000D01*
X215500Y311500D02*
X218000D01*
X219584Y309916D01*
X216126Y290126D02*
X217000Y291000D01*
X216126Y269307D02*
Y290126D01*
X218094Y289094D02*
X219584Y290584D01*
Y309916D01*
X218094Y269307D02*
Y289094D01*
X217500Y314000D02*
X220500D01*
X222500Y312000D01*
Y290500D02*
Y312000D01*
X220063Y288063D02*
X222500Y290500D01*
X220063Y269307D02*
Y288063D01*
X219000Y316500D02*
X222500D01*
X225000Y314000D01*
X221000Y319000D02*
X224000D01*
X227500Y315500D01*
X225000Y289000D02*
Y314000D01*
X222031Y286032D02*
X225000Y289000D01*
X222031Y269307D02*
Y286032D01*
X227500Y288000D02*
Y315500D01*
X225969Y263032D02*
X226000Y263000D01*
X222000Y322500D02*
X225500D01*
X230000Y318000D01*
Y286000D02*
Y318000D01*
X227500Y325000D02*
X231874Y320626D01*
Y269307D02*
Y320626D01*
X224000Y325000D02*
X227500D01*
X225500Y327500D02*
X229500D01*
X233842Y323158D01*
X230000Y286000D02*
X230500Y285500D01*
Y273500D02*
Y285500D01*
X230055Y273055D02*
X230500Y273500D01*
X229906Y269307D02*
X230055Y269457D01*
Y273055D01*
X233842Y269307D02*
Y323158D01*
X222000Y333500D02*
X225500Y330000D01*
X230000D01*
X235811Y324189D01*
X222000Y333500D02*
Y337000D01*
X235811Y269307D02*
Y324189D01*
X237779Y260661D02*
X238000Y260441D01*
X237779Y260661D02*
Y269307D01*
X237500Y280000D02*
X242500Y275000D01*
X239748Y263252D02*
Y269307D01*
X241500Y260500D02*
X241717Y260717D01*
Y269307D01*
X227937Y275937D02*
X228000Y276000D01*
X243500Y263500D02*
X243685Y263685D01*
Y269307D01*
X245500Y260500D02*
X245654Y260653D01*
Y269307D01*
X247622Y263622D02*
Y269307D01*
X242500Y275000D02*
X249000D01*
X244000Y277000D02*
X251500D01*
X249000Y275000D02*
X250000Y274000D01*
Y261000D02*
Y274000D01*
Y261000D02*
X250847Y260154D01*
X254807D01*
Y262122D02*
Y266193D01*
X253500Y267500D02*
Y275000D01*
Y267500D02*
X254807Y266193D01*
X251500Y277000D02*
X253500Y275000D01*
X252500Y279000D02*
X255500Y276000D01*
X245500Y279000D02*
X252500D01*
X255500Y268000D02*
X259500Y264000D01*
X255500Y268000D02*
Y276000D01*
X257500Y269000D02*
Y278000D01*
X248000Y281000D02*
X254500D01*
X257500Y278000D01*
X243500Y285500D02*
X248000Y281000D01*
X257500Y269000D02*
X261500Y265000D01*
X259500Y270000D02*
X263500Y266000D01*
X255500Y283000D02*
X259500Y279000D01*
Y270000D02*
Y279000D01*
X246000Y287000D02*
X250000Y283000D01*
X255500D01*
X257000Y285000D02*
X261500Y280500D01*
X252000Y285000D02*
X257000D01*
X261500Y272000D02*
Y280500D01*
X248500Y288500D02*
X252000Y285000D01*
X259500Y259000D02*
Y264000D01*
X258685Y258185D02*
X259500Y259000D01*
X254807Y258185D02*
X258685D01*
X243500Y285500D02*
Y341500D01*
X245000Y336000D02*
X246000Y335000D01*
Y287000D02*
Y335000D01*
X261500Y257500D02*
Y265000D01*
X260216Y256217D02*
X261500Y257500D01*
X254807Y256217D02*
X260216D01*
X263500Y256500D02*
Y266000D01*
X261248Y254248D02*
X263500Y256500D01*
X254807Y254248D02*
X261248D01*
X258626Y289035D02*
X259000D01*
X258500Y288910D02*
X258626Y289035D01*
X258492Y289543D02*
X259000Y289035D01*
X252500Y313000D02*
X260000D01*
X248500Y288500D02*
Y309000D01*
X252500Y313000D01*
X159500Y380500D02*
X164000Y376000D01*
X214000D01*
X218000Y372000D01*
X258000D01*
X262000Y368000D01*
Y315000D02*
Y368000D01*
X260500Y374500D02*
X265000Y370000D01*
X215000Y380000D02*
X220500Y374500D01*
X260500D01*
X265000Y335000D02*
Y370000D01*
X260000Y313000D02*
X262000Y315000D01*
X261500Y272000D02*
X265500Y268000D01*
Y255500D02*
Y268000D01*
X262280Y252279D02*
X265500Y255500D01*
X254807Y252279D02*
X262280D01*
X242000Y246500D02*
X242126Y246374D01*
X254807D01*
X262898Y292102D02*
X264000Y291000D01*
Y274000D02*
Y291000D01*
X265000Y294500D02*
X266500Y293000D01*
X264000Y274000D02*
X268000Y270000D01*
Y264000D02*
Y270000D01*
X246094Y244406D02*
X254807D01*
X268500Y276500D02*
Y295500D01*
X267000Y297000D02*
X268500Y295500D01*
Y276500D02*
X273500Y271500D01*
X266500Y274500D02*
Y293000D01*
Y274500D02*
X271000Y270000D01*
Y259000D02*
Y270000D01*
X242000Y242500D02*
X242063Y242437D01*
X254807D01*
X273500Y255500D02*
Y271500D01*
X276000Y259000D02*
Y272500D01*
X246031Y240469D02*
X254807D01*
X268500Y300000D02*
X271000Y297500D01*
Y291500D02*
Y297500D01*
X270000Y290500D02*
X271000Y291500D01*
X269000Y302500D02*
X273000Y298500D01*
Y291000D02*
Y298500D01*
X270000Y278500D02*
Y290500D01*
Y278500D02*
X276000Y272500D01*
X272000Y279500D02*
X278500Y273000D01*
Y256000D02*
Y273000D01*
X272000Y279500D02*
Y290000D01*
X261500Y241000D02*
Y244000D01*
X259000Y238500D02*
X261500Y241000D01*
X254807Y238500D02*
X259000D01*
X272000Y290000D02*
X273000Y291000D01*
X270000Y305000D02*
X275000Y300000D01*
Y290500D02*
Y300000D01*
X283500Y256000D02*
Y274500D01*
X273500Y281500D02*
X281000Y274000D01*
Y259000D02*
Y274000D01*
X275000Y283000D02*
X283500Y274500D01*
X275000Y283000D02*
Y288000D01*
X273500Y281500D02*
Y289000D01*
X263500Y241000D02*
Y246500D01*
X298158Y248342D02*
X307000Y239500D01*
X254807Y248342D02*
X298158D01*
X254807Y250311D02*
X299689D01*
X309000Y241000D01*
X259032Y236531D02*
X263500Y241000D01*
X254807Y236531D02*
X259032D01*
X273500Y289000D02*
X275000Y290500D01*
X265000Y244000D02*
X266500Y245500D01*
X265000Y240500D02*
Y244000D01*
X259063Y234563D02*
X265000Y240500D01*
X254807Y234563D02*
X259063D01*
X275000Y288000D02*
X277000Y290000D01*
X267000Y240500D02*
Y242000D01*
X259095Y232594D02*
X267000Y240500D01*
X254807Y232594D02*
X259095D01*
X174000Y252000D02*
X179626Y246374D01*
X193193D01*
X173000Y249500D02*
X178094Y244406D01*
X193193D01*
X172500Y247000D02*
X177063Y242437D01*
X193193D01*
X171500Y244500D02*
X175531Y240469D01*
X193193D01*
X170000Y242000D02*
X173500Y238500D01*
X193193D01*
X169000Y239500D02*
X171968Y236531D01*
X193193D01*
X168000Y237000D02*
X170437Y234563D01*
X193193D01*
X187500Y156000D02*
X194500Y163000D01*
Y204000D01*
X187000Y168000D02*
Y198000D01*
X182500Y163500D02*
X187000Y168000D01*
X192000Y164500D02*
Y203000D01*
X186000Y158500D02*
X192000Y164500D01*
X189500Y166000D02*
Y200000D01*
X184500Y161000D02*
X189500Y166000D01*
X184500Y170000D02*
Y196000D01*
X180500Y166000D02*
X184500Y170000D01*
X181500Y172000D02*
Y193000D01*
X178000Y168500D02*
X181500Y172000D01*
X176000Y171000D02*
X179000Y174000D01*
Y191000D01*
X178000Y192000D02*
X179000Y191000D01*
X172000Y192000D02*
X178000D01*
X162000Y202000D02*
X172000Y192000D01*
X162000Y202000D02*
Y225500D01*
X169095Y232594D01*
X193193D01*
X170626Y230626D02*
X193193D01*
X164500Y224500D02*
X170626Y230626D01*
X180000Y194500D02*
X181500Y193000D01*
X174500Y194500D02*
X180000D01*
X164500Y204500D02*
X174500Y194500D01*
X164500Y204500D02*
Y224500D01*
X167500Y223500D02*
X172658Y228658D01*
X193193D01*
X167500Y206000D02*
Y223500D01*
X183000Y197500D02*
X184500Y196000D01*
X176000Y197500D02*
X183000D01*
X167500Y206000D02*
X176000Y197500D01*
X184500Y200500D02*
X187000Y198000D01*
X177000Y200500D02*
X184500D01*
X170000Y207500D02*
X177000Y200500D01*
X170000Y207500D02*
Y222500D01*
X174189Y226689D01*
X193193D01*
X186500Y203000D02*
X189500Y200000D01*
X178500Y203000D02*
X186500D01*
X172500Y209000D02*
X178500Y203000D01*
X172500Y209000D02*
Y221500D01*
X175721Y224721D01*
X193193D01*
X189000Y206000D02*
X192000Y203000D01*
X179000Y206000D02*
X189000D01*
X174500Y210500D02*
X179000Y206000D01*
X174500Y210500D02*
Y220500D01*
X176752Y222752D01*
X193193D01*
X190000Y208500D02*
X194500Y204000D01*
X179500Y208500D02*
X190000D01*
X176500Y211500D02*
X179500Y208500D01*
X176500Y211500D02*
Y220000D01*
X178000Y221500D01*
X188500D01*
X189216Y220783D01*
X193193D01*
X187000Y214500D02*
X187378Y214878D01*
X182000Y141000D02*
X188000D01*
X189500Y142500D01*
Y148500D01*
X199000Y158000D01*
X192000Y139500D02*
Y148000D01*
X191000Y138500D02*
X192000Y139500D01*
Y148000D02*
X199500Y155500D01*
X199000Y158000D02*
X202000D01*
X204500Y160500D01*
Y193500D01*
X203000Y195000D02*
X204500Y193500D01*
X201000Y195000D02*
X203000D01*
X199500Y196500D02*
X201000Y195000D01*
X199500Y196500D02*
Y198500D01*
X200378Y199378D01*
Y207693D01*
X136000Y9500D02*
X139000Y6500D01*
X157000D02*
X158539Y8039D01*
X139000Y6500D02*
X157000D01*
X158500Y5500D02*
X160508Y7508D01*
X135925Y7500D02*
X137925Y5500D01*
X158500D01*
X160508Y7508D02*
Y16484D01*
X131000Y7500D02*
X135925D01*
X129000Y9500D02*
X131000Y7500D01*
X129000Y9500D02*
Y11000D01*
X202000Y197500D02*
Y202000D01*
X202346Y202346D01*
Y207693D01*
X158539Y8039D02*
Y16484D01*
X133500Y9500D02*
X136000D01*
X204315Y200185D02*
Y207693D01*
X156571Y11571D02*
Y16484D01*
X154602Y9602D02*
Y16484D01*
X246500Y71000D02*
X248000Y69500D01*
X241717Y131283D02*
X246500Y126500D01*
Y71000D02*
Y126500D01*
X251000Y69500D02*
Y70000D01*
X255000Y74000D01*
X254000Y69500D02*
Y70000D01*
X257000Y73000D01*
X255000Y74000D02*
Y129000D01*
X257000Y73000D02*
Y127000D01*
X255000Y129000D02*
X261000Y135000D01*
X257000Y127000D02*
X263000Y133000D01*
X261000Y135000D02*
X287000D01*
X298500Y146500D01*
Y173000D01*
X307000Y181500D01*
X300500Y171500D02*
X309000Y180000D01*
X300500Y145500D02*
Y171500D01*
X288000Y133000D02*
X300500Y145500D01*
X307000Y181500D02*
Y239500D01*
X263000Y133000D02*
X288000D01*
X309000Y180000D02*
Y241000D01*
X206283Y159783D02*
Y207693D01*
X202000Y155500D02*
X206283Y159783D01*
X181500Y138500D02*
X191000D01*
X199500Y155500D02*
X202000D01*
X182000Y136000D02*
X192000D01*
X194000Y138000D01*
Y147000D01*
X200500Y153500D01*
X203000D01*
X208000Y158500D01*
Y202500D01*
X208252Y202752D01*
Y207693D01*
X181500Y133500D02*
X192000D01*
X195500Y137000D01*
Y146000D01*
X201000Y151500D01*
X203500D01*
X209500Y157500D01*
X202000Y147500D02*
X205500D01*
X212500Y154500D01*
X201500Y149500D02*
X204500D01*
X211000Y156000D01*
Y202000D01*
X212500Y154500D02*
Y201500D01*
X214158Y203157D01*
X209500Y157500D02*
Y202500D01*
X210221Y203221D01*
Y207693D01*
X211000Y202000D02*
X212189Y203189D01*
X182000Y131000D02*
X192500D01*
X197000Y135500D01*
Y145000D01*
X201500Y149500D01*
X193000Y128500D02*
X198500Y134000D01*
Y144000D02*
X202000Y147500D01*
X198500Y134000D02*
Y144000D01*
X212189Y203189D02*
Y207693D01*
X181500Y128500D02*
X193000D01*
X200000Y143000D02*
X203000Y146000D01*
X206500D01*
X200000Y133000D02*
Y143000D01*
X206500Y146000D02*
X214000Y153500D01*
Y197500D01*
X214158Y203157D02*
Y207693D01*
X213500Y198000D02*
Y200500D01*
Y198000D02*
X214000Y197500D01*
X216126Y203126D02*
Y207693D01*
X213500Y200500D02*
X216126Y203126D01*
X193000Y126000D02*
X200000Y133000D01*
X344992Y350169D02*
Y357008D01*
X342500Y359500D02*
X344992Y357008D01*
X305000Y359500D02*
X342500D01*
X295500Y350000D02*
X305000Y359500D01*
X295500Y330500D02*
Y350000D01*
X235000Y215000D02*
Y220000D01*
Y215000D02*
X237779Y212221D01*
Y207693D02*
Y212221D01*
X292500Y352000D02*
X303000Y362500D01*
X292500Y321500D02*
Y352000D01*
X340000Y345161D02*
X344992Y340169D01*
X340000Y345161D02*
Y353000D01*
X337000Y356000D02*
X340000Y353000D01*
X305000Y356000D02*
X337000D01*
X298000Y349000D02*
X305000Y356000D01*
X298000Y327000D02*
Y349000D01*
X238000Y215000D02*
Y217500D01*
Y215000D02*
X239748Y213252D01*
Y207693D02*
Y213252D01*
X354992Y350169D02*
Y359008D01*
X351500Y362500D02*
X354992Y359008D01*
X303000Y362500D02*
X351500D01*
X305669Y350169D02*
X334992D01*
X301000Y345500D02*
X305669Y350169D01*
X301000Y330500D02*
Y345500D01*
X241717Y207693D02*
Y214784D01*
X262500Y213000D02*
X267000D01*
Y216740D02*
X267260Y217000D01*
X270500D01*
X247248Y222752D02*
X254807D01*
X249362Y216880D02*
X254773D01*
X249328Y216914D02*
X249362Y216880D01*
X254773D02*
X254807Y216846D01*
X277508Y234008D02*
Y237500D01*
X277500Y226000D02*
X277508Y225992D01*
Y222000D02*
Y225992D01*
X277778Y230557D02*
X277918Y230418D01*
X271954Y230557D02*
X277778D01*
X271815Y230418D02*
X271954Y230557D01*
X263185Y229582D02*
X263324Y229722D01*
X268340D01*
X269036Y230418D01*
X271815D01*
X273492Y222000D02*
Y224008D01*
X271815Y225685D02*
X273492Y224008D01*
X267082Y225685D02*
X267222Y225824D01*
X270001D01*
X270140Y225685D01*
X271815D01*
X266943Y225546D02*
X267082Y225685D01*
X261954Y225546D02*
X266943D01*
X258842Y228658D02*
X261954Y225546D01*
X254807Y228658D02*
X258842D01*
X267918Y234315D02*
X267918D01*
X271103Y237500D01*
X273492D01*
X262315Y234315D02*
X267918D01*
X258626Y230626D02*
X262315Y234315D01*
X254807Y230626D02*
X258626D01*
X254000Y197500D02*
X257500Y201000D01*
X254000Y173000D02*
Y197500D01*
X257000Y174949D02*
Y196500D01*
X260000Y199500D01*
Y204500D01*
X254807Y209693D02*
X260000Y204500D01*
X254807Y209693D02*
Y214878D01*
X251500Y200000D02*
X254000Y202500D01*
X251500Y170000D02*
Y200000D01*
Y170000D02*
X253161Y168339D01*
X257500Y201000D02*
Y202500D01*
X249500Y168500D02*
X252221Y165779D01*
X249500Y168500D02*
Y201399D01*
X250500Y202399D02*
Y202500D01*
X249500Y201399D02*
X250500Y202399D01*
X245500Y218500D02*
X254492D01*
X254807Y218815D01*
X243000Y220500D02*
X254524D01*
X254807Y220783D01*
X247622Y165878D02*
X250500Y163000D01*
X247622Y165878D02*
Y207693D01*
X245654Y164347D02*
Y207693D01*
Y164347D02*
X249500Y160500D01*
X243685Y162315D02*
Y207693D01*
Y162315D02*
X248000Y158000D01*
X241216Y31051D02*
Y40784D01*
X239500Y42500D02*
X241216Y40784D01*
X234500Y42500D02*
X239500D01*
X241717Y131283D02*
Y207693D01*
X242000Y69500D02*
Y125500D01*
X244000Y70500D02*
Y126000D01*
X239748Y130252D02*
X244000Y126000D01*
X237779Y129720D02*
X242000Y125500D01*
X239748Y130252D02*
Y207693D01*
X237779Y129720D02*
Y207693D01*
X243185Y31051D02*
X243342Y31209D01*
Y37843D01*
X243500Y38000D01*
X244000Y70500D02*
X245000Y69500D01*
X235811Y128689D02*
Y207693D01*
X240000Y70500D02*
Y124500D01*
X235811Y128689D02*
X240000Y124500D01*
X245544Y32000D02*
X248500D01*
X251500Y35000D02*
Y42500D01*
X248500Y32000D02*
X251500Y35000D01*
X245153Y31051D02*
Y31609D01*
X245544Y32000D01*
X239000Y69500D02*
X240000Y70500D01*
X245153Y9653D02*
Y16484D01*
X220000Y158500D02*
X222031Y160531D01*
Y207693D01*
X232000Y150000D02*
X233842Y151842D01*
X232000Y95000D02*
Y150000D01*
X233842Y151842D02*
Y207693D01*
X222000Y103500D02*
Y157000D01*
X224000Y159000D01*
Y207693D01*
X222000Y99000D02*
X224000Y101000D01*
Y155500D01*
X225969Y157468D01*
Y207693D01*
X223000Y96500D02*
X226000Y99500D01*
Y154000D01*
X228000Y98000D02*
Y152500D01*
X224000Y94000D02*
X228000Y98000D01*
X226000Y154000D02*
X227937Y155937D01*
Y207693D01*
X230000Y96500D02*
Y151000D01*
X228000Y152500D02*
X229906Y154405D01*
Y207693D01*
X230000Y151000D02*
X231874Y152874D01*
Y207693D01*
X297500Y131000D02*
X300000Y128500D01*
Y125240D02*
Y128500D01*
X41500Y333000D02*
X41740Y333240D01*
X46500D01*
Y325043D02*
Y329500D01*
X56500Y321500D02*
X58500Y323500D01*
Y329500D01*
X62000Y333000D01*
X67000D01*
X72000Y328000D01*
X79500D01*
X358500Y261000D02*
Y261500D01*
X375500Y311500D02*
Y314957D01*
X378980Y326827D02*
X379154Y327000D01*
X375500Y326827D02*
X378980D01*
X375500Y318500D02*
Y323087D01*
X378827Y307327D02*
X379000Y307500D01*
X375500Y307327D02*
X378827D01*
X375500Y299000D02*
Y303587D01*
Y291500D02*
Y295457D01*
X376173Y287500D02*
X379500D01*
X376000Y287327D02*
X376173Y287500D01*
X376000Y279000D02*
Y283587D01*
X375500Y274957D02*
X376000Y275457D01*
X375500Y272000D02*
Y274957D01*
Y267827D02*
X376173Y268500D01*
X379500D01*
X375500Y259000D02*
Y264087D01*
Y255457D02*
X375543Y255500D01*
X379500D01*
X375500Y250500D02*
Y251000D01*
Y250500D02*
X376500Y249500D01*
Y246740D02*
Y249500D01*
Y238043D02*
Y243000D01*
X376000Y234000D02*
X376500Y234500D01*
X376000Y230500D02*
Y234000D01*
X376760Y226000D02*
X380000D01*
X376500Y225740D02*
X376760Y226000D01*
X376500Y217152D02*
Y222000D01*
Y213608D02*
X376608Y213500D01*
X379500D01*
X376500Y206000D02*
Y209500D01*
X376000Y177043D02*
Y181500D01*
X376500Y197543D02*
Y202260D01*
X378240Y185240D02*
X379500Y186500D01*
X376000Y185240D02*
X378240D01*
X376500Y189500D02*
Y194000D01*
X376000Y173500D02*
X379500D01*
X376000Y165370D02*
Y169500D01*
Y156500D02*
Y161630D01*
Y152957D02*
X376043Y153000D01*
X373500Y149500D02*
X374370D01*
X377000Y146870D02*
Y146968D01*
X375921Y148048D02*
X377000Y146968D01*
X375822Y148048D02*
X375921D01*
X374370Y149500D02*
X375822Y148048D01*
X377000Y138282D02*
Y143130D01*
Y131000D02*
Y134738D01*
X300000Y105370D02*
Y108000D01*
Y96782D02*
Y101630D01*
X299000Y109500D02*
X300000Y110500D01*
X268500Y109500D02*
X299000D01*
X266000Y112000D02*
X268500Y109500D01*
X266000Y112000D02*
Y119500D01*
X269000Y89000D02*
X298500D01*
X266000Y92000D02*
X269000Y89000D01*
X266000Y92000D02*
Y98500D01*
Y99500D02*
X266500Y99000D01*
X266000Y71000D02*
X268000Y69000D01*
X266000Y71000D02*
Y79500D01*
Y55500D02*
X269500Y52000D01*
X266000Y55500D02*
Y59500D01*
X300000Y116782D02*
Y121500D01*
X378500Y105000D02*
X380000Y106500D01*
X376500Y105000D02*
X378500D01*
X376500Y96543D02*
Y101260D01*
X379130Y88000D02*
X380000D01*
X376500Y85370D02*
Y85469D01*
X377579Y86548D01*
X377678D01*
X379130Y88000D01*
X376500Y76782D02*
Y81630D01*
X379000Y66740D02*
Y67500D01*
X376500Y64240D02*
X379000Y66740D01*
X376500Y55782D02*
Y60500D01*
X303130Y69000D02*
X304000D01*
X300000Y65870D02*
Y65969D01*
X301080Y67048D01*
X301178D01*
X303130Y69000D01*
X300000Y57543D02*
Y62130D01*
X340000Y43740D02*
X344240D01*
X340000Y35282D02*
Y40000D01*
X337238Y31738D02*
X340000D01*
X334500Y29000D02*
X337238Y31738D01*
X334500Y16000D02*
Y29000D01*
X332500Y14000D02*
X334500Y16000D01*
X318500Y14000D02*
X332500D01*
X316000Y16500D02*
X318500Y14000D01*
X316000Y16500D02*
Y35000D01*
X312500Y38500D02*
X316000Y35000D01*
X307000Y38500D02*
X312500D01*
X338262Y11000D02*
X340000Y12738D01*
X307000Y15500D02*
X311500Y11000D01*
X338262D01*
X340000Y24740D02*
X344740D01*
X340000Y16282D02*
Y21000D01*
X307000Y15500D02*
Y19000D01*
X89500Y310870D02*
Y317000D01*
Y302543D02*
Y307130D01*
X103914Y297000D02*
X104000Y297086D01*
X91697Y297000D02*
X103914D01*
X89500Y299000D02*
X89697D01*
X91697Y297000D01*
X93740Y291740D02*
X95500Y293500D01*
X89500Y291740D02*
X93740D01*
X89500Y283543D02*
Y288000D01*
X14000Y296871D02*
Y298957D01*
Y296871D02*
X14500Y296371D01*
Y296000D02*
Y296371D01*
X24000Y273000D02*
X33000D01*
X21000Y276000D02*
X24000Y273000D01*
X16000Y276000D02*
X21000D01*
X14000Y313500D02*
X15000Y314500D01*
X14000Y310500D02*
Y313500D01*
Y302500D02*
Y306760D01*
X14368Y292500D02*
X16000D01*
X18500Y295000D01*
X14000Y292132D02*
X14368Y292500D01*
X14000Y284043D02*
Y288392D01*
X14238Y296262D02*
X14500Y296000D01*
X89500Y275500D02*
Y280000D01*
X42260Y271240D02*
X46500D01*
Y263043D02*
Y267500D01*
X14000Y278000D02*
X16000Y276000D01*
X14000Y278000D02*
Y280500D01*
X46500Y255000D02*
Y259500D01*
X42130Y250370D02*
X46000D01*
Y242282D02*
Y246630D01*
Y236500D02*
Y238738D01*
Y236500D02*
X47000Y235500D01*
X48500D01*
X46000Y228740D02*
Y233000D01*
Y220782D02*
Y225000D01*
Y215000D02*
Y217238D01*
Y215000D02*
X46500Y214500D01*
X48000D01*
X46000Y208240D02*
Y212000D01*
Y200282D02*
Y204500D01*
Y194000D02*
Y196738D01*
Y186370D02*
Y190500D01*
Y178282D02*
Y182630D01*
Y172000D02*
Y174738D01*
Y164870D02*
Y169000D01*
Y156543D02*
Y161130D01*
X48697Y150500D02*
X50000D01*
X46000Y153000D02*
X46197D01*
X48697Y150500D01*
X46000Y144370D02*
Y148500D01*
Y136282D02*
Y140630D01*
Y132738D02*
X46238Y132500D01*
X51000D01*
X16500Y123969D02*
Y128000D01*
Y115880D02*
Y120228D01*
X15500Y102969D02*
Y106399D01*
X14500Y107399D02*
X15500Y106399D01*
X14500Y107399D02*
Y107500D01*
X18000Y108000D02*
Y110837D01*
X16500Y112337D02*
X18000Y110837D01*
X14500Y87500D02*
X15500Y86500D01*
Y83099D02*
Y86500D01*
Y91337D02*
X17500Y89337D01*
Y87000D02*
Y89337D01*
X15500Y94880D02*
Y99228D01*
Y74880D02*
Y79358D01*
Y62969D02*
Y63067D01*
X17738Y65305D01*
Y66237D01*
X18000Y66500D01*
X15500Y54642D02*
Y59228D01*
X15055Y67926D02*
X15500Y68371D01*
Y71337D01*
X15055Y67555D02*
Y67926D01*
X91500Y112238D02*
X92500Y113238D01*
X92000Y113738D02*
X92500Y113238D01*
X91500Y110500D02*
Y112238D01*
X87500Y108500D02*
X91000D01*
X55902Y46000D02*
X58000D01*
X54000Y44098D02*
X55902Y46000D01*
X54000Y44000D02*
Y44098D01*
X53500Y23870D02*
Y23968D01*
X54580Y25048D01*
X54678D01*
X55630Y26000D01*
X57500D01*
X54000Y35543D02*
Y40260D01*
X53500Y15782D02*
Y20130D01*
X15500Y51099D02*
X45599D01*
X48735Y56833D02*
X49000Y57099D01*
X48735Y54234D02*
Y56833D01*
X45599Y51099D02*
X48735Y54234D01*
X92000Y89500D02*
Y92500D01*
Y104240D02*
Y107500D01*
X91000Y108500D02*
X92000Y107500D01*
Y96043D02*
Y100500D01*
X91500Y70500D02*
Y74500D01*
Y86283D02*
Y86382D01*
X90421Y87461D02*
X91500Y86382D01*
X90322Y87461D02*
X90421D01*
X89284Y88500D02*
X90322Y87461D01*
X87500Y88500D02*
X89284D01*
X91500Y78043D02*
Y82543D01*
X89839Y68000D02*
X91500Y66339D01*
X88371Y68000D02*
X89839D01*
X87871Y67500D02*
X88371Y68000D01*
X87500Y67500D02*
X87871D01*
X91500Y66240D02*
Y66339D01*
Y58043D02*
Y62500D01*
Y51000D02*
Y54500D01*
X180941Y91551D02*
X180992Y91602D01*
X174051Y91551D02*
X180941D01*
X174000Y91500D02*
X174051Y91551D01*
X78000Y16500D02*
Y34000D01*
X82000Y38000D02*
X87000D01*
X78000Y34000D02*
X82000Y38000D01*
X54000Y32000D02*
X60500D01*
X63000Y29500D01*
Y17500D02*
Y29500D01*
Y17500D02*
X66500Y14000D01*
X75500D01*
X78000Y16500D01*
X53500Y12238D02*
X53738Y12000D01*
X84500D01*
X87000Y14500D02*
Y18500D01*
X84500Y12000D02*
X87000Y14500D01*
X180971Y89022D02*
X180992Y89043D01*
X172022Y89022D02*
X180971D01*
X172000Y89000D02*
X172022Y89022D01*
X358500Y301000D02*
X359000Y300500D01*
X358500Y200000D02*
X358864Y200364D01*
X358136Y119864D02*
X358500Y119500D01*
X322000Y38500D02*
Y39500D01*
X358500Y98500D02*
Y99500D01*
X64500Y223500D02*
X64864Y223864D01*
X34000Y118500D02*
X35000D01*
X28004Y162445D02*
X28500Y161949D01*
X28004Y182130D02*
X29500Y180634D01*
X33735Y98864D02*
X34000Y98598D01*
X71636Y18864D02*
X72000Y18500D01*
X150665Y16484D02*
X152634D01*
X148697D02*
X150665D01*
X237280Y31051D02*
X239248D01*
X235311D02*
X237280D01*
X233343D02*
X235311D01*
X231374D02*
X233343D01*
X221500Y31083D02*
X221532Y31051D01*
X217595D02*
X219563D01*
X215626D02*
X217595D01*
X205784D02*
X207752D01*
X203815D02*
X205784D01*
X150665D02*
X152634D01*
X148697D02*
X150665D01*
D48*
X303500Y167000D02*
X313180Y176680D01*
Y179680D01*
X303500Y143500D02*
Y167000D01*
X173000Y45000D02*
X254000D01*
X170494Y42494D02*
X173000Y45000D01*
X254000D02*
X257000Y42000D01*
X172000Y48500D02*
X305000D01*
X308500Y52000D01*
X168382Y44882D02*
X172000Y48500D01*
X257000Y18000D02*
Y42000D01*
X170494Y37850D02*
Y42494D01*
X263500Y129000D02*
X289000D01*
X303500Y143500D01*
X259500Y125000D02*
X263500Y129000D01*
X259500Y57500D02*
Y125000D01*
X256500Y54500D02*
X259500Y57500D01*
X172000Y54500D02*
X256500D01*
X118500Y57500D02*
Y123000D01*
Y57500D02*
X122000Y54000D01*
X118500Y123000D02*
X123500Y128000D01*
X91000Y45500D02*
X152500D01*
X84000Y52500D02*
X91000Y45500D01*
X84000Y52500D02*
Y85500D01*
X79000Y46000D02*
Y57099D01*
Y46000D02*
X83000Y42000D01*
X108500D01*
X112500Y38000D01*
X117000D01*
X308500Y52000D02*
Y91000D01*
X313500Y96000D01*
Y99500D01*
Y119500D01*
X109500Y265500D02*
Y271000D01*
X116000Y277500D02*
X151000D01*
X109500Y271000D02*
X116000Y277500D01*
X79000Y118500D02*
Y123000D01*
X90000Y134000D02*
X108000D01*
X79000Y123000D02*
X90000Y134000D01*
X79000Y98598D02*
Y118500D01*
X172319Y39375D02*
X172457Y39514D01*
Y39681D01*
X172319Y31051D02*
Y39375D01*
X168382Y31051D02*
Y39882D01*
X257000Y18000D02*
X260500Y14500D01*
X272500D01*
X277000Y19000D01*
Y38500D01*
X283500Y45000D01*
X307500D01*
X313500Y51000D01*
Y59000D01*
Y79500D01*
X168382Y39882D02*
Y44882D01*
X313500Y119500D02*
Y140000D01*
X314000Y140500D02*
Y160000D01*
X313500Y140000D02*
X314000Y140500D01*
X313500Y180000D02*
Y199000D01*
X313180Y179680D02*
X313500Y180000D01*
Y220000D02*
Y240000D01*
Y199000D02*
Y220000D01*
X313000Y242000D02*
X314000Y241000D01*
X166413Y37913D02*
Y48913D01*
X172000Y54500D01*
X164445Y39945D02*
Y52445D01*
X171500Y59500D01*
X236000D01*
Y79500D01*
Y99500D01*
Y119500D01*
X158539Y37961D02*
X158545Y37966D01*
Y44456D01*
X154000Y60000D02*
X162476Y51524D01*
Y37976D02*
Y51524D01*
X164445Y31051D02*
Y39945D01*
X154000Y60000D02*
Y80000D01*
Y100000D01*
X154500Y100500D02*
Y120000D01*
X154000Y100000D02*
X154500Y100500D01*
X109500Y257000D02*
Y265500D01*
X117500Y176000D02*
Y249000D01*
X109500Y257000D02*
X117500Y249000D01*
X151000Y277500D02*
X153000Y279500D01*
Y285000D01*
X113000Y314000D02*
X149500D01*
X109500Y317500D02*
Y328000D01*
Y317500D02*
X113000Y314000D01*
X149500D02*
X153000Y310500D01*
Y306000D02*
Y310500D01*
X160508Y39992D02*
Y47992D01*
X122000Y54000D02*
X154500D01*
X160508Y47992D01*
X152500Y45500D02*
X156571Y41429D01*
X153500Y49500D02*
X158545Y44456D01*
X99500Y51500D02*
X101500Y49500D01*
X153500D01*
X123500Y128000D02*
Y170000D01*
X117500Y176000D02*
X123500Y170000D01*
X153000Y285000D02*
Y306000D01*
X105500Y127500D02*
X113000D01*
X117500Y132000D01*
Y166000D01*
X156571Y39929D02*
Y41429D01*
Y31051D02*
Y39929D01*
X99500Y51500D02*
Y121500D01*
X105500Y127500D01*
X109500Y174000D02*
X117500Y166000D01*
X109500Y174000D02*
Y181000D01*
Y202500D01*
Y223500D01*
Y245000D01*
X108000Y134000D02*
X109500Y135500D01*
X137500Y38500D02*
X141000Y42000D01*
X152500D01*
X154602Y39898D01*
X109500Y139000D02*
Y159500D01*
Y135500D02*
Y139000D01*
X79000Y90500D02*
X84000Y85500D01*
X79000Y90500D02*
Y98598D01*
X154602Y37898D02*
Y39898D01*
X137500Y17000D02*
Y38500D01*
X134500Y14000D02*
X137500Y17000D01*
X121500Y14000D02*
X134500D01*
X117000Y18500D02*
X121500Y14000D01*
X117000Y18500D02*
Y38000D01*
X79000Y57099D02*
Y78000D01*
X229405Y31051D02*
Y37405D01*
X227437Y31051D02*
Y39437D01*
X225468Y31051D02*
Y37468D01*
X223500Y31051D02*
Y39500D01*
X221500Y31083D02*
Y37500D01*
X213657Y31051D02*
Y37843D01*
X211689Y31051D02*
Y39689D01*
X209720Y31051D02*
Y37780D01*
X201847Y31051D02*
Y37846D01*
X199878Y31051D02*
Y39878D01*
X197909Y31051D02*
Y37909D01*
X195941Y31051D02*
Y39941D01*
X193972Y31051D02*
Y37972D01*
X192004Y31051D02*
Y39996D01*
X190035Y31051D02*
Y37965D01*
X188067Y31051D02*
Y39933D01*
X186098Y31051D02*
Y37902D01*
X184130Y31051D02*
Y39870D01*
X182161Y31051D02*
Y37839D01*
X180193Y31051D02*
Y39807D01*
X178224Y31051D02*
Y37724D01*
X176256Y31051D02*
Y39744D01*
X174287Y31051D02*
Y37713D01*
X170350Y31051D02*
Y37850D01*
X166413Y31051D02*
Y37913D01*
X162476Y31051D02*
Y37976D01*
X160508Y31051D02*
Y39992D01*
X158539Y31051D02*
Y37961D01*
X154602Y31051D02*
Y37898D01*
D49*
X38658Y350366D02*
D03*
X48658D02*
D03*
X58657D02*
D03*
X68657D02*
D03*
X78658D02*
D03*
X88657D02*
D03*
X334992Y340169D02*
D03*
Y350169D02*
D03*
X344992Y340169D02*
D03*
Y350169D02*
D03*
X354992Y340169D02*
D03*
Y350169D02*
D03*
D50*
X143776Y352705D02*
D03*
X250075D02*
D03*
X143776Y27114D02*
D03*
X250075D02*
D03*
Y20421D02*
D03*
X143776D02*
D03*
D51*
X28004Y221500D02*
D03*
Y201815D02*
D03*
Y182130D02*
D03*
Y162445D02*
D03*
D52*
X236000Y119500D02*
D03*
Y99500D02*
D03*
Y79500D02*
D03*
Y59500D02*
D03*
X313000Y320957D02*
D03*
X313500Y301000D02*
D03*
Y281500D02*
D03*
Y261000D02*
D03*
Y240500D02*
D03*
Y220000D02*
D03*
Y200000D02*
D03*
Y180000D02*
D03*
X314000Y160000D02*
D03*
X313500Y140000D02*
D03*
Y119500D02*
D03*
Y99500D02*
D03*
Y79500D02*
D03*
Y59000D02*
D03*
X277000Y38500D02*
D03*
Y19000D02*
D03*
X154500Y120000D02*
D03*
X153500Y100000D02*
D03*
X154000Y80000D02*
D03*
Y60000D02*
D03*
X76500Y304500D02*
D03*
Y286000D02*
D03*
X109500Y328000D02*
D03*
X153000Y306000D02*
D03*
Y285000D02*
D03*
X109500Y265500D02*
D03*
Y245000D02*
D03*
Y223500D02*
D03*
Y202500D02*
D03*
Y181000D02*
D03*
Y159500D02*
D03*
Y139000D02*
D03*
X79000Y118500D02*
D03*
Y98598D02*
D03*
Y78000D02*
D03*
Y57099D02*
D03*
X117000Y38000D02*
D03*
Y18500D02*
D03*
D53*
X251000Y119500D02*
D03*
X266000D02*
D03*
X281000D02*
D03*
X251000Y99500D02*
D03*
X266000D02*
D03*
X281000D02*
D03*
X251000Y79500D02*
D03*
X266000D02*
D03*
X281000D02*
D03*
X251000Y59500D02*
D03*
X266000D02*
D03*
X281000D02*
D03*
X328000Y320957D02*
D03*
X343000D02*
D03*
X358000D02*
D03*
X328500Y301000D02*
D03*
X343500D02*
D03*
X358500D02*
D03*
X328500Y281500D02*
D03*
X343500D02*
D03*
X358500D02*
D03*
X328500Y261000D02*
D03*
X343500D02*
D03*
X358500D02*
D03*
X328500Y240500D02*
D03*
X343500D02*
D03*
X358500D02*
D03*
X328500Y220000D02*
D03*
X343500D02*
D03*
X358500D02*
D03*
X328500Y200000D02*
D03*
X343500D02*
D03*
X358500D02*
D03*
X328500Y180000D02*
D03*
X343500D02*
D03*
X358500D02*
D03*
X329000Y160000D02*
D03*
X344000D02*
D03*
X359000D02*
D03*
X328500Y140000D02*
D03*
X343500D02*
D03*
X358500D02*
D03*
X328500Y119500D02*
D03*
X343500D02*
D03*
X358500D02*
D03*
X328500Y99500D02*
D03*
X343500D02*
D03*
X358500D02*
D03*
X328500Y79500D02*
D03*
X343500D02*
D03*
X358500D02*
D03*
X328500Y59000D02*
D03*
X343500D02*
D03*
X358500D02*
D03*
X292000Y38500D02*
D03*
X307000D02*
D03*
X322000D02*
D03*
X292000Y19000D02*
D03*
X307000D02*
D03*
X322000D02*
D03*
X139500Y120000D02*
D03*
X124500D02*
D03*
X109500D02*
D03*
X138500Y100000D02*
D03*
X123500D02*
D03*
X108500D02*
D03*
X139000Y80000D02*
D03*
X124000D02*
D03*
X109000D02*
D03*
X139000Y60000D02*
D03*
X124000D02*
D03*
X109000D02*
D03*
X61500Y304500D02*
D03*
X46500D02*
D03*
X31500D02*
D03*
X61500Y286000D02*
D03*
X46500D02*
D03*
X31500D02*
D03*
X94500Y328000D02*
D03*
X79500D02*
D03*
X64500D02*
D03*
X138000Y306000D02*
D03*
X123000D02*
D03*
X108000D02*
D03*
X138000Y285000D02*
D03*
X123000D02*
D03*
X108000D02*
D03*
X94500Y265500D02*
D03*
X79500D02*
D03*
X64500D02*
D03*
X94500Y245000D02*
D03*
X79500D02*
D03*
X64500D02*
D03*
X94500Y223500D02*
D03*
X79500D02*
D03*
X64500D02*
D03*
X94500Y202500D02*
D03*
X79500D02*
D03*
X64500D02*
D03*
X94500Y181000D02*
D03*
X79500D02*
D03*
X64500D02*
D03*
X94500Y159500D02*
D03*
X79500D02*
D03*
X64500D02*
D03*
X94500Y139000D02*
D03*
X79500D02*
D03*
X64500D02*
D03*
X64000Y118500D02*
D03*
X49000D02*
D03*
X34000D02*
D03*
X64000Y98598D02*
D03*
X49000D02*
D03*
X34000D02*
D03*
X64000Y78000D02*
D03*
X49000D02*
D03*
X34000D02*
D03*
X64000Y57099D02*
D03*
X49000D02*
D03*
X34000D02*
D03*
X102000Y38000D02*
D03*
X87000D02*
D03*
X72000D02*
D03*
X102000Y18500D02*
D03*
X87000D02*
D03*
X72000D02*
D03*
D54*
X15626Y379083D02*
D03*
X379012Y16091D02*
D03*
X14839Y14122D02*
D03*
X378618Y379083D02*
D03*
D55*
X305500Y109000D02*
D03*
X89000Y126000D02*
D03*
X187000Y211500D02*
D03*
X225000Y278000D02*
D03*
X185757Y250757D02*
D03*
X380000Y126000D02*
D03*
X379500Y153000D02*
D03*
X303500Y89000D02*
D03*
X224500Y380500D02*
D03*
X245500D02*
D03*
X132500Y381000D02*
D03*
X186000Y380500D02*
D03*
X260000Y214500D02*
D03*
X157000Y258500D02*
D03*
X139500Y263000D02*
D03*
X131500Y259000D02*
D03*
X278500Y146500D02*
D03*
X282500D02*
D03*
X252043Y155543D02*
D03*
X131150Y178350D02*
D03*
X139000Y182500D02*
D03*
X165913Y174000D02*
D03*
X220000Y214500D02*
D03*
X174500Y123500D02*
D03*
X197500Y119000D02*
D03*
X209500D02*
D03*
X177000Y111500D02*
D03*
X184929Y115429D02*
D03*
X211500Y107000D02*
D03*
X166000Y322000D02*
D03*
X163500Y325500D02*
D03*
X169000Y325000D02*
D03*
X171500Y326500D02*
D03*
X242189Y250311D02*
D03*
X246158Y248342D02*
D03*
X199779Y252279D02*
D03*
X182000Y258000D02*
D03*
X226000Y263000D02*
D03*
X224000Y336000D02*
D03*
X238000Y260441D02*
D03*
X235500Y333500D02*
D03*
X226500D02*
D03*
X239748Y263252D02*
D03*
X229000Y336000D02*
D03*
X241500Y260500D02*
D03*
X228000Y284000D02*
D03*
X231000Y333500D02*
D03*
X233000Y336000D02*
D03*
X243500Y263500D02*
D03*
X245500Y260500D02*
D03*
X247622Y263622D02*
D03*
X260500Y286000D02*
D03*
X280000Y281000D02*
D03*
X287500Y285500D02*
D03*
X265000Y335000D02*
D03*
X242000Y246500D02*
D03*
X268000Y264000D02*
D03*
X246094Y244406D02*
D03*
X271000Y259000D02*
D03*
X242000Y242500D02*
D03*
X273500Y255500D02*
D03*
X276000Y259000D02*
D03*
X246031Y240469D02*
D03*
X261500Y244000D02*
D03*
X278500Y256000D02*
D03*
X263500Y246500D02*
D03*
X281000Y259000D02*
D03*
X283500Y256000D02*
D03*
X266500Y245500D02*
D03*
X267000Y242000D02*
D03*
X179000Y219000D02*
D03*
Y214500D02*
D03*
X200000Y220000D02*
D03*
X129000Y11000D02*
D03*
X202000Y197500D02*
D03*
X133500Y9500D02*
D03*
X204315Y200185D02*
D03*
X152000Y9000D02*
D03*
X149500D02*
D03*
X156571Y11571D02*
D03*
X154602Y9602D02*
D03*
X187500Y42914D02*
D03*
X183000D02*
D03*
X178500D02*
D03*
X191000D02*
D03*
X248000Y69500D02*
D03*
X251000D02*
D03*
X254000D02*
D03*
X215500Y199500D02*
D03*
X219000Y192500D02*
D03*
X295500Y330500D02*
D03*
X301000D02*
D03*
X235000Y220000D02*
D03*
X292500Y321500D02*
D03*
X298000Y327000D02*
D03*
X238000Y217500D02*
D03*
X241717Y214784D02*
D03*
X247311Y226689D02*
D03*
X262500Y213000D02*
D03*
X270500Y217000D02*
D03*
X247248Y222752D02*
D03*
X249328Y216914D02*
D03*
X265000Y220500D02*
D03*
X277508Y234008D02*
D03*
X277500Y226000D02*
D03*
X277918Y230418D02*
D03*
X257500Y202500D02*
D03*
X245500Y218500D02*
D03*
X243000Y220500D02*
D03*
X254000Y202500D02*
D03*
X250500D02*
D03*
X234500Y42500D02*
D03*
X243500Y38000D02*
D03*
X245000Y69500D02*
D03*
X251500Y42500D02*
D03*
X242000Y69500D02*
D03*
X239000D02*
D03*
X245153Y9653D02*
D03*
X215500Y136500D02*
D03*
Y141500D02*
D03*
X212500Y134000D02*
D03*
Y139000D02*
D03*
X291000Y158000D02*
D03*
X297500Y131000D02*
D03*
X294000Y161000D02*
D03*
X291000Y163500D02*
D03*
X294000Y165500D02*
D03*
X291000Y168000D02*
D03*
X294000Y171000D02*
D03*
X291500Y173000D02*
D03*
X289000Y292000D02*
D03*
X293500Y295000D02*
D03*
X289500Y297000D02*
D03*
X293500Y299500D02*
D03*
X290000Y302500D02*
D03*
X293500Y305000D02*
D03*
X290000Y307500D02*
D03*
X375500Y69000D02*
D03*
X41500Y333000D02*
D03*
X306500Y343000D02*
D03*
X317500D02*
D03*
X152500Y334500D02*
D03*
X314000Y338000D02*
D03*
X156500Y334500D02*
D03*
X314000Y332500D02*
D03*
X375500Y311500D02*
D03*
X160500Y334500D02*
D03*
X149000D02*
D03*
X379154Y327000D02*
D03*
X379000Y307500D02*
D03*
X375500Y291500D02*
D03*
X379500Y287500D02*
D03*
X375500Y272000D02*
D03*
X379500Y268500D02*
D03*
Y255500D02*
D03*
X375500Y251000D02*
D03*
X376000Y230500D02*
D03*
X380000Y226000D02*
D03*
X379500Y213500D02*
D03*
X376500Y209500D02*
D03*
X379500Y186500D02*
D03*
X376500Y189500D02*
D03*
X379500Y173500D02*
D03*
X376000Y169500D02*
D03*
X373500Y149500D02*
D03*
X377000Y131000D02*
D03*
X376500Y109500D02*
D03*
X380000Y106500D02*
D03*
X376500Y89500D02*
D03*
X380000Y88000D02*
D03*
X379000Y67500D02*
D03*
X377000Y48000D02*
D03*
X304000Y69000D02*
D03*
X215500Y131000D02*
D03*
X212500Y128500D02*
D03*
X215500Y126000D02*
D03*
X344240Y43740D02*
D03*
X344740Y24740D02*
D03*
X128500Y252500D02*
D03*
X89500Y317000D02*
D03*
X104000Y297086D02*
D03*
X125500Y250000D02*
D03*
X95500Y293500D02*
D03*
X128500Y247500D02*
D03*
X125500Y245000D02*
D03*
X33000Y273000D02*
D03*
X15000Y314500D02*
D03*
X18500Y295000D02*
D03*
X14500Y296000D02*
D03*
X89500Y275500D02*
D03*
X42260Y271240D02*
D03*
X16000Y276000D02*
D03*
X128500Y242000D02*
D03*
X46500Y255000D02*
D03*
X42130Y250370D02*
D03*
X48500Y235500D02*
D03*
X125500Y239500D02*
D03*
X46000Y233000D02*
D03*
X129000Y237000D02*
D03*
X48000Y214500D02*
D03*
X46000Y212000D02*
D03*
Y194000D02*
D03*
X129000Y171500D02*
D03*
X46000Y190500D02*
D03*
X127000Y168500D02*
D03*
X46000Y172000D02*
D03*
Y169000D02*
D03*
X129500Y165500D02*
D03*
X50000Y150500D02*
D03*
X127000Y163000D02*
D03*
X129500Y161000D02*
D03*
X46000Y148500D02*
D03*
X51000Y132500D02*
D03*
X129000Y156000D02*
D03*
X127500Y158500D02*
D03*
X16500Y128000D02*
D03*
X14500Y107500D02*
D03*
X18000Y108000D02*
D03*
X14500Y87500D02*
D03*
X17500Y87000D02*
D03*
X18000Y66500D02*
D03*
X15055Y67555D02*
D03*
X171000Y104500D02*
D03*
X91500Y110500D02*
D03*
X87500Y108500D02*
D03*
X58000Y46000D02*
D03*
X57500Y26000D02*
D03*
X174000Y102000D02*
D03*
X171000Y99000D02*
D03*
X92000Y89500D02*
D03*
X87500Y88500D02*
D03*
X91500Y70500D02*
D03*
X174000Y96500D02*
D03*
X87500Y67500D02*
D03*
X91500Y51000D02*
D03*
X171500Y94000D02*
D03*
X174000Y91500D02*
D03*
X172000Y89000D02*
D03*
X172457Y39681D02*
D03*
X168382Y39882D02*
D03*
X164445Y39945D02*
D03*
X156571Y39929D02*
D03*
X197500Y24500D02*
D03*
X184500D02*
D03*
X170000D02*
D03*
X157500D02*
D03*
X151000Y11500D02*
D03*
X238000Y25000D02*
D03*
X235500D02*
D03*
X232500D02*
D03*
X238000Y37500D02*
D03*
X235500D02*
D03*
X232500D02*
D03*
X217500Y24500D02*
D03*
X219000Y26500D02*
D03*
X216500D02*
D03*
X219000Y36500D02*
D03*
X216500D02*
D03*
X217500Y38500D02*
D03*
X206000Y26500D02*
D03*
X207000Y24500D02*
D03*
X204500D02*
D03*
X205500Y36500D02*
D03*
X207000Y38500D02*
D03*
X204500D02*
D03*
X149500Y26500D02*
D03*
X152000D02*
D03*
X149500Y24500D02*
D03*
X152000D02*
D03*
Y36500D02*
D03*
X149500D02*
D03*
X152000Y38500D02*
D03*
X149500D02*
D03*
X229405Y37405D02*
D03*
X227437Y39437D02*
D03*
X225468Y37468D02*
D03*
X223500Y39500D02*
D03*
X221500Y37500D02*
D03*
X213657Y37843D02*
D03*
X211689Y39689D02*
D03*
X209720Y37780D02*
D03*
X201847Y37846D02*
D03*
X199878Y39878D02*
D03*
X197909Y37909D02*
D03*
X195941Y39941D02*
D03*
X193972Y37972D02*
D03*
X192004Y39996D02*
D03*
X190035Y37965D02*
D03*
X188067Y39933D02*
D03*
X186098Y37902D02*
D03*
X184130Y39870D02*
D03*
X182161Y37839D02*
D03*
X180193Y39807D02*
D03*
X178224Y37724D02*
D03*
X176256Y39744D02*
D03*
X174287Y37713D02*
D03*
X170350Y37850D02*
D03*
X166413Y37913D02*
D03*
X162476Y37976D02*
D03*
X160508Y39992D02*
D03*
X158539Y37961D02*
D03*
X154602Y37898D02*
D03*
M02*
