G04*
G04 #@! TF.GenerationSoftware,Altium Limited,Altium Designer,20.0.13 (296)*
G04*
G04 Layer_Physical_Order=3*
G04 Layer_Color=16440176*
%FSLAX25Y25*%
%MOIN*%
G70*
G01*
G75*
%ADD49C,0.06378*%
%ADD53C,0.04528*%
%ADD55C,0.01772*%
G36*
X373566Y387996D02*
X372900Y387640D01*
X371340Y386360D01*
X370061Y384801D01*
X369110Y383021D01*
X368524Y381091D01*
X368326Y379083D01*
X368524Y377075D01*
X369110Y375144D01*
X370061Y373365D01*
X371340Y371805D01*
X372900Y370525D01*
X374679Y369574D01*
X376610Y368988D01*
X378618Y368791D01*
X380626Y368988D01*
X382557Y369574D01*
X384336Y370525D01*
X385896Y371805D01*
X387176Y373365D01*
X387981Y374871D01*
X388481Y374746D01*
Y21132D01*
X387996Y21011D01*
X387569Y21809D01*
X386289Y23368D01*
X384730Y24648D01*
X382950Y25599D01*
X381020Y26185D01*
X379012Y26383D01*
X377004Y26185D01*
X375073Y25599D01*
X373294Y24648D01*
X371734Y23368D01*
X370454Y21809D01*
X369503Y20029D01*
X368917Y18098D01*
X368720Y16091D01*
X368917Y14083D01*
X369503Y12152D01*
X370454Y10373D01*
X371734Y8813D01*
X373294Y7533D01*
X375073Y6582D01*
X377004Y5996D01*
X379012Y5799D01*
X381020Y5996D01*
X382950Y6582D01*
X384730Y7533D01*
X386289Y8813D01*
X387569Y10373D01*
X387996Y11171D01*
X388481Y11049D01*
Y5270D01*
X20986D01*
X20807Y5770D01*
X22116Y6844D01*
X23396Y8404D01*
X24347Y10183D01*
X24933Y12114D01*
X25131Y14122D01*
X24933Y16130D01*
X24347Y18061D01*
X23396Y19840D01*
X22116Y21400D01*
X20557Y22680D01*
X18777Y23631D01*
X16847Y24216D01*
X14839Y24414D01*
X12831Y24216D01*
X10900Y23631D01*
X9121Y22680D01*
X7561Y21400D01*
X6281Y19840D01*
X5770Y18884D01*
X5270Y19009D01*
Y376215D01*
X5770Y376290D01*
X6117Y375144D01*
X7068Y373365D01*
X8348Y371805D01*
X9908Y370525D01*
X11687Y369574D01*
X13618Y368988D01*
X15626Y368791D01*
X17634Y368988D01*
X19565Y369574D01*
X21344Y370525D01*
X22904Y371805D01*
X24183Y373365D01*
X25135Y375144D01*
X25720Y377075D01*
X25918Y379083D01*
X25720Y381091D01*
X25135Y383021D01*
X24183Y384801D01*
X22904Y386360D01*
X21344Y387640D01*
X20678Y387996D01*
X20800Y388481D01*
X373444D01*
X373566Y387996D01*
D02*
G37*
%LPC*%
G36*
X132500Y382413D02*
X131959Y382305D01*
X131501Y381999D01*
X131195Y381541D01*
X131087Y381000D01*
X131195Y380459D01*
X131501Y380001D01*
X131959Y379695D01*
X132500Y379587D01*
X133041Y379695D01*
X133499Y380001D01*
X133805Y380459D01*
X133913Y381000D01*
X133805Y381541D01*
X133499Y381999D01*
X133041Y382305D01*
X132500Y382413D01*
D02*
G37*
G36*
X224500Y381913D02*
X223959Y381805D01*
X223501Y381499D01*
X223195Y381041D01*
X223087Y380500D01*
X223195Y379959D01*
X223501Y379501D01*
X223959Y379195D01*
X224500Y379087D01*
X225041Y379195D01*
X225499Y379501D01*
X225805Y379959D01*
X225913Y380500D01*
X225805Y381041D01*
X225499Y381499D01*
X225041Y381805D01*
X224500Y381913D01*
D02*
G37*
G36*
X186000D02*
X185459Y381805D01*
X185001Y381499D01*
X184695Y381041D01*
X184587Y380500D01*
X184695Y379959D01*
X185001Y379501D01*
X185459Y379195D01*
X186000Y379087D01*
X186541Y379195D01*
X186999Y379501D01*
X187305Y379959D01*
X187413Y380500D01*
X187305Y381041D01*
X186999Y381499D01*
X186541Y381805D01*
X186000Y381913D01*
D02*
G37*
G36*
X38857Y353960D02*
Y350566D01*
X42251D01*
X42154Y351303D01*
X41793Y352176D01*
X41217Y352926D01*
X40468Y353501D01*
X39594Y353863D01*
X38857Y353960D01*
D02*
G37*
G36*
X38458D02*
X37721Y353863D01*
X36847Y353501D01*
X36098Y352926D01*
X35522Y352176D01*
X35161Y351303D01*
X35064Y350566D01*
X38458D01*
Y353960D01*
D02*
G37*
G36*
X250075Y356576D02*
X249073Y356445D01*
X248139Y356058D01*
X247337Y355442D01*
X246722Y354641D01*
X246335Y353707D01*
X246203Y352705D01*
X246335Y351703D01*
X246722Y350769D01*
X247337Y349967D01*
X248139Y349352D01*
X249073Y348965D01*
X250075Y348833D01*
X251077Y348965D01*
X252011Y349352D01*
X252813Y349967D01*
X253428Y350769D01*
X253815Y351703D01*
X253946Y352705D01*
X253815Y353707D01*
X253428Y354641D01*
X252813Y355442D01*
X252011Y356058D01*
X251077Y356445D01*
X250075Y356576D01*
D02*
G37*
G36*
X143776D02*
X142773Y356445D01*
X141840Y356058D01*
X141038Y355442D01*
X140423Y354641D01*
X140036Y353707D01*
X139904Y352705D01*
X140036Y351703D01*
X140423Y350769D01*
X141038Y349967D01*
X141840Y349352D01*
X142773Y348965D01*
X143776Y348833D01*
X144778Y348965D01*
X145711Y349352D01*
X146513Y349967D01*
X147129Y350769D01*
X147515Y351703D01*
X147647Y352705D01*
X147515Y353707D01*
X147129Y354641D01*
X146513Y355442D01*
X145711Y356058D01*
X144778Y356445D01*
X143776Y356576D01*
D02*
G37*
G36*
X42251Y350166D02*
X38857D01*
Y346773D01*
X39594Y346869D01*
X40468Y347231D01*
X41217Y347806D01*
X41793Y348556D01*
X42154Y349429D01*
X42251Y350166D01*
D02*
G37*
G36*
X38458D02*
X35064D01*
X35161Y349429D01*
X35522Y348556D01*
X36098Y347806D01*
X36847Y347231D01*
X37721Y346869D01*
X38458Y346773D01*
Y350166D01*
D02*
G37*
G36*
X88657Y353986D02*
X87721Y353863D01*
X86848Y353501D01*
X86098Y352926D01*
X85523Y352176D01*
X85161Y351303D01*
X85037Y350366D01*
X85161Y349429D01*
X85523Y348556D01*
X86098Y347806D01*
X86848Y347231D01*
X87721Y346869D01*
X88657Y346746D01*
X89594Y346869D01*
X90468Y347231D01*
X91217Y347806D01*
X91793Y348556D01*
X92154Y349429D01*
X92277Y350366D01*
X92154Y351303D01*
X91793Y352176D01*
X91217Y352926D01*
X90468Y353501D01*
X89594Y353863D01*
X88657Y353986D01*
D02*
G37*
G36*
X78658D02*
X77721Y353863D01*
X76847Y353501D01*
X76098Y352926D01*
X75523Y352176D01*
X75161Y351303D01*
X75037Y350366D01*
X75161Y349429D01*
X75523Y348556D01*
X76098Y347806D01*
X76847Y347231D01*
X77721Y346869D01*
X78658Y346746D01*
X79594Y346869D01*
X80467Y347231D01*
X81217Y347806D01*
X81792Y348556D01*
X82154Y349429D01*
X82277Y350366D01*
X82154Y351303D01*
X81792Y352176D01*
X81217Y352926D01*
X80467Y353501D01*
X79594Y353863D01*
X78658Y353986D01*
D02*
G37*
G36*
X68657D02*
X67721Y353863D01*
X66847Y353501D01*
X66098Y352926D01*
X65522Y352176D01*
X65161Y351303D01*
X65038Y350366D01*
X65161Y349429D01*
X65522Y348556D01*
X66098Y347806D01*
X66847Y347231D01*
X67721Y346869D01*
X68657Y346746D01*
X69594Y346869D01*
X70468Y347231D01*
X71217Y347806D01*
X71793Y348556D01*
X72154Y349429D01*
X72277Y350366D01*
X72154Y351303D01*
X71793Y352176D01*
X71217Y352926D01*
X70468Y353501D01*
X69594Y353863D01*
X68657Y353986D01*
D02*
G37*
G36*
X58657D02*
X57721Y353863D01*
X56848Y353501D01*
X56098Y352926D01*
X55523Y352176D01*
X55161Y351303D01*
X55037Y350366D01*
X55161Y349429D01*
X55523Y348556D01*
X56098Y347806D01*
X56848Y347231D01*
X57721Y346869D01*
X58657Y346746D01*
X59594Y346869D01*
X60467Y347231D01*
X61217Y347806D01*
X61792Y348556D01*
X62154Y349429D01*
X62277Y350366D01*
X62154Y351303D01*
X61792Y352176D01*
X61217Y352926D01*
X60467Y353501D01*
X59594Y353863D01*
X58657Y353986D01*
D02*
G37*
G36*
X48658D02*
X47721Y353863D01*
X46848Y353501D01*
X46098Y352926D01*
X45522Y352176D01*
X45161Y351303D01*
X45037Y350366D01*
X45161Y349429D01*
X45522Y348556D01*
X46098Y347806D01*
X46848Y347231D01*
X47721Y346869D01*
X48658Y346746D01*
X49594Y346869D01*
X50467Y347231D01*
X51217Y347806D01*
X51793Y348556D01*
X52154Y349429D01*
X52277Y350366D01*
X52154Y351303D01*
X51793Y352176D01*
X51217Y352926D01*
X50467Y353501D01*
X49594Y353863D01*
X48658Y353986D01*
D02*
G37*
G36*
X354992Y353789D02*
X354055Y353666D01*
X353182Y353304D01*
X352432Y352729D01*
X351857Y351979D01*
X351496Y351106D01*
X351372Y350169D01*
X351496Y349232D01*
X351857Y348359D01*
X352432Y347610D01*
X353182Y347034D01*
X354055Y346673D01*
X354992Y346549D01*
X355929Y346673D01*
X356802Y347034D01*
X357552Y347610D01*
X358127Y348359D01*
X358489Y349232D01*
X358612Y350169D01*
X358489Y351106D01*
X358127Y351979D01*
X357552Y352729D01*
X356802Y353304D01*
X355929Y353666D01*
X354992Y353789D01*
D02*
G37*
G36*
X344992D02*
X344055Y353666D01*
X343182Y353304D01*
X342432Y352729D01*
X341857Y351979D01*
X341495Y351106D01*
X341372Y350169D01*
X341495Y349232D01*
X341857Y348359D01*
X342432Y347610D01*
X343182Y347034D01*
X344055Y346673D01*
X344992Y346549D01*
X345929Y346673D01*
X346802Y347034D01*
X347552Y347610D01*
X348127Y348359D01*
X348489Y349232D01*
X348612Y350169D01*
X348489Y351106D01*
X348127Y351979D01*
X347552Y352729D01*
X346802Y353304D01*
X345929Y353666D01*
X344992Y353789D01*
D02*
G37*
G36*
X334992D02*
X334055Y353666D01*
X333182Y353304D01*
X332432Y352729D01*
X331857Y351979D01*
X331495Y351106D01*
X331372Y350169D01*
X331495Y349232D01*
X331857Y348359D01*
X332432Y347610D01*
X333182Y347034D01*
X334055Y346673D01*
X334992Y346549D01*
X335929Y346673D01*
X336802Y347034D01*
X337552Y347610D01*
X338127Y348359D01*
X338489Y349232D01*
X338612Y350169D01*
X338489Y351106D01*
X338127Y351979D01*
X337552Y352729D01*
X336802Y353304D01*
X335929Y353666D01*
X334992Y353789D01*
D02*
G37*
G36*
X317500Y344413D02*
X316959Y344305D01*
X316501Y343999D01*
X316195Y343541D01*
X316087Y343000D01*
X316195Y342459D01*
X316501Y342001D01*
X316959Y341695D01*
X317500Y341587D01*
X318041Y341695D01*
X318499Y342001D01*
X318805Y342459D01*
X318913Y343000D01*
X318805Y343541D01*
X318499Y343999D01*
X318041Y344305D01*
X317500Y344413D01*
D02*
G37*
G36*
X306500D02*
X305959Y344305D01*
X305501Y343999D01*
X305195Y343541D01*
X305087Y343000D01*
X305195Y342459D01*
X305501Y342001D01*
X305959Y341695D01*
X306500Y341587D01*
X307041Y341695D01*
X307499Y342001D01*
X307805Y342459D01*
X307913Y343000D01*
X307805Y343541D01*
X307499Y343999D01*
X307041Y344305D01*
X306500Y344413D01*
D02*
G37*
G36*
X355192Y343763D02*
Y340369D01*
X358586D01*
X358489Y341106D01*
X358127Y341979D01*
X357552Y342729D01*
X356802Y343304D01*
X355929Y343666D01*
X355192Y343763D01*
D02*
G37*
G36*
X354792D02*
X354055Y343666D01*
X353182Y343304D01*
X352432Y342729D01*
X351857Y341979D01*
X351496Y341106D01*
X351398Y340369D01*
X354792D01*
Y343763D01*
D02*
G37*
G36*
X314000Y339413D02*
X313459Y339305D01*
X313001Y338999D01*
X312695Y338541D01*
X312587Y338000D01*
X312695Y337459D01*
X313001Y337001D01*
X313459Y336695D01*
X314000Y336587D01*
X314541Y336695D01*
X314999Y337001D01*
X315305Y337459D01*
X315413Y338000D01*
X315305Y338541D01*
X314999Y338999D01*
X314541Y339305D01*
X314000Y339413D01*
D02*
G37*
G36*
X354792Y339969D02*
X351398D01*
X351496Y339232D01*
X351857Y338359D01*
X352432Y337610D01*
X353182Y337034D01*
X354055Y336673D01*
X354792Y336576D01*
Y339969D01*
D02*
G37*
G36*
X358586D02*
X355192D01*
Y336576D01*
X355929Y336673D01*
X356802Y337034D01*
X357552Y337610D01*
X358127Y338359D01*
X358489Y339232D01*
X358586Y339969D01*
D02*
G37*
G36*
X344992Y343789D02*
X344055Y343666D01*
X343182Y343304D01*
X342432Y342729D01*
X341857Y341979D01*
X341495Y341106D01*
X341372Y340169D01*
X341495Y339232D01*
X341857Y338359D01*
X342432Y337610D01*
X343182Y337034D01*
X344055Y336673D01*
X344992Y336549D01*
X345929Y336673D01*
X346802Y337034D01*
X347552Y337610D01*
X348127Y338359D01*
X348489Y339232D01*
X348612Y340169D01*
X348489Y341106D01*
X348127Y341979D01*
X347552Y342729D01*
X346802Y343304D01*
X345929Y343666D01*
X344992Y343789D01*
D02*
G37*
G36*
X334992D02*
X334055Y343666D01*
X333182Y343304D01*
X332432Y342729D01*
X331857Y341979D01*
X331495Y341106D01*
X331372Y340169D01*
X331495Y339232D01*
X331857Y338359D01*
X332432Y337610D01*
X333182Y337034D01*
X334055Y336673D01*
X334992Y336549D01*
X335929Y336673D01*
X336802Y337034D01*
X337552Y337610D01*
X338127Y338359D01*
X338489Y339232D01*
X338612Y340169D01*
X338489Y341106D01*
X338127Y341979D01*
X337552Y342729D01*
X336802Y343304D01*
X335929Y343666D01*
X334992Y343789D01*
D02*
G37*
G36*
X233000Y337413D02*
X232459Y337305D01*
X232001Y336999D01*
X231695Y336541D01*
X231587Y336000D01*
X231695Y335459D01*
X231882Y335179D01*
X231569Y334836D01*
X231528Y334808D01*
X231000Y334913D01*
X230471Y334808D01*
X230431Y334836D01*
X230118Y335179D01*
X230305Y335459D01*
X230413Y336000D01*
X230305Y336541D01*
X229999Y336999D01*
X229541Y337305D01*
X229000Y337413D01*
X228459Y337305D01*
X228001Y336999D01*
X227695Y336541D01*
X227587Y336000D01*
X227695Y335459D01*
X228001Y335001D01*
X228459Y334695D01*
X229000Y334587D01*
X229528Y334692D01*
X229569Y334664D01*
X229882Y334321D01*
X229695Y334041D01*
X229587Y333500D01*
X229695Y332959D01*
X230001Y332501D01*
X230459Y332195D01*
X231000Y332087D01*
X231541Y332195D01*
X231999Y332501D01*
X232305Y332959D01*
X232413Y333500D01*
X232305Y334041D01*
X232118Y334321D01*
X232431Y334664D01*
X232471Y334692D01*
X233000Y334587D01*
X233541Y334695D01*
X233999Y335001D01*
X234305Y335459D01*
X234413Y336000D01*
X234305Y336541D01*
X233999Y336999D01*
X233541Y337305D01*
X233000Y337413D01*
D02*
G37*
G36*
X224000D02*
X223459Y337305D01*
X223001Y336999D01*
X222695Y336541D01*
X222587Y336000D01*
X222695Y335459D01*
X223001Y335001D01*
X223459Y334695D01*
X224000Y334587D01*
X224541Y334695D01*
X224999Y335001D01*
X225305Y335459D01*
X225413Y336000D01*
X225305Y336541D01*
X224999Y336999D01*
X224541Y337305D01*
X224000Y337413D01*
D02*
G37*
G36*
X265000Y336413D02*
X264459Y336305D01*
X264001Y335999D01*
X263695Y335541D01*
X263587Y335000D01*
X263695Y334459D01*
X264001Y334001D01*
X264459Y333695D01*
X265000Y333587D01*
X265541Y333695D01*
X265999Y334001D01*
X266305Y334459D01*
X266413Y335000D01*
X266305Y335541D01*
X265999Y335999D01*
X265541Y336305D01*
X265000Y336413D01*
D02*
G37*
G36*
X160500Y335913D02*
X159959Y335805D01*
X159501Y335499D01*
X159195Y335041D01*
X159087Y334500D01*
X159195Y333959D01*
X159501Y333501D01*
X159959Y333195D01*
X160500Y333087D01*
X161041Y333195D01*
X161499Y333501D01*
X161805Y333959D01*
X161913Y334500D01*
X161805Y335041D01*
X161499Y335499D01*
X161041Y335805D01*
X160500Y335913D01*
D02*
G37*
G36*
X156500D02*
X155959Y335805D01*
X155501Y335499D01*
X155195Y335041D01*
X155087Y334500D01*
X155195Y333959D01*
X155501Y333501D01*
X155959Y333195D01*
X156500Y333087D01*
X157041Y333195D01*
X157499Y333501D01*
X157805Y333959D01*
X157913Y334500D01*
X157805Y335041D01*
X157499Y335499D01*
X157041Y335805D01*
X156500Y335913D01*
D02*
G37*
G36*
X152500D02*
X151959Y335805D01*
X151501Y335499D01*
X151195Y335041D01*
X151087Y334500D01*
X151195Y333959D01*
X151501Y333501D01*
X151959Y333195D01*
X152500Y333087D01*
X153041Y333195D01*
X153499Y333501D01*
X153805Y333959D01*
X153913Y334500D01*
X153805Y335041D01*
X153499Y335499D01*
X153041Y335805D01*
X152500Y335913D01*
D02*
G37*
G36*
X149000D02*
X148459Y335805D01*
X148001Y335499D01*
X147695Y335041D01*
X147587Y334500D01*
X147695Y333959D01*
X148001Y333501D01*
X148459Y333195D01*
X149000Y333087D01*
X149541Y333195D01*
X149999Y333501D01*
X150305Y333959D01*
X150413Y334500D01*
X150305Y335041D01*
X149999Y335499D01*
X149541Y335805D01*
X149000Y335913D01*
D02*
G37*
G36*
X235500Y334913D02*
X234959Y334805D01*
X234501Y334499D01*
X234195Y334041D01*
X234087Y333500D01*
X234195Y332959D01*
X234501Y332501D01*
X234959Y332195D01*
X235500Y332087D01*
X236041Y332195D01*
X236499Y332501D01*
X236805Y332959D01*
X236913Y333500D01*
X236805Y334041D01*
X236499Y334499D01*
X236041Y334805D01*
X235500Y334913D01*
D02*
G37*
G36*
X226500D02*
X225959Y334805D01*
X225501Y334499D01*
X225195Y334041D01*
X225087Y333500D01*
X225195Y332959D01*
X225501Y332501D01*
X225959Y332195D01*
X226500Y332087D01*
X227041Y332195D01*
X227499Y332501D01*
X227805Y332959D01*
X227913Y333500D01*
X227805Y334041D01*
X227499Y334499D01*
X227041Y334805D01*
X226500Y334913D01*
D02*
G37*
G36*
X314000Y333913D02*
X313459Y333805D01*
X313001Y333499D01*
X312695Y333041D01*
X312587Y332500D01*
X312695Y331959D01*
X313001Y331501D01*
X313459Y331195D01*
X314000Y331087D01*
X314541Y331195D01*
X314999Y331501D01*
X315305Y331959D01*
X315413Y332500D01*
X315305Y333041D01*
X314999Y333499D01*
X314541Y333805D01*
X314000Y333913D01*
D02*
G37*
G36*
X301000Y331913D02*
X300459Y331805D01*
X300001Y331499D01*
X299695Y331041D01*
X299587Y330500D01*
X299695Y329959D01*
X300001Y329501D01*
X300459Y329195D01*
X301000Y329087D01*
X301541Y329195D01*
X301999Y329501D01*
X302305Y329959D01*
X302413Y330500D01*
X302305Y331041D01*
X301999Y331499D01*
X301541Y331805D01*
X301000Y331913D01*
D02*
G37*
G36*
X295500D02*
X294959Y331805D01*
X294501Y331499D01*
X294195Y331041D01*
X294087Y330500D01*
X294195Y329959D01*
X294501Y329501D01*
X294959Y329195D01*
X295500Y329087D01*
X296041Y329195D01*
X296499Y329501D01*
X296805Y329959D01*
X296913Y330500D01*
X296805Y331041D01*
X296499Y331499D01*
X296041Y331805D01*
X295500Y331913D01*
D02*
G37*
G36*
X94700Y330661D02*
Y328200D01*
X97161D01*
X97095Y328695D01*
X96827Y329344D01*
X96400Y329900D01*
X95843Y330327D01*
X95195Y330595D01*
X94700Y330661D01*
D02*
G37*
G36*
X94300D02*
X93805Y330595D01*
X93156Y330327D01*
X92600Y329900D01*
X92173Y329344D01*
X91905Y328695D01*
X91839Y328200D01*
X94300D01*
Y330661D01*
D02*
G37*
G36*
X171500Y327913D02*
X170959Y327805D01*
X170501Y327499D01*
X170195Y327041D01*
X170087Y326500D01*
X169627Y326247D01*
X169541Y326305D01*
X169000Y326413D01*
X168459Y326305D01*
X168001Y325999D01*
X167695Y325541D01*
X167587Y325000D01*
X167695Y324459D01*
X168001Y324001D01*
X168459Y323695D01*
X169000Y323587D01*
X169541Y323695D01*
X169999Y324001D01*
X170305Y324459D01*
X170413Y325000D01*
X170872Y325253D01*
X170959Y325195D01*
X171500Y325087D01*
X172041Y325195D01*
X172499Y325501D01*
X172805Y325959D01*
X172913Y326500D01*
X172805Y327041D01*
X172499Y327499D01*
X172041Y327805D01*
X171500Y327913D01*
D02*
G37*
G36*
X298000Y328413D02*
X297459Y328305D01*
X297001Y327999D01*
X296695Y327541D01*
X296587Y327000D01*
X296695Y326459D01*
X297001Y326001D01*
X297459Y325695D01*
X298000Y325587D01*
X298541Y325695D01*
X298999Y326001D01*
X299305Y326459D01*
X299413Y327000D01*
X299305Y327541D01*
X298999Y327999D01*
X298541Y328305D01*
X298000Y328413D01*
D02*
G37*
G36*
X109500Y330540D02*
X108528Y330347D01*
X107704Y329796D01*
X107153Y328972D01*
X106959Y328000D01*
X107153Y327028D01*
X107704Y326204D01*
X108528Y325653D01*
X109500Y325460D01*
X110472Y325653D01*
X111296Y326204D01*
X111847Y327028D01*
X112040Y328000D01*
X111847Y328972D01*
X111296Y329796D01*
X110472Y330347D01*
X109500Y330540D01*
D02*
G37*
G36*
X97161Y327800D02*
X94700D01*
Y325339D01*
X95195Y325405D01*
X95843Y325673D01*
X96400Y326100D01*
X96827Y326657D01*
X97095Y327305D01*
X97161Y327800D01*
D02*
G37*
G36*
X94300D02*
X91839D01*
X91905Y327305D01*
X92173Y326657D01*
X92600Y326100D01*
X93156Y325673D01*
X93805Y325405D01*
X94300Y325339D01*
Y327800D01*
D02*
G37*
G36*
X79500Y330687D02*
X78805Y330595D01*
X78157Y330327D01*
X77600Y329900D01*
X77173Y329344D01*
X76905Y328695D01*
X76813Y328000D01*
X76905Y327305D01*
X77173Y326657D01*
X77600Y326100D01*
X78157Y325673D01*
X78805Y325405D01*
X79500Y325313D01*
X80195Y325405D01*
X80844Y325673D01*
X81400Y326100D01*
X81827Y326657D01*
X82095Y327305D01*
X82187Y328000D01*
X82095Y328695D01*
X81827Y329344D01*
X81400Y329900D01*
X80844Y330327D01*
X80195Y330595D01*
X79500Y330687D01*
D02*
G37*
G36*
X64500D02*
X63805Y330595D01*
X63156Y330327D01*
X62600Y329900D01*
X62173Y329344D01*
X61905Y328695D01*
X61813Y328000D01*
X61905Y327305D01*
X62173Y326657D01*
X62600Y326100D01*
X63156Y325673D01*
X63805Y325405D01*
X64500Y325313D01*
X65195Y325405D01*
X65843Y325673D01*
X66400Y326100D01*
X66827Y326657D01*
X67095Y327305D01*
X67187Y328000D01*
X67095Y328695D01*
X66827Y329344D01*
X66400Y329900D01*
X65843Y330327D01*
X65195Y330595D01*
X64500Y330687D01*
D02*
G37*
G36*
X163500Y326913D02*
X162959Y326805D01*
X162501Y326499D01*
X162195Y326041D01*
X162087Y325500D01*
X162195Y324959D01*
X162501Y324501D01*
X162959Y324195D01*
X163500Y324087D01*
X164041Y324195D01*
X164499Y324501D01*
X164805Y324959D01*
X164913Y325500D01*
X164805Y326041D01*
X164499Y326499D01*
X164041Y326805D01*
X163500Y326913D01*
D02*
G37*
G36*
X328200Y323617D02*
Y321157D01*
X330661D01*
X330595Y321652D01*
X330327Y322300D01*
X329900Y322857D01*
X329344Y323284D01*
X328695Y323552D01*
X328200Y323617D01*
D02*
G37*
G36*
X327800D02*
X327305Y323552D01*
X326657Y323284D01*
X326100Y322857D01*
X325673Y322300D01*
X325405Y321652D01*
X325339Y321157D01*
X327800D01*
Y323617D01*
D02*
G37*
G36*
X166000Y323413D02*
X165459Y323305D01*
X165001Y322999D01*
X164695Y322541D01*
X164587Y322000D01*
X164695Y321459D01*
X165001Y321001D01*
X165459Y320695D01*
X166000Y320587D01*
X166541Y320695D01*
X166999Y321001D01*
X167305Y321459D01*
X167413Y322000D01*
X167305Y322541D01*
X166999Y322999D01*
X166541Y323305D01*
X166000Y323413D01*
D02*
G37*
G36*
X292500Y322913D02*
X291959Y322805D01*
X291501Y322499D01*
X291195Y322041D01*
X291087Y321500D01*
X291195Y320959D01*
X291501Y320501D01*
X291959Y320195D01*
X292500Y320087D01*
X293041Y320195D01*
X293499Y320501D01*
X293805Y320959D01*
X293913Y321500D01*
X293805Y322041D01*
X293499Y322499D01*
X293041Y322805D01*
X292500Y322913D01*
D02*
G37*
G36*
X313000Y323497D02*
X312028Y323304D01*
X311204Y322753D01*
X310653Y321929D01*
X310459Y320957D01*
X310653Y319985D01*
X311204Y319160D01*
X312028Y318610D01*
X313000Y318416D01*
X313972Y318610D01*
X314796Y319160D01*
X315347Y319985D01*
X315541Y320957D01*
X315347Y321929D01*
X314796Y322753D01*
X313972Y323304D01*
X313000Y323497D01*
D02*
G37*
G36*
X330661Y320757D02*
X328200D01*
Y318296D01*
X328695Y318361D01*
X329344Y318630D01*
X329900Y319057D01*
X330327Y319613D01*
X330595Y320261D01*
X330661Y320757D01*
D02*
G37*
G36*
X327800D02*
X325339D01*
X325405Y320261D01*
X325673Y319613D01*
X326100Y319057D01*
X326657Y318630D01*
X327305Y318361D01*
X327800Y318296D01*
Y320757D01*
D02*
G37*
G36*
X358000Y323644D02*
X357305Y323552D01*
X356657Y323284D01*
X356100Y322857D01*
X355673Y322300D01*
X355405Y321652D01*
X355313Y320957D01*
X355405Y320261D01*
X355673Y319613D01*
X356100Y319057D01*
X356657Y318630D01*
X357305Y318361D01*
X358000Y318270D01*
X358695Y318361D01*
X359344Y318630D01*
X359900Y319057D01*
X360327Y319613D01*
X360595Y320261D01*
X360687Y320957D01*
X360595Y321652D01*
X360327Y322300D01*
X359900Y322857D01*
X359344Y323284D01*
X358695Y323552D01*
X358000Y323644D01*
D02*
G37*
G36*
X343000D02*
X342305Y323552D01*
X341656Y323284D01*
X341100Y322857D01*
X340673Y322300D01*
X340405Y321652D01*
X340313Y320957D01*
X340405Y320261D01*
X340673Y319613D01*
X341100Y319057D01*
X341656Y318630D01*
X342305Y318361D01*
X343000Y318270D01*
X343695Y318361D01*
X344343Y318630D01*
X344900Y319057D01*
X345327Y319613D01*
X345595Y320261D01*
X345687Y320957D01*
X345595Y321652D01*
X345327Y322300D01*
X344900Y322857D01*
X344343Y323284D01*
X343695Y323552D01*
X343000Y323644D01*
D02*
G37*
G36*
X375500Y312913D02*
X374959Y312805D01*
X374501Y312499D01*
X374195Y312041D01*
X374087Y311500D01*
X374195Y310959D01*
X374501Y310501D01*
X374959Y310195D01*
X375500Y310087D01*
X376041Y310195D01*
X376499Y310501D01*
X376805Y310959D01*
X376913Y311500D01*
X376805Y312041D01*
X376499Y312499D01*
X376041Y312805D01*
X375500Y312913D01*
D02*
G37*
G36*
X138200Y308661D02*
Y306200D01*
X140661D01*
X140595Y306695D01*
X140327Y307344D01*
X139900Y307900D01*
X139344Y308327D01*
X138695Y308595D01*
X138200Y308661D01*
D02*
G37*
G36*
X137800D02*
X137305Y308595D01*
X136656Y308327D01*
X136100Y307900D01*
X135673Y307344D01*
X135405Y306695D01*
X135339Y306200D01*
X137800D01*
Y308661D01*
D02*
G37*
G36*
X290000Y308913D02*
X289459Y308805D01*
X289001Y308499D01*
X288695Y308041D01*
X288587Y307500D01*
X288695Y306959D01*
X289001Y306501D01*
X289459Y306195D01*
X290000Y306087D01*
X290541Y306195D01*
X290999Y306501D01*
X291305Y306959D01*
X291413Y307500D01*
X291305Y308041D01*
X290999Y308499D01*
X290541Y308805D01*
X290000Y308913D01*
D02*
G37*
G36*
X61700Y307161D02*
Y304700D01*
X64161D01*
X64095Y305195D01*
X63827Y305843D01*
X63400Y306400D01*
X62844Y306827D01*
X62195Y307095D01*
X61700Y307161D01*
D02*
G37*
G36*
X61300D02*
X60805Y307095D01*
X60157Y306827D01*
X59600Y306400D01*
X59173Y305843D01*
X58905Y305195D01*
X58839Y304700D01*
X61300D01*
Y307161D01*
D02*
G37*
G36*
X293500Y306413D02*
X292959Y306305D01*
X292501Y305999D01*
X292195Y305541D01*
X292087Y305000D01*
X292195Y304459D01*
X292501Y304001D01*
X292959Y303695D01*
X293500Y303587D01*
X294041Y303695D01*
X294499Y304001D01*
X294805Y304459D01*
X294913Y305000D01*
X294805Y305541D01*
X294499Y305999D01*
X294041Y306305D01*
X293500Y306413D01*
D02*
G37*
G36*
X153000Y308541D02*
X152028Y308347D01*
X151204Y307796D01*
X150653Y306972D01*
X150460Y306000D01*
X150653Y305028D01*
X151204Y304204D01*
X152028Y303653D01*
X153000Y303460D01*
X153972Y303653D01*
X154796Y304204D01*
X155347Y305028D01*
X155541Y306000D01*
X155347Y306972D01*
X154796Y307796D01*
X153972Y308347D01*
X153000Y308541D01*
D02*
G37*
G36*
X140661Y305800D02*
X138200D01*
Y303339D01*
X138695Y303405D01*
X139344Y303673D01*
X139900Y304100D01*
X140327Y304657D01*
X140595Y305305D01*
X140661Y305800D01*
D02*
G37*
G36*
X137800D02*
X135339D01*
X135405Y305305D01*
X135673Y304657D01*
X136100Y304100D01*
X136656Y303673D01*
X137305Y303405D01*
X137800Y303339D01*
Y305800D01*
D02*
G37*
G36*
X123000Y308687D02*
X122305Y308595D01*
X121657Y308327D01*
X121100Y307900D01*
X120673Y307344D01*
X120405Y306695D01*
X120313Y306000D01*
X120405Y305305D01*
X120673Y304657D01*
X121100Y304100D01*
X121657Y303673D01*
X122305Y303405D01*
X123000Y303313D01*
X123695Y303405D01*
X124344Y303673D01*
X124900Y304100D01*
X125327Y304657D01*
X125595Y305305D01*
X125687Y306000D01*
X125595Y306695D01*
X125327Y307344D01*
X124900Y307900D01*
X124344Y308327D01*
X123695Y308595D01*
X123000Y308687D01*
D02*
G37*
G36*
X108000D02*
X107305Y308595D01*
X106657Y308327D01*
X106100Y307900D01*
X105673Y307344D01*
X105405Y306695D01*
X105313Y306000D01*
X105405Y305305D01*
X105673Y304657D01*
X106100Y304100D01*
X106657Y303673D01*
X107305Y303405D01*
X108000Y303313D01*
X108695Y303405D01*
X109344Y303673D01*
X109900Y304100D01*
X110327Y304657D01*
X110595Y305305D01*
X110687Y306000D01*
X110595Y306695D01*
X110327Y307344D01*
X109900Y307900D01*
X109344Y308327D01*
X108695Y308595D01*
X108000Y308687D01*
D02*
G37*
G36*
X76500Y307041D02*
X75528Y306847D01*
X74704Y306296D01*
X74153Y305472D01*
X73959Y304500D01*
X74153Y303528D01*
X74704Y302704D01*
X75528Y302153D01*
X76500Y301959D01*
X77472Y302153D01*
X78296Y302704D01*
X78847Y303528D01*
X79040Y304500D01*
X78847Y305472D01*
X78296Y306296D01*
X77472Y306847D01*
X76500Y307041D01*
D02*
G37*
G36*
X64161Y304300D02*
X61700D01*
Y301839D01*
X62195Y301905D01*
X62844Y302173D01*
X63400Y302600D01*
X63827Y303156D01*
X64095Y303805D01*
X64161Y304300D01*
D02*
G37*
G36*
X61300D02*
X58839D01*
X58905Y303805D01*
X59173Y303156D01*
X59600Y302600D01*
X60157Y302173D01*
X60805Y301905D01*
X61300Y301839D01*
Y304300D01*
D02*
G37*
G36*
X46500Y307187D02*
X45805Y307095D01*
X45156Y306827D01*
X44600Y306400D01*
X44173Y305843D01*
X43905Y305195D01*
X43813Y304500D01*
X43905Y303805D01*
X44173Y303156D01*
X44600Y302600D01*
X45156Y302173D01*
X45805Y301905D01*
X46500Y301813D01*
X47195Y301905D01*
X47844Y302173D01*
X48400Y302600D01*
X48827Y303156D01*
X49095Y303805D01*
X49187Y304500D01*
X49095Y305195D01*
X48827Y305843D01*
X48400Y306400D01*
X47844Y306827D01*
X47195Y307095D01*
X46500Y307187D01*
D02*
G37*
G36*
X31500D02*
X30805Y307095D01*
X30156Y306827D01*
X29600Y306400D01*
X29173Y305843D01*
X28905Y305195D01*
X28813Y304500D01*
X28905Y303805D01*
X29173Y303156D01*
X29600Y302600D01*
X30156Y302173D01*
X30805Y301905D01*
X31500Y301813D01*
X32195Y301905D01*
X32844Y302173D01*
X33400Y302600D01*
X33827Y303156D01*
X34095Y303805D01*
X34187Y304500D01*
X34095Y305195D01*
X33827Y305843D01*
X33400Y306400D01*
X32844Y306827D01*
X32195Y307095D01*
X31500Y307187D01*
D02*
G37*
G36*
X328700Y303661D02*
Y301200D01*
X331161D01*
X331095Y301695D01*
X330827Y302344D01*
X330400Y302900D01*
X329843Y303327D01*
X329195Y303595D01*
X328700Y303661D01*
D02*
G37*
G36*
X328300D02*
X327805Y303595D01*
X327156Y303327D01*
X326600Y302900D01*
X326173Y302344D01*
X325905Y301695D01*
X325839Y301200D01*
X328300D01*
Y303661D01*
D02*
G37*
G36*
X290000Y303913D02*
X289459Y303805D01*
X289001Y303499D01*
X288695Y303041D01*
X288587Y302500D01*
X288695Y301959D01*
X289001Y301501D01*
X289459Y301195D01*
X290000Y301087D01*
X290541Y301195D01*
X290999Y301501D01*
X291305Y301959D01*
X291413Y302500D01*
X291305Y303041D01*
X290999Y303499D01*
X290541Y303805D01*
X290000Y303913D01*
D02*
G37*
G36*
X313500Y303540D02*
X312528Y303347D01*
X311704Y302796D01*
X311153Y301972D01*
X310960Y301000D01*
X311153Y300028D01*
X311704Y299204D01*
X312528Y298653D01*
X313500Y298460D01*
X314472Y298653D01*
X315296Y299204D01*
X315847Y300028D01*
X316040Y301000D01*
X315847Y301972D01*
X315296Y302796D01*
X314472Y303347D01*
X313500Y303540D01*
D02*
G37*
G36*
X331161Y300800D02*
X328700D01*
Y298339D01*
X329195Y298405D01*
X329843Y298673D01*
X330400Y299100D01*
X330827Y299657D01*
X331095Y300305D01*
X331161Y300800D01*
D02*
G37*
G36*
X328300D02*
X325839D01*
X325905Y300305D01*
X326173Y299657D01*
X326600Y299100D01*
X327156Y298673D01*
X327805Y298405D01*
X328300Y298339D01*
Y300800D01*
D02*
G37*
G36*
X358500Y303687D02*
X357805Y303595D01*
X357156Y303327D01*
X356600Y302900D01*
X356173Y302344D01*
X355905Y301695D01*
X355813Y301000D01*
X355905Y300305D01*
X356173Y299657D01*
X356600Y299100D01*
X357156Y298673D01*
X357805Y298405D01*
X358500Y298313D01*
X359195Y298405D01*
X359843Y298673D01*
X360400Y299100D01*
X360827Y299657D01*
X361095Y300305D01*
X361187Y301000D01*
X361095Y301695D01*
X360827Y302344D01*
X360400Y302900D01*
X359843Y303327D01*
X359195Y303595D01*
X358500Y303687D01*
D02*
G37*
G36*
X343500D02*
X342805Y303595D01*
X342157Y303327D01*
X341600Y302900D01*
X341173Y302344D01*
X340905Y301695D01*
X340813Y301000D01*
X340905Y300305D01*
X341173Y299657D01*
X341600Y299100D01*
X342157Y298673D01*
X342805Y298405D01*
X343500Y298313D01*
X344195Y298405D01*
X344844Y298673D01*
X345400Y299100D01*
X345827Y299657D01*
X346095Y300305D01*
X346187Y301000D01*
X346095Y301695D01*
X345827Y302344D01*
X345400Y302900D01*
X344844Y303327D01*
X344195Y303595D01*
X343500Y303687D01*
D02*
G37*
G36*
X293500Y300913D02*
X292959Y300805D01*
X292501Y300499D01*
X292195Y300041D01*
X292087Y299500D01*
X292195Y298959D01*
X292501Y298501D01*
X292959Y298195D01*
X293500Y298087D01*
X294041Y298195D01*
X294499Y298501D01*
X294805Y298959D01*
X294913Y299500D01*
X294805Y300041D01*
X294499Y300499D01*
X294041Y300805D01*
X293500Y300913D01*
D02*
G37*
G36*
X104000Y298499D02*
X103459Y298391D01*
X103001Y298085D01*
X102695Y297626D01*
X102587Y297086D01*
X102695Y296545D01*
X103001Y296087D01*
X103459Y295780D01*
X104000Y295673D01*
X104541Y295780D01*
X104999Y296087D01*
X105305Y296545D01*
X105413Y297086D01*
X105305Y297626D01*
X104999Y298085D01*
X104541Y298391D01*
X104000Y298499D01*
D02*
G37*
G36*
X289500Y298413D02*
X288959Y298305D01*
X288501Y297999D01*
X288195Y297541D01*
X288087Y297000D01*
X288195Y296459D01*
X288501Y296001D01*
X288959Y295695D01*
X289500Y295587D01*
X290041Y295695D01*
X290499Y296001D01*
X290805Y296459D01*
X290913Y297000D01*
X290805Y297541D01*
X290499Y297999D01*
X290041Y298305D01*
X289500Y298413D01*
D02*
G37*
G36*
X14500Y297413D02*
X13959Y297305D01*
X13501Y296999D01*
X13195Y296541D01*
X13087Y296000D01*
X13195Y295459D01*
X13501Y295001D01*
X13959Y294695D01*
X14500Y294587D01*
X15041Y294695D01*
X15499Y295001D01*
X15805Y295459D01*
X15913Y296000D01*
X15805Y296541D01*
X15499Y296999D01*
X15041Y297305D01*
X14500Y297413D01*
D02*
G37*
G36*
X293500Y296413D02*
X292959Y296305D01*
X292501Y295999D01*
X292195Y295541D01*
X292087Y295000D01*
X292195Y294459D01*
X292501Y294001D01*
X292959Y293695D01*
X293500Y293587D01*
X294041Y293695D01*
X294499Y294001D01*
X294805Y294459D01*
X294913Y295000D01*
X294805Y295541D01*
X294499Y295999D01*
X294041Y296305D01*
X293500Y296413D01*
D02*
G37*
G36*
X289000Y293413D02*
X288459Y293305D01*
X288001Y292999D01*
X287695Y292541D01*
X287587Y292000D01*
X287695Y291459D01*
X288001Y291001D01*
X288459Y290695D01*
X289000Y290587D01*
X289541Y290695D01*
X289999Y291001D01*
X290305Y291459D01*
X290413Y292000D01*
X290305Y292541D01*
X289999Y292999D01*
X289541Y293305D01*
X289000Y293413D01*
D02*
G37*
G36*
X375500Y292913D02*
X374959Y292805D01*
X374501Y292499D01*
X374195Y292041D01*
X374087Y291500D01*
X374195Y290959D01*
X374501Y290501D01*
X374959Y290195D01*
X375500Y290087D01*
X376041Y290195D01*
X376499Y290501D01*
X376805Y290959D01*
X376913Y291500D01*
X376805Y292041D01*
X376499Y292499D01*
X376041Y292805D01*
X375500Y292913D01*
D02*
G37*
G36*
X61700Y288661D02*
Y286200D01*
X64161D01*
X64095Y286695D01*
X63827Y287344D01*
X63400Y287900D01*
X62844Y288327D01*
X62195Y288595D01*
X61700Y288661D01*
D02*
G37*
G36*
X61300D02*
X60805Y288595D01*
X60157Y288327D01*
X59600Y287900D01*
X59173Y287344D01*
X58905Y286695D01*
X58839Y286200D01*
X61300D01*
Y288661D01*
D02*
G37*
G36*
X138200Y287661D02*
Y285200D01*
X140661D01*
X140595Y285695D01*
X140327Y286344D01*
X139900Y286900D01*
X139344Y287327D01*
X138695Y287595D01*
X138200Y287661D01*
D02*
G37*
G36*
X137800D02*
X137305Y287595D01*
X136656Y287327D01*
X136100Y286900D01*
X135673Y286344D01*
X135405Y285695D01*
X135339Y285200D01*
X137800D01*
Y287661D01*
D02*
G37*
G36*
X260500Y287413D02*
X259959Y287305D01*
X259501Y286999D01*
X259195Y286541D01*
X259087Y286000D01*
X259195Y285459D01*
X259501Y285001D01*
X259959Y284695D01*
X260500Y284587D01*
X261041Y284695D01*
X261499Y285001D01*
X261805Y285459D01*
X261913Y286000D01*
X261805Y286541D01*
X261499Y286999D01*
X261041Y287305D01*
X260500Y287413D01*
D02*
G37*
G36*
X76500Y288541D02*
X75528Y288347D01*
X74704Y287796D01*
X74153Y286972D01*
X73959Y286000D01*
X74153Y285028D01*
X74704Y284204D01*
X75528Y283653D01*
X76500Y283459D01*
X77472Y283653D01*
X78296Y284204D01*
X78847Y285028D01*
X79040Y286000D01*
X78847Y286972D01*
X78296Y287796D01*
X77472Y288347D01*
X76500Y288541D01*
D02*
G37*
G36*
X64161Y285800D02*
X61700D01*
Y283339D01*
X62195Y283405D01*
X62844Y283673D01*
X63400Y284100D01*
X63827Y284657D01*
X64095Y285305D01*
X64161Y285800D01*
D02*
G37*
G36*
X61300D02*
X58839D01*
X58905Y285305D01*
X59173Y284657D01*
X59600Y284100D01*
X60157Y283673D01*
X60805Y283405D01*
X61300Y283339D01*
Y285800D01*
D02*
G37*
G36*
X46500Y288687D02*
X45805Y288595D01*
X45156Y288327D01*
X44600Y287900D01*
X44173Y287344D01*
X43905Y286695D01*
X43813Y286000D01*
X43905Y285305D01*
X44173Y284657D01*
X44600Y284100D01*
X45156Y283673D01*
X45805Y283405D01*
X46500Y283313D01*
X47195Y283405D01*
X47844Y283673D01*
X48400Y284100D01*
X48827Y284657D01*
X49095Y285305D01*
X49187Y286000D01*
X49095Y286695D01*
X48827Y287344D01*
X48400Y287900D01*
X47844Y288327D01*
X47195Y288595D01*
X46500Y288687D01*
D02*
G37*
G36*
X31500D02*
X30805Y288595D01*
X30156Y288327D01*
X29600Y287900D01*
X29173Y287344D01*
X28905Y286695D01*
X28813Y286000D01*
X28905Y285305D01*
X29173Y284657D01*
X29600Y284100D01*
X30156Y283673D01*
X30805Y283405D01*
X31500Y283313D01*
X32195Y283405D01*
X32844Y283673D01*
X33400Y284100D01*
X33827Y284657D01*
X34095Y285305D01*
X34187Y286000D01*
X34095Y286695D01*
X33827Y287344D01*
X33400Y287900D01*
X32844Y288327D01*
X32195Y288595D01*
X31500Y288687D01*
D02*
G37*
G36*
X228000Y285413D02*
X227459Y285305D01*
X227001Y284999D01*
X226695Y284541D01*
X226587Y284000D01*
X226695Y283459D01*
X227001Y283001D01*
X227459Y282695D01*
X228000Y282587D01*
X228541Y282695D01*
X228999Y283001D01*
X229305Y283459D01*
X229413Y284000D01*
X229305Y284541D01*
X228999Y284999D01*
X228541Y285305D01*
X228000Y285413D01*
D02*
G37*
G36*
X153000Y287541D02*
X152028Y287347D01*
X151204Y286796D01*
X150653Y285972D01*
X150460Y285000D01*
X150653Y284028D01*
X151204Y283204D01*
X152028Y282653D01*
X153000Y282459D01*
X153972Y282653D01*
X154796Y283204D01*
X155347Y284028D01*
X155541Y285000D01*
X155347Y285972D01*
X154796Y286796D01*
X153972Y287347D01*
X153000Y287541D01*
D02*
G37*
G36*
X140661Y284800D02*
X138200D01*
Y282339D01*
X138695Y282405D01*
X139344Y282673D01*
X139900Y283100D01*
X140327Y283657D01*
X140595Y284305D01*
X140661Y284800D01*
D02*
G37*
G36*
X137800D02*
X135339D01*
X135405Y284305D01*
X135673Y283657D01*
X136100Y283100D01*
X136656Y282673D01*
X137305Y282405D01*
X137800Y282339D01*
Y284800D01*
D02*
G37*
G36*
X123000Y287687D02*
X122305Y287595D01*
X121657Y287327D01*
X121100Y286900D01*
X120673Y286344D01*
X120405Y285695D01*
X120313Y285000D01*
X120405Y284305D01*
X120673Y283657D01*
X121100Y283100D01*
X121657Y282673D01*
X122305Y282405D01*
X123000Y282313D01*
X123695Y282405D01*
X124344Y282673D01*
X124900Y283100D01*
X125327Y283657D01*
X125595Y284305D01*
X125687Y285000D01*
X125595Y285695D01*
X125327Y286344D01*
X124900Y286900D01*
X124344Y287327D01*
X123695Y287595D01*
X123000Y287687D01*
D02*
G37*
G36*
X108000D02*
X107305Y287595D01*
X106657Y287327D01*
X106100Y286900D01*
X105673Y286344D01*
X105405Y285695D01*
X105313Y285000D01*
X105405Y284305D01*
X105673Y283657D01*
X106100Y283100D01*
X106657Y282673D01*
X107305Y282405D01*
X108000Y282313D01*
X108695Y282405D01*
X109344Y282673D01*
X109900Y283100D01*
X110327Y283657D01*
X110595Y284305D01*
X110687Y285000D01*
X110595Y285695D01*
X110327Y286344D01*
X109900Y286900D01*
X109344Y287327D01*
X108695Y287595D01*
X108000Y287687D01*
D02*
G37*
G36*
X328700Y284161D02*
Y281700D01*
X331161D01*
X331095Y282195D01*
X330827Y282843D01*
X330400Y283400D01*
X329843Y283827D01*
X329195Y284095D01*
X328700Y284161D01*
D02*
G37*
G36*
X328300D02*
X327805Y284095D01*
X327156Y283827D01*
X326600Y283400D01*
X326173Y282843D01*
X325905Y282195D01*
X325839Y281700D01*
X328300D01*
Y284161D01*
D02*
G37*
G36*
X280000Y282413D02*
X279459Y282305D01*
X279001Y281999D01*
X278695Y281541D01*
X278587Y281000D01*
X278695Y280459D01*
X279001Y280001D01*
X279459Y279695D01*
X280000Y279587D01*
X280541Y279695D01*
X280999Y280001D01*
X281305Y280459D01*
X281413Y281000D01*
X281305Y281541D01*
X280999Y281999D01*
X280541Y282305D01*
X280000Y282413D01*
D02*
G37*
G36*
X313500Y284040D02*
X312528Y283847D01*
X311704Y283296D01*
X311153Y282472D01*
X310960Y281500D01*
X311153Y280528D01*
X311704Y279704D01*
X312528Y279153D01*
X313500Y278959D01*
X314472Y279153D01*
X315296Y279704D01*
X315847Y280528D01*
X316040Y281500D01*
X315847Y282472D01*
X315296Y283296D01*
X314472Y283847D01*
X313500Y284040D01*
D02*
G37*
G36*
X331161Y281300D02*
X328700D01*
Y278839D01*
X329195Y278905D01*
X329843Y279173D01*
X330400Y279600D01*
X330827Y280156D01*
X331095Y280805D01*
X331161Y281300D01*
D02*
G37*
G36*
X328300D02*
X325839D01*
X325905Y280805D01*
X326173Y280156D01*
X326600Y279600D01*
X327156Y279173D01*
X327805Y278905D01*
X328300Y278839D01*
Y281300D01*
D02*
G37*
G36*
X358500Y284187D02*
X357805Y284095D01*
X357156Y283827D01*
X356600Y283400D01*
X356173Y282843D01*
X355905Y282195D01*
X355813Y281500D01*
X355905Y280805D01*
X356173Y280156D01*
X356600Y279600D01*
X357156Y279173D01*
X357805Y278905D01*
X358500Y278813D01*
X359195Y278905D01*
X359843Y279173D01*
X360400Y279600D01*
X360827Y280156D01*
X361095Y280805D01*
X361187Y281500D01*
X361095Y282195D01*
X360827Y282843D01*
X360400Y283400D01*
X359843Y283827D01*
X359195Y284095D01*
X358500Y284187D01*
D02*
G37*
G36*
X343500D02*
X342805Y284095D01*
X342157Y283827D01*
X341600Y283400D01*
X341173Y282843D01*
X340905Y282195D01*
X340813Y281500D01*
X340905Y280805D01*
X341173Y280156D01*
X341600Y279600D01*
X342157Y279173D01*
X342805Y278905D01*
X343500Y278813D01*
X344195Y278905D01*
X344844Y279173D01*
X345400Y279600D01*
X345827Y280156D01*
X346095Y280805D01*
X346187Y281500D01*
X346095Y282195D01*
X345827Y282843D01*
X345400Y283400D01*
X344844Y283827D01*
X344195Y284095D01*
X343500Y284187D01*
D02*
G37*
G36*
X16000Y277413D02*
X15459Y277305D01*
X15001Y276999D01*
X14695Y276541D01*
X14587Y276000D01*
X14695Y275459D01*
X15001Y275001D01*
X15459Y274695D01*
X16000Y274587D01*
X16541Y274695D01*
X16999Y275001D01*
X17305Y275459D01*
X17413Y276000D01*
X17305Y276541D01*
X16999Y276999D01*
X16541Y277305D01*
X16000Y277413D01*
D02*
G37*
G36*
X89500Y276913D02*
X88959Y276805D01*
X88501Y276499D01*
X88195Y276041D01*
X88087Y275500D01*
X88195Y274959D01*
X88501Y274501D01*
X88959Y274195D01*
X89500Y274087D01*
X90041Y274195D01*
X90499Y274501D01*
X90805Y274959D01*
X90913Y275500D01*
X90805Y276041D01*
X90499Y276499D01*
X90041Y276805D01*
X89500Y276913D01*
D02*
G37*
G36*
X33000Y274413D02*
X32459Y274305D01*
X32001Y273999D01*
X31695Y273541D01*
X31587Y273000D01*
X31695Y272459D01*
X32001Y272001D01*
X32459Y271695D01*
X33000Y271587D01*
X33541Y271695D01*
X33999Y272001D01*
X34305Y272459D01*
X34413Y273000D01*
X34305Y273541D01*
X33999Y273999D01*
X33541Y274305D01*
X33000Y274413D01*
D02*
G37*
G36*
X375500Y273413D02*
X374959Y273305D01*
X374501Y272999D01*
X374195Y272541D01*
X374087Y272000D01*
X374195Y271459D01*
X374501Y271001D01*
X374959Y270695D01*
X375500Y270587D01*
X376041Y270695D01*
X376499Y271001D01*
X376805Y271459D01*
X376913Y272000D01*
X376805Y272541D01*
X376499Y272999D01*
X376041Y273305D01*
X375500Y273413D01*
D02*
G37*
G36*
X94700Y268161D02*
Y265700D01*
X97161D01*
X97095Y266195D01*
X96827Y266844D01*
X96400Y267400D01*
X95843Y267827D01*
X95195Y268095D01*
X94700Y268161D01*
D02*
G37*
G36*
X94300D02*
X93805Y268095D01*
X93156Y267827D01*
X92600Y267400D01*
X92173Y266844D01*
X91905Y266195D01*
X91839Y265700D01*
X94300D01*
Y268161D01*
D02*
G37*
G36*
X109500Y268040D02*
X108528Y267847D01*
X107704Y267296D01*
X107153Y266472D01*
X106959Y265500D01*
X107153Y264528D01*
X107704Y263704D01*
X108528Y263153D01*
X109500Y262960D01*
X110472Y263153D01*
X111296Y263704D01*
X111847Y264528D01*
X112040Y265500D01*
X111847Y266472D01*
X111296Y267296D01*
X110472Y267847D01*
X109500Y268040D01*
D02*
G37*
G36*
X97161Y265300D02*
X94700D01*
Y262839D01*
X95195Y262905D01*
X95843Y263173D01*
X96400Y263600D01*
X96827Y264157D01*
X97095Y264805D01*
X97161Y265300D01*
D02*
G37*
G36*
X94300D02*
X91839D01*
X91905Y264805D01*
X92173Y264157D01*
X92600Y263600D01*
X93156Y263173D01*
X93805Y262905D01*
X94300Y262839D01*
Y265300D01*
D02*
G37*
G36*
X79500Y268187D02*
X78805Y268095D01*
X78157Y267827D01*
X77600Y267400D01*
X77173Y266844D01*
X76905Y266195D01*
X76813Y265500D01*
X76905Y264805D01*
X77173Y264157D01*
X77600Y263600D01*
X78157Y263173D01*
X78805Y262905D01*
X79500Y262813D01*
X80195Y262905D01*
X80844Y263173D01*
X81400Y263600D01*
X81827Y264157D01*
X82095Y264805D01*
X82187Y265500D01*
X82095Y266195D01*
X81827Y266844D01*
X81400Y267400D01*
X80844Y267827D01*
X80195Y268095D01*
X79500Y268187D01*
D02*
G37*
G36*
X64500D02*
X63805Y268095D01*
X63156Y267827D01*
X62600Y267400D01*
X62173Y266844D01*
X61905Y266195D01*
X61813Y265500D01*
X61905Y264805D01*
X62173Y264157D01*
X62600Y263600D01*
X63156Y263173D01*
X63805Y262905D01*
X64500Y262813D01*
X65195Y262905D01*
X65843Y263173D01*
X66400Y263600D01*
X66827Y264157D01*
X67095Y264805D01*
X67187Y265500D01*
X67095Y266195D01*
X66827Y266844D01*
X66400Y267400D01*
X65843Y267827D01*
X65195Y268095D01*
X64500Y268187D01*
D02*
G37*
G36*
X268000Y265413D02*
X267459Y265305D01*
X267001Y264999D01*
X266695Y264541D01*
X266587Y264000D01*
X266695Y263459D01*
X267001Y263001D01*
X267459Y262695D01*
X268000Y262587D01*
X268541Y262695D01*
X268999Y263001D01*
X269305Y263459D01*
X269413Y264000D01*
X269305Y264541D01*
X268999Y264999D01*
X268541Y265305D01*
X268000Y265413D01*
D02*
G37*
G36*
X247622Y265035D02*
X247081Y264927D01*
X246623Y264621D01*
X246317Y264163D01*
X246209Y263622D01*
X246317Y263081D01*
X246623Y262623D01*
X247081Y262317D01*
X247622Y262209D01*
X248163Y262317D01*
X248621Y262623D01*
X248927Y263081D01*
X249035Y263622D01*
X248927Y264163D01*
X248621Y264621D01*
X248163Y264927D01*
X247622Y265035D01*
D02*
G37*
G36*
X243500Y264913D02*
X242959Y264805D01*
X242501Y264499D01*
X242195Y264041D01*
X242087Y263500D01*
X242195Y262959D01*
X242501Y262501D01*
X242959Y262195D01*
X243500Y262087D01*
X244041Y262195D01*
X244499Y262501D01*
X244805Y262959D01*
X244913Y263500D01*
X244805Y264041D01*
X244499Y264499D01*
X244041Y264805D01*
X243500Y264913D01*
D02*
G37*
G36*
X226000Y264413D02*
X225459Y264305D01*
X225001Y263999D01*
X224695Y263541D01*
X224587Y263000D01*
X224695Y262459D01*
X225001Y262001D01*
X225459Y261695D01*
X226000Y261587D01*
X226541Y261695D01*
X226999Y262001D01*
X227305Y262459D01*
X227413Y263000D01*
X227305Y263541D01*
X226999Y263999D01*
X226541Y264305D01*
X226000Y264413D01*
D02*
G37*
G36*
X139500D02*
X138959Y264305D01*
X138501Y263999D01*
X138195Y263541D01*
X138087Y263000D01*
X138195Y262459D01*
X138501Y262001D01*
X138959Y261695D01*
X139500Y261587D01*
X140041Y261695D01*
X140499Y262001D01*
X140805Y262459D01*
X140913Y263000D01*
X140805Y263541D01*
X140499Y263999D01*
X140041Y264305D01*
X139500Y264413D01*
D02*
G37*
G36*
X328700Y263661D02*
Y261200D01*
X331161D01*
X331095Y261695D01*
X330827Y262344D01*
X330400Y262900D01*
X329843Y263327D01*
X329195Y263595D01*
X328700Y263661D01*
D02*
G37*
G36*
X328300D02*
X327805Y263595D01*
X327156Y263327D01*
X326600Y262900D01*
X326173Y262344D01*
X325905Y261695D01*
X325839Y261200D01*
X328300D01*
Y263661D01*
D02*
G37*
G36*
X245500Y261913D02*
X244959Y261805D01*
X244501Y261499D01*
X244195Y261041D01*
X244087Y260500D01*
X244195Y259959D01*
X244501Y259501D01*
X244959Y259195D01*
X245500Y259087D01*
X246041Y259195D01*
X246499Y259501D01*
X246805Y259959D01*
X246913Y260500D01*
X246805Y261041D01*
X246499Y261499D01*
X246041Y261805D01*
X245500Y261913D01*
D02*
G37*
G36*
X239748Y264665D02*
X239207Y264557D01*
X238749Y264251D01*
X238443Y263793D01*
X238335Y263252D01*
X238443Y262711D01*
X238749Y262253D01*
X239207Y261947D01*
X239748Y261839D01*
X240289Y261947D01*
X240541Y261526D01*
X240501Y261499D01*
X240195Y261041D01*
X240087Y260500D01*
X240195Y259959D01*
X240501Y259501D01*
X240959Y259195D01*
X241500Y259087D01*
X242041Y259195D01*
X242499Y259501D01*
X242805Y259959D01*
X242913Y260500D01*
X242805Y261041D01*
X242499Y261499D01*
X242041Y261805D01*
X241500Y261913D01*
X240959Y261805D01*
X240707Y262226D01*
X240747Y262253D01*
X241053Y262711D01*
X241161Y263252D01*
X241053Y263793D01*
X240747Y264251D01*
X240289Y264557D01*
X239748Y264665D01*
D02*
G37*
G36*
X238000Y261854D02*
X237459Y261746D01*
X237001Y261440D01*
X236695Y260982D01*
X236587Y260441D01*
X236695Y259900D01*
X237001Y259442D01*
X237459Y259136D01*
X238000Y259028D01*
X238541Y259136D01*
X238999Y259442D01*
X239305Y259900D01*
X239413Y260441D01*
X239305Y260982D01*
X238999Y261440D01*
X238541Y261746D01*
X238000Y261854D01*
D02*
G37*
G36*
X313500Y263541D02*
X312528Y263347D01*
X311704Y262796D01*
X311153Y261972D01*
X310960Y261000D01*
X311153Y260028D01*
X311704Y259204D01*
X312528Y258653D01*
X313500Y258459D01*
X314472Y258653D01*
X315296Y259204D01*
X315847Y260028D01*
X316040Y261000D01*
X315847Y261972D01*
X315296Y262796D01*
X314472Y263347D01*
X313500Y263541D01*
D02*
G37*
G36*
X331161Y260800D02*
X328700D01*
Y258339D01*
X329195Y258405D01*
X329843Y258673D01*
X330400Y259100D01*
X330827Y259657D01*
X331095Y260305D01*
X331161Y260800D01*
D02*
G37*
G36*
X328300D02*
X325839D01*
X325905Y260305D01*
X326173Y259657D01*
X326600Y259100D01*
X327156Y258673D01*
X327805Y258405D01*
X328300Y258339D01*
Y260800D01*
D02*
G37*
G36*
X358500Y263687D02*
X357805Y263595D01*
X357156Y263327D01*
X356600Y262900D01*
X356173Y262344D01*
X355905Y261695D01*
X355813Y261000D01*
X355905Y260305D01*
X356173Y259657D01*
X356600Y259100D01*
X357156Y258673D01*
X357805Y258405D01*
X358500Y258313D01*
X359195Y258405D01*
X359843Y258673D01*
X360400Y259100D01*
X360827Y259657D01*
X361095Y260305D01*
X361187Y261000D01*
X361095Y261695D01*
X360827Y262344D01*
X360400Y262900D01*
X359843Y263327D01*
X359195Y263595D01*
X358500Y263687D01*
D02*
G37*
G36*
X343500D02*
X342805Y263595D01*
X342157Y263327D01*
X341600Y262900D01*
X341173Y262344D01*
X340905Y261695D01*
X340813Y261000D01*
X340905Y260305D01*
X341173Y259657D01*
X341600Y259100D01*
X342157Y258673D01*
X342805Y258405D01*
X343500Y258313D01*
X344195Y258405D01*
X344844Y258673D01*
X345400Y259100D01*
X345827Y259657D01*
X346095Y260305D01*
X346187Y261000D01*
X346095Y261695D01*
X345827Y262344D01*
X345400Y262900D01*
X344844Y263327D01*
X344195Y263595D01*
X343500Y263687D01*
D02*
G37*
G36*
X281000Y260413D02*
X280459Y260305D01*
X280001Y259999D01*
X279695Y259541D01*
X279587Y259000D01*
X279695Y258459D01*
X280001Y258001D01*
X280459Y257695D01*
X281000Y257587D01*
X281541Y257695D01*
X281999Y258001D01*
X282305Y258459D01*
X282413Y259000D01*
X282305Y259541D01*
X281999Y259999D01*
X281541Y260305D01*
X281000Y260413D01*
D02*
G37*
G36*
X276000D02*
X275459Y260305D01*
X275001Y259999D01*
X274695Y259541D01*
X274587Y259000D01*
X274695Y258459D01*
X275001Y258001D01*
X275459Y257695D01*
X276000Y257587D01*
X276541Y257695D01*
X276999Y258001D01*
X277305Y258459D01*
X277413Y259000D01*
X277305Y259541D01*
X276999Y259999D01*
X276541Y260305D01*
X276000Y260413D01*
D02*
G37*
G36*
X271000D02*
X270459Y260305D01*
X270001Y259999D01*
X269695Y259541D01*
X269587Y259000D01*
X269695Y258459D01*
X270001Y258001D01*
X270459Y257695D01*
X271000Y257587D01*
X271541Y257695D01*
X271999Y258001D01*
X272305Y258459D01*
X272413Y259000D01*
X272305Y259541D01*
X271999Y259999D01*
X271541Y260305D01*
X271000Y260413D01*
D02*
G37*
G36*
X157000Y259913D02*
X156459Y259805D01*
X156001Y259499D01*
X155695Y259041D01*
X155587Y258500D01*
X155695Y257959D01*
X156001Y257501D01*
X156459Y257195D01*
X157000Y257087D01*
X157541Y257195D01*
X157999Y257501D01*
X158305Y257959D01*
X158413Y258500D01*
X158305Y259041D01*
X157999Y259499D01*
X157541Y259805D01*
X157000Y259913D01*
D02*
G37*
G36*
X182000Y259413D02*
X181459Y259305D01*
X181001Y258999D01*
X180695Y258541D01*
X180587Y258000D01*
X180695Y257459D01*
X181001Y257001D01*
X181459Y256695D01*
X182000Y256587D01*
X182541Y256695D01*
X182999Y257001D01*
X183305Y257459D01*
X183413Y258000D01*
X183305Y258541D01*
X182999Y258999D01*
X182541Y259305D01*
X182000Y259413D01*
D02*
G37*
G36*
X283500Y257413D02*
X282959Y257305D01*
X282501Y256999D01*
X282195Y256541D01*
X282087Y256000D01*
X282195Y255459D01*
X282501Y255001D01*
X282959Y254695D01*
X283500Y254587D01*
X284041Y254695D01*
X284499Y255001D01*
X284805Y255459D01*
X284913Y256000D01*
X284805Y256541D01*
X284499Y256999D01*
X284041Y257305D01*
X283500Y257413D01*
D02*
G37*
G36*
X278500D02*
X277959Y257305D01*
X277501Y256999D01*
X277195Y256541D01*
X277087Y256000D01*
X277195Y255459D01*
X277501Y255001D01*
X277959Y254695D01*
X278500Y254587D01*
X279041Y254695D01*
X279499Y255001D01*
X279805Y255459D01*
X279913Y256000D01*
X279805Y256541D01*
X279499Y256999D01*
X279041Y257305D01*
X278500Y257413D01*
D02*
G37*
G36*
X379500Y256913D02*
X378959Y256805D01*
X378501Y256499D01*
X378195Y256041D01*
X378087Y255500D01*
X378195Y254959D01*
X378501Y254501D01*
X378959Y254195D01*
X379500Y254087D01*
X380041Y254195D01*
X380499Y254501D01*
X380805Y254959D01*
X380913Y255500D01*
X380805Y256041D01*
X380499Y256499D01*
X380041Y256805D01*
X379500Y256913D01*
D02*
G37*
G36*
X273500D02*
X272959Y256805D01*
X272501Y256499D01*
X272195Y256041D01*
X272087Y255500D01*
X272195Y254959D01*
X272501Y254501D01*
X272959Y254195D01*
X273500Y254087D01*
X274041Y254195D01*
X274499Y254501D01*
X274805Y254959D01*
X274913Y255500D01*
X274805Y256041D01*
X274499Y256499D01*
X274041Y256805D01*
X273500Y256913D01*
D02*
G37*
G36*
X46500Y256413D02*
X45959Y256305D01*
X45501Y255999D01*
X45195Y255541D01*
X45087Y255000D01*
X45195Y254459D01*
X45501Y254001D01*
X45959Y253695D01*
X46500Y253587D01*
X47041Y253695D01*
X47499Y254001D01*
X47805Y254459D01*
X47913Y255000D01*
X47805Y255541D01*
X47499Y255999D01*
X47041Y256305D01*
X46500Y256413D01*
D02*
G37*
G36*
X128500Y253913D02*
X127959Y253805D01*
X127501Y253499D01*
X127195Y253041D01*
X127087Y252500D01*
X127195Y251959D01*
X127501Y251501D01*
X127959Y251195D01*
X128500Y251087D01*
X129041Y251195D01*
X129499Y251501D01*
X129805Y251959D01*
X129913Y252500D01*
X129805Y253041D01*
X129499Y253499D01*
X129041Y253805D01*
X128500Y253913D01*
D02*
G37*
G36*
X199779Y253693D02*
X199239Y253585D01*
X198780Y253279D01*
X198474Y252820D01*
X198367Y252279D01*
X198474Y251739D01*
X198780Y251280D01*
X199239Y250974D01*
X199779Y250867D01*
X200320Y250974D01*
X200779Y251280D01*
X201085Y251739D01*
X201192Y252279D01*
X201085Y252820D01*
X200779Y253279D01*
X200320Y253585D01*
X199779Y253693D01*
D02*
G37*
G36*
X242189Y251724D02*
X241648Y251616D01*
X241190Y251310D01*
X240884Y250852D01*
X240776Y250311D01*
X240884Y249770D01*
X241190Y249312D01*
X241648Y249006D01*
X242189Y248898D01*
X242730Y249006D01*
X243188Y249312D01*
X243494Y249770D01*
X243602Y250311D01*
X243494Y250852D01*
X243188Y251310D01*
X242730Y251616D01*
X242189Y251724D01*
D02*
G37*
G36*
X125500Y251413D02*
X124959Y251305D01*
X124501Y250999D01*
X124195Y250541D01*
X124087Y250000D01*
X124195Y249459D01*
X124501Y249001D01*
X124959Y248695D01*
X125500Y248587D01*
X126041Y248695D01*
X126499Y249001D01*
X126805Y249459D01*
X126913Y250000D01*
X126805Y250541D01*
X126499Y250999D01*
X126041Y251305D01*
X125500Y251413D01*
D02*
G37*
G36*
X246158Y249756D02*
X245617Y249648D01*
X245158Y249342D01*
X244852Y248883D01*
X244744Y248342D01*
X244852Y247802D01*
X245158Y247343D01*
X245617Y247037D01*
X246158Y246930D01*
X246698Y247037D01*
X247157Y247343D01*
X247463Y247802D01*
X247570Y248342D01*
X247463Y248883D01*
X247157Y249342D01*
X246698Y249648D01*
X246158Y249756D01*
D02*
G37*
G36*
X128500Y248913D02*
X127959Y248805D01*
X127501Y248499D01*
X127195Y248041D01*
X127087Y247500D01*
X127195Y246959D01*
X127501Y246501D01*
X127959Y246195D01*
X128500Y246087D01*
X129041Y246195D01*
X129499Y246501D01*
X129805Y246959D01*
X129913Y247500D01*
X129805Y248041D01*
X129499Y248499D01*
X129041Y248805D01*
X128500Y248913D01*
D02*
G37*
G36*
X94700Y247661D02*
Y245200D01*
X97161D01*
X97095Y245695D01*
X96827Y246343D01*
X96400Y246900D01*
X95843Y247327D01*
X95195Y247595D01*
X94700Y247661D01*
D02*
G37*
G36*
X94300D02*
X93805Y247595D01*
X93156Y247327D01*
X92600Y246900D01*
X92173Y246343D01*
X91905Y245695D01*
X91839Y245200D01*
X94300D01*
Y247661D01*
D02*
G37*
G36*
X242000Y247913D02*
X241459Y247805D01*
X241001Y247499D01*
X240695Y247041D01*
X240587Y246500D01*
X240695Y245959D01*
X241001Y245501D01*
X241459Y245195D01*
X242000Y245087D01*
X242541Y245195D01*
X242999Y245501D01*
X243305Y245959D01*
X243413Y246500D01*
X243305Y247041D01*
X242999Y247499D01*
X242541Y247805D01*
X242000Y247913D01*
D02*
G37*
G36*
X263500D02*
X262959Y247805D01*
X262501Y247499D01*
X262195Y247041D01*
X262087Y246500D01*
X262195Y245959D01*
X262382Y245679D01*
X262069Y245336D01*
X262029Y245308D01*
X261500Y245413D01*
X260959Y245305D01*
X260501Y244999D01*
X260195Y244541D01*
X260087Y244000D01*
X260195Y243459D01*
X260501Y243001D01*
X260959Y242695D01*
X261500Y242587D01*
X262041Y242695D01*
X262499Y243001D01*
X262805Y243459D01*
X262913Y244000D01*
X262805Y244541D01*
X262618Y244821D01*
X262931Y245164D01*
X262971Y245192D01*
X263500Y245087D01*
X264041Y245195D01*
X264499Y245501D01*
X264611Y245668D01*
X265040Y245517D01*
X265090Y245485D01*
X265195Y244959D01*
X265501Y244501D01*
X265959Y244195D01*
X266500Y244087D01*
X267041Y244195D01*
X267499Y244501D01*
X267805Y244959D01*
X267913Y245500D01*
X267805Y246041D01*
X267499Y246499D01*
X267041Y246805D01*
X266500Y246913D01*
X265959Y246805D01*
X265501Y246499D01*
X265389Y246332D01*
X264960Y246483D01*
X264910Y246515D01*
X264805Y247041D01*
X264499Y247499D01*
X264041Y247805D01*
X263500Y247913D01*
D02*
G37*
G36*
X125500Y246413D02*
X124959Y246305D01*
X124501Y245999D01*
X124195Y245541D01*
X124087Y245000D01*
X124195Y244459D01*
X124501Y244001D01*
X124959Y243695D01*
X125500Y243587D01*
X126041Y243695D01*
X126499Y244001D01*
X126805Y244459D01*
X126913Y245000D01*
X126805Y245541D01*
X126499Y245999D01*
X126041Y246305D01*
X125500Y246413D01*
D02*
G37*
G36*
X246094Y245818D02*
X245554Y245711D01*
X245095Y245405D01*
X244789Y244946D01*
X244682Y244406D01*
X244789Y243865D01*
X245095Y243406D01*
X245554Y243100D01*
X246094Y242992D01*
X246635Y243100D01*
X247094Y243406D01*
X247400Y243865D01*
X247508Y244406D01*
X247400Y244946D01*
X247094Y245405D01*
X246635Y245711D01*
X246094Y245818D01*
D02*
G37*
G36*
X109500Y247540D02*
X108528Y247347D01*
X107704Y246796D01*
X107153Y245972D01*
X106959Y245000D01*
X107153Y244028D01*
X107704Y243204D01*
X108528Y242653D01*
X109500Y242460D01*
X110472Y242653D01*
X111296Y243204D01*
X111847Y244028D01*
X112040Y245000D01*
X111847Y245972D01*
X111296Y246796D01*
X110472Y247347D01*
X109500Y247540D01*
D02*
G37*
G36*
X97161Y244800D02*
X94700D01*
Y242339D01*
X95195Y242405D01*
X95843Y242673D01*
X96400Y243100D01*
X96827Y243656D01*
X97095Y244305D01*
X97161Y244800D01*
D02*
G37*
G36*
X94300D02*
X91839D01*
X91905Y244305D01*
X92173Y243656D01*
X92600Y243100D01*
X93156Y242673D01*
X93805Y242405D01*
X94300Y242339D01*
Y244800D01*
D02*
G37*
G36*
X79500Y247687D02*
X78805Y247595D01*
X78157Y247327D01*
X77600Y246900D01*
X77173Y246343D01*
X76905Y245695D01*
X76813Y245000D01*
X76905Y244305D01*
X77173Y243656D01*
X77600Y243100D01*
X78157Y242673D01*
X78805Y242405D01*
X79500Y242313D01*
X80195Y242405D01*
X80844Y242673D01*
X81400Y243100D01*
X81827Y243656D01*
X82095Y244305D01*
X82187Y245000D01*
X82095Y245695D01*
X81827Y246343D01*
X81400Y246900D01*
X80844Y247327D01*
X80195Y247595D01*
X79500Y247687D01*
D02*
G37*
G36*
X64500D02*
X63805Y247595D01*
X63156Y247327D01*
X62600Y246900D01*
X62173Y246343D01*
X61905Y245695D01*
X61813Y245000D01*
X61905Y244305D01*
X62173Y243656D01*
X62600Y243100D01*
X63156Y242673D01*
X63805Y242405D01*
X64500Y242313D01*
X65195Y242405D01*
X65843Y242673D01*
X66400Y243100D01*
X66827Y243656D01*
X67095Y244305D01*
X67187Y245000D01*
X67095Y245695D01*
X66827Y246343D01*
X66400Y246900D01*
X65843Y247327D01*
X65195Y247595D01*
X64500Y247687D01*
D02*
G37*
G36*
X242000Y243913D02*
X241459Y243805D01*
X241001Y243499D01*
X240695Y243041D01*
X240587Y242500D01*
X240695Y241959D01*
X241001Y241501D01*
X241459Y241195D01*
X242000Y241087D01*
X242541Y241195D01*
X242999Y241501D01*
X243305Y241959D01*
X243413Y242500D01*
X243305Y243041D01*
X242999Y243499D01*
X242541Y243805D01*
X242000Y243913D01*
D02*
G37*
G36*
X328700Y243161D02*
Y240700D01*
X331161D01*
X331095Y241195D01*
X330827Y241844D01*
X330400Y242400D01*
X329843Y242827D01*
X329195Y243095D01*
X328700Y243161D01*
D02*
G37*
G36*
X328300D02*
X327805Y243095D01*
X327156Y242827D01*
X326600Y242400D01*
X326173Y241844D01*
X325905Y241195D01*
X325839Y240700D01*
X328300D01*
Y243161D01*
D02*
G37*
G36*
X267000Y243413D02*
X266459Y243305D01*
X266001Y242999D01*
X265695Y242541D01*
X265587Y242000D01*
X265695Y241459D01*
X266001Y241001D01*
X266459Y240695D01*
X267000Y240587D01*
X267541Y240695D01*
X267999Y241001D01*
X268305Y241459D01*
X268413Y242000D01*
X268305Y242541D01*
X267999Y242999D01*
X267541Y243305D01*
X267000Y243413D01*
D02*
G37*
G36*
X128500D02*
X127959Y243305D01*
X127501Y242999D01*
X127195Y242541D01*
X127087Y242000D01*
X127195Y241459D01*
X127501Y241001D01*
X127959Y240695D01*
X128500Y240587D01*
X129041Y240695D01*
X129499Y241001D01*
X129805Y241459D01*
X129913Y242000D01*
X129805Y242541D01*
X129499Y242999D01*
X129041Y243305D01*
X128500Y243413D01*
D02*
G37*
G36*
X246031Y241881D02*
X245491Y241774D01*
X245032Y241468D01*
X244726Y241009D01*
X244619Y240469D01*
X244726Y239928D01*
X245032Y239469D01*
X245491Y239163D01*
X246031Y239055D01*
X246572Y239163D01*
X247031Y239469D01*
X247337Y239928D01*
X247445Y240469D01*
X247337Y241009D01*
X247031Y241468D01*
X246572Y241774D01*
X246031Y241881D01*
D02*
G37*
G36*
X125500Y240913D02*
X124959Y240805D01*
X124501Y240499D01*
X124195Y240041D01*
X124087Y239500D01*
X124195Y238959D01*
X124501Y238501D01*
X124959Y238195D01*
X125500Y238087D01*
X126041Y238195D01*
X126499Y238501D01*
X126805Y238959D01*
X126913Y239500D01*
X126805Y240041D01*
X126499Y240499D01*
X126041Y240805D01*
X125500Y240913D01*
D02*
G37*
G36*
X313500Y243040D02*
X312528Y242847D01*
X311704Y242296D01*
X311153Y241472D01*
X310960Y240500D01*
X311153Y239528D01*
X311704Y238704D01*
X312528Y238153D01*
X313500Y237960D01*
X314472Y238153D01*
X315296Y238704D01*
X315847Y239528D01*
X316040Y240500D01*
X315847Y241472D01*
X315296Y242296D01*
X314472Y242847D01*
X313500Y243040D01*
D02*
G37*
G36*
X331161Y240300D02*
X328700D01*
Y237839D01*
X329195Y237905D01*
X329843Y238173D01*
X330400Y238600D01*
X330827Y239157D01*
X331095Y239805D01*
X331161Y240300D01*
D02*
G37*
G36*
X328300D02*
X325839D01*
X325905Y239805D01*
X326173Y239157D01*
X326600Y238600D01*
X327156Y238173D01*
X327805Y237905D01*
X328300Y237839D01*
Y240300D01*
D02*
G37*
G36*
X358500Y243187D02*
X357805Y243095D01*
X357156Y242827D01*
X356600Y242400D01*
X356173Y241844D01*
X355905Y241195D01*
X355813Y240500D01*
X355905Y239805D01*
X356173Y239157D01*
X356600Y238600D01*
X357156Y238173D01*
X357805Y237905D01*
X358500Y237813D01*
X359195Y237905D01*
X359843Y238173D01*
X360400Y238600D01*
X360827Y239157D01*
X361095Y239805D01*
X361187Y240500D01*
X361095Y241195D01*
X360827Y241844D01*
X360400Y242400D01*
X359843Y242827D01*
X359195Y243095D01*
X358500Y243187D01*
D02*
G37*
G36*
X343500D02*
X342805Y243095D01*
X342157Y242827D01*
X341600Y242400D01*
X341173Y241844D01*
X340905Y241195D01*
X340813Y240500D01*
X340905Y239805D01*
X341173Y239157D01*
X341600Y238600D01*
X342157Y238173D01*
X342805Y237905D01*
X343500Y237813D01*
X344195Y237905D01*
X344844Y238173D01*
X345400Y238600D01*
X345827Y239157D01*
X346095Y239805D01*
X346187Y240500D01*
X346095Y241195D01*
X345827Y241844D01*
X345400Y242400D01*
X344844Y242827D01*
X344195Y243095D01*
X343500Y243187D01*
D02*
G37*
G36*
X129000Y238413D02*
X128459Y238305D01*
X128001Y237999D01*
X127695Y237541D01*
X127587Y237000D01*
X127695Y236459D01*
X128001Y236001D01*
X128459Y235695D01*
X129000Y235587D01*
X129541Y235695D01*
X129999Y236001D01*
X130305Y236459D01*
X130413Y237000D01*
X130305Y237541D01*
X129999Y237999D01*
X129541Y238305D01*
X129000Y238413D01*
D02*
G37*
G36*
X18161Y246943D02*
X16671Y246747D01*
X15282Y246171D01*
X14090Y245256D01*
X13175Y244064D01*
X12600Y242675D01*
X12404Y241185D01*
X12600Y239695D01*
X13175Y238306D01*
X14090Y237114D01*
X15282Y236198D01*
X16671Y235623D01*
X18161Y235427D01*
X19652Y235623D01*
X21040Y236198D01*
X22233Y237114D01*
X23148Y238306D01*
X23723Y239695D01*
X23919Y241185D01*
X23723Y242675D01*
X23148Y244064D01*
X22233Y245256D01*
X21040Y246171D01*
X19652Y246747D01*
X18161Y246943D01*
D02*
G37*
G36*
X48500Y236913D02*
X47959Y236805D01*
X47501Y236499D01*
X47195Y236041D01*
X47087Y235500D01*
X47195Y234959D01*
X47501Y234501D01*
X47959Y234195D01*
X48500Y234087D01*
X49041Y234195D01*
X49499Y234501D01*
X49805Y234959D01*
X49913Y235500D01*
X49805Y236041D01*
X49499Y236499D01*
X49041Y236805D01*
X48500Y236913D01*
D02*
G37*
G36*
X277508Y235421D02*
X276967Y235313D01*
X276509Y235007D01*
X276203Y234549D01*
X276095Y234008D01*
X276203Y233467D01*
X276509Y233009D01*
X276967Y232702D01*
X277508Y232595D01*
X278049Y232702D01*
X278507Y233009D01*
X278813Y233467D01*
X278921Y234008D01*
X278813Y234549D01*
X278507Y235007D01*
X278049Y235313D01*
X277508Y235421D01*
D02*
G37*
G36*
X376000Y231913D02*
X375459Y231805D01*
X375001Y231499D01*
X374695Y231041D01*
X374587Y230500D01*
X374695Y229959D01*
X375001Y229501D01*
X375459Y229195D01*
X376000Y229087D01*
X376541Y229195D01*
X376999Y229501D01*
X377305Y229959D01*
X377413Y230500D01*
X377305Y231041D01*
X376999Y231499D01*
X376541Y231805D01*
X376000Y231913D01*
D02*
G37*
G36*
X277918Y231831D02*
X277377Y231723D01*
X276919Y231417D01*
X276612Y230958D01*
X276505Y230418D01*
X276612Y229877D01*
X276919Y229418D01*
X277377Y229112D01*
X277918Y229005D01*
X278458Y229112D01*
X278917Y229418D01*
X279223Y229877D01*
X279330Y230418D01*
X279223Y230958D01*
X278917Y231417D01*
X278458Y231723D01*
X277918Y231831D01*
D02*
G37*
G36*
X247311Y228102D02*
X246770Y227994D01*
X246312Y227688D01*
X246006Y227230D01*
X245898Y226689D01*
X246006Y226148D01*
X246312Y225690D01*
X246770Y225384D01*
X247311Y225276D01*
X247852Y225384D01*
X248310Y225690D01*
X248616Y226148D01*
X248724Y226689D01*
X248616Y227230D01*
X248310Y227688D01*
X247852Y227994D01*
X247311Y228102D01*
D02*
G37*
G36*
X277500Y227413D02*
X276959Y227305D01*
X276501Y226999D01*
X276195Y226541D01*
X276087Y226000D01*
X276195Y225459D01*
X276501Y225001D01*
X276959Y224695D01*
X277500Y224587D01*
X278041Y224695D01*
X278499Y225001D01*
X278805Y225459D01*
X278913Y226000D01*
X278805Y226541D01*
X278499Y226999D01*
X278041Y227305D01*
X277500Y227413D01*
D02*
G37*
G36*
X94700Y226161D02*
Y223700D01*
X97161D01*
X97095Y224195D01*
X96827Y224844D01*
X96400Y225400D01*
X95843Y225827D01*
X95195Y226095D01*
X94700Y226161D01*
D02*
G37*
G36*
X94300D02*
X93805Y226095D01*
X93156Y225827D01*
X92600Y225400D01*
X92173Y224844D01*
X91905Y224195D01*
X91839Y223700D01*
X94300D01*
Y226161D01*
D02*
G37*
G36*
X247248Y224165D02*
X246707Y224057D01*
X246249Y223751D01*
X245943Y223293D01*
X245835Y222752D01*
X245943Y222211D01*
X246249Y221753D01*
X246707Y221447D01*
X247248Y221339D01*
X247789Y221447D01*
X248247Y221753D01*
X248553Y222211D01*
X248661Y222752D01*
X248553Y223293D01*
X248247Y223751D01*
X247789Y224057D01*
X247248Y224165D01*
D02*
G37*
G36*
X109500Y226041D02*
X108528Y225847D01*
X107704Y225296D01*
X107153Y224472D01*
X106959Y223500D01*
X107153Y222528D01*
X107704Y221704D01*
X108528Y221153D01*
X109500Y220959D01*
X110472Y221153D01*
X111296Y221704D01*
X111847Y222528D01*
X112040Y223500D01*
X111847Y224472D01*
X111296Y225296D01*
X110472Y225847D01*
X109500Y226041D01*
D02*
G37*
G36*
X97161Y223300D02*
X94700D01*
Y220839D01*
X95195Y220905D01*
X95843Y221173D01*
X96400Y221600D01*
X96827Y222157D01*
X97095Y222805D01*
X97161Y223300D01*
D02*
G37*
G36*
X94300D02*
X91839D01*
X91905Y222805D01*
X92173Y222157D01*
X92600Y221600D01*
X93156Y221173D01*
X93805Y220905D01*
X94300Y220839D01*
Y223300D01*
D02*
G37*
G36*
X79500Y226187D02*
X78805Y226095D01*
X78157Y225827D01*
X77600Y225400D01*
X77173Y224844D01*
X76905Y224195D01*
X76813Y223500D01*
X76905Y222805D01*
X77173Y222157D01*
X77600Y221600D01*
X78157Y221173D01*
X78805Y220905D01*
X79500Y220813D01*
X80195Y220905D01*
X80844Y221173D01*
X81400Y221600D01*
X81827Y222157D01*
X82095Y222805D01*
X82187Y223500D01*
X82095Y224195D01*
X81827Y224844D01*
X81400Y225400D01*
X80844Y225827D01*
X80195Y226095D01*
X79500Y226187D01*
D02*
G37*
G36*
X64500D02*
X63805Y226095D01*
X63156Y225827D01*
X62600Y225400D01*
X62173Y224844D01*
X61905Y224195D01*
X61813Y223500D01*
X61905Y222805D01*
X62173Y222157D01*
X62600Y221600D01*
X63156Y221173D01*
X63805Y220905D01*
X64500Y220813D01*
X65195Y220905D01*
X65843Y221173D01*
X66400Y221600D01*
X66827Y222157D01*
X67095Y222805D01*
X67187Y223500D01*
X67095Y224195D01*
X66827Y224844D01*
X66400Y225400D01*
X65843Y225827D01*
X65195Y226095D01*
X64500Y226187D01*
D02*
G37*
G36*
X328700Y222661D02*
Y220200D01*
X331161D01*
X331095Y220695D01*
X330827Y221343D01*
X330400Y221900D01*
X329843Y222327D01*
X329195Y222595D01*
X328700Y222661D01*
D02*
G37*
G36*
X328300D02*
X327805Y222595D01*
X327156Y222327D01*
X326600Y221900D01*
X326173Y221343D01*
X325905Y220695D01*
X325839Y220200D01*
X328300D01*
Y222661D01*
D02*
G37*
G36*
X235000Y221413D02*
X234459Y221305D01*
X234001Y220999D01*
X233695Y220541D01*
X233587Y220000D01*
X233695Y219459D01*
X234001Y219001D01*
X234459Y218695D01*
X235000Y218587D01*
X235541Y218695D01*
X235999Y219001D01*
X236305Y219459D01*
X236413Y220000D01*
X236305Y220541D01*
X235999Y220999D01*
X235541Y221305D01*
X235000Y221413D01*
D02*
G37*
G36*
X200000D02*
X199459Y221305D01*
X199001Y220999D01*
X198695Y220541D01*
X198587Y220000D01*
X198695Y219459D01*
X199001Y219001D01*
X199459Y218695D01*
X200000Y218587D01*
X200541Y218695D01*
X200999Y219001D01*
X201305Y219459D01*
X201413Y220000D01*
X201305Y220541D01*
X200999Y220999D01*
X200541Y221305D01*
X200000Y221413D01*
D02*
G37*
G36*
X179000Y220413D02*
X178459Y220305D01*
X178001Y219999D01*
X177695Y219541D01*
X177587Y219000D01*
X177695Y218459D01*
X178001Y218001D01*
X178459Y217695D01*
X179000Y217587D01*
X179541Y217695D01*
X179999Y218001D01*
X180305Y218459D01*
X180413Y219000D01*
X180305Y219541D01*
X179999Y219999D01*
X179541Y220305D01*
X179000Y220413D01*
D02*
G37*
G36*
X313500Y222540D02*
X312528Y222347D01*
X311704Y221796D01*
X311153Y220972D01*
X310960Y220000D01*
X311153Y219028D01*
X311704Y218204D01*
X312528Y217653D01*
X313500Y217460D01*
X314472Y217653D01*
X315296Y218204D01*
X315847Y219028D01*
X316040Y220000D01*
X315847Y220972D01*
X315296Y221796D01*
X314472Y222347D01*
X313500Y222540D01*
D02*
G37*
G36*
X331161Y219800D02*
X328700D01*
Y217339D01*
X329195Y217405D01*
X329843Y217673D01*
X330400Y218100D01*
X330827Y218656D01*
X331095Y219305D01*
X331161Y219800D01*
D02*
G37*
G36*
X328300D02*
X325839D01*
X325905Y219305D01*
X326173Y218656D01*
X326600Y218100D01*
X327156Y217673D01*
X327805Y217405D01*
X328300Y217339D01*
Y219800D01*
D02*
G37*
G36*
X358500Y222687D02*
X357805Y222595D01*
X357156Y222327D01*
X356600Y221900D01*
X356173Y221343D01*
X355905Y220695D01*
X355813Y220000D01*
X355905Y219305D01*
X356173Y218656D01*
X356600Y218100D01*
X357156Y217673D01*
X357805Y217405D01*
X358500Y217313D01*
X359195Y217405D01*
X359843Y217673D01*
X360400Y218100D01*
X360827Y218656D01*
X361095Y219305D01*
X361187Y220000D01*
X361095Y220695D01*
X360827Y221343D01*
X360400Y221900D01*
X359843Y222327D01*
X359195Y222595D01*
X358500Y222687D01*
D02*
G37*
G36*
X343500D02*
X342805Y222595D01*
X342157Y222327D01*
X341600Y221900D01*
X341173Y221343D01*
X340905Y220695D01*
X340813Y220000D01*
X340905Y219305D01*
X341173Y218656D01*
X341600Y218100D01*
X342157Y217673D01*
X342805Y217405D01*
X343500Y217313D01*
X344195Y217405D01*
X344844Y217673D01*
X345400Y218100D01*
X345827Y218656D01*
X346095Y219305D01*
X346187Y220000D01*
X346095Y220695D01*
X345827Y221343D01*
X345400Y221900D01*
X344844Y222327D01*
X344195Y222595D01*
X343500Y222687D01*
D02*
G37*
G36*
X243000Y221913D02*
X242459Y221805D01*
X242001Y221499D01*
X241695Y221041D01*
X241587Y220500D01*
X241695Y219959D01*
X242001Y219501D01*
X242459Y219195D01*
X243000Y219087D01*
X243541Y219195D01*
X243821Y219382D01*
X244164Y219069D01*
X244192Y219028D01*
X244087Y218500D01*
X244195Y217959D01*
X244501Y217501D01*
X244959Y217195D01*
X245500Y217087D01*
X246041Y217195D01*
X246499Y217501D01*
X246805Y217959D01*
X246913Y218500D01*
X246805Y219041D01*
X246499Y219499D01*
X246041Y219805D01*
X245500Y219913D01*
X244959Y219805D01*
X244679Y219618D01*
X244336Y219931D01*
X244308Y219971D01*
X244413Y220500D01*
X244305Y221041D01*
X243999Y221499D01*
X243541Y221805D01*
X243000Y221913D01*
D02*
G37*
G36*
X28004Y226073D02*
X26820Y225917D01*
X25717Y225460D01*
X24770Y224734D01*
X24044Y223786D01*
X23587Y222684D01*
X23431Y221500D01*
X23587Y220316D01*
X24044Y219214D01*
X24770Y218266D01*
X25717Y217540D01*
X26820Y217083D01*
X28004Y216927D01*
X29188Y217083D01*
X30290Y217540D01*
X31238Y218266D01*
X31964Y219214D01*
X32421Y220316D01*
X32577Y221500D01*
X32421Y222684D01*
X31964Y223786D01*
X31238Y224734D01*
X30290Y225460D01*
X29188Y225917D01*
X28004Y226073D01*
D02*
G37*
G36*
X238000Y218913D02*
X237459Y218805D01*
X237001Y218499D01*
X236695Y218041D01*
X236587Y217500D01*
X236695Y216959D01*
X237001Y216501D01*
X237459Y216195D01*
X238000Y216087D01*
X238541Y216195D01*
X238999Y216501D01*
X239305Y216959D01*
X239413Y217500D01*
X239305Y218041D01*
X238999Y218499D01*
X238541Y218805D01*
X238000Y218913D01*
D02*
G37*
G36*
X270500Y218413D02*
X269959Y218305D01*
X269501Y217999D01*
X269195Y217541D01*
X269087Y217000D01*
X269195Y216459D01*
X269501Y216001D01*
X269959Y215695D01*
X270500Y215587D01*
X271041Y215695D01*
X271499Y216001D01*
X271805Y216459D01*
X271913Y217000D01*
X271805Y217541D01*
X271499Y217999D01*
X271041Y218305D01*
X270500Y218413D01*
D02*
G37*
G36*
X249328Y218327D02*
X248788Y218220D01*
X248329Y217913D01*
X248023Y217455D01*
X247916Y216914D01*
X248023Y216373D01*
X248329Y215915D01*
X248788Y215609D01*
X249328Y215501D01*
X249869Y215609D01*
X250328Y215915D01*
X250634Y216373D01*
X250742Y216914D01*
X250634Y217455D01*
X250328Y217913D01*
X249869Y218220D01*
X249328Y218327D01*
D02*
G37*
G36*
X241717Y216196D02*
X241176Y216089D01*
X240717Y215783D01*
X240411Y215324D01*
X240304Y214784D01*
X240411Y214243D01*
X240717Y213784D01*
X241176Y213478D01*
X241717Y213370D01*
X242257Y213478D01*
X242716Y213784D01*
X243022Y214243D01*
X243129Y214784D01*
X243022Y215324D01*
X242716Y215783D01*
X242257Y216089D01*
X241717Y216196D01*
D02*
G37*
G36*
X260000Y215913D02*
X259459Y215805D01*
X259001Y215499D01*
X258695Y215041D01*
X258587Y214500D01*
X258695Y213959D01*
X259001Y213501D01*
X259459Y213195D01*
X260000Y213087D01*
X260541Y213195D01*
X260999Y213501D01*
X261305Y213959D01*
X261413Y214500D01*
X261305Y215041D01*
X260999Y215499D01*
X260541Y215805D01*
X260000Y215913D01*
D02*
G37*
G36*
X220000D02*
X219459Y215805D01*
X219001Y215499D01*
X218695Y215041D01*
X218587Y214500D01*
X218695Y213959D01*
X219001Y213501D01*
X219459Y213195D01*
X220000Y213087D01*
X220541Y213195D01*
X220999Y213501D01*
X221305Y213959D01*
X221413Y214500D01*
X221305Y215041D01*
X220999Y215499D01*
X220541Y215805D01*
X220000Y215913D01*
D02*
G37*
G36*
X179000D02*
X178459Y215805D01*
X178001Y215499D01*
X177695Y215041D01*
X177587Y214500D01*
X177695Y213959D01*
X178001Y213501D01*
X178459Y213195D01*
X179000Y213087D01*
X179541Y213195D01*
X179999Y213501D01*
X180305Y213959D01*
X180413Y214500D01*
X180305Y215041D01*
X179999Y215499D01*
X179541Y215805D01*
X179000Y215913D01*
D02*
G37*
G36*
X48000D02*
X47459Y215805D01*
X47001Y215499D01*
X46695Y215041D01*
X46587Y214500D01*
X46695Y213959D01*
X47001Y213501D01*
X47459Y213195D01*
X48000Y213087D01*
X48541Y213195D01*
X48999Y213501D01*
X49305Y213959D01*
X49413Y214500D01*
X49305Y215041D01*
X48999Y215499D01*
X48541Y215805D01*
X48000Y215913D01*
D02*
G37*
G36*
X379500Y214913D02*
X378959Y214805D01*
X378501Y214499D01*
X378195Y214041D01*
X378087Y213500D01*
X378195Y212959D01*
X378501Y212501D01*
X378959Y212195D01*
X379500Y212087D01*
X380041Y212195D01*
X380499Y212501D01*
X380805Y212959D01*
X380913Y213500D01*
X380805Y214041D01*
X380499Y214499D01*
X380041Y214805D01*
X379500Y214913D01*
D02*
G37*
G36*
X94700Y205161D02*
Y202700D01*
X97161D01*
X97095Y203195D01*
X96827Y203843D01*
X96400Y204400D01*
X95843Y204827D01*
X95195Y205095D01*
X94700Y205161D01*
D02*
G37*
G36*
X94300D02*
X93805Y205095D01*
X93156Y204827D01*
X92600Y204400D01*
X92173Y203843D01*
X91905Y203195D01*
X91839Y202700D01*
X94300D01*
Y205161D01*
D02*
G37*
G36*
X257500Y203913D02*
X256959Y203805D01*
X256501Y203499D01*
X256195Y203041D01*
X256087Y202500D01*
X256195Y201959D01*
X256501Y201501D01*
X256959Y201195D01*
X257500Y201087D01*
X258041Y201195D01*
X258499Y201501D01*
X258805Y201959D01*
X258913Y202500D01*
X258805Y203041D01*
X258499Y203499D01*
X258041Y203805D01*
X257500Y203913D01*
D02*
G37*
G36*
X254000D02*
X253459Y203805D01*
X253001Y203499D01*
X252695Y203041D01*
X252587Y202500D01*
X252695Y201959D01*
X253001Y201501D01*
X253459Y201195D01*
X254000Y201087D01*
X254541Y201195D01*
X254999Y201501D01*
X255305Y201959D01*
X255413Y202500D01*
X255305Y203041D01*
X254999Y203499D01*
X254541Y203805D01*
X254000Y203913D01*
D02*
G37*
G36*
X250500D02*
X249959Y203805D01*
X249501Y203499D01*
X249195Y203041D01*
X249087Y202500D01*
X249195Y201959D01*
X249501Y201501D01*
X249959Y201195D01*
X250500Y201087D01*
X251041Y201195D01*
X251499Y201501D01*
X251805Y201959D01*
X251913Y202500D01*
X251805Y203041D01*
X251499Y203499D01*
X251041Y203805D01*
X250500Y203913D01*
D02*
G37*
G36*
X328700Y202661D02*
Y200200D01*
X331161D01*
X331095Y200695D01*
X330827Y201343D01*
X330400Y201900D01*
X329843Y202327D01*
X329195Y202595D01*
X328700Y202661D01*
D02*
G37*
G36*
X328300D02*
X327805Y202595D01*
X327156Y202327D01*
X326600Y201900D01*
X326173Y201343D01*
X325905Y200695D01*
X325839Y200200D01*
X328300D01*
Y202661D01*
D02*
G37*
G36*
X109500Y205041D02*
X108528Y204847D01*
X107704Y204296D01*
X107153Y203472D01*
X106959Y202500D01*
X107153Y201528D01*
X107704Y200704D01*
X108528Y200153D01*
X109500Y199960D01*
X110472Y200153D01*
X111296Y200704D01*
X111847Y201528D01*
X112040Y202500D01*
X111847Y203472D01*
X111296Y204296D01*
X110472Y204847D01*
X109500Y205041D01*
D02*
G37*
G36*
X97161Y202300D02*
X94700D01*
Y199839D01*
X95195Y199905D01*
X95843Y200173D01*
X96400Y200600D01*
X96827Y201156D01*
X97095Y201805D01*
X97161Y202300D01*
D02*
G37*
G36*
X94300D02*
X91839D01*
X91905Y201805D01*
X92173Y201156D01*
X92600Y200600D01*
X93156Y200173D01*
X93805Y199905D01*
X94300Y199839D01*
Y202300D01*
D02*
G37*
G36*
X79500Y205187D02*
X78805Y205095D01*
X78157Y204827D01*
X77600Y204400D01*
X77173Y203843D01*
X76905Y203195D01*
X76813Y202500D01*
X76905Y201805D01*
X77173Y201156D01*
X77600Y200600D01*
X78157Y200173D01*
X78805Y199905D01*
X79500Y199813D01*
X80195Y199905D01*
X80844Y200173D01*
X81400Y200600D01*
X81827Y201156D01*
X82095Y201805D01*
X82187Y202500D01*
X82095Y203195D01*
X81827Y203843D01*
X81400Y204400D01*
X80844Y204827D01*
X80195Y205095D01*
X79500Y205187D01*
D02*
G37*
G36*
X64500D02*
X63805Y205095D01*
X63156Y204827D01*
X62600Y204400D01*
X62173Y203843D01*
X61905Y203195D01*
X61813Y202500D01*
X61905Y201805D01*
X62173Y201156D01*
X62600Y200600D01*
X63156Y200173D01*
X63805Y199905D01*
X64500Y199813D01*
X65195Y199905D01*
X65843Y200173D01*
X66400Y200600D01*
X66827Y201156D01*
X67095Y201805D01*
X67187Y202500D01*
X67095Y203195D01*
X66827Y203843D01*
X66400Y204400D01*
X65843Y204827D01*
X65195Y205095D01*
X64500Y205187D01*
D02*
G37*
G36*
X204315Y201598D02*
X203774Y201490D01*
X203316Y201184D01*
X203010Y200726D01*
X202902Y200185D01*
X203010Y199644D01*
X203316Y199186D01*
X203774Y198880D01*
X204315Y198772D01*
X204856Y198880D01*
X205314Y199186D01*
X205620Y199644D01*
X205728Y200185D01*
X205620Y200726D01*
X205314Y201184D01*
X204856Y201490D01*
X204315Y201598D01*
D02*
G37*
G36*
X313500Y202540D02*
X312528Y202347D01*
X311704Y201796D01*
X311153Y200972D01*
X310960Y200000D01*
X311153Y199028D01*
X311704Y198204D01*
X312528Y197653D01*
X313500Y197459D01*
X314472Y197653D01*
X315296Y198204D01*
X315847Y199028D01*
X316040Y200000D01*
X315847Y200972D01*
X315296Y201796D01*
X314472Y202347D01*
X313500Y202540D01*
D02*
G37*
G36*
X331161Y199800D02*
X328700D01*
Y197339D01*
X329195Y197405D01*
X329843Y197673D01*
X330400Y198100D01*
X330827Y198656D01*
X331095Y199305D01*
X331161Y199800D01*
D02*
G37*
G36*
X328300D02*
X325839D01*
X325905Y199305D01*
X326173Y198656D01*
X326600Y198100D01*
X327156Y197673D01*
X327805Y197405D01*
X328300Y197339D01*
Y199800D01*
D02*
G37*
G36*
X358500Y202687D02*
X357805Y202595D01*
X357156Y202327D01*
X356600Y201900D01*
X356173Y201343D01*
X355905Y200695D01*
X355813Y200000D01*
X355905Y199305D01*
X356173Y198656D01*
X356600Y198100D01*
X357156Y197673D01*
X357805Y197405D01*
X358500Y197313D01*
X359195Y197405D01*
X359843Y197673D01*
X360400Y198100D01*
X360827Y198656D01*
X361095Y199305D01*
X361187Y200000D01*
X361095Y200695D01*
X360827Y201343D01*
X360400Y201900D01*
X359843Y202327D01*
X359195Y202595D01*
X358500Y202687D01*
D02*
G37*
G36*
X343500D02*
X342805Y202595D01*
X342157Y202327D01*
X341600Y201900D01*
X341173Y201343D01*
X340905Y200695D01*
X340813Y200000D01*
X340905Y199305D01*
X341173Y198656D01*
X341600Y198100D01*
X342157Y197673D01*
X342805Y197405D01*
X343500Y197313D01*
X344195Y197405D01*
X344844Y197673D01*
X345400Y198100D01*
X345827Y198656D01*
X346095Y199305D01*
X346187Y200000D01*
X346095Y200695D01*
X345827Y201343D01*
X345400Y201900D01*
X344844Y202327D01*
X344195Y202595D01*
X343500Y202687D01*
D02*
G37*
G36*
X28004Y206388D02*
X26820Y206232D01*
X25717Y205775D01*
X24770Y205048D01*
X24044Y204101D01*
X23587Y202998D01*
X23431Y201815D01*
X23587Y200631D01*
X24044Y199529D01*
X24770Y198581D01*
X25717Y197855D01*
X26820Y197398D01*
X28004Y197242D01*
X29188Y197398D01*
X30290Y197855D01*
X31238Y198581D01*
X31964Y199529D01*
X32421Y200631D01*
X32577Y201815D01*
X32421Y202998D01*
X31964Y204101D01*
X31238Y205048D01*
X30290Y205775D01*
X29188Y206232D01*
X28004Y206388D01*
D02*
G37*
G36*
X202000Y198913D02*
X201459Y198805D01*
X201001Y198499D01*
X200695Y198041D01*
X200587Y197500D01*
X200695Y196959D01*
X201001Y196501D01*
X201459Y196195D01*
X202000Y196087D01*
X202541Y196195D01*
X202999Y196501D01*
X203305Y196959D01*
X203413Y197500D01*
X203305Y198041D01*
X202999Y198499D01*
X202541Y198805D01*
X202000Y198913D01*
D02*
G37*
G36*
X46000Y195413D02*
X45459Y195305D01*
X45001Y194999D01*
X44695Y194541D01*
X44587Y194000D01*
X44695Y193459D01*
X45001Y193001D01*
X45459Y192695D01*
X46000Y192587D01*
X46541Y192695D01*
X46999Y193001D01*
X47305Y193459D01*
X47413Y194000D01*
X47305Y194541D01*
X46999Y194999D01*
X46541Y195305D01*
X46000Y195413D01*
D02*
G37*
G36*
X219000Y193913D02*
X218459Y193805D01*
X218001Y193499D01*
X217695Y193041D01*
X217587Y192500D01*
X217695Y191959D01*
X218001Y191501D01*
X218459Y191195D01*
X219000Y191087D01*
X219541Y191195D01*
X219999Y191501D01*
X220305Y191959D01*
X220413Y192500D01*
X220305Y193041D01*
X219999Y193499D01*
X219541Y193805D01*
X219000Y193913D01*
D02*
G37*
G36*
X376500Y190913D02*
X375959Y190805D01*
X375501Y190499D01*
X375195Y190041D01*
X375087Y189500D01*
X375195Y188959D01*
X375501Y188501D01*
X375959Y188195D01*
X376500Y188087D01*
X377041Y188195D01*
X377499Y188501D01*
X377805Y188959D01*
X377913Y189500D01*
X377805Y190041D01*
X377499Y190499D01*
X377041Y190805D01*
X376500Y190913D01*
D02*
G37*
G36*
X94700Y183661D02*
Y181200D01*
X97161D01*
X97095Y181695D01*
X96827Y182343D01*
X96400Y182900D01*
X95843Y183327D01*
X95195Y183595D01*
X94700Y183661D01*
D02*
G37*
G36*
X94300D02*
X93805Y183595D01*
X93156Y183327D01*
X92600Y182900D01*
X92173Y182343D01*
X91905Y181695D01*
X91839Y181200D01*
X94300D01*
Y183661D01*
D02*
G37*
G36*
X139000Y183913D02*
X138459Y183805D01*
X138001Y183499D01*
X137695Y183041D01*
X137587Y182500D01*
X137695Y181959D01*
X138001Y181501D01*
X138459Y181195D01*
X139000Y181087D01*
X139541Y181195D01*
X139999Y181501D01*
X140305Y181959D01*
X140413Y182500D01*
X140305Y183041D01*
X139999Y183499D01*
X139541Y183805D01*
X139000Y183913D01*
D02*
G37*
G36*
X328700Y182661D02*
Y180200D01*
X331161D01*
X331095Y180695D01*
X330827Y181343D01*
X330400Y181900D01*
X329843Y182327D01*
X329195Y182595D01*
X328700Y182661D01*
D02*
G37*
G36*
X328300D02*
X327805Y182595D01*
X327156Y182327D01*
X326600Y181900D01*
X326173Y181343D01*
X325905Y180695D01*
X325839Y180200D01*
X328300D01*
Y182661D01*
D02*
G37*
G36*
X109500Y183540D02*
X108528Y183347D01*
X107704Y182796D01*
X107153Y181972D01*
X106959Y181000D01*
X107153Y180028D01*
X107704Y179204D01*
X108528Y178653D01*
X109500Y178460D01*
X110472Y178653D01*
X111296Y179204D01*
X111847Y180028D01*
X112040Y181000D01*
X111847Y181972D01*
X111296Y182796D01*
X110472Y183347D01*
X109500Y183540D01*
D02*
G37*
G36*
X97161Y180800D02*
X94700D01*
Y178339D01*
X95195Y178405D01*
X95843Y178673D01*
X96400Y179100D01*
X96827Y179657D01*
X97095Y180305D01*
X97161Y180800D01*
D02*
G37*
G36*
X94300D02*
X91839D01*
X91905Y180305D01*
X92173Y179657D01*
X92600Y179100D01*
X93156Y178673D01*
X93805Y178405D01*
X94300Y178339D01*
Y180800D01*
D02*
G37*
G36*
X79500Y183687D02*
X78805Y183595D01*
X78157Y183327D01*
X77600Y182900D01*
X77173Y182343D01*
X76905Y181695D01*
X76813Y181000D01*
X76905Y180305D01*
X77173Y179657D01*
X77600Y179100D01*
X78157Y178673D01*
X78805Y178405D01*
X79500Y178313D01*
X80195Y178405D01*
X80844Y178673D01*
X81400Y179100D01*
X81827Y179657D01*
X82095Y180305D01*
X82187Y181000D01*
X82095Y181695D01*
X81827Y182343D01*
X81400Y182900D01*
X80844Y183327D01*
X80195Y183595D01*
X79500Y183687D01*
D02*
G37*
G36*
X64500D02*
X63805Y183595D01*
X63156Y183327D01*
X62600Y182900D01*
X62173Y182343D01*
X61905Y181695D01*
X61813Y181000D01*
X61905Y180305D01*
X62173Y179657D01*
X62600Y179100D01*
X63156Y178673D01*
X63805Y178405D01*
X64500Y178313D01*
X65195Y178405D01*
X65843Y178673D01*
X66400Y179100D01*
X66827Y179657D01*
X67095Y180305D01*
X67187Y181000D01*
X67095Y181695D01*
X66827Y182343D01*
X66400Y182900D01*
X65843Y183327D01*
X65195Y183595D01*
X64500Y183687D01*
D02*
G37*
G36*
X28004Y186703D02*
X26820Y186547D01*
X25717Y186090D01*
X24770Y185363D01*
X24044Y184416D01*
X23587Y183314D01*
X23431Y182130D01*
X23587Y180946D01*
X24044Y179843D01*
X24770Y178896D01*
X25717Y178170D01*
X26820Y177713D01*
X28004Y177557D01*
X29188Y177713D01*
X30290Y178170D01*
X31238Y178896D01*
X31964Y179843D01*
X32421Y180946D01*
X32577Y182130D01*
X32421Y183314D01*
X31964Y184416D01*
X31238Y185363D01*
X30290Y186090D01*
X29188Y186547D01*
X28004Y186703D01*
D02*
G37*
G36*
X313500Y182541D02*
X312528Y182347D01*
X311704Y181796D01*
X311153Y180972D01*
X310960Y180000D01*
X311153Y179028D01*
X311704Y178204D01*
X312528Y177653D01*
X313500Y177460D01*
X314472Y177653D01*
X315296Y178204D01*
X315847Y179028D01*
X316040Y180000D01*
X315847Y180972D01*
X315296Y181796D01*
X314472Y182347D01*
X313500Y182541D01*
D02*
G37*
G36*
X331161Y179800D02*
X328700D01*
Y177339D01*
X329195Y177405D01*
X329843Y177673D01*
X330400Y178100D01*
X330827Y178656D01*
X331095Y179305D01*
X331161Y179800D01*
D02*
G37*
G36*
X328300D02*
X325839D01*
X325905Y179305D01*
X326173Y178656D01*
X326600Y178100D01*
X327156Y177673D01*
X327805Y177405D01*
X328300Y177339D01*
Y179800D01*
D02*
G37*
G36*
X358500Y182687D02*
X357805Y182595D01*
X357156Y182327D01*
X356600Y181900D01*
X356173Y181343D01*
X355905Y180695D01*
X355813Y180000D01*
X355905Y179305D01*
X356173Y178656D01*
X356600Y178100D01*
X357156Y177673D01*
X357805Y177405D01*
X358500Y177313D01*
X359195Y177405D01*
X359843Y177673D01*
X360400Y178100D01*
X360827Y178656D01*
X361095Y179305D01*
X361187Y180000D01*
X361095Y180695D01*
X360827Y181343D01*
X360400Y181900D01*
X359843Y182327D01*
X359195Y182595D01*
X358500Y182687D01*
D02*
G37*
G36*
X343500D02*
X342805Y182595D01*
X342157Y182327D01*
X341600Y181900D01*
X341173Y181343D01*
X340905Y180695D01*
X340813Y180000D01*
X340905Y179305D01*
X341173Y178656D01*
X341600Y178100D01*
X342157Y177673D01*
X342805Y177405D01*
X343500Y177313D01*
X344195Y177405D01*
X344844Y177673D01*
X345400Y178100D01*
X345827Y178656D01*
X346095Y179305D01*
X346187Y180000D01*
X346095Y180695D01*
X345827Y181343D01*
X345400Y181900D01*
X344844Y182327D01*
X344195Y182595D01*
X343500Y182687D01*
D02*
G37*
G36*
X165913Y175413D02*
X165373Y175305D01*
X164914Y174999D01*
X164608Y174541D01*
X164500Y174000D01*
X164608Y173459D01*
X164914Y173001D01*
X165373Y172695D01*
X165913Y172587D01*
X166454Y172695D01*
X166912Y173001D01*
X167219Y173459D01*
X167326Y174000D01*
X167219Y174541D01*
X166912Y174999D01*
X166454Y175305D01*
X165913Y175413D01*
D02*
G37*
G36*
X379500Y174913D02*
X378959Y174805D01*
X378501Y174499D01*
X378195Y174041D01*
X378087Y173500D01*
X378195Y172959D01*
X378501Y172501D01*
X378959Y172195D01*
X379500Y172087D01*
X380041Y172195D01*
X380499Y172501D01*
X380805Y172959D01*
X380913Y173500D01*
X380805Y174041D01*
X380499Y174499D01*
X380041Y174805D01*
X379500Y174913D01*
D02*
G37*
G36*
X46000Y173413D02*
X45459Y173305D01*
X45001Y172999D01*
X44695Y172541D01*
X44587Y172000D01*
X44695Y171459D01*
X45001Y171001D01*
X45459Y170695D01*
X46000Y170587D01*
X46541Y170695D01*
X46999Y171001D01*
X47305Y171459D01*
X47413Y172000D01*
X47305Y172541D01*
X46999Y172999D01*
X46541Y173305D01*
X46000Y173413D01*
D02*
G37*
G36*
X129000Y172913D02*
X128459Y172805D01*
X128001Y172499D01*
X127695Y172041D01*
X127587Y171500D01*
X127695Y170959D01*
X128001Y170501D01*
X128459Y170195D01*
X129000Y170087D01*
X129541Y170195D01*
X129999Y170501D01*
X130305Y170959D01*
X130413Y171500D01*
X130305Y172041D01*
X129999Y172499D01*
X129541Y172805D01*
X129000Y172913D01*
D02*
G37*
G36*
X291500Y174413D02*
X290959Y174305D01*
X290501Y173999D01*
X290195Y173541D01*
X290087Y173000D01*
X290195Y172459D01*
X290501Y172001D01*
X290959Y171695D01*
X291500Y171587D01*
X292041Y171695D01*
X292321Y171882D01*
X292664Y171569D01*
X292692Y171528D01*
X292587Y171000D01*
X292695Y170459D01*
X293001Y170001D01*
X293459Y169695D01*
X294000Y169587D01*
X294541Y169695D01*
X294999Y170001D01*
X295305Y170459D01*
X295413Y171000D01*
X295305Y171541D01*
X294999Y171999D01*
X294541Y172305D01*
X294000Y172413D01*
X293459Y172305D01*
X293179Y172118D01*
X292836Y172431D01*
X292808Y172471D01*
X292913Y173000D01*
X292805Y173541D01*
X292499Y173999D01*
X292041Y174305D01*
X291500Y174413D01*
D02*
G37*
G36*
X127000Y169913D02*
X126459Y169805D01*
X126001Y169499D01*
X125695Y169041D01*
X125587Y168500D01*
X125695Y167959D01*
X126001Y167501D01*
X126459Y167195D01*
X127000Y167087D01*
X127541Y167195D01*
X127999Y167501D01*
X128305Y167959D01*
X128413Y168500D01*
X128305Y169041D01*
X127999Y169499D01*
X127541Y169805D01*
X127000Y169913D01*
D02*
G37*
G36*
X291000Y169413D02*
X290459Y169305D01*
X290001Y168999D01*
X289695Y168541D01*
X289587Y168000D01*
X289695Y167459D01*
X290001Y167001D01*
X290459Y166695D01*
X291000Y166587D01*
X291541Y166695D01*
X291999Y167001D01*
X292305Y167459D01*
X292413Y168000D01*
X292305Y168541D01*
X291999Y168999D01*
X291541Y169305D01*
X291000Y169413D01*
D02*
G37*
G36*
X294000Y166913D02*
X293459Y166805D01*
X293001Y166499D01*
X292695Y166041D01*
X292587Y165500D01*
X292695Y164959D01*
X293001Y164501D01*
X293459Y164195D01*
X294000Y164087D01*
X294541Y164195D01*
X294999Y164501D01*
X295305Y164959D01*
X295413Y165500D01*
X295305Y166041D01*
X294999Y166499D01*
X294541Y166805D01*
X294000Y166913D01*
D02*
G37*
G36*
X129500D02*
X128959Y166805D01*
X128501Y166499D01*
X128195Y166041D01*
X128087Y165500D01*
X128195Y164959D01*
X128501Y164501D01*
X128959Y164195D01*
X129500Y164087D01*
X130041Y164195D01*
X130499Y164501D01*
X130805Y164959D01*
X130913Y165500D01*
X130805Y166041D01*
X130499Y166499D01*
X130041Y166805D01*
X129500Y166913D01*
D02*
G37*
G36*
X291000Y164913D02*
X290459Y164805D01*
X290001Y164499D01*
X289695Y164041D01*
X289587Y163500D01*
X289695Y162959D01*
X290001Y162501D01*
X290459Y162195D01*
X291000Y162087D01*
X291541Y162195D01*
X291999Y162501D01*
X292305Y162959D01*
X292413Y163500D01*
X292305Y164041D01*
X291999Y164499D01*
X291541Y164805D01*
X291000Y164913D01*
D02*
G37*
G36*
X329200Y162661D02*
Y160200D01*
X331661D01*
X331595Y160695D01*
X331327Y161344D01*
X330900Y161900D01*
X330344Y162327D01*
X329695Y162595D01*
X329200Y162661D01*
D02*
G37*
G36*
X328800D02*
X328305Y162595D01*
X327657Y162327D01*
X327100Y161900D01*
X326673Y161344D01*
X326405Y160695D01*
X326339Y160200D01*
X328800D01*
Y162661D01*
D02*
G37*
G36*
X127000Y164413D02*
X126459Y164305D01*
X126001Y163999D01*
X125695Y163541D01*
X125587Y163000D01*
X125695Y162459D01*
X126001Y162001D01*
X126459Y161695D01*
X127000Y161587D01*
X127541Y161695D01*
X127821Y161882D01*
X128164Y161569D01*
X128192Y161529D01*
X128087Y161000D01*
X128195Y160459D01*
X128382Y160179D01*
X128069Y159836D01*
X128029Y159808D01*
X127500Y159913D01*
X126959Y159805D01*
X126501Y159499D01*
X126195Y159041D01*
X126087Y158500D01*
X126195Y157959D01*
X126501Y157501D01*
X126959Y157195D01*
X127500Y157087D01*
X127752Y156628D01*
X127695Y156541D01*
X127587Y156000D01*
X127695Y155459D01*
X128001Y155001D01*
X128459Y154695D01*
X129000Y154587D01*
X129541Y154695D01*
X129999Y155001D01*
X130305Y155459D01*
X130413Y156000D01*
X130305Y156541D01*
X129999Y156999D01*
X129541Y157305D01*
X129000Y157413D01*
X128747Y157872D01*
X128805Y157959D01*
X128913Y158500D01*
X128805Y159041D01*
X128618Y159321D01*
X128931Y159664D01*
X128972Y159692D01*
X129500Y159587D01*
X130041Y159695D01*
X130499Y160001D01*
X130805Y160459D01*
X130913Y161000D01*
X130805Y161541D01*
X130499Y161999D01*
X130041Y162305D01*
X129500Y162413D01*
X128959Y162305D01*
X128679Y162118D01*
X128336Y162431D01*
X128308Y162471D01*
X128413Y163000D01*
X128305Y163541D01*
X127999Y163999D01*
X127541Y164305D01*
X127000Y164413D01*
D02*
G37*
G36*
X94700Y162161D02*
Y159700D01*
X97161D01*
X97095Y160195D01*
X96827Y160844D01*
X96400Y161400D01*
X95843Y161827D01*
X95195Y162095D01*
X94700Y162161D01*
D02*
G37*
G36*
X94300D02*
X93805Y162095D01*
X93156Y161827D01*
X92600Y161400D01*
X92173Y160844D01*
X91905Y160195D01*
X91839Y159700D01*
X94300D01*
Y162161D01*
D02*
G37*
G36*
X294000Y162413D02*
X293459Y162305D01*
X293001Y161999D01*
X292695Y161541D01*
X292587Y161000D01*
X292695Y160459D01*
X293001Y160001D01*
X293459Y159695D01*
X294000Y159587D01*
X294541Y159695D01*
X294999Y160001D01*
X295305Y160459D01*
X295413Y161000D01*
X295305Y161541D01*
X294999Y161999D01*
X294541Y162305D01*
X294000Y162413D01*
D02*
G37*
G36*
X28004Y167018D02*
X26820Y166862D01*
X25717Y166405D01*
X24770Y165679D01*
X24044Y164731D01*
X23587Y163628D01*
X23431Y162445D01*
X23587Y161261D01*
X24044Y160158D01*
X24770Y159211D01*
X25717Y158485D01*
X26820Y158028D01*
X28004Y157872D01*
X29188Y158028D01*
X30290Y158485D01*
X31238Y159211D01*
X31964Y160158D01*
X32421Y161261D01*
X32577Y162445D01*
X32421Y163628D01*
X31964Y164731D01*
X31238Y165679D01*
X30290Y166405D01*
X29188Y166862D01*
X28004Y167018D01*
D02*
G37*
G36*
X314000Y162540D02*
X313028Y162347D01*
X312204Y161796D01*
X311653Y160972D01*
X311459Y160000D01*
X311653Y159028D01*
X312204Y158204D01*
X313028Y157653D01*
X314000Y157459D01*
X314972Y157653D01*
X315796Y158204D01*
X316347Y159028D01*
X316541Y160000D01*
X316347Y160972D01*
X315796Y161796D01*
X314972Y162347D01*
X314000Y162540D01*
D02*
G37*
G36*
X331661Y159800D02*
X329200D01*
Y157339D01*
X329695Y157405D01*
X330344Y157673D01*
X330900Y158100D01*
X331327Y158657D01*
X331595Y159305D01*
X331661Y159800D01*
D02*
G37*
G36*
X328800D02*
X326339D01*
X326405Y159305D01*
X326673Y158657D01*
X327100Y158100D01*
X327657Y157673D01*
X328305Y157405D01*
X328800Y157339D01*
Y159800D01*
D02*
G37*
G36*
X359000Y162687D02*
X358305Y162595D01*
X357657Y162327D01*
X357100Y161900D01*
X356673Y161344D01*
X356405Y160695D01*
X356313Y160000D01*
X356405Y159305D01*
X356673Y158657D01*
X357100Y158100D01*
X357657Y157673D01*
X358305Y157405D01*
X359000Y157313D01*
X359695Y157405D01*
X360344Y157673D01*
X360900Y158100D01*
X361327Y158657D01*
X361595Y159305D01*
X361687Y160000D01*
X361595Y160695D01*
X361327Y161344D01*
X360900Y161900D01*
X360344Y162327D01*
X359695Y162595D01*
X359000Y162687D01*
D02*
G37*
G36*
X344000D02*
X343305Y162595D01*
X342656Y162327D01*
X342100Y161900D01*
X341673Y161344D01*
X341405Y160695D01*
X341313Y160000D01*
X341405Y159305D01*
X341673Y158657D01*
X342100Y158100D01*
X342656Y157673D01*
X343305Y157405D01*
X344000Y157313D01*
X344695Y157405D01*
X345343Y157673D01*
X345900Y158100D01*
X346327Y158657D01*
X346595Y159305D01*
X346687Y160000D01*
X346595Y160695D01*
X346327Y161344D01*
X345900Y161900D01*
X345343Y162327D01*
X344695Y162595D01*
X344000Y162687D01*
D02*
G37*
G36*
X109500Y162040D02*
X108528Y161847D01*
X107704Y161296D01*
X107153Y160472D01*
X106959Y159500D01*
X107153Y158528D01*
X107704Y157704D01*
X108528Y157153D01*
X109500Y156959D01*
X110472Y157153D01*
X111296Y157704D01*
X111847Y158528D01*
X112040Y159500D01*
X111847Y160472D01*
X111296Y161296D01*
X110472Y161847D01*
X109500Y162040D01*
D02*
G37*
G36*
X97161Y159300D02*
X94700D01*
Y156839D01*
X95195Y156905D01*
X95843Y157173D01*
X96400Y157600D01*
X96827Y158157D01*
X97095Y158805D01*
X97161Y159300D01*
D02*
G37*
G36*
X94300D02*
X91839D01*
X91905Y158805D01*
X92173Y158157D01*
X92600Y157600D01*
X93156Y157173D01*
X93805Y156905D01*
X94300Y156839D01*
Y159300D01*
D02*
G37*
G36*
X79500Y162187D02*
X78805Y162095D01*
X78157Y161827D01*
X77600Y161400D01*
X77173Y160844D01*
X76905Y160195D01*
X76813Y159500D01*
X76905Y158805D01*
X77173Y158157D01*
X77600Y157600D01*
X78157Y157173D01*
X78805Y156905D01*
X79500Y156813D01*
X80195Y156905D01*
X80844Y157173D01*
X81400Y157600D01*
X81827Y158157D01*
X82095Y158805D01*
X82187Y159500D01*
X82095Y160195D01*
X81827Y160844D01*
X81400Y161400D01*
X80844Y161827D01*
X80195Y162095D01*
X79500Y162187D01*
D02*
G37*
G36*
X64500D02*
X63805Y162095D01*
X63156Y161827D01*
X62600Y161400D01*
X62173Y160844D01*
X61905Y160195D01*
X61813Y159500D01*
X61905Y158805D01*
X62173Y158157D01*
X62600Y157600D01*
X63156Y157173D01*
X63805Y156905D01*
X64500Y156813D01*
X65195Y156905D01*
X65843Y157173D01*
X66400Y157600D01*
X66827Y158157D01*
X67095Y158805D01*
X67187Y159500D01*
X67095Y160195D01*
X66827Y160844D01*
X66400Y161400D01*
X65843Y161827D01*
X65195Y162095D01*
X64500Y162187D01*
D02*
G37*
G36*
X291000Y159413D02*
X290459Y159305D01*
X290001Y158999D01*
X289695Y158541D01*
X289587Y158000D01*
X289695Y157459D01*
X290001Y157001D01*
X290459Y156695D01*
X291000Y156587D01*
X291541Y156695D01*
X291999Y157001D01*
X292305Y157459D01*
X292413Y158000D01*
X292305Y158541D01*
X291999Y158999D01*
X291541Y159305D01*
X291000Y159413D01*
D02*
G37*
G36*
X252043Y156956D02*
X251503Y156849D01*
X251044Y156542D01*
X250738Y156084D01*
X250630Y155543D01*
X250738Y155003D01*
X251044Y154544D01*
X251503Y154238D01*
X252043Y154130D01*
X252584Y154238D01*
X253042Y154544D01*
X253349Y155003D01*
X253456Y155543D01*
X253349Y156084D01*
X253042Y156542D01*
X252584Y156849D01*
X252043Y156956D01*
D02*
G37*
G36*
X379500Y154413D02*
X378959Y154305D01*
X378501Y153999D01*
X378195Y153541D01*
X378087Y153000D01*
X378195Y152459D01*
X378501Y152001D01*
X378959Y151695D01*
X379500Y151587D01*
X380041Y151695D01*
X380499Y152001D01*
X380805Y152459D01*
X380913Y153000D01*
X380805Y153541D01*
X380499Y153999D01*
X380041Y154305D01*
X379500Y154413D01*
D02*
G37*
G36*
X50000Y151913D02*
X49459Y151805D01*
X49001Y151499D01*
X48695Y151041D01*
X48587Y150500D01*
X48695Y149959D01*
X49001Y149501D01*
X49459Y149195D01*
X50000Y149087D01*
X50541Y149195D01*
X50999Y149501D01*
X51305Y149959D01*
X51413Y150500D01*
X51305Y151041D01*
X50999Y151499D01*
X50541Y151805D01*
X50000Y151913D01*
D02*
G37*
G36*
X278500Y147913D02*
X277959Y147805D01*
X277501Y147499D01*
X277195Y147041D01*
X277087Y146500D01*
X277195Y145959D01*
X277501Y145501D01*
X277959Y145195D01*
X278500Y145087D01*
X279041Y145195D01*
X279499Y145501D01*
X279805Y145959D01*
X279913Y146500D01*
X279805Y147041D01*
X279499Y147499D01*
X279041Y147805D01*
X278500Y147913D01*
D02*
G37*
G36*
X328700Y142661D02*
Y140200D01*
X331161D01*
X331095Y140695D01*
X330827Y141343D01*
X330400Y141900D01*
X329843Y142327D01*
X329195Y142595D01*
X328700Y142661D01*
D02*
G37*
G36*
X328300D02*
X327805Y142595D01*
X327156Y142327D01*
X326600Y141900D01*
X326173Y141343D01*
X325905Y140695D01*
X325839Y140200D01*
X328300D01*
Y142661D01*
D02*
G37*
G36*
X215500Y142913D02*
X214959Y142805D01*
X214501Y142499D01*
X214195Y142041D01*
X214087Y141500D01*
X214195Y140959D01*
X214501Y140501D01*
X214959Y140195D01*
X215500Y140087D01*
X216041Y140195D01*
X216499Y140501D01*
X216805Y140959D01*
X216913Y141500D01*
X216805Y142041D01*
X216499Y142499D01*
X216041Y142805D01*
X215500Y142913D01*
D02*
G37*
G36*
X94700Y141661D02*
Y139200D01*
X97161D01*
X97095Y139695D01*
X96827Y140343D01*
X96400Y140900D01*
X95843Y141327D01*
X95195Y141595D01*
X94700Y141661D01*
D02*
G37*
G36*
X94300D02*
X93805Y141595D01*
X93156Y141327D01*
X92600Y140900D01*
X92173Y140343D01*
X91905Y139695D01*
X91839Y139200D01*
X94300D01*
Y141661D01*
D02*
G37*
G36*
X212500Y140413D02*
X211959Y140305D01*
X211501Y139999D01*
X211195Y139541D01*
X211087Y139000D01*
X211195Y138459D01*
X211501Y138001D01*
X211959Y137695D01*
X212500Y137587D01*
X213041Y137695D01*
X213499Y138001D01*
X213805Y138459D01*
X213913Y139000D01*
X213805Y139541D01*
X213499Y139999D01*
X213041Y140305D01*
X212500Y140413D01*
D02*
G37*
G36*
X313500Y142541D02*
X312528Y142347D01*
X311704Y141796D01*
X311153Y140972D01*
X310960Y140000D01*
X311153Y139028D01*
X311704Y138204D01*
X312528Y137653D01*
X313500Y137460D01*
X314472Y137653D01*
X315296Y138204D01*
X315847Y139028D01*
X316040Y140000D01*
X315847Y140972D01*
X315296Y141796D01*
X314472Y142347D01*
X313500Y142541D01*
D02*
G37*
G36*
X331161Y139800D02*
X328700D01*
Y137339D01*
X329195Y137405D01*
X329843Y137673D01*
X330400Y138100D01*
X330827Y138656D01*
X331095Y139305D01*
X331161Y139800D01*
D02*
G37*
G36*
X328300D02*
X325839D01*
X325905Y139305D01*
X326173Y138656D01*
X326600Y138100D01*
X327156Y137673D01*
X327805Y137405D01*
X328300Y137339D01*
Y139800D01*
D02*
G37*
G36*
X358500Y142687D02*
X357805Y142595D01*
X357156Y142327D01*
X356600Y141900D01*
X356173Y141343D01*
X355905Y140695D01*
X355813Y140000D01*
X355905Y139305D01*
X356173Y138656D01*
X356600Y138100D01*
X357156Y137673D01*
X357805Y137405D01*
X358500Y137313D01*
X359195Y137405D01*
X359843Y137673D01*
X360400Y138100D01*
X360827Y138656D01*
X361095Y139305D01*
X361187Y140000D01*
X361095Y140695D01*
X360827Y141343D01*
X360400Y141900D01*
X359843Y142327D01*
X359195Y142595D01*
X358500Y142687D01*
D02*
G37*
G36*
X343500D02*
X342805Y142595D01*
X342157Y142327D01*
X341600Y141900D01*
X341173Y141343D01*
X340905Y140695D01*
X340813Y140000D01*
X340905Y139305D01*
X341173Y138656D01*
X341600Y138100D01*
X342157Y137673D01*
X342805Y137405D01*
X343500Y137313D01*
X344195Y137405D01*
X344844Y137673D01*
X345400Y138100D01*
X345827Y138656D01*
X346095Y139305D01*
X346187Y140000D01*
X346095Y140695D01*
X345827Y141343D01*
X345400Y141900D01*
X344844Y142327D01*
X344195Y142595D01*
X343500Y142687D01*
D02*
G37*
G36*
X18161Y148518D02*
X16671Y148322D01*
X15282Y147746D01*
X14090Y146831D01*
X13175Y145639D01*
X12600Y144250D01*
X12404Y142760D01*
X12600Y141270D01*
X13175Y139881D01*
X14090Y138688D01*
X15282Y137773D01*
X16671Y137198D01*
X18161Y137002D01*
X19652Y137198D01*
X21040Y137773D01*
X22233Y138688D01*
X23148Y139881D01*
X23723Y141270D01*
X23919Y142760D01*
X23723Y144250D01*
X23148Y145639D01*
X22233Y146831D01*
X21040Y147746D01*
X19652Y148322D01*
X18161Y148518D01*
D02*
G37*
G36*
X109500Y141541D02*
X108528Y141347D01*
X107704Y140796D01*
X107153Y139972D01*
X106959Y139000D01*
X107153Y138028D01*
X107704Y137204D01*
X108528Y136653D01*
X109500Y136460D01*
X110472Y136653D01*
X111296Y137204D01*
X111847Y138028D01*
X112040Y139000D01*
X111847Y139972D01*
X111296Y140796D01*
X110472Y141347D01*
X109500Y141541D01*
D02*
G37*
G36*
X97161Y138800D02*
X94700D01*
Y136339D01*
X95195Y136405D01*
X95843Y136673D01*
X96400Y137100D01*
X96827Y137656D01*
X97095Y138305D01*
X97161Y138800D01*
D02*
G37*
G36*
X94300D02*
X91839D01*
X91905Y138305D01*
X92173Y137656D01*
X92600Y137100D01*
X93156Y136673D01*
X93805Y136405D01*
X94300Y136339D01*
Y138800D01*
D02*
G37*
G36*
X79500Y141687D02*
X78805Y141595D01*
X78157Y141327D01*
X77600Y140900D01*
X77173Y140343D01*
X76905Y139695D01*
X76813Y139000D01*
X76905Y138305D01*
X77173Y137656D01*
X77600Y137100D01*
X78157Y136673D01*
X78805Y136405D01*
X79500Y136313D01*
X80195Y136405D01*
X80844Y136673D01*
X81400Y137100D01*
X81827Y137656D01*
X82095Y138305D01*
X82187Y139000D01*
X82095Y139695D01*
X81827Y140343D01*
X81400Y140900D01*
X80844Y141327D01*
X80195Y141595D01*
X79500Y141687D01*
D02*
G37*
G36*
X64500D02*
X63805Y141595D01*
X63156Y141327D01*
X62600Y140900D01*
X62173Y140343D01*
X61905Y139695D01*
X61813Y139000D01*
X61905Y138305D01*
X62173Y137656D01*
X62600Y137100D01*
X63156Y136673D01*
X63805Y136405D01*
X64500Y136313D01*
X65195Y136405D01*
X65843Y136673D01*
X66400Y137100D01*
X66827Y137656D01*
X67095Y138305D01*
X67187Y139000D01*
X67095Y139695D01*
X66827Y140343D01*
X66400Y140900D01*
X65843Y141327D01*
X65195Y141595D01*
X64500Y141687D01*
D02*
G37*
G36*
X215500Y137913D02*
X214959Y137805D01*
X214501Y137499D01*
X214195Y137041D01*
X214087Y136500D01*
X214195Y135959D01*
X214501Y135501D01*
X214959Y135195D01*
X215500Y135087D01*
X216041Y135195D01*
X216499Y135501D01*
X216805Y135959D01*
X216913Y136500D01*
X216805Y137041D01*
X216499Y137499D01*
X216041Y137805D01*
X215500Y137913D01*
D02*
G37*
G36*
X212500Y135413D02*
X211959Y135305D01*
X211501Y134999D01*
X211195Y134541D01*
X211087Y134000D01*
X211195Y133459D01*
X211501Y133001D01*
X211959Y132695D01*
X212500Y132587D01*
X213041Y132695D01*
X213499Y133001D01*
X213805Y133459D01*
X213913Y134000D01*
X213805Y134541D01*
X213499Y134999D01*
X213041Y135305D01*
X212500Y135413D01*
D02*
G37*
G36*
X51000Y133913D02*
X50459Y133805D01*
X50001Y133499D01*
X49695Y133041D01*
X49587Y132500D01*
X49695Y131959D01*
X50001Y131501D01*
X50459Y131195D01*
X51000Y131087D01*
X51541Y131195D01*
X51999Y131501D01*
X52305Y131959D01*
X52413Y132500D01*
X52305Y133041D01*
X51999Y133499D01*
X51541Y133805D01*
X51000Y133913D01*
D02*
G37*
G36*
X377000Y132413D02*
X376459Y132305D01*
X376001Y131999D01*
X375695Y131541D01*
X375587Y131000D01*
X375695Y130459D01*
X376001Y130001D01*
X376459Y129695D01*
X377000Y129587D01*
X377541Y129695D01*
X377999Y130001D01*
X378305Y130459D01*
X378413Y131000D01*
X378305Y131541D01*
X377999Y131999D01*
X377541Y132305D01*
X377000Y132413D01*
D02*
G37*
G36*
X215500D02*
X214959Y132305D01*
X214501Y131999D01*
X214195Y131541D01*
X214087Y131000D01*
X214195Y130459D01*
X214501Y130001D01*
X214959Y129695D01*
X215500Y129587D01*
X216041Y129695D01*
X216499Y130001D01*
X216805Y130459D01*
X216913Y131000D01*
X216805Y131541D01*
X216499Y131999D01*
X216041Y132305D01*
X215500Y132413D01*
D02*
G37*
G36*
X212500Y129913D02*
X211959Y129805D01*
X211501Y129499D01*
X211195Y129041D01*
X211087Y128500D01*
X211195Y127959D01*
X211501Y127501D01*
X211959Y127195D01*
X212500Y127087D01*
X213041Y127195D01*
X213499Y127501D01*
X213805Y127959D01*
X213913Y128500D01*
X213805Y129041D01*
X213499Y129499D01*
X213041Y129805D01*
X212500Y129913D01*
D02*
G37*
G36*
X215500Y127413D02*
X214959Y127305D01*
X214501Y126999D01*
X214195Y126541D01*
X214087Y126000D01*
X214195Y125459D01*
X214501Y125001D01*
X214959Y124695D01*
X215500Y124587D01*
X216041Y124695D01*
X216499Y125001D01*
X216805Y125459D01*
X216913Y126000D01*
X216805Y126541D01*
X216499Y126999D01*
X216041Y127305D01*
X215500Y127413D01*
D02*
G37*
G36*
X174500Y124913D02*
X173959Y124805D01*
X173501Y124499D01*
X173195Y124041D01*
X173087Y123500D01*
X173195Y122959D01*
X173501Y122501D01*
X173959Y122195D01*
X174500Y122087D01*
X175041Y122195D01*
X175499Y122501D01*
X175805Y122959D01*
X175913Y123500D01*
X175805Y124041D01*
X175499Y124499D01*
X175041Y124805D01*
X174500Y124913D01*
D02*
G37*
G36*
X139700Y122661D02*
Y120200D01*
X142161D01*
X142095Y120695D01*
X141827Y121344D01*
X141400Y121900D01*
X140843Y122327D01*
X140195Y122595D01*
X139700Y122661D01*
D02*
G37*
G36*
X139300D02*
X138805Y122595D01*
X138156Y122327D01*
X137600Y121900D01*
X137173Y121344D01*
X136905Y120695D01*
X136839Y120200D01*
X139300D01*
Y122661D01*
D02*
G37*
G36*
X328700Y122161D02*
Y119700D01*
X331161D01*
X331095Y120195D01*
X330827Y120844D01*
X330400Y121400D01*
X329843Y121827D01*
X329195Y122095D01*
X328700Y122161D01*
D02*
G37*
G36*
X328300D02*
X327805Y122095D01*
X327156Y121827D01*
X326600Y121400D01*
X326173Y120844D01*
X325905Y120195D01*
X325839Y119700D01*
X328300D01*
Y122161D01*
D02*
G37*
G36*
X251200D02*
Y119700D01*
X253661D01*
X253595Y120195D01*
X253327Y120844D01*
X252900Y121400D01*
X252344Y121827D01*
X251695Y122095D01*
X251200Y122161D01*
D02*
G37*
G36*
X250800D02*
X250305Y122095D01*
X249657Y121827D01*
X249100Y121400D01*
X248673Y120844D01*
X248405Y120195D01*
X248339Y119700D01*
X250800D01*
Y122161D01*
D02*
G37*
G36*
X64200Y121161D02*
Y118700D01*
X66661D01*
X66595Y119195D01*
X66327Y119843D01*
X65900Y120400D01*
X65343Y120827D01*
X64695Y121095D01*
X64200Y121161D01*
D02*
G37*
G36*
X63800D02*
X63305Y121095D01*
X62656Y120827D01*
X62100Y120400D01*
X61673Y119843D01*
X61405Y119195D01*
X61339Y118700D01*
X63800D01*
Y121161D01*
D02*
G37*
G36*
X197500Y120413D02*
X196959Y120305D01*
X196501Y119999D01*
X196195Y119541D01*
X196087Y119000D01*
X196195Y118459D01*
X196501Y118001D01*
X196959Y117695D01*
X197500Y117587D01*
X198041Y117695D01*
X198499Y118001D01*
X198805Y118459D01*
X198913Y119000D01*
X198805Y119541D01*
X198499Y119999D01*
X198041Y120305D01*
X197500Y120413D01*
D02*
G37*
G36*
X154500Y122540D02*
X153528Y122347D01*
X152704Y121796D01*
X152153Y120972D01*
X151960Y120000D01*
X152153Y119028D01*
X152704Y118204D01*
X153528Y117653D01*
X154500Y117459D01*
X155472Y117653D01*
X156296Y118204D01*
X156847Y119028D01*
X157041Y120000D01*
X156847Y120972D01*
X156296Y121796D01*
X155472Y122347D01*
X154500Y122540D01*
D02*
G37*
G36*
X142161Y119800D02*
X139700D01*
Y117339D01*
X140195Y117405D01*
X140843Y117673D01*
X141400Y118100D01*
X141827Y118657D01*
X142095Y119305D01*
X142161Y119800D01*
D02*
G37*
G36*
X139300D02*
X136839D01*
X136905Y119305D01*
X137173Y118657D01*
X137600Y118100D01*
X138156Y117673D01*
X138805Y117405D01*
X139300Y117339D01*
Y119800D01*
D02*
G37*
G36*
X124500Y122687D02*
X123805Y122595D01*
X123156Y122327D01*
X122600Y121900D01*
X122173Y121344D01*
X121905Y120695D01*
X121813Y120000D01*
X121905Y119305D01*
X122173Y118657D01*
X122600Y118100D01*
X123156Y117673D01*
X123805Y117405D01*
X124500Y117313D01*
X125195Y117405D01*
X125844Y117673D01*
X126400Y118100D01*
X126827Y118657D01*
X127095Y119305D01*
X127187Y120000D01*
X127095Y120695D01*
X126827Y121344D01*
X126400Y121900D01*
X125844Y122327D01*
X125195Y122595D01*
X124500Y122687D01*
D02*
G37*
G36*
X109500D02*
X108805Y122595D01*
X108157Y122327D01*
X107600Y121900D01*
X107173Y121344D01*
X106905Y120695D01*
X106813Y120000D01*
X106905Y119305D01*
X107173Y118657D01*
X107600Y118100D01*
X108157Y117673D01*
X108805Y117405D01*
X109500Y117313D01*
X110195Y117405D01*
X110844Y117673D01*
X111400Y118100D01*
X111827Y118657D01*
X112095Y119305D01*
X112187Y120000D01*
X112095Y120695D01*
X111827Y121344D01*
X111400Y121900D01*
X110844Y122327D01*
X110195Y122595D01*
X109500Y122687D01*
D02*
G37*
G36*
X313500Y122040D02*
X312528Y121847D01*
X311704Y121296D01*
X311153Y120472D01*
X310960Y119500D01*
X311153Y118528D01*
X311704Y117704D01*
X312528Y117153D01*
X313500Y116960D01*
X314472Y117153D01*
X315296Y117704D01*
X315847Y118528D01*
X316040Y119500D01*
X315847Y120472D01*
X315296Y121296D01*
X314472Y121847D01*
X313500Y122040D01*
D02*
G37*
G36*
X236000D02*
X235028Y121847D01*
X234204Y121296D01*
X233653Y120472D01*
X233459Y119500D01*
X233653Y118528D01*
X234204Y117704D01*
X235028Y117153D01*
X236000Y116960D01*
X236972Y117153D01*
X237796Y117704D01*
X238347Y118528D01*
X238541Y119500D01*
X238347Y120472D01*
X237796Y121296D01*
X236972Y121847D01*
X236000Y122040D01*
D02*
G37*
G36*
X331161Y119300D02*
X328700D01*
Y116839D01*
X329195Y116905D01*
X329843Y117173D01*
X330400Y117600D01*
X330827Y118157D01*
X331095Y118805D01*
X331161Y119300D01*
D02*
G37*
G36*
X328300D02*
X325839D01*
X325905Y118805D01*
X326173Y118157D01*
X326600Y117600D01*
X327156Y117173D01*
X327805Y116905D01*
X328300Y116839D01*
Y119300D01*
D02*
G37*
G36*
X253661D02*
X251200D01*
Y116839D01*
X251695Y116905D01*
X252344Y117173D01*
X252900Y117600D01*
X253327Y118157D01*
X253595Y118805D01*
X253661Y119300D01*
D02*
G37*
G36*
X250800D02*
X248339D01*
X248405Y118805D01*
X248673Y118157D01*
X249100Y117600D01*
X249657Y117173D01*
X250305Y116905D01*
X250800Y116839D01*
Y119300D01*
D02*
G37*
G36*
X358500Y122187D02*
X357805Y122095D01*
X357156Y121827D01*
X356600Y121400D01*
X356173Y120844D01*
X355905Y120195D01*
X355813Y119500D01*
X355905Y118805D01*
X356173Y118157D01*
X356600Y117600D01*
X357156Y117173D01*
X357805Y116905D01*
X358500Y116813D01*
X359195Y116905D01*
X359843Y117173D01*
X360400Y117600D01*
X360827Y118157D01*
X361095Y118805D01*
X361187Y119500D01*
X361095Y120195D01*
X360827Y120844D01*
X360400Y121400D01*
X359843Y121827D01*
X359195Y122095D01*
X358500Y122187D01*
D02*
G37*
G36*
X343500D02*
X342805Y122095D01*
X342157Y121827D01*
X341600Y121400D01*
X341173Y120844D01*
X340905Y120195D01*
X340813Y119500D01*
X340905Y118805D01*
X341173Y118157D01*
X341600Y117600D01*
X342157Y117173D01*
X342805Y116905D01*
X343500Y116813D01*
X344195Y116905D01*
X344844Y117173D01*
X345400Y117600D01*
X345827Y118157D01*
X346095Y118805D01*
X346187Y119500D01*
X346095Y120195D01*
X345827Y120844D01*
X345400Y121400D01*
X344844Y121827D01*
X344195Y122095D01*
X343500Y122187D01*
D02*
G37*
G36*
X281000D02*
X280305Y122095D01*
X279657Y121827D01*
X279100Y121400D01*
X278673Y120844D01*
X278405Y120195D01*
X278313Y119500D01*
X278405Y118805D01*
X278673Y118157D01*
X279100Y117600D01*
X279657Y117173D01*
X280305Y116905D01*
X281000Y116813D01*
X281695Y116905D01*
X282344Y117173D01*
X282900Y117600D01*
X283327Y118157D01*
X283595Y118805D01*
X283687Y119500D01*
X283595Y120195D01*
X283327Y120844D01*
X282900Y121400D01*
X282344Y121827D01*
X281695Y122095D01*
X281000Y122187D01*
D02*
G37*
G36*
X266000D02*
X265305Y122095D01*
X264656Y121827D01*
X264100Y121400D01*
X263673Y120844D01*
X263405Y120195D01*
X263313Y119500D01*
X263405Y118805D01*
X263673Y118157D01*
X264100Y117600D01*
X264656Y117173D01*
X265305Y116905D01*
X266000Y116813D01*
X266695Y116905D01*
X267343Y117173D01*
X267900Y117600D01*
X268327Y118157D01*
X268595Y118805D01*
X268687Y119500D01*
X268595Y120195D01*
X268327Y120844D01*
X267900Y121400D01*
X267343Y121827D01*
X266695Y122095D01*
X266000Y122187D01*
D02*
G37*
G36*
X79000Y121040D02*
X78028Y120847D01*
X77204Y120296D01*
X76653Y119472D01*
X76459Y118500D01*
X76653Y117528D01*
X77204Y116704D01*
X78028Y116153D01*
X79000Y115960D01*
X79972Y116153D01*
X80796Y116704D01*
X81347Y117528D01*
X81541Y118500D01*
X81347Y119472D01*
X80796Y120296D01*
X79972Y120847D01*
X79000Y121040D01*
D02*
G37*
G36*
X66661Y118300D02*
X64200D01*
Y115839D01*
X64695Y115905D01*
X65343Y116173D01*
X65900Y116600D01*
X66327Y117157D01*
X66595Y117805D01*
X66661Y118300D01*
D02*
G37*
G36*
X63800D02*
X61339D01*
X61405Y117805D01*
X61673Y117157D01*
X62100Y116600D01*
X62656Y116173D01*
X63305Y115905D01*
X63800Y115839D01*
Y118300D01*
D02*
G37*
G36*
X49000Y121187D02*
X48305Y121095D01*
X47657Y120827D01*
X47100Y120400D01*
X46673Y119843D01*
X46405Y119195D01*
X46313Y118500D01*
X46405Y117805D01*
X46673Y117157D01*
X47100Y116600D01*
X47657Y116173D01*
X48305Y115905D01*
X49000Y115813D01*
X49695Y115905D01*
X50344Y116173D01*
X50900Y116600D01*
X51327Y117157D01*
X51595Y117805D01*
X51687Y118500D01*
X51595Y119195D01*
X51327Y119843D01*
X50900Y120400D01*
X50344Y120827D01*
X49695Y121095D01*
X49000Y121187D01*
D02*
G37*
G36*
X34000D02*
X33305Y121095D01*
X32656Y120827D01*
X32100Y120400D01*
X31673Y119843D01*
X31405Y119195D01*
X31313Y118500D01*
X31405Y117805D01*
X31673Y117157D01*
X32100Y116600D01*
X32656Y116173D01*
X33305Y115905D01*
X34000Y115813D01*
X34695Y115905D01*
X35344Y116173D01*
X35900Y116600D01*
X36327Y117157D01*
X36595Y117805D01*
X36687Y118500D01*
X36595Y119195D01*
X36327Y119843D01*
X35900Y120400D01*
X35344Y120827D01*
X34695Y121095D01*
X34000Y121187D01*
D02*
G37*
G36*
X184929Y116842D02*
X184388Y116735D01*
X183930Y116428D01*
X183624Y115970D01*
X183516Y115429D01*
X183624Y114888D01*
X183930Y114430D01*
X184388Y114124D01*
X184929Y114016D01*
X185470Y114124D01*
X185928Y114430D01*
X186234Y114888D01*
X186342Y115429D01*
X186234Y115970D01*
X185928Y116428D01*
X185470Y116735D01*
X184929Y116842D01*
D02*
G37*
G36*
X91500Y111913D02*
X90959Y111805D01*
X90501Y111499D01*
X90195Y111041D01*
X90087Y110500D01*
X90195Y109959D01*
X90501Y109501D01*
X90959Y109195D01*
X91500Y109087D01*
X92041Y109195D01*
X92499Y109501D01*
X92805Y109959D01*
X92913Y110500D01*
X92805Y111041D01*
X92499Y111499D01*
X92041Y111805D01*
X91500Y111913D01*
D02*
G37*
G36*
X376500Y110913D02*
X375959Y110805D01*
X375501Y110499D01*
X375195Y110041D01*
X375087Y109500D01*
X375195Y108959D01*
X375501Y108501D01*
X375959Y108195D01*
X376500Y108087D01*
X377041Y108195D01*
X377499Y108501D01*
X377805Y108959D01*
X377913Y109500D01*
X377805Y110041D01*
X377499Y110499D01*
X377041Y110805D01*
X376500Y110913D01*
D02*
G37*
G36*
X18000Y109413D02*
X17459Y109305D01*
X17001Y108999D01*
X16695Y108541D01*
X16587Y108000D01*
X16695Y107459D01*
X17001Y107001D01*
X17459Y106695D01*
X18000Y106587D01*
X18541Y106695D01*
X18999Y107001D01*
X19305Y107459D01*
X19413Y108000D01*
X19305Y108541D01*
X18999Y108999D01*
X18541Y109305D01*
X18000Y109413D01*
D02*
G37*
G36*
X211500Y108413D02*
X210959Y108305D01*
X210501Y107999D01*
X210195Y107541D01*
X210087Y107000D01*
X210195Y106459D01*
X210501Y106001D01*
X210959Y105695D01*
X211500Y105587D01*
X212041Y105695D01*
X212499Y106001D01*
X212805Y106459D01*
X212913Y107000D01*
X212805Y107541D01*
X212499Y107999D01*
X212041Y108305D01*
X211500Y108413D01*
D02*
G37*
G36*
X171000Y105913D02*
X170459Y105805D01*
X170001Y105499D01*
X169695Y105041D01*
X169587Y104500D01*
X169695Y103959D01*
X170001Y103501D01*
X170459Y103195D01*
X171000Y103087D01*
X171541Y103195D01*
X171999Y103501D01*
X172305Y103959D01*
X172413Y104500D01*
X172305Y105041D01*
X171999Y105499D01*
X171541Y105805D01*
X171000Y105913D01*
D02*
G37*
G36*
X174000Y103413D02*
X173459Y103305D01*
X173001Y102999D01*
X172695Y102541D01*
X172587Y102000D01*
X172695Y101459D01*
X173001Y101001D01*
X173459Y100695D01*
X174000Y100587D01*
X174541Y100695D01*
X174999Y101001D01*
X175305Y101459D01*
X175413Y102000D01*
X175305Y102541D01*
X174999Y102999D01*
X174541Y103305D01*
X174000Y103413D01*
D02*
G37*
G36*
X138700Y102661D02*
Y100200D01*
X141161D01*
X141095Y100695D01*
X140827Y101344D01*
X140400Y101900D01*
X139843Y102327D01*
X139195Y102595D01*
X138700Y102661D01*
D02*
G37*
G36*
X138300D02*
X137805Y102595D01*
X137156Y102327D01*
X136600Y101900D01*
X136173Y101344D01*
X135905Y100695D01*
X135839Y100200D01*
X138300D01*
Y102661D01*
D02*
G37*
G36*
X328700Y102161D02*
Y99700D01*
X331161D01*
X331095Y100195D01*
X330827Y100844D01*
X330400Y101400D01*
X329843Y101827D01*
X329195Y102095D01*
X328700Y102161D01*
D02*
G37*
G36*
X328300D02*
X327805Y102095D01*
X327156Y101827D01*
X326600Y101400D01*
X326173Y100844D01*
X325905Y100195D01*
X325839Y99700D01*
X328300D01*
Y102161D01*
D02*
G37*
G36*
X251200D02*
Y99700D01*
X253661D01*
X253595Y100195D01*
X253327Y100844D01*
X252900Y101400D01*
X252344Y101827D01*
X251695Y102095D01*
X251200Y102161D01*
D02*
G37*
G36*
X250800D02*
X250305Y102095D01*
X249657Y101827D01*
X249100Y101400D01*
X248673Y100844D01*
X248405Y100195D01*
X248339Y99700D01*
X250800D01*
Y102161D01*
D02*
G37*
G36*
X64200Y101259D02*
Y98799D01*
X66661D01*
X66595Y99294D01*
X66327Y99942D01*
X65900Y100498D01*
X65343Y100926D01*
X64695Y101194D01*
X64200Y101259D01*
D02*
G37*
G36*
X63800D02*
X63305Y101194D01*
X62656Y100926D01*
X62100Y100498D01*
X61673Y99942D01*
X61405Y99294D01*
X61339Y98799D01*
X63800D01*
Y101259D01*
D02*
G37*
G36*
X171000Y100413D02*
X170459Y100305D01*
X170001Y99999D01*
X169695Y99541D01*
X169587Y99000D01*
X169695Y98459D01*
X170001Y98001D01*
X170459Y97695D01*
X171000Y97587D01*
X171541Y97695D01*
X171999Y98001D01*
X172305Y98459D01*
X172413Y99000D01*
X172305Y99541D01*
X171999Y99999D01*
X171541Y100305D01*
X171000Y100413D01*
D02*
G37*
G36*
X153500Y102541D02*
X152528Y102347D01*
X151704Y101796D01*
X151153Y100972D01*
X150960Y100000D01*
X151153Y99028D01*
X151704Y98204D01*
X152528Y97653D01*
X153500Y97460D01*
X154472Y97653D01*
X155296Y98204D01*
X155847Y99028D01*
X156041Y100000D01*
X155847Y100972D01*
X155296Y101796D01*
X154472Y102347D01*
X153500Y102541D01*
D02*
G37*
G36*
X141161Y99800D02*
X138700D01*
Y97339D01*
X139195Y97405D01*
X139843Y97673D01*
X140400Y98100D01*
X140827Y98656D01*
X141095Y99305D01*
X141161Y99800D01*
D02*
G37*
G36*
X138300D02*
X135839D01*
X135905Y99305D01*
X136173Y98656D01*
X136600Y98100D01*
X137156Y97673D01*
X137805Y97405D01*
X138300Y97339D01*
Y99800D01*
D02*
G37*
G36*
X123500Y102687D02*
X122805Y102595D01*
X122157Y102327D01*
X121600Y101900D01*
X121173Y101344D01*
X120905Y100695D01*
X120813Y100000D01*
X120905Y99305D01*
X121173Y98656D01*
X121600Y98100D01*
X122157Y97673D01*
X122805Y97405D01*
X123500Y97313D01*
X124195Y97405D01*
X124844Y97673D01*
X125400Y98100D01*
X125827Y98656D01*
X126095Y99305D01*
X126187Y100000D01*
X126095Y100695D01*
X125827Y101344D01*
X125400Y101900D01*
X124844Y102327D01*
X124195Y102595D01*
X123500Y102687D01*
D02*
G37*
G36*
X108500D02*
X107805Y102595D01*
X107157Y102327D01*
X106600Y101900D01*
X106173Y101344D01*
X105905Y100695D01*
X105813Y100000D01*
X105905Y99305D01*
X106173Y98656D01*
X106600Y98100D01*
X107157Y97673D01*
X107805Y97405D01*
X108500Y97313D01*
X109195Y97405D01*
X109844Y97673D01*
X110400Y98100D01*
X110827Y98656D01*
X111095Y99305D01*
X111187Y100000D01*
X111095Y100695D01*
X110827Y101344D01*
X110400Y101900D01*
X109844Y102327D01*
X109195Y102595D01*
X108500Y102687D01*
D02*
G37*
G36*
X313500Y102041D02*
X312528Y101847D01*
X311704Y101296D01*
X311153Y100472D01*
X310960Y99500D01*
X311153Y98528D01*
X311704Y97704D01*
X312528Y97153D01*
X313500Y96960D01*
X314472Y97153D01*
X315296Y97704D01*
X315847Y98528D01*
X316040Y99500D01*
X315847Y100472D01*
X315296Y101296D01*
X314472Y101847D01*
X313500Y102041D01*
D02*
G37*
G36*
X236000D02*
X235028Y101847D01*
X234204Y101296D01*
X233653Y100472D01*
X233459Y99500D01*
X233653Y98528D01*
X234204Y97704D01*
X235028Y97153D01*
X236000Y96960D01*
X236972Y97153D01*
X237796Y97704D01*
X238347Y98528D01*
X238541Y99500D01*
X238347Y100472D01*
X237796Y101296D01*
X236972Y101847D01*
X236000Y102041D01*
D02*
G37*
G36*
X331161Y99300D02*
X328700D01*
Y96839D01*
X329195Y96905D01*
X329843Y97173D01*
X330400Y97600D01*
X330827Y98156D01*
X331095Y98805D01*
X331161Y99300D01*
D02*
G37*
G36*
X328300D02*
X325839D01*
X325905Y98805D01*
X326173Y98156D01*
X326600Y97600D01*
X327156Y97173D01*
X327805Y96905D01*
X328300Y96839D01*
Y99300D01*
D02*
G37*
G36*
X253661D02*
X251200D01*
Y96839D01*
X251695Y96905D01*
X252344Y97173D01*
X252900Y97600D01*
X253327Y98156D01*
X253595Y98805D01*
X253661Y99300D01*
D02*
G37*
G36*
X250800D02*
X248339D01*
X248405Y98805D01*
X248673Y98156D01*
X249100Y97600D01*
X249657Y97173D01*
X250305Y96905D01*
X250800Y96839D01*
Y99300D01*
D02*
G37*
G36*
X358500Y102187D02*
X357805Y102095D01*
X357156Y101827D01*
X356600Y101400D01*
X356173Y100844D01*
X355905Y100195D01*
X355813Y99500D01*
X355905Y98805D01*
X356173Y98156D01*
X356600Y97600D01*
X357156Y97173D01*
X357805Y96905D01*
X358500Y96813D01*
X359195Y96905D01*
X359843Y97173D01*
X360400Y97600D01*
X360827Y98156D01*
X361095Y98805D01*
X361187Y99500D01*
X361095Y100195D01*
X360827Y100844D01*
X360400Y101400D01*
X359843Y101827D01*
X359195Y102095D01*
X358500Y102187D01*
D02*
G37*
G36*
X343500D02*
X342805Y102095D01*
X342157Y101827D01*
X341600Y101400D01*
X341173Y100844D01*
X340905Y100195D01*
X340813Y99500D01*
X340905Y98805D01*
X341173Y98156D01*
X341600Y97600D01*
X342157Y97173D01*
X342805Y96905D01*
X343500Y96813D01*
X344195Y96905D01*
X344844Y97173D01*
X345400Y97600D01*
X345827Y98156D01*
X346095Y98805D01*
X346187Y99500D01*
X346095Y100195D01*
X345827Y100844D01*
X345400Y101400D01*
X344844Y101827D01*
X344195Y102095D01*
X343500Y102187D01*
D02*
G37*
G36*
X281000D02*
X280305Y102095D01*
X279657Y101827D01*
X279100Y101400D01*
X278673Y100844D01*
X278405Y100195D01*
X278313Y99500D01*
X278405Y98805D01*
X278673Y98156D01*
X279100Y97600D01*
X279657Y97173D01*
X280305Y96905D01*
X281000Y96813D01*
X281695Y96905D01*
X282344Y97173D01*
X282900Y97600D01*
X283327Y98156D01*
X283595Y98805D01*
X283687Y99500D01*
X283595Y100195D01*
X283327Y100844D01*
X282900Y101400D01*
X282344Y101827D01*
X281695Y102095D01*
X281000Y102187D01*
D02*
G37*
G36*
X266000D02*
X265305Y102095D01*
X264656Y101827D01*
X264100Y101400D01*
X263673Y100844D01*
X263405Y100195D01*
X263313Y99500D01*
X263405Y98805D01*
X263673Y98156D01*
X264100Y97600D01*
X264656Y97173D01*
X265305Y96905D01*
X266000Y96813D01*
X266695Y96905D01*
X267343Y97173D01*
X267900Y97600D01*
X268327Y98156D01*
X268595Y98805D01*
X268687Y99500D01*
X268595Y100195D01*
X268327Y100844D01*
X267900Y101400D01*
X267343Y101827D01*
X266695Y102095D01*
X266000Y102187D01*
D02*
G37*
G36*
X79000Y101139D02*
X78028Y100946D01*
X77204Y100395D01*
X76653Y99571D01*
X76459Y98598D01*
X76653Y97626D01*
X77204Y96802D01*
X78028Y96251D01*
X79000Y96058D01*
X79972Y96251D01*
X80796Y96802D01*
X81347Y97626D01*
X81541Y98598D01*
X81347Y99571D01*
X80796Y100395D01*
X79972Y100946D01*
X79000Y101139D01*
D02*
G37*
G36*
X66661Y98399D02*
X64200D01*
Y95938D01*
X64695Y96003D01*
X65343Y96272D01*
X65900Y96698D01*
X66327Y97255D01*
X66595Y97903D01*
X66661Y98399D01*
D02*
G37*
G36*
X63800D02*
X61339D01*
X61405Y97903D01*
X61673Y97255D01*
X62100Y96698D01*
X62656Y96272D01*
X63305Y96003D01*
X63800Y95938D01*
Y98399D01*
D02*
G37*
G36*
X49000Y101286D02*
X48305Y101194D01*
X47657Y100926D01*
X47100Y100498D01*
X46673Y99942D01*
X46405Y99294D01*
X46313Y98598D01*
X46405Y97903D01*
X46673Y97255D01*
X47100Y96698D01*
X47657Y96272D01*
X48305Y96003D01*
X49000Y95912D01*
X49695Y96003D01*
X50344Y96272D01*
X50900Y96698D01*
X51327Y97255D01*
X51595Y97903D01*
X51687Y98598D01*
X51595Y99294D01*
X51327Y99942D01*
X50900Y100498D01*
X50344Y100926D01*
X49695Y101194D01*
X49000Y101286D01*
D02*
G37*
G36*
X34000D02*
X33305Y101194D01*
X32656Y100926D01*
X32100Y100498D01*
X31673Y99942D01*
X31405Y99294D01*
X31313Y98598D01*
X31405Y97903D01*
X31673Y97255D01*
X32100Y96698D01*
X32656Y96272D01*
X33305Y96003D01*
X34000Y95912D01*
X34695Y96003D01*
X35344Y96272D01*
X35900Y96698D01*
X36327Y97255D01*
X36595Y97903D01*
X36687Y98598D01*
X36595Y99294D01*
X36327Y99942D01*
X35900Y100498D01*
X35344Y100926D01*
X34695Y101194D01*
X34000Y101286D01*
D02*
G37*
G36*
X174000Y97913D02*
X173459Y97805D01*
X173001Y97499D01*
X172695Y97041D01*
X172587Y96500D01*
X172695Y95959D01*
X173001Y95501D01*
X173459Y95195D01*
X174000Y95087D01*
X174541Y95195D01*
X174999Y95501D01*
X175305Y95959D01*
X175413Y96500D01*
X175305Y97041D01*
X174999Y97499D01*
X174541Y97805D01*
X174000Y97913D01*
D02*
G37*
G36*
X171500Y95413D02*
X170959Y95305D01*
X170501Y94999D01*
X170195Y94541D01*
X170087Y94000D01*
X170195Y93459D01*
X170501Y93001D01*
X170959Y92695D01*
X171500Y92587D01*
X172041Y92695D01*
X172499Y93001D01*
X172805Y93459D01*
X172913Y94000D01*
X172805Y94541D01*
X172499Y94999D01*
X172041Y95305D01*
X171500Y95413D01*
D02*
G37*
G36*
X174000Y92913D02*
X173459Y92805D01*
X173001Y92499D01*
X172695Y92041D01*
X172587Y91500D01*
X172695Y90959D01*
X172882Y90679D01*
X172569Y90336D01*
X172529Y90308D01*
X172000Y90413D01*
X171459Y90305D01*
X171001Y89999D01*
X170695Y89541D01*
X170587Y89000D01*
X170695Y88459D01*
X171001Y88001D01*
X171459Y87695D01*
X172000Y87587D01*
X172541Y87695D01*
X172999Y88001D01*
X173305Y88459D01*
X173413Y89000D01*
X173305Y89541D01*
X173118Y89821D01*
X173431Y90164D01*
X173471Y90192D01*
X174000Y90087D01*
X174541Y90195D01*
X174999Y90501D01*
X175305Y90959D01*
X175413Y91500D01*
X175305Y92041D01*
X174999Y92499D01*
X174541Y92805D01*
X174000Y92913D01*
D02*
G37*
G36*
X376500Y90913D02*
X375959Y90805D01*
X375501Y90499D01*
X375195Y90041D01*
X375087Y89500D01*
X375195Y88959D01*
X375501Y88501D01*
X375959Y88195D01*
X376500Y88087D01*
X377041Y88195D01*
X377499Y88501D01*
X377805Y88959D01*
X377913Y89500D01*
X377805Y90041D01*
X377499Y90499D01*
X377041Y90805D01*
X376500Y90913D01*
D02*
G37*
G36*
X92000D02*
X91459Y90805D01*
X91001Y90499D01*
X90695Y90041D01*
X90587Y89500D01*
X90695Y88959D01*
X91001Y88501D01*
X91459Y88195D01*
X92000Y88087D01*
X92541Y88195D01*
X92999Y88501D01*
X93305Y88959D01*
X93413Y89500D01*
X93305Y90041D01*
X92999Y90499D01*
X92541Y90805D01*
X92000Y90913D01*
D02*
G37*
G36*
X17500Y88413D02*
X16959Y88305D01*
X16501Y87999D01*
X16195Y87541D01*
X16087Y87000D01*
X16195Y86459D01*
X16501Y86001D01*
X16959Y85695D01*
X17500Y85587D01*
X18041Y85695D01*
X18499Y86001D01*
X18805Y86459D01*
X18913Y87000D01*
X18805Y87541D01*
X18499Y87999D01*
X18041Y88305D01*
X17500Y88413D01*
D02*
G37*
G36*
X139200Y82661D02*
Y80200D01*
X141661D01*
X141595Y80695D01*
X141327Y81344D01*
X140900Y81900D01*
X140343Y82327D01*
X139695Y82595D01*
X139200Y82661D01*
D02*
G37*
G36*
X138800D02*
X138305Y82595D01*
X137656Y82327D01*
X137100Y81900D01*
X136673Y81344D01*
X136405Y80695D01*
X136339Y80200D01*
X138800D01*
Y82661D01*
D02*
G37*
G36*
X328700Y82161D02*
Y79700D01*
X331161D01*
X331095Y80195D01*
X330827Y80844D01*
X330400Y81400D01*
X329843Y81827D01*
X329195Y82095D01*
X328700Y82161D01*
D02*
G37*
G36*
X328300D02*
X327805Y82095D01*
X327156Y81827D01*
X326600Y81400D01*
X326173Y80844D01*
X325905Y80195D01*
X325839Y79700D01*
X328300D01*
Y82161D01*
D02*
G37*
G36*
X251200D02*
Y79700D01*
X253661D01*
X253595Y80195D01*
X253327Y80844D01*
X252900Y81400D01*
X252344Y81827D01*
X251695Y82095D01*
X251200Y82161D01*
D02*
G37*
G36*
X250800D02*
X250305Y82095D01*
X249657Y81827D01*
X249100Y81400D01*
X248673Y80844D01*
X248405Y80195D01*
X248339Y79700D01*
X250800D01*
Y82161D01*
D02*
G37*
G36*
X64200Y80661D02*
Y78200D01*
X66661D01*
X66595Y78695D01*
X66327Y79343D01*
X65900Y79900D01*
X65343Y80327D01*
X64695Y80595D01*
X64200Y80661D01*
D02*
G37*
G36*
X63800D02*
X63305Y80595D01*
X62656Y80327D01*
X62100Y79900D01*
X61673Y79343D01*
X61405Y78695D01*
X61339Y78200D01*
X63800D01*
Y80661D01*
D02*
G37*
G36*
X154000Y82541D02*
X153028Y82347D01*
X152204Y81796D01*
X151653Y80972D01*
X151460Y80000D01*
X151653Y79028D01*
X152204Y78204D01*
X153028Y77653D01*
X154000Y77460D01*
X154972Y77653D01*
X155796Y78204D01*
X156347Y79028D01*
X156541Y80000D01*
X156347Y80972D01*
X155796Y81796D01*
X154972Y82347D01*
X154000Y82541D01*
D02*
G37*
G36*
X141661Y79800D02*
X139200D01*
Y77339D01*
X139695Y77405D01*
X140343Y77673D01*
X140900Y78100D01*
X141327Y78657D01*
X141595Y79305D01*
X141661Y79800D01*
D02*
G37*
G36*
X138800D02*
X136339D01*
X136405Y79305D01*
X136673Y78657D01*
X137100Y78100D01*
X137656Y77673D01*
X138305Y77405D01*
X138800Y77339D01*
Y79800D01*
D02*
G37*
G36*
X124000Y82687D02*
X123305Y82595D01*
X122657Y82327D01*
X122100Y81900D01*
X121673Y81344D01*
X121405Y80695D01*
X121313Y80000D01*
X121405Y79305D01*
X121673Y78657D01*
X122100Y78100D01*
X122657Y77673D01*
X123305Y77405D01*
X124000Y77313D01*
X124695Y77405D01*
X125344Y77673D01*
X125900Y78100D01*
X126327Y78657D01*
X126595Y79305D01*
X126687Y80000D01*
X126595Y80695D01*
X126327Y81344D01*
X125900Y81900D01*
X125344Y82327D01*
X124695Y82595D01*
X124000Y82687D01*
D02*
G37*
G36*
X109000D02*
X108305Y82595D01*
X107657Y82327D01*
X107100Y81900D01*
X106673Y81344D01*
X106405Y80695D01*
X106313Y80000D01*
X106405Y79305D01*
X106673Y78657D01*
X107100Y78100D01*
X107657Y77673D01*
X108305Y77405D01*
X109000Y77313D01*
X109695Y77405D01*
X110344Y77673D01*
X110900Y78100D01*
X111327Y78657D01*
X111595Y79305D01*
X111687Y80000D01*
X111595Y80695D01*
X111327Y81344D01*
X110900Y81900D01*
X110344Y82327D01*
X109695Y82595D01*
X109000Y82687D01*
D02*
G37*
G36*
X313500Y82041D02*
X312528Y81847D01*
X311704Y81296D01*
X311153Y80472D01*
X310960Y79500D01*
X311153Y78528D01*
X311704Y77704D01*
X312528Y77153D01*
X313500Y76960D01*
X314472Y77153D01*
X315296Y77704D01*
X315847Y78528D01*
X316040Y79500D01*
X315847Y80472D01*
X315296Y81296D01*
X314472Y81847D01*
X313500Y82041D01*
D02*
G37*
G36*
X236000D02*
X235028Y81847D01*
X234204Y81296D01*
X233653Y80472D01*
X233459Y79500D01*
X233653Y78528D01*
X234204Y77704D01*
X235028Y77153D01*
X236000Y76960D01*
X236972Y77153D01*
X237796Y77704D01*
X238347Y78528D01*
X238541Y79500D01*
X238347Y80472D01*
X237796Y81296D01*
X236972Y81847D01*
X236000Y82041D01*
D02*
G37*
G36*
X331161Y79300D02*
X328700D01*
Y76839D01*
X329195Y76905D01*
X329843Y77173D01*
X330400Y77600D01*
X330827Y78157D01*
X331095Y78805D01*
X331161Y79300D01*
D02*
G37*
G36*
X328300D02*
X325839D01*
X325905Y78805D01*
X326173Y78157D01*
X326600Y77600D01*
X327156Y77173D01*
X327805Y76905D01*
X328300Y76839D01*
Y79300D01*
D02*
G37*
G36*
X253661D02*
X251200D01*
Y76839D01*
X251695Y76905D01*
X252344Y77173D01*
X252900Y77600D01*
X253327Y78157D01*
X253595Y78805D01*
X253661Y79300D01*
D02*
G37*
G36*
X250800D02*
X248339D01*
X248405Y78805D01*
X248673Y78157D01*
X249100Y77600D01*
X249657Y77173D01*
X250305Y76905D01*
X250800Y76839D01*
Y79300D01*
D02*
G37*
G36*
X358500Y82187D02*
X357805Y82095D01*
X357156Y81827D01*
X356600Y81400D01*
X356173Y80844D01*
X355905Y80195D01*
X355813Y79500D01*
X355905Y78805D01*
X356173Y78157D01*
X356600Y77600D01*
X357156Y77173D01*
X357805Y76905D01*
X358500Y76813D01*
X359195Y76905D01*
X359843Y77173D01*
X360400Y77600D01*
X360827Y78157D01*
X361095Y78805D01*
X361187Y79500D01*
X361095Y80195D01*
X360827Y80844D01*
X360400Y81400D01*
X359843Y81827D01*
X359195Y82095D01*
X358500Y82187D01*
D02*
G37*
G36*
X343500D02*
X342805Y82095D01*
X342157Y81827D01*
X341600Y81400D01*
X341173Y80844D01*
X340905Y80195D01*
X340813Y79500D01*
X340905Y78805D01*
X341173Y78157D01*
X341600Y77600D01*
X342157Y77173D01*
X342805Y76905D01*
X343500Y76813D01*
X344195Y76905D01*
X344844Y77173D01*
X345400Y77600D01*
X345827Y78157D01*
X346095Y78805D01*
X346187Y79500D01*
X346095Y80195D01*
X345827Y80844D01*
X345400Y81400D01*
X344844Y81827D01*
X344195Y82095D01*
X343500Y82187D01*
D02*
G37*
G36*
X281000D02*
X280305Y82095D01*
X279657Y81827D01*
X279100Y81400D01*
X278673Y80844D01*
X278405Y80195D01*
X278313Y79500D01*
X278405Y78805D01*
X278673Y78157D01*
X279100Y77600D01*
X279657Y77173D01*
X280305Y76905D01*
X281000Y76813D01*
X281695Y76905D01*
X282344Y77173D01*
X282900Y77600D01*
X283327Y78157D01*
X283595Y78805D01*
X283687Y79500D01*
X283595Y80195D01*
X283327Y80844D01*
X282900Y81400D01*
X282344Y81827D01*
X281695Y82095D01*
X281000Y82187D01*
D02*
G37*
G36*
X266000D02*
X265305Y82095D01*
X264656Y81827D01*
X264100Y81400D01*
X263673Y80844D01*
X263405Y80195D01*
X263313Y79500D01*
X263405Y78805D01*
X263673Y78157D01*
X264100Y77600D01*
X264656Y77173D01*
X265305Y76905D01*
X266000Y76813D01*
X266695Y76905D01*
X267343Y77173D01*
X267900Y77600D01*
X268327Y78157D01*
X268595Y78805D01*
X268687Y79500D01*
X268595Y80195D01*
X268327Y80844D01*
X267900Y81400D01*
X267343Y81827D01*
X266695Y82095D01*
X266000Y82187D01*
D02*
G37*
G36*
X79000Y80541D02*
X78028Y80347D01*
X77204Y79796D01*
X76653Y78972D01*
X76459Y78000D01*
X76653Y77028D01*
X77204Y76204D01*
X78028Y75653D01*
X79000Y75459D01*
X79972Y75653D01*
X80796Y76204D01*
X81347Y77028D01*
X81541Y78000D01*
X81347Y78972D01*
X80796Y79796D01*
X79972Y80347D01*
X79000Y80541D01*
D02*
G37*
G36*
X66661Y77800D02*
X64200D01*
Y75339D01*
X64695Y75405D01*
X65343Y75673D01*
X65900Y76100D01*
X66327Y76657D01*
X66595Y77305D01*
X66661Y77800D01*
D02*
G37*
G36*
X63800D02*
X61339D01*
X61405Y77305D01*
X61673Y76657D01*
X62100Y76100D01*
X62656Y75673D01*
X63305Y75405D01*
X63800Y75339D01*
Y77800D01*
D02*
G37*
G36*
X49000Y80687D02*
X48305Y80595D01*
X47657Y80327D01*
X47100Y79900D01*
X46673Y79343D01*
X46405Y78695D01*
X46313Y78000D01*
X46405Y77305D01*
X46673Y76657D01*
X47100Y76100D01*
X47657Y75673D01*
X48305Y75405D01*
X49000Y75313D01*
X49695Y75405D01*
X50344Y75673D01*
X50900Y76100D01*
X51327Y76657D01*
X51595Y77305D01*
X51687Y78000D01*
X51595Y78695D01*
X51327Y79343D01*
X50900Y79900D01*
X50344Y80327D01*
X49695Y80595D01*
X49000Y80687D01*
D02*
G37*
G36*
X34000D02*
X33305Y80595D01*
X32656Y80327D01*
X32100Y79900D01*
X31673Y79343D01*
X31405Y78695D01*
X31313Y78000D01*
X31405Y77305D01*
X31673Y76657D01*
X32100Y76100D01*
X32656Y75673D01*
X33305Y75405D01*
X34000Y75313D01*
X34695Y75405D01*
X35344Y75673D01*
X35900Y76100D01*
X36327Y76657D01*
X36595Y77305D01*
X36687Y78000D01*
X36595Y78695D01*
X36327Y79343D01*
X35900Y79900D01*
X35344Y80327D01*
X34695Y80595D01*
X34000Y80687D01*
D02*
G37*
G36*
X254000Y70913D02*
X253459Y70805D01*
X253001Y70499D01*
X252778Y70165D01*
X252663Y70135D01*
X252337D01*
X252222Y70165D01*
X251999Y70499D01*
X251541Y70805D01*
X251000Y70913D01*
X250459Y70805D01*
X250001Y70499D01*
X249778Y70165D01*
X249663Y70135D01*
X249337D01*
X249222Y70165D01*
X248999Y70499D01*
X248541Y70805D01*
X248000Y70913D01*
X247459Y70805D01*
X247001Y70499D01*
X246778Y70165D01*
X246663Y70135D01*
X246337D01*
X246222Y70165D01*
X245999Y70499D01*
X245541Y70805D01*
X245000Y70913D01*
X244459Y70805D01*
X244001Y70499D01*
X243778Y70165D01*
X243663Y70135D01*
X243337D01*
X243222Y70165D01*
X242999Y70499D01*
X242541Y70805D01*
X242000Y70913D01*
X241459Y70805D01*
X241001Y70499D01*
X240778Y70165D01*
X240663Y70135D01*
X240337D01*
X240222Y70165D01*
X239999Y70499D01*
X239541Y70805D01*
X239000Y70913D01*
X238459Y70805D01*
X238001Y70499D01*
X237695Y70041D01*
X237587Y69500D01*
X237695Y68959D01*
X238001Y68501D01*
X238459Y68195D01*
X239000Y68087D01*
X239541Y68195D01*
X239999Y68501D01*
X240222Y68835D01*
X240337Y68865D01*
X240663D01*
X240778Y68835D01*
X241001Y68501D01*
X241459Y68195D01*
X242000Y68087D01*
X242541Y68195D01*
X242999Y68501D01*
X243222Y68835D01*
X243337Y68865D01*
X243663D01*
X243778Y68835D01*
X244001Y68501D01*
X244459Y68195D01*
X245000Y68087D01*
X245541Y68195D01*
X245999Y68501D01*
X246222Y68835D01*
X246337Y68865D01*
X246663D01*
X246778Y68835D01*
X247001Y68501D01*
X247459Y68195D01*
X248000Y68087D01*
X248541Y68195D01*
X248999Y68501D01*
X249222Y68835D01*
X249337Y68865D01*
X249663D01*
X249778Y68835D01*
X250001Y68501D01*
X250459Y68195D01*
X251000Y68087D01*
X251541Y68195D01*
X251999Y68501D01*
X252222Y68835D01*
X252337Y68865D01*
X252663D01*
X252778Y68835D01*
X253001Y68501D01*
X253459Y68195D01*
X254000Y68087D01*
X254541Y68195D01*
X254999Y68501D01*
X255305Y68959D01*
X255413Y69500D01*
X255305Y70041D01*
X254999Y70499D01*
X254541Y70805D01*
X254000Y70913D01*
D02*
G37*
G36*
X91500Y71913D02*
X90959Y71805D01*
X90501Y71499D01*
X90195Y71041D01*
X90087Y70500D01*
X90195Y69959D01*
X90501Y69501D01*
X90959Y69195D01*
X91500Y69087D01*
X92041Y69195D01*
X92499Y69501D01*
X92805Y69959D01*
X92913Y70500D01*
X92805Y71041D01*
X92499Y71499D01*
X92041Y71805D01*
X91500Y71913D01*
D02*
G37*
G36*
X375500Y70413D02*
X374959Y70305D01*
X374501Y69999D01*
X374195Y69541D01*
X374087Y69000D01*
X374195Y68459D01*
X374501Y68001D01*
X374959Y67695D01*
X375500Y67587D01*
X376041Y67695D01*
X376499Y68001D01*
X376805Y68459D01*
X376913Y69000D01*
X376805Y69541D01*
X376499Y69999D01*
X376041Y70305D01*
X375500Y70413D01*
D02*
G37*
G36*
X15055Y68967D02*
X14514Y68860D01*
X14055Y68554D01*
X13749Y68095D01*
X13642Y67555D01*
X13749Y67014D01*
X14055Y66555D01*
X14514Y66249D01*
X15055Y66142D01*
X15595Y66249D01*
X16054Y66555D01*
X16360Y67014D01*
X16467Y67555D01*
X16360Y68095D01*
X16054Y68554D01*
X15595Y68860D01*
X15055Y68967D01*
D02*
G37*
G36*
X139200Y62661D02*
Y60200D01*
X141661D01*
X141595Y60695D01*
X141327Y61343D01*
X140900Y61900D01*
X140343Y62327D01*
X139695Y62595D01*
X139200Y62661D01*
D02*
G37*
G36*
X138800D02*
X138305Y62595D01*
X137656Y62327D01*
X137100Y61900D01*
X136673Y61343D01*
X136405Y60695D01*
X136339Y60200D01*
X138800D01*
Y62661D01*
D02*
G37*
G36*
X251200Y62161D02*
Y59700D01*
X253661D01*
X253595Y60195D01*
X253327Y60843D01*
X252900Y61400D01*
X252344Y61827D01*
X251695Y62095D01*
X251200Y62161D01*
D02*
G37*
G36*
X250800D02*
X250305Y62095D01*
X249657Y61827D01*
X249100Y61400D01*
X248673Y60843D01*
X248405Y60195D01*
X248339Y59700D01*
X250800D01*
Y62161D01*
D02*
G37*
G36*
X328700Y61661D02*
Y59200D01*
X331161D01*
X331095Y59695D01*
X330827Y60343D01*
X330400Y60900D01*
X329843Y61327D01*
X329195Y61595D01*
X328700Y61661D01*
D02*
G37*
G36*
X328300D02*
X327805Y61595D01*
X327156Y61327D01*
X326600Y60900D01*
X326173Y60343D01*
X325905Y59695D01*
X325839Y59200D01*
X328300D01*
Y61661D01*
D02*
G37*
G36*
X154000Y62541D02*
X153028Y62347D01*
X152204Y61796D01*
X151653Y60972D01*
X151460Y60000D01*
X151653Y59028D01*
X152204Y58204D01*
X153028Y57653D01*
X154000Y57459D01*
X154972Y57653D01*
X155796Y58204D01*
X156347Y59028D01*
X156541Y60000D01*
X156347Y60972D01*
X155796Y61796D01*
X154972Y62347D01*
X154000Y62541D01*
D02*
G37*
G36*
X141661Y59800D02*
X139200D01*
Y57339D01*
X139695Y57405D01*
X140343Y57673D01*
X140900Y58100D01*
X141327Y58657D01*
X141595Y59305D01*
X141661Y59800D01*
D02*
G37*
G36*
X138800D02*
X136339D01*
X136405Y59305D01*
X136673Y58657D01*
X137100Y58100D01*
X137656Y57673D01*
X138305Y57405D01*
X138800Y57339D01*
Y59800D01*
D02*
G37*
G36*
X124000Y62687D02*
X123305Y62595D01*
X122657Y62327D01*
X122100Y61900D01*
X121673Y61343D01*
X121405Y60695D01*
X121313Y60000D01*
X121405Y59305D01*
X121673Y58657D01*
X122100Y58100D01*
X122657Y57673D01*
X123305Y57405D01*
X124000Y57313D01*
X124695Y57405D01*
X125344Y57673D01*
X125900Y58100D01*
X126327Y58657D01*
X126595Y59305D01*
X126687Y60000D01*
X126595Y60695D01*
X126327Y61343D01*
X125900Y61900D01*
X125344Y62327D01*
X124695Y62595D01*
X124000Y62687D01*
D02*
G37*
G36*
X109000D02*
X108305Y62595D01*
X107657Y62327D01*
X107100Y61900D01*
X106673Y61343D01*
X106405Y60695D01*
X106313Y60000D01*
X106405Y59305D01*
X106673Y58657D01*
X107100Y58100D01*
X107657Y57673D01*
X108305Y57405D01*
X109000Y57313D01*
X109695Y57405D01*
X110344Y57673D01*
X110900Y58100D01*
X111327Y58657D01*
X111595Y59305D01*
X111687Y60000D01*
X111595Y60695D01*
X111327Y61343D01*
X110900Y61900D01*
X110344Y62327D01*
X109695Y62595D01*
X109000Y62687D01*
D02*
G37*
G36*
X64200Y59759D02*
Y57298D01*
X66661D01*
X66595Y57794D01*
X66327Y58442D01*
X65900Y58999D01*
X65343Y59425D01*
X64695Y59694D01*
X64200Y59759D01*
D02*
G37*
G36*
X63800D02*
X63305Y59694D01*
X62656Y59425D01*
X62100Y58999D01*
X61673Y58442D01*
X61405Y57794D01*
X61339Y57298D01*
X63800D01*
Y59759D01*
D02*
G37*
G36*
X236000Y62041D02*
X235028Y61847D01*
X234204Y61296D01*
X233653Y60472D01*
X233459Y59500D01*
X233653Y58528D01*
X234204Y57704D01*
X235028Y57153D01*
X236000Y56959D01*
X236972Y57153D01*
X237796Y57704D01*
X238347Y58528D01*
X238541Y59500D01*
X238347Y60472D01*
X237796Y61296D01*
X236972Y61847D01*
X236000Y62041D01*
D02*
G37*
G36*
X253661Y59300D02*
X251200D01*
Y56839D01*
X251695Y56905D01*
X252344Y57173D01*
X252900Y57600D01*
X253327Y58157D01*
X253595Y58805D01*
X253661Y59300D01*
D02*
G37*
G36*
X250800D02*
X248339D01*
X248405Y58805D01*
X248673Y58157D01*
X249100Y57600D01*
X249657Y57173D01*
X250305Y56905D01*
X250800Y56839D01*
Y59300D01*
D02*
G37*
G36*
X281000Y62187D02*
X280305Y62095D01*
X279657Y61827D01*
X279100Y61400D01*
X278673Y60843D01*
X278405Y60195D01*
X278313Y59500D01*
X278405Y58805D01*
X278673Y58157D01*
X279100Y57600D01*
X279657Y57173D01*
X280305Y56905D01*
X281000Y56813D01*
X281695Y56905D01*
X282344Y57173D01*
X282900Y57600D01*
X283327Y58157D01*
X283595Y58805D01*
X283687Y59500D01*
X283595Y60195D01*
X283327Y60843D01*
X282900Y61400D01*
X282344Y61827D01*
X281695Y62095D01*
X281000Y62187D01*
D02*
G37*
G36*
X266000D02*
X265305Y62095D01*
X264656Y61827D01*
X264100Y61400D01*
X263673Y60843D01*
X263405Y60195D01*
X263313Y59500D01*
X263405Y58805D01*
X263673Y58157D01*
X264100Y57600D01*
X264656Y57173D01*
X265305Y56905D01*
X266000Y56813D01*
X266695Y56905D01*
X267343Y57173D01*
X267900Y57600D01*
X268327Y58157D01*
X268595Y58805D01*
X268687Y59500D01*
X268595Y60195D01*
X268327Y60843D01*
X267900Y61400D01*
X267343Y61827D01*
X266695Y62095D01*
X266000Y62187D01*
D02*
G37*
G36*
X313500Y61541D02*
X312528Y61347D01*
X311704Y60796D01*
X311153Y59972D01*
X310960Y59000D01*
X311153Y58028D01*
X311704Y57204D01*
X312528Y56653D01*
X313500Y56459D01*
X314472Y56653D01*
X315296Y57204D01*
X315847Y58028D01*
X316040Y59000D01*
X315847Y59972D01*
X315296Y60796D01*
X314472Y61347D01*
X313500Y61541D01*
D02*
G37*
G36*
X331161Y58800D02*
X328700D01*
Y56339D01*
X329195Y56405D01*
X329843Y56673D01*
X330400Y57100D01*
X330827Y57657D01*
X331095Y58305D01*
X331161Y58800D01*
D02*
G37*
G36*
X328300D02*
X325839D01*
X325905Y58305D01*
X326173Y57657D01*
X326600Y57100D01*
X327156Y56673D01*
X327805Y56405D01*
X328300Y56339D01*
Y58800D01*
D02*
G37*
G36*
X358500Y61687D02*
X357805Y61595D01*
X357156Y61327D01*
X356600Y60900D01*
X356173Y60343D01*
X355905Y59695D01*
X355813Y59000D01*
X355905Y58305D01*
X356173Y57657D01*
X356600Y57100D01*
X357156Y56673D01*
X357805Y56405D01*
X358500Y56313D01*
X359195Y56405D01*
X359843Y56673D01*
X360400Y57100D01*
X360827Y57657D01*
X361095Y58305D01*
X361187Y59000D01*
X361095Y59695D01*
X360827Y60343D01*
X360400Y60900D01*
X359843Y61327D01*
X359195Y61595D01*
X358500Y61687D01*
D02*
G37*
G36*
X343500D02*
X342805Y61595D01*
X342157Y61327D01*
X341600Y60900D01*
X341173Y60343D01*
X340905Y59695D01*
X340813Y59000D01*
X340905Y58305D01*
X341173Y57657D01*
X341600Y57100D01*
X342157Y56673D01*
X342805Y56405D01*
X343500Y56313D01*
X344195Y56405D01*
X344844Y56673D01*
X345400Y57100D01*
X345827Y57657D01*
X346095Y58305D01*
X346187Y59000D01*
X346095Y59695D01*
X345827Y60343D01*
X345400Y60900D01*
X344844Y61327D01*
X344195Y61595D01*
X343500Y61687D01*
D02*
G37*
G36*
X79000Y59639D02*
X78028Y59446D01*
X77204Y58895D01*
X76653Y58071D01*
X76459Y57099D01*
X76653Y56126D01*
X77204Y55302D01*
X78028Y54751D01*
X79000Y54558D01*
X79972Y54751D01*
X80796Y55302D01*
X81347Y56126D01*
X81541Y57099D01*
X81347Y58071D01*
X80796Y58895D01*
X79972Y59446D01*
X79000Y59639D01*
D02*
G37*
G36*
X66661Y56898D02*
X64200D01*
Y54438D01*
X64695Y54503D01*
X65343Y54772D01*
X65900Y55199D01*
X66327Y55755D01*
X66595Y56403D01*
X66661Y56898D01*
D02*
G37*
G36*
X63800D02*
X61339D01*
X61405Y56403D01*
X61673Y55755D01*
X62100Y55199D01*
X62656Y54772D01*
X63305Y54503D01*
X63800Y54438D01*
Y56898D01*
D02*
G37*
G36*
X49000Y59785D02*
X48305Y59694D01*
X47657Y59425D01*
X47100Y58999D01*
X46673Y58442D01*
X46405Y57794D01*
X46313Y57099D01*
X46405Y56403D01*
X46673Y55755D01*
X47100Y55199D01*
X47657Y54772D01*
X48305Y54503D01*
X49000Y54412D01*
X49695Y54503D01*
X50344Y54772D01*
X50900Y55199D01*
X51327Y55755D01*
X51595Y56403D01*
X51687Y57099D01*
X51595Y57794D01*
X51327Y58442D01*
X50900Y58999D01*
X50344Y59425D01*
X49695Y59694D01*
X49000Y59785D01*
D02*
G37*
G36*
X34000D02*
X33305Y59694D01*
X32656Y59425D01*
X32100Y58999D01*
X31673Y58442D01*
X31405Y57794D01*
X31313Y57099D01*
X31405Y56403D01*
X31673Y55755D01*
X32100Y55199D01*
X32656Y54772D01*
X33305Y54503D01*
X34000Y54412D01*
X34695Y54503D01*
X35344Y54772D01*
X35900Y55199D01*
X36327Y55755D01*
X36595Y56403D01*
X36687Y57099D01*
X36595Y57794D01*
X36327Y58442D01*
X35900Y58999D01*
X35344Y59425D01*
X34695Y59694D01*
X34000Y59785D01*
D02*
G37*
G36*
X91500Y52413D02*
X90959Y52305D01*
X90501Y51999D01*
X90195Y51541D01*
X90087Y51000D01*
X90195Y50459D01*
X90501Y50001D01*
X90959Y49695D01*
X91500Y49587D01*
X92041Y49695D01*
X92499Y50001D01*
X92805Y50459D01*
X92913Y51000D01*
X92805Y51541D01*
X92499Y51999D01*
X92041Y52305D01*
X91500Y52413D01*
D02*
G37*
G36*
X377000Y49413D02*
X376459Y49305D01*
X376001Y48999D01*
X375695Y48541D01*
X375587Y48000D01*
X375695Y47459D01*
X376001Y47001D01*
X376459Y46695D01*
X377000Y46587D01*
X377541Y46695D01*
X377999Y47001D01*
X378305Y47459D01*
X378413Y48000D01*
X378305Y48541D01*
X377999Y48999D01*
X377541Y49305D01*
X377000Y49413D01*
D02*
G37*
G36*
X251500Y43913D02*
X250959Y43805D01*
X250501Y43499D01*
X250195Y43041D01*
X250087Y42500D01*
X250195Y41959D01*
X250501Y41501D01*
X250959Y41195D01*
X251500Y41087D01*
X252041Y41195D01*
X252499Y41501D01*
X252805Y41959D01*
X252913Y42500D01*
X252805Y43041D01*
X252499Y43499D01*
X252041Y43805D01*
X251500Y43913D01*
D02*
G37*
G36*
X234500D02*
X233959Y43805D01*
X233501Y43499D01*
X233195Y43041D01*
X233087Y42500D01*
X233195Y41959D01*
X233501Y41501D01*
X233959Y41195D01*
X234500Y41087D01*
X235041Y41195D01*
X235499Y41501D01*
X235805Y41959D01*
X235913Y42500D01*
X235805Y43041D01*
X235499Y43499D01*
X235041Y43805D01*
X234500Y43913D01*
D02*
G37*
G36*
X292200Y41161D02*
Y38700D01*
X294661D01*
X294595Y39195D01*
X294327Y39843D01*
X293900Y40400D01*
X293343Y40827D01*
X292695Y41095D01*
X292200Y41161D01*
D02*
G37*
G36*
X291800D02*
X291305Y41095D01*
X290656Y40827D01*
X290100Y40400D01*
X289673Y39843D01*
X289405Y39195D01*
X289339Y38700D01*
X291800D01*
Y41161D01*
D02*
G37*
G36*
X102200Y40661D02*
Y38200D01*
X104661D01*
X104595Y38695D01*
X104327Y39344D01*
X103900Y39900D01*
X103343Y40327D01*
X102695Y40595D01*
X102200Y40661D01*
D02*
G37*
G36*
X101800D02*
X101305Y40595D01*
X100656Y40327D01*
X100100Y39900D01*
X99673Y39344D01*
X99405Y38695D01*
X99339Y38200D01*
X101800D01*
Y40661D01*
D02*
G37*
G36*
X243500Y39413D02*
X242959Y39305D01*
X242501Y38999D01*
X242195Y38541D01*
X242087Y38000D01*
X242195Y37459D01*
X242501Y37001D01*
X242959Y36695D01*
X243500Y36587D01*
X244041Y36695D01*
X244499Y37001D01*
X244805Y37459D01*
X244913Y38000D01*
X244805Y38541D01*
X244499Y38999D01*
X244041Y39305D01*
X243500Y39413D01*
D02*
G37*
G36*
X201000Y46933D02*
X155000D01*
X154694Y46806D01*
X153194Y45306D01*
X153067Y45000D01*
Y39429D01*
X153092Y39369D01*
X153086Y39303D01*
X153153Y39221D01*
X153194Y39123D01*
X153366Y38765D01*
X153407Y38603D01*
X153297Y38438D01*
X153189Y37898D01*
X153297Y37357D01*
X153407Y37192D01*
X153366Y37030D01*
X153194Y36672D01*
X153153Y36574D01*
X153086Y36492D01*
X153092Y36427D01*
X153067Y36366D01*
Y23000D01*
X153194Y22694D01*
X154194Y21694D01*
X154500Y21567D01*
X202000D01*
X202306Y21694D01*
X203306Y22694D01*
X203415Y22957D01*
X203468Y23015D01*
X203933Y23212D01*
X203959Y23195D01*
X204500Y23087D01*
X205041Y23195D01*
X205430Y23455D01*
X205654Y23502D01*
X205846D01*
X206070Y23455D01*
X206459Y23195D01*
X207000Y23087D01*
X207541Y23195D01*
X207999Y23501D01*
X208305Y23959D01*
X208413Y24500D01*
X208305Y25041D01*
X207999Y25499D01*
X207541Y25805D01*
X207382Y26347D01*
X207413Y26500D01*
X207305Y27041D01*
X206999Y27499D01*
X206541Y27805D01*
X206000Y27913D01*
X205459Y27805D01*
X205001Y27499D01*
X204695Y27041D01*
X204587Y26500D01*
X204607Y26402D01*
X204501Y25918D01*
X204243Y25862D01*
X203959Y25805D01*
X203933Y25788D01*
X203433Y26055D01*
Y36349D01*
X203408Y36410D01*
X203414Y36475D01*
X203347Y36557D01*
X203306Y36655D01*
X203220Y36792D01*
X203287Y37090D01*
X203509Y37327D01*
X203965Y37173D01*
X204117Y36653D01*
X204087Y36500D01*
X204195Y35959D01*
X204501Y35501D01*
X204959Y35195D01*
X205500Y35087D01*
X206041Y35195D01*
X206499Y35501D01*
X206805Y35959D01*
X206913Y36500D01*
X206893Y36598D01*
X206999Y37082D01*
X207257Y37138D01*
X207541Y37195D01*
X207870Y37415D01*
X208312Y37304D01*
X208415Y37239D01*
X208721Y36780D01*
X209180Y36474D01*
X209720Y36367D01*
X210261Y36474D01*
X210720Y36780D01*
X211026Y37239D01*
X211133Y37780D01*
X211113Y37881D01*
X211539Y38306D01*
X211689Y38276D01*
X211826Y38303D01*
X212252Y37878D01*
X212245Y37843D01*
X212352Y37302D01*
X212658Y36843D01*
X213117Y36537D01*
X213657Y36430D01*
X214198Y36537D01*
X214644Y36835D01*
X214703Y36821D01*
X215112Y36625D01*
X215087Y36500D01*
X215195Y35959D01*
X215501Y35501D01*
X215959Y35195D01*
X216500Y35087D01*
X217041Y35195D01*
X217430Y35455D01*
X217654Y35502D01*
X217846D01*
X218070Y35455D01*
X218459Y35195D01*
X219000Y35087D01*
X219541Y35195D01*
X219999Y35501D01*
X220305Y35959D01*
X220318Y36022D01*
X220873Y36252D01*
X220959Y36195D01*
X221500Y36087D01*
X222041Y36195D01*
X222499Y36501D01*
X222805Y36959D01*
X222913Y37500D01*
X222873Y37702D01*
X223217Y38046D01*
X223763Y38043D01*
X224101Y37697D01*
X224056Y37468D01*
X224163Y36928D01*
X224469Y36469D01*
X224928Y36163D01*
X225468Y36055D01*
X226009Y36163D01*
X226468Y36469D01*
X226774Y36928D01*
X226882Y37468D01*
X226860Y37578D01*
X227192Y37950D01*
X227693Y37949D01*
X228026Y37571D01*
X227993Y37405D01*
X228100Y36865D01*
X228406Y36406D01*
X228865Y36100D01*
X229405Y35993D01*
X229946Y36100D01*
X230405Y36406D01*
X230707Y36858D01*
X231018Y36923D01*
X231229Y36908D01*
X231501Y36501D01*
X231959Y36195D01*
X232500Y36087D01*
X233041Y36195D01*
X233499Y36501D01*
X233722Y36835D01*
X233837Y36865D01*
X234163D01*
X234278Y36835D01*
X234501Y36501D01*
X234959Y36195D01*
X235500Y36087D01*
X236041Y36195D01*
X236499Y36501D01*
X236500Y36502D01*
X237000D01*
X237001Y36501D01*
X237459Y36195D01*
X238000Y36087D01*
X238541Y36195D01*
X238999Y36501D01*
X239305Y36959D01*
X239413Y37500D01*
X239305Y38041D01*
X238999Y38499D01*
X238541Y38805D01*
X238000Y38913D01*
X237459Y38805D01*
X237070Y38545D01*
X236846Y38498D01*
X236654D01*
X236430Y38545D01*
X236041Y38805D01*
X235500Y38913D01*
X234959Y38805D01*
X234501Y38499D01*
X234278Y38165D01*
X234163Y38135D01*
X233837D01*
X233722Y38165D01*
X233499Y38499D01*
X233041Y38805D01*
X232500Y38913D01*
X231959Y38805D01*
X231501Y38499D01*
X231199Y38047D01*
X230887Y37983D01*
X230676Y37998D01*
X230405Y38405D01*
X229946Y38711D01*
X229405Y38818D01*
X229222Y38782D01*
X228805Y39209D01*
X228850Y39437D01*
X228742Y39978D01*
X228436Y40436D01*
X227978Y40742D01*
X227437Y40850D01*
X226896Y40742D01*
X226438Y40436D01*
X226132Y39978D01*
X226024Y39437D01*
X226046Y39328D01*
X225714Y38956D01*
X225212Y38956D01*
X224880Y39334D01*
X224913Y39500D01*
X224805Y40041D01*
X224499Y40499D01*
X224041Y40805D01*
X223500Y40913D01*
X222959Y40805D01*
X222501Y40499D01*
X222195Y40041D01*
X222087Y39500D01*
X222127Y39298D01*
X221702Y38873D01*
X221500Y38913D01*
X220959Y38805D01*
X220501Y38499D01*
X220195Y38041D01*
X220182Y37978D01*
X219627Y37748D01*
X219541Y37805D01*
X219257Y37862D01*
X218999Y37918D01*
X218893Y38402D01*
X218913Y38500D01*
X218805Y39041D01*
X218499Y39499D01*
X218041Y39805D01*
X217500Y39913D01*
X216959Y39805D01*
X216501Y39499D01*
X216195Y39041D01*
X216087Y38500D01*
X216118Y38347D01*
X215959Y37805D01*
X215514Y37508D01*
X215455Y37521D01*
X215046Y37718D01*
X215070Y37843D01*
X214963Y38383D01*
X214657Y38842D01*
X214198Y39148D01*
X213657Y39255D01*
X213520Y39228D01*
X213095Y39653D01*
X213102Y39689D01*
X212994Y40230D01*
X212688Y40688D01*
X212230Y40994D01*
X211689Y41102D01*
X211148Y40994D01*
X210690Y40688D01*
X210384Y40230D01*
X210276Y39689D01*
X210296Y39588D01*
X209871Y39163D01*
X209720Y39193D01*
X209180Y39085D01*
X208850Y38865D01*
X208408Y38976D01*
X208305Y39041D01*
X207999Y39499D01*
X207541Y39805D01*
X207000Y39913D01*
X206459Y39805D01*
X206001Y39499D01*
X206000Y39498D01*
X205500D01*
X205499Y39499D01*
X205041Y39805D01*
X204500Y39913D01*
X203959Y39805D01*
X203933Y39788D01*
X203433Y40055D01*
Y44500D01*
X203306Y44806D01*
X201306Y46806D01*
X201000Y46933D01*
D02*
G37*
G36*
X277000Y41041D02*
X276028Y40847D01*
X275204Y40296D01*
X274653Y39472D01*
X274460Y38500D01*
X274653Y37528D01*
X275204Y36704D01*
X276028Y36153D01*
X277000Y35960D01*
X277972Y36153D01*
X278796Y36704D01*
X279347Y37528D01*
X279540Y38500D01*
X279347Y39472D01*
X278796Y40296D01*
X277972Y40847D01*
X277000Y41041D01*
D02*
G37*
G36*
X294661Y38300D02*
X292200D01*
Y35839D01*
X292695Y35905D01*
X293343Y36173D01*
X293900Y36600D01*
X294327Y37157D01*
X294595Y37805D01*
X294661Y38300D01*
D02*
G37*
G36*
X291800D02*
X289339D01*
X289405Y37805D01*
X289673Y37157D01*
X290100Y36600D01*
X290656Y36173D01*
X291305Y35905D01*
X291800Y35839D01*
Y38300D01*
D02*
G37*
G36*
X322000Y41187D02*
X321305Y41095D01*
X320656Y40827D01*
X320100Y40400D01*
X319673Y39843D01*
X319405Y39195D01*
X319313Y38500D01*
X319405Y37805D01*
X319673Y37157D01*
X320100Y36600D01*
X320656Y36173D01*
X321305Y35905D01*
X322000Y35813D01*
X322695Y35905D01*
X323343Y36173D01*
X323900Y36600D01*
X324327Y37157D01*
X324595Y37805D01*
X324687Y38500D01*
X324595Y39195D01*
X324327Y39843D01*
X323900Y40400D01*
X323343Y40827D01*
X322695Y41095D01*
X322000Y41187D01*
D02*
G37*
G36*
X307000D02*
X306305Y41095D01*
X305657Y40827D01*
X305100Y40400D01*
X304673Y39843D01*
X304405Y39195D01*
X304313Y38500D01*
X304405Y37805D01*
X304673Y37157D01*
X305100Y36600D01*
X305657Y36173D01*
X306305Y35905D01*
X307000Y35813D01*
X307695Y35905D01*
X308344Y36173D01*
X308900Y36600D01*
X309327Y37157D01*
X309595Y37805D01*
X309687Y38500D01*
X309595Y39195D01*
X309327Y39843D01*
X308900Y40400D01*
X308344Y40827D01*
X307695Y41095D01*
X307000Y41187D01*
D02*
G37*
G36*
X117000Y40541D02*
X116028Y40347D01*
X115204Y39796D01*
X114653Y38972D01*
X114460Y38000D01*
X114653Y37028D01*
X115204Y36204D01*
X116028Y35653D01*
X117000Y35460D01*
X117972Y35653D01*
X118796Y36204D01*
X119347Y37028D01*
X119541Y38000D01*
X119347Y38972D01*
X118796Y39796D01*
X117972Y40347D01*
X117000Y40541D01*
D02*
G37*
G36*
X104661Y37800D02*
X102200D01*
Y35339D01*
X102695Y35405D01*
X103343Y35673D01*
X103900Y36100D01*
X104327Y36656D01*
X104595Y37305D01*
X104661Y37800D01*
D02*
G37*
G36*
X101800D02*
X99339D01*
X99405Y37305D01*
X99673Y36656D01*
X100100Y36100D01*
X100656Y35673D01*
X101305Y35405D01*
X101800Y35339D01*
Y37800D01*
D02*
G37*
G36*
X87000Y40687D02*
X86305Y40595D01*
X85656Y40327D01*
X85100Y39900D01*
X84673Y39344D01*
X84405Y38695D01*
X84313Y38000D01*
X84405Y37305D01*
X84673Y36656D01*
X85100Y36100D01*
X85656Y35673D01*
X86305Y35405D01*
X87000Y35313D01*
X87695Y35405D01*
X88344Y35673D01*
X88900Y36100D01*
X89327Y36656D01*
X89595Y37305D01*
X89687Y38000D01*
X89595Y38695D01*
X89327Y39344D01*
X88900Y39900D01*
X88344Y40327D01*
X87695Y40595D01*
X87000Y40687D01*
D02*
G37*
G36*
X72000D02*
X71305Y40595D01*
X70657Y40327D01*
X70100Y39900D01*
X69673Y39344D01*
X69405Y38695D01*
X69313Y38000D01*
X69405Y37305D01*
X69673Y36656D01*
X70100Y36100D01*
X70657Y35673D01*
X71305Y35405D01*
X72000Y35313D01*
X72695Y35405D01*
X73343Y35673D01*
X73900Y36100D01*
X74327Y36656D01*
X74595Y37305D01*
X74687Y38000D01*
X74595Y38695D01*
X74327Y39344D01*
X73900Y39900D01*
X73343Y40327D01*
X72695Y40595D01*
X72000Y40687D01*
D02*
G37*
G36*
X219000Y27913D02*
X218459Y27805D01*
X218070Y27545D01*
X217846Y27498D01*
X217654D01*
X217430Y27545D01*
X217041Y27805D01*
X216500Y27913D01*
X215959Y27805D01*
X215501Y27499D01*
X215195Y27041D01*
X215087Y26500D01*
X215195Y25959D01*
X215501Y25501D01*
X215959Y25195D01*
X216118Y24653D01*
X216087Y24500D01*
X216195Y23959D01*
X216501Y23501D01*
X216959Y23195D01*
X217500Y23087D01*
X218041Y23195D01*
X218499Y23501D01*
X218805Y23959D01*
X218913Y24500D01*
X218893Y24598D01*
X218999Y25082D01*
X219257Y25138D01*
X219541Y25195D01*
X219999Y25501D01*
X220305Y25959D01*
X220413Y26500D01*
X220305Y27041D01*
X219999Y27499D01*
X219541Y27805D01*
X219000Y27913D01*
D02*
G37*
G36*
X238000Y26413D02*
X237459Y26305D01*
X237070Y26045D01*
X236846Y25998D01*
X236654D01*
X236430Y26045D01*
X236041Y26305D01*
X235500Y26413D01*
X234959Y26305D01*
X234501Y25999D01*
X234278Y25665D01*
X234163Y25635D01*
X233837D01*
X233722Y25665D01*
X233499Y25999D01*
X233041Y26305D01*
X232500Y26413D01*
X231959Y26305D01*
X231501Y25999D01*
X231195Y25541D01*
X231087Y25000D01*
X231195Y24459D01*
X231501Y24001D01*
X231959Y23695D01*
X232500Y23587D01*
X233041Y23695D01*
X233499Y24001D01*
X233722Y24335D01*
X233837Y24365D01*
X234163D01*
X234278Y24335D01*
X234501Y24001D01*
X234959Y23695D01*
X235500Y23587D01*
X236041Y23695D01*
X236430Y23955D01*
X236654Y24002D01*
X236846D01*
X237070Y23955D01*
X237459Y23695D01*
X238000Y23587D01*
X238541Y23695D01*
X238999Y24001D01*
X239305Y24459D01*
X239413Y25000D01*
X239305Y25541D01*
X238999Y25999D01*
X238541Y26305D01*
X238000Y26413D01*
D02*
G37*
G36*
X292200Y21661D02*
Y19200D01*
X294661D01*
X294595Y19695D01*
X294327Y20344D01*
X293900Y20900D01*
X293343Y21327D01*
X292695Y21595D01*
X292200Y21661D01*
D02*
G37*
G36*
X291800D02*
X291305Y21595D01*
X290656Y21327D01*
X290100Y20900D01*
X289673Y20344D01*
X289405Y19695D01*
X289339Y19200D01*
X291800D01*
Y21661D01*
D02*
G37*
G36*
X102200Y21161D02*
Y18700D01*
X104661D01*
X104595Y19195D01*
X104327Y19843D01*
X103900Y20400D01*
X103343Y20827D01*
X102695Y21095D01*
X102200Y21161D01*
D02*
G37*
G36*
X101800D02*
X101305Y21095D01*
X100656Y20827D01*
X100100Y20400D01*
X99673Y19843D01*
X99405Y19195D01*
X99339Y18700D01*
X101800D01*
Y21161D01*
D02*
G37*
G36*
X250075Y30986D02*
X249073Y30854D01*
X248139Y30467D01*
X247337Y29852D01*
X246722Y29050D01*
X246335Y28116D01*
X246203Y27114D01*
X246335Y26112D01*
X246722Y25178D01*
X247337Y24376D01*
X247805Y24018D01*
Y23518D01*
X247337Y23159D01*
X246722Y22357D01*
X246335Y21423D01*
X246203Y20421D01*
X246335Y19419D01*
X246722Y18485D01*
X247337Y17684D01*
X248139Y17068D01*
X249073Y16681D01*
X250075Y16550D01*
X251077Y16681D01*
X252011Y17068D01*
X252813Y17684D01*
X253428Y18485D01*
X253815Y19419D01*
X253946Y20421D01*
X253815Y21423D01*
X253428Y22357D01*
X252813Y23159D01*
X252345Y23518D01*
Y24018D01*
X252813Y24376D01*
X253428Y25178D01*
X253815Y26112D01*
X253946Y27114D01*
X253815Y28116D01*
X253428Y29050D01*
X252813Y29852D01*
X252011Y30467D01*
X251077Y30854D01*
X250075Y30986D01*
D02*
G37*
G36*
X143776D02*
X142773Y30854D01*
X141840Y30467D01*
X141038Y29852D01*
X140423Y29050D01*
X140036Y28116D01*
X139904Y27114D01*
X140036Y26112D01*
X140423Y25178D01*
X141038Y24376D01*
X141505Y24018D01*
Y23518D01*
X141038Y23159D01*
X140423Y22357D01*
X140036Y21423D01*
X139904Y20421D01*
X140036Y19419D01*
X140423Y18485D01*
X141038Y17684D01*
X141840Y17068D01*
X142773Y16681D01*
X143776Y16550D01*
X144778Y16681D01*
X145711Y17068D01*
X146513Y17684D01*
X147129Y18485D01*
X147515Y19419D01*
X147647Y20421D01*
X147515Y21423D01*
X147129Y22357D01*
X146513Y23159D01*
X146046Y23518D01*
Y24018D01*
X146513Y24376D01*
X147129Y25178D01*
X147515Y26112D01*
X147647Y27114D01*
X147515Y28116D01*
X147129Y29050D01*
X146513Y29852D01*
X145711Y30467D01*
X144778Y30854D01*
X143776Y30986D01*
D02*
G37*
G36*
X277000Y21541D02*
X276028Y21347D01*
X275204Y20796D01*
X274653Y19972D01*
X274460Y19000D01*
X274653Y18028D01*
X275204Y17204D01*
X276028Y16653D01*
X277000Y16459D01*
X277972Y16653D01*
X278796Y17204D01*
X279347Y18028D01*
X279540Y19000D01*
X279347Y19972D01*
X278796Y20796D01*
X277972Y21347D01*
X277000Y21541D01*
D02*
G37*
G36*
X294661Y18800D02*
X292200D01*
Y16339D01*
X292695Y16405D01*
X293343Y16673D01*
X293900Y17100D01*
X294327Y17657D01*
X294595Y18305D01*
X294661Y18800D01*
D02*
G37*
G36*
X291800D02*
X289339D01*
X289405Y18305D01*
X289673Y17657D01*
X290100Y17100D01*
X290656Y16673D01*
X291305Y16405D01*
X291800Y16339D01*
Y18800D01*
D02*
G37*
G36*
X322000Y21687D02*
X321305Y21595D01*
X320656Y21327D01*
X320100Y20900D01*
X319673Y20344D01*
X319405Y19695D01*
X319313Y19000D01*
X319405Y18305D01*
X319673Y17657D01*
X320100Y17100D01*
X320656Y16673D01*
X321305Y16405D01*
X322000Y16313D01*
X322695Y16405D01*
X323343Y16673D01*
X323900Y17100D01*
X324327Y17657D01*
X324595Y18305D01*
X324687Y19000D01*
X324595Y19695D01*
X324327Y20344D01*
X323900Y20900D01*
X323343Y21327D01*
X322695Y21595D01*
X322000Y21687D01*
D02*
G37*
G36*
X307000D02*
X306305Y21595D01*
X305657Y21327D01*
X305100Y20900D01*
X304673Y20344D01*
X304405Y19695D01*
X304313Y19000D01*
X304405Y18305D01*
X304673Y17657D01*
X305100Y17100D01*
X305657Y16673D01*
X306305Y16405D01*
X307000Y16313D01*
X307695Y16405D01*
X308344Y16673D01*
X308900Y17100D01*
X309327Y17657D01*
X309595Y18305D01*
X309687Y19000D01*
X309595Y19695D01*
X309327Y20344D01*
X308900Y20900D01*
X308344Y21327D01*
X307695Y21595D01*
X307000Y21687D01*
D02*
G37*
G36*
X117000Y21041D02*
X116028Y20847D01*
X115204Y20296D01*
X114653Y19472D01*
X114460Y18500D01*
X114653Y17528D01*
X115204Y16704D01*
X116028Y16153D01*
X117000Y15959D01*
X117972Y16153D01*
X118796Y16704D01*
X119347Y17528D01*
X119541Y18500D01*
X119347Y19472D01*
X118796Y20296D01*
X117972Y20847D01*
X117000Y21041D01*
D02*
G37*
G36*
X104661Y18300D02*
X102200D01*
Y15839D01*
X102695Y15905D01*
X103343Y16173D01*
X103900Y16600D01*
X104327Y17156D01*
X104595Y17805D01*
X104661Y18300D01*
D02*
G37*
G36*
X101800D02*
X99339D01*
X99405Y17805D01*
X99673Y17156D01*
X100100Y16600D01*
X100656Y16173D01*
X101305Y15905D01*
X101800Y15839D01*
Y18300D01*
D02*
G37*
G36*
X87000Y21187D02*
X86305Y21095D01*
X85656Y20827D01*
X85100Y20400D01*
X84673Y19843D01*
X84405Y19195D01*
X84313Y18500D01*
X84405Y17805D01*
X84673Y17156D01*
X85100Y16600D01*
X85656Y16173D01*
X86305Y15905D01*
X87000Y15813D01*
X87695Y15905D01*
X88344Y16173D01*
X88900Y16600D01*
X89327Y17156D01*
X89595Y17805D01*
X89687Y18500D01*
X89595Y19195D01*
X89327Y19843D01*
X88900Y20400D01*
X88344Y20827D01*
X87695Y21095D01*
X87000Y21187D01*
D02*
G37*
G36*
X72000D02*
X71305Y21095D01*
X70657Y20827D01*
X70100Y20400D01*
X69673Y19843D01*
X69405Y19195D01*
X69313Y18500D01*
X69405Y17805D01*
X69673Y17156D01*
X70100Y16600D01*
X70657Y16173D01*
X71305Y15905D01*
X72000Y15813D01*
X72695Y15905D01*
X73343Y16173D01*
X73900Y16600D01*
X74327Y17156D01*
X74595Y17805D01*
X74687Y18500D01*
X74595Y19195D01*
X74327Y19843D01*
X73900Y20400D01*
X73343Y20827D01*
X72695Y21095D01*
X72000Y21187D01*
D02*
G37*
G36*
X156571Y12984D02*
X156030Y12876D01*
X155572Y12570D01*
X155265Y12112D01*
X155158Y11571D01*
X155190Y11408D01*
X154765Y10983D01*
X154602Y11015D01*
X154062Y10908D01*
X153603Y10601D01*
X153395Y10290D01*
X153194Y10143D01*
X152787Y10141D01*
X152541Y10305D01*
X152478Y10318D01*
X152248Y10873D01*
X152305Y10959D01*
X152413Y11500D01*
X152305Y12041D01*
X151999Y12499D01*
X151541Y12805D01*
X151000Y12913D01*
X150459Y12805D01*
X150001Y12499D01*
X149695Y12041D01*
X149587Y11500D01*
X149695Y10959D01*
X149752Y10872D01*
X149500Y10413D01*
X148959Y10305D01*
X148501Y9999D01*
X148195Y9541D01*
X148087Y9000D01*
X148195Y8459D01*
X148501Y8001D01*
X148959Y7695D01*
X149500Y7587D01*
X150041Y7695D01*
X150499Y8001D01*
X150500Y8002D01*
X151000D01*
X151001Y8001D01*
X151459Y7695D01*
X152000Y7587D01*
X152541Y7695D01*
X152999Y8001D01*
X153207Y8312D01*
X153408Y8460D01*
X153816Y8461D01*
X154062Y8297D01*
X154602Y8189D01*
X155143Y8297D01*
X155602Y8603D01*
X155908Y9062D01*
X156015Y9602D01*
X155983Y9765D01*
X156408Y10190D01*
X156571Y10158D01*
X157112Y10266D01*
X157570Y10572D01*
X157876Y11030D01*
X157984Y11571D01*
X157876Y12112D01*
X157570Y12570D01*
X157112Y12876D01*
X156571Y12984D01*
D02*
G37*
G36*
X129000Y12413D02*
X128459Y12305D01*
X128001Y11999D01*
X127695Y11541D01*
X127587Y11000D01*
X127695Y10459D01*
X128001Y10001D01*
X128459Y9695D01*
X129000Y9587D01*
X129541Y9695D01*
X129999Y10001D01*
X130305Y10459D01*
X130413Y11000D01*
X130305Y11541D01*
X129999Y11999D01*
X129541Y12305D01*
X129000Y12413D01*
D02*
G37*
G36*
X245153Y11067D02*
X244613Y10959D01*
X244154Y10653D01*
X243848Y10194D01*
X243741Y9653D01*
X243848Y9113D01*
X244154Y8654D01*
X244613Y8348D01*
X245153Y8241D01*
X245694Y8348D01*
X246153Y8654D01*
X246459Y9113D01*
X246567Y9653D01*
X246459Y10194D01*
X246153Y10653D01*
X245694Y10959D01*
X245153Y11067D01*
D02*
G37*
G36*
X133500Y10913D02*
X132959Y10805D01*
X132501Y10499D01*
X132195Y10041D01*
X132087Y9500D01*
X132195Y8959D01*
X132501Y8501D01*
X132959Y8195D01*
X133500Y8087D01*
X134041Y8195D01*
X134499Y8501D01*
X134805Y8959D01*
X134913Y9500D01*
X134805Y10041D01*
X134499Y10499D01*
X134041Y10805D01*
X133500Y10913D01*
D02*
G37*
%LPD*%
G36*
X203000Y44500D02*
Y39344D01*
X202500Y39077D01*
X202387Y39152D01*
X201847Y39259D01*
X201662Y39223D01*
X201245Y39650D01*
X201291Y39878D01*
X201183Y40419D01*
X200877Y40877D01*
X200419Y41183D01*
X199878Y41291D01*
X199337Y41183D01*
X198879Y40877D01*
X198573Y40419D01*
X198465Y39878D01*
X198487Y39769D01*
X198155Y39397D01*
X197653Y39397D01*
X197321Y39775D01*
X197354Y39941D01*
X197246Y40482D01*
X196940Y40940D01*
X196482Y41246D01*
X195941Y41354D01*
X195400Y41246D01*
X194942Y40940D01*
X194635Y40482D01*
X194528Y39941D01*
X194548Y39840D01*
X194214Y39465D01*
X193721Y39465D01*
X193386Y39842D01*
X193417Y39996D01*
X193309Y40537D01*
X193003Y40995D01*
X192545Y41302D01*
X192004Y41409D01*
X191463Y41302D01*
X191005Y40995D01*
X190699Y40537D01*
X190591Y39996D01*
X190624Y39830D01*
X190292Y39452D01*
X189790Y39452D01*
X189458Y39824D01*
X189480Y39933D01*
X189372Y40474D01*
X189066Y40932D01*
X188608Y41238D01*
X188067Y41346D01*
X187526Y41238D01*
X187068Y40932D01*
X186761Y40474D01*
X186654Y39933D01*
X186687Y39767D01*
X186354Y39389D01*
X185853Y39389D01*
X185521Y39761D01*
X185543Y39870D01*
X185435Y40411D01*
X185129Y40869D01*
X184671Y41175D01*
X184130Y41283D01*
X183589Y41175D01*
X183131Y40869D01*
X182825Y40411D01*
X182717Y39870D01*
X182750Y39704D01*
X182418Y39326D01*
X181916Y39326D01*
X181584Y39698D01*
X181606Y39807D01*
X181498Y40348D01*
X181192Y40806D01*
X180734Y41113D01*
X180193Y41220D01*
X179652Y41113D01*
X179194Y40806D01*
X178887Y40348D01*
X178780Y39807D01*
X178832Y39546D01*
X178516Y39173D01*
X177984Y39168D01*
X177626Y39528D01*
X177669Y39744D01*
X177561Y40285D01*
X177255Y40743D01*
X176797Y41050D01*
X176256Y41157D01*
X175715Y41050D01*
X175257Y40743D01*
X174951Y40285D01*
X174843Y39744D01*
X174466Y39316D01*
X174248Y39320D01*
X173870Y39681D01*
X173763Y40221D01*
X173456Y40680D01*
X172998Y40986D01*
X172457Y41094D01*
X171916Y40986D01*
X171458Y40680D01*
X171152Y40221D01*
X171044Y39681D01*
X171061Y39598D01*
X170628Y39208D01*
X170350Y39263D01*
X170166Y39227D01*
X169749Y39654D01*
X169795Y39882D01*
X169687Y40423D01*
X169381Y40881D01*
X168923Y41187D01*
X168382Y41295D01*
X167841Y41187D01*
X167383Y40881D01*
X167077Y40423D01*
X166969Y39882D01*
X166991Y39773D01*
X166659Y39401D01*
X166157Y39401D01*
X165825Y39779D01*
X165858Y39945D01*
X165750Y40486D01*
X165444Y40944D01*
X164986Y41250D01*
X164445Y41358D01*
X163904Y41250D01*
X163446Y40944D01*
X163139Y40486D01*
X163032Y39945D01*
X163064Y39782D01*
X162639Y39357D01*
X162476Y39389D01*
X162304Y39355D01*
X161879Y39780D01*
X161921Y39992D01*
X161813Y40533D01*
X161507Y40991D01*
X161049Y41298D01*
X160508Y41405D01*
X159967Y41298D01*
X159509Y40991D01*
X159203Y40533D01*
X159095Y39992D01*
X159128Y39826D01*
X158795Y39448D01*
X158294Y39448D01*
X157962Y39820D01*
X157984Y39929D01*
X157876Y40470D01*
X157570Y40928D01*
X157112Y41234D01*
X156571Y41342D01*
X156030Y41234D01*
X155572Y40928D01*
X155265Y40470D01*
X155158Y39929D01*
X155203Y39701D01*
X154786Y39274D01*
X154602Y39311D01*
X154062Y39203D01*
X154000Y39162D01*
X153500Y39429D01*
Y45000D01*
X155000Y46500D01*
X201000D01*
X203000Y44500D01*
D02*
G37*
G36*
X192595Y38153D02*
X192560Y37972D01*
X192667Y37432D01*
X192973Y36973D01*
X193432Y36667D01*
X193972Y36560D01*
X194513Y36667D01*
X194972Y36973D01*
X195278Y37432D01*
X195385Y37972D01*
X195364Y38081D01*
X195696Y38454D01*
X196197Y38453D01*
X196529Y38075D01*
X196496Y37909D01*
X196604Y37369D01*
X196910Y36910D01*
X197369Y36604D01*
X197909Y36496D01*
X198450Y36604D01*
X198909Y36910D01*
X199215Y37369D01*
X199322Y37909D01*
X199301Y38019D01*
X199633Y38391D01*
X200134Y38390D01*
X200466Y38012D01*
X200433Y37846D01*
X200541Y37306D01*
X200847Y36847D01*
X201306Y36541D01*
X201847Y36434D01*
X202387Y36541D01*
X202500Y36616D01*
X203000Y36349D01*
Y23000D01*
X202000Y22000D01*
X154500D01*
X153500Y23000D01*
Y36366D01*
X154000Y36633D01*
X154062Y36592D01*
X154602Y36485D01*
X155143Y36592D01*
X155602Y36898D01*
X155908Y37357D01*
X156015Y37898D01*
X155982Y38063D01*
X156315Y38441D01*
X156816Y38442D01*
X157148Y38070D01*
X157126Y37961D01*
X157234Y37420D01*
X157540Y36961D01*
X157999Y36655D01*
X158539Y36548D01*
X159080Y36655D01*
X159538Y36961D01*
X159845Y37420D01*
X159952Y37961D01*
X159917Y38138D01*
X160247Y38512D01*
X160767Y38513D01*
X161097Y38145D01*
X161063Y37976D01*
X161171Y37436D01*
X161477Y36977D01*
X161936Y36671D01*
X162476Y36563D01*
X163017Y36671D01*
X163476Y36977D01*
X163782Y37436D01*
X163889Y37976D01*
X163868Y38085D01*
X164200Y38458D01*
X164701Y38457D01*
X165033Y38079D01*
X165000Y37913D01*
X165108Y37373D01*
X165414Y36914D01*
X165873Y36608D01*
X166413Y36500D01*
X166954Y36608D01*
X167412Y36914D01*
X167719Y37373D01*
X167826Y37913D01*
X167805Y38022D01*
X168137Y38395D01*
X168638Y38394D01*
X168970Y38016D01*
X168937Y37850D01*
X169045Y37310D01*
X169351Y36851D01*
X169810Y36545D01*
X170350Y36437D01*
X170891Y36545D01*
X171350Y36851D01*
X171656Y37310D01*
X171763Y37850D01*
X171747Y37933D01*
X172179Y38323D01*
X172457Y38268D01*
X172476Y38271D01*
X172901Y37846D01*
X172874Y37713D01*
X172982Y37172D01*
X173288Y36713D01*
X173747Y36407D01*
X174287Y36300D01*
X174828Y36407D01*
X175286Y36713D01*
X175593Y37172D01*
X175700Y37713D01*
X175664Y37893D01*
X175993Y38266D01*
X176517Y38267D01*
X176846Y37899D01*
X176811Y37724D01*
X176919Y37184D01*
X177225Y36725D01*
X177684Y36419D01*
X178224Y36311D01*
X178765Y36419D01*
X179224Y36725D01*
X179530Y37184D01*
X179637Y37724D01*
X179588Y37971D01*
X179908Y38348D01*
X180429Y38353D01*
X180781Y38001D01*
X180748Y37839D01*
X180856Y37298D01*
X181162Y36840D01*
X181621Y36533D01*
X182161Y36426D01*
X182702Y36533D01*
X183160Y36840D01*
X183467Y37298D01*
X183574Y37839D01*
X183541Y38004D01*
X183874Y38382D01*
X184375Y38383D01*
X184707Y38011D01*
X184686Y37902D01*
X184793Y37361D01*
X185099Y36902D01*
X185558Y36596D01*
X186098Y36489D01*
X186639Y36596D01*
X187098Y36902D01*
X187404Y37361D01*
X187511Y37902D01*
X187478Y38067D01*
X187811Y38445D01*
X188312Y38446D01*
X188644Y38074D01*
X188622Y37965D01*
X188730Y37424D01*
X189036Y36965D01*
X189495Y36659D01*
X190035Y36552D01*
X190576Y36659D01*
X191035Y36965D01*
X191341Y37424D01*
X191448Y37965D01*
X191412Y38149D01*
X191740Y38520D01*
X192267Y38521D01*
X192595Y38153D01*
D02*
G37*
D49*
X38658Y350366D02*
D03*
X354992Y340169D02*
D03*
D53*
X251000Y119500D02*
D03*
Y99500D02*
D03*
Y79500D02*
D03*
Y59500D02*
D03*
X328000Y320957D02*
D03*
X328500Y301000D02*
D03*
Y281500D02*
D03*
Y261000D02*
D03*
Y240500D02*
D03*
Y220000D02*
D03*
Y200000D02*
D03*
Y180000D02*
D03*
X329000Y160000D02*
D03*
X328500Y140000D02*
D03*
Y119500D02*
D03*
Y99500D02*
D03*
Y79500D02*
D03*
Y59000D02*
D03*
X292000Y38500D02*
D03*
Y19000D02*
D03*
X139500Y120000D02*
D03*
X138500Y100000D02*
D03*
X139000Y80000D02*
D03*
Y60000D02*
D03*
X61500Y304500D02*
D03*
Y286000D02*
D03*
X94500Y328000D02*
D03*
X138000Y306000D02*
D03*
Y285000D02*
D03*
X94500Y265500D02*
D03*
Y245000D02*
D03*
Y223500D02*
D03*
Y202500D02*
D03*
Y181000D02*
D03*
Y159500D02*
D03*
Y139000D02*
D03*
X64000Y118500D02*
D03*
Y98598D02*
D03*
Y78000D02*
D03*
Y57099D02*
D03*
X102000Y38000D02*
D03*
Y18500D02*
D03*
D55*
X305500Y109000D02*
D03*
X89000Y126000D02*
D03*
X187000Y211500D02*
D03*
X225000Y278000D02*
D03*
X185757Y250757D02*
D03*
X380000Y126000D02*
D03*
X303500Y89000D02*
D03*
X245500Y380500D02*
D03*
X131500Y259000D02*
D03*
X282500Y146500D02*
D03*
X131150Y178350D02*
D03*
X209500Y119000D02*
D03*
X177000Y111500D02*
D03*
X287500Y285500D02*
D03*
X187500Y42914D02*
D03*
X183000D02*
D03*
X178500D02*
D03*
X191000D02*
D03*
X215500Y199500D02*
D03*
X262500Y213000D02*
D03*
X265000Y220500D02*
D03*
X297500Y131000D02*
D03*
X41500Y333000D02*
D03*
X379154Y327000D02*
D03*
X379000Y307500D02*
D03*
X379500Y287500D02*
D03*
Y268500D02*
D03*
X375500Y251000D02*
D03*
X380000Y226000D02*
D03*
X376500Y209500D02*
D03*
X379500Y186500D02*
D03*
X376000Y169500D02*
D03*
X373500Y149500D02*
D03*
X380000Y106500D02*
D03*
Y88000D02*
D03*
X379000Y67500D02*
D03*
X304000Y69000D02*
D03*
X344240Y43740D02*
D03*
X344740Y24740D02*
D03*
X89500Y317000D02*
D03*
X95500Y293500D02*
D03*
X15000Y314500D02*
D03*
X18500Y295000D02*
D03*
X42260Y271240D02*
D03*
X42130Y250370D02*
D03*
X46000Y233000D02*
D03*
Y212000D02*
D03*
Y190500D02*
D03*
Y169000D02*
D03*
Y148500D02*
D03*
X16500Y128000D02*
D03*
X14500Y107500D02*
D03*
Y87500D02*
D03*
X18000Y66500D02*
D03*
X87500Y108500D02*
D03*
X58000Y46000D02*
D03*
X57500Y26000D02*
D03*
X87500Y88500D02*
D03*
Y67500D02*
D03*
X197500Y24500D02*
D03*
X184500D02*
D03*
X170000D02*
D03*
X157500D02*
D03*
X149500Y26500D02*
D03*
X152000D02*
D03*
X149500Y24500D02*
D03*
X152000D02*
D03*
Y36500D02*
D03*
X149500D02*
D03*
X152000Y38500D02*
D03*
X149500D02*
D03*
M02*
