G04*
G04 #@! TF.GenerationSoftware,Altium Limited,Altium Designer,20.0.13 (296)*
G04*
G04 Layer_Color=65535*
%FSLAX25Y25*%
%MOIN*%
G70*
G01*
G75*
%ADD10C,0.02362*%
%ADD11C,0.00984*%
%ADD12C,0.00394*%
%ADD13C,0.00787*%
%ADD14C,0.00500*%
%ADD15C,0.01000*%
G36*
X218952Y49175D02*
X217755D01*
Y64923D01*
X218952D01*
Y49175D01*
D02*
G37*
G36*
X217157D02*
X216559D01*
Y64923D01*
X217157D01*
Y49175D01*
D02*
G37*
G36*
X214167D02*
X213569D01*
Y64923D01*
X214167D01*
Y49175D01*
D02*
G37*
G36*
X212373D02*
X210579D01*
Y64923D01*
X212373D01*
Y49175D01*
D02*
G37*
G36*
X209981D02*
X209383D01*
Y64923D01*
X209981D01*
Y49175D01*
D02*
G37*
G36*
X208785D02*
X207589D01*
Y64923D01*
X208785D01*
Y49175D01*
D02*
G37*
G36*
X205795D02*
X204599D01*
Y64923D01*
X205795D01*
Y49175D01*
D02*
G37*
G36*
X202805D02*
X202207D01*
Y64923D01*
X202805D01*
Y49175D01*
D02*
G37*
G36*
X200413D02*
X199814D01*
Y64923D01*
X200413D01*
Y49175D01*
D02*
G37*
G36*
X199216D02*
X198618D01*
Y64923D01*
X199216D01*
Y49175D01*
D02*
G37*
G36*
X198020D02*
X196824D01*
Y64923D01*
X198020D01*
Y49175D01*
D02*
G37*
G36*
X195030D02*
X194432D01*
Y64923D01*
X195030D01*
Y49175D01*
D02*
G37*
G36*
X192638D02*
X192040D01*
Y64923D01*
X192638D01*
Y49175D01*
D02*
G37*
G36*
X190246D02*
X189648D01*
Y64923D01*
X190246D01*
Y49175D01*
D02*
G37*
G36*
X189050D02*
X187854D01*
Y64923D01*
X189050D01*
Y49175D01*
D02*
G37*
G36*
X186060D02*
X185462D01*
Y64923D01*
X186060D01*
Y49175D01*
D02*
G37*
G36*
X184266D02*
X183070D01*
Y64923D01*
X184266D01*
Y49175D01*
D02*
G37*
G36*
X182472D02*
X181874D01*
Y64923D01*
X182472D01*
Y49175D01*
D02*
G37*
G36*
X179481D02*
X178285D01*
Y64923D01*
X179481D01*
Y49175D01*
D02*
G37*
G36*
X176491D02*
X174697D01*
Y64923D01*
X176491D01*
Y49175D01*
D02*
G37*
G36*
X174099D02*
X173501D01*
Y64923D01*
X174099D01*
Y49175D01*
D02*
G37*
G36*
X172903D02*
X171707D01*
Y64923D01*
X172903D01*
Y49175D01*
D02*
G37*
G36*
X286213Y351934D02*
Y351891D01*
Y351803D01*
Y351694D01*
Y351541D01*
Y351519D01*
Y351453D01*
Y351366D01*
Y351235D01*
Y351081D01*
Y350906D01*
Y350513D01*
Y350491D01*
Y350425D01*
Y350316D01*
Y350163D01*
Y349835D01*
Y349485D01*
Y349463D01*
Y349419D01*
Y349332D01*
Y349244D01*
Y349157D01*
Y349069D01*
Y349026D01*
Y349004D01*
X274250D01*
Y349026D01*
Y349069D01*
Y349113D01*
Y349201D01*
Y349332D01*
Y349485D01*
Y349507D01*
Y349572D01*
Y349660D01*
Y349791D01*
Y349944D01*
Y350119D01*
Y350513D01*
Y350535D01*
Y350600D01*
Y350710D01*
Y350863D01*
Y351191D01*
Y351541D01*
Y351563D01*
Y351606D01*
Y351759D01*
Y351934D01*
Y351978D01*
Y352000D01*
X286213D01*
Y351934D01*
D02*
G37*
G36*
X286738Y345745D02*
X282779Y341655D01*
X282954Y339840D01*
X283195Y337325D01*
X283304Y336276D01*
X287000Y332426D01*
X286738Y332164D01*
X283348Y335685D01*
X283435Y334832D01*
X284004D01*
Y334154D01*
X283479D01*
X283501Y334001D01*
X283457Y333913D01*
X283413Y333848D01*
X283326Y333760D01*
X283195Y333651D01*
X283063Y333564D01*
X282910Y333476D01*
X282757Y333411D01*
X282648Y333345D01*
Y332929D01*
X281751D01*
Y333104D01*
X281467Y333061D01*
X281183Y333017D01*
X280920Y332995D01*
X280745D01*
Y332711D01*
X278646D01*
Y333039D01*
X278383Y333061D01*
X278055Y333126D01*
X277749Y333192D01*
X277443Y333279D01*
X277158Y333389D01*
X276962Y333476D01*
X276809Y333586D01*
X276699Y333673D01*
X276656Y333607D01*
X276546Y333542D01*
X276415Y333498D01*
X276262Y333476D01*
X276109Y333498D01*
X275956Y333564D01*
X275846Y333651D01*
X275759Y333804D01*
X275715Y333892D01*
X275693Y334023D01*
X275715Y334132D01*
X275737Y334220D01*
X275781Y334329D01*
X275846Y334395D01*
X275912Y334460D01*
X275977Y334504D01*
X276021Y334548D01*
Y334745D01*
X273528Y332164D01*
X273244Y332426D01*
X275912Y335160D01*
X275628D01*
Y336625D01*
X276677D01*
X276874Y338922D01*
X277158Y342093D01*
X273659Y345723D01*
X273922Y346008D01*
X277202Y342618D01*
X277224Y342815D01*
X277071Y342880D01*
X276896Y342990D01*
X276743Y343143D01*
X276634Y343296D01*
X276546Y343471D01*
X276481Y343646D01*
X276437Y343821D01*
X276415Y344039D01*
X276437Y344236D01*
X276502Y344455D01*
X276612Y344695D01*
X276765Y344914D01*
X276918Y345067D01*
X277115Y345198D01*
X277355Y345286D01*
X277552Y345352D01*
X277815D01*
X278077Y345330D01*
X278361Y345242D01*
X278602Y345067D01*
X278777Y344870D01*
X278908Y344695D01*
X278996Y344520D01*
X281576D01*
Y345417D01*
X282407D01*
Y344520D01*
X282517D01*
X282735Y342180D01*
X286475Y346008D01*
X286738Y345745D01*
D02*
G37*
G36*
X309324Y350418D02*
X309616Y350309D01*
X309944Y350127D01*
X309981Y350090D01*
X310053Y350017D01*
X310163Y349908D01*
X310309Y349726D01*
X310454Y349543D01*
X310564Y349288D01*
X310637Y349033D01*
X310673Y348741D01*
Y348705D01*
Y348632D01*
X310637Y348450D01*
X310564Y348231D01*
X310454Y347939D01*
X310272Y347575D01*
X310053Y347174D01*
X309762Y346664D01*
X304805D01*
Y350454D01*
X309106D01*
X309324Y350418D01*
D02*
G37*
G36*
X303347Y348632D02*
X301706Y346664D01*
X301524Y346992D01*
X301233D01*
X301087Y347028D01*
X300358D01*
X299993Y347065D01*
X298754D01*
X298207Y347101D01*
X296348D01*
X296385Y347174D01*
X296421Y347283D01*
X296458Y347429D01*
X296567Y347648D01*
X296676Y347903D01*
X296859Y348231D01*
X297041Y348632D01*
Y348669D01*
X297077Y348741D01*
X297150Y348851D01*
X297223Y348996D01*
X297405Y349325D01*
X297551Y349653D01*
Y349689D01*
X297624Y349762D01*
X297697Y349835D01*
X297806Y349981D01*
X297989Y350090D01*
X298171Y350236D01*
X298426Y350345D01*
X298717Y350418D01*
X298827D01*
X298936Y350454D01*
X301561D01*
X301670Y350491D01*
X301998Y350673D01*
X303347Y348632D01*
D02*
G37*
G36*
X311074Y348377D02*
X311110Y348304D01*
X311220Y348195D01*
X311329Y348012D01*
X311475Y347830D01*
X311657Y347575D01*
X312022Y347028D01*
X312058Y346955D01*
X312168Y346810D01*
X312313Y346554D01*
X312459Y346226D01*
X312641Y345898D01*
X312787Y345570D01*
X312896Y345279D01*
X312933Y345023D01*
Y344951D01*
X312896Y344878D01*
X312860Y344732D01*
X312787Y344550D01*
X312678Y344331D01*
X312532Y344039D01*
X312350Y343711D01*
X312313Y343675D01*
X312240Y343529D01*
X312131Y343310D01*
X311985Y343055D01*
X311694Y342581D01*
X311584Y342363D01*
X311511Y342217D01*
Y341779D01*
X308960Y341634D01*
X308012Y343966D01*
X308377D01*
X308413Y344003D01*
X308486Y344112D01*
X308559Y344258D01*
X308668Y344440D01*
X308924Y344841D01*
X309033Y344987D01*
X309106Y345133D01*
Y345169D01*
X309142Y345206D01*
X309215Y345315D01*
X309324Y345461D01*
X309543Y345825D01*
X309798Y346299D01*
X310126Y346810D01*
X310454Y347356D01*
X310746Y347903D01*
X311038Y348413D01*
X311074Y348377D01*
D02*
G37*
G36*
X297770Y346773D02*
X298426D01*
X300832Y342363D01*
X297660Y340577D01*
X295619Y344477D01*
Y344513D01*
X295583Y344550D01*
X295437Y344768D01*
X295328Y345023D01*
X295291Y345242D01*
Y345279D01*
X295328Y345424D01*
X295401Y345643D01*
X295546Y345971D01*
Y346008D01*
X295619Y346117D01*
X295729Y346226D01*
X295874Y346372D01*
X296093Y346554D01*
X296385Y346664D01*
X296749Y346773D01*
X297187Y346810D01*
X297515D01*
X297770Y346773D01*
D02*
G37*
G36*
X309762Y339119D02*
X307283Y335619D01*
X307247Y335583D01*
X307210Y335510D01*
X307101Y335401D01*
X306955Y335255D01*
X306736Y335145D01*
X306481Y335036D01*
X306190Y334963D01*
X305862Y334927D01*
X305716D01*
X305570Y334963D01*
X305388Y335000D01*
X305169Y335109D01*
X304950Y335218D01*
X304732Y335401D01*
X304513Y335619D01*
X304477Y335692D01*
X304404Y335802D01*
X304331Y335947D01*
X304221Y336130D01*
X304112Y336385D01*
X304003Y336676D01*
X303857Y337041D01*
X306591Y341123D01*
X309762Y339119D01*
D02*
G37*
G36*
X302508Y339993D02*
X302326Y339702D01*
X304513Y334927D01*
X301670D01*
X301524Y335000D01*
X301342Y335036D01*
X301087Y335145D01*
X300868Y335255D01*
X300649Y335364D01*
X300503Y335510D01*
X300394Y335656D01*
X300358Y335729D01*
X300248Y335911D01*
X300103Y336166D01*
X299884Y336531D01*
X299702Y336932D01*
X299483Y337333D01*
X299264Y337770D01*
X299082Y338171D01*
X298754Y338353D01*
X299957Y340577D01*
X302508Y339993D01*
D02*
G37*
G36*
X274416Y374456D02*
X274591D01*
X275028Y374325D01*
X275465Y374063D01*
X275553Y373975D01*
X275684Y373756D01*
X275815Y373407D01*
X275903Y372925D01*
Y372882D01*
X275465D01*
Y372925D01*
Y372969D01*
X275422Y373188D01*
X275334Y373494D01*
X275116Y373756D01*
X275028Y373800D01*
X274853Y373931D01*
X274503Y374063D01*
X274110Y374106D01*
X274022D01*
X273803Y374063D01*
X273541Y373975D01*
X273235Y373844D01*
X273191Y373800D01*
X273060Y373669D01*
X272929Y373450D01*
X272885Y373144D01*
Y373057D01*
X272929Y372925D01*
X272972Y372707D01*
X273103Y372532D01*
X273147Y372488D01*
X273322Y372400D01*
X273628Y372269D01*
X274066Y372138D01*
X274503Y372007D01*
X274547D01*
X274634Y371963D01*
X274941Y371876D01*
X275290Y371744D01*
X275422Y371613D01*
X275553Y371526D01*
X275597Y371482D01*
X275684Y371307D01*
X275772Y371044D01*
X275815Y370695D01*
Y370651D01*
Y370607D01*
X275772Y370345D01*
X275640Y370082D01*
X275378Y369776D01*
X275334D01*
X275290Y369732D01*
X275072Y369557D01*
X274678Y369426D01*
X274241Y369382D01*
X273978D01*
X273803Y369426D01*
X273410Y369557D01*
X273060Y369820D01*
X272972Y369864D01*
X272841Y370082D01*
X272710Y370388D01*
X272622Y370870D01*
X273060D01*
Y370826D01*
Y370782D01*
X273103Y370607D01*
X273191Y370345D01*
X273366Y370082D01*
X273410Y370039D01*
X273585Y369951D01*
X273847Y369864D01*
X274241Y369820D01*
X274547D01*
X274809Y369907D01*
X275072Y369995D01*
X275116Y370039D01*
X275203Y370170D01*
X275290Y370432D01*
X275334Y370738D01*
Y370782D01*
X275290Y370913D01*
X275247Y371088D01*
X275159Y371263D01*
X275116Y371307D01*
X274984Y371351D01*
X274809Y371438D01*
X274547Y371526D01*
X273978Y371701D01*
X273935D01*
X273847Y371744D01*
X273716Y371788D01*
X273541Y371832D01*
X273147Y372007D01*
X272841Y372225D01*
X272797Y372313D01*
X272622Y372488D01*
X272491Y372750D01*
X272447Y373100D01*
Y373144D01*
Y373188D01*
X272491Y373450D01*
X272622Y373800D01*
X272885Y374106D01*
X272972Y374150D01*
X273191Y374281D01*
X273585Y374456D01*
X274110Y374500D01*
X274241D01*
X274416Y374456D01*
D02*
G37*
G36*
X288500Y369514D02*
X286269D01*
X286182Y369557D01*
X286051D01*
X285919Y369601D01*
X285788Y369645D01*
X285657Y369732D01*
X285613Y369776D01*
X285482Y369864D01*
X285351Y369995D01*
X285220Y370170D01*
X285176Y370214D01*
X285132Y370345D01*
X285088Y370520D01*
X285045Y370782D01*
Y370870D01*
X285088Y371044D01*
X285132Y371307D01*
X285263Y371569D01*
X285307Y371613D01*
X285438Y371744D01*
X285613Y371876D01*
X285832Y372007D01*
X285788D01*
X285657Y372051D01*
X285395Y372269D01*
Y372313D01*
X285351Y372444D01*
X285307Y372707D01*
X285263Y373100D01*
X285176Y373844D01*
Y373888D01*
Y374019D01*
X285132Y374063D01*
Y374106D01*
X285088Y374194D01*
X285001Y374281D01*
Y374369D01*
X285526D01*
Y374325D01*
Y374238D01*
X285569Y374150D01*
Y374106D01*
X285613Y374019D01*
Y373975D01*
Y373844D01*
X285657Y373232D01*
Y373188D01*
Y373144D01*
X285701Y372882D01*
X285788Y372575D01*
X285919Y372357D01*
X285963Y372313D01*
X286051Y372269D01*
X286269Y372225D01*
X288063D01*
Y374369D01*
X288500D01*
Y369514D01*
D02*
G37*
G36*
X280408D02*
X279971D01*
Y371613D01*
X277215D01*
Y369514D01*
X276778D01*
Y374369D01*
X277215D01*
Y372051D01*
X279971D01*
Y374369D01*
X280408D01*
Y369514D01*
D02*
G37*
G36*
X283076Y374412D02*
X283251D01*
X283645Y374238D01*
X283820Y374150D01*
X283995Y373975D01*
Y373931D01*
X284082Y373888D01*
X284213Y373625D01*
X284345Y373188D01*
X284432Y372619D01*
Y372575D01*
Y372488D01*
X284388Y372313D01*
Y372138D01*
X284257Y371657D01*
X283995Y371263D01*
Y371219D01*
X283907Y371176D01*
X283689Y371001D01*
X283339Y370870D01*
X283076Y370782D01*
X282683D01*
X282551Y370826D01*
X282376D01*
X281983Y371001D01*
X281808Y371088D01*
X281633Y371263D01*
Y371307D01*
X281589Y371351D01*
X281502Y371482D01*
X281414Y371613D01*
X281283Y372051D01*
X281239Y372619D01*
Y372663D01*
Y372750D01*
Y372925D01*
X281283Y373100D01*
X281414Y373538D01*
X281633Y373975D01*
X281720Y374063D01*
X281939Y374194D01*
X282333Y374369D01*
X282551Y374412D01*
X282814Y374456D01*
X282945D01*
X283076Y374412D01*
D02*
G37*
G36*
X283820Y369514D02*
X283864Y369426D01*
X283951Y369251D01*
X284082Y368945D01*
X284170Y368726D01*
X284301Y368464D01*
X284432Y368201D01*
X284563Y367851D01*
X284738Y367458D01*
X284957Y367021D01*
Y366977D01*
X285001Y366889D01*
X285045Y366802D01*
X285132Y366627D01*
X285351Y366189D01*
X285613Y365752D01*
X285963Y365271D01*
X286269Y364877D01*
X286444Y364702D01*
X286619Y364615D01*
X286794Y364527D01*
X286969D01*
X286882Y364440D01*
X286794Y364352D01*
X286663Y364221D01*
X286488Y364046D01*
X286226Y363827D01*
X286182Y363784D01*
X286094Y363740D01*
X285963Y363609D01*
X285788Y363477D01*
X285613Y363390D01*
X285395Y363303D01*
X285176Y363259D01*
X285001Y363303D01*
X284913Y363346D01*
X284738Y363434D01*
X284520Y363609D01*
X284257Y363871D01*
X284213Y363915D01*
X284170Y364002D01*
X284082Y364177D01*
X283951Y364396D01*
X283645Y364877D01*
X283382Y365446D01*
Y365490D01*
X283339Y365533D01*
X283208Y365796D01*
X283076Y366014D01*
X283032Y366102D01*
Y366146D01*
X282989Y366102D01*
X282945Y366058D01*
X282857Y365927D01*
X282726Y365665D01*
X282464Y365358D01*
X282158Y364877D01*
X281939Y364615D01*
X281720Y364265D01*
Y364221D01*
X281677Y364177D01*
X281458Y363915D01*
X281195Y363565D01*
X280802Y363040D01*
X280321Y362428D01*
X279708Y361772D01*
X279052Y361028D01*
X278352Y360241D01*
X278309Y360197D01*
X278265Y360153D01*
X278002Y359891D01*
X277609Y359497D01*
X277084Y359060D01*
X276515Y358535D01*
X275815Y357966D01*
X275116Y357441D01*
X274372Y356960D01*
X274328D01*
X274285Y356916D01*
X274153Y356829D01*
X274110Y356785D01*
X273978Y356742D01*
X273803Y356654D01*
X273628Y356610D01*
Y356654D01*
X273585Y356742D01*
X273497Y356873D01*
X273453Y356916D01*
X273410Y356960D01*
X273366Y357004D01*
Y357048D01*
X273497Y357135D01*
X273585Y357266D01*
X273760Y357398D01*
X273978Y357616D01*
X274285Y357923D01*
X274328Y357966D01*
X274460Y358054D01*
X274634Y358229D01*
X274853Y358491D01*
X275422Y359060D01*
X276078Y359716D01*
Y359760D01*
X276165Y359803D01*
X276428Y360066D01*
X276778Y360503D01*
X277259Y361028D01*
X277827Y361684D01*
X278396Y362428D01*
X279008Y363259D01*
X279621Y364134D01*
Y364177D01*
X279664Y364221D01*
X279752Y364352D01*
X279883Y364527D01*
X280146Y364965D01*
X280452Y365490D01*
X280802Y366102D01*
X281152Y366714D01*
X281502Y367370D01*
X281764Y367983D01*
X283820Y369557D01*
Y369514D01*
D02*
G37*
G36*
X310535Y369478D02*
X310688Y369434D01*
X310885Y369391D01*
X311082Y369303D01*
X311278Y369194D01*
X311475Y369041D01*
X311497Y369019D01*
X311541Y368975D01*
X311650Y368866D01*
X311672Y368844D01*
X311694Y368800D01*
X311781Y368647D01*
X311803Y368625D01*
X311825Y368560D01*
X311869Y368450D01*
X311934Y368297D01*
X311978Y368122D01*
X312000Y367925D01*
Y367707D01*
X311978Y367466D01*
Y367444D01*
X311956Y367379D01*
X311934Y367291D01*
X311912Y367226D01*
Y367204D01*
X311891Y367160D01*
X311847Y367094D01*
X311803Y367007D01*
Y366985D01*
Y366963D01*
X311781D01*
X305198Y355547D01*
Y355525D01*
X305155Y355481D01*
X305067Y355350D01*
X304892Y355153D01*
X304695Y354978D01*
X304652Y354956D01*
X304564Y354913D01*
X304542Y354891D01*
X304499Y354869D01*
X304411Y354825D01*
X304324Y354782D01*
X304192Y354738D01*
X304039Y354716D01*
X303886Y354672D01*
X303602D01*
X303471Y354694D01*
X303318Y354738D01*
X303143Y354782D01*
X302946Y354869D01*
X302771Y354978D01*
X302574Y355131D01*
X302552Y355153D01*
X302508Y355197D01*
X302399Y355306D01*
X302377Y355328D01*
X302355Y355372D01*
X302268Y355503D01*
X295663Y366941D01*
X295641Y366963D01*
X295619Y367029D01*
X295576Y367160D01*
X295510Y367313D01*
X295466Y367488D01*
X295444Y367707D01*
Y367925D01*
X295466Y368166D01*
Y368188D01*
X295488Y368232D01*
X295510Y368319D01*
X295532Y368407D01*
Y368428D01*
X295554Y368472D01*
X295598Y368538D01*
X295641Y368647D01*
X295663D01*
X295685Y368669D01*
X295729Y368735D01*
X295794Y368844D01*
X295904Y368953D01*
X296035Y369085D01*
X296188Y369216D01*
X296385Y369325D01*
X296603Y369412D01*
X296625D01*
X296691Y369434D01*
X296778Y369456D01*
X296866D01*
X296888Y369478D01*
X296975D01*
X297085Y369500D01*
X310403D01*
X310535Y369478D01*
D02*
G37*
%LPC*%
G36*
X282035Y345045D02*
X281948D01*
Y344520D01*
X282035D01*
Y345045D01*
D02*
G37*
G36*
X277771Y344673D02*
X277749D01*
X277661Y344652D01*
X277552Y344630D01*
X277443Y344586D01*
X277312Y344520D01*
X277224Y344389D01*
X277137Y344236D01*
X277115Y344018D01*
Y343996D01*
Y343908D01*
X277158Y343799D01*
X277202Y343689D01*
X277268Y343558D01*
X277399Y343471D01*
X277552Y343383D01*
X277771Y343361D01*
X277880D01*
X277968Y343405D01*
X278099Y343449D01*
X278208Y343514D01*
X278318Y343646D01*
X278405Y343799D01*
X278427Y344018D01*
Y344039D01*
X278405Y344127D01*
X278383Y344214D01*
X278340Y344345D01*
X278274Y344455D01*
X278143Y344564D01*
X277990Y344652D01*
X277771Y344673D01*
D02*
G37*
G36*
X282167Y344127D02*
X279083D01*
X279105Y343930D01*
X279039Y343646D01*
X278930Y343383D01*
X278777Y343164D01*
X278624Y343011D01*
X278449Y342880D01*
X278208Y342771D01*
X277968Y342705D01*
X277771Y342683D01*
X277596Y342705D01*
X277552Y342224D01*
X280155Y339534D01*
X282385Y341830D01*
X282167Y344127D01*
D02*
G37*
G36*
X280417Y337303D02*
X278449D01*
Y337172D01*
X280417D01*
Y337303D01*
D02*
G37*
G36*
X282429Y341327D02*
X280417Y339250D01*
X282867Y336713D01*
X282429Y341327D01*
D02*
G37*
G36*
X277508Y341721D02*
X277071Y336625D01*
X277115D01*
Y336407D01*
X278033Y337347D01*
Y337675D01*
X278361D01*
X279892Y339250D01*
X277508Y341721D01*
D02*
G37*
G36*
X276743Y336254D02*
X276021D01*
Y335532D01*
X276743D01*
Y336254D01*
D02*
G37*
G36*
X280155Y338987D02*
X278886Y337675D01*
X280789D01*
Y336800D01*
X278033D01*
X277115Y335860D01*
Y335160D01*
X276962D01*
X276918Y334832D01*
X283042D01*
X282932Y336101D01*
X280155Y338987D01*
D02*
G37*
G36*
X276284Y334220D02*
X276262D01*
X276174Y334198D01*
X276109Y334154D01*
X276087Y334045D01*
Y334023D01*
X276109Y333935D01*
X276174Y333870D01*
X276284Y333848D01*
X276306D01*
X276371Y333870D01*
X276437Y333935D01*
X276459Y334045D01*
Y334067D01*
X276437Y334132D01*
X276393Y334198D01*
X276284Y334220D01*
D02*
G37*
G36*
X283107Y334154D02*
X282648D01*
Y333782D01*
X282867Y333892D01*
X282998Y333979D01*
X283107Y334088D01*
Y334154D01*
D02*
G37*
G36*
X281751D02*
X276874D01*
Y334067D01*
X277027Y333913D01*
X277224Y333804D01*
X277486Y333673D01*
X277815Y333586D01*
X278208Y333498D01*
X278646Y333432D01*
Y333673D01*
X280745D01*
Y333389D01*
X281117Y333411D01*
X281445Y333454D01*
X281751Y333520D01*
Y334154D01*
D02*
G37*
G36*
X282276Y333804D02*
X282123D01*
Y333301D01*
X282276D01*
Y333804D01*
D02*
G37*
G36*
X280351Y333301D02*
X279017D01*
Y333083D01*
X280351D01*
Y333301D01*
D02*
G37*
%LPD*%
G36*
X277990Y344389D02*
X278077Y344345D01*
X278143Y344280D01*
X278186Y344170D01*
X278208Y344018D01*
Y343996D01*
Y343952D01*
X278143Y343799D01*
X278099Y343711D01*
X278033Y343646D01*
X277924Y343602D01*
X277771Y343580D01*
X277705D01*
X277552Y343624D01*
X277465Y343689D01*
X277399Y343755D01*
X277355Y343864D01*
X277333Y344018D01*
Y344039D01*
Y344083D01*
X277377Y344236D01*
X277443Y344324D01*
X277508Y344389D01*
X277618Y344433D01*
X277771Y344455D01*
X277836D01*
X277990Y344389D01*
D02*
G37*
%LPC*%
G36*
X277771Y344083D02*
X277727D01*
X277705Y344061D01*
Y344018D01*
Y343996D01*
Y343974D01*
X277727Y343952D01*
X277793D01*
X277815Y343974D01*
X277836Y344018D01*
Y344039D01*
X277815Y344061D01*
X277771Y344083D01*
D02*
G37*
G36*
X288063Y371788D02*
X286663D01*
X286401Y371744D01*
X286094Y371701D01*
X285788Y371569D01*
X285744Y371526D01*
X285657Y371394D01*
X285569Y371176D01*
X285526Y370826D01*
Y370782D01*
Y370695D01*
X285569Y370563D01*
X285613Y370388D01*
Y370345D01*
X285657Y370301D01*
X285876Y370082D01*
X285919D01*
X285963Y370039D01*
X286226Y369995D01*
X286269D01*
X286357Y369951D01*
X286532Y369907D01*
X288063D01*
Y371788D01*
D02*
G37*
G36*
X282814Y374106D02*
X282726D01*
X282508Y374063D01*
X282201Y373931D01*
X281983Y373713D01*
X281939Y373625D01*
X281808Y373407D01*
X281677Y373057D01*
X281633Y372619D01*
Y372575D01*
Y372488D01*
X281677Y372182D01*
X281764Y371832D01*
X281983Y371526D01*
X282027Y371482D01*
X282201Y371307D01*
X282464Y371176D01*
X282814Y371132D01*
X282901D01*
X283120Y371176D01*
X283426Y371307D01*
X283689Y371526D01*
X283732Y371613D01*
X283820Y371788D01*
X283951Y372138D01*
X283995Y372619D01*
Y372663D01*
Y372750D01*
X283951Y373013D01*
X283864Y373363D01*
X283689Y373713D01*
X283645Y373756D01*
X283470Y373888D01*
X283208Y374063D01*
X282814Y374106D01*
D02*
G37*
G36*
X304827Y366701D02*
X304824Y366676D01*
X304827Y366679D01*
Y366701D01*
D02*
G37*
G36*
X305942Y367466D02*
X305855D01*
X305833Y367444D01*
Y367422D01*
Y367379D01*
Y367357D01*
X305811Y367335D01*
Y367269D01*
Y367247D01*
Y367226D01*
Y367204D01*
X305833Y367182D01*
Y367160D01*
X305855Y367116D01*
X305920Y366985D01*
Y366963D01*
X305942Y366941D01*
X305964Y366919D01*
X305986Y366876D01*
Y366854D01*
X306008Y366832D01*
X306095Y366744D01*
X306226Y366657D01*
X306292Y366613D01*
X306401D01*
X306467Y366635D01*
X306489D01*
X306467Y366722D01*
Y366744D01*
X306445Y366788D01*
X306401Y366876D01*
X306379Y366963D01*
X306292Y367160D01*
X306248Y367247D01*
X306204Y367313D01*
X306183Y367335D01*
X306139Y367379D01*
X306051Y367422D01*
X305942Y367466D01*
D02*
G37*
G36*
X303143Y367072D02*
X303055D01*
X302990Y367051D01*
X302924Y367007D01*
X302902D01*
X302880Y366985D01*
Y366941D01*
X302858Y366919D01*
Y366876D01*
Y366854D01*
Y366788D01*
Y366701D01*
X302924Y366591D01*
X302946D01*
X302968Y366569D01*
X303011D01*
X303033Y366548D01*
X303055D01*
X303099Y366526D01*
X303165Y366504D01*
X303208Y366482D01*
Y366504D01*
X303230Y366591D01*
Y366613D01*
X303274Y366701D01*
X303318Y366832D01*
X303405Y366985D01*
X303383Y367007D01*
X303340Y367029D01*
X303252Y367051D01*
X303143Y367072D01*
D02*
G37*
G36*
X304499Y367422D02*
X304236D01*
X304149Y367379D01*
X304105Y367357D01*
X304061Y367335D01*
X303996Y367291D01*
X303974Y367269D01*
X303908Y367204D01*
X303821Y367116D01*
X303689Y366941D01*
Y366919D01*
X303667Y366898D01*
X303580Y366788D01*
X303514Y366657D01*
X303471Y366526D01*
X303493Y366504D01*
X303536Y366482D01*
X303646Y366460D01*
X303777Y366416D01*
X303842D01*
X303974Y366438D01*
X304061D01*
X304170Y366460D01*
X304258Y366482D01*
X304345D01*
X304367Y366504D01*
X304411D01*
X304433Y366526D01*
X304499Y366548D01*
X304586Y366613D01*
X304674Y366679D01*
X304695Y366722D01*
X304739Y366788D01*
X304783Y366898D01*
X304805Y366919D01*
X304827Y367029D01*
Y367072D01*
X304783Y367160D01*
X304739Y367269D01*
X304674Y367357D01*
X304630Y367379D01*
X304586Y367401D01*
X304499Y367422D01*
D02*
G37*
G36*
X304824Y366676D02*
X304805Y366657D01*
X304783Y366613D01*
X304761Y366591D01*
X304739Y366569D01*
X304674Y366526D01*
X304564Y366460D01*
X304433Y366394D01*
X304411D01*
X304389Y366373D01*
X304324D01*
X304302Y366351D01*
X304280D01*
X304236Y366329D01*
X304192D01*
X304061Y366307D01*
X303755D01*
X303733Y366329D01*
X303646Y366351D01*
X303580D01*
X303449Y366394D01*
Y366373D01*
X303427Y366351D01*
X303405Y366285D01*
Y366263D01*
X303383Y366241D01*
X303361Y366154D01*
X303318Y366066D01*
Y366044D01*
X303296Y366023D01*
X303230Y365935D01*
X303121Y365804D01*
X302990Y365673D01*
X302968D01*
X302924Y365629D01*
X302836Y365563D01*
X302705Y365476D01*
X302683D01*
X302661Y365454D01*
X302552Y365367D01*
X302443Y365279D01*
X302333Y365192D01*
X303230Y364667D01*
X303274Y364689D01*
X303383Y364776D01*
X303536Y364907D01*
X303755Y365060D01*
X303777D01*
X303799Y365104D01*
X303930Y365213D01*
X304105Y365367D01*
X304280Y365563D01*
X304302Y365585D01*
X304367Y365673D01*
X304455Y365782D01*
X304542Y365935D01*
X304652Y366110D01*
X304739Y366307D01*
X304805Y366504D01*
X304824Y366676D01*
D02*
G37*
G36*
X302530Y366394D02*
X302421D01*
X302333Y366373D01*
X302268Y366329D01*
Y366307D01*
Y366285D01*
X302246Y366219D01*
X302224Y366154D01*
Y366110D01*
Y366088D01*
Y366066D01*
Y366023D01*
X302268Y365979D01*
Y365957D01*
X302290D01*
Y365935D01*
Y365913D01*
X302333Y365891D01*
X302399Y365804D01*
X302508Y365717D01*
X302552Y365673D01*
X302574D01*
X302596Y365695D01*
X302683Y365738D01*
X302771Y365804D01*
X302836Y365848D01*
X302858Y365870D01*
X302924Y365935D01*
X303011Y366044D01*
X303099Y366176D01*
Y366198D01*
X303121Y366219D01*
Y366241D01*
X303099D01*
X303077Y366263D01*
X302968Y366329D01*
X302924D01*
X302836Y366351D01*
X302705Y366373D01*
X302530Y366394D01*
D02*
G37*
G36*
X303886Y364864D02*
X303864D01*
X303842Y364820D01*
X303733Y364754D01*
X303602Y364645D01*
X303471Y364535D01*
X304061Y364208D01*
Y364229D01*
Y364273D01*
X304083Y364317D01*
Y364361D01*
Y364382D01*
Y364426D01*
X304039Y364557D01*
Y364579D01*
X304017Y364623D01*
X303996Y364645D01*
X303974Y364710D01*
X303930Y364798D01*
X303886Y364864D01*
D02*
G37*
G36*
X304542Y365498D02*
Y365476D01*
X304521Y365454D01*
X304499Y365432D01*
X304477Y365410D01*
X304433Y365367D01*
X304345Y365279D01*
X304214Y365148D01*
X304061Y365017D01*
X304083Y364995D01*
X304105Y364951D01*
X304170Y364842D01*
X304236Y364710D01*
X304258Y364667D01*
Y364645D01*
X304280Y364579D01*
X304302Y364492D01*
X304324Y364382D01*
Y364361D01*
Y364295D01*
X304302Y364186D01*
X304280Y364076D01*
X304695Y363836D01*
Y363858D01*
X304739Y363879D01*
X304805Y364011D01*
Y364033D01*
Y364076D01*
X304827Y364164D01*
Y364251D01*
Y364273D01*
Y364317D01*
Y364448D01*
Y364579D01*
Y364623D01*
Y364645D01*
Y364689D01*
Y364776D01*
X304805Y364885D01*
X304783Y364995D01*
Y365017D01*
X304761Y365082D01*
X304739Y365126D01*
X304717Y365170D01*
Y365192D01*
X304674Y365257D01*
X304630Y365367D01*
X304542Y365498D01*
D02*
G37*
G36*
X304958Y366132D02*
X304936Y366088D01*
X304892Y366001D01*
X304827Y365870D01*
X304717Y365695D01*
X304739Y365651D01*
X304783Y365563D01*
X304870Y365432D01*
X304936Y365279D01*
Y365257D01*
X304958Y365213D01*
X304980Y365170D01*
X305002D01*
Y365148D01*
Y365126D01*
X305024Y365060D01*
Y365038D01*
Y365017D01*
X305045Y364951D01*
X305067Y364820D01*
Y364645D01*
Y364623D01*
Y364579D01*
Y364470D01*
Y364448D01*
Y364404D01*
Y364251D01*
Y364229D01*
Y364142D01*
Y364054D01*
X305045Y363945D01*
Y363923D01*
X305002Y363858D01*
X304914Y363704D01*
X305286Y363508D01*
Y363529D01*
X305308Y363617D01*
X305373Y363748D01*
X305483Y363923D01*
X305505Y363945D01*
X305548Y364033D01*
X305614Y364142D01*
X305636Y364229D01*
Y364251D01*
Y364339D01*
X305614Y364470D01*
X305592Y364579D01*
X305548Y364710D01*
Y364732D01*
X305526Y364776D01*
X305505Y364842D01*
X305483Y364929D01*
X305439Y365126D01*
Y365192D01*
Y365257D01*
Y365301D01*
X305461Y365388D01*
X305483Y365542D01*
Y365717D01*
Y365760D01*
X305461Y365782D01*
X305439D01*
X305417Y365804D01*
X305373Y365826D01*
X305330Y365870D01*
X305308D01*
X305286Y365891D01*
X305242Y365935D01*
X305220Y365957D01*
X305177Y366001D01*
X305089Y366044D01*
X305067D01*
X305045Y366088D01*
X304958Y366132D01*
D02*
G37*
G36*
X305701Y367379D02*
X305680Y367357D01*
X305636Y367335D01*
X305614Y367313D01*
X305548Y367226D01*
X305483Y367116D01*
X305439Y366963D01*
Y366919D01*
Y366876D01*
X305461Y366810D01*
Y366701D01*
X305505Y366548D01*
X305548Y366373D01*
X305614Y366154D01*
X305636Y366132D01*
Y366088D01*
X305658Y366001D01*
X305680Y365979D01*
Y365935D01*
X305701Y365870D01*
Y365848D01*
X305723Y365804D01*
Y365782D01*
Y365717D01*
Y365695D01*
Y365673D01*
Y365542D01*
Y365388D01*
X305680Y365192D01*
Y365170D01*
Y365126D01*
X305701Y364995D01*
X305723Y364907D01*
X305767Y364798D01*
Y364776D01*
X305789Y364732D01*
X305811Y364645D01*
X305833Y364557D01*
X305876Y364361D01*
X305898Y364251D01*
Y364186D01*
Y364164D01*
X305855Y364076D01*
X305789Y363945D01*
X305680Y363792D01*
Y363770D01*
X305658Y363748D01*
X305592Y363639D01*
X305526Y363486D01*
X305505Y363354D01*
X306751Y362633D01*
Y362655D01*
Y362677D01*
X306795Y362808D01*
X306861Y363026D01*
X306992Y363289D01*
Y363311D01*
X307014Y363333D01*
X307079Y363464D01*
X307123Y363617D01*
X307167Y363726D01*
Y363770D01*
X307189Y363814D01*
Y363879D01*
X307167Y363989D01*
Y364098D01*
X307123Y364251D01*
X307079Y364426D01*
Y364448D01*
X307057Y364514D01*
X307035Y364579D01*
X307014Y364645D01*
Y364667D01*
Y364710D01*
X306992Y364820D01*
X306948Y365017D01*
X306904Y365301D01*
Y365323D01*
Y365345D01*
X306882Y365498D01*
X306861Y365651D01*
X306817Y365826D01*
X306795Y365870D01*
X306773Y365957D01*
X306708Y366088D01*
X306642Y366241D01*
X306620Y366263D01*
X306598Y366351D01*
X306576Y366438D01*
X306533Y366526D01*
X306489D01*
X306467Y366504D01*
X306336D01*
X306204Y366548D01*
X306117Y366591D01*
X306030Y366635D01*
X305964Y366722D01*
X305876Y366832D01*
X305855Y366876D01*
X305811Y366919D01*
X305789Y366941D01*
X305767Y366985D01*
X305701Y367138D01*
Y367182D01*
Y367269D01*
Y367291D01*
Y367313D01*
Y367357D01*
Y367379D01*
D02*
G37*
G36*
X296538Y367707D02*
Y367663D01*
Y367575D01*
Y367554D01*
Y367488D01*
Y367444D01*
X296560Y367357D01*
X296603Y367247D01*
X296669Y367116D01*
Y367094D01*
X299272Y362567D01*
X299293D01*
X299315Y362611D01*
X299403Y362677D01*
X299425Y362698D01*
X299468Y362764D01*
X299556Y362852D01*
X299643Y363005D01*
X299665Y363026D01*
X299687Y363092D01*
X299753Y363223D01*
X299818Y363420D01*
Y363442D01*
X299840Y363464D01*
X299884Y363595D01*
X299950Y363748D01*
X300037Y363879D01*
Y363901D01*
X300081Y363945D01*
X300168Y364054D01*
X300190Y364076D01*
X300234Y364120D01*
X300343Y364251D01*
X300365Y364273D01*
X300431Y364339D01*
X300540Y364426D01*
X300649Y364535D01*
X300956Y364754D01*
X301131Y364864D01*
X301284Y364951D01*
X296538Y367707D01*
D02*
G37*
G36*
X309988Y368494D02*
X297435D01*
Y368472D01*
X297282D01*
X297238Y368450D01*
X297150D01*
X297085Y368407D01*
X296932Y368319D01*
X302115Y365323D01*
X302137Y365345D01*
X302180Y365388D01*
X302268Y365454D01*
X302355Y365542D01*
X302333Y365563D01*
X302290Y365585D01*
X302202Y365673D01*
X302093Y365782D01*
X302071Y365804D01*
X302049Y365826D01*
X302005Y365891D01*
X301983Y366001D01*
X301962Y366110D01*
Y366132D01*
X301983Y366198D01*
X302005Y366285D01*
X302027Y366394D01*
X302049Y366416D01*
X302071Y366482D01*
X302093Y366504D01*
X302180Y366548D01*
X302312Y366613D01*
X302508Y366635D01*
X302618D01*
Y366657D01*
X302596Y366722D01*
Y366832D01*
X302618Y366941D01*
Y366963D01*
Y366985D01*
X302640Y367051D01*
X302661Y367094D01*
X302705Y367138D01*
X302727Y367160D01*
X302749Y367182D01*
X302771Y367204D01*
X302858Y367269D01*
X302990Y367313D01*
X303165Y367335D01*
X303208D01*
X303296Y367313D01*
X303427Y367269D01*
X303558Y367182D01*
X303580Y367204D01*
X303646Y367291D01*
X303733Y367401D01*
X303842Y367488D01*
X303864D01*
X303886Y367532D01*
X303952Y367554D01*
X304039Y367597D01*
X304061D01*
X304105Y367619D01*
X304258Y367663D01*
X304542D01*
X304630Y367641D01*
X304739Y367597D01*
X304827Y367532D01*
Y367510D01*
X304870Y367488D01*
X304914Y367422D01*
X304958Y367357D01*
X305002Y367247D01*
X305045Y367116D01*
X305067Y366985D01*
X305089Y366810D01*
Y366788D01*
Y366766D01*
Y366744D01*
Y366722D01*
Y366635D01*
X305067Y366526D01*
X305045Y366394D01*
X305067Y366373D01*
X305111Y366329D01*
X305220Y366263D01*
X305242Y366241D01*
X305264Y366219D01*
X305351Y366176D01*
Y366198D01*
X305330Y366263D01*
X305286Y366373D01*
X305264Y366504D01*
X305220Y366766D01*
X305198Y366898D01*
Y366985D01*
Y367007D01*
Y367029D01*
X305242Y367182D01*
X305330Y367357D01*
X305395Y367444D01*
X305483Y367532D01*
X305505Y367554D01*
X305548Y367575D01*
X305701Y367663D01*
X305723D01*
X305789Y367685D01*
X305876Y367707D01*
X306008D01*
X306095Y367663D01*
X306248Y367597D01*
X306379Y367466D01*
X306401Y367422D01*
X306445Y367379D01*
X306467Y367313D01*
X306533Y367226D01*
X306576Y367116D01*
X306642Y366963D01*
X306708Y366788D01*
Y366766D01*
Y366744D01*
X306729Y366722D01*
Y366701D01*
Y366679D01*
X306751Y366635D01*
X306795Y366526D01*
X306839Y366460D01*
X306882Y366351D01*
Y366329D01*
X306904Y366307D01*
X306948Y366176D01*
X306992Y366044D01*
X307035Y365913D01*
Y365891D01*
X307079Y365782D01*
X307101Y365695D01*
Y365607D01*
X307123Y365476D01*
X307145Y365323D01*
Y365301D01*
Y365257D01*
X307167Y365192D01*
X307189Y365104D01*
X307210Y364907D01*
X307254Y364732D01*
Y364710D01*
Y364689D01*
X307276Y364667D01*
X307298Y364579D01*
X307320Y364492D01*
Y364470D01*
X307342Y364404D01*
X307364Y364295D01*
X307385Y364164D01*
X307429Y363901D01*
Y363770D01*
X307407Y363661D01*
Y363639D01*
X307364Y363551D01*
X307298Y363398D01*
X307210Y363201D01*
Y363180D01*
X307189Y363136D01*
X307145Y363048D01*
X307101Y362961D01*
X307035Y362720D01*
X306992Y362502D01*
X307845Y362020D01*
X310797Y367116D01*
Y367138D01*
Y367160D01*
X310819Y367182D01*
X310841Y367269D01*
X310863Y367291D01*
X310885Y367401D01*
Y367422D01*
Y367466D01*
X310907Y367532D01*
Y367619D01*
X310885Y367816D01*
X310797Y368035D01*
X310775D01*
X310753Y368078D01*
X310710Y368144D01*
X310688Y368166D01*
X310622Y368253D01*
X310600D01*
X310578Y368297D01*
X310447Y368363D01*
X310250Y368450D01*
X310119Y368472D01*
X309988Y368494D01*
D02*
G37*
G36*
X301568Y364798D02*
X301546D01*
X301481Y364776D01*
X301393Y364732D01*
X301262Y364667D01*
X301109Y364579D01*
X300934Y364448D01*
X300737Y364273D01*
X300518Y364076D01*
X300496Y364054D01*
X300475Y364033D01*
X300365Y363901D01*
X300343Y363879D01*
X300321Y363858D01*
X300234Y363748D01*
X300212Y363726D01*
X300190Y363661D01*
X300125Y363529D01*
X300037Y363333D01*
Y363311D01*
X300015Y363289D01*
X299972Y363158D01*
X299928Y363026D01*
X299862Y362873D01*
X299840Y362830D01*
X299775Y362742D01*
X299687Y362633D01*
X299578Y362502D01*
X299556Y362480D01*
X299512Y362458D01*
X299403Y362370D01*
X300671Y360183D01*
X301437Y360490D01*
X301459D01*
X301502Y360511D01*
X301568Y360533D01*
X301656Y360577D01*
X301874Y360621D01*
X302137Y360665D01*
X302377D01*
X302596Y360643D01*
X302880Y360621D01*
X303558D01*
X303886Y360665D01*
X304214Y360730D01*
X304236D01*
X304280Y360752D01*
X304367Y360796D01*
X304499Y360861D01*
X304630Y360927D01*
X304805Y361014D01*
X304980Y361146D01*
X305177Y361277D01*
X305198Y361299D01*
X305264Y361321D01*
X305351Y361386D01*
X305505Y361496D01*
X305548Y361518D01*
X305614Y361539D01*
X305701Y361605D01*
X305723Y361627D01*
X305811Y361670D01*
X305920Y361758D01*
X306051Y361845D01*
X306073Y361867D01*
X306139Y361911D01*
X306204Y361977D01*
X306292Y362064D01*
X301568Y364798D01*
D02*
G37*
G36*
X306511Y361933D02*
X306489Y361911D01*
X306445Y361845D01*
X306336Y361758D01*
X306204Y361649D01*
X306183Y361627D01*
X306095Y361583D01*
X305986Y361496D01*
X305833Y361408D01*
X305811Y361386D01*
X305745Y361343D01*
X305723D01*
X305701Y361321D01*
X305636Y361277D01*
X305614D01*
X305592Y361255D01*
X305505Y361189D01*
X305395Y361124D01*
X305330Y361080D01*
X305308Y361058D01*
X305242Y361014D01*
X305133Y360949D01*
X304980Y360861D01*
X304652Y360665D01*
X304477Y360577D01*
X304302Y360511D01*
X304280D01*
X304214Y360490D01*
X304105Y360446D01*
X303974Y360424D01*
X303821Y360402D01*
X303624Y360380D01*
X303405Y360358D01*
X303143D01*
X303033Y360380D01*
X302640D01*
X302443Y360402D01*
X302049D01*
X301962Y360380D01*
X301765Y360336D01*
X301524Y360271D01*
X300781Y359965D01*
X302924Y356247D01*
X302946D01*
X302968Y356225D01*
X303011Y356137D01*
Y356116D01*
X303055Y356094D01*
X303099Y356050D01*
X303121Y356028D01*
X303143Y356006D01*
X303274Y355919D01*
X303471Y355853D01*
X303580Y355809D01*
X303711D01*
Y355787D01*
X303755D01*
X303864Y355809D01*
X304017Y355831D01*
X304192Y355919D01*
X304214Y355941D01*
X304236Y355962D01*
X304258D01*
X304280Y355984D01*
X304345Y356050D01*
X304433Y356137D01*
X304521Y356269D01*
X307473Y361386D01*
X306511Y361933D01*
D02*
G37*
%LPD*%
D10*
X152027Y239898D02*
X151583Y240821D01*
X150584Y241049D01*
X149782Y240410D01*
Y239385D01*
X150584Y238746D01*
X151583Y238974D01*
X152027Y239898D01*
X268335Y304602D02*
X267890Y305526D01*
X266891Y305754D01*
X266089Y305115D01*
Y304090D01*
X266891Y303451D01*
X267890Y303679D01*
X268335Y304602D01*
X151528Y158898D02*
X151083Y159821D01*
X150084Y160049D01*
X149282Y159410D01*
Y158385D01*
X150084Y157746D01*
X151083Y157974D01*
X151528Y158898D01*
X268335Y170602D02*
X267890Y171526D01*
X266891Y171754D01*
X266089Y171115D01*
Y170090D01*
X266891Y169451D01*
X267890Y169679D01*
X268335Y170602D01*
X197528Y91898D02*
X197083Y92821D01*
X196084Y93049D01*
X195282Y92410D01*
Y91385D01*
X196084Y90746D01*
X197083Y90974D01*
X197528Y91898D01*
X191335Y138602D02*
X190890Y139526D01*
X189891Y139754D01*
X189089Y139115D01*
Y138090D01*
X189891Y137451D01*
X190890Y137679D01*
X191335Y138602D01*
X203134Y216453D02*
X202689Y217376D01*
X201690Y217604D01*
X200889Y216965D01*
Y215940D01*
X201690Y215301D01*
X202689Y215529D01*
X203134Y216453D01*
D11*
X160000Y233992D02*
X159262Y234418D01*
Y233566D01*
X160000Y233992D01*
X258984Y310508D02*
X258246Y310934D01*
Y310082D01*
X258984Y310508D01*
X159500Y152992D02*
X158762Y153418D01*
Y152566D01*
X159500Y152992D01*
X258984Y176508D02*
X258246Y176934D01*
Y176082D01*
X258984Y176508D01*
X205500Y85992D02*
X204762Y86418D01*
Y85566D01*
X205500Y85992D01*
X181984Y144508D02*
X181246Y144934D01*
Y144082D01*
X181984Y144508D01*
X198114Y207693D02*
X197376Y208119D01*
Y207267D01*
X198114Y207693D01*
X264303Y222414D02*
X263565Y222840D01*
Y221988D01*
X264303Y222414D01*
D12*
X89859Y72603D02*
D03*
X44358Y130841D02*
D03*
X374858Y71341D02*
D03*
X374358Y273559D02*
D03*
X374858Y211711D02*
D03*
X375358Y132841D02*
D03*
X298358Y71341D02*
D03*
X90359Y111841D02*
D03*
X374858Y91103D02*
D03*
X373858Y293559D02*
D03*
X374858Y232603D02*
D03*
X374358Y151059D02*
D03*
X298358Y91341D02*
D03*
X338358Y10841D02*
D03*
X374858Y112103D02*
D03*
X373858Y313059D02*
D03*
Y253559D02*
D03*
X298358Y111341D02*
D03*
X338358Y29841D02*
D03*
X374358Y171603D02*
D03*
X374858Y50341D02*
D03*
Y192103D02*
D03*
X298358Y52103D02*
D03*
X12359Y297059D02*
D03*
X87858Y278103D02*
D03*
X44358Y215341D02*
D03*
Y151103D02*
D03*
X13858Y89439D02*
D03*
X51859Y10341D02*
D03*
X89859Y52603D02*
D03*
X87858Y297103D02*
D03*
X44358Y236841D02*
D03*
Y172841D02*
D03*
X14858Y110440D02*
D03*
X52359Y30103D02*
D03*
X44858Y319603D02*
D03*
Y257603D02*
D03*
X13858Y49201D02*
D03*
X44358Y194841D02*
D03*
X12359Y278603D02*
D03*
X90359Y90603D02*
D03*
X13858Y69440D02*
D03*
X134800Y382838D02*
D03*
X188256Y382338D02*
D03*
X227256D02*
D03*
D13*
X95429Y345402D02*
Y391138D01*
X31886Y345402D02*
Y391138D01*
X95429D01*
X31886Y345402D02*
X95429D01*
X328220Y335205D02*
X361764D01*
X328220D02*
Y390941D01*
X361764D01*
Y335205D02*
Y390941D01*
X35878Y132917D02*
Y251028D01*
X-11366Y132917D02*
X35878D01*
X-11366D02*
Y251028D01*
X35878D01*
X140217Y256039D02*
X154783D01*
X140217Y235961D02*
X154783D01*
X140217D02*
Y256039D01*
X154783Y235961D02*
Y256039D01*
X263216Y288461D02*
X277783D01*
X263216Y308539D02*
X277783D01*
Y288461D02*
Y308539D01*
X263216Y288461D02*
Y308539D01*
X139716Y175039D02*
X154283D01*
X139716Y154961D02*
X154283D01*
X139716D02*
Y175039D01*
X154283Y154961D02*
Y175039D01*
X263216Y154461D02*
X277783D01*
X263216Y174539D02*
X277783D01*
Y154461D02*
Y174539D01*
X263216Y154461D02*
Y174539D01*
X185716Y108039D02*
X200284D01*
X185716Y87961D02*
X200284D01*
X185716D02*
Y108039D01*
X200284Y87961D02*
Y108039D01*
X186216Y122461D02*
X200783D01*
X186216Y142539D02*
X200783D01*
Y122461D02*
Y142539D01*
X186216Y122461D02*
Y142539D01*
X249984Y212516D02*
Y264484D01*
X198016Y212516D02*
Y264484D01*
X249984D01*
X198016Y212516D02*
X249984D01*
X259288Y230974D02*
X266526Y238212D01*
X268399Y221818D02*
X275637Y229056D01*
D14*
X139642Y337547D02*
X254209D01*
X257358Y340697D01*
Y358020D01*
X254209Y361169D02*
X257358Y358020D01*
X139642Y361169D02*
X254209D01*
X136492Y358020D02*
X139642Y361169D01*
X136492Y340697D02*
Y358020D01*
Y340697D02*
X139642Y337547D01*
Y11957D02*
X254209D01*
X257358Y15106D01*
Y32429D01*
X254209Y35579D02*
X257358Y32429D01*
X139642Y35579D02*
X254209D01*
X136492Y32429D02*
X139642Y35579D01*
X136492Y15106D02*
Y32429D01*
Y15106D02*
X139642Y11957D01*
D15*
X100104Y352865D02*
X98438Y352031D01*
X96772Y350365D01*
Y348699D01*
X97605Y347866D01*
X99271D01*
X100104Y348699D01*
Y349532D01*
X99271Y350365D01*
X96772D01*
X26492Y347866D02*
X28158D01*
X27325D01*
Y352865D01*
X26492Y352031D01*
X367158Y352669D02*
X365491D01*
X366324D01*
Y347671D01*
X367158Y348504D01*
X323546Y347671D02*
X326878D01*
Y350170D01*
X325212Y349337D01*
X324379D01*
X323546Y350170D01*
Y351836D01*
X324379Y352669D01*
X326045D01*
X326878Y351836D01*
X323546Y337671D02*
X325212Y338504D01*
X326878Y340170D01*
Y341836D01*
X326045Y342669D01*
X324379D01*
X323546Y341836D01*
Y341003D01*
X324379Y340170D01*
X326878D01*
X363825Y342669D02*
X367158D01*
X363825Y339337D01*
Y338504D01*
X364658Y337671D01*
X366324D01*
X367158Y338504D01*
X125654Y384022D02*
Y390020D01*
X122654D01*
X121655Y389020D01*
Y385022D01*
X122654Y384022D01*
X125654D01*
X115657D02*
X119655D01*
Y390020D01*
X115657D01*
X119655Y387021D02*
X117656D01*
X113657Y384022D02*
Y390020D01*
X110658D01*
X109659Y389020D01*
Y388021D01*
X110658Y387021D01*
X113657D01*
X110658D01*
X109659Y386021D01*
Y385022D01*
X110658Y384022D01*
X113657D01*
X107659D02*
Y389020D01*
X106660Y390020D01*
X104660D01*
X103661Y389020D01*
Y384022D01*
X97663Y385022D02*
X98662Y384022D01*
X100662D01*
X101661Y385022D01*
Y389020D01*
X100662Y390020D01*
X98662D01*
X97663Y389020D01*
Y387021D01*
X99662D01*
X159000Y377500D02*
Y373501D01*
X157001Y371502D01*
X155001Y373501D01*
Y377500D01*
Y374501D01*
X159000D01*
X153002Y371502D02*
Y377500D01*
X149003D01*
X147004D02*
Y373501D01*
X145004Y371502D01*
X143005Y373501D01*
Y377500D01*
Y374501D01*
X147004D01*
X141006Y377500D02*
Y371502D01*
X138007D01*
X137007Y372502D01*
Y374501D01*
X138007Y375501D01*
X141006D01*
X139006D02*
X137007Y377500D01*
X135008D02*
Y371502D01*
X133008Y373501D01*
X131009Y371502D01*
Y377500D01*
X208501Y372502D02*
X209501Y371502D01*
X211500D01*
X212500Y372502D01*
Y376500D01*
X211500Y377500D01*
X209501D01*
X208501Y376500D01*
X203503Y371502D02*
X205502D01*
X206502Y372502D01*
Y376500D01*
X205502Y377500D01*
X203503D01*
X202503Y376500D01*
Y372502D01*
X203503Y371502D01*
X200504Y377500D02*
Y371502D01*
X198504Y373501D01*
X196505Y371502D01*
Y377500D01*
X194506D02*
Y371502D01*
X192507Y373501D01*
X190507Y371502D01*
Y377500D01*
X188508D02*
Y373501D01*
X186508Y371502D01*
X184509Y373501D01*
Y377500D01*
Y374501D01*
X188508D01*
X182510Y377500D02*
Y371502D01*
X178511Y377500D01*
Y371502D01*
X176512D02*
Y377500D01*
X173513D01*
X172513Y376500D01*
Y372502D01*
X173513Y371502D01*
X176512D01*
X250500Y377500D02*
Y371502D01*
X247501D01*
X246501Y372502D01*
Y374501D01*
X247501Y375501D01*
X250500D01*
X241503Y371502D02*
X243502D01*
X244502Y372502D01*
Y376500D01*
X243502Y377500D01*
X241503D01*
X240503Y376500D01*
Y372502D01*
X241503Y371502D01*
X238504D02*
Y377500D01*
X236505Y375501D01*
X234505Y377500D01*
Y371502D01*
X228507D02*
X232506D01*
Y377500D01*
X228507D01*
X232506Y374501D02*
X230506D01*
X226508Y377500D02*
Y371502D01*
X223509D01*
X222509Y372502D01*
Y374501D01*
X223509Y375501D01*
X226508D01*
X224508D02*
X222509Y377500D01*
X213500Y68661D02*
Y75220D01*
X210220Y78500D01*
X206940Y75220D01*
Y68661D01*
X203661D02*
X200381D01*
X202021D01*
Y78500D01*
X203661D01*
X200381D01*
X195461Y68661D02*
Y78500D01*
X190542D01*
X188902Y76860D01*
Y70301D01*
X190542Y68661D01*
X195461D01*
X185622D02*
Y78500D01*
X180702D01*
X179062Y76860D01*
Y75220D01*
X180702Y73580D01*
X185622D01*
X180702D01*
X179062Y71940D01*
Y70301D01*
X180702Y68661D01*
X185622D01*
X238000Y320000D02*
X234720D01*
X236360D01*
Y313440D01*
X238000D01*
X228161Y320000D02*
X224881D01*
X223241Y318360D01*
Y315080D01*
X224881Y313440D01*
X228161D01*
X229801Y315080D01*
Y318360D01*
X228161Y320000D01*
X219961D02*
Y313440D01*
X215041D01*
X213402Y315080D01*
Y320000D01*
X208482D02*
X205202D01*
X203562Y318360D01*
Y315080D01*
X205202Y313440D01*
X208482D01*
X210122Y315080D01*
Y318360D01*
X208482Y320000D01*
X200283D02*
X195363D01*
X193723Y318360D01*
X195363Y316720D01*
X198643D01*
X200283Y315080D01*
X198643Y313440D01*
X193723D01*
X185523Y320000D02*
X188803D01*
X190443Y318360D01*
Y315080D01*
X188803Y313440D01*
X185523D01*
X183884Y315080D01*
Y316720D01*
X190443D01*
X180604Y320000D02*
Y313440D01*
X175684D01*
X174044Y315080D01*
Y320000D01*
X170765D02*
X165845D01*
X164205Y318360D01*
X165845Y316720D01*
X169125D01*
X170765Y315080D01*
X169125Y313440D01*
X164205D01*
X218500Y324161D02*
Y332360D01*
X216860Y334000D01*
X213580D01*
X211940Y332360D01*
Y324161D01*
X208661Y334000D02*
Y324161D01*
X202101Y334000D01*
Y324161D01*
X192262D02*
X198821D01*
Y334000D01*
X192262D01*
X198821Y329080D02*
X195542D01*
X188982Y324161D02*
Y334000D01*
X184062D01*
X182422Y332360D01*
Y325801D01*
X184062Y324161D01*
X188982D01*
X324500Y389500D02*
Y383502D01*
X321501D01*
X320501Y384502D01*
Y386501D01*
X321501Y387501D01*
X324500D01*
X318502Y389500D02*
Y383502D01*
X315503D01*
X314503Y384502D01*
Y386501D01*
X315503Y387501D01*
X318502D01*
X316503D02*
X314503Y389500D01*
X309505Y383502D02*
X311504D01*
X312504Y384502D01*
Y388500D01*
X311504Y389500D01*
X309505D01*
X308505Y388500D01*
Y384502D01*
X309505Y383502D01*
X302507Y384502D02*
X303507Y383502D01*
X305506D01*
X306506Y384502D01*
Y388500D01*
X305506Y389500D01*
X303507D01*
X302507Y388500D01*
Y386501D01*
X304506D01*
X300508Y389500D02*
Y383502D01*
X297509D01*
X296509Y384502D01*
Y386501D01*
X297509Y387501D01*
X300508D01*
X298508D02*
X296509Y389500D01*
X294510D02*
Y385501D01*
X292510Y383502D01*
X290511Y385501D01*
Y389500D01*
Y386501D01*
X294510D01*
X288512Y389500D02*
Y383502D01*
X286512Y385501D01*
X284513Y383502D01*
Y389500D01*
X282514D02*
Y383502D01*
X280514Y385501D01*
X278515Y383502D01*
Y389500D01*
X272517Y383502D02*
X276516D01*
Y389500D01*
X272517D01*
X276516Y386501D02*
X274516D01*
X270517Y389500D02*
Y383502D01*
X267518D01*
X266519Y384502D01*
Y386501D01*
X267518Y387501D01*
X270517D01*
X268518D02*
X266519Y389500D01*
X199000Y362501D02*
X200999D01*
X200000D01*
Y367499D01*
X200999Y368499D01*
X201999D01*
X202999Y367499D01*
X197001Y368499D02*
X195001D01*
X196001D01*
Y362501D01*
X197001Y363501D01*
X199500Y42001D02*
X201499D01*
X200499D01*
Y46999D01*
X201499Y47999D01*
X202499D01*
X203498Y46999D01*
X193502Y47999D02*
X197500D01*
X193502Y44000D01*
Y43001D01*
X194501Y42001D01*
X196501D01*
X197500Y43001D01*
X12999Y265000D02*
Y266999D01*
Y265999D01*
X8001D01*
X7001Y266999D01*
Y267999D01*
X8001Y268998D01*
X12999Y259002D02*
X11999Y261001D01*
X10000Y263000D01*
X8001D01*
X7001Y262001D01*
Y260001D01*
X8001Y259002D01*
X9000D01*
X10000Y260001D01*
Y263000D01*
X143502Y266499D02*
Y261501D01*
X144501Y260501D01*
X146501D01*
X147500Y261501D01*
Y266499D01*
X149500D02*
X153498D01*
Y265499D01*
X149500Y261501D01*
Y260501D01*
X264502Y317999D02*
Y313001D01*
X265501Y312001D01*
X267501D01*
X268500Y313001D01*
Y317999D01*
X274498D02*
X272499Y316999D01*
X270500Y315000D01*
Y313001D01*
X271499Y312001D01*
X273499D01*
X274498Y313001D01*
Y314000D01*
X273499Y315000D01*
X270500D01*
X188002Y150999D02*
Y146001D01*
X189001Y145001D01*
X191001D01*
X192000Y146001D01*
Y150999D01*
X197998D02*
X194000D01*
Y148000D01*
X195999Y149000D01*
X196999D01*
X197998Y148000D01*
Y146001D01*
X196999Y145001D01*
X194999D01*
X194000Y146001D01*
X144002Y183499D02*
Y178501D01*
X145001Y177501D01*
X147001D01*
X148000Y178501D01*
Y183499D01*
X152999Y177501D02*
Y183499D01*
X150000Y180500D01*
X153998D01*
X250502Y278999D02*
Y274001D01*
X251501Y273001D01*
X253501D01*
X254500Y274001D01*
Y278999D01*
X256500Y277999D02*
X257499Y278999D01*
X259499D01*
X260498Y277999D01*
Y277000D01*
X259499Y276000D01*
X258499D01*
X259499D01*
X260498Y275000D01*
Y274001D01*
X259499Y273001D01*
X257499D01*
X256500Y274001D01*
X189002Y115999D02*
Y111001D01*
X190001Y110001D01*
X192001D01*
X193000Y111001D01*
Y115999D01*
X198998Y110001D02*
X195000D01*
X198998Y114000D01*
Y114999D01*
X197999Y115999D01*
X195999D01*
X195000Y114999D01*
X266501Y182999D02*
Y178001D01*
X267501Y177001D01*
X269500D01*
X270500Y178001D01*
Y182999D01*
X272499Y177001D02*
X274499D01*
X273499D01*
Y182999D01*
X272499Y181999D01*
X289501Y111503D02*
X295499D01*
X293500D01*
X289501Y115501D01*
X292500Y112502D01*
X295499Y115501D01*
Y120500D02*
X289501D01*
X292500Y117501D01*
Y121499D01*
X295499Y127497D02*
Y123499D01*
X291500Y127497D01*
X290501D01*
X289501Y126498D01*
Y124498D01*
X290501Y123499D01*
X289501Y92502D02*
X295499D01*
X293500D01*
X289501Y96501D01*
X292500Y93502D01*
X295499Y96501D01*
Y101499D02*
X289501D01*
X292500Y98500D01*
Y102499D01*
X295499Y104498D02*
Y106498D01*
Y105498D01*
X289501D01*
X290501Y104498D01*
X289501Y71503D02*
X295499D01*
X293500D01*
X289501Y75501D01*
X292500Y72502D01*
X295499Y75501D01*
Y80500D02*
X289501D01*
X292500Y77501D01*
Y81499D01*
X290501Y83499D02*
X289501Y84498D01*
Y86498D01*
X290501Y87497D01*
X294499D01*
X295499Y86498D01*
Y84498D01*
X294499Y83499D01*
X290501D01*
X289501Y51503D02*
X295499D01*
X293500D01*
X289501Y55501D01*
X292500Y52502D01*
X295499Y55501D01*
X290501Y57501D02*
X289501Y58500D01*
Y60500D01*
X290501Y61499D01*
X291500D01*
X292500Y60500D01*
Y59500D01*
Y60500D01*
X293500Y61499D01*
X294499D01*
X295499Y60500D01*
Y58500D01*
X294499Y57501D01*
Y63499D02*
X295499Y64498D01*
Y66498D01*
X294499Y67497D01*
X290501D01*
X289501Y66498D01*
Y64498D01*
X290501Y63499D01*
X291500D01*
X292500Y64498D01*
Y67497D01*
X366501Y312459D02*
X372499D01*
X370500D01*
X366501Y316458D01*
X369500Y313459D01*
X372499Y316458D01*
X367501Y318457D02*
X366501Y319457D01*
Y321456D01*
X367501Y322456D01*
X368500D01*
X369500Y321456D01*
Y320457D01*
Y321456D01*
X370500Y322456D01*
X371499D01*
X372499Y321456D01*
Y319457D01*
X371499Y318457D01*
X367501Y324455D02*
X366501Y325455D01*
Y327454D01*
X367501Y328454D01*
X368500D01*
X369500Y327454D01*
X370500Y328454D01*
X371499D01*
X372499Y327454D01*
Y325455D01*
X371499Y324455D01*
X370500D01*
X369500Y325455D01*
X368500Y324455D01*
X367501D01*
X369500Y325455D02*
Y327454D01*
X367001Y293046D02*
X372999D01*
X371000D01*
X367001Y297045D01*
X370000Y294046D01*
X372999Y297045D01*
X368001Y299044D02*
X367001Y300044D01*
Y302043D01*
X368001Y303043D01*
X369000D01*
X370000Y302043D01*
Y301043D01*
Y302043D01*
X371000Y303043D01*
X371999D01*
X372999Y302043D01*
Y300044D01*
X371999Y299044D01*
X367001Y305042D02*
Y309041D01*
X368001D01*
X371999Y305042D01*
X372999D01*
X367001Y273503D02*
X372999D01*
X371000D01*
X367001Y277501D01*
X370000Y274502D01*
X372999Y277501D01*
X368001Y279501D02*
X367001Y280500D01*
Y282500D01*
X368001Y283499D01*
X369000D01*
X370000Y282500D01*
Y281500D01*
Y282500D01*
X371000Y283499D01*
X371999D01*
X372999Y282500D01*
Y280500D01*
X371999Y279501D01*
X367001Y289497D02*
X368001Y287498D01*
X370000Y285499D01*
X371999D01*
X372999Y286498D01*
Y288498D01*
X371999Y289497D01*
X371000D01*
X370000Y288498D01*
Y285499D01*
X367001Y253003D02*
X372999D01*
X371000D01*
X367001Y257001D01*
X370000Y254002D01*
X372999Y257001D01*
X368001Y259001D02*
X367001Y260000D01*
Y262000D01*
X368001Y262999D01*
X369000D01*
X370000Y262000D01*
Y261000D01*
Y262000D01*
X371000Y262999D01*
X371999D01*
X372999Y262000D01*
Y260000D01*
X371999Y259001D01*
X367001Y268997D02*
Y264999D01*
X370000D01*
X369000Y266998D01*
Y267998D01*
X370000Y268997D01*
X371999D01*
X372999Y267998D01*
Y265998D01*
X371999Y264999D01*
X367501Y233003D02*
X373499D01*
X371500D01*
X367501Y237001D01*
X370500Y234002D01*
X373499Y237001D01*
X368501Y239001D02*
X367501Y240000D01*
Y242000D01*
X368501Y242999D01*
X369500D01*
X370500Y242000D01*
Y241000D01*
Y242000D01*
X371500Y242999D01*
X372499D01*
X373499Y242000D01*
Y240000D01*
X372499Y239001D01*
X373499Y247998D02*
X367501D01*
X370500Y244999D01*
Y248997D01*
X367501Y212003D02*
X373499D01*
X371500D01*
X367501Y216001D01*
X370500Y213002D01*
X373499Y216001D01*
X368501Y218001D02*
X367501Y219000D01*
Y221000D01*
X368501Y221999D01*
X369500D01*
X370500Y221000D01*
Y220000D01*
Y221000D01*
X371500Y221999D01*
X372499D01*
X373499Y221000D01*
Y219000D01*
X372499Y218001D01*
X368501Y223999D02*
X367501Y224998D01*
Y226998D01*
X368501Y227997D01*
X369500D01*
X370500Y226998D01*
Y225998D01*
Y226998D01*
X371500Y227997D01*
X372499D01*
X373499Y226998D01*
Y224998D01*
X372499Y223999D01*
X367501Y192503D02*
X373499D01*
X371500D01*
X367501Y196501D01*
X370500Y193502D01*
X373499Y196501D01*
X368501Y198501D02*
X367501Y199500D01*
Y201500D01*
X368501Y202499D01*
X369500D01*
X370500Y201500D01*
Y200500D01*
Y201500D01*
X371500Y202499D01*
X372499D01*
X373499Y201500D01*
Y199500D01*
X372499Y198501D01*
X373499Y208497D02*
Y204499D01*
X369500Y208497D01*
X368501D01*
X367501Y207498D01*
Y205498D01*
X368501Y204499D01*
X367501Y173502D02*
X373499D01*
X371500D01*
X367501Y177501D01*
X370500Y174502D01*
X373499Y177501D01*
X368501Y179500D02*
X367501Y180500D01*
Y182499D01*
X368501Y183499D01*
X369500D01*
X370500Y182499D01*
Y181500D01*
Y182499D01*
X371500Y183499D01*
X372499D01*
X373499Y182499D01*
Y180500D01*
X372499Y179500D01*
X373499Y185498D02*
Y187498D01*
Y186498D01*
X367501D01*
X368501Y185498D01*
X367501Y151503D02*
X373499D01*
X371500D01*
X367501Y155501D01*
X370500Y152502D01*
X373499Y155501D01*
X368501Y157501D02*
X367501Y158500D01*
Y160500D01*
X368501Y161499D01*
X369500D01*
X370500Y160500D01*
Y159500D01*
Y160500D01*
X371500Y161499D01*
X372499D01*
X373499Y160500D01*
Y158500D01*
X372499Y157501D01*
X368501Y163499D02*
X367501Y164498D01*
Y166498D01*
X368501Y167497D01*
X372499D01*
X373499Y166498D01*
Y164498D01*
X372499Y163499D01*
X368501D01*
X367001Y132003D02*
X372999D01*
X371000D01*
X367001Y136001D01*
X370000Y133002D01*
X372999Y136001D01*
Y141999D02*
Y138001D01*
X369000Y141999D01*
X368001D01*
X367001Y141000D01*
Y139000D01*
X368001Y138001D01*
X371999Y143999D02*
X372999Y144998D01*
Y146998D01*
X371999Y147997D01*
X368001D01*
X367001Y146998D01*
Y144998D01*
X368001Y143999D01*
X369000D01*
X370000Y144998D01*
Y147997D01*
X367001Y111503D02*
X372999D01*
X371000D01*
X367001Y115501D01*
X370000Y112502D01*
X372999Y115501D01*
Y121499D02*
Y117501D01*
X369000Y121499D01*
X368001D01*
X367001Y120500D01*
Y118500D01*
X368001Y117501D01*
Y123499D02*
X367001Y124498D01*
Y126498D01*
X368001Y127497D01*
X369000D01*
X370000Y126498D01*
X371000Y127497D01*
X371999D01*
X372999Y126498D01*
Y124498D01*
X371999Y123499D01*
X371000D01*
X370000Y124498D01*
X369000Y123499D01*
X368001D01*
X370000Y124498D02*
Y126498D01*
X367501Y91503D02*
X373499D01*
X371500D01*
X367501Y95501D01*
X370500Y92502D01*
X373499Y95501D01*
Y101499D02*
Y97501D01*
X369500Y101499D01*
X368501D01*
X367501Y100500D01*
Y98500D01*
X368501Y97501D01*
X367501Y103499D02*
Y107497D01*
X368501D01*
X372499Y103499D01*
X373499D01*
X367501Y72003D02*
X373499D01*
X371500D01*
X367501Y76001D01*
X370500Y73002D01*
X373499Y76001D01*
Y81999D02*
Y78001D01*
X369500Y81999D01*
X368501D01*
X367501Y81000D01*
Y79000D01*
X368501Y78001D01*
X367501Y87997D02*
X368501Y85998D01*
X370500Y83999D01*
X372499D01*
X373499Y84998D01*
Y86998D01*
X372499Y87997D01*
X371500D01*
X370500Y86998D01*
Y83999D01*
X367501Y51003D02*
X373499D01*
X371500D01*
X367501Y55001D01*
X370500Y52002D01*
X373499Y55001D01*
Y60999D02*
Y57001D01*
X369500Y60999D01*
X368501D01*
X367501Y60000D01*
Y58000D01*
X368501Y57001D01*
X367501Y66997D02*
Y62999D01*
X370500D01*
X369500Y64998D01*
Y65998D01*
X370500Y66997D01*
X372499D01*
X373499Y65998D01*
Y63998D01*
X372499Y62999D01*
X331001Y30503D02*
X336999D01*
X335000D01*
X331001Y34501D01*
X334000Y31502D01*
X336999Y34501D01*
Y40499D02*
Y36501D01*
X333000Y40499D01*
X332001D01*
X331001Y39500D01*
Y37500D01*
X332001Y36501D01*
X336999Y45498D02*
X331001D01*
X334000Y42499D01*
Y46497D01*
X331001Y11003D02*
X336999D01*
X335000D01*
X331001Y15001D01*
X334000Y12002D01*
X336999Y15001D01*
Y20999D02*
Y17001D01*
X333000Y20999D01*
X332001D01*
X331001Y20000D01*
Y18000D01*
X332001Y17001D01*
Y22999D02*
X331001Y23998D01*
Y25998D01*
X332001Y26997D01*
X333000D01*
X334000Y25998D01*
Y24998D01*
Y25998D01*
X335000Y26997D01*
X335999D01*
X336999Y25998D01*
Y23998D01*
X335999Y22999D01*
X100999Y127997D02*
X95001D01*
X97000D01*
X100999Y123999D01*
X98000Y126998D01*
X95001Y123999D01*
Y118001D02*
Y121999D01*
X99000Y118001D01*
X99999D01*
X100999Y119000D01*
Y121000D01*
X99999Y121999D01*
X95001Y112003D02*
Y116001D01*
X99000Y112003D01*
X99999D01*
X100999Y113002D01*
Y115002D01*
X99999Y116001D01*
X100499Y106498D02*
X94501D01*
X96500D01*
X100499Y102499D01*
X97500Y105498D01*
X94501Y102499D01*
Y96501D02*
Y100500D01*
X98500Y96501D01*
X99499D01*
X100499Y97501D01*
Y99500D01*
X99499Y100500D01*
X94501Y94502D02*
Y92502D01*
Y93502D01*
X100499D01*
X99499Y94502D01*
X100499Y87997D02*
X94501D01*
X96500D01*
X100499Y83999D01*
X97500Y86998D01*
X94501Y83999D01*
Y78001D02*
Y81999D01*
X98500Y78001D01*
X99499D01*
X100499Y79000D01*
Y81000D01*
X99499Y81999D01*
Y76001D02*
X100499Y75002D01*
Y73002D01*
X99499Y72003D01*
X95501D01*
X94501Y73002D01*
Y75002D01*
X95501Y76001D01*
X99499D01*
X100499Y67498D02*
X94501D01*
X96500D01*
X100499Y63499D01*
X97500Y66498D01*
X94501Y63499D01*
Y61500D02*
Y59500D01*
Y60500D01*
X100499D01*
X99499Y61500D01*
X95501Y56501D02*
X94501Y55501D01*
Y53502D01*
X95501Y52502D01*
X99499D01*
X100499Y53502D01*
Y55501D01*
X99499Y56501D01*
X98500D01*
X97500Y55501D01*
Y52502D01*
X22999Y312498D02*
X17001D01*
X19000D01*
X22999Y308499D01*
X20000Y311498D01*
X17001Y308499D01*
Y306500D02*
Y304500D01*
Y305500D01*
X22999D01*
X21999Y306500D01*
Y301501D02*
X22999Y300501D01*
Y298502D01*
X21999Y297502D01*
X21000D01*
X20000Y298502D01*
X19000Y297502D01*
X18001D01*
X17001Y298502D01*
Y300501D01*
X18001Y301501D01*
X19000D01*
X20000Y300501D01*
X21000Y301501D01*
X21999D01*
X20000Y300501D02*
Y298502D01*
X23499Y292498D02*
X17501D01*
X19500D01*
X23499Y288499D01*
X20500Y291498D01*
X17501Y288499D01*
Y286500D02*
Y284500D01*
Y285500D01*
X23499D01*
X22499Y286500D01*
X23499Y281501D02*
Y277502D01*
X22499D01*
X18501Y281501D01*
X17501D01*
X55999Y334998D02*
X50001D01*
X52000D01*
X55999Y330999D01*
X53000Y333998D01*
X50001Y330999D01*
Y328999D02*
Y327000D01*
Y328000D01*
X55999D01*
X54999Y328999D01*
X55999Y320002D02*
X54999Y322002D01*
X53000Y324001D01*
X51001D01*
X50001Y323002D01*
Y321002D01*
X51001Y320002D01*
X52000D01*
X53000Y321002D01*
Y324001D01*
X98999Y313498D02*
X93001D01*
X95000D01*
X98999Y309499D01*
X96000Y312498D01*
X93001Y309499D01*
Y307500D02*
Y305500D01*
Y306500D01*
X98999D01*
X97999Y307500D01*
X98999Y298502D02*
Y302501D01*
X96000D01*
X97000Y300502D01*
Y299502D01*
X96000Y298502D01*
X94001D01*
X93001Y299502D01*
Y301501D01*
X94001Y302501D01*
X99499Y291998D02*
X93501D01*
X95500D01*
X99499Y287999D01*
X96500Y290998D01*
X93501Y287999D01*
Y285999D02*
Y284000D01*
Y285000D01*
X99499D01*
X98499Y285999D01*
X93501Y278002D02*
X99499D01*
X96500Y281001D01*
Y277002D01*
X55499Y272998D02*
X49501D01*
X51500D01*
X55499Y268999D01*
X52500Y271998D01*
X49501Y268999D01*
Y267000D02*
Y265000D01*
Y266000D01*
X55499D01*
X54499Y267000D01*
Y262001D02*
X55499Y261001D01*
Y259002D01*
X54499Y258002D01*
X53500D01*
X52500Y259002D01*
Y260002D01*
Y259002D01*
X51500Y258002D01*
X50501D01*
X49501Y259002D01*
Y261001D01*
X50501Y262001D01*
X55999Y251998D02*
X50001D01*
X52000D01*
X55999Y247999D01*
X53000Y250998D01*
X50001Y247999D01*
Y246000D02*
Y244000D01*
Y245000D01*
X55999D01*
X54999Y246000D01*
X50001Y237002D02*
Y241001D01*
X54000Y237002D01*
X54999D01*
X55999Y238002D01*
Y240001D01*
X54999Y241001D01*
X55999Y229998D02*
X50001D01*
X52000D01*
X55999Y225999D01*
X53000Y228998D01*
X50001Y225999D01*
Y224000D02*
Y222001D01*
Y223000D01*
X55999D01*
X54999Y224000D01*
X50001Y219002D02*
Y217002D01*
Y218002D01*
X55999D01*
X54999Y219002D01*
X55999Y209498D02*
X50001D01*
X52000D01*
X55999Y205499D01*
X53000Y208498D01*
X50001Y205499D01*
Y203500D02*
Y201500D01*
Y202500D01*
X55999D01*
X54999Y203500D01*
Y198501D02*
X55999Y197501D01*
Y195502D01*
X54999Y194502D01*
X51001D01*
X50001Y195502D01*
Y197501D01*
X51001Y198501D01*
X54999D01*
X55999Y185998D02*
X50001D01*
X52000D01*
X55999Y182000D01*
X53000Y184999D01*
X50001Y182000D01*
X51001Y180000D02*
X50001Y179001D01*
Y177001D01*
X51001Y176002D01*
X54999D01*
X55999Y177001D01*
Y179001D01*
X54999Y180000D01*
X54000D01*
X53000Y179001D01*
Y176002D01*
X55499Y163998D02*
X49501D01*
X51500D01*
X55499Y160000D01*
X52500Y162999D01*
X49501Y160000D01*
X54499Y158000D02*
X55499Y157001D01*
Y155001D01*
X54499Y154002D01*
X53500D01*
X52500Y155001D01*
X51500Y154002D01*
X50501D01*
X49501Y155001D01*
Y157001D01*
X50501Y158000D01*
X51500D01*
X52500Y157001D01*
X53500Y158000D01*
X54499D01*
X52500Y157001D02*
Y155001D01*
X55999Y143998D02*
X50001D01*
X52000D01*
X55999Y140000D01*
X53000Y142999D01*
X50001Y140000D01*
X55999Y138000D02*
Y134002D01*
X54999D01*
X51001Y138000D01*
X50001D01*
X25499Y122498D02*
X19501D01*
X21500D01*
X25499Y118500D01*
X22500Y121499D01*
X19501Y118500D01*
X25499Y112502D02*
X24499Y114501D01*
X22500Y116500D01*
X20501D01*
X19501Y115501D01*
Y113501D01*
X20501Y112502D01*
X21500D01*
X22500Y113501D01*
Y116500D01*
X24999Y102597D02*
X19001D01*
X21000D01*
X24999Y98598D01*
X22000Y101597D01*
X19001Y98598D01*
X24999Y92600D02*
Y96599D01*
X22000D01*
X23000Y94599D01*
Y93600D01*
X22000Y92600D01*
X20001D01*
X19001Y93600D01*
Y95599D01*
X20001Y96599D01*
X25499Y81998D02*
X19501D01*
X21500D01*
X25499Y78000D01*
X22500Y80999D01*
X19501Y78000D01*
Y73001D02*
X25499D01*
X22500Y76000D01*
Y72002D01*
X24999Y62097D02*
X19001D01*
X21000D01*
X24999Y58098D01*
X22000Y61097D01*
X19001Y58098D01*
X23999Y56099D02*
X24999Y55099D01*
Y53100D01*
X23999Y52100D01*
X23000D01*
X22000Y53100D01*
Y54100D01*
Y53100D01*
X21000Y52100D01*
X20001D01*
X19001Y53100D01*
Y55099D01*
X20001Y56099D01*
X63499Y42998D02*
X57501D01*
X59500D01*
X63499Y39000D01*
X60500Y41999D01*
X57501Y39000D01*
Y33002D02*
Y37000D01*
X61500Y33002D01*
X62499D01*
X63499Y34001D01*
Y36001D01*
X62499Y37000D01*
X63499Y21999D02*
X57501D01*
X59500D01*
X63499Y18000D01*
X60500Y20999D01*
X57501Y18000D01*
Y16001D02*
Y14001D01*
Y15001D01*
X63499D01*
X62499Y16001D01*
X103500Y374501D02*
X105499D01*
X104499D01*
Y379499D01*
X105499Y380499D01*
X106499D01*
X107498Y379499D01*
X97502Y374501D02*
X101500D01*
Y377500D01*
X99501Y376500D01*
X98501D01*
X97502Y377500D01*
Y379499D01*
X98501Y380499D01*
X100501D01*
X101500Y379499D01*
X321000Y375001D02*
X322999D01*
X321999D01*
Y379999D01*
X322999Y380999D01*
X323999D01*
X324998Y379999D01*
X316001Y380999D02*
Y375001D01*
X319000Y378000D01*
X315002D01*
M02*
