G04*
G04 #@! TF.GenerationSoftware,Altium Limited,Altium Designer,20.0.13 (296)*
G04*
G04 Layer_Physical_Order=2*
G04 Layer_Color=32768*
%FSLAX25Y25*%
%MOIN*%
G70*
G01*
G75*
%ADD56C,0.04000*%
%ADD57C,0.03800*%
G04:AMPARAMS|DCode=58|XSize=61.622mil|YSize=61.622mil|CornerRadius=0mil|HoleSize=0mil|Usage=FLASHONLY|Rotation=0.000|XOffset=0mil|YOffset=0mil|HoleType=Round|Shape=Relief|Width=4mil|Gap=4mil|Entries=4|*
%AMTHD58*
7,0,0,0.06162,0.05362,0.00400,45*
%
%ADD58THD58*%
%ADD59C,0.06509*%
%ADD60C,0.06312*%
%ADD61C,0.10249*%
%ADD62C,0.03753*%
G04:AMPARAMS|DCode=63|XSize=61.152mil|YSize=61.152mil|CornerRadius=0mil|HoleSize=0mil|Usage=FLASHONLY|Rotation=0.000|XOffset=0mil|YOffset=0mil|HoleType=Round|Shape=Relief|Width=4mil|Gap=4mil|Entries=4|*
%AMTHD63*
7,0,0,0.06115,0.05315,0.00400,45*
%
%ADD63THD63*%
G04:AMPARAMS|DCode=64|XSize=118.236mil|YSize=118.236mil|CornerRadius=0mil|HoleSize=0mil|Usage=FLASHONLY|Rotation=0.000|XOffset=0mil|YOffset=0mil|HoleType=Round|Shape=Relief|Width=4mil|Gap=4mil|Entries=4|*
%AMTHD64*
7,0,0,0.11824,0.11024,0.00400,45*
%
%ADD64THD64*%
%ADD65C,0.01587*%
D56*
X25Y25D02*
Y393726D01*
X393726D01*
Y25D02*
Y393726D01*
X25Y25D02*
X393726D01*
D57*
X38658Y350366D02*
D03*
X48658D02*
D03*
X68657D02*
D03*
X78658D02*
D03*
X88657D02*
D03*
X334992Y350169D02*
D03*
X344992Y340169D02*
D03*
Y350169D02*
D03*
X354992Y340169D02*
D03*
Y350169D02*
D03*
D58*
X58657Y350366D02*
D03*
X334992Y340169D02*
D03*
D59*
X143776Y352705D02*
D03*
X250075D02*
D03*
X143776Y27114D02*
D03*
X250075D02*
D03*
Y20421D02*
D03*
X143776D02*
D03*
D60*
X28004Y221500D02*
D03*
Y201815D02*
D03*
Y182130D02*
D03*
Y162445D02*
D03*
D61*
X18161Y241185D02*
D03*
Y142760D02*
D03*
D62*
X236000Y119500D02*
D03*
X251000D02*
D03*
X266000D02*
D03*
X281000D02*
D03*
X236000Y99500D02*
D03*
X251000D02*
D03*
X266000D02*
D03*
X281000D02*
D03*
X236000Y79500D02*
D03*
X251000D02*
D03*
X266000D02*
D03*
X281000D02*
D03*
X236000Y59500D02*
D03*
X251000D02*
D03*
X266000D02*
D03*
X281000D02*
D03*
X328000Y320957D02*
D03*
X343000D02*
D03*
X358000D02*
D03*
X328500Y301000D02*
D03*
X343500D02*
D03*
X358500D02*
D03*
X313500Y281500D02*
D03*
X328500D02*
D03*
X343500D02*
D03*
X358500D02*
D03*
X313500Y261000D02*
D03*
X328500D02*
D03*
X343500D02*
D03*
X358500D02*
D03*
X313500Y240500D02*
D03*
X328500D02*
D03*
X343500D02*
D03*
X358500D02*
D03*
X313500Y220000D02*
D03*
X328500D02*
D03*
X343500D02*
D03*
X358500D02*
D03*
X313500Y200000D02*
D03*
X328500D02*
D03*
X343500D02*
D03*
X358500D02*
D03*
X313500Y180000D02*
D03*
X328500D02*
D03*
X343500D02*
D03*
X358500D02*
D03*
X314000Y160000D02*
D03*
X329000D02*
D03*
X344000D02*
D03*
X359000D02*
D03*
X313500Y140000D02*
D03*
X328500D02*
D03*
X343500D02*
D03*
X358500D02*
D03*
X313500Y119500D02*
D03*
X328500D02*
D03*
X343500D02*
D03*
X358500D02*
D03*
X313500Y99500D02*
D03*
X328500D02*
D03*
X343500D02*
D03*
X358500D02*
D03*
X313500Y79500D02*
D03*
X328500D02*
D03*
X343500D02*
D03*
X358500D02*
D03*
X313500Y59000D02*
D03*
X328500D02*
D03*
X343500D02*
D03*
X358500D02*
D03*
X277000Y38500D02*
D03*
X292000D02*
D03*
X307000D02*
D03*
X322000D02*
D03*
X277000Y19000D02*
D03*
X292000D02*
D03*
X307000D02*
D03*
X322000D02*
D03*
X154500Y120000D02*
D03*
X139500D02*
D03*
X124500D02*
D03*
X109500D02*
D03*
X153500Y100000D02*
D03*
X138500D02*
D03*
X123500D02*
D03*
X108500D02*
D03*
X154000Y80000D02*
D03*
X139000D02*
D03*
X124000D02*
D03*
X109000D02*
D03*
X154000Y60000D02*
D03*
X139000D02*
D03*
X124000D02*
D03*
X109000D02*
D03*
X61500Y304500D02*
D03*
X46500D02*
D03*
X31500D02*
D03*
X61500Y286000D02*
D03*
X46500D02*
D03*
X31500D02*
D03*
X109500Y328000D02*
D03*
X94500D02*
D03*
X79500D02*
D03*
X64500D02*
D03*
X153000Y306000D02*
D03*
X138000D02*
D03*
X123000D02*
D03*
X108000D02*
D03*
X153000Y285000D02*
D03*
X138000D02*
D03*
X123000D02*
D03*
X108000D02*
D03*
X109500Y265500D02*
D03*
X94500D02*
D03*
X79500D02*
D03*
X64500D02*
D03*
X109500Y245000D02*
D03*
X94500D02*
D03*
X79500D02*
D03*
X64500D02*
D03*
X109500Y223500D02*
D03*
X94500D02*
D03*
X79500D02*
D03*
X64500D02*
D03*
X109500Y202500D02*
D03*
X94500D02*
D03*
X79500D02*
D03*
X64500D02*
D03*
X109500Y181000D02*
D03*
X94500D02*
D03*
X79500D02*
D03*
X64500D02*
D03*
X109500Y159500D02*
D03*
X94500D02*
D03*
X79500D02*
D03*
X64500D02*
D03*
X109500Y139000D02*
D03*
X94500D02*
D03*
X79500D02*
D03*
X64500D02*
D03*
X79000Y118500D02*
D03*
X64000D02*
D03*
X49000D02*
D03*
X34000D02*
D03*
X79000Y98598D02*
D03*
X64000D02*
D03*
X49000D02*
D03*
X34000D02*
D03*
X79000Y78000D02*
D03*
X64000D02*
D03*
X49000D02*
D03*
X34000D02*
D03*
X79000Y57099D02*
D03*
X64000D02*
D03*
X49000D02*
D03*
X34000D02*
D03*
X117000Y38000D02*
D03*
X102000D02*
D03*
X87000D02*
D03*
X72000D02*
D03*
X117000Y18500D02*
D03*
X102000D02*
D03*
X87000D02*
D03*
X72000D02*
D03*
D63*
X313000Y320957D02*
D03*
X313500Y301000D02*
D03*
X76500Y304500D02*
D03*
Y286000D02*
D03*
D64*
X15626Y379083D02*
D03*
X379012Y16091D02*
D03*
X14839Y14122D02*
D03*
X378618Y379083D02*
D03*
D65*
X305500Y109000D02*
D03*
X89000Y126000D02*
D03*
X187000Y211500D02*
D03*
X225000Y278000D02*
D03*
X185757Y250757D02*
D03*
X380000Y126000D02*
D03*
X379500Y153000D02*
D03*
X303500Y89000D02*
D03*
X245500Y380500D02*
D03*
X131500Y259000D02*
D03*
X282500Y146500D02*
D03*
X131150Y178350D02*
D03*
X209500Y119000D02*
D03*
X177000Y111500D02*
D03*
X166000Y322000D02*
D03*
X163500Y325500D02*
D03*
X169000Y325000D02*
D03*
X171500Y326500D02*
D03*
X242189Y250311D02*
D03*
X246158Y248342D02*
D03*
X224000Y336000D02*
D03*
X238000Y260441D02*
D03*
X235500Y333500D02*
D03*
X226500D02*
D03*
X239748Y263252D02*
D03*
X229000Y336000D02*
D03*
X241500Y260500D02*
D03*
X231000Y333500D02*
D03*
X233000Y336000D02*
D03*
X243500Y263500D02*
D03*
X245500Y260500D02*
D03*
X247622Y263622D02*
D03*
X287500Y285500D02*
D03*
X265000Y335000D02*
D03*
X242000Y246500D02*
D03*
X268000Y264000D02*
D03*
X246094Y244406D02*
D03*
X271000Y259000D02*
D03*
X242000Y242500D02*
D03*
X273500Y255500D02*
D03*
X276000Y259000D02*
D03*
X246031Y240469D02*
D03*
X261500Y244000D02*
D03*
X278500Y256000D02*
D03*
X263500Y246500D02*
D03*
X281000Y259000D02*
D03*
X283500Y256000D02*
D03*
X266500Y245500D02*
D03*
X267000Y242000D02*
D03*
X129000Y11000D02*
D03*
X202000Y197500D02*
D03*
X133500Y9500D02*
D03*
X204315Y200185D02*
D03*
X156571Y11571D02*
D03*
X154602Y9602D02*
D03*
X248000Y69500D02*
D03*
X251000D02*
D03*
X254000D02*
D03*
X215500Y199500D02*
D03*
X295500Y330500D02*
D03*
X301000D02*
D03*
X235000Y220000D02*
D03*
X292500Y321500D02*
D03*
X298000Y327000D02*
D03*
X238000Y217500D02*
D03*
X241717Y214784D02*
D03*
X262500Y213000D02*
D03*
X270500Y217000D02*
D03*
X247248Y222752D02*
D03*
X249328Y216914D02*
D03*
X265000Y220500D02*
D03*
X257500Y202500D02*
D03*
X245500Y218500D02*
D03*
X243000Y220500D02*
D03*
X254000Y202500D02*
D03*
X250500D02*
D03*
X234500Y42500D02*
D03*
X243500Y38000D02*
D03*
X245000Y69500D02*
D03*
X251500Y42500D02*
D03*
X242000Y69500D02*
D03*
X239000D02*
D03*
X245153Y9653D02*
D03*
X215500Y136500D02*
D03*
Y141500D02*
D03*
X212500Y134000D02*
D03*
Y139000D02*
D03*
X291000Y158000D02*
D03*
X297500Y131000D02*
D03*
X294000Y161000D02*
D03*
X291000Y163500D02*
D03*
X294000Y165500D02*
D03*
X291000Y168000D02*
D03*
X294000Y171000D02*
D03*
X291500Y173000D02*
D03*
X289000Y292000D02*
D03*
X293500Y295000D02*
D03*
X289500Y297000D02*
D03*
X293500Y299500D02*
D03*
X290000Y302500D02*
D03*
X293500Y305000D02*
D03*
X290000Y307500D02*
D03*
X375500Y69000D02*
D03*
X41500Y333000D02*
D03*
X306500Y343000D02*
D03*
X317500D02*
D03*
X152500Y334500D02*
D03*
X314000Y338000D02*
D03*
X156500Y334500D02*
D03*
X314000Y332500D02*
D03*
X375500Y311500D02*
D03*
X160500Y334500D02*
D03*
X149000D02*
D03*
X379154Y327000D02*
D03*
X379000Y307500D02*
D03*
X375500Y291500D02*
D03*
X379500Y287500D02*
D03*
X375500Y272000D02*
D03*
X379500Y268500D02*
D03*
Y255500D02*
D03*
X375500Y251000D02*
D03*
X376000Y230500D02*
D03*
X380000Y226000D02*
D03*
X379500Y213500D02*
D03*
X376500Y209500D02*
D03*
X379500Y186500D02*
D03*
X376500Y189500D02*
D03*
X379500Y173500D02*
D03*
X376000Y169500D02*
D03*
X373500Y149500D02*
D03*
X377000Y131000D02*
D03*
X376500Y109500D02*
D03*
X380000Y106500D02*
D03*
X376500Y89500D02*
D03*
X380000Y88000D02*
D03*
X379000Y67500D02*
D03*
X377000Y48000D02*
D03*
X304000Y69000D02*
D03*
X215500Y131000D02*
D03*
X212500Y128500D02*
D03*
X215500Y126000D02*
D03*
X344240Y43740D02*
D03*
X344740Y24740D02*
D03*
X128500Y252500D02*
D03*
X89500Y317000D02*
D03*
X104000Y297086D02*
D03*
X125500Y250000D02*
D03*
X95500Y293500D02*
D03*
X128500Y247500D02*
D03*
X125500Y245000D02*
D03*
X33000Y273000D02*
D03*
X15000Y314500D02*
D03*
X18500Y295000D02*
D03*
X14500Y296000D02*
D03*
X89500Y275500D02*
D03*
X42260Y271240D02*
D03*
X16000Y276000D02*
D03*
X128500Y242000D02*
D03*
X46500Y255000D02*
D03*
X42130Y250370D02*
D03*
X48500Y235500D02*
D03*
X125500Y239500D02*
D03*
X46000Y233000D02*
D03*
X129000Y237000D02*
D03*
X48000Y214500D02*
D03*
X46000Y212000D02*
D03*
Y194000D02*
D03*
X129000Y171500D02*
D03*
X46000Y190500D02*
D03*
X127000Y168500D02*
D03*
X46000Y172000D02*
D03*
Y169000D02*
D03*
X129500Y165500D02*
D03*
X50000Y150500D02*
D03*
X127000Y163000D02*
D03*
X129500Y161000D02*
D03*
X46000Y148500D02*
D03*
X51000Y132500D02*
D03*
X129000Y156000D02*
D03*
X127500Y158500D02*
D03*
X16500Y128000D02*
D03*
X14500Y107500D02*
D03*
X18000Y108000D02*
D03*
X14500Y87500D02*
D03*
X17500Y87000D02*
D03*
X18000Y66500D02*
D03*
X15055Y67555D02*
D03*
X171000Y104500D02*
D03*
X91500Y110500D02*
D03*
X87500Y108500D02*
D03*
X58000Y46000D02*
D03*
X57500Y26000D02*
D03*
X174000Y102000D02*
D03*
X171000Y99000D02*
D03*
X92000Y89500D02*
D03*
X87500Y88500D02*
D03*
X91500Y70500D02*
D03*
X174000Y96500D02*
D03*
X87500Y67500D02*
D03*
X91500Y51000D02*
D03*
X171500Y94000D02*
D03*
X174000Y91500D02*
D03*
X172000Y89000D02*
D03*
X172457Y39681D02*
D03*
X168382Y39882D02*
D03*
X164445Y39945D02*
D03*
X156571Y39929D02*
D03*
X206000Y26500D02*
D03*
X207000Y24500D02*
D03*
X204500D02*
D03*
X205500Y36500D02*
D03*
X207000Y38500D02*
D03*
X204500D02*
D03*
X149500Y26500D02*
D03*
X152000D02*
D03*
X149500Y24500D02*
D03*
X152000D02*
D03*
Y36500D02*
D03*
X149500D02*
D03*
X152000Y38500D02*
D03*
X149500D02*
D03*
X229405Y37405D02*
D03*
X227437Y39437D02*
D03*
X225468Y37468D02*
D03*
X223500Y39500D02*
D03*
X221500Y37500D02*
D03*
X213657Y37843D02*
D03*
X211689Y39689D02*
D03*
X209720Y37780D02*
D03*
X201847Y37846D02*
D03*
X199878Y39878D02*
D03*
X197909Y37909D02*
D03*
X195941Y39941D02*
D03*
X193972Y37972D02*
D03*
X192004Y39996D02*
D03*
X190035Y37965D02*
D03*
X188067Y39933D02*
D03*
X186098Y37902D02*
D03*
X184130Y39870D02*
D03*
X182161Y37839D02*
D03*
X180193Y39807D02*
D03*
X178224Y37724D02*
D03*
X176256Y39744D02*
D03*
X174287Y37713D02*
D03*
X170350Y37850D02*
D03*
X166413Y37913D02*
D03*
X162476Y37976D02*
D03*
X160508Y39992D02*
D03*
X158539Y37961D02*
D03*
X154602Y37898D02*
D03*
M02*
